<?xml version="1.0" standalone="no"?>
<!DOCTYPE svg PUBLIC "-//W3C//DTD SVG 1.1//EN" "http://www.w3.org/Graphics/SVG/1.1/DTD/svg11.dtd" >
<svg xmlns="http://www.w3.org/2000/svg" xmlns:xlink="http://www.w3.org/1999/xlink" version="1.1">
<metadata>
Created by FontForge 20170731 at Wed Oct 13 17:31:44 2021
 By Aleksey,,,
(c) 2019, Copyright by Lineto. All rights reserved.
</metadata>
<defs>
<font id="CircularXX-BoldItalic" horiz-adv-x="1193" >
  <font-face 
    font-family="CircularXX"
    font-weight="700"
    font-style="italic"
    font-stretch="normal"
    units-per-em="2048"
    panose-1="2 1 8 4 1 1 1 1 1 4"
    ascent="1536"
    descent="-512"
    x-height="1008"
    cap-height="1452"
    bbox="-526 -514 3353 2128"
    underline-thickness="102"
    underline-position="-307"
    slope="-12"
    unicode-range="U+000D-FEFF"
  />
<missing-glyph horiz-adv-x="481" 
 />
    <glyph glyph-name="f_f" unicode="ff" horiz-adv-x="1404" 
d="M375 0h-275l164 776h-170l49 232h172l31 151q20 93 60 161t94 105.5t113.5 54.5t129.5 17q50 0 96.5 -11t69.5 -24l-47 -223l-9 4q-9 4 -31 9t-48 5q-60 0 -104 -31t-58 -96l-24 -122h377l30 151q20 94 60 161.5t94.5 105t115 54.5t130.5 17q49 0 95 -11t69 -24l-48 -223
l-9 4q-9 4 -31 9t-48 5q-60 0 -103.5 -31t-57.5 -96l-25 -122h215l-51 -232h-213l-164 -776h-274l163 776h-374z" />
    <glyph glyph-name="f_f_i" unicode="ffi" horiz-adv-x="1939" 
d="M1651 1327q0 75 54.5 128.5t129.5 53.5q67 0 109.5 -42.5t42.5 -104.5q0 -77 -56.5 -129.5t-130.5 -52.5q-64 0 -106.5 42t-42.5 105zM375 0h-275l164 776h-170l49 232h172l31 151q20 93 60 161t94 105.5t113.5 54.5t129.5 17q50 0 96.5 -11t69.5 -24l-47 -223l-9 4
q-9 4 -31 9t-48 5q-60 0 -104 -31t-58 -96l-24 -122h377l30 151q20 94 60 161.5t94.5 105t115 54.5t130.5 17q49 0 95 -11t69 -24l-48 -223l-9 4q-9 4 -31 9t-48 5q-60 0 -103.5 -31t-57.5 -96l-25 -122h649l-215 -1008h-270l166 776h-379l-164 -776h-274l163 776h-374z" />
    <glyph glyph-name="f_f_l" unicode="ffl" horiz-adv-x="1949" 
d="M375 0h-275l164 776h-170l49 232h172l31 151q20 93 60 161t94 105.5t113.5 54.5t129.5 17q50 0 96.5 -11t69.5 -24l-47 -223l-9 4q-9 4 -31 9t-48 5q-60 0 -104 -31t-58 -96l-24 -122h377l30 151q20 94 60 161.5t94.5 105t115 54.5t130.5 17q49 0 95 -11t69 -24l-48 -223
l-9 4q-9 4 -31 9t-48 5q-60 0 -103.5 -31t-57.5 -96l-25 -122h391l101 475h272l-315 -1483h-271l164 776h-391l-164 -776h-274l163 776h-374z" />
    <glyph glyph-name="f_i" unicode="fi" horiz-adv-x="1298" 
d="M539 776l-164 -776h-275l164 776h-170l49 232h172l35 163q19 89 58.5 154t93 101.5t113 53.5t128.5 17q50 0 96.5 -11t69.5 -24l-47 -223l-10 4q-10 4 -33 9t-49 5q-130 0 -160 -139l-22 -110h657l-215 -1008h-270l166 776h-387zM1010 1327q0 75 54.5 128.5t129.5 53.5
q67 0 109.5 -42.5t42.5 -104.5q0 -77 -56.5 -129.5t-130.5 -52.5q-64 0 -106.5 42t-42.5 105z" />
    <glyph glyph-name="f_l" unicode="fl" horiz-adv-x="1294" 
d="M539 776l-164 -776h-275l164 776h-170l49 232h172l35 163q19 89 58.5 154t93 101.5t113 53.5t128.5 17q50 0 96.5 -11t69.5 -24l-47 -223l-10 4q-10 4 -33 9t-49 5q-130 0 -160 -139l-22 -110h385l100 475h273l-316 -1483h-270l164 776h-385z" />
    <glyph glyph-name=".notdef" horiz-adv-x="481" 
 />
    <glyph glyph-name=".null" horiz-adv-x="0" 
 />
    <glyph glyph-name=".null" horiz-adv-x="0" 
 />
    <glyph glyph-name="uni000D" unicode="&#xd;" horiz-adv-x="481" 
 />
    <glyph glyph-name="space" unicode=" " horiz-adv-x="481" 
 />
    <glyph glyph-name="exclam" unicode="!" horiz-adv-x="559" 
d="M143 442l148 1010h330l-279 -1010h-199zM27 129q0 74 52.5 127t127.5 53q64 0 104.5 -42.5t40.5 -102.5q0 -74 -53.5 -127t-122.5 -53q-65 0 -107 41.5t-42 103.5z" />
    <glyph glyph-name="quotedbl" unicode="&#x22;" horiz-adv-x="868" 
d="M322 768h-97l-12 315q-1 20 -2 46l-1.5 39t-0.5 16q0 73 46.5 120.5t119.5 47.5q64 0 103.5 -38t39.5 -97q0 -52 -31 -107zM707 768h-97l-12 315q-1 20 -2 46l-1.5 39t-0.5 16q0 73 46.5 120.5t119.5 47.5q64 0 103.5 -38t39.5 -97q0 -52 -31 -107z" />
    <glyph glyph-name="numbersign" unicode="#" horiz-adv-x="1443" 
d="M162 811v197h293l69 319h215l-69 -319h268l70 319h213l-70 -319h260v-197h-301l-61 -287h260v-194h-303l-70 -330h-213l70 330h-269l-69 -330h-215l69 330h-250v194h293l62 287h-252zM629 811l-62 -287h269l61 287h-268z" />
    <glyph glyph-name="dollar" unicode="$" horiz-adv-x="1126" 
d="M289 -238l49 232q-82 24 -146 70.5t-100.5 104t-55 117.5t-18.5 120q0 18 5 43l253 43q-2 -16 -2 -39q0 -102 62.5 -175.5t185.5 -74.5q90 0 143.5 43t55.5 114q0 91 -111 148q-10 4 -76 35t-83 37q-261 118 -261 358q0 175 125.5 290.5t311.5 127.5l43 213h223l-49 -236
q77 -23 135 -67t89 -96.5t45.5 -102t14.5 -96.5l-258 -45q0 20 -3.5 41t-17 50.5t-36 52t-64.5 38.5t-98 16q-81 0 -132.5 -47.5t-51.5 -113.5q0 -99 102 -146l152 -69q280 -128 280 -369q0 -160 -122 -280.5t-324 -129.5l-43 -207h-223z" />
    <glyph glyph-name="percent" unicode="%" horiz-adv-x="1720" 
d="M465 877q59 0 104 44.5t45 118.5q0 55 -31.5 88t-86.5 33q-57 0 -102.5 -46t-45.5 -118q0 -54 31.5 -87t85.5 -33zM449 684q-131 0 -217.5 87t-86.5 214q0 156 110.5 262.5t258.5 106.5q129 0 216 -88t87 -215q0 -104 -54 -189.5t-138 -131.5t-176 -46zM1249 172
q59 0 104.5 45t45.5 119q0 55 -32 88t-87 33q-57 0 -102 -46t-45 -118q0 -54 31 -87.5t85 -33.5zM1233 -20q-131 0 -217 87t-86 214q0 156 110 262t258 106q130 0 217 -88t87 -215q0 -78 -32 -147.5t-83.5 -116.5t-118 -74.5t-135.5 -27.5zM1602 1329l-1215 -1329h-248
l1215 1329h248z" />
    <glyph glyph-name="ampersand" unicode="&#x26;" horiz-adv-x="1406" 
d="M1264 0h-310l-104 152l-27 -23q-172 -145 -372 -145q-94 0 -173 31t-130 82.5t-79 117.5t-28 137q0 79 24 144.5t72 118.5t103 93t133 83l22 12l-16 24q-100 145 -100 267q0 94 37 170t98 122.5t136 71.5t155 25q166 0 270 -96t104 -236q0 -69 -24 -128.5t-68.5 -105.5
t-89 -78t-104.5 -65l-52 -29l172 -245l441 372l-76 -356l-236 -201zM313 377q0 -65 47.5 -110.5t120.5 -45.5q98 0 221 101l19 14l-201 287l-53 -29q-80 -43 -117 -92.5t-37 -124.5zM618 924l64 34q139 74 139 179q0 54 -38.5 87t-98.5 33q-56 0 -102.5 -38.5t-46.5 -114.5
q0 -62 49 -131z" />
    <glyph glyph-name="quotesingle" unicode="'" horiz-adv-x="483" 
d="M322 768h-97l-12 315q-1 20 -2 46l-1.5 39t-0.5 16q0 73 46.5 120.5t119.5 47.5q64 0 103.5 -38t39.5 -97q0 -52 -31 -107z" />
    <glyph glyph-name="parenleft" unicode="(" horiz-adv-x="702" 
d="M82 422q0 804 668 1251l122 -164q-559 -404 -559 -1071q0 -358 201 -657l-184 -121q-108 155 -177.5 352t-70.5 410z" />
    <glyph glyph-name="parenright" unicode=")" horiz-adv-x="700" 
d="M647 899q0 -386 -172 -698.5t-498 -544.5l-124 162q565 433 565 1079q0 176 -52.5 342.5t-148.5 304.5l184 121q246 -356 246 -766z" />
    <glyph glyph-name="asterisk" unicode="*" horiz-adv-x="960" 
d="M756 1452l-51 -260l251 78l31 -205l-256 -76l119 -201l-184 -122l-123 213l-197 -215l-151 127l200 210l-227 78l94 193l223 -80l45 260h226z" />
    <glyph glyph-name="plus" unicode="+" horiz-adv-x="1157" 
d="M692 492v-402h-229v402h-387v223h387v399h229v-399h387v-223h-387z" />
    <glyph glyph-name="comma" unicode="," horiz-adv-x="587" 
d="M6 141q0 84 58.5 138.5t144.5 54.5q84 0 136 -56t52 -143q0 -195 -135 -333t-332 -150l29 139q79 8 155 67.5t95 141.5q-16 -8 -47 -8q-69 0 -112.5 42.5t-43.5 106.5z" />
    <glyph glyph-name="hyphen" unicode="-" horiz-adv-x="849" 
d="M694 487h-594l52 242h596z" />
    <glyph glyph-name="period" unicode="." horiz-adv-x="563" 
d="M176 -12q-75 0 -122.5 48.5t-47.5 117.5q0 84 61 144t148 60q75 0 122.5 -48t47.5 -117q0 -85 -61.5 -145t-147.5 -60z" />
    <glyph glyph-name="slash" unicode="/" horiz-adv-x="1093" 
d="M1229 1483l-1059 -1514h-258l1055 1514h262z" />
    <glyph glyph-name="zero" unicode="0" horiz-adv-x="1280" 
d="M371 487q0 -125 53.5 -196.5t165.5 -71.5q73 0 134 44t99 112t64.5 154t37.5 165t11 150q0 264 -219 264q-74 0 -134.5 -43.5t-99 -110t-64.5 -152t-37 -164.5t-11 -151zM575 -31q-126 0 -222.5 43.5t-152 117.5t-83 163t-27.5 190q0 74 10 153.5t33.5 165.5t58 165.5
t87 151.5t116.5 125t151 84.5t187 31.5q102 0 185 -29t138 -77.5t92 -115.5t53 -139.5t16 -152.5q0 -89 -15.5 -183.5t-46 -194.5t-83 -188.5t-121 -158.5t-166 -111t-210.5 -41z" />
    <glyph glyph-name="one" unicode="1" horiz-adv-x="737" 
d="M479 0h-282l192 903h-283l41 187q128 4 227.5 69.5t141.5 169.5h244z" />
    <glyph glyph-name="two" unicode="2" horiz-adv-x="1159" 
d="M-33 0q0 4 4 28.5t4 28.5q34 188 134 321.5t292 219.5l244 109q104 46 155.5 102t51.5 133q0 71 -46.5 120.5t-141.5 49.5q-114 0 -173 -77.5t-59 -213.5l-262 29q0 144 59.5 258.5t176.5 183t274 68.5q112 0 200.5 -31t142.5 -85t82 -123t28 -148q0 -305 -355 -465
l-282 -127q-45 -21 -85.5 -57t-64.5 -80h647l-51 -244h-975z" />
    <glyph glyph-name="three" unicode="3" horiz-adv-x="1175" 
d="M469 612l-94 211l413 264h-585l47 242h942l-55 -276l-396 -254q129 -14 214 -108.5t85 -237.5q0 -94 -38 -181t-105.5 -154.5t-168 -108t-216.5 -40.5q-114 0 -208 36.5t-153.5 97.5t-91.5 138t-32 160q0 21 4 37l274 31q-2 -14 -2 -39q0 -94 57 -155.5t154 -61.5
q106 0 174 63.5t68 165.5q0 91 -59 138t-144 47q-43 0 -84 -15z" />
    <glyph glyph-name="four" unicode="4" horiz-adv-x="1249" 
d="M-6 285l61 297l727 747h340l-172 -803h228l-52 -241h-227l-57 -285h-279l58 285h-627zM672 526l108 500l-485 -500h377z" />
    <glyph glyph-name="five" unicode="5" horiz-adv-x="1138" 
d="M18 397v9l267 51q-2 -4 -2 -27q0 -91 57.5 -156t159.5 -65q100 0 171.5 65t71.5 181q0 91 -59.5 143.5t-151.5 52.5q-110 0 -186 -69l-235 116l276 631h748l-52 -244h-542l-119 -264q79 49 194 49q194 0 303 -103.5t109 -281.5q0 -142 -64 -259.5t-186.5 -188
t-281.5 -70.5q-105 0 -196 35.5t-152 94.5t-95.5 137t-34.5 163z" />
    <glyph glyph-name="six" unicode="6" horiz-adv-x="1214" 
d="M1239 1270l-113 -217q-104 55 -252 55q-162 0 -291 -90.5t-180 -253.5q50 56 126.5 87.5t162.5 31.5q191 0 300.5 -106t109.5 -279q0 -114 -42.5 -213t-114.5 -167.5t-171 -107.5t-209 -39q-210 0 -347.5 140t-137.5 370q0 176 59 334t163.5 276t258.5 187.5t334 69.5
q111 0 202 -21.5t142 -56.5zM606 655q-103 0 -174.5 -68t-71.5 -173q0 -89 58.5 -146t152.5 -57q100 0 172 67.5t72 178.5q0 90 -56.5 144t-152.5 54z" />
    <glyph glyph-name="seven" unicode="7" horiz-adv-x="1091" 
d="M1206 1329l-49 -235q-49 -33 -107 -80t-155 -147.5t-182 -215.5t-174.5 -288.5t-145.5 -362.5h-297q36 133 90.5 261t112.5 227t126 192.5t124.5 157t115.5 121t91.5 84.5t58.5 47h-665l51 239h1005z" />
    <glyph glyph-name="eight" unicode="8" horiz-adv-x="1179" 
d="M645 780q92 0 150.5 55.5t58.5 135.5q0 64 -45 109.5t-129 45.5q-101 0 -158 -56t-57 -134q0 -63 46 -109.5t134 -46.5zM317 373q0 -78 59 -126t152 -48q102 0 168 60t66 144q0 74 -53.5 124.5t-157.5 50.5t-169 -60t-65 -145zM1034 381q0 -95 -43 -174t-115.5 -130
t-166.5 -79.5t-197 -28.5q-205 0 -338 98t-133 271q0 129 90.5 225t237.5 127q-72 32 -123 106.5t-51 161.5q0 118 65.5 210t178 142t251.5 50q211 0 330 -100.5t119 -253.5q0 -119 -76.5 -211.5t-208.5 -130.5q82 -31 131 -111.5t49 -171.5z" />
    <glyph glyph-name="nine" unicode="9" horiz-adv-x="1218" 
d="M420 877q0 -89 57 -143t152 -54q102 0 170.5 66.5t68.5 171.5q0 90 -57.5 145t-148.5 55q-99 0 -170.5 -65t-71.5 -176zM6 76l111 217q122 -74 266 -74q168 0 292.5 97.5t162.5 261.5q-47 -59 -120.5 -91t-160.5 -32q-185 0 -301.5 112t-116.5 289q0 151 73.5 267.5
t194 176.5t265.5 60q215 0 350 -137.5t135 -372.5q0 -198 -58 -363t-160 -278.5t-245.5 -176.5t-312.5 -63q-228 0 -375 107z" />
    <glyph glyph-name="colon" unicode=":" horiz-adv-x="614" 
d="M195 -12q-73 0 -119.5 47.5t-46.5 116.5q0 82 59 141t145 59q74 0 121 -47.5t47 -116.5q0 -83 -60.5 -141.5t-145.5 -58.5zM336 657q-73 0 -119.5 47.5t-46.5 116.5q0 82 59.5 141.5t145.5 59.5q74 0 121 -47.5t47 -116.5q0 -83 -61 -142t-146 -59z" />
    <glyph glyph-name="semicolon" unicode=";" horiz-adv-x="614" 
d="M20 135q0 79 56.5 131.5t136.5 52.5q81 0 130.5 -53.5t49.5 -136.5q0 -186 -128.5 -318t-315.5 -143l26 133q75 6 147.5 63.5t90.5 135.5q-16 -8 -45 -8q-66 0 -107 41t-41 102zM336 657q-73 0 -119.5 47.5t-46.5 116.5q0 82 59.5 141.5t145.5 59.5q74 0 121 -47.5
t47 -116.5q0 -83 -61 -142t-146 -59z" />
    <glyph glyph-name="less" unicode="&#x3c;" horiz-adv-x="1128" 
d="M76 500v207l880 444v-252l-606 -293l606 -293v-256z" />
    <glyph glyph-name="equal" unicode="=" horiz-adv-x="1325" 
d="M160 698v220h993v-220h-993zM160 291v221h993v-221h-993z" />
    <glyph glyph-name="greater" unicode="&#x3e;" horiz-adv-x="1134" 
d="M1059 707v-205l-881 -445v252l606 293l-606 293v256z" />
    <glyph glyph-name="question" unicode="?" horiz-adv-x="1079" 
d="M584 438h-217q4 265 221 387l114 66q123 69 123 190q0 66 -45.5 112t-134.5 46q-112 0 -172.5 -76.5t-60.5 -187.5l-254 29q3 206 143.5 342.5t364.5 136.5q107 0 193.5 -31t139.5 -82.5t81 -115.5t28 -134q0 -267 -283 -426l-94 -55q-70 -40 -105 -87t-42 -114zM283 129
q0 74 52.5 127t127.5 53q64 0 104.5 -42.5t40.5 -102.5q0 -74 -53.5 -127t-122.5 -53q-65 0 -107 41.5t-42 103.5z" />
    <glyph glyph-name="at" unicode="@" horiz-adv-x="1705" 
d="M946 -98q-178 0 -330.5 56.5t-261 157t-170 245.5t-61.5 317q0 175 64 326.5t173 256.5t256.5 164.5t311.5 59.5q156 0 293 -51.5t234.5 -140.5t153.5 -214.5t56 -267.5q0 -113 -35.5 -212.5t-94 -167.5t-134.5 -107t-156 -39q-76 0 -127 35t-67 88q-37 -60 -102.5 -93.5
t-135.5 -33.5q-134 0 -222.5 99t-88.5 255q0 131 55.5 237.5t147.5 165t200 58.5q64 0 120 -29t79 -84l16 86h195l-107 -502q-6 -24 -6 -39q0 -28 17.5 -46.5t48.5 -18.5q78 0 140 100.5t62 245.5q0 217 -150.5 353t-389.5 136q-170 0 -306.5 -76.5t-215 -217.5t-78.5 -322
q0 -127 42.5 -236.5t120 -190t194.5 -126t259 -45.5q215 0 377 121l98 -139q-81 -73 -216 -118.5t-259 -45.5zM1059 750q0 75 -36 118t-103 43q-90 0 -148.5 -76t-58.5 -182q0 -87 35.5 -137.5t109.5 -50.5q85 0 141.5 81t59.5 204z" />
    <glyph glyph-name="A" unicode="A" horiz-adv-x="1445" 
d="M1004 0l-48 332h-561l-186 -332h-318l850 1452h324l231 -1452h-292zM844 1135l-303 -545h379z" />
    <glyph glyph-name="B" unicode="B" horiz-adv-x="1263" 
d="M350 1452h481q187 0 287.5 -94.5t100.5 -247.5q0 -128 -80 -234.5t-201 -140.5q79 -25 138 -103.5t59 -185.5q0 -195 -141.5 -320.5t-362.5 -125.5h-588zM500 852h190q109 0 176.5 59t67.5 154q0 71 -47 110t-139 39h-170zM371 236h221q115 0 188.5 61.5t73.5 161.5
q0 74 -48 116.5t-144 42.5h-211z" />
    <glyph glyph-name="C" unicode="C" horiz-adv-x="1492" 
d="M901 1483q113 0 209 -28t163 -73.5t117.5 -107.5t78.5 -126.5t40 -133.5l-274 -82q-11 53 -35.5 100t-65.5 89.5t-106.5 67.5t-146.5 25q-130 0 -239.5 -70.5t-176 -202.5t-66.5 -298q0 -181 102 -292t275 -111q143 0 237.5 77t145.5 195l254 -102q-35 -85 -90 -160
t-134.5 -140.5t-192 -104t-244.5 -38.5q-141 0 -260.5 50t-203 137t-130.5 209.5t-47 263.5q0 159 43.5 297.5t119.5 239t176.5 173.5t215.5 109t235 37z" />
    <glyph glyph-name="D" unicode="D" horiz-adv-x="1468" 
d="M377 266h264q89 0 174.5 39t153.5 108t109.5 176t41.5 232q0 173 -93 271t-273 98h-181zM631 0h-588l305 1452h430q293 0 462 -165.5t169 -438.5q0 -160 -42.5 -298.5t-117 -238t-173 -170.5t-212 -106t-233.5 -35z" />
    <glyph glyph-name="E" unicode="E" horiz-adv-x="1181" 
d="M948 0h-905l307 1452h905l-57 -266h-620l-72 -332h563l-53 -252h-563l-72 -336h623z" />
    <glyph glyph-name="F" unicode="F" horiz-adv-x="1167" 
d="M326 0h-283l307 1452h914l-58 -268h-631l-75 -359h561l-53 -260h-562z" />
    <glyph glyph-name="G" unicode="G" horiz-adv-x="1568" 
d="M881 1217q-96 0 -183 -41t-153 -113.5t-105 -181.5t-39 -238q0 -188 99 -301t276 -113q151 0 257.5 77t144.5 204h-451l51 246h713l-158 -756h-217l6 150q-65 -82 -165.5 -129.5t-225.5 -47.5q-275 0 -446.5 181t-171.5 473q0 159 43 297.5t118 239.5t175 174t216 109
t238 36q113 0 210 -26.5t165 -70.5t119 -104t80 -123.5t41 -132.5l-277 -82q-11 52 -36 98.5t-67 87t-108 64t-149 23.5z" />
    <glyph glyph-name="H" unicode="H" horiz-adv-x="1492" 
d="M1194 0h-285l127 602h-583l-127 -602h-283l307 1452h283l-123 -584h584l123 584h284z" />
    <glyph glyph-name="I" unicode="I" horiz-adv-x="628" 
d="M330 0h-287l307 1452h287z" />
    <glyph glyph-name="J" unicode="J" horiz-adv-x="1126" 
d="M860 1452h287l-223 -1049q-42 -198 -174 -316t-322 -118q-198 0 -312 112t-114 290q0 77 12 131l13 53l276 39l-22 -113q-9 -52 -9 -67q0 -78 43 -128t127 -50q78 0 130 53t71 145z" />
    <glyph glyph-name="K" unicode="K" horiz-adv-x="1394" 
d="M934 0l-311 602l-211 -190l-86 -412h-283l307 1452h283l-129 -612l680 612h389l-727 -651l420 -801h-332z" />
    <glyph glyph-name="L" unicode="L" horiz-adv-x="1114" 
d="M956 0h-913l307 1452h283l-250 -1182h631z" />
    <glyph glyph-name="M" unicode="M" horiz-adv-x="1945" 
d="M1647 0h-279l213 1012l-616 -1012h-224l-215 999l-213 -999h-270l307 1452h346l230 -1042l624 1042h404z" />
    <glyph glyph-name="N" unicode="N" horiz-adv-x="1542" 
d="M1243 0h-282l-420 1026l-217 -1026h-281l307 1452h326l385 -969l207 969h282z" />
    <glyph glyph-name="O" unicode="O" horiz-adv-x="1593" 
d="M111 618q0 134 30.5 255t84 214.5t127 169t160.5 125t183 75.5t195 26q289 0 465 -179t176 -470q0 -161 -43 -301t-117.5 -242t-173.5 -175.5t-212.5 -110t-231.5 -36.5q-288 0 -465.5 180t-177.5 469zM1241 817q0 183 -98.5 290t-268.5 107q-132 0 -241.5 -77.5
t-171.5 -209t-62 -288.5q0 -183 100 -290t267 -107q198 0 335 162t140 413z" />
    <glyph glyph-name="P" unicode="P" horiz-adv-x="1226" 
d="M350 1452h473q195 0 316 -112t121 -289q0 -230 -156 -364t-406 -136h-256l-116 -551h-283zM758 1206h-174l-90 -411h202q122 0 197.5 61t75.5 174q0 81 -53 128.5t-158 47.5z" />
    <glyph glyph-name="Q" unicode="Q" horiz-adv-x="1593" 
d="M111 618q0 134 30.5 255t84 214.5t127 169t160.5 125t183 75.5t195 26q289 0 465 -179t176 -470q0 -209 -70 -376t-192 -282l145 -207l-213 -137l-143 203q-147 -66 -305 -66q-288 0 -465.5 180t-177.5 469zM694 553l215 139l197 -282q135 172 135 407q0 183 -98.5 290
t-268.5 107q-132 0 -241.5 -77.5t-171.5 -209t-62 -288.5q0 -183 100 -290t267 -107q72 0 133 20z" />
    <glyph glyph-name="R" unicode="R" horiz-adv-x="1304" 
d="M831 0l-202 561h-185l-118 -561h-283l307 1452h506q197 0 306.5 -104t109.5 -269q0 -179 -100.5 -305.5t-264.5 -175.5l226 -598h-302zM496 807h217q123 0 196.5 64.5t73.5 170.5q0 76 -48 120t-142 44h-211z" />
    <glyph glyph-name="S" unicode="S" horiz-adv-x="1228" 
d="M578 215q103 0 163 49.5t62 128.5q0 109 -123 162l-176 78q-281 125 -281 389q0 133 70 238.5t187 163t257 57.5q110 0 198.5 -29t142 -74t89.5 -103t50 -111t14 -103l-264 -45q0 21 -4 44.5t-19 56t-39.5 57.5t-71.5 43t-108 18q-94 0 -155.5 -55t-61.5 -129
q0 -109 115 -160l168 -74q158 -69 230.5 -168t72.5 -233q0 -86 -35.5 -166t-99 -142.5t-162 -100.5t-215.5 -38q-116 0 -210.5 30t-155.5 78.5t-103 112t-60 127t-18 127.5q0 29 4 43l264 45q-2 -18 -2 -43q0 -112 69.5 -191.5t207.5 -82.5z" />
    <glyph glyph-name="T" unicode="T" horiz-adv-x="1212" 
d="M1300 1184h-421l-250 -1184h-283l250 1184h-440l57 268h1145z" />
    <glyph glyph-name="U" unicode="U" horiz-adv-x="1409" 
d="M1143 1452h287l-211 -993q-50 -236 -205 -363t-373 -127q-231 0 -370.5 126t-139.5 339q0 63 16 141l185 877h282l-186 -889q-10 -55 -10 -92q0 -106 61 -166.5t185 -60.5q110 0 181 66.5t99 195.5z" />
    <glyph glyph-name="V" unicode="V" horiz-adv-x="1386" 
d="M492 1452l143 -1083l590 1083h317l-833 -1452h-289l-219 1452h291z" />
    <glyph glyph-name="W" unicode="W" horiz-adv-x="2082" 
d="M1057 1452h293l110 -1008l455 1008h301l-688 -1452h-285l-113 1034l-524 -1034h-297l-96 1452h283l55 -1003z" />
    <glyph glyph-name="X" unicode="X" horiz-adv-x="1323" 
d="M643 477l-401 -477h-355l637 733l-329 719h321l213 -481l406 481h352l-639 -737l332 -715h-326z" />
    <glyph glyph-name="Y" unicode="Y" horiz-adv-x="1302" 
d="M514 612l-321 840h299l206 -569l404 569h340l-645 -844l-129 -608h-283z" />
    <glyph glyph-name="Z" unicode="Z" horiz-adv-x="1290" 
d="M1071 0h-1114l57 272l918 912h-705l58 268h1085l-55 -262l-932 -922h745z" />
    <glyph glyph-name="bracketleft" unicode="[" horiz-adv-x="661" 
d="M410 -336h-471l421 1995h474l-43 -207h-250l-334 -1577h248z" />
    <glyph glyph-name="backslash" unicode="\" horiz-adv-x="1081" 
d="M670 -31l-439 1514h234l438 -1514h-233z" />
    <glyph glyph-name="bracketright" unicode="]" horiz-adv-x="661" 
d="M324 -336h-471l45 211h247l334 1577h-248l43 207h474z" />
    <glyph glyph-name="asciicircum" unicode="^" horiz-adv-x="1177" 
d="M520 1452h209l406 -733h-256l-252 473l-252 -473h-260z" />
    <glyph glyph-name="underscore" unicode="_" horiz-adv-x="1114" 
d="M-119 -223v223h1047v-223h-1047z" />
    <glyph glyph-name="grave" unicode="`" horiz-adv-x="569" 
d="M217 1128l-211 308h303l119 -308h-211z" />
    <glyph glyph-name="a" unicode="a" horiz-adv-x="1208" 
d="M594 788q-63 0 -114.5 -31t-84 -81.5t-50 -111.5t-17.5 -124q0 -104 52.5 -163.5t143.5 -59.5q109 0 185.5 97.5t76.5 258.5q0 100 -51 157.5t-141 57.5zM889 1008h264l-166 -787q-18 -89 -18 -182q0 -21 2 -39h-252q-2 16 -2 47q0 26 4 76q-41 -60 -109 -100.5
t-161 -40.5q-181 0 -287.5 128t-106.5 320q0 256 148 429t366 173q124 0 195 -43t98 -96z" />
    <glyph glyph-name="b" unicode="b" horiz-adv-x="1232" 
d="M272 0h-264l311 1483h269l-117 -557q42 47 114 75.5t156 28.5q126 0 216.5 -57.5t134 -151.5t43.5 -213q0 -136 -40.5 -254t-110.5 -201t-168 -130.5t-210 -47.5q-111 0 -192.5 49.5t-110.5 116.5zM647 791q-115 0 -193.5 -98.5t-78.5 -243.5q0 -106 57 -169t148 -63
q50 0 98.5 23t89.5 65t66.5 110t25.5 150q0 109 -58 167.5t-155 58.5z" />
    <glyph glyph-name="c" unicode="c" horiz-adv-x="1118" 
d="M1061 700l-246 -73q-13 69 -66.5 116.5t-142.5 47.5q-109 0 -193.5 -91t-84.5 -251q0 -108 61 -170t162 -62q151 0 227 148l226 -89q-60 -132 -180 -219.5t-289 -87.5q-208 0 -343 131t-135 342q0 131 46.5 244t125 189.5t181.5 119.5t215 43q99 0 179 -29t131 -79
t82.5 -107.5t43.5 -122.5z" />
    <glyph glyph-name="d" unicode="d" horiz-adv-x="1208" 
d="M1253 1483l-266 -1262q-18 -80 -22 -178q0 -35 2 -43h-248q-2 18 -2 51q0 26 4 72q-41 -60 -109 -100.5t-161 -40.5q-121 1 -211.5 61t-136.5 160.5t-46 226.5q0 256 148 429t366 173q115 0 185.5 -39t101.5 -92l123 582h272zM594 788q-63 0 -114.5 -31t-84 -81.5
t-50 -111.5t-17.5 -124q0 -104 52.5 -163.5t143.5 -59.5q109 0 185.5 97.5t76.5 258.5q0 100 -51 157.5t-141 57.5z" />
    <glyph glyph-name="e" unicode="e" horiz-adv-x="1122" 
d="M338 618h442q2 14 2 25q0 68 -47 121t-143 53q-97 0 -162 -55.5t-92 -143.5zM1010 432l-701 -2q0 -102 59.5 -167.5t166.5 -65.5q79 0 137 37t88 94l209 -105q-55 -109 -170.5 -181.5t-280.5 -72.5q-127 0 -231.5 56t-168 163t-63.5 246q0 135 46.5 251t123 192
t173 118.5t198.5 42.5q206 0 324 -117.5t118 -306.5q0 -89 -28 -182z" />
    <glyph glyph-name="f" unicode="f" horiz-adv-x="755" 
d="M752 776h-213l-164 -776h-275l164 776h-170l49 232h172l35 163q19 89 58.5 154t93 101.5t113 53.5t128.5 17q50 0 96.5 -11t69.5 -24l-47 -223l-10 4q-10 4 -33 9t-49 5q-130 0 -160 -139l-22 -110h213z" />
    <glyph glyph-name="g" unicode="g" horiz-adv-x="1210" 
d="M791 590q0 86 -53 142t-144 56q-112 0 -186 -81.5t-74 -214.5q0 -93 54.5 -150t148.5 -57q108 0 181 83t73 222zM-61 -37l243 49q0 -84 55 -140t162 -56q224 0 291 274l17 68q-32 -42 -94.5 -71.5t-143.5 -29.5q-186 0 -297 118t-111 300q0 152 65 278.5t182 200.5
t261 74q112 0 188.5 -38.5t108.5 -96.5l25 115h266l-192 -920q-22 -106 -66 -195t-112 -160.5t-167.5 -112t-222.5 -40.5q-113 0 -203 34t-144 89.5t-82.5 122.5t-28.5 137z" />
    <glyph glyph-name="h" unicode="h" horiz-adv-x="1167" 
d="M913 0h-272l125 584q6 30 6 59q0 69 -40 109.5t-114 40.5q-83 0 -137.5 -59t-74.5 -150l-127 -584h-271l314 1483h272l-117 -557q94 108 264 108q148 0 232 -88.5t84 -228.5q0 -47 -13 -107z" />
    <glyph glyph-name="i" unicode="i" horiz-adv-x="546" 
d="M258 1327q0 75 54.5 128.5t129.5 53.5q67 0 109.5 -42.5t42.5 -104.5q0 -77 -56 -129.5t-130 -52.5q-64 0 -107 42t-43 105zM279 0h-271l215 1008h271z" />
    <glyph glyph-name="j" unicode="j" horiz-adv-x="544" 
d="M-8 -66l231 1074h271l-242 -1135q-30 -143 -119.5 -218t-218.5 -75q-64 0 -112 15t-70 30l45 213l5 -2q5 -2 13.5 -4.5t19.5 -5t26 -4.5t30 -2q102 3 121 114zM258 1327q0 75 54.5 128.5t129.5 53.5q67 0 109.5 -42.5t42.5 -104.5q0 -77 -56 -129.5t-130 -52.5
q-64 0 -107 42t-43 105z" />
    <glyph glyph-name="k" unicode="k" horiz-adv-x="1132" 
d="M678 0l-189 403l-153 -131l-57 -272h-271l314 1483h272l-176 -828l401 353h379l-502 -428l287 -580h-305z" />
    <glyph glyph-name="l" unicode="l" horiz-adv-x="542" 
d="M279 0h-271l314 1483h272z" />
    <glyph glyph-name="m" unicode="m" horiz-adv-x="1769" 
d="M899 0h-270l125 592q6 27 6 55q0 66 -39 107t-111 41q-80 0 -130 -54.5t-70 -148.5l-129 -592h-271l176 836q21 99 21 172h264q0 -58 -6 -99q48 61 120 93t154 32q95 0 163.5 -40.5t103.5 -110.5q119 151 329 151q144 0 234 -87.5t90 -233.5q0 -42 -10 -97l-133 -616
h-271l127 592q6 27 6 53q0 67 -38.5 108.5t-112.5 41.5q-78 0 -129.5 -55t-71.5 -146z" />
    <glyph glyph-name="n" unicode="n" horiz-adv-x="1169" 
d="M915 0h-272l125 584q6 30 6 59q0 69 -39.5 109.5t-113.5 40.5q-83 0 -138 -59t-75 -150l-127 -584h-271l176 836q21 99 21 172h264q0 -62 -6 -103q47 65 123 97t160 32q147 0 229 -88t82 -229q0 -51 -12 -107z" />
    <glyph glyph-name="o" unicode="o" horiz-adv-x="1179" 
d="M602 791q-117 0 -194.5 -97.5t-77.5 -242.5q0 -107 57.5 -170.5t149.5 -63.5q49 0 96.5 22t87 62.5t64 108t24.5 149.5q0 109 -56 170.5t-151 61.5zM1081 569q0 -162 -71 -299t-201 -219t-291 -82q-137 0 -243 62.5t-162 169t-56 237.5t45 243.5t121.5 190.5t180 122
t219.5 44q210 0 334 -133.5t124 -335.5z" />
    <glyph glyph-name="p" unicode="p" horiz-adv-x="1234" 
d="M653 791q-117 0 -195.5 -98.5t-78.5 -243.5q0 -111 57.5 -171.5t149.5 -60.5q50 0 98 22.5t88 65t65 110.5t25 150q0 108 -57 167t-152 59zM465 903q44 57 119.5 91t163.5 34q187 0 288 -117t101 -303q0 -136 -40 -254t-109.5 -201t-167 -130.5t-208.5 -47.5
q-108 0 -189.5 41.5t-119.5 104.5l-106 -510h-271l260 1225q21 99 21 172h264q0 -66 -6 -105z" />
    <glyph glyph-name="q" unicode="q" horiz-adv-x="1206" 
d="M1155 1008l-297 -1399h-270l98 465q-92 -92 -231 -92q-121 1 -212.5 62t-138.5 161.5t-47 224.5q0 256 148 429t366 173q122 0 193.5 -42.5t101.5 -94.5l25 113h264zM594 786q-82 0 -144.5 -52.5t-92 -130t-29.5 -163.5q0 -103 54 -163t148 -60q108 0 184.5 96t76.5 256
q0 103 -51.5 160t-145.5 57z" />
    <glyph glyph-name="r" unicode="r" horiz-adv-x="786" 
d="M770 731q-58 14 -98 14q-231 0 -291 -280l-100 -465h-271l176 836q23 108 23 172h264q0 -76 -12 -125q91 131 280 131q40 0 86 -8z" />
    <glyph glyph-name="s" unicode="s" horiz-adv-x="937" 
d="M8 309l232 41q-2 -8 -2 -18q0 -67 43.5 -112.5t115.5 -45.5q61 0 93 29t32 71q0 64 -76 99l-112 49q-215 92 -215 283q0 137 108 235t277 98q86 0 153 -21.5t107 -54t67 -75.5t37 -81.5t11 -76.5l-236 -37q0 57 -34.5 100.5t-112.5 43.5q-53 0 -87 -29.5t-34 -71.5
q0 -60 63 -86l129 -55q224 -98 224 -295q0 -59 -25 -116.5t-71.5 -106t-123 -78t-170.5 -29.5q-96 0 -169.5 25t-114.5 62t-67 86t-34 88.5t-8 78.5z" />
    <glyph glyph-name="t" unicode="t" horiz-adv-x="759" 
d="M428 -12q-132 0 -207.5 70t-75.5 190q0 36 9 80l94 438h-178l51 242h41q85 0 131.5 41.5t64.5 121.5l31 138h246l-66 -301h197l-51 -242h-197l-88 -420q-6 -21 -6 -41q0 -86 108 -86q40 0 72 8l-47 -217q-51 -22 -129 -22z" />
    <glyph glyph-name="u" unicode="u" horiz-adv-x="1159" 
d="M211 1008h270l-116 -545q-15 -67 -15 -96q0 -70 38 -111t114 -41q81 0 133 57.5t72 149.5l127 586h270l-168 -803q-23 -106 -23 -182v-23h-260q-2 12 -2 43q0 30 2 61q-38 -61 -108.5 -95t-143.5 -34q-156 0 -242.5 92t-86.5 238q0 57 20 150z" />
    <glyph glyph-name="v" unicode="v" horiz-adv-x="1093" 
d="M1143 1008l-584 -1008h-270l-178 1008h280l88 -674l361 674h303z" />
    <glyph glyph-name="w" unicode="w" horiz-adv-x="1683" 
d="M772 1008h287l78 -646l309 646h283l-519 -1008h-268l-86 686l-356 -686h-279l-98 1008h264l51 -643z" />
    <glyph glyph-name="x" unicode="x" horiz-adv-x="1091" 
d="M494 303l-269 -303h-327l477 516l-262 492h297l145 -295l258 295h332l-471 -508q19 -33 135.5 -250t134.5 -250h-299z" />
    <glyph glyph-name="y" unicode="y" horiz-adv-x="1077" 
d="M244 -389h-301l348 549l-221 848h286l136 -566l339 566h306z" />
    <glyph glyph-name="z" unicode="z" horiz-adv-x="1009" 
d="M795 0h-836l51 242l580 530h-451l49 236h809l-49 -230l-598 -542h494z" />
    <glyph glyph-name="braceleft" unicode="{" horiz-adv-x="747" 
d="M16 553l47 229q94 0 161.5 46t88.5 143l62 295q44 214 155 303.5t304 89.5h84l-44 -207h-61q-87 0 -139.5 -41.5t-73.5 -140.5l-74 -344q-23 -103 -88.5 -172.5t-169.5 -87.5q72 -22 112 -76.5t40 -132.5q0 -29 -6 -64l-68 -313q-6 -34 -6 -64q0 -133 149 -133h52
l-43 -207h-60q-156 0 -241.5 77.5t-85.5 221.5q0 57 14 117l59 275q6 27 6 53q0 69 -48.5 101t-125.5 32z" />
    <glyph glyph-name="bar" unicode="|" horiz-adv-x="503" 
d="M168 -324h-227l419 1983h230z" />
    <glyph glyph-name="braceright" unicode="}" horiz-adv-x="745" 
d="M758 780l-49 -229q-208 0 -248 -186l-64 -293q-45 -205 -163 -300.5t-308 -95.5h-71l45 207h57q175 0 217 191l74 344q21 99 87 166t171 88q-74 20 -114 73.5t-40 126.5q0 32 6 62l70 332q6 38 6 63q0 65 -36.5 94t-108.5 29h-56l43 207h66q151 0 236.5 -74.5
t85.5 -216.5q0 -48 -13 -115l-63 -282q-6 -27 -6 -53q0 -71 48 -104.5t128 -33.5z" />
    <glyph glyph-name="asciitilde" unicode="~" horiz-adv-x="1284" 
d="M1030 752l150 -121q-57 -102 -145 -157.5t-191 -55.5q-113 0 -219 59l-97 53q-53 27 -104 27q-107 0 -180 -106l-152 120q57 102 144.5 158.5t191.5 56.5q112 0 217 -57l96 -53q53 -29 103 -29q115 0 186 105z" />
    <glyph glyph-name="uni00A0" unicode="&#xa0;" horiz-adv-x="481" 
 />
    <glyph glyph-name="exclamdown" unicode="&#xa1;" horiz-adv-x="538" 
d="M365 580l-148 -1010h-330l279 1010h199zM481 893q0 -74 -52.5 -127t-125.5 -53q-66 0 -106.5 41.5t-40.5 103.5q0 74 53.5 127t122.5 53q65 0 107 -41.5t42 -103.5z" />
    <glyph glyph-name="cent" unicode="&#xa2;" horiz-adv-x="1093" 
d="M338 0l39 186q-131 44 -207 155.5t-76 258.5q0 152 67.5 275t177.5 193.5t243 84.5l36 176h209l-41 -192q117 -33 185.5 -115t87.5 -182l-238 -68q-12 64 -62.5 108t-135.5 44q-50 0 -97.5 -20t-87 -58.5t-63 -100.5t-23.5 -139q0 -100 59 -157.5t156 -57.5
q149 0 221 137l216 -82q-55 -118 -163.5 -199.5t-260.5 -88.5l-33 -158h-209z" />
    <glyph glyph-name="sterling" unicode="&#xa3;" horiz-adv-x="1214" 
d="M100 559l45 209h138q-15 77 -15 133q0 124 52 226t157.5 165.5t247.5 63.5q102 0 180.5 -28.5t124 -77.5t68 -109.5t22.5 -130.5q0 -40 -6 -58l-246 -26q4 16 4 47q0 68 -39.5 111.5t-115.5 43.5q-84 0 -138.5 -56.5t-54.5 -170.5q0 -37 17 -133h362l-45 -209h-295
q-8 -107 -65.5 -194t-153.5 -127h330q85 0 135 49.5t61 126.5l236 -43q-28 -167 -142 -269t-278 -102h-711l52 246q123 24 195.5 112t82.5 201h-205z" />
    <glyph glyph-name="currency" unicode="&#xa4;" horiz-adv-x="1308" 
d="M193 502q0 121 59 221l-148 149l164 164l152 -153q99 55 215 55t211 -53l149 151l166 -164l-145 -145q63 -101 63 -225q0 -126 -63 -223l145 -146l-164 -164l-149 150q-95 -53 -213 -53q-119 0 -217 55l-150 -152l-164 164l148 150q-59 95 -59 219zM420 502
q0 -93 61 -154t154 -61q94 0 154.5 60.5t60.5 154.5t-60.5 154.5t-154.5 60.5q-93 0 -154 -61t-61 -154z" />
    <glyph glyph-name="yen" unicode="&#xa5;" horiz-adv-x="1267" 
d="M145 610l41 193h222l-199 526h295l170 -502l373 502h307l-420 -526h235l-41 -193h-364l-31 -141h367l-43 -193h-365l-57 -276h-266l57 276h-352l43 193h350l31 141h-353z" />
    <glyph glyph-name="brokenbar" unicode="&#xa6;" horiz-adv-x="528" 
d="M428 844h-227l172 815h229zM180 -324h-227l172 816h229z" />
    <glyph glyph-name="section" unicode="&#xa7;" horiz-adv-x="1087" 
d="M-23 4l263 19q-9 -35 -9 -62q0 -73 45 -113.5t121 -40.5q68 0 117 43.5t49 112.5q0 73 -61 115l-187 129q-66 44 -110.5 86.5t-75.5 104t-31 130.5q0 113 63 186t156 109q-102 99 -102 248q0 92 41 171t107 131t147.5 81t165.5 29q192 0 299.5 -100t107.5 -253
q0 -32 -6 -69l-262 -19q6 18 6 60q0 72 -44.5 111.5t-119.5 39.5q-68 0 -116.5 -44t-48.5 -111q0 -68 63 -113l182 -129q106 -75 162.5 -147t56.5 -170q0 -79 -34 -143t-80.5 -99.5t-104.5 -58.5q103 -100 103 -238q0 -95 -40.5 -175.5t-106 -133t-148 -82t-168.5 -29.5
q-190 0 -298 99.5t-108 250.5q0 34 6 74zM635 592l-182 129q-95 -52 -95 -141q0 -66 62 -109l182 -131q94 53 94 143q0 65 -61 109z" />
    <glyph glyph-name="dieresis" unicode="&#xa8;" horiz-adv-x="792" 
d="M-27 1272q0 63 47.5 111.5t112.5 48.5q57 0 94 -39.5t37 -94.5q0 -65 -50 -110t-112 -45q-56 0 -92.5 37.5t-36.5 91.5zM403 1272q0 63 47.5 111.5t112.5 48.5q57 0 94 -39.5t37 -94.5q0 -65 -50 -110t-112 -45q-56 0 -92.5 37.5t-36.5 91.5z" />
    <glyph glyph-name="copyright" unicode="&#xa9;" horiz-adv-x="1712" 
d="M125 725q0 154 59.5 294.5t160.5 242.5t240.5 162.5t293.5 60.5t294 -60.5t241.5 -162.5t161.5 -242.5t60 -294.5q0 -205 -101.5 -379.5t-276 -276.5t-379.5 -102q-154 0 -294 60.5t-240.5 162t-160 242t-59.5 293.5zM299 725q0 -165 76.5 -301.5t210 -215.5t293.5 -79
t293.5 79t209.5 215.5t76 301.5q0 124 -45 235t-122 190.5t-184.5 126t-227.5 46.5q-161 0 -294 -79t-209.5 -216.5t-76.5 -302.5zM1255 874l-184 -55q-12 55 -52.5 91t-109.5 36q-84 0 -148.5 -69.5t-64.5 -192.5q0 -83 47 -130.5t125 -47.5q117 0 176 112l166 -67
q-44 -99 -135.5 -166.5t-218.5 -67.5q-160 0 -261 103t-101 258q0 199 127 325.5t303 126.5q144 0 226.5 -75t104.5 -181z" />
    <glyph glyph-name="ordfeminine" unicode="&#xaa;" horiz-adv-x="937" 
d="M539 1157q-79 0 -124.5 -68t-45.5 -155q0 -69 35.5 -108.5t93.5 -39.5q68 0 118 61t50 169q0 68 -34.5 104.5t-92.5 36.5zM739 1327h203l-121 -561q-14 -58 -14 -115q0 -17 2 -33h-191q-2 12 -2 31q0 21 7 53q-69 -96 -187 -96q-126 0 -201 91t-75 227q0 183 104 302.5
t256 119.5q89 0 137.5 -30.5t63.5 -64.5z" />
    <glyph glyph-name="guillemotleft" unicode="&#xab;" horiz-adv-x="1134" 
d="M514 207h-246l-205 403l361 398h272l-379 -414zM963 207h-246l-205 403l360 398h273l-379 -414z" />
    <glyph glyph-name="logicalnot" unicode="&#xac;" horiz-adv-x="1282" 
d="M1106 279h-234v399h-768v225h1002v-624z" />
    <glyph glyph-name="uni00AD" unicode="&#xad;" horiz-adv-x="849" 
d="M694 487h-594l52 242h596z" />
    <glyph glyph-name="registered" unicode="&#xae;" horiz-adv-x="1712" 
d="M125 725q0 154 59.5 294.5t160.5 242.5t240.5 162.5t293.5 60.5t294 -60.5t241.5 -162.5t161.5 -242.5t60 -294.5q0 -205 -101.5 -379.5t-276 -276.5t-379.5 -102q-154 0 -294 60.5t-240.5 162t-160 242t-59.5 293.5zM299 725q0 -165 76.5 -301.5t210 -215.5t293.5 -79
t293.5 79t209.5 215.5t76 301.5q0 124 -45 235t-122 190.5t-184.5 126t-227.5 46.5q-161 0 -294 -79t-209.5 -216.5t-76.5 -302.5zM834 758h88q63 0 105 36t42 97q0 86 -102 86h-84zM952 322l-90 280h-61l-60 -285h-192l174 818h297q106 0 174 -68t68 -164q0 -100 -60 -177
t-158 -105l107 -299h-199z" />
    <glyph glyph-name="macron" unicode="&#xaf;" horiz-adv-x="649" 
d="M530 1182h-577l43 198h575z" />
    <glyph glyph-name="degree" unicode="&#xb0;" horiz-adv-x="829" 
d="M483 883q59 0 104.5 45t45.5 119q0 54 -32 87t-87 33q-57 0 -102 -45.5t-45 -117.5q0 -54 31 -87.5t85 -33.5zM467 690q-131 0 -217 87t-86 214q0 156 110 262.5t258 106.5q130 0 217 -88t87 -215q0 -104 -54 -189.5t-138.5 -131.5t-176.5 -46z" />
    <glyph glyph-name="plusminus" unicode="&#xb1;" horiz-adv-x="1241" 
d="M711 641v-252h-230v252h-364v221h364v252h230v-252h364v-221h-364zM117 90v223h958v-223h-958z" />
    <glyph glyph-name="twosuperior" unicode="&#xb2;" horiz-adv-x="729" 
d="M352 1059l133 57q97 42 97 105q0 31 -20 55t-62 24q-55 0 -83 -34t-28 -95l-188 13q0 123 84.5 202.5t220.5 79.5t210.5 -65.5t74.5 -163.5q0 -172 -218 -264l-155 -66q-30 -13 -37 -35h330l-37 -174h-576q9 255 254 361z" />
    <glyph glyph-name="threesuperior" unicode="&#xb3;" horiz-adv-x="743" 
d="M393 1032l-53 135l221 115h-338l37 170h574l-39 -195l-209 -108q71 -14 115 -68.5t44 -130.5q0 -109 -91 -188.5t-232 -79.5q-133 0 -215 72.5t-82 175.5q0 23 2 35l190 10q-2 -8 -2 -17q0 -45 30 -75.5t81 -30.5q52 0 82.5 28t30.5 76q0 39 -28 61.5t-69 22.5
q-25 0 -49 -8z" />
    <glyph glyph-name="acute" unicode="&#xb4;" horiz-adv-x="567" 
d="M514 1436l-344 -308h-233l245 308h332z" />
    <glyph glyph-name="mu" unicode="&#xb5;" horiz-adv-x="1275" 
d="M147 -389v1397h273v-582q0 -90 46.5 -146.5t137.5 -56.5q89 0 140 55t51 144v586h272v-826q0 -90 10 -182h-260q-8 40 -8 109q-38 -67 -115.5 -101.5t-163.5 -34.5q-52 0 -110 21v-383h-273z" />
    <glyph glyph-name="paragraph" unicode="&#xb6;" horiz-adv-x="1419" 
d="M864 1243l-346 -1632h-215l215 1005h-18q-152 0 -253.5 100t-101.5 247q0 94 33 175t89.5 137.5t131 97t157.5 60t169 19.5h797l-45 -209h-199l-346 -1632h-217l346 1632h-197z" />
    <glyph glyph-name="periodcentered" unicode="&#xb7;" horiz-adv-x="559" 
d="M106 616q0 75 57.5 133t135.5 58q69 0 113.5 -45t44.5 -109q0 -82 -56.5 -137t-134.5 -55q-71 0 -115.5 44.5t-44.5 110.5z" />
    <glyph glyph-name="cedilla" unicode="&#xb8;" horiz-adv-x="573" 
d="M219 27h189l-142 -136q72 -7 114 -51t42 -104q0 -81 -67 -143t-189 -62q-103 0 -175 48t-93 91l112 94q55 -92 150 -92q36 0 60 16t24 44q0 29 -23 44t-59 15q-15 0 -35 -4l-49 102z" />
    <glyph glyph-name="onesuperior" unicode="&#xb9;" horiz-adv-x="516" 
d="M449 700h-209l100 467h-182l28 136q87 1 151 44.5t89 104.5h182z" />
    <glyph glyph-name="ordmasculine" unicode="&#xba;" horiz-adv-x="888" 
d="M541 1161q-76 0 -126 -65.5t-50 -157.5q0 -69 37.5 -109.5t95.5 -40.5q69 0 123.5 58t54.5 164q0 72 -36 110.5t-99 40.5zM885 1018q0 -112 -50 -208t-143 -154t-209 -58q-145 0 -236 94.5t-91 237.5q0 185 117 302.5t284 117.5q148 0 238 -94t90 -238z" />
    <glyph glyph-name="guillemotright" unicode="&#xbb;" horiz-adv-x="1142" 
d="M170 1008h246l207 -406l-363 -395h-270l377 414zM627 1008h245l207 -406l-362 -395h-271l377 414z" />
    <glyph glyph-name="onequarter" unicode="&#xbc;" horiz-adv-x="1681" 
d="M453 578h-209l100 466h-182l28 136q87 1 151 44.5t89 104.5h182zM836 150l43 212l415 392h228l-95 -445h125l-34 -159h-125q0 -1 -5 -25t-13 -62.5t-13 -62.5h-207l33 150h-352zM1221 309l51 228l-240 -228h189zM1538 1329l-1214 -1329h-248l1214 1329h248z" />
    <glyph glyph-name="onehalf" unicode="&#xbd;" horiz-adv-x="1724" 
d="M451 578h-209l100 466h-182l28 136q87 1 151 44.5t89 104.5h182zM1534 1329l-1215 -1329h-247l1214 1329h248zM1192 360l133 58q96 41 96 104q0 31 -20 55.5t-62 24.5q-54 0 -82 -34t-28 -95l-189 12q0 123 85 203t221 80t210 -65.5t74 -163.5q0 -88 -57.5 -155
t-159.5 -110l-156 -65q-28 -12 -36 -35h329l-37 -174h-575q9 254 254 360z" />
    <glyph glyph-name="threequarters" unicode="&#xbe;" horiz-adv-x="1869" 
d="M387 909l-53 135l221 115h-338l37 170h573l-39 -194l-208 -109q71 -14 115 -68.5t44 -130.5q0 -109 -91 -188.5t-232 -79.5q-133 0 -215 72.5t-82 175.5q0 23 2 35l190 10q-2 -8 -2 -16q0 -45 30 -76t81 -31q52 0 82 28.5t30 76.5q0 39 -28 61.5t-68 22.5q-22 0 -49 -9z
M1024 150l43 212l416 392h227l-94 -445h125l-35 -159h-125q0 -1 -5 -25t-13 -62.5t-13 -62.5h-207l33 150h-352zM1409 309l51 228l-239 -228h188zM1726 1329l-1214 -1329h-248l1215 1329h247z" />
    <glyph glyph-name="questiondown" unicode="&#xbf;" horiz-adv-x="1064" 
d="M442 582h220q-4 -262 -224 -385l-114 -66q-119 -68 -119 -190q0 -67 44.5 -113.5t133.5 -46.5q112 0 173.5 77.5t61.5 188.5l254 -29q-3 -206 -144 -342.5t-363 -136.5q-107 0 -193.5 31t-140 83t-81.5 116t-28 133q0 268 279 426l96 55q71 40 105 86.5t40 112.5z
M745 893q0 -73 -53.5 -126.5t-126.5 -53.5q-66 0 -105.5 41.5t-39.5 103.5q0 74 53 127t123 53q65 0 107 -41.5t42 -103.5z" />
    <glyph glyph-name="Agrave" unicode="&#xc0;" horiz-adv-x="1445" 
d="M1004 0l-48 332h-561l-186 -332h-318l850 1452h324l231 -1452h-292zM844 1135l-303 -545h379zM797 1554l-238 261h318l155 -261h-235z" />
    <glyph glyph-name="Aacute" unicode="&#xc1;" horiz-adv-x="1445" 
d="M1004 0l-48 332h-561l-186 -332h-318l850 1452h324l231 -1452h-292zM844 1135l-303 -545h379zM1382 1815l-346 -261h-262l262 261h346z" />
    <glyph glyph-name="Acircumflex" unicode="&#xc2;" horiz-adv-x="1445" 
d="M1004 0l-48 332h-561l-186 -332h-318l850 1452h324l231 -1452h-292zM844 1135l-303 -545h379zM774 1554h-256l299 261h281l192 -261h-237l-111 134z" />
    <glyph glyph-name="Atilde" unicode="&#xc3;" horiz-adv-x="1445" 
d="M1004 0l-48 332h-561l-186 -332h-318l850 1452h324l231 -1452h-292zM844 1135l-303 -545h379zM1298 1823q-42 -281 -251 -281q-74 0 -150 49l-10 6q-4 2 -19.5 11.5t-21.5 12t-17.5 8t-20 7.5t-17.5 2q-27 0 -47 -22t-27 -66h-174q14 145 85.5 212t172.5 67q71 0 151 -51
l6 -4q58 -39 91 -39q61 0 75 88h174z" />
    <glyph glyph-name="Adieresis" unicode="&#xc4;" horiz-adv-x="1445" 
d="M451 1669q0 64 47.5 114t115.5 50q59 0 96.5 -38t37.5 -93q0 -70 -48.5 -117t-113.5 -47q-60 0 -97.5 37t-37.5 94zM1104 1669q0 64 48 114t116 50q59 0 96 -38t37 -93q0 -70 -48.5 -117t-113.5 -47q-60 0 -97.5 37t-37.5 94zM1004 0l-48 332h-561l-186 -332h-318
l850 1452h324l231 -1452h-292zM844 1135l-303 -545h379z" />
    <glyph glyph-name="Aring" unicode="&#xc5;" horiz-adv-x="1445" 
d="M844 1130l-303 -540h379zM920 1653q-43 0 -77 -32.5t-34 -80.5q0 -39 26 -63.5t68 -24.5q45 0 79 31t34 80q0 39 -27 64.5t-69 25.5zM635 1524q0 123 90 210t213 87q108 0 183 -70t75 -174q0 -68 -31 -128t-84 -101l215 -1348h-292l-48 332h-561l-186 -332h-318l801 1368
q-57 63 -57 156z" />
    <glyph glyph-name="AE" unicode="&#xc6;" horiz-adv-x="2146" 
d="M1346 266h622l-57 -266h-905l71 338h-563l-287 -338h-360l1268 1452h1083l-55 -266h-623l-70 -332h564l-54 -252h-563zM717 575h411l138 644z" />
    <glyph glyph-name="Ccedilla" unicode="&#xc7;" horiz-adv-x="1492" 
d="M543 -111l90 88q-236 37 -379 215.5t-143 434.5q0 159 43.5 297.5t119.5 239t176.5 173.5t215.5 109t235 37q113 0 209 -28t163 -73.5t117.5 -107.5t78.5 -126.5t40 -133.5l-274 -82q-11 53 -35.5 100t-65.5 89.5t-106.5 67.5t-146.5 25q-130 0 -239.5 -70.5t-176 -202.5
t-66.5 -298q0 -181 102 -292t275 -111q143 0 237.5 77t145.5 195l254 -102q-26 -63 -62.5 -121t-90.5 -114.5t-118 -98.5t-149 -71t-180 -36l-82 -78q72 -7 114 -51t42 -104q0 -81 -67 -143t-189 -62q-103 0 -175.5 48t-93.5 91l113 94q55 -92 150 -92q36 0 60 16t24 44
q0 29 -23 44t-59 15q-15 0 -35 -4z" />
    <glyph glyph-name="Egrave" unicode="&#xc8;" horiz-adv-x="1181" 
d="M743 1554l-237 261h317l156 -261h-236zM948 0h-905l307 1452h905l-57 -266h-620l-72 -332h563l-53 -252h-563l-72 -336h623z" />
    <glyph glyph-name="Eacute" unicode="&#xc9;" horiz-adv-x="1181" 
d="M1253 1815l-346 -261h-262l262 261h346zM948 0h-905l307 1452h905l-57 -266h-620l-72 -332h563l-53 -252h-563l-72 -336h623z" />
    <glyph glyph-name="Ecircumflex" unicode="&#xca;" horiz-adv-x="1181" 
d="M686 1554h-256l299 261h281l192 -261h-237l-111 134zM948 0h-905l307 1452h905l-57 -266h-620l-72 -332h563l-53 -252h-563l-72 -336h623z" />
    <glyph glyph-name="Edieresis" unicode="&#xcb;" horiz-adv-x="1181" 
d="M469 1669q0 65 48.5 113.5t115.5 48.5q58 0 94.5 -37t36.5 -92q0 -69 -48 -115.5t-114 -46.5q-59 0 -96 36t-37 93zM909 1669q0 65 48.5 113.5t115.5 48.5q58 0 94.5 -37t36.5 -92q0 -69 -48 -115.5t-114 -46.5q-59 0 -96 36t-37 93zM948 0h-905l307 1452h905l-57 -266
h-620l-72 -332h563l-53 -252h-563l-72 -336h623z" />
    <glyph glyph-name="Igrave" unicode="&#xcc;" horiz-adv-x="628" 
d="M330 0h-287l307 1452h287zM408 1554l-238 261h317l156 -261h-235z" />
    <glyph glyph-name="Iacute" unicode="&#xcd;" horiz-adv-x="628" 
d="M330 0h-287l307 1452h287zM985 1815l-346 -261h-262l262 261h346z" />
    <glyph glyph-name="Icircumflex" unicode="&#xce;" horiz-adv-x="628" 
d="M330 0h-287l307 1452h287zM379 1554h-256l299 261h280l193 -261h-238l-110 134z" />
    <glyph glyph-name="Idieresis" unicode="&#xcf;" horiz-adv-x="628" 
d="M330 0h-287l307 1452h287zM197 1669q0 63 46 110.5t111 47.5q54 0 89.5 -36.5t35.5 -88.5q0 -68 -45.5 -112t-109.5 -44q-56 0 -91.5 34.5t-35.5 88.5zM575 1669q0 63 46.5 110.5t111.5 47.5q54 0 89.5 -36.5t35.5 -88.5q0 -68 -46 -112t-110 -44q-56 0 -91.5 34.5
t-35.5 88.5z" />
    <glyph glyph-name="Eth" unicode="&#xd0;" horiz-adv-x="1497" 
d="M33 641l43 209h174l127 602h430q293 0 462 -165.5t169 -438.5q0 -160 -43 -298.5t-117 -238t-173 -170.5t-212.5 -106t-233.5 -35h-587l135 641h-174zM406 266h264q89 0 174.5 39t153.5 108t109.5 176t41.5 232q0 173 -93 271t-274 98h-180l-72 -340h306l-43 -209h-308z
" />
    <glyph glyph-name="Ntilde" unicode="&#xd1;" horiz-adv-x="1542" 
d="M1372 1823q-22 -147 -88.5 -214t-163.5 -67q-73 0 -149 49l-10 6q-4 2 -16.5 9.5l-17.5 10.5t-15.5 8t-17 7t-15 4t-15.5 2q-59 0 -73 -88h-175q14 145 85.5 212t172.5 67q72 0 152 -51l6 -4q32 -22 50.5 -30.5t39.5 -8.5q62 0 76 88h174zM1243 0h-282l-420 1026
l-217 -1026h-281l307 1452h326l385 -969l207 969h282z" />
    <glyph glyph-name="Ograve" unicode="&#xd2;" horiz-adv-x="1593" 
d="M850 1554l-238 261h318l155 -261h-235zM111 618q0 134 30.5 255t84 214.5t127 169t160.5 125t183 75.5t195 26q289 0 465 -179t176 -470q0 -161 -43 -301t-117.5 -242t-173.5 -175.5t-212.5 -110t-231.5 -36.5q-288 0 -465.5 180t-177.5 469zM1241 817q0 183 -98.5 290
t-268.5 107q-132 0 -241.5 -77.5t-171.5 -209t-62 -288.5q0 -183 100 -290t267 -107q198 0 335 162t140 413z" />
    <glyph glyph-name="Oacute" unicode="&#xd3;" horiz-adv-x="1593" 
d="M1409 1815l-346 -261h-262l262 261h346zM111 618q0 134 30.5 255t84 214.5t127 169t160.5 125t183 75.5t195 26q289 0 465 -179t176 -470q0 -161 -43 -301t-117.5 -242t-173.5 -175.5t-212.5 -110t-231.5 -36.5q-288 0 -465.5 180t-177.5 469zM1241 817q0 183 -98.5 290
t-268.5 107q-132 0 -241.5 -77.5t-171.5 -209t-62 -288.5q0 -183 100 -290t267 -107q198 0 335 162t140 413z" />
    <glyph glyph-name="Ocircumflex" unicode="&#xd4;" horiz-adv-x="1593" 
d="M817 1554h-256l299 261h281l192 -261h-237l-111 134zM111 618q0 134 30.5 255t84 214.5t127 169t160.5 125t183 75.5t195 26q289 0 465 -179t176 -470q0 -161 -43 -301t-117.5 -242t-173.5 -175.5t-212.5 -110t-231.5 -36.5q-288 0 -465.5 180t-177.5 469zM1241 817
q0 183 -98.5 290t-268.5 107q-132 0 -241.5 -77.5t-171.5 -209t-62 -288.5q0 -183 100 -290t267 -107q198 0 335 162t140 413z" />
    <glyph glyph-name="Otilde" unicode="&#xd5;" horiz-adv-x="1593" 
d="M1364 1823q-22 -147 -88.5 -214t-163.5 -67q-73 0 -149 49l-11 6q-4 2 -19.5 11.5t-21.5 12t-17.5 8t-20 7.5t-17.5 2q-27 0 -47 -22t-27 -66h-174q14 145 85.5 212t172.5 67q72 0 152 -51l6 -4q32 -22 50.5 -30.5t39.5 -8.5q62 0 76 88h174zM111 618q0 134 30.5 255
t84 214.5t127 169t160.5 125t183 75.5t195 26q289 0 465 -179t176 -470q0 -161 -43 -301t-117.5 -242t-173.5 -175.5t-212.5 -110t-231.5 -36.5q-288 0 -465.5 180t-177.5 469zM1241 817q0 183 -98.5 290t-268.5 107q-132 0 -241.5 -77.5t-171.5 -209t-62 -288.5
q0 -183 100 -290t267 -107q198 0 335 162t140 413z" />
    <glyph glyph-name="Odieresis" unicode="&#xd6;" horiz-adv-x="1593" 
d="M461 1669q0 64 48 114t116 50q59 0 96 -38t37 -93q0 -70 -48.5 -117t-113.5 -47q-60 0 -97.5 37t-37.5 94zM1196 1669q0 64 48 114t116 50q59 0 96 -38t37 -93q0 -70 -48.5 -117t-113.5 -47q-60 0 -97.5 37t-37.5 94zM111 618q0 134 30.5 255t84 214.5t127 169t160.5 125
t183 75.5t195 26q289 0 465 -179t176 -470q0 -161 -43 -301t-117.5 -242t-173.5 -175.5t-212.5 -110t-231.5 -36.5q-288 0 -465.5 180t-177.5 469zM1241 817q0 183 -98.5 290t-268.5 107q-132 0 -241.5 -77.5t-171.5 -209t-62 -288.5q0 -183 100 -290t267 -107
q198 0 335 162t140 413z" />
    <glyph glyph-name="multiply" unicode="&#xd7;" horiz-adv-x="1247" 
d="M285 98l-162 162l338 344l-338 344l164 162l336 -342l338 342l163 -160l-340 -346l340 -344l-161 -164l-340 344z" />
    <glyph glyph-name="Oslash" unicode="&#xd8;" horiz-adv-x="1593" 
d="M111 618q0 134 30.5 255t84 214.5t127 169t160.5 125t183 75.5t195 26q215 0 371 -103l153 172l164 -143l-160 -180q113 -159 113 -395q0 -161 -43 -301t-117.5 -242t-173.5 -175.5t-212.5 -110t-231.5 -36.5q-208 0 -365 99l-147 -166l-168 143l155 174
q-118 165 -118 399zM399 639q0 -107 35 -188l637 714q-87 49 -197 49q-132 0 -241.5 -77.5t-171.5 -209t-62 -288.5zM1241 817q0 97 -31 176l-628 -708q76 -43 184 -43q198 0 335 162t140 413z" />
    <glyph glyph-name="Ugrave" unicode="&#xd9;" horiz-adv-x="1409" 
d="M813 1554l-238 261h318l156 -261h-236zM1143 1452h287l-211 -993q-50 -236 -205 -363t-373 -127q-231 0 -370.5 126t-139.5 339q0 63 16 141l185 877h282l-186 -889q-10 -55 -10 -92q0 -106 61 -166.5t185 -60.5q110 0 181 66.5t99 195.5z" />
    <glyph glyph-name="Uacute" unicode="&#xda;" horiz-adv-x="1409" 
d="M1323 1815l-346 -261h-262l262 261h346zM1143 1452h287l-211 -993q-50 -236 -205 -363t-373 -127q-231 0 -370.5 126t-139.5 339q0 63 16 141l185 877h282l-186 -889q-10 -55 -10 -92q0 -106 61 -166.5t185 -60.5q110 0 181 66.5t99 195.5z" />
    <glyph glyph-name="Ucircumflex" unicode="&#xdb;" horiz-adv-x="1409" 
d="M760 1554h-256l299 261h280l193 -261h-238l-110 134zM1143 1452h287l-211 -993q-50 -236 -205 -363t-373 -127q-231 0 -370.5 126t-139.5 339q0 63 16 141l185 877h282l-186 -889q-10 -55 -10 -92q0 -106 61 -166.5t185 -60.5q110 0 181 66.5t99 195.5z" />
    <glyph glyph-name="Udieresis" unicode="&#xdc;" horiz-adv-x="1409" 
d="M516 1669q0 64 48 114t116 50q59 0 96 -38t37 -93q0 -70 -48.5 -117t-113.5 -47q-60 0 -97.5 37t-37.5 94zM1006 1669q0 64 47.5 114t115.5 50q59 0 96.5 -38t37.5 -93q0 -70 -48.5 -117t-113.5 -47q-60 0 -97.5 37t-37.5 94zM1143 1452h287l-211 -993
q-50 -236 -205 -363t-373 -127q-231 0 -370.5 126t-139.5 339q0 63 16 141l185 877h282l-186 -889q-10 -55 -10 -92q0 -106 61 -166.5t185 -60.5q110 0 181 66.5t99 195.5z" />
    <glyph glyph-name="Yacute" unicode="&#xdd;" horiz-adv-x="1302" 
d="M514 612l-321 840h299l206 -569l404 569h340l-645 -844l-129 -608h-283zM1257 1815l-346 -261h-262l262 261h346z" />
    <glyph glyph-name="Thorn" unicode="&#xde;" horiz-adv-x="1236" 
d="M709 942h-179l-90 -412h207q123 0 197.5 60.5t75.5 175.5q0 82 -52.5 129t-158.5 47zM328 0h-285l307 1452h285l-55 -264h192q196 0 317 -111t121 -289q0 -230 -155.5 -365.5t-405.5 -135.5h-260z" />
    <glyph glyph-name="germandbls" unicode="&#xdf;" horiz-adv-x="1234" 
d="M831 678q0 -33 58 -72l53 -35q76 -51 119 -121t43 -151q0 -41 -13 -85t-42.5 -88.5t-71.5 -79.5t-106.5 -57t-141.5 -22q-155 0 -241.5 83.5t-86.5 199.5q0 9 5 49l225 18q-4 -10 -4 -28q0 -47 25.5 -81t86.5 -34q51 0 79 28.5t28 67.5q0 31 -16.5 54.5t-55.5 48.5
l-51 33q-72 44 -118 106t-46 135q0 181 184 273l45 22q68 34 100 71t32 93q0 53 -48.5 95t-140.5 42q-85 0 -150.5 -56.5t-91.5 -182.5l-210 -1004h-269l219 1051q45 217 187.5 324.5t328.5 107.5q104 0 189.5 -29.5t140 -79.5t84 -113t29.5 -131q0 -72 -21 -132.5
t-58.5 -103t-78 -71.5t-88.5 -51l-45 -20q-33 -15 -49.5 -31.5t-16.5 -42.5z" />
    <glyph glyph-name="agrave" unicode="&#xe0;" horiz-adv-x="1208" 
d="M594 788q-63 0 -114.5 -31t-84 -81.5t-50 -111.5t-17.5 -124q0 -104 52.5 -163.5t143.5 -59.5q109 0 185.5 97.5t76.5 258.5q0 100 -51 157.5t-141 57.5zM889 1008h264l-166 -787q-18 -89 -18 -182q0 -21 2 -39h-252q-2 16 -2 47q0 26 4 76q-41 -60 -109 -100.5
t-161 -40.5q-181 0 -287.5 128t-106.5 320q0 256 148 429t366 173q124 0 195 -43t98 -96zM555 1128l-211 308h303l119 -308h-211z" />
    <glyph glyph-name="aacute" unicode="&#xe1;" horiz-adv-x="1208" 
d="M594 788q-63 0 -114.5 -31t-84 -81.5t-50 -111.5t-17.5 -124q0 -104 52.5 -163.5t143.5 -59.5q109 0 185.5 97.5t76.5 258.5q0 100 -51 157.5t-141 57.5zM889 1008h264l-166 -787q-18 -89 -18 -182q0 -21 2 -39h-252q-2 16 -2 47q0 26 4 76q-41 -60 -109 -100.5
t-161 -40.5q-181 0 -287.5 128t-106.5 320q0 256 148 429t366 173q124 0 195 -43t98 -96zM1098 1436l-344 -308h-234l246 308h332z" />
    <glyph glyph-name="acircumflex" unicode="&#xe2;" horiz-adv-x="1208" 
d="M537 1130h-234l295 302h270l164 -302h-213l-108 154zM594 788q-63 0 -114.5 -31t-84 -81.5t-50 -111.5t-17.5 -124q0 -104 52.5 -163.5t143.5 -59.5q109 0 185.5 97.5t76.5 258.5q0 100 -51 157.5t-141 57.5zM889 1008h264l-166 -787q-18 -89 -18 -182q0 -21 2 -39h-252
q-2 16 -2 47q0 26 4 76q-41 -60 -109 -100.5t-161 -40.5q-181 0 -287.5 128t-106.5 320q0 256 148 429t366 173q124 0 195 -43t98 -96z" />
    <glyph glyph-name="atilde" unicode="&#xe3;" horiz-adv-x="1208" 
d="M594 788q-63 0 -114.5 -31t-84 -81.5t-50 -111.5t-17.5 -124q0 -104 52.5 -163.5t143.5 -59.5q109 0 185.5 97.5t76.5 258.5q0 100 -51 157.5t-141 57.5zM889 1008h264l-166 -787q-18 -89 -18 -182q0 -21 2 -39h-252q-2 16 -2 47q0 26 4 76q-41 -60 -109 -100.5
t-161 -40.5q-181 0 -287.5 128t-106.5 320q0 256 148 429t366 173q124 0 195 -43t98 -96zM489 1139h-176q16 148 91 219.5t178 71.5q76 0 147 -48l10 -6q2 -1 10 -6.5t10 -6.5t9.5 -5.5t10.5 -6t9.5 -4.5t10.5 -4.5t9.5 -3t11 -2t11.5 -0.5q68 0 84 90h177
q-22 -150 -92.5 -221t-168.5 -71q-76 0 -149 47l-16 10q-4 2 -15 8.5t-17.5 10t-16.5 8t-20.5 6.5t-21.5 2q-69 0 -86 -88z" />
    <glyph glyph-name="adieresis" unicode="&#xe4;" horiz-adv-x="1208" 
d="M342 1272q0 63 47.5 111.5t112.5 48.5q57 0 94 -39.5t37 -94.5q0 -65 -50 -110t-112 -45q-56 0 -92.5 37.5t-36.5 91.5zM772 1272q0 63 47.5 111.5t112.5 48.5q57 0 94 -39.5t37 -94.5q0 -65 -50 -110t-112 -45q-56 0 -92.5 37.5t-36.5 91.5zM594 788q-63 0 -114.5 -31
t-84 -81.5t-50 -111.5t-17.5 -124q0 -104 52.5 -163.5t143.5 -59.5q109 0 185.5 97.5t76.5 258.5q0 100 -51 157.5t-141 57.5zM889 1008h264l-166 -787q-18 -89 -18 -182q0 -21 2 -39h-252q-2 16 -2 47q0 26 4 76q-41 -60 -109 -100.5t-161 -40.5q-181 0 -287.5 128
t-106.5 320q0 256 148 429t366 173q124 0 195 -43t98 -96z" />
    <glyph glyph-name="aring" unicode="&#xe5;" horiz-adv-x="1208" 
d="M594 788q-63 0 -114.5 -31t-84 -81.5t-50 -111.5t-17.5 -124q0 -104 52.5 -163.5t143.5 -59.5q109 0 185.5 97.5t76.5 258.5q0 100 -51 157.5t-141 57.5zM889 1008h264l-166 -787q-18 -89 -18 -182q0 -21 2 -39h-252q-2 16 -2 47q0 26 4 76q-41 -60 -109 -100.5
t-161 -40.5q-181 0 -287.5 128t-106.5 320q0 256 148 429t366 173q124 0 195 -43t98 -96zM721 1565q92 0 154.5 -57.5t62.5 -147.5q0 -104 -76.5 -176t-177.5 -72q-91 0 -153 59t-62 146q0 107 76.5 177.5t175.5 70.5zM616 1329q0 -33 22 -53.5t56 -20.5q37 0 63.5 26
t26.5 65q0 32 -20.5 52.5t-54.5 20.5q-36 0 -64.5 -25.5t-28.5 -64.5z" />
    <glyph glyph-name="ae" unicode="&#xe6;" horiz-adv-x="1738" 
d="M631 602q45 1 68.5 25t23.5 65q0 52 -46.5 89.5t-131.5 37.5q-75 0 -129 -40.5t-72 -102.5l-225 74q36 119 154.5 203.5t287.5 84.5q227 0 328 -123q138 123 323 123q206 0 323.5 -117.5t117.5 -306.5q0 -97 -29 -182h-694q-2 -6 -2 -14q2 -96 62.5 -158.5t162.5 -62.5
q79 0 137 37t86 94l207 -105q-55 -109 -170 -181.5t-278 -72.5q-116 0 -212.5 48.5t-156.5 138.5q-61 -80 -155.5 -131.5t-219.5 -51.5q-178 0 -277.5 84.5t-99.5 206.5q0 145 97.5 233.5t253.5 94.5zM283 285q0 -51 38 -81t97 -30q82 0 156.5 58.5t93.5 173.5l4 26
l-242 -10q-62 -3 -104.5 -38t-42.5 -99zM1208 817q-98 0 -161.5 -55t-90.5 -144h439q2 4 2 25q0 67 -47 120.5t-142 53.5z" />
    <glyph glyph-name="ccedilla" unicode="&#xe7;" horiz-adv-x="1118" 
d="M305 -111l98 97q-159 37 -252.5 160.5t-93.5 295.5q0 131 46.5 244t125 189.5t181.5 119.5t215 43q99 0 179 -29t131 -79t82.5 -107.5t43.5 -122.5l-246 -73q-13 69 -66.5 116.5t-142.5 47.5q-109 0 -193.5 -91t-84.5 -251q0 -108 61 -170t162 -62q151 0 227 148l226 -89
q-56 -124 -166.5 -210.5t-264.5 -96.5l-79 -78q72 -7 113.5 -51t41.5 -104q0 -81 -67 -143t-189 -62q-103 0 -175 48t-93 91l113 94q55 -92 149 -92q36 0 60 16t24 44q0 29 -23 44t-59 15q-15 0 -35 -4z" />
    <glyph glyph-name="egrave" unicode="&#xe8;" horiz-adv-x="1122" 
d="M338 618h442q2 14 2 25q0 68 -47 121t-143 53q-97 0 -162 -55.5t-92 -143.5zM1010 432l-701 -2q0 -102 59.5 -167.5t166.5 -65.5q79 0 137 37t88 94l209 -105q-55 -109 -170.5 -181.5t-280.5 -72.5q-127 0 -231.5 56t-168 163t-63.5 246q0 135 46.5 251t123 192
t173 118.5t198.5 42.5q206 0 324 -117.5t118 -306.5q0 -89 -28 -182zM563 1128l-211 308h303l119 -308h-211z" />
    <glyph glyph-name="eacute" unicode="&#xe9;" horiz-adv-x="1122" 
d="M1081 1436l-344 -308h-233l246 308h331zM338 618h442q2 14 2 25q0 68 -47 121t-143 53q-97 0 -162 -55.5t-92 -143.5zM1010 432l-701 -2q0 -102 59.5 -167.5t166.5 -65.5q79 0 137 37t88 94l209 -105q-55 -109 -170.5 -181.5t-280.5 -72.5q-127 0 -231.5 56t-168 163
t-63.5 246q0 135 46.5 251t123 192t173 118.5t198.5 42.5q206 0 324 -117.5t118 -306.5q0 -89 -28 -182z" />
    <glyph glyph-name="ecircumflex" unicode="&#xea;" horiz-adv-x="1122" 
d="M514 1130h-233l294 302h271l164 -302h-213l-109 154zM338 618h442q2 14 2 25q0 68 -47 121t-143 53q-97 0 -162 -55.5t-92 -143.5zM1010 432l-701 -2q0 -102 59.5 -167.5t166.5 -65.5q79 0 137 37t88 94l209 -105q-55 -109 -170.5 -181.5t-280.5 -72.5q-127 0 -231.5 56
t-168 163t-63.5 246q0 135 46.5 251t123 192t173 118.5t198.5 42.5q206 0 324 -117.5t118 -306.5q0 -89 -28 -182z" />
    <glyph glyph-name="edieresis" unicode="&#xeb;" horiz-adv-x="1122" 
d="M313 1272q0 63 47.5 111.5t112.5 48.5q57 0 94 -39.5t37 -94.5q0 -65 -50 -110t-112 -45q-56 0 -92.5 37.5t-36.5 91.5zM743 1272q0 63 47.5 111.5t112.5 48.5q57 0 94 -39.5t37 -94.5q0 -65 -50 -110t-112 -45q-56 0 -92.5 37.5t-36.5 91.5zM338 618h442q2 14 2 25
q0 68 -47 121t-143 53q-97 0 -162 -55.5t-92 -143.5zM1010 432l-701 -2q0 -102 59.5 -167.5t166.5 -65.5q79 0 137 37t88 94l209 -105q-55 -109 -170.5 -181.5t-280.5 -72.5q-127 0 -231.5 56t-168 163t-63.5 246q0 135 46.5 251t123 192t173 118.5t198.5 42.5
q206 0 324 -117.5t118 -306.5q0 -89 -28 -182z" />
    <glyph glyph-name="igrave" unicode="&#xec;" horiz-adv-x="546" 
d="M281 0h-273l215 1008h273zM276 1128l-210 308h303l118 -308h-211z" />
    <glyph glyph-name="iacute" unicode="&#xed;" horiz-adv-x="546" 
d="M840 1436l-344 -308h-234l246 308h332zM281 0h-273l215 1008h273z" />
    <glyph glyph-name="icircumflex" unicode="&#xee;" horiz-adv-x="546" 
d="M242 1130h-234l295 302h270l164 -302h-213l-108 154zM281 0h-273l215 1008h273z" />
    <glyph glyph-name="idieresis" unicode="&#xef;" horiz-adv-x="546" 
d="M281 0h-273l215 1008h273zM102 1272q0 60 45.5 105.5t108.5 45.5q55 0 90 -35.5t35 -87.5q0 -64 -47.5 -107.5t-106.5 -43.5q-57 0 -91 35t-34 88zM446 1272q0 60 45.5 105.5t108.5 45.5q55 0 90 -35.5t35 -87.5q0 -64 -47.5 -107.5t-106.5 -43.5q-57 0 -91 35t-34 88z
" />
    <glyph glyph-name="eth" unicode="&#xf0;" horiz-adv-x="1189" 
d="M1126 1274l-170 -74q150 -194 150 -471q0 -343 -164.5 -551.5t-427.5 -208.5q-110 0 -199.5 36.5t-147.5 99t-89 143t-31 170.5q0 147 67 265.5t183 184.5t258 66q100 0 176.5 -33.5t114.5 -89.5q-18 167 -129 285l-275 -121l-65 158l180 77q-102 50 -223 62l78 217
q107 -8 214.5 -48t198.5 -110l234 103zM793 500q0 96 -59 153.5t-156 57.5q-108 0 -184.5 -78t-76.5 -211q0 -90 56.5 -153.5t154.5 -63.5q107 0 186 80.5t79 214.5z" />
    <glyph glyph-name="ntilde" unicode="&#xf1;" horiz-adv-x="1169" 
d="M483 1139h-176q8 76 33.5 134t62.5 91.5t80 49.5t92 16q77 0 148 -48l10 -6q2 -1 10 -6.5t10 -6.5t9.5 -5.5t10.5 -6t9.5 -4.5t10.5 -4.5t9.5 -3t11 -2t11.5 -0.5q68 0 84 90h176q-22 -150 -92 -221t-168 -71q-76 0 -149 47l-17 10q-2 1 -18 10.5t-23 13t-21 7.5t-28 4
q-69 0 -86 -88zM915 0h-272l125 584q6 30 6 59q0 69 -39.5 109.5t-113.5 40.5q-83 0 -138 -59t-75 -150l-127 -584h-271l176 836q21 99 21 172h264q0 -62 -6 -103q47 65 123 97t160 32q147 0 229 -88t82 -229q0 -51 -12 -107z" />
    <glyph glyph-name="ograve" unicode="&#xf2;" horiz-adv-x="1179" 
d="M569 1128l-211 308h304l118 -308h-211zM602 791q-117 0 -194.5 -97.5t-77.5 -242.5q0 -107 57.5 -170.5t149.5 -63.5q49 0 96.5 22t87 62.5t64 108t24.5 149.5q0 109 -56 170.5t-151 61.5zM1081 569q0 -162 -71 -299t-201 -219t-291 -82q-137 0 -243 62.5t-162 169
t-56 237.5t45 243.5t121.5 190.5t180 122t219.5 44q210 0 334 -133.5t124 -335.5z" />
    <glyph glyph-name="oacute" unicode="&#xf3;" horiz-adv-x="1179" 
d="M1098 1436l-344 -308h-234l246 308h332zM602 791q-117 0 -194.5 -97.5t-77.5 -242.5q0 -107 57.5 -170.5t149.5 -63.5q49 0 96.5 22t87 62.5t64 108t24.5 149.5q0 109 -56 170.5t-151 61.5zM1081 569q0 -162 -71 -299t-201 -219t-291 -82q-137 0 -243 62.5t-162 169
t-56 237.5t45 243.5t121.5 190.5t180 122t219.5 44q210 0 334 -133.5t124 -335.5z" />
    <glyph glyph-name="ocircumflex" unicode="&#xf4;" horiz-adv-x="1179" 
d="M530 1130h-233l295 302h270l164 -302h-213l-108 154zM602 791q-117 0 -194.5 -97.5t-77.5 -242.5q0 -107 57.5 -170.5t149.5 -63.5q49 0 96.5 22t87 62.5t64 108t24.5 149.5q0 109 -56 170.5t-151 61.5zM1081 569q0 -162 -71 -299t-201 -219t-291 -82q-137 0 -243 62.5
t-162 169t-56 237.5t45 243.5t121.5 190.5t180 122t219.5 44q210 0 334 -133.5t124 -335.5z" />
    <glyph glyph-name="otilde" unicode="&#xf5;" horiz-adv-x="1179" 
d="M602 791q-117 0 -194.5 -97.5t-77.5 -242.5q0 -107 57.5 -170.5t149.5 -63.5q49 0 96.5 22t87 62.5t64 108t24.5 149.5q0 109 -56 170.5t-151 61.5zM1081 569q0 -162 -71 -299t-201 -219t-291 -82q-137 0 -243 62.5t-162 169t-56 237.5t45 243.5t121.5 190.5t180 122
t219.5 44q210 0 334 -133.5t124 -335.5zM459 1139h-176q8 76 33.5 134t62.5 91.5t80 49.5t92 16q76 0 147 -48l11 -6q2 -1 10 -6.5t10 -6.5t9.5 -5.5t10.5 -6t9.5 -4.5t10.5 -4.5t9.5 -3t11 -2t11.5 -0.5q68 0 84 90h176q-22 -150 -92 -221t-168 -71q-77 0 -150 47l-16 10
q-2 1 -18 10.5t-23 13t-21 7.5t-28 4q-69 0 -86 -88z" />
    <glyph glyph-name="odieresis" unicode="&#xf6;" horiz-adv-x="1179" 
d="M326 1272q0 63 47 111.5t112 48.5q57 0 94 -39.5t37 -94.5q0 -65 -49.5 -110t-111.5 -45q-56 0 -92.5 37.5t-36.5 91.5zM756 1272q0 63 47 111.5t112 48.5q57 0 94.5 -39.5t37.5 -94.5q0 -65 -50 -110t-112 -45q-56 0 -92.5 37.5t-36.5 91.5zM602 791
q-117 0 -194.5 -97.5t-77.5 -242.5q0 -107 57.5 -170.5t149.5 -63.5q49 0 96.5 22t87 62.5t64 108t24.5 149.5q0 109 -56 170.5t-151 61.5zM1081 569q0 -162 -71 -299t-201 -219t-291 -82q-137 0 -243 62.5t-162 169t-56 237.5t45 243.5t121.5 190.5t180 122t219.5 44
q210 0 334 -133.5t124 -335.5z" />
    <glyph glyph-name="divide" unicode="&#xf7;" horiz-adv-x="1167" 
d="M418 981q0 65 47 111.5t113 46.5t112.5 -46.5t46.5 -111.5t-46.5 -112.5t-112.5 -47.5t-113 47.5t-47 112.5zM418 229q0 66 47 113t113 47t112.5 -47t46.5 -113q0 -65 -46.5 -112t-112.5 -47t-113 47t-47 112zM82 492v227h1001v-227h-1001z" />
    <glyph glyph-name="oslash" unicode="&#xf8;" horiz-adv-x="1179" 
d="M86 -70l-113 115l148 141q-64 116 -64 252q0 131 45 243.5t121.5 190.5t180 122t219.5 44q169 0 290 -94l142 137l112 -116l-149 -144q63 -111 63 -252q0 -162 -71 -299t-201 -219t-291 -82q-170 0 -291 97zM809 559q0 21 -4 57l-385 -366q47 -33 117 -33q49 0 96.5 22
t87 62.5t64 108t24.5 149.5zM602 791q-117 0 -194.5 -97.5t-77.5 -242.5q0 -36 6 -60l383 367q-50 33 -117 33z" />
    <glyph glyph-name="ugrave" unicode="&#xf9;" horiz-adv-x="1159" 
d="M211 1008h270l-116 -545q-15 -67 -15 -96q0 -70 38 -111t114 -41q81 0 133 57.5t72 149.5l127 586h270l-168 -803q-23 -106 -23 -182v-23h-260q-2 12 -2 43q0 30 2 61q-38 -61 -108.5 -95t-143.5 -34q-156 0 -242.5 92t-86.5 238q0 57 20 150zM582 1128l-211 308h303
l119 -308h-211z" />
    <glyph glyph-name="uacute" unicode="&#xfa;" horiz-adv-x="1159" 
d="M1083 1436l-344 -308h-233l246 308h331zM211 1008h270l-116 -545q-15 -67 -15 -96q0 -70 38 -111t114 -41q81 0 133 57.5t72 149.5l127 586h270l-168 -803q-23 -106 -23 -182v-23h-260q-2 12 -2 43q0 30 2 61q-38 -61 -108.5 -95t-143.5 -34q-156 0 -242.5 92t-86.5 238
q0 57 20 150z" />
    <glyph glyph-name="ucircumflex" unicode="&#xfb;" horiz-adv-x="1159" 
d="M543 1130h-234l295 302h270l164 -302h-213l-108 154zM211 1008h270l-116 -545q-15 -67 -15 -96q0 -70 38 -111t114 -41q81 0 133 57.5t72 149.5l127 586h270l-168 -803q-23 -106 -23 -182v-23h-260q-2 12 -2 43q0 30 2 61q-38 -61 -108.5 -95t-143.5 -34
q-156 0 -242.5 92t-86.5 238q0 57 20 150z" />
    <glyph glyph-name="udieresis" unicode="&#xfc;" horiz-adv-x="1159" 
d="M344 1272q0 63 47.5 111.5t112.5 48.5q57 0 94 -39.5t37 -94.5q0 -65 -50 -110t-112 -45q-56 0 -92.5 37.5t-36.5 91.5zM774 1272q0 63 47.5 111.5t112.5 48.5q57 0 94 -39.5t37 -94.5q0 -65 -50 -110t-112 -45q-56 0 -92.5 37.5t-36.5 91.5zM211 1008h270l-116 -545
q-15 -67 -15 -96q0 -70 38 -111t114 -41q81 0 133 57.5t72 149.5l127 586h270l-168 -803q-23 -106 -23 -182v-23h-260q-2 12 -2 43q0 30 2 61q-38 -61 -108.5 -95t-143.5 -34q-156 0 -242.5 92t-86.5 238q0 57 20 150z" />
    <glyph glyph-name="yacute" unicode="&#xfd;" horiz-adv-x="1077" 
d="M244 -389h-301l348 549l-221 848h286l136 -566l339 566h306zM1018 1436l-344 -308h-234l246 308h332z" />
    <glyph glyph-name="thorn" unicode="&#xfe;" horiz-adv-x="1232" 
d="M-74 -389l398 1872h272l-119 -565q45 50 117.5 80t153.5 30q187 0 288 -117t101 -303q0 -136 -40 -254t-109.5 -201t-167 -130.5t-208.5 -47.5q-109 0 -190.5 41t-118.5 105l-106 -510h-271zM653 791q-117 0 -195.5 -98.5t-78.5 -243.5q0 -111 57.5 -171.5t149.5 -60.5
q50 0 98 22.5t88 65t65 110.5t25 150q0 108 -57 167t-152 59z" />
    <glyph glyph-name="ydieresis" unicode="&#xff;" horiz-adv-x="1077" 
d="M268 1272q0 63 47.5 111.5t112.5 48.5q57 0 94 -39.5t37 -94.5q0 -65 -50 -110t-112 -45q-56 0 -92.5 37.5t-36.5 91.5zM698 1272q0 63 47.5 111.5t112.5 48.5q57 0 94 -39.5t37 -94.5q0 -65 -50 -110t-112 -45q-56 0 -92.5 37.5t-36.5 91.5zM244 -389h-301l348 549
l-221 848h286l136 -566l339 566h306z" />
    <glyph glyph-name="Amacron" unicode="&#x100;" horiz-adv-x="1445" 
d="M1004 0l-48 332h-561l-186 -332h-318l850 1452h324l231 -1452h-292zM844 1135l-303 -545h379zM1229 1585h-623l41 205h625z" />
    <glyph glyph-name="amacron" unicode="&#x101;" horiz-adv-x="1208" 
d="M594 788q-63 0 -114.5 -31t-84 -81.5t-50 -111.5t-17.5 -124q0 -104 52.5 -163.5t143.5 -59.5q109 0 185.5 97.5t76.5 258.5q0 100 -51 157.5t-141 57.5zM889 1008h264l-166 -787q-18 -89 -18 -182q0 -21 2 -39h-252q-2 16 -2 47q0 26 4 76q-41 -60 -109 -100.5
t-161 -40.5q-181 0 -287.5 128t-106.5 320q0 256 148 429t366 173q124 0 195 -43t98 -96zM971 1182h-578l43 198h576z" />
    <glyph glyph-name="Abreve" unicode="&#x102;" horiz-adv-x="1445" 
d="M1004 0l-48 332h-561l-186 -332h-318l850 1452h324l231 -1452h-292zM844 1135l-303 -545h379zM930 1544q-132 0 -214.5 65.5t-82.5 176.5q0 23 4 35h197q-3 -15 -3 -21q0 -36 28.5 -60t82.5 -24q61 0 100 30t50 75h213q-31 -113 -128.5 -195t-246.5 -82z" />
    <glyph glyph-name="abreve" unicode="&#x103;" horiz-adv-x="1208" 
d="M594 788q-63 0 -114.5 -31t-84 -81.5t-50 -111.5t-17.5 -124q0 -104 52.5 -163.5t143.5 -59.5q109 0 185.5 97.5t76.5 258.5q0 100 -51 157.5t-141 57.5zM889 1008h264l-166 -787q-18 -89 -18 -182q0 -21 2 -39h-252q-2 16 -2 47q0 26 4 76q-41 -60 -109 -100.5
t-161 -40.5q-181 0 -287.5 128t-106.5 320q0 256 148 429t366 173q124 0 195 -43t98 -96zM686 1124q-136 0 -210.5 75t-74.5 185q0 12 5 52h178q-2 -8 -2 -17q0 -44 28 -75t90 -31q69 0 109 36.5t55 86.5h201q-31 -134 -127.5 -223t-251.5 -89z" />
    <glyph glyph-name="Aogonek" unicode="&#x104;" horiz-adv-x="1445" 
d="M1004 0l-48 332h-561l-186 -332h-318l850 1452h324l231 -1452q-81 -32 -142.5 -85t-61.5 -118q0 -39 27 -60.5t69 -23.5q33 0 49 4l-33 -161q-41 -13 -90 -13q-95 0 -160 55t-65 146q0 159 160 256h-45zM844 1135l-303 -545h379z" />
    <glyph glyph-name="aogonek" unicode="&#x105;" horiz-adv-x="1208" 
d="M788 -457q-95 0 -160 55t-65 146q0 155 158 256q-4 28 -4 57q0 34 4 66q-41 -60 -109 -100.5t-161 -40.5q-181 0 -287.5 128t-106.5 320q0 256 148 429t366 173q124 0 195 -43t98 -96l25 115h264l-166 -787q-18 -89 -18 -186q0 -17 2 -35q-82 -32 -143.5 -85t-61.5 -118
q0 -39 27 -60.5t69 -23.5q33 0 49 4l-32 -161q-41 -13 -91 -13zM594 788q-63 0 -114.5 -31t-84 -81.5t-50 -111.5t-17.5 -124q0 -104 52.5 -163.5t143.5 -59.5q109 0 185.5 97.5t76.5 258.5q0 100 -51 157.5t-141 57.5z" />
    <glyph glyph-name="Cacute" unicode="&#x106;" horiz-adv-x="1492" 
d="M901 1483q113 0 209 -28t163 -73.5t117.5 -107.5t78.5 -126.5t40 -133.5l-274 -82q-11 53 -35.5 100t-65.5 89.5t-106.5 67.5t-146.5 25q-130 0 -239.5 -70.5t-176 -202.5t-66.5 -298q0 -181 102 -292t275 -111q143 0 237.5 77t145.5 195l254 -102q-35 -85 -90 -160
t-134.5 -140.5t-192 -104t-244.5 -38.5q-141 0 -260.5 50t-203 137t-130.5 209.5t-47 263.5q0 159 43.5 297.5t119.5 239t176.5 173.5t215.5 109t235 37zM1425 1815l-346 -261h-262l262 261h346z" />
    <glyph glyph-name="cacute" unicode="&#x107;" horiz-adv-x="1118" 
d="M1092 1436l-344 -308h-234l246 308h332zM1061 700l-246 -73q-13 69 -66.5 116.5t-142.5 47.5q-109 0 -193.5 -91t-84.5 -251q0 -108 61 -170t162 -62q151 0 227 148l226 -89q-60 -132 -180 -219.5t-289 -87.5q-208 0 -343 131t-135 342q0 131 46.5 244t125 189.5
t181.5 119.5t215 43q99 0 179 -29t131 -79t82.5 -107.5t43.5 -122.5z" />
    <glyph glyph-name="Ccircumflex" unicode="&#x108;" horiz-adv-x="1492" 
d="M815 1554h-256l299 261h281l192 -261h-237l-111 134zM901 1483q113 0 209 -28t163 -73.5t117.5 -107.5t78.5 -126.5t40 -133.5l-274 -82q-11 53 -35.5 100t-65.5 89.5t-106.5 67.5t-146.5 25q-130 0 -239.5 -70.5t-176 -202.5t-66.5 -298q0 -181 102 -292t275 -111
q143 0 237.5 77t145.5 195l254 -102q-35 -85 -90 -160t-134.5 -140.5t-192 -104t-244.5 -38.5q-141 0 -260.5 50t-203 137t-130.5 209.5t-47 263.5q0 159 43.5 297.5t119.5 239t176.5 173.5t215.5 109t235 37z" />
    <glyph glyph-name="ccircumflex" unicode="&#x109;" horiz-adv-x="1118" 
d="M528 1130h-233l295 302h270l164 -302h-213l-109 154zM1061 700l-246 -73q-13 69 -66.5 116.5t-142.5 47.5q-109 0 -193.5 -91t-84.5 -251q0 -108 61 -170t162 -62q151 0 227 148l226 -89q-60 -132 -180 -219.5t-289 -87.5q-208 0 -343 131t-135 342q0 131 46.5 244
t125 189.5t181.5 119.5t215 43q99 0 179 -29t131 -79t82.5 -107.5t43.5 -122.5z" />
    <glyph glyph-name="Cdotaccent" unicode="&#x10a;" horiz-adv-x="1492" 
d="M901 1483q113 0 209 -28t163 -73.5t117.5 -107.5t78.5 -126.5t40 -133.5l-274 -82q-11 53 -35.5 100t-65.5 89.5t-106.5 67.5t-146.5 25q-130 0 -239.5 -70.5t-176 -202.5t-66.5 -298q0 -181 102 -292t275 -111q143 0 237.5 77t145.5 195l254 -102q-35 -85 -90 -160
t-134.5 -140.5t-192 -104t-244.5 -38.5q-141 0 -260.5 50t-203 137t-130.5 209.5t-47 263.5q0 159 43.5 297.5t119.5 239t176.5 173.5t215.5 109t235 37zM805 1706q0 69 54 122.5t128 53.5q65 0 107.5 -41.5t42.5 -101.5q0 -76 -54 -129.5t-127 -53.5q-66 0 -108.5 43.5
t-42.5 106.5z" />
    <glyph glyph-name="cdotaccent" unicode="&#x10b;" horiz-adv-x="1118" 
d="M1061 700l-246 -73q-13 69 -66.5 116.5t-142.5 47.5q-109 0 -193.5 -91t-84.5 -251q0 -108 61 -170t162 -62q151 0 227 148l226 -89q-60 -132 -180 -219.5t-289 -87.5q-208 0 -343 131t-135 342q0 131 46.5 244t125 189.5t181.5 119.5t215 43q99 0 179 -29t131 -79
t82.5 -107.5t43.5 -122.5zM518 1270q0 71 52.5 125.5t127.5 54.5q64 0 106 -42t42 -101q0 -77 -52.5 -131t-125.5 -54q-65 0 -107.5 43.5t-42.5 104.5z" />
    <glyph glyph-name="Ccaron" unicode="&#x10c;" horiz-adv-x="1492" 
d="M1118 1815h262l-303 -261h-280l-189 261h236l108 -132zM901 1483q113 0 209 -28t163 -73.5t117.5 -107.5t78.5 -126.5t40 -133.5l-274 -82q-11 53 -35.5 100t-65.5 89.5t-106.5 67.5t-146.5 25q-130 0 -239.5 -70.5t-176 -202.5t-66.5 -298q0 -181 102 -292t275 -111
q143 0 237.5 77t145.5 195l254 -102q-35 -85 -90 -160t-134.5 -140.5t-192 -104t-244.5 -38.5q-141 0 -260.5 50t-203 137t-130.5 209.5t-47 263.5q0 159 43.5 297.5t119.5 239t176.5 173.5t215.5 109t235 37z" />
    <glyph glyph-name="ccaron" unicode="&#x10d;" horiz-adv-x="1118" 
d="M856 1434h236l-291 -304h-273l-161 304h211l110 -154zM1061 700l-246 -73q-13 69 -66.5 116.5t-142.5 47.5q-109 0 -193.5 -91t-84.5 -251q0 -108 61 -170t162 -62q151 0 227 148l226 -89q-60 -132 -180 -219.5t-289 -87.5q-208 0 -343 131t-135 342q0 131 46.5 244
t125 189.5t181.5 119.5t215 43q99 0 179 -29t131 -79t82.5 -107.5t43.5 -122.5z" />
    <glyph glyph-name="Dcaron" unicode="&#x10e;" horiz-adv-x="1468" 
d="M1018 1815h262l-303 -261h-281l-188 261h235l109 -132zM377 266h264q89 0 174.5 39t153.5 108t109.5 176t41.5 232q0 173 -93 271t-273 98h-181zM631 0h-588l305 1452h430q293 0 462 -165.5t169 -438.5q0 -160 -42.5 -298.5t-117 -238t-173 -170.5t-212 -106t-233.5 -35z
" />
    <glyph glyph-name="dcaron" unicode="&#x10f;" horiz-adv-x="1208" 
d="M1688 1483l-232 -406h-190l143 406h279zM1253 1483l-266 -1262q-18 -80 -22 -178q0 -35 2 -43h-248q-2 18 -2 51q0 26 4 72q-41 -60 -109 -100.5t-161 -40.5q-121 1 -211.5 61t-136.5 160.5t-46 226.5q0 256 148 429t366 173q115 0 185.5 -39t101.5 -92l123 582h272z
M594 788q-63 0 -114.5 -31t-84 -81.5t-50 -111.5t-17.5 -124q0 -104 52.5 -163.5t143.5 -59.5q109 0 185.5 97.5t76.5 258.5q0 100 -51 157.5t-141 57.5z" />
    <glyph glyph-name="Dcroat" unicode="&#x110;" horiz-adv-x="1497" 
d="M33 641l43 209h174l127 602h430q293 0 462 -165.5t169 -438.5q0 -160 -43 -298.5t-117 -238t-173 -170.5t-212.5 -106t-233.5 -35h-587l135 641h-174zM406 266h264q89 0 174.5 39t153.5 108t109.5 176t41.5 232q0 173 -93 271t-274 98h-180l-72 -340h306l-43 -209h-308z
" />
    <glyph glyph-name="dcroat" unicode="&#x111;" horiz-adv-x="1208" 
d="M1253 1483l-34 -160h161l-41 -195h-161l-191 -907q-18 -80 -22 -178q0 -35 2 -43h-248q-2 16 -2 55q0 22 4 68q-41 -60 -109 -100.5t-161 -40.5q-121 1 -211.5 61t-136.5 160.5t-46 226.5q0 256 148 429t366 173q115 0 185.5 -39t101.5 -92l47 227h-217l41 195h217
l35 160h272zM594 788q-63 0 -114.5 -31t-84 -81.5t-50 -111.5t-17.5 -124q0 -104 52.5 -163.5t143.5 -59.5q109 0 185.5 97.5t76.5 258.5q0 100 -51 157.5t-141 57.5z" />
    <glyph glyph-name="Emacron" unicode="&#x112;" horiz-adv-x="1181" 
d="M948 0h-905l307 1452h905l-57 -266h-620l-72 -332h563l-53 -252h-563l-72 -336h623zM1128 1585h-622l41 205h624z" />
    <glyph glyph-name="emacron" unicode="&#x113;" horiz-adv-x="1122" 
d="M944 1182h-577l43 198h575zM338 618h442q2 14 2 25q0 68 -47 121t-143 53q-97 0 -162 -55.5t-92 -143.5zM1010 432l-701 -2q0 -102 59.5 -167.5t166.5 -65.5q79 0 137 37t88 94l209 -105q-55 -109 -170.5 -181.5t-280.5 -72.5q-127 0 -231.5 56t-168 163t-63.5 246
q0 135 46.5 251t123 192t173 118.5t198.5 42.5q206 0 324 -117.5t118 -306.5q0 -89 -28 -182z" />
    <glyph glyph-name="Ebreve" unicode="&#x114;" horiz-adv-x="1181" 
d="M948 0h-905l307 1452h905l-57 -266h-620l-72 -332h563l-53 -252h-563l-72 -336h623zM811 1544q-132 0 -214.5 65.5t-82.5 176.5q0 23 4 35h197q-2 -10 -2 -21q0 -36 28 -60t82 -24q61 0 100 30t50 75h213q-31 -113 -128.5 -195t-246.5 -82z" />
    <glyph glyph-name="ebreve" unicode="&#x115;" horiz-adv-x="1122" 
d="M338 618h442q2 14 2 25q0 68 -47 121t-143 53q-97 0 -162 -55.5t-92 -143.5zM1010 432l-701 -2q0 -102 59.5 -167.5t166.5 -65.5q79 0 137 37t88 94l209 -105q-55 -109 -170.5 -181.5t-280.5 -72.5q-127 0 -231.5 56t-168 163t-63.5 246q0 135 46.5 251t123 192
t173 118.5t198.5 42.5q206 0 324 -117.5t118 -306.5q0 -89 -28 -182zM666 1124q-136 0 -210.5 75t-74.5 185q0 20 4 52h178q-2 -8 -2 -17q0 -44 28.5 -75t90.5 -31q69 0 109 36.5t55 86.5h200q-31 -134 -127 -223t-251 -89z" />
    <glyph glyph-name="Edotaccent" unicode="&#x116;" horiz-adv-x="1181" 
d="M672 1694q0 69 54 122.5t128 53.5q65 0 107.5 -42t42.5 -102q0 -76 -54 -129t-127 -53q-66 0 -108.5 43.5t-42.5 106.5zM948 0h-905l307 1452h905l-57 -266h-620l-72 -332h563l-53 -252h-563l-72 -336h623z" />
    <glyph glyph-name="edotaccent" unicode="&#x117;" horiz-adv-x="1122" 
d="M338 618h442q2 14 2 25q0 68 -47 121t-143 53q-97 0 -162 -55.5t-92 -143.5zM1010 432l-701 -2q0 -102 59.5 -167.5t166.5 -65.5q79 0 137 37t88 94l209 -105q-55 -109 -170.5 -181.5t-280.5 -72.5q-127 0 -231.5 56t-168 163t-63.5 246q0 135 46.5 251t123 192
t173 118.5t198.5 42.5q206 0 324 -117.5t118 -306.5q0 -89 -28 -182zM508 1268q0 71 52.5 125.5t127.5 54.5q64 0 106 -42t42 -101q0 -77 -53 -131t-126 -54q-65 0 -107 43.5t-42 104.5z" />
    <glyph glyph-name="Eogonek" unicode="&#x118;" horiz-adv-x="1181" 
d="M948 0q-82 -32 -143.5 -85t-61.5 -118q0 -39 27.5 -60.5t69.5 -23.5q33 0 49 4l-33 -161q-41 -13 -90 -13q-95 0 -160 55t-65 146q0 159 159 256h-657l307 1452h905l-57 -266h-620l-72 -332h563l-53 -252h-563l-72 -336h623z" />
    <glyph glyph-name="eogonek" unicode="&#x119;" horiz-adv-x="1122" 
d="M1010 432l-701 -2q0 -102 59.5 -167.5t166.5 -65.5q79 0 137 37t88 94l209 -105q-37 -74 -109.5 -135.5t-165.5 -91.5q-74 -25 -133 -77.5t-59 -113.5q0 -44 26.5 -67t69.5 -25q33 0 49 4l-33 -161q-41 -13 -90 -13q-95 0 -160 55t-65 146q0 139 125 233
q-162 30 -265.5 152.5t-103.5 304.5q0 135 46.5 251t123 192t173 118.5t198.5 42.5q206 0 324 -117.5t118 -306.5q0 -89 -28 -182zM338 618h442q0 2 1 12t1 13q0 68 -47 121t-143 53q-97 0 -162 -55.5t-92 -143.5z" />
    <glyph glyph-name="Ecaron" unicode="&#x11a;" horiz-adv-x="1181" 
d="M995 1815h262l-303 -261h-280l-189 261h236l108 -132zM948 0h-905l307 1452h905l-57 -266h-620l-72 -332h563l-53 -252h-563l-72 -336h623z" />
    <glyph glyph-name="ecaron" unicode="&#x11b;" horiz-adv-x="1122" 
d="M819 1434h236l-291 -304h-272l-162 304h211l110 -154zM338 618h442q2 14 2 25q0 68 -47 121t-143 53q-97 0 -162 -55.5t-92 -143.5zM1010 432l-701 -2q0 -102 59.5 -167.5t166.5 -65.5q79 0 137 37t88 94l209 -105q-55 -109 -170.5 -181.5t-280.5 -72.5q-127 0 -231.5 56
t-168 163t-63.5 246q0 135 46.5 251t123 192t173 118.5t198.5 42.5q206 0 324 -117.5t118 -306.5q0 -89 -28 -182z" />
    <glyph glyph-name="Gcircumflex" unicode="&#x11c;" horiz-adv-x="1568" 
d="M805 1554h-256l299 261h280l193 -261h-238l-110 134zM881 1217q-96 0 -183 -41t-153 -113.5t-105 -181.5t-39 -238q0 -188 99 -301t276 -113q151 0 257.5 77t144.5 204h-451l51 246h713l-158 -756h-217l6 150q-65 -82 -165.5 -129.5t-225.5 -47.5q-275 0 -446.5 181
t-171.5 473q0 159 43 297.5t118 239.5t175 174t216 109t238 36q113 0 210 -26.5t165 -70.5t119 -104t80 -123.5t41 -132.5l-277 -82q-11 52 -36 98.5t-67 87t-108 64t-149 23.5z" />
    <glyph glyph-name="gcircumflex" unicode="&#x11d;" horiz-adv-x="1210" 
d="M571 1130h-233l295 302h270l164 -302h-213l-109 154zM791 590q0 86 -53 142t-144 56q-112 0 -186 -81.5t-74 -214.5q0 -93 54.5 -150t148.5 -57q108 0 181 83t73 222zM-61 -37l243 49q0 -84 55 -140t162 -56q224 0 291 274l17 68q-32 -42 -94.5 -71.5t-143.5 -29.5
q-186 0 -297 118t-111 300q0 152 65 278.5t182 200.5t261 74q112 0 188.5 -38.5t108.5 -96.5l25 115h266l-192 -920q-22 -106 -66 -195t-112 -160.5t-167.5 -112t-222.5 -40.5q-113 0 -203 34t-144 89.5t-82.5 122.5t-28.5 137z" />
    <glyph glyph-name="Gbreve" unicode="&#x11e;" horiz-adv-x="1568" 
d="M963 1544q-132 0 -214.5 65.5t-82.5 176.5q0 23 4 35h196q-2 -10 -2 -21q0 -36 28.5 -60t82.5 -24q61 0 99.5 30t49.5 75h213q-31 -113 -128 -195t-246 -82zM881 1217q-96 0 -183 -41t-153 -113.5t-105 -181.5t-39 -238q0 -188 99 -301t276 -113q151 0 257.5 77
t144.5 204h-451l51 246h713l-158 -756h-217l6 150q-65 -82 -165.5 -129.5t-225.5 -47.5q-275 0 -446.5 181t-171.5 473q0 159 43 297.5t118 239.5t175 174t216 109t238 36q113 0 210 -26.5t165 -70.5t119 -104t80 -123.5t41 -132.5l-277 -82q-11 52 -36 98.5t-67 87t-108 64
t-149 23.5z" />
    <glyph glyph-name="gbreve" unicode="&#x11f;" horiz-adv-x="1210" 
d="M791 590q0 86 -53 142t-144 56q-112 0 -186 -81.5t-74 -214.5q0 -93 54.5 -150t148.5 -57q108 0 181 83t73 222zM-61 -37l243 49q0 -84 55 -140t162 -56q224 0 291 274l17 68q-32 -42 -94.5 -71.5t-143.5 -29.5q-186 0 -297 118t-111 300q0 152 65 278.5t182 200.5
t261 74q112 0 188.5 -38.5t108.5 -96.5l25 115h266l-192 -920q-22 -106 -66 -195t-112 -160.5t-167.5 -112t-222.5 -40.5q-113 0 -203 34t-144 89.5t-82.5 122.5t-28.5 137zM690 1124q-136 0 -210 75t-74 185q0 20 4 52h178q-2 -8 -2 -17q0 -44 28.5 -75t90.5 -31
q69 0 108.5 36.5t54.5 86.5h201q-31 -134 -127.5 -223t-251.5 -89z" />
    <glyph glyph-name="Gdotaccent" unicode="&#x120;" horiz-adv-x="1568" 
d="M817 1700q0 69 54 122.5t128 53.5q65 0 107.5 -41.5t42.5 -101.5q0 -76 -53.5 -129.5t-126.5 -53.5q-66 0 -109 43.5t-43 106.5zM881 1217q-96 0 -183 -41t-153 -113.5t-105 -181.5t-39 -238q0 -188 99 -301t276 -113q151 0 257.5 77t144.5 204h-451l51 246h713
l-158 -756h-217l6 150q-65 -82 -165.5 -129.5t-225.5 -47.5q-275 0 -446.5 181t-171.5 473q0 159 43 297.5t118 239.5t175 174t216 109t238 36q113 0 210 -26.5t165 -70.5t119 -104t80 -123.5t41 -132.5l-277 -82q-11 52 -36 98.5t-67 87t-108 64t-149 23.5z" />
    <glyph glyph-name="gdotaccent" unicode="&#x121;" horiz-adv-x="1210" 
d="M532 1268q0 71 53 125.5t128 54.5q63 0 105 -42t42 -101q0 -77 -52.5 -131t-125.5 -54q-65 0 -107.5 43.5t-42.5 104.5zM791 590q0 86 -53 142t-144 56q-112 0 -186 -81.5t-74 -214.5q0 -93 54.5 -150t148.5 -57q108 0 181 83t73 222zM-61 -37l243 49q0 -84 55 -140
t162 -56q224 0 291 274l17 68q-32 -42 -94.5 -71.5t-143.5 -29.5q-186 0 -297 118t-111 300q0 152 65 278.5t182 200.5t261 74q112 0 188.5 -38.5t108.5 -96.5l25 115h266l-192 -920q-22 -106 -66 -195t-112 -160.5t-167.5 -112t-222.5 -40.5q-113 0 -203 34t-144 89.5
t-82.5 122.5t-28.5 137z" />
    <glyph glyph-name="Gcommaaccent" unicode="&#x122;" horiz-adv-x="1568" 
d="M514 -229q0 60 44.5 100.5t111.5 40.5q69 0 111 -43.5t42 -110.5q0 -87 -43 -150.5t-106.5 -92.5t-136.5 -29q-36 0 -60 6l23 96q10 -2 28 -2q51 0 94 19t60 61q-8 -8 -43 -8q-59 0 -92 33t-33 80zM881 1217q-96 0 -183 -41t-153 -113.5t-105 -181.5t-39 -238
q0 -188 99 -301t276 -113q151 0 257.5 77t144.5 204h-451l51 246h713l-158 -756h-217l6 150q-65 -82 -165.5 -129.5t-225.5 -47.5q-275 0 -446.5 181t-171.5 473q0 159 43 297.5t118 239.5t175 174t216 109t238 36q113 0 210 -26.5t165 -70.5t119 -104t80 -123.5t41 -132.5
l-277 -82q-11 52 -36 98.5t-67 87t-108 64t-149 23.5z" />
    <glyph glyph-name="gcommaaccent" unicode="&#x123;" horiz-adv-x="1210" 
d="M836 1255q0 -59 -44.5 -101t-111.5 -42t-109.5 44.5t-42.5 111.5q0 86 44.5 150t110.5 94t140 30q23 0 47 -4l-20 -100q-12 4 -33 4q-63 0 -102.5 -26t-48.5 -56q1 1 7.5 3.5t18 4.5t21.5 2q59 0 91 -33.5t32 -81.5zM791 590q0 86 -53 142t-144 56q-112 0 -186 -81.5
t-74 -214.5q0 -93 54.5 -150t148.5 -57q108 0 181 83t73 222zM-61 -37l243 49q0 -84 55 -140t162 -56q224 0 291 274l17 68q-32 -42 -94.5 -71.5t-143.5 -29.5q-186 0 -297 118t-111 300q0 152 65 278.5t182 200.5t261 74q112 0 188.5 -38.5t108.5 -96.5l25 115h266
l-192 -920q-22 -106 -66 -195t-112 -160.5t-167.5 -112t-222.5 -40.5q-113 0 -203 34t-144 89.5t-82.5 122.5t-28.5 137z" />
    <glyph glyph-name="Hcircumflex" unicode="&#x124;" horiz-adv-x="1492" 
d="M807 1554h-256l299 261h280l193 -261h-238l-110 134zM1194 0h-285l127 602h-583l-127 -602h-283l307 1452h283l-123 -584h584l123 584h284z" />
    <glyph glyph-name="hcircumflex" unicode="&#x125;" horiz-adv-x="1167" 
d="M913 0h-272l125 584q6 30 6 59q0 69 -40 109.5t-114 40.5q-83 0 -137.5 -59t-74.5 -150l-127 -584h-271l314 1483h272l-117 -557q94 108 264 108q148 0 232 -88.5t84 -228.5q0 -47 -13 -107zM637 1575h-256l299 260h281l192 -260h-238l-110 133z" />
    <glyph glyph-name="Hbar" unicode="&#x126;" horiz-adv-x="1525" 
d="M121 1059l37 178h164l45 215h282l-45 -215h584l45 215h285l-45 -215h161l-37 -178h-163l-224 -1059h-284l127 602h-584l-127 -602h-283l224 1059h-162zM526 868h584l39 191h-584z" />
    <glyph glyph-name="hbar" unicode="&#x127;" horiz-adv-x="1167" 
d="M913 0h-272l125 584q6 30 6 59q0 69 -40 109.5t-114 40.5q-83 0 -137.5 -59t-74.5 -150l-127 -584h-271l238 1130h-156l43 195h154l35 158h272l-33 -158h236l-43 -195h-234l-43 -204q94 108 264 108q148 0 232 -88.5t84 -228.5q0 -47 -13 -107z" />
    <glyph glyph-name="Itilde" unicode="&#x128;" horiz-adv-x="628" 
d="M330 0h-287l307 1452h287zM911 1823q-22 -147 -88.5 -214t-163.5 -67q-73 0 -149 49l-10 6q-4 2 -16.5 9.5l-17.5 10.5t-15.5 8t-17 7t-15 4t-15.5 2q-59 0 -73 -88h-174q14 145 85.5 212t172.5 67q71 0 151 -51l6 -4q58 -39 91 -39q61 0 75 88h174z" />
    <glyph glyph-name="itilde" unicode="&#x129;" horiz-adv-x="546" 
d="M281 0h-273l215 1008h273zM199 1139h-176q8 76 33.5 134t62.5 91.5t80 49.5t92 16q76 0 147 -48l11 -6q2 -1 10 -6.5t10 -6.5t9.5 -5.5t10.5 -6t9.5 -4.5t10.5 -4.5t9.5 -3t11 -2t11.5 -0.5q68 0 84 90h176q-22 -150 -92 -221t-168 -71q-77 0 -150 47l-16 10
q-2 1 -18 10.5t-23 13t-21 7.5t-28 4q-69 0 -86 -88z" />
    <glyph glyph-name="Imacron" unicode="&#x12a;" horiz-adv-x="628" 
d="M330 0h-287l307 1452h287zM823 1585h-622l41 205h624z" />
    <glyph glyph-name="imacron" unicode="&#x12b;" horiz-adv-x="546" 
d="M281 0h-273l215 1008h273zM676 1182h-578l43 198h576z" />
    <glyph glyph-name="Ibreve" unicode="&#x12c;" horiz-adv-x="628" 
d="M330 0h-287l307 1452h287zM526 1544q-132 0 -214.5 65.5t-82.5 176.5q0 23 4 35h197q-2 -10 -2 -21q0 -36 28.5 -60t82.5 -24q61 0 99.5 30t49.5 75h213q-31 -113 -128.5 -195t-246.5 -82z" />
    <glyph glyph-name="ibreve" unicode="&#x12d;" horiz-adv-x="546" 
d="M281 0h-273l215 1008h273zM377 1124q-136 0 -210.5 75t-74.5 185q0 20 4 52h178q-2 -8 -2 -17q0 -44 28.5 -75t90.5 -31q69 0 109 36.5t55 86.5h201q-31 -134 -127.5 -223t-251.5 -89z" />
    <glyph glyph-name="Iogonek" unicode="&#x12e;" horiz-adv-x="628" 
d="M147 -457q-95 0 -160 55t-65 146q0 156 160 256h-39l307 1452h287l-307 -1452q-82 -32 -143.5 -85t-61.5 -118q0 -39 27 -60.5t69 -23.5q33 0 49 4l-32 -161q-41 -13 -91 -13z" />
    <glyph glyph-name="iogonek" unicode="&#x12f;" horiz-adv-x="546" 
d="M96 -457q-95 0 -160 55t-65 146q0 159 160 256h-23l215 1008h271l-215 -1008q-82 -32 -143.5 -85t-61.5 -118q0 -39 27 -60.5t69 -23.5q33 0 49 4l-33 -161q-41 -13 -90 -13zM258 1327q0 75 54.5 128.5t129.5 53.5q67 0 109.5 -42.5t42.5 -104.5q0 -77 -56 -129.5
t-130 -52.5q-64 0 -107 42t-43 105z" />
    <glyph glyph-name="Idotaccent" unicode="&#x130;" horiz-adv-x="628" 
d="M330 0h-287l307 1452h287zM375 1694q0 69 54 122.5t128 53.5q65 0 107.5 -42t42.5 -102q0 -76 -54 -129t-127 -53q-66 0 -108.5 43.5t-42.5 106.5z" />
    <glyph glyph-name="dotlessi" unicode="&#x131;" horiz-adv-x="546" 
d="M281 0h-273l215 1008h273z" />
    <glyph glyph-name="IJ" unicode="&#x132;" horiz-adv-x="1236" 
d="M446 721l-274 -25l166 756h268zM971 1452h286l-223 -1049q-42 -198 -174 -316t-321 -118q-198 0 -312 112t-114 290q0 78 12 131l8 33l279 40l-19 -81q-10 -41 -10 -80q0 -78 43 -128t127 -50q78 0 130 53t71 145z" />
    <glyph glyph-name="ij" unicode="&#x133;" horiz-adv-x="1089" 
d="M258 1327q0 75 54.5 128.5t129.5 53.5q67 0 109.5 -42.5t42.5 -104.5q0 -77 -56 -129.5t-130 -52.5q-64 0 -107 42t-43 105zM279 0h-271l215 1008h271zM537 -66l231 1074h270l-241 -1135q-30 -143 -119.5 -218t-218.5 -75q-64 0 -112.5 15t-70.5 30l46 213l5 -2
q5 -2 13.5 -4.5t19.5 -5t26 -4.5t30 -2q102 3 121 114zM803 1327q0 75 54.5 128.5t129.5 53.5q67 0 109.5 -42.5t42.5 -104.5q0 -77 -56.5 -129.5t-130.5 -52.5q-64 0 -106.5 42t-42.5 105z" />
    <glyph glyph-name="Jcircumflex" unicode="&#x134;" horiz-adv-x="1126" 
d="M874 1554h-256l300 261h280l193 -261h-238l-111 134zM860 1452h287l-223 -1049q-42 -198 -174 -316t-322 -118q-198 0 -312 112t-114 290q0 77 12 131l13 53l276 39l-22 -113q-9 -52 -9 -67q0 -78 43 -128t127 -50q78 0 130 53t71 145z" />
    <glyph glyph-name="jcircumflex" unicode="&#x135;" horiz-adv-x="544" 
d="M244 1130h-234l295 302h270l164 -302h-213l-108 154zM-8 -66l231 1074h271l-242 -1135q-30 -143 -119.5 -218t-218.5 -75q-64 0 -112 15t-70 30l45 213l5 -2q5 -2 13.5 -4.5t19.5 -5t26 -4.5t30 -2q102 3 121 114z" />
    <glyph glyph-name="Kcommaaccent" unicode="&#x136;" horiz-adv-x="1394" 
d="M934 0l-311 602l-211 -190l-86 -412h-283l307 1452h283l-129 -612l680 612h389l-727 -651l420 -801h-332zM442 -227q0 60 44.5 100.5t111.5 40.5q69 0 111.5 -43.5t42.5 -110.5q0 -128 -86 -200t-201 -72q-35 0 -59 6l22 96q10 -2 29 -2q51 0 93.5 19t59.5 61
q-8 -8 -43 -8q-59 0 -92 33t-33 80z" />
    <glyph glyph-name="kcommaaccent" unicode="&#x137;" horiz-adv-x="1132" 
d="M678 0l-189 403l-153 -131l-57 -272h-271l314 1483h272l-176 -828l401 353h379l-502 -428l287 -580h-305zM283 -227q0 60 44 100.5t111 40.5q69 0 111.5 -43.5t42.5 -110.5q0 -128 -86 -200t-201 -72q-35 0 -59 6l22 96q10 -2 29 -2q51 0 94 19t60 61q-8 -8 -43 -8
q-59 0 -92 33t-33 80z" />
    <glyph glyph-name="kgreenlandic" unicode="&#x138;" horiz-adv-x="1132" 
d="M678 0l-189 403l-153 -131l-57 -272h-271l213 1008h273l-76 -353l401 353h379l-502 -428l287 -580h-305z" />
    <glyph glyph-name="Lacute" unicode="&#x139;" horiz-adv-x="1114" 
d="M989 1815l-346 -261h-262l262 261h346zM956 0h-913l307 1452h283l-250 -1182h631z" />
    <glyph glyph-name="lacute" unicode="&#x13a;" horiz-adv-x="542" 
d="M946 1835l-346 -260h-262l262 260h346zM279 0h-271l314 1483h272z" />
    <glyph glyph-name="Lcommaaccent" unicode="&#x13b;" horiz-adv-x="1114" 
d="M334 -227q0 60 44 100.5t111 40.5q69 0 111.5 -43.5t42.5 -110.5q0 -128 -86 -200t-201 -72q-35 0 -59 6l22 96q10 -2 29 -2q51 0 94 19t60 61q-8 -8 -43 -8q-59 0 -92 33t-33 80zM956 0h-913l307 1452h283l-250 -1182h631z" />
    <glyph glyph-name="lcommaaccent" unicode="&#x13c;" horiz-adv-x="542" 
d="M-59 -227q0 60 44 100.5t111 40.5q69 0 111.5 -43.5t42.5 -110.5q0 -128 -86 -200t-201 -72q-35 0 -59 6l22 96q10 -2 29 -2q51 0 94 19t60 61q-8 -8 -43 -8q-59 0 -92 33t-33 80zM279 0h-271l314 1483h272z" />
    <glyph glyph-name="Lcaron" unicode="&#x13d;" horiz-adv-x="1114" 
d="M956 0h-913l307 1452h283l-250 -1182h631zM1157 1556l-242 -426h-198l149 426h291z" />
    <glyph glyph-name="lcaron" unicode="&#x13e;" horiz-adv-x="542" 
d="M1028 1483l-231 -406h-191l144 406h278zM279 0h-271l314 1483h272z" />
    <glyph glyph-name="Ldot" unicode="&#x13f;" horiz-adv-x="1114" 
d="M956 0h-913l307 1452h283l-250 -1182h631zM662 788q0 69 54 123t128 54q65 0 107 -42t42 -102q0 -76 -53.5 -129t-126.5 -53q-66 0 -108.5 43t-42.5 106z" />
    <glyph glyph-name="ldot" unicode="&#x140;" horiz-adv-x="811" 
d="M279 0h-271l314 1483h272zM524 657q0 71 53 126t128 55q63 0 105 -42t42 -102q0 -77 -52.5 -130.5t-125.5 -53.5q-65 0 -107.5 43t-42.5 104z" />
    <glyph glyph-name="Lslash" unicode="&#x141;" horiz-adv-x="1161" 
d="M1006 0h-914l123 580l-209 -86l49 227l207 84l137 647h283l-111 -520l312 129l-47 -225l-312 -129l-92 -437h631z" />
    <glyph glyph-name="lslash" unicode="&#x142;" horiz-adv-x="757" 
d="M385 0h-270l125 588l-191 -78l49 227l189 76l141 670h272l-116 -547l211 86l-50 -225l-208 -86z" />
    <glyph glyph-name="Nacute" unicode="&#x143;" horiz-adv-x="1542" 
d="M1405 1815l-346 -261h-262l262 261h346zM1243 0h-282l-420 1026l-217 -1026h-281l307 1452h326l385 -969l207 969h282z" />
    <glyph glyph-name="nacute" unicode="&#x144;" horiz-adv-x="1169" 
d="M1087 1436l-344 -308h-233l246 308h331zM915 0h-272l125 584q6 30 6 59q0 69 -39.5 109.5t-113.5 40.5q-83 0 -138 -59t-75 -150l-127 -584h-271l176 836q21 99 21 172h264q0 -62 -6 -103q47 65 123 97t160 32q147 0 229 -88t82 -229q0 -51 -12 -107z" />
    <glyph glyph-name="Ncommaaccent" unicode="&#x145;" horiz-adv-x="1542" 
d="M508 -227q0 60 44.5 100.5t111.5 40.5q69 0 111 -43.5t42 -110.5q0 -128 -86 -200t-201 -72q-35 0 -59 6l23 96q10 -2 28 -2q51 0 94 19t60 61q-8 -8 -43 -8q-59 0 -92 33t-33 80zM1243 0h-282l-420 1026l-217 -1026h-281l307 1452h326l385 -969l207 969h282z" />
    <glyph glyph-name="ncommaaccent" unicode="&#x146;" horiz-adv-x="1169" 
d="M291 -227q0 60 44 100.5t111 40.5q69 0 111.5 -43.5t42.5 -110.5q0 -128 -86 -200t-201 -72q-35 0 -59 6l22 96q10 -2 29 -2q51 0 94 19t60 61q-8 -8 -43 -8q-59 0 -92 33t-33 80zM915 0h-272l125 584q6 30 6 59q0 69 -39.5 109.5t-113.5 40.5q-83 0 -138 -59t-75 -150
l-127 -584h-271l176 836q21 99 21 172h264q0 -62 -6 -103q47 65 123 97t160 32q147 0 229 -88t82 -229q0 -51 -12 -107z" />
    <glyph glyph-name="Ncaron" unicode="&#x147;" horiz-adv-x="1542" 
d="M1133 1815h262l-303 -261h-281l-188 261h235l109 -132zM1243 0h-282l-420 1026l-217 -1026h-281l307 1452h326l385 -969l207 969h282z" />
    <glyph glyph-name="ncaron" unicode="&#x148;" horiz-adv-x="1169" 
d="M852 1434h235l-290 -304h-273l-162 304h211l111 -154zM915 0h-272l125 584q6 30 6 59q0 69 -39.5 109.5t-113.5 40.5q-83 0 -138 -59t-75 -150l-127 -584h-271l176 836q21 99 21 172h264q0 -62 -6 -103q47 65 123 97t160 32q147 0 229 -88t82 -229q0 -51 -12 -107z" />
    <glyph glyph-name="napostrophe" unicode="&#x149;" horiz-adv-x="1169" 
d="M233 1102l21 98q10 -2 31 -2q116 0 153 80q-16 -8 -45 -8q-59 0 -92 32.5t-33 79.5q0 60 45 101t111 41q70 0 110.5 -42t40.5 -110q0 -125 -83 -199.5t-205 -74.5q-18 0 -54 4zM915 0h-272l125 584q6 30 6 59q0 69 -39.5 109.5t-113.5 40.5q-83 0 -138 -59t-75 -150
l-127 -584h-271l176 836q21 99 21 172h264q0 -62 -6 -103q47 65 123 97t160 32q147 0 229 -88t82 -229q0 -51 -12 -107z" />
    <glyph glyph-name="Eng" unicode="&#x14a;" horiz-adv-x="1542" 
d="M952 -66l13 58l-424 1034l-217 -1026h-281l307 1452h326l385 -969l207 969h282l-333 -1575q-29 -136 -125.5 -215.5t-227.5 -79.5q-52 0 -99.5 10t-68.5 19t-28 14l49 228q2 -2 14.5 -7t39.5 -10.5t54 -5.5q104 0 127 104z" />
    <glyph glyph-name="eng" unicode="&#x14b;" horiz-adv-x="1169" 
d="M547 -428q-64 0 -113.5 15t-68.5 30l45 213q42 -18 88 -18q59 0 88 26t41 86l141 660q6 30 6 59q0 69 -39.5 109.5t-113.5 40.5q-83 0 -138 -59t-75 -150l-127 -584h-271l176 836q21 99 21 172h264q0 -60 -6 -103q47 65 123 97t160 32q147 0 228 -88t81 -229
q0 -61 -10 -107l-160 -747q-30 -142 -120 -216.5t-220 -74.5z" />
    <glyph glyph-name="Omacron" unicode="&#x14c;" horiz-adv-x="1593" 
d="M1257 1585h-622l41 205h624zM111 618q0 134 30.5 255t84 214.5t127 169t160.5 125t183 75.5t195 26q289 0 465 -179t176 -470q0 -161 -43 -301t-117.5 -242t-173.5 -175.5t-212.5 -110t-231.5 -36.5q-288 0 -465.5 180t-177.5 469zM1241 817q0 183 -98.5 290t-268.5 107
q-132 0 -241.5 -77.5t-171.5 -209t-62 -288.5q0 -183 100 -290t267 -107q198 0 335 162t140 413z" />
    <glyph glyph-name="omacron" unicode="&#x14d;" horiz-adv-x="1179" 
d="M954 1182h-577l43 198h575zM602 791q-117 0 -194.5 -97.5t-77.5 -242.5q0 -107 57.5 -170.5t149.5 -63.5q49 0 96.5 22t87 62.5t64 108t24.5 149.5q0 109 -56 170.5t-151 61.5zM1081 569q0 -162 -71 -299t-201 -219t-291 -82q-137 0 -243 62.5t-162 169t-56 237.5
t45 243.5t121.5 190.5t180 122t219.5 44q210 0 334 -133.5t124 -335.5z" />
    <glyph glyph-name="Obreve" unicode="&#x14e;" horiz-adv-x="1593" 
d="M979 1544q-132 0 -214.5 65.5t-82.5 176.5q0 23 4 35h197q-2 -10 -2 -21q0 -36 28 -60t82 -24q61 0 100 30t50 75h213q-31 -113 -128.5 -195t-246.5 -82zM111 618q0 134 30.5 255t84 214.5t127 169t160.5 125t183 75.5t195 26q289 0 465 -179t176 -470q0 -161 -43 -301
t-117.5 -242t-173.5 -175.5t-212.5 -110t-231.5 -36.5q-288 0 -465.5 180t-177.5 469zM1241 817q0 183 -98.5 290t-268.5 107q-132 0 -241.5 -77.5t-171.5 -209t-62 -288.5q0 -183 100 -290t267 -107q198 0 335 162t140 413z" />
    <glyph glyph-name="obreve" unicode="&#x14f;" horiz-adv-x="1179" 
d="M602 791q-117 0 -194.5 -97.5t-77.5 -242.5q0 -107 57.5 -170.5t149.5 -63.5q49 0 96.5 22t87 62.5t64 108t24.5 149.5q0 109 -56 170.5t-151 61.5zM1081 569q0 -162 -71 -299t-201 -219t-291 -82q-137 0 -243 62.5t-162 169t-56 237.5t45 243.5t121.5 190.5t180 122
t219.5 44q210 0 334 -133.5t124 -335.5zM680 1124q-136 0 -210.5 75t-74.5 185q0 20 4 52h179q-3 -12 -3 -17q0 -44 28.5 -75t90.5 -31q69 0 109 36.5t55 86.5h201q-31 -134 -127.5 -223t-251.5 -89z" />
    <glyph glyph-name="Ohungarumlaut" unicode="&#x150;" horiz-adv-x="1593" 
d="M1083 1815l-247 -261h-181l160 261h268zM1438 1815l-275 -261h-184l188 261h271zM111 618q0 134 30.5 255t84 214.5t127 169t160.5 125t183 75.5t195 26q289 0 465 -179t176 -470q0 -161 -43 -301t-117.5 -242t-173.5 -175.5t-212.5 -110t-231.5 -36.5q-288 0 -465.5 180
t-177.5 469zM1241 817q0 183 -98.5 290t-268.5 107q-132 0 -241.5 -77.5t-171.5 -209t-62 -288.5q0 -183 100 -290t267 -107q198 0 335 162t140 413z" />
    <glyph glyph-name="ohungarumlaut" unicode="&#x151;" horiz-adv-x="1179" 
d="M823 1436l-266 -308h-180l172 308h274zM1167 1436l-297 -308h-182l203 308h276zM602 791q-117 0 -194.5 -97.5t-77.5 -242.5q0 -107 57.5 -170.5t149.5 -63.5q49 0 96.5 22t87 62.5t64 108t24.5 149.5q0 109 -56 170.5t-151 61.5zM1081 569q0 -162 -71 -299t-201 -219
t-291 -82q-137 0 -243 62.5t-162 169t-56 237.5t45 243.5t121.5 190.5t180 122t219.5 44q210 0 334 -133.5t124 -335.5z" />
    <glyph glyph-name="OE" unicode="&#x152;" horiz-adv-x="2222" 
d="M1989 0h-906l23 111q-161 -142 -375 -142q-182 0 -323.5 82.5t-219 230t-77.5 336.5q0 134 30.5 255t84 214.5t127 169t160.5 125t183 75.5t195 26q184 0 296 -63.5t161 -164.5l43 197h905l-58 -266h-620l-72 -332h563l-53 -252h-563l-72 -336h623zM1241 817
q0 183 -98.5 290t-268.5 107q-137 0 -247 -80.5t-169 -211t-59 -283.5q0 -183 100 -290t267 -107q198 0 335 162t140 413z" />
    <glyph glyph-name="oe" unicode="&#x153;" horiz-adv-x="1869" 
d="M1268 -31q-110 0 -205 44t-158 124q-158 -168 -387 -168q-137 0 -243 62.5t-162 169t-56 237.5t45 243.5t121.5 190.5t180 122t219.5 44q232 0 350 -164q75 78 172 121t198 43q208 0 325.5 -117.5t117.5 -306.5q0 -97 -29 -182h-698q-2 -6 -2 -14q2 -96 63 -158.5
t162 -62.5q79 0 137 37t88 94l209 -105q-55 -109 -170 -181.5t-278 -72.5zM1085 618h443q2 4 2 25q0 67 -47 120.5t-144 53.5t-161.5 -55.5t-92.5 -143.5zM809 559q0 109 -56 170.5t-151 61.5q-117 0 -194.5 -97.5t-77.5 -242.5q0 -107 57.5 -170.5t149.5 -63.5
q49 0 96.5 22t87 62.5t64 108t24.5 149.5z" />
    <glyph glyph-name="Racute" unicode="&#x154;" horiz-adv-x="1304" 
d="M1231 1815l-346 -261h-262l262 261h346zM831 0l-202 561h-185l-118 -561h-283l307 1452h506q197 0 306.5 -104t109.5 -269q0 -179 -100.5 -305.5t-264.5 -175.5l226 -598h-302zM496 807h217q123 0 196.5 64.5t73.5 170.5q0 76 -48 120t-142 44h-211z" />
    <glyph glyph-name="racute" unicode="&#x155;" horiz-adv-x="786" 
d="M922 1436l-344 -308h-234l246 308h332zM770 731q-58 14 -98 14q-231 0 -291 -280l-100 -465h-271l176 836q23 108 23 172h264q0 -76 -12 -125q91 131 280 131q40 0 86 -8z" />
    <glyph glyph-name="Rcommaaccent" unicode="&#x156;" horiz-adv-x="1304" 
d="M831 0l-202 561h-185l-118 -561h-283l307 1452h506q197 0 306.5 -104t109.5 -269q0 -179 -100.5 -305.5t-264.5 -175.5l226 -598h-302zM496 807h217q123 0 196.5 64.5t73.5 170.5q0 76 -48 120t-142 44h-211zM397 -227q0 60 44.5 100.5t111.5 40.5q69 0 111.5 -43.5
t42.5 -110.5q0 -128 -86 -200t-201 -72q-36 0 -60 6l23 96q10 -2 29 -2q51 0 93.5 19t59.5 61q-8 -8 -43 -8q-59 0 -92 33t-33 80z" />
    <glyph glyph-name="rcommaaccent" unicode="&#x157;" horiz-adv-x="786" 
d="M770 731q-58 14 -98 14q-231 0 -291 -280l-100 -465h-271l176 836q23 108 23 172h264q0 -76 -12 -125q91 131 280 131q40 0 86 -8zM-51 -227q0 60 44 100.5t111 40.5q69 0 111.5 -43.5t42.5 -110.5q0 -128 -86 -200t-201 -72q-35 0 -59 6l22 96q10 -2 29 -2q51 0 94 19
t60 61q-8 -8 -43 -8q-59 0 -92 33t-33 80z" />
    <glyph glyph-name="Rcaron" unicode="&#x158;" horiz-adv-x="1304" 
d="M985 1815h262l-303 -261h-280l-189 261h236l108 -132zM831 0l-202 561h-185l-118 -561h-283l307 1452h506q197 0 306.5 -104t109.5 -269q0 -179 -100.5 -305.5t-264.5 -175.5l226 -598h-302zM496 807h217q123 0 196.5 64.5t73.5 170.5q0 76 -48 120t-142 44h-211z" />
    <glyph glyph-name="rcaron" unicode="&#x159;" horiz-adv-x="786" 
d="M713 1434h235l-291 -304h-272l-162 304h211l111 -154zM770 731q-58 14 -98 14q-231 0 -291 -280l-100 -465h-271l176 836q23 108 23 172h264q0 -76 -12 -125q91 131 280 131q40 0 86 -8z" />
    <glyph glyph-name="Sacute" unicode="&#x15a;" horiz-adv-x="1228" 
d="M578 215q103 0 163 49.5t62 128.5q0 109 -123 162l-176 78q-281 125 -281 389q0 133 70 238.5t187 163t257 57.5q110 0 198.5 -29t142 -74t89.5 -103t50 -111t14 -103l-264 -45q0 21 -4 44.5t-19 56t-39.5 57.5t-71.5 43t-108 18q-94 0 -155.5 -55t-61.5 -129
q0 -109 115 -160l168 -74q158 -69 230.5 -168t72.5 -233q0 -86 -35.5 -166t-99 -142.5t-162 -100.5t-215.5 -38q-116 0 -210.5 30t-155.5 78.5t-103 112t-60 127t-18 127.5q0 29 4 43l264 45q-2 -18 -2 -43q0 -112 69.5 -191.5t207.5 -82.5zM1260 1815l-347 -261h-262
l262 261h347z" />
    <glyph glyph-name="sacute" unicode="&#x15b;" horiz-adv-x="937" 
d="M1012 1436l-344 -308h-234l246 308h332zM8 309l232 41q-2 -8 -2 -18q0 -67 43.5 -112.5t115.5 -45.5q61 0 93 29t32 71q0 64 -76 99l-112 49q-215 92 -215 283q0 137 108 235t277 98q86 0 153 -21.5t107 -54t67 -75.5t37 -81.5t11 -76.5l-236 -37q0 57 -34.5 100.5
t-112.5 43.5q-53 0 -87 -29.5t-34 -71.5q0 -60 63 -86l129 -55q224 -98 224 -295q0 -59 -25 -116.5t-71.5 -106t-123 -78t-170.5 -29.5q-96 0 -169.5 25t-114.5 62t-67 86t-34 88.5t-8 78.5z" />
    <glyph glyph-name="Scircumflex" unicode="&#x15c;" horiz-adv-x="1228" 
d="M676 1554h-256l299 261h280l193 -261h-238l-110 134zM578 215q103 0 163 49.5t62 128.5q0 109 -123 162l-176 78q-281 125 -281 389q0 133 70 238.5t187 163t257 57.5q110 0 198.5 -29t142 -74t89.5 -103t50 -111t14 -103l-264 -45q0 21 -4 44.5t-19 56t-39.5 57.5
t-71.5 43t-108 18q-94 0 -155.5 -55t-61.5 -129q0 -109 115 -160l168 -74q158 -69 230.5 -168t72.5 -233q0 -86 -35.5 -166t-99 -142.5t-162 -100.5t-215.5 -38q-116 0 -210.5 30t-155.5 78.5t-103 112t-60 127t-18 127.5q0 29 4 43l264 45q-2 -18 -2 -43
q0 -112 69.5 -191.5t207.5 -82.5z" />
    <glyph glyph-name="scircumflex" unicode="&#x15d;" horiz-adv-x="937" 
d="M438 1130h-233l295 302h270l164 -302h-213l-109 154zM8 309l232 41q-2 -8 -2 -18q0 -67 43.5 -112.5t115.5 -45.5q61 0 93 29t32 71q0 64 -76 99l-112 49q-215 92 -215 283q0 137 108 235t277 98q86 0 153 -21.5t107 -54t67 -75.5t37 -81.5t11 -76.5l-236 -37
q0 57 -34.5 100.5t-112.5 43.5q-53 0 -87 -29.5t-34 -71.5q0 -60 63 -86l129 -55q224 -98 224 -295q0 -59 -25 -116.5t-71.5 -106t-123 -78t-170.5 -29.5q-96 0 -169.5 25t-114.5 62t-67 86t-34 88.5t-8 78.5z" />
    <glyph glyph-name="Scedilla" unicode="&#x15e;" horiz-adv-x="1228" 
d="M324 -111l98 97q-81 18 -147.5 54.5t-110.5 83t-73.5 102t-42.5 110t-13 108.5q0 16 4 43l264 45q-2 -18 -2 -43q0 -120 73.5 -197t203.5 -77q103 0 163 49.5t62 128.5q0 109 -123 162l-176 78q-281 125 -281 389q0 133 70 238.5t187 163t257 57.5q110 0 198.5 -29
t142 -74t89.5 -103t50 -111t14 -103l-264 -45q0 21 -4 44.5t-19 56t-39.5 57.5t-71.5 43t-108 18q-94 0 -155.5 -55t-61.5 -129q0 -109 115 -160l168 -74q158 -69 230.5 -168t72.5 -233q0 -85 -35 -164t-97.5 -141.5t-159 -101t-210.5 -40.5l-80 -78q72 -7 114 -51t42 -104
q0 -81 -67 -143t-189 -62q-103 0 -175.5 48t-93.5 91l113 94q55 -92 150 -92q35 0 59 16t24 44q0 29 -22.5 44t-58.5 15q-15 0 -35 -4z" />
    <glyph glyph-name="scedilla" unicode="&#x15f;" horiz-adv-x="937" 
d="M446 -29l-84 -80q72 -7 114 -51t42 -104q0 -81 -67 -143t-189 -62q-103 0 -175 48t-93 91l112 94q55 -92 150 -92q36 0 60 16t24 44q0 29 -23 44t-59 15q-15 0 -35 -4l-49 102l96 95q-63 15 -111.5 45t-76.5 64t-45.5 76t-23 75t-5.5 65l232 41q-2 -10 -2 -18
q0 -67 43.5 -112.5t115.5 -45.5q61 0 93 29t32 71q0 64 -76 99l-112 49q-215 92 -215 283q0 137 108 235t277 98q86 0 153 -21.5t107 -54t67 -75.5t37 -81.5t11 -76.5l-236 -37q0 57 -34.5 100.5t-112.5 43.5q-53 0 -87 -29.5t-34 -71.5q0 -60 63 -86l129 -55
q224 -98 224 -295q0 -56 -21.5 -110.5t-63 -101t-109 -78.5t-151.5 -38z" />
    <glyph glyph-name="Scaron" unicode="&#x160;" horiz-adv-x="1228" 
d="M985 1815h262l-303 -261h-280l-189 261h236l108 -132zM578 215q103 0 163 49.5t62 128.5q0 109 -123 162l-176 78q-281 125 -281 389q0 133 70 238.5t187 163t257 57.5q110 0 198.5 -29t142 -74t89.5 -103t50 -111t14 -103l-264 -45q0 21 -4 44.5t-19 56t-39.5 57.5
t-71.5 43t-108 18q-94 0 -155.5 -55t-61.5 -129q0 -109 115 -160l168 -74q158 -69 230.5 -168t72.5 -233q0 -86 -35.5 -166t-99 -142.5t-162 -100.5t-215.5 -38q-116 0 -210.5 30t-155.5 78.5t-103 112t-60 127t-18 127.5q0 29 4 43l264 45q-2 -18 -2 -43
q0 -112 69.5 -191.5t207.5 -82.5z" />
    <glyph glyph-name="scaron" unicode="&#x161;" horiz-adv-x="937" 
d="M758 1434h235l-291 -304h-272l-162 304h211l111 -154zM8 309l232 41q-2 -8 -2 -18q0 -67 43.5 -112.5t115.5 -45.5q61 0 93 29t32 71q0 64 -76 99l-112 49q-215 92 -215 283q0 137 108 235t277 98q86 0 153 -21.5t107 -54t67 -75.5t37 -81.5t11 -76.5l-236 -37
q0 57 -34.5 100.5t-112.5 43.5q-53 0 -87 -29.5t-34 -71.5q0 -60 63 -86l129 -55q224 -98 224 -295q0 -59 -25 -116.5t-71.5 -106t-123 -78t-170.5 -29.5q-96 0 -169.5 25t-114.5 62t-67 86t-34 88.5t-8 78.5z" />
    <glyph glyph-name="Tcommaaccent" unicode="&#x162;" horiz-adv-x="1212" 
d="M1300 1184h-421l-250 -1184h-45l-113 -109q72 -7 114 -51t42 -104q0 -81 -67 -143t-189 -62q-103 0 -175.5 48t-93.5 91l113 94q55 -92 150 -92q36 0 60 16t24 44q0 29 -23 44t-59 15q-15 0 -35 -4l-49 102l112 111h-49l250 1184h-440l57 268h1145z" />
    <glyph glyph-name="tcommaaccent" unicode="&#x163;" horiz-adv-x="759" 
d="M117 -227q0 60 44 100.5t111 40.5q69 0 111.5 -43.5t42.5 -110.5q0 -128 -86 -200t-201 -72q-35 0 -59 6l22 96q10 -2 29 -2q51 0 94 19t60 61q-8 -8 -43 -8q-59 0 -92 33t-33 80zM428 -12q-132 0 -207.5 70t-75.5 190q0 36 9 80l94 438h-178l51 242h41q85 0 131.5 41.5
t64.5 121.5l31 138h246l-66 -301h197l-51 -242h-197l-88 -420q-6 -21 -6 -41q0 -86 108 -86q40 0 72 8l-47 -217q-51 -22 -129 -22z" />
    <glyph glyph-name="Tcaron" unicode="&#x164;" horiz-adv-x="1212" 
d="M987 1815h262l-303 -261h-280l-189 261h236l108 -132zM1300 1184h-421l-250 -1184h-283l250 1184h-440l57 268h1145z" />
    <glyph glyph-name="tcaron" unicode="&#x165;" horiz-adv-x="759" 
d="M1120 1544l-231 -405h-191l144 405h278zM428 -12q-132 0 -207.5 70t-75.5 190q0 36 9 80l94 438h-178l51 242h41q85 0 131.5 41.5t64.5 121.5l31 138h246l-66 -301h197l-51 -242h-197l-88 -420q-6 -21 -6 -41q0 -86 108 -86q40 0 72 8l-47 -217q-51 -22 -129 -22z" />
    <glyph glyph-name="Tbar" unicode="&#x166;" horiz-adv-x="1212" 
d="M1300 1184h-421l-91 -422h252l-45 -211h-250l-116 -551h-283l117 551h-260l45 211h258l90 422h-440l57 268h1145z" />
    <glyph glyph-name="tbar" unicode="&#x167;" horiz-adv-x="759" 
d="M518 766l-35 -164h203l-41 -194h-203l-12 -58q-6 -24 -6 -45q0 -86 108 -86q40 0 72 8l-47 -217q-51 -22 -129 -22q-132 0 -207.5 70t-75.5 190q0 36 9 80l16 80h-174l41 194h176l35 164h-178l51 242h41q85 0 131.5 41.5t64.5 121.5l31 138h246l-66 -301h197l-51 -242
h-197z" />
    <glyph glyph-name="Utilde" unicode="&#x168;" horiz-adv-x="1409" 
d="M1143 1452h287l-211 -993q-50 -236 -205 -363t-373 -127q-231 0 -370.5 126t-139.5 339q0 63 16 141l185 877h282l-186 -889q-10 -55 -10 -92q0 -106 61 -166.5t185 -60.5q110 0 181 66.5t99 195.5zM1305 1823q-22 -147 -88.5 -214t-163.5 -67q-74 0 -150 49l-10 6
q-4 2 -19.5 11.5t-21.5 12t-17.5 8t-20 7.5t-17.5 2q-27 0 -47 -22t-27 -66h-174q14 145 85.5 212t172.5 67q71 0 151 -51l7 -4q32 -22 50.5 -30.5t39.5 -8.5q61 0 75 88h175z" />
    <glyph glyph-name="utilde" unicode="&#x169;" horiz-adv-x="1159" 
d="M211 1008h270l-116 -545q-15 -67 -15 -96q0 -70 38 -111t114 -41q81 0 133 57.5t72 149.5l127 586h270l-168 -803q-23 -106 -23 -182v-23h-260q-2 12 -2 43q0 30 2 61q-38 -61 -108.5 -95t-143.5 -34q-156 0 -242.5 92t-86.5 238q0 57 20 150zM496 1139h-177
q16 148 91 219.5t178 71.5q76 0 147 -48l10 -6q60 -39 93 -39q68 0 84 90h176q-22 -150 -92 -221t-168 -71q-77 0 -150 47l-16 10q-3 1 -18.5 10.5t-22.5 13t-21 7.5t-28 4q-69 0 -86 -88z" />
    <glyph glyph-name="Umacron" unicode="&#x16a;" horiz-adv-x="1409" 
d="M1143 1452h287l-211 -993q-50 -236 -205 -363t-373 -127q-231 0 -370.5 126t-139.5 339q0 63 16 141l185 877h282l-186 -889q-10 -55 -10 -92q0 -106 61 -166.5t185 -60.5q110 0 181 66.5t99 195.5zM1210 1585h-622l41 205h624z" />
    <glyph glyph-name="umacron" unicode="&#x16b;" horiz-adv-x="1159" 
d="M211 1008h270l-116 -545q-15 -67 -15 -96q0 -70 38 -111t114 -41q81 0 133 57.5t72 149.5l127 586h270l-168 -803q-23 -106 -23 -182v-23h-260q-2 12 -2 43q0 30 2 61q-38 -61 -108.5 -95t-143.5 -34q-156 0 -242.5 92t-86.5 238q0 57 20 150zM961 1182h-578l43 198h575z
" />
    <glyph glyph-name="Ubreve" unicode="&#x16c;" horiz-adv-x="1409" 
d="M1143 1452h287l-211 -993q-50 -236 -205 -363t-373 -127q-231 0 -370.5 126t-139.5 339q0 63 16 141l185 877h282l-186 -889q-10 -55 -10 -92q0 -106 61 -166.5t185 -60.5q110 0 181 66.5t99 195.5zM899 1544q-132 0 -214.5 65.5t-82.5 176.5q0 23 4 35h197
q-2 -10 -2 -21q0 -36 28 -60t82 -24q61 0 100 30t50 75h213q-31 -113 -128.5 -195t-246.5 -82z" />
    <glyph glyph-name="ubreve" unicode="&#x16d;" horiz-adv-x="1159" 
d="M211 1008h270l-116 -545q-15 -67 -15 -96q0 -70 38 -111t114 -41q81 0 133 57.5t72 149.5l127 586h270l-168 -803q-23 -106 -23 -182v-23h-260q-2 12 -2 43q0 30 2 61q-38 -61 -108.5 -95t-143.5 -34q-156 0 -242.5 92t-86.5 238q0 57 20 150zM678 1124q-136 0 -210.5 75
t-74.5 185q0 20 4 52h178q-2 -8 -2 -17q0 -44 28.5 -75t90.5 -31q69 0 109 36.5t55 86.5h201q-31 -134 -127.5 -223t-251.5 -89z" />
    <glyph glyph-name="Uring" unicode="&#x16e;" horiz-adv-x="1409" 
d="M1143 1452h287l-211 -993q-50 -236 -205 -363t-373 -127q-231 0 -370.5 126t-139.5 339q0 63 16 141l185 877h282l-186 -889q-10 -55 -10 -92q0 -106 61 -166.5t185 -60.5q110 0 181 66.5t99 195.5zM915 1851q-41 0 -73.5 -31t-32.5 -77q0 -38 25 -61t65 -23
q44 0 76.5 29.5t32.5 76.5q0 38 -26.5 62t-66.5 24zM641 1729q0 119 86.5 201.5t204.5 82.5q105 0 176.5 -67t71.5 -166q0 -119 -89.5 -202t-203.5 -83q-103 0 -174.5 67.5t-71.5 166.5z" />
    <glyph glyph-name="uring" unicode="&#x16f;" horiz-adv-x="1159" 
d="M715 1554q92 0 154.5 -57.5t62.5 -146.5q0 -104 -76.5 -176t-177.5 -72q-91 0 -153 59t-62 146q0 106 76.5 176.5t175.5 70.5zM610 1319q0 -33 22 -53.5t56 -20.5q37 0 63.5 25.5t26.5 64.5q0 32 -21 53t-55 21q-36 0 -64 -25.5t-28 -64.5zM211 1008h270l-116 -545
q-15 -67 -15 -96q0 -70 38 -111t114 -41q81 0 133 57.5t72 149.5l127 586h270l-168 -803q-23 -106 -23 -182v-23h-260q-2 12 -2 43q0 30 2 61q-38 -61 -108.5 -95t-143.5 -34q-156 0 -242.5 92t-86.5 238q0 57 20 150z" />
    <glyph glyph-name="Uhungarumlaut" unicode="&#x170;" horiz-adv-x="1409" 
d="M1047 1815l-248 -261h-181l160 261h269zM1401 1815l-275 -261h-184l188 261h271zM1143 1452h287l-211 -993q-50 -236 -205 -363t-373 -127q-231 0 -370.5 126t-139.5 339q0 63 16 141l185 877h282l-186 -889q-10 -55 -10 -92q0 -106 61 -166.5t185 -60.5q110 0 181 66.5
t99 195.5z" />
    <glyph glyph-name="uhungarumlaut" unicode="&#x171;" horiz-adv-x="1159" 
d="M211 1008h270l-116 -545q-15 -67 -15 -96q0 -70 38 -111t114 -41q81 0 133 57.5t72 149.5l127 586h270l-168 -803q-23 -106 -23 -182v-23h-260q-2 12 -2 43q0 30 2 61q-38 -61 -108.5 -95t-143.5 -34q-156 0 -242.5 92t-86.5 238q0 57 20 150zM834 1436l-267 -308h-180
l172 308h275zM1178 1436l-297 -308h-183l203 308h277z" />
    <glyph glyph-name="Uogonek" unicode="&#x172;" horiz-adv-x="1409" 
d="M1143 1452h287l-211 -993q-37 -177 -134 -292.5t-239 -164.5q-51 -18 -96 -46t-80 -71t-35 -88q0 -39 27 -60.5t69 -23.5q33 0 49 4l-32 -161q-41 -13 -91 -13q-95 0 -160 55t-65 146q0 140 121 231q-195 23 -308.5 145t-113.5 314q0 63 16 141l185 877h282l-186 -889
q-10 -55 -10 -92q0 -106 61 -166.5t185 -60.5q110 0 181 66.5t99 195.5z" />
    <glyph glyph-name="uogonek" unicode="&#x173;" horiz-adv-x="1159" 
d="M211 1008h270l-123 -574q-8 -33 -8 -67q0 -70 38 -111t114 -41q81 0 133 57.5t72 149.5l127 586h270l-168 -803q-23 -106 -23 -182v-23q-81 -32 -142.5 -85t-61.5 -118q0 -39 27 -60.5t69 -23.5q33 0 49 4l-33 -161q-41 -13 -90 -13q-95 0 -160 55t-65 146q0 159 160 256
h-13q-2 20 -2 43q0 28 2 61q-38 -61 -108.5 -95t-143.5 -34q-156 0 -242.5 92t-86.5 238q0 53 12 111z" />
    <glyph glyph-name="Wcircumflex" unicode="&#x174;" horiz-adv-x="2082" 
d="M1092 1554h-256l299 261h280l193 -261h-238l-110 134zM1057 1452h293l110 -1008l455 1008h301l-688 -1452h-285l-113 1034l-524 -1034h-297l-96 1452h283l55 -1003z" />
    <glyph glyph-name="wcircumflex" unicode="&#x175;" horiz-adv-x="1683" 
d="M784 1130h-233l295 302h270l164 -302h-213l-109 154zM772 1008h287l78 -646l309 646h283l-519 -1008h-268l-86 686l-356 -686h-279l-98 1008h264l51 -643z" />
    <glyph glyph-name="Ycircumflex" unicode="&#x176;" horiz-adv-x="1302" 
d="M514 612l-321 840h299l206 -569l404 569h340l-645 -844l-129 -608h-283zM664 1554h-256l299 261h280l193 -261h-238l-111 134z" />
    <glyph glyph-name="ycircumflex" unicode="&#x177;" horiz-adv-x="1077" 
d="M467 1130h-234l295 302h271l164 -302h-213l-109 154zM244 -389h-301l348 549l-221 848h286l136 -566l339 566h306z" />
    <glyph glyph-name="Ydieresis" unicode="&#x178;" horiz-adv-x="1302" 
d="M434 1669q0 64 48 114t116 50q59 0 96 -38t37 -93q0 -70 -48.5 -117t-113.5 -47q-60 0 -97.5 37t-37.5 94zM903 1669q0 64 48 114t116 50q59 0 96 -38t37 -93q0 -70 -48.5 -117t-113.5 -47q-60 0 -97.5 37t-37.5 94zM514 612l-321 840h299l206 -569l404 569h340
l-645 -844l-129 -608h-283z" />
    <glyph glyph-name="Zacute" unicode="&#x179;" horiz-adv-x="1290" 
d="M1257 1815l-346 -261h-262l262 261h346zM1071 0h-1114l57 272l918 912h-705l58 268h1085l-55 -262l-932 -922h745z" />
    <glyph glyph-name="zacute" unicode="&#x17a;" horiz-adv-x="1009" 
d="M1028 1436l-344 -308h-233l245 308h332zM795 0h-836l51 242l580 530h-451l49 236h809l-49 -230l-598 -542h494z" />
    <glyph glyph-name="Zdotaccent" unicode="&#x17b;" horiz-adv-x="1290" 
d="M1071 0h-1114l57 272l918 912h-705l58 268h1085l-55 -262l-932 -922h745zM688 1694q0 69 54 122.5t128 53.5q65 0 107.5 -42t42.5 -102q0 -76 -53.5 -129t-126.5 -53q-66 0 -109 43.5t-43 106.5z" />
    <glyph glyph-name="zdotaccent" unicode="&#x17c;" horiz-adv-x="1009" 
d="M795 0h-836l51 242l580 530h-451l49 236h809l-49 -230l-598 -542h494zM467 1268q0 71 52.5 125.5t127.5 54.5q64 0 106 -42t42 -101q0 -77 -53 -131t-126 -54q-65 0 -107 43.5t-42 104.5z" />
    <glyph glyph-name="Zcaron" unicode="&#x17d;" horiz-adv-x="1290" 
d="M1022 1815h262l-303 -261h-281l-188 261h236l108 -132zM1071 0h-1114l57 272l918 912h-705l58 268h1085l-55 -262l-932 -922h745z" />
    <glyph glyph-name="zcaron" unicode="&#x17e;" horiz-adv-x="1009" 
d="M788 1434h236l-291 -304h-272l-162 304h211l111 -154zM795 0h-836l51 242l580 530h-451l49 236h809l-49 -230l-598 -542h494z" />
    <glyph glyph-name="uni018F" unicode="&#x18f;" horiz-adv-x="1597" 
d="M862 1483q301 0 488.5 -180t187.5 -467q0 -160 -44 -300t-120.5 -242.5t-178 -176.5t-218.5 -111t-240 -37q-184 0 -333 81.5t-234.5 229t-85.5 332.5q0 97 14 166h1149q2 12 2 41q0 188 -115 291.5t-294 103.5q-149 0 -261 -74t-163 -177l-238 118q82 168 266.5 285
t417.5 117zM758 225q146 0 266.5 81.5t179.5 238.5h-829q6 -138 110 -229t273 -91z" />
    <glyph glyph-name="florin" unicode="&#x192;" horiz-adv-x="886" 
d="M164 55l145 721h-200v230h247l39 188q16 82 55 145.5t92 101t112.5 56.5t123.5 19q66 0 100 -5.5t83 -21.5v-236q-69 15 -123 15q-35 0 -66 -10t-64.5 -46.5t-45.5 -97.5l-23 -108h240v-230h-287l-162 -803q-16 -81 -55 -144.5t-92 -101t-113 -56.5t-123 -19
q-66 0 -102.5 6.5t-85.5 22.5v233q65 -14 133 -14q141 0 172 155z" />
    <glyph glyph-name="uni01B5" unicode="&#x1b5;" horiz-adv-x="1290" 
d="M1071 0h-1114l57 272l363 361h-234l50 231h417l322 320h-705l58 268h1085l-55 -262l-330 -326h260l-51 -231h-442l-369 -365h745z" />
    <glyph glyph-name="uni01B6" unicode="&#x1b6;" horiz-adv-x="1009" 
d="M70 412l41 194h321l184 172h-477l49 230h809l-45 -211l-204 -191h163l-43 -194h-331l-193 -181h500l-49 -231h-836l43 205l221 207h-153z" />
    <glyph glyph-name="Aringacute" unicode="&#x1fa;" horiz-adv-x="1445" 
d="M844 1135l-303 -545h379zM1421 2128l-346 -260h-262l262 260h346zM922 1645q-41 0 -74 -31.5t-33 -77.5q0 -38 25 -61t65 -23q43 0 76 30t33 77q0 38 -26 62t-66 24zM647 1522q0 119 86.5 201.5t204.5 82.5q105 0 176.5 -67t71.5 -166q0 -130 -107 -217l217 -1356h-292
l-48 332h-561l-186 -332h-318l805 1376q-49 62 -49 146z" />
    <glyph glyph-name="aringacute" unicode="&#x1fb;" horiz-adv-x="1208" 
d="M594 788q-63 0 -114.5 -31t-84 -81.5t-50 -111.5t-17.5 -124q0 -104 52.5 -163.5t143.5 -59.5q109 0 185.5 97.5t76.5 258.5q0 100 -51 157.5t-141 57.5zM889 1008h264l-166 -787q-18 -89 -18 -182q0 -21 2 -39h-252q-2 16 -2 47q0 26 4 76q-41 -60 -109 -100.5
t-161 -40.5q-181 0 -287.5 128t-106.5 320q0 256 148 429t366 173q124 0 195 -43t98 -96zM1217 1939l-345 -307h-233l246 307h332zM725 1556q92 0 154.5 -57.5t62.5 -146.5q0 -104 -76.5 -176t-177.5 -72q-91 0 -153 59t-62 146q0 106 76.5 176.5t175.5 70.5zM621 1321
q0 -33 21.5 -53.5t55.5 -20.5q37 0 63.5 25.5t26.5 64.5q0 33 -21 53.5t-54 20.5q-36 0 -64 -25.5t-28 -64.5z" />
    <glyph glyph-name="AEacute" unicode="&#x1fc;" horiz-adv-x="2146" 
d="M1817 1815l-347 -261h-262l262 261h347zM1346 266h622l-57 -266h-905l71 338h-563l-287 -338h-360l1268 1452h1083l-55 -266h-623l-70 -332h564l-54 -252h-563zM717 575h411l138 644z" />
    <glyph glyph-name="aeacute" unicode="&#x1fd;" horiz-adv-x="1738" 
d="M1350 1436l-344 -308h-234l246 308h332zM631 602q45 1 68.5 25t23.5 65q0 52 -46.5 89.5t-131.5 37.5q-75 0 -129 -40.5t-72 -102.5l-225 74q36 119 154.5 203.5t287.5 84.5q227 0 328 -123q138 123 323 123q206 0 323.5 -117.5t117.5 -306.5q0 -97 -29 -182h-694
q-2 -6 -2 -14q2 -96 62.5 -158.5t162.5 -62.5q79 0 137 37t86 94l207 -105q-55 -109 -170 -181.5t-278 -72.5q-116 0 -212.5 48.5t-156.5 138.5q-61 -80 -155.5 -131.5t-219.5 -51.5q-178 0 -277.5 84.5t-99.5 206.5q0 145 97.5 233.5t253.5 94.5zM283 285q0 -51 38 -81
t97 -30q82 0 156.5 58.5t93.5 173.5l4 26l-242 -10q-62 -3 -104.5 -38t-42.5 -99zM1208 817q-98 0 -161.5 -55t-90.5 -144h439q2 4 2 25q0 67 -47 120.5t-142 53.5z" />
    <glyph glyph-name="Oslashacute" unicode="&#x1fe;" horiz-adv-x="1593" 
d="M1413 1815l-346 -261h-262l262 261h346zM111 618q0 134 30.5 255t84 214.5t127 169t160.5 125t183 75.5t195 26q215 0 371 -103l153 172l164 -143l-160 -180q113 -159 113 -395q0 -161 -43 -301t-117.5 -242t-173.5 -175.5t-212.5 -110t-231.5 -36.5q-208 0 -365 99
l-147 -166l-168 143l155 174q-118 165 -118 399zM399 639q0 -107 35 -188l637 714q-87 49 -197 49q-132 0 -241.5 -77.5t-171.5 -209t-62 -288.5zM1241 817q0 97 -31 176l-628 -708q76 -43 184 -43q198 0 335 162t140 413z" />
    <glyph glyph-name="oslashacute" unicode="&#x1ff;" horiz-adv-x="1179" 
d="M1108 1436l-344 -308h-234l246 308h332zM86 -70l-113 115l148 141q-64 116 -64 252q0 131 45 243.5t121.5 190.5t180 122t219.5 44q169 0 290 -94l142 137l112 -116l-149 -144q63 -111 63 -252q0 -162 -71 -299t-201 -219t-291 -82q-170 0 -291 97zM809 559q0 21 -4 57
l-385 -366q47 -33 117 -33q49 0 96.5 22t87 62.5t64 108t24.5 149.5zM602 791q-117 0 -194.5 -97.5t-77.5 -242.5q0 -36 6 -60l383 367q-50 33 -117 33z" />
    <glyph glyph-name="Scommaaccent" unicode="&#x218;" horiz-adv-x="1228" 
d="M578 215q103 0 163 49.5t62 128.5q0 109 -123 162l-176 78q-281 125 -281 389q0 133 70 238.5t187 163t257 57.5q110 0 198.5 -29t142 -74t89.5 -103t50 -111t14 -103l-264 -45q0 21 -4 44.5t-19 56t-39.5 57.5t-71.5 43t-108 18q-94 0 -155.5 -55t-61.5 -129
q0 -109 115 -160l168 -74q158 -69 230.5 -168t72.5 -233q0 -86 -35.5 -166t-99 -142.5t-162 -100.5t-215.5 -38q-116 0 -210.5 30t-155.5 78.5t-103 112t-60 127t-18 127.5q0 29 4 43l264 45q-2 -18 -2 -43q0 -112 69.5 -191.5t207.5 -82.5zM313 -227q0 60 44.5 100.5
t111.5 40.5q69 0 111.5 -43.5t42.5 -110.5q0 -128 -86 -200t-201 -72q-36 0 -60 6l23 96q10 -2 29 -2q51 0 93.5 19t59.5 61q-8 -8 -43 -8q-59 0 -92 33t-33 80z" />
    <glyph glyph-name="scommaaccent" unicode="&#x219;" horiz-adv-x="937" 
d="M8 309l232 41q-2 -8 -2 -18q0 -67 43.5 -112.5t115.5 -45.5q61 0 93 29t32 71q0 64 -76 99l-112 49q-215 92 -215 283q0 137 108 235t277 98q86 0 153 -21.5t107 -54t67 -75.5t37 -81.5t11 -76.5l-236 -37q0 57 -34.5 100.5t-112.5 43.5q-53 0 -87 -29.5t-34 -71.5
q0 -60 63 -86l129 -55q224 -98 224 -295q0 -59 -25 -116.5t-71.5 -106t-123 -78t-170.5 -29.5q-96 0 -169.5 25t-114.5 62t-67 86t-34 88.5t-8 78.5zM160 -227q0 60 44 100.5t111 40.5q69 0 111.5 -43.5t42.5 -110.5q0 -128 -86 -200t-201 -72q-35 0 -59 6l22 96
q10 -2 29 -2q51 0 94 19t60 61q-8 -8 -43 -8q-59 0 -92 33t-33 80z" />
    <glyph glyph-name="uni021A" unicode="&#x21a;" horiz-adv-x="1212" 
d="M1300 1184h-421l-250 -1184h-283l250 1184h-440l57 268h1145zM287 -227q0 60 44 100.5t111 40.5q69 0 111.5 -43.5t42.5 -110.5q0 -128 -86 -200t-201 -72q-35 0 -59 6l22 96q10 -2 29 -2q51 0 94 19t60 61q-8 -8 -43 -8q-59 0 -92 33t-33 80z" />
    <glyph glyph-name="uni021B" unicode="&#x21b;" horiz-adv-x="759" 
d="M428 -12h-8l-101 -97q72 -7 114 -51t42 -104q0 -81 -67 -143t-189 -62q-103 0 -175 48t-93 91l112 94q55 -92 150 -92q36 0 60 16t24 44q0 29 -23 44t-59 15q-15 0 -35 -4l-49 102l137 134q-123 68 -123 225q0 36 9 80l94 438h-178l51 242h41q85 0 131.5 41.5t64.5 121.5
l31 138h246l-66 -301h197l-51 -242h-197l-88 -420q-6 -21 -6 -41q0 -86 108 -86q40 0 72 8l-47 -217q-51 -22 -129 -22z" />
    <glyph glyph-name="dotlessj" unicode="&#x237;" horiz-adv-x="544" 
d="M-8 -66l231 1074h271l-242 -1135q-30 -143 -119.5 -218t-218.5 -75q-64 0 -112 15t-70 30l45 213l5 -2q5 -2 13.5 -4.5t19.5 -5t26 -4.5t30 -2q102 3 121 114z" />
    <glyph glyph-name="uni0259" unicode="&#x259;" horiz-adv-x="1144" 
d="M41 408q0 92 18 159h732v11q-5 108 -64.5 169.5t-167.5 61.5q-82 0 -147 -37t-101 -100l-202 104q63 115 184 188.5t285 73.5q213 0 338.5 -130.5t125.5 -332.5q0 -143 -44 -260t-119.5 -192t-173.5 -115.5t-207 -40.5q-206 0 -331.5 125t-125.5 316zM768 387h-475
q-2 -4 -2 -10q0 -76 54.5 -133.5t166.5 -57.5q86 0 154.5 51.5t101.5 149.5z" />
    <glyph glyph-name="circumflex" unicode="&#x2c6;" horiz-adv-x="790" 
d="M168 1130h-234l295 302h271l164 -302h-213l-109 154z" />
    <glyph glyph-name="caron" unicode="&#x2c7;" horiz-adv-x="790" 
d="M494 1434h235l-291 -304h-272l-162 304h211l111 -154z" />
    <glyph glyph-name="uni02C9" unicode="&#x2c9;" horiz-adv-x="649" 
d="M530 1182h-577l43 198h575z" />
    <glyph glyph-name="breve" unicode="&#x2d8;" horiz-adv-x="729" 
d="M444 1124q-136 0 -210 75t-74 185q0 20 4 52h178q-2 -8 -2 -17q0 -44 28.5 -75t90.5 -31q69 0 109 36.5t55 86.5h200q-31 -134 -127.5 -223t-251.5 -89z" />
    <glyph glyph-name="dotaccent" unicode="&#x2d9;" horiz-adv-x="376" 
d="M-39 1268q0 71 52.5 125.5t127.5 54.5q64 0 106 -42t42 -101q0 -77 -52.5 -131t-125.5 -54q-65 0 -107.5 43.5t-42.5 104.5z" />
    <glyph glyph-name="ring" unicode="&#x2da;" horiz-adv-x="540" 
d="M227 1554q92 0 154.5 -57.5t62.5 -146.5q0 -104 -76.5 -176t-177.5 -72q-91 0 -153 59t-62 146q0 106 76.5 176.5t175.5 70.5zM123 1319q0 -33 22 -53.5t56 -20.5q37 0 63.5 25.5t26.5 64.5q0 32 -21 53t-55 21q-36 0 -64 -25.5t-28 -64.5z" />
    <glyph glyph-name="ogonek" unicode="&#x2db;" horiz-adv-x="421" 
d="M164 -457q-95 0 -160 55t-65 146q0 64 26 118t69.5 90.5t85 59.5t87.5 39l139 -51q-82 -32 -143.5 -85t-61.5 -118q0 -39 27.5 -60.5t69.5 -23.5q33 0 49 4l-33 -161q-41 -13 -90 -13z" />
    <glyph glyph-name="tilde" unicode="&#x2dc;" horiz-adv-x="763" 
d="M272 1139h-176q16 148 91 219.5t178 71.5q76 0 147 -48l10 -6q2 -1 10 -6.5t10 -6.5t9.5 -5.5t10.5 -6t9.5 -4.5t10.5 -4.5t9.5 -3t11 -2t11.5 -0.5q68 0 84 90h176q-22 -150 -92 -221t-168 -71q-76 0 -149 47l-16 10q-4 2 -15 8.5t-17.5 10t-16.5 8t-20.5 6.5t-21.5 2
q-69 0 -86 -88z" />
    <glyph glyph-name="hungarumlaut" unicode="&#x2dd;" horiz-adv-x="774" 
d="M377 1436l-266 -308h-181l172 308h275zM721 1436l-297 -308h-182l202 308h277z" />
    <glyph glyph-name="uni0394" unicode="&#x394;" horiz-adv-x="1570" 
d="M1006 262l-318 883l-315 -883h633zM-18 0l553 1452h307l555 -1452h-1415z" />
    <glyph glyph-name="uni03A9" unicode="&#x3a9;" horiz-adv-x="1753" 
d="M874 1219q-80 0 -154 -27.5t-132.5 -78t-93.5 -130.5t-35 -176q0 -164 100 -276t240 -142v-389h-619v258h357q-160 64 -265.5 213.5t-105.5 353.5q0 197 99.5 349.5t259.5 231.5t349 79q141 0 269 -46.5t226 -130.5t156 -209.5t58 -273.5q0 -204 -106 -353.5t-267 -213.5
h357v-258h-619v389q67 14 127.5 49t109 87t77 125t28.5 157q0 96 -35 176t-94 130.5t-133 78t-154 27.5z" />
    <glyph glyph-name="uni03BC" unicode="&#x3bc;" horiz-adv-x="1275" 
d="M147 -389v1397h273v-582q0 -90 46.5 -146.5t137.5 -56.5q89 0 140 55t51 144v586h272v-826q0 -90 10 -182h-260q-8 40 -8 109q-38 -67 -115.5 -101.5t-163.5 -34.5q-52 0 -110 21v-383h-273z" />
    <glyph glyph-name="pi" unicode="&#x3c0;" horiz-adv-x="1435" 
d="M1114 774v-461q0 -51 28 -73.5t72 -22.5q4 0 64 6v-213q-63 -26 -143 -26q-143 0 -217 79t-74 213v498h-273v-774h-272v774h-170v234h1145v-234h-160z" />
    <glyph glyph-name="Wgrave" unicode="&#x1e80;" horiz-adv-x="2082" 
d="M1100 1554l-238 261h318l155 -261h-235zM1057 1452h293l110 -1008l455 1008h301l-688 -1452h-285l-113 1034l-524 -1034h-297l-96 1452h283l55 -1003z" />
    <glyph glyph-name="wgrave" unicode="&#x1e81;" horiz-adv-x="1683" 
d="M807 1128l-211 308h303l119 -308h-211zM772 1008h287l78 -646l309 646h283l-519 -1008h-268l-86 686l-356 -686h-279l-98 1008h264l51 -643z" />
    <glyph glyph-name="Wacute" unicode="&#x1e82;" horiz-adv-x="2082" 
d="M1667 1815l-346 -261h-262l262 261h346zM1057 1452h293l110 -1008l455 1008h301l-688 -1452h-285l-113 1034l-524 -1034h-297l-96 1452h283l55 -1003z" />
    <glyph glyph-name="wacute" unicode="&#x1e83;" horiz-adv-x="1683" 
d="M1382 1436l-344 -308h-233l246 308h331zM772 1008h287l78 -646l309 646h283l-519 -1008h-268l-86 686l-356 -686h-279l-98 1008h264l51 -643z" />
    <glyph glyph-name="Wdieresis" unicode="&#x1e84;" horiz-adv-x="2082" 
d="M764 1669q0 64 48 114t116 50q59 0 96 -38t37 -93q0 -70 -48.5 -117t-113.5 -47q-60 0 -97.5 37t-37.5 94zM1397 1669q0 64 48 114t116 50q59 0 96 -38t37 -93q0 -70 -48.5 -117t-113.5 -47q-60 0 -97.5 37t-37.5 94zM1057 1452h293l110 -1008l455 1008h301l-688 -1452
h-285l-113 1034l-524 -1034h-297l-96 1452h283l55 -1003z" />
    <glyph glyph-name="wdieresis" unicode="&#x1e85;" horiz-adv-x="1683" 
d="M547 1272q0 63 47.5 111.5t112.5 48.5q57 0 94 -39.5t37 -94.5q0 -65 -50 -110t-112 -45q-56 0 -92.5 37.5t-36.5 91.5zM1038 1272q0 63 47.5 111.5t112.5 48.5q57 0 94 -39.5t37 -94.5q0 -65 -50 -110t-112 -45q-56 0 -92.5 37.5t-36.5 91.5zM772 1008h287l78 -646
l309 646h283l-519 -1008h-268l-86 686l-356 -686h-279l-98 1008h264l51 -643z" />
    <glyph glyph-name="uni1E8A" unicode="&#x1e8a;" horiz-adv-x="1323" 
d="M643 477l-401 -477h-355l637 733l-329 719h321l213 -481l406 481h352l-639 -737l332 -715h-326zM672 1694q0 69 54 122.5t128 53.5q65 0 107.5 -42t42.5 -102q0 -76 -54 -129t-127 -53q-66 0 -108.5 43.5t-42.5 106.5z" />
    <glyph glyph-name="uni1E8B" unicode="&#x1e8b;" horiz-adv-x="1091" 
d="M494 303l-269 -303h-327l477 516l-262 492h297l145 -295l258 295h332l-471 -508q19 -33 135.5 -250t134.5 -250h-299zM481 1268q0 71 53 125.5t128 54.5q64 0 105.5 -42t41.5 -101q0 -77 -52.5 -131t-125.5 -54q-65 0 -107.5 43.5t-42.5 104.5z" />
    <glyph glyph-name="Ygrave" unicode="&#x1ef2;" horiz-adv-x="1302" 
d="M514 612l-321 840h299l206 -569l404 569h340l-645 -844l-129 -608h-283zM713 1554l-238 261h318l155 -261h-235z" />
    <glyph glyph-name="ygrave" unicode="&#x1ef3;" horiz-adv-x="1077" 
d="M244 -389h-301l348 549l-221 848h286l136 -566l339 566h306zM524 1128l-211 308h303l119 -308h-211z" />
    <glyph glyph-name="uni2007" unicode="&#x2007;" horiz-adv-x="1280" 
 />
    <glyph glyph-name="uni2008" unicode="&#x2008;" horiz-adv-x="563" 
 />
    <glyph glyph-name="uni200B" unicode="&#x200b;" horiz-adv-x="0" 
 />
    <glyph glyph-name="endash" unicode="&#x2013;" horiz-adv-x="1314" 
d="M1159 489h-1057l50 236h1056z" />
    <glyph glyph-name="emdash" unicode="&#x2014;" horiz-adv-x="2183" 
d="M2028 489h-1926l50 236h1925z" />
    <glyph glyph-name="quoteleft" unicode="&#x2018;" horiz-adv-x="534" 
d="M524 1051q0 -71 -50.5 -120.5t-125.5 -49.5q-76 0 -120 49.5t-44 124.5q0 159 122 281t288 130l-27 -127q-72 -8 -135.5 -56.5t-81.5 -115.5q9 9 43 9q60 0 95.5 -36.5t35.5 -88.5z" />
    <glyph glyph-name="quoteright" unicode="&#x2019;" horiz-adv-x="536" 
d="M254 1296q0 71 50.5 120.5t125.5 49.5t119.5 -50.5t44.5 -123.5q0 -161 -122 -283t-288 -128l27 125q68 6 134.5 55.5t82.5 116.5q-9 -9 -43 -9q-61 0 -96 37t-35 90z" />
    <glyph glyph-name="quotesinglbase" unicode="&#x201a;" horiz-adv-x="538" 
d="M4 119q0 71 50.5 120.5t125.5 49.5q76 0 120 -49.5t44 -124.5q0 -161 -122 -283.5t-288 -128.5l27 125q69 8 135 57t82 115q-8 -8 -43 -8q-61 0 -96 37t-35 90z" />
    <glyph glyph-name="quotedblleft" unicode="&#x201c;" horiz-adv-x="935" 
d="M926 1057q0 -71 -49 -119.5t-125 -48.5q-74 0 -118 49.5t-44 122.5q0 158 120 277t285 128l-26 -125q-71 -8 -134 -55.5t-81 -111.5q6 6 43 6q59 0 94 -35.5t35 -87.5zM520 1057q0 -71 -49.5 -119.5t-124.5 -48.5q-74 0 -118 49.5t-44 122.5q0 157 120 276.5t284 128.5
l-27 -125q-70 -8 -132.5 -55.5t-80.5 -111.5q6 6 41 6q61 0 96 -35.5t35 -87.5z" />
    <glyph glyph-name="quotedblright" unicode="&#x201d;" horiz-adv-x="946" 
d="M254 1296q0 69 50.5 117.5t125.5 48.5q74 0 117 -49t43 -121q0 -105 -55 -197t-148 -148t-201 -60l27 123q67 8 132 56t83 114q-9 -9 -43 -9q-60 0 -95.5 36t-35.5 89zM666 1296q0 70 50 118t124 48t117.5 -49t43.5 -121q0 -159 -120 -279t-285 -126l27 123q67 8 132 56
t83 114q-9 -9 -43 -9q-59 0 -94 36t-35 89z" />
    <glyph glyph-name="quotedblbase" unicode="&#x201e;" horiz-adv-x="935" 
d="M4 117q0 71 50.5 119.5t125.5 48.5q74 0 117 -49.5t43 -122.5q0 -158 -119.5 -278t-283.5 -128l26 125q66 6 131.5 54.5t83.5 113.5q-6 -6 -43 -6q-59 0 -95 36t-36 87zM406 117q0 71 49.5 119.5t124.5 48.5q74 0 117.5 -49.5t43.5 -122.5q0 -158 -120 -278t-283 -128
l27 125q66 6 131 54.5t82 113.5q-6 -6 -41 -6q-61 0 -96 35.5t-35 87.5z" />
    <glyph glyph-name="dagger" unicode="&#x2020;" horiz-adv-x="870" 
d="M500 1452h229l-63 -291h252l-46 -213h-251l-132 -614h-227l131 614h-252l45 213h252z" />
    <glyph glyph-name="daggerdbl" unicode="&#x2021;" horiz-adv-x="940" 
d="M455 0h-228l62 295h-250l43 211h252l94 440h-252l45 211h252l62 295h229l-64 -295h252l-45 -211h-252l-94 -440h252l-45 -211h-250z" />
    <glyph glyph-name="bullet" unicode="&#x2022;" horiz-adv-x="1128" 
d="M139 612q0 177 125.5 302.5t300.5 125.5q177 0 301.5 -125.5t124.5 -302.5q0 -175 -125 -301.5t-301 -126.5q-114 0 -212.5 58t-156 156.5t-57.5 213.5z" />
    <glyph glyph-name="ellipsis" unicode="&#x2026;" horiz-adv-x="1740" 
d="M154 -23q-67 0 -109.5 43.5t-42.5 106.5q0 73 55 127.5t131 54.5q68 0 110 -43t42 -106q0 -74 -55 -128.5t-131 -54.5zM762 -23q-68 0 -111 43.5t-43 106.5q0 73 55.5 127.5t131.5 54.5q69 0 111 -43t42 -106q0 -74 -55 -128.5t-131 -54.5zM1370 -23q-67 0 -109 43.5
t-42 106.5q0 73 55 127.5t131 54.5q67 0 109 -43t42 -106q0 -74 -55 -128.5t-131 -54.5z" />
    <glyph glyph-name="perthousand" unicode="&#x2030;" horiz-adv-x="2187" 
d="M465 877q59 0 104 44.5t45 118.5q0 55 -31.5 88t-86.5 33q-57 0 -102.5 -46t-45.5 -118q0 -54 31.5 -87t85.5 -33zM449 684q-131 0 -217.5 87t-86.5 214q0 156 110.5 262.5t258.5 106.5q129 0 216 -88t87 -215q0 -104 -54 -189.5t-138 -131.5t-176 -46zM1251 176
q59 0 104.5 45t45.5 119q0 55 -32 88t-87 33q-57 0 -102 -46t-45 -118q0 -54 31 -87.5t85 -33.5zM1718 176q59 0 104.5 45t45.5 119q0 55 -32 88t-87 33q-57 0 -102 -46t-45 -118q0 -54 31 -87.5t85 -33.5zM1599 1329l-1214 -1329h-248l1215 1329h247zM1702 -16
q-139 0 -223 94q-108 -94 -244 -94q-131 0 -217 87t-86 214q0 156 110 262t258 106q135 0 222 -94q108 94 245 94q130 0 217 -88t87 -215q0 -78 -32 -147.5t-83.5 -116.5t-118 -74.5t-135.5 -27.5z" />
    <glyph glyph-name="guilsinglleft" unicode="&#x2039;" horiz-adv-x="686" 
d="M514 207h-246l-205 403l361 398h272l-379 -414z" />
    <glyph glyph-name="guilsinglright" unicode="&#x203a;" horiz-adv-x="686" 
d="M170 1008h246l207 -406l-363 -395h-270l377 414z" />
    <glyph glyph-name="uni2042" unicode="&#x2042;" horiz-adv-x="1673" 
d="M1069 1452l-43 -225l219 67l27 -178l-223 -65l102 -177l-160 -106l-106 186l-172 -188l-131 111l174 184l-199 67l82 168l195 -69l40 225h195zM518 657l-43 -225l219 68l27 -178l-223 -66l102 -176l-160 -107l-106 187l-172 -189l-131 111l174 184l-199 68l82 168
l195 -70l41 225h194zM1354 657l-43 -225l219 68l26 -178l-223 -66l103 -176l-160 -107l-107 187l-172 -189l-131 111l174 184l-198 68l82 168l194 -70l41 225h195z" />
    <glyph glyph-name="fraction" unicode="&#x2044;" horiz-adv-x="405" 
d="M936 1329l-1215 -1329h-247l1214 1329h248z" />
    <glyph glyph-name="uni2051" unicode="&#x2051;" horiz-adv-x="901" 
d="M721 1452l-43 -225l219 67l27 -178l-224 -65l103 -177l-160 -106l-106 186l-172 -188l-132 111l175 184l-199 67l82 168l194 -69l41 225h195zM543 664l-43 -226l219 68l26 -178l-223 -66l103 -176l-160 -106l-107 186l-172 -189l-131 111l174 184l-198 68l82 168l194 -70
l41 226h195z" />
    <glyph glyph-name="uni2070" unicode="&#x2070;" horiz-adv-x="811" 
d="M156 981q0 65 13 130.5t43.5 130.5t74 114.5t110.5 80.5t148 31q152 0 230.5 -84t78.5 -213q0 -68 -13.5 -135.5t-44 -132t-74.5 -113t-110 -78.5t-145 -30q-140 0 -225.5 80.5t-85.5 218.5zM360 985q0 -55 26 -91t87 -36q45 0 80.5 31.5t55.5 80t30 100t10 99.5
q0 125 -112 125q-47 0 -83.5 -34t-55.5 -85t-28.5 -100.5t-9.5 -89.5z" />
    <glyph glyph-name="uni2074" unicode="&#x2074;" horiz-adv-x="780" 
d="M102 848l43 213l416 391h227l-94 -444h125l-35 -160h-125q0 -2 -30 -150h-207l33 150h-353zM487 1008l52 227l-240 -227h188z" />
    <glyph glyph-name="uni2075" unicode="&#x2075;" horiz-adv-x="714" 
d="M121 942l188 19q0 -52 32.5 -77.5t74.5 -25.5q45 0 77.5 29.5t32.5 81.5q0 41 -28 65.5t-68 24.5q-47 0 -92 -35l-162 78l156 350h454l-34 -170h-316l-49 -113q47 27 107 27q109 0 173 -58.5t64 -156.5q0 -125 -90 -210t-229 -85q-126 0 -208.5 69.5t-82.5 186.5z" />
    <glyph glyph-name="uni2076" unicode="&#x2076;" horiz-adv-x="759" 
d="M850 1413l-68 -153q-74 36 -157 36q-74 0 -140 -37.5t-96 -103.5q54 45 148 45q110 0 172.5 -61t62.5 -160q0 -132 -94 -215.5t-229 -83.5q-128 0 -211.5 84.5t-83.5 226.5q0 209 137.5 341t335.5 132q137 0 223 -51zM475 1051q-45 0 -80 -30t-35 -79q0 -42 27.5 -68
t69.5 -26q46 0 79 31t33 84q0 39 -26 63.5t-68 24.5z" />
    <glyph glyph-name="uni2077" unicode="&#x2077;" horiz-adv-x="698" 
d="M842 1452l-37 -170q-311 -220 -420 -584h-217q25 100 74 196t97 159.5t101 118.5t80 77.5t39 30.5h-375l35 172h623z" />
    <glyph glyph-name="uni2078" unicode="&#x2078;" horiz-adv-x="745" 
d="M416 1223q0 -29 22 -49.5t56 -20.5q42 0 70 24t28 62q0 27 -20.5 47.5t-61.5 20.5q-44 0 -69 -25t-25 -59zM334 918q0 -36 28.5 -57t69.5 -21q52 0 83.5 27t31.5 67q0 31 -25.5 54.5t-75.5 23.5q-51 0 -81.5 -28.5t-30.5 -65.5zM432 680q-148 0 -226.5 59t-78.5 154
q0 72 53.5 126.5t138.5 72.5q-43 19 -70.5 60.5t-27.5 86.5q0 97 83 162t214 65q132 0 205.5 -56.5t73.5 -145.5q0 -63 -45.5 -114t-120.5 -73q50 -17 83.5 -61t33.5 -94q0 -106 -90 -174t-226 -68z" />
    <glyph glyph-name="uni2079" unicode="&#x2079;" horiz-adv-x="759" 
d="M111 741l69 152q67 -41 168 -41q72 0 137.5 38.5t87.5 108.5q-52 -49 -141 -49q-111 0 -177.5 61t-66.5 158q0 131 93.5 214t228.5 83q129 0 212 -82.5t83 -222.5q0 -217 -131 -348t-330 -131q-136 0 -233 59zM483 1094q46 0 79.5 32t33.5 82q0 39 -26.5 65.5t-65.5 26.5
q-46 0 -79.5 -32t-33.5 -84q0 -38 26 -64t66 -26z" />
    <glyph glyph-name="uni2080" unicode="&#x2080;" horiz-adv-x="815" 
d="M-23 131q0 65 13 130.5t43.5 130.5t74.5 114.5t111 80.5t148 31q152 0 230.5 -84t78.5 -212q0 -87 -22.5 -170.5t-67.5 -156.5t-122 -118t-175 -45q-140 0 -226 80.5t-86 218.5zM182 135q0 -55 26 -91t87 -36q45 0 80.5 31.5t55.5 80t30 100t10 99.5q0 125 -113 125
q-47 0 -83 -34t-55 -85t-28.5 -100t-9.5 -90z" />
    <glyph glyph-name="uni2081" unicode="&#x2081;" horiz-adv-x="520" 
d="M256 -213h-209l100 467h-182l29 135q87 1 150.5 45t88.5 105h183z" />
    <glyph glyph-name="uni2082" unicode="&#x2082;" horiz-adv-x="735" 
d="M160 147l133 58q96 41 96 104q0 31 -20 55.5t-62 24.5q-54 0 -82 -34t-28 -95l-189 12q0 123 84.5 203t220.5 80t210.5 -65.5t74.5 -163.5q0 -88 -57.5 -155t-159.5 -110l-156 -65q-30 -13 -37 -35h330l-37 -174h-575q9 254 254 360z" />
    <glyph glyph-name="uni2083" unicode="&#x2083;" horiz-adv-x="745" 
d="M201 123l-54 135l222 115h-338l37 170h573l-39 -195l-209 -108q71 -14 115.5 -68.5t44.5 -130.5q0 -109 -91.5 -188.5t-232.5 -79.5q-133 0 -215 72t-82 175q0 23 2 35l191 11q-2 -8 -2 -17q0 -45 29.5 -75.5t80.5 -30.5q52 0 82.5 28t30.5 76q0 39 -28 61.5t-68 22.5
q-25 0 -49 -8z" />
    <glyph glyph-name="uni2084" unicode="&#x2084;" horiz-adv-x="784" 
d="M-90 -63l43 213l416 391h227l-94 -445h125l-35 -159h-125q0 -1 -5 -25t-13 -62.5t-13 -62.5h-207l33 150h-352zM295 96l51 228l-240 -228h189z" />
    <glyph glyph-name="uni2085" unicode="&#x2085;" horiz-adv-x="714" 
d="M-74 31l189 18q0 -52 32 -77t74 -25q45 0 78 29t33 81q0 41 -28 65.5t-68 24.5q-50 0 -93 -34l-161 77l155 351h455l-35 -170h-315l-49 -113q46 27 106 27q109 0 173.5 -58.5t64.5 -156.5q0 -125 -90.5 -210t-229.5 -85q-126 0 -208.5 69.5t-82.5 186.5z" />
    <glyph glyph-name="uni2086" unicode="&#x2086;" horiz-adv-x="763" 
d="M657 504l-67 -154q-76 37 -158 37q-74 0 -139.5 -37.5t-95.5 -103.5q54 45 147 45q110 0 173 -61t63 -160q0 -132 -94.5 -215.5t-229.5 -83.5q-128 0 -211.5 84.5t-83.5 226.5q0 209 137.5 341t335.5 132q137 0 223 -51zM283 141q-46 0 -80.5 -29.5t-34.5 -78.5
q0 -42 27 -68t69 -26q46 0 79.5 30.5t33.5 83.5q0 39 -26 63.5t-68 24.5z" />
    <glyph glyph-name="uni2087" unicode="&#x2087;" horiz-adv-x="700" 
d="M649 539l-37 -170q-309 -219 -419 -584h-218q25 100 74 196t97.5 159.5t101.5 118.5t79.5 77.5t39.5 30.5h-375l35 172h622z" />
    <glyph glyph-name="uni2088" unicode="&#x2088;" horiz-adv-x="749" 
d="M223 311q0 -29 22 -49t56 -20q42 0 70 24t28 62q0 27 -20.5 47t-61.5 20q-44 0 -69 -25t-25 -59zM141 6q0 -36 29 -57t70 -21q52 0 83 27.5t31 67.5q0 31 -25 54t-75 23q-51 0 -82 -29t-31 -65zM240 -231q-148 0 -227 59t-79 154q0 72 54 126t139 72q-42 19 -70 61
t-28 87q0 97 83 162t214 65q132 0 205 -56.5t73 -146.5q0 -63 -45.5 -113.5t-120.5 -72.5q50 -17 83.5 -61.5t33.5 -94.5q0 -106 -89.5 -173.5t-225.5 -67.5z" />
    <glyph glyph-name="uni2089" unicode="&#x2089;" horiz-adv-x="763" 
d="M-82 -168l70 152q67 -41 168 -41q72 0 137.5 38.5t87.5 108.5q-52 -49 -141 -49q-111 0 -177.5 61t-66.5 158q0 131 93 214t228 83q129 0 212 -82.5t83 -222.5q0 -217 -130.5 -348t-329.5 -131q-137 0 -234 59zM291 184q46 0 79 32.5t33 82.5q0 39 -26.5 65.5t-65.5 26.5
q-46 0 -79 -32.5t-33 -84.5q0 -38 26 -64t66 -26z" />
    <glyph glyph-name="Euro" unicode="&#x20ac;" horiz-adv-x="1386" 
d="M111 727l41 188h165q94 209 285.5 327t409.5 118q253 0 405 -135l-147 -201q-46 43 -121 68.5t-160 25.5q-105 0 -207.5 -51.5t-169.5 -151.5h582l-123 -188h-534q-13 -67 -13 -135h469l-121 -189h-311q43 -94 134 -142t210 -48q136 0 230 61l82 -211q-152 -94 -349 -94
q-222 0 -384 117.5t-214 316.5h-229l41 189h168q0 70 12 135h-151z" />
    <glyph glyph-name="uni2113" unicode="&#x2113;" horiz-adv-x="890" 
d="M154 276q0 51 6 99q-74 -15 -150 -21l49 238q66 9 150 31l90 426q33 150 124.5 230.5t215.5 80.5q134 0 207.5 -72.5t73.5 -195.5q0 -172 -137 -348.5t-359 -282.5l-12 -66q-6 -31 -6 -49q0 -129 159 -129q22 0 42.5 2.5t37.5 7.5t27.5 9t24 9.5t14.5 6.5l-49 -227
q-61 -43 -170 -43q-162 0 -250 79.5t-88 214.5zM549 1036l-60 -272q92 70 140 162q43 71 43 145q0 55 -49 55q-56 0 -74 -90z" />
    <glyph glyph-name="trademark" unicode="&#x2122;" horiz-adv-x="1816" 
d="M825 1280h-209l-120 -575h-193l123 575h-213l35 172h614zM1690 705h-185l94 460l-272 -460h-137l-94 460l-99 -460h-186l158 747h250l92 -438l262 438h274z" />
    <glyph glyph-name="Omega" unicode="&#x2126;" horiz-adv-x="1753" 
d="M874 1219q-80 0 -154 -27.5t-132.5 -78t-93.5 -130.5t-35 -176q0 -164 100 -276t240 -142v-389h-619v258h357q-160 64 -265.5 213.5t-105.5 353.5q0 197 99.5 349.5t259.5 231.5t349 79q141 0 269 -46.5t226 -130.5t156 -209.5t58 -273.5q0 -204 -106 -353.5t-267 -213.5
h357v-258h-619v389q67 14 127.5 49t109 87t77 125t28.5 157q0 96 -35 176t-94 130.5t-133 78t-154 27.5z" />
    <glyph glyph-name="uni2160" unicode="&#x2160;" horiz-adv-x="1026" 
d="M250 1329h831l-49 -239h-276l-181 -850h275l-49 -240h-830l49 240h275l180 850h-274z" />
    <glyph glyph-name="uni2161" unicode="&#x2161;" horiz-adv-x="1615" 
d="M250 1329h1421l-49 -239h-281l-180 -850h279l-49 -240h-1420l49 240h279l180 850h-278zM580 240h301l180 850h-301z" />
    <glyph glyph-name="uni2162" unicode="&#x2162;" horiz-adv-x="2177" 
d="M1444 240l178 850h-291l-178 -850h291zM872 240l179 850h-291l-178 -850h290zM-29 0l49 240h281l178 850h-278l49 239h1982l-49 -239h-280l-179 -850h277l-49 -240h-1981z" />
    <glyph glyph-name="uni2163" unicode="&#x2163;" horiz-adv-x="2164" 
d="M201 1090l49 239h1968l-49 -239h-221l-455 -850h496l-50 -240h-1968l49 240h269l180 850h-268zM750 1090l-181 -850h439l-99 850h-159zM1194 1090l70 -750l387 750h-457z" />
    <glyph glyph-name="uni2164" unicode="&#x2164;" horiz-adv-x="1658" 
d="M23 240h485l-100 850h-209l49 239h1466l-49 -239h-217l-455 -850h488l-49 -240h-1459zM694 1090l70 -750l387 750h-457z" />
    <glyph glyph-name="uni2165" unicode="&#x2165;" horiz-adv-x="2156" 
d="M201 1090l49 239h1962l-49 -239h-271l-180 -850h270l-49 -240h-1962l49 240h494l-100 850h-213zM1454 1090l-455 -850h433l180 850h-158zM700 1090l70 -750l387 750h-457z" />
    <glyph glyph-name="uni2166" unicode="&#x2166;" horiz-adv-x="2727" 
d="M770 340l389 750h-461zM1434 240l178 850h-158l-455 -850h435zM1997 240l178 850h-283l-178 -850h283zM2505 0h-2534l49 240h492l-96 850h-215l49 239h2533l-49 -239h-278l-179 -850h277z" />
    <glyph glyph-name="uni2167" unicode="&#x2167;" horiz-adv-x="3268" 
d="M201 1090l49 239h3074l-49 -239h-275l-180 -850h275l-50 -240h-3074l49 240h490l-96 850h-213zM1446 1090l-451 -850h430l181 850h-160zM1886 1090l-180 -850h276l181 850h-277zM2443 1090l-180 -850h277l180 850h-277zM698 1090l68 -750l385 750h-453z" />
    <glyph glyph-name="uni2168" unicode="&#x2168;" horiz-adv-x="2109" 
d="M201 1090l49 239h1913l-49 -239h-211l-408 -437l217 -413h221l-49 -240h-1913l49 240h269l180 850h-268zM1139 657l-226 433h-163l-181 -850h172zM1237 1090l115 -236l215 236h-330zM1282 461l-205 -221h314z" />
    <glyph glyph-name="uni2169" unicode="&#x2169;" horiz-adv-x="1605" 
d="M635 657l-225 433h-209l49 239h1409l-49 -239h-211l-408 -437l217 -413h222l-50 -240h-1409l49 240h220zM731 1090l115 -236l217 236h-332zM778 461l-205 -221h314z" />
    <glyph glyph-name="uni216C" unicode="&#x216c;" horiz-adv-x="1318" 
d="M250 1329h782l-49 -239h-262l-180 -850h362l76 358h268l-125 -598h-1151l49 240h240l180 850h-239z" />
    <glyph glyph-name="uni216D" unicode="&#x216d;" horiz-adv-x="1507" 
d="M1075 463l4 18h275l-101 -481h-274l22 109q-127 -142 -335 -142q-116 0 -220.5 44t-181 121.5t-121.5 190t-45 242.5q0 145 40 272.5t109 222t160.5 163t196.5 103t215 34.5q147 0 250.5 -53.5t147.5 -130.5l32 153h275l-109 -512h-274q-1 38 -12.5 76t-37.5 77.5
t-63 69.5t-94 49t-127 19q-62 0 -122.5 -19t-118 -60.5t-101 -101.5t-70 -149t-26.5 -196q0 -167 99 -265t255 -98q78 0 142 23.5t105 62t66 77.5t39 81z" />
    <glyph glyph-name="uni216E" unicode="&#x216e;" horiz-adv-x="1519" 
d="M-31 0l49 240h254l179 850h-250l47 239h645q258 0 407.5 -141t149.5 -389q0 -185 -60.5 -337.5t-164 -252.5t-240.5 -154.5t-291 -54.5h-725zM733 1090l-182 -850h127q74 0 144 21t132.5 65t110 106.5t75 151t27.5 192.5q0 151 -87 232.5t-232 81.5h-115z" />
    <glyph glyph-name="uni216F" unicode="&#x216f;" horiz-adv-x="2142" 
d="M686 240l-49 -240h-666l49 240h232l178 850h-229l49 239h606l166 -887l526 887h650l-50 -239h-233l-178 -850h229l-49 -240h-682l49 240h172l143 684l-557 -912h-202l-174 899l-142 -671h162z" />
    <glyph glyph-name="arrowleft" unicode="&#x2190;" horiz-adv-x="2254" 
d="M655 127l-602 481l602 484v-367h1497v-236h-1497v-362z" />
    <glyph glyph-name="arrowup" unicode="&#x2191;" horiz-adv-x="1056" 
d="M621 1638l469 -546h-353v-1393h-233v1393h-357z" />
    <glyph glyph-name="arrowright" unicode="&#x2192;" horiz-adv-x="2250" 
d="M2198 608l-603 -481v362h-1497v236h1497v367z" />
    <glyph glyph-name="arrowdown" unicode="&#x2193;" horiz-adv-x="1079" 
d="M954 240l-479 -551l-481 551h364v1386h234v-1386h362z" />
    <glyph glyph-name="uni2196" unicode="&#x2196;" horiz-adv-x="1865" 
d="M242 1450h680l-256 -258l1052 -1051l-166 -166l-1052 1051l-258 -260v684z" />
    <glyph glyph-name="uni2197" unicode="&#x2197;" horiz-adv-x="1468" 
d="M748 1450h679v-684l-260 260l-1050 -1051l-166 166l1050 1051z" />
    <glyph glyph-name="uni2198" unicode="&#x2198;" horiz-adv-x="1865" 
d="M1675 2h-680l254 256l-1050 1053l166 166l1050 -1053l260 262v-684z" />
    <glyph glyph-name="uni2199" unicode="&#x2199;" horiz-adv-x="1472" 
d="M772 2h-680v684l258 -262l1053 1053l166 -166l-1053 -1053z" />
    <glyph glyph-name="uni21A9" unicode="&#x21a9;" horiz-adv-x="1849" 
d="M582 102l-539 459l539 463v-346h739q111 0 182.5 60.5t71.5 150.5q0 96 -71 153.5t-189 57.5h-400v235h412q216 0 353 -127t137 -319q0 -193 -136.5 -321t-353.5 -128h-745v-338z" />
    <glyph glyph-name="uni21B0" unicode="&#x21b0;" horiz-adv-x="1724" 
d="M670 561l-539 461l539 463v-344h864v-1141h-234v905h-630v-344z" />
    <glyph glyph-name="uni21B1" unicode="&#x21b1;" horiz-adv-x="1585" 
d="M422 0h-236v1141h906v344l538 -463l-538 -461v344h-670v-905z" />
    <glyph glyph-name="uni21B2" unicode="&#x21b2;" horiz-adv-x="1601" 
d="M1223 1452h233v-1141h-905v-344l-539 463l539 461v-344h672v905z" />
    <glyph glyph-name="uni21B3" unicode="&#x21b3;" horiz-adv-x="1773" 
d="M1149 891l539 -461l-539 -463v344h-905v1141h235v-905h670v344z" />
    <glyph glyph-name="uni21B4" unicode="&#x21b4;" horiz-adv-x="1812" 
d="M229 1217v235h1157v-956h345l-457 -527l-461 527h338v721h-922z" />
    <glyph glyph-name="uni21B5" unicode="&#x21b5;" horiz-adv-x="2238" 
d="M514 213l-440 512h311q1 154 61.5 294.5t162 242.5t242 162.5t294.5 60.5q186 0 356 -88l-108 -209q-116 61 -246 61q-143 0 -263.5 -70t-190.5 -191t-70 -263h329zM1896 725q0 -155 -59.5 -295.5t-161 -241.5t-241.5 -161t-295 -60q-185 0 -355 88l107 209
q123 -63 248 -63q106 0 202.5 41.5t166 112t110.5 167t41 203.5h-326l439 514l440 -514h-316z" />
    <glyph glyph-name="uni21C6" unicode="&#x21c6;" horiz-adv-x="2422" 
d="M2312 332l-538 -459v342h-1551v236h1551v344zM705 680l-539 459l539 463v-349h1548v-235h-1548v-338z" />
    <glyph glyph-name="partialdiff" unicode="&#x2202;" horiz-adv-x="1263" 
d="M500 1229q-146 0 -297 -70l-94 217q180 101 407 101q60 0 118.5 -8.5t125.5 -32t124.5 -59.5t112 -96t93 -137.5t61.5 -188t23 -242.5q0 -161 -36.5 -295.5t-108.5 -236t-187 -158t-262 -56.5q-81 0 -157 20t-142.5 61t-116.5 99.5t-78.5 140.5t-28.5 179
q0 110 43.5 201.5t114.5 149.5t160 90t182 32q228 0 330 -115q-5 106 -37.5 185.5t-85.5 126.5t-119 69.5t-145 22.5zM618 709q-139 0 -211.5 -71t-72.5 -183q0 -107 77 -171.5t179 -64.5q81 0 142 35.5t94.5 93t49.5 119.5t17 127q-97 115 -275 115z" />
    <glyph glyph-name="Delta" unicode="&#x2206;" horiz-adv-x="1570" 
d="M1006 262l-318 883l-315 -883h633zM-18 0l553 1452h307l555 -1452h-1415z" />
    <glyph glyph-name="product" unicode="&#x220f;" horiz-adv-x="1517" 
d="M1319 0h-283v1192h-508v-1192h-282v1452h1073v-1452z" />
    <glyph glyph-name="summation" unicode="&#x2211;" horiz-adv-x="1472" 
d="M233 0v256l525 469l-525 471v256h1053v-262h-665l516 -465l-535 -463h684v-262h-1053z" />
    <glyph glyph-name="minus" unicode="&#x2212;" horiz-adv-x="1263" 
d="M143 494v223h973v-223h-973z" />
    <glyph glyph-name="uni2215" unicode="&#x2215;" horiz-adv-x="882" 
d="M780 1329h258l-934 -1329h-251z" />
    <glyph glyph-name="uni2219" unicode="&#x2219;" horiz-adv-x="557" 
d="M104 621q0 74 55 130t132 56q70 0 117 -46.5t47 -111.5q0 -81 -55.5 -135.5t-133.5 -54.5q-69 0 -115.5 47.5t-46.5 114.5z" />
    <glyph glyph-name="radical" unicode="&#x221a;" horiz-adv-x="1333" 
d="M1530 1573h-268l-529 -1573h-241l-390 1100h267l245 -725l467 1425h449v-227z" />
    <glyph glyph-name="infinity" unicode="&#x221e;" horiz-adv-x="1722" 
d="M92 594q0 163 111.5 272t281.5 109q200 0 375 -203q187 203 369 203q170 0 281.5 -109t111.5 -272t-111.5 -271t-281.5 -108q-200 0 -375 199q-93 -100 -181 -149.5t-188 -49.5q-170 0 -281.5 108t-111.5 271zM489 741q-69 0 -111 -42.5t-42 -106.5t42 -106t111 -42
q101 0 220 144q-64 76 -114 114.5t-106 38.5zM1225 444q69 0 111 42t42 106t-42 106.5t-111 42.5q-56 0 -105.5 -37t-113.5 -110q59 -73 111 -111.5t108 -38.5z" />
    <glyph glyph-name="integral" unicode="&#x222b;" horiz-adv-x="694" 
d="M193 -35v1110q0 174 101 276.5t277 102.5h105v-242h-92q-55 0 -87 -34.5t-32 -98.5v-1110q0 -174 -100.5 -276.5t-274.5 -102.5h-110v240h94q54 0 86.5 36t32.5 99z" />
    <glyph glyph-name="approxequal" unicode="&#x2248;" horiz-adv-x="1294" 
d="M1044 948l144 -121q-57 -99 -143.5 -151.5t-190.5 -52.5q-109 0 -219 61l-96 53q-57 31 -111 31q-102 0 -178 -98l-148 121q57 99 143.5 152.5t186.5 53.5q108 0 221 -61l99 -53q64 -33 116 -33q106 0 176 98zM1044 535l144 -119q-57 -99 -144 -152t-190 -53
q-109 0 -219 61l-96 54q-52 28 -111 28q-103 0 -178 -96l-148 121q57 99 143.5 153t188.5 54q104 0 219 -62l99 -53q56 -33 116 -33q107 0 176 97z" />
    <glyph glyph-name="notequal" unicode="&#x2260;" horiz-adv-x="1239" 
d="M123 698v220h594l123 188h245l-122 -188h153v-220h-297l-121 -186h418v-221h-563l-129 -199h-246l129 199h-184v221h330l120 186h-450z" />
    <glyph glyph-name="lessequal" unicode="&#x2264;" horiz-adv-x="1167" 
d="M119 90v223h880v-223h-880zM119 647v221l880 279v-225l-571 -160l571 -162v-229z" />
    <glyph glyph-name="greaterequal" unicode="&#x2265;" horiz-adv-x="1228" 
d="M1061 313v-223h-881v223h881zM1061 868v-221l-881 -276v225l572 160l-572 162v229z" />
    <glyph glyph-name="dotmath" unicode="&#x22c5;" horiz-adv-x="557" 
d="M104 621q0 74 55 130t132 56q70 0 117 -46.5t47 -111.5q0 -81 -55.5 -135.5t-133.5 -54.5q-69 0 -115.5 47.5t-46.5 114.5z" />
    <glyph glyph-name="uni24C5" unicode="&#x24c5;" horiz-adv-x="1701" 
d="M121 725q0 154 59.5 294.5t160 242.5t240 162.5t293.5 60.5t294.5 -60.5t242 -162.5t161.5 -242.5t60 -294.5q0 -153 -60 -293.5t-161.5 -242t-242 -162t-294.5 -60.5t-293.5 60.5t-240 162t-160 242t-59.5 293.5zM295 725q0 -165 76 -301.5t209.5 -215.5t293.5 -79
t293.5 79t210 215.5t76.5 301.5t-76.5 302.5t-209.5 216.5t-294 79q-120 0 -227.5 -46.5t-184.5 -126t-122 -190.5t-45 -235zM846 758h86q65 0 106 35.5t41 97.5q0 86 -100 86h-86zM961 600h-150l-59 -283h-191l174 818h297q105 0 173.5 -68t68.5 -164q0 -126 -89 -214.5
t-224 -88.5z" />
    <glyph glyph-name="filledbox" unicode="&#x25a0;" horiz-adv-x="1878" 
d="M238 0v1452h1452v-1452h-1452z" />
    <glyph glyph-name="H22073" unicode="&#x25a1;" horiz-adv-x="1878" 
d="M1690 0h-1452v1452h1452v-1452zM471 1223v-996h979v996h-979z" />
    <glyph glyph-name="uni25AF" unicode="&#x25af;" horiz-adv-x="1370" 
d="M1182 0h-944v1452h944v-1452zM465 1243v-1030h489v1030h-489z" />
    <glyph glyph-name="triagup" unicode="&#x25b2;" horiz-adv-x="1816" 
d="M797 1485l854 -1485h-1717z" />
    <glyph glyph-name="uni25B3" unicode="&#x25b3;" horiz-adv-x="1816" 
d="M-66 0l859 1485l858 -1485h-1717zM793 1016l-455 -787h909z" />
    <glyph glyph-name="lozenge" unicode="&#x25ca;" horiz-adv-x="1263" 
d="M657 270l263 455l-263 457l-264 -457zM805 0h-297l-424 725l424 727h297l424 -727z" />
    <glyph glyph-name="circle" unicode="&#x25cb;" horiz-adv-x="1708" 
d="M1638 725q0 -155 -59.5 -295.5t-161 -241.5t-241.5 -161t-295 -60t-295.5 60t-242.5 161t-162 241.5t-60 295.5t60 295.5t162 242.5t242.5 162t295.5 60t295 -60t241.5 -162t161 -242.5t59.5 -295.5zM1401 725q0 143 -69.5 264.5t-189.5 192.5t-261 71q-143 0 -264.5 -71
t-192 -192.5t-70.5 -264.5t70.5 -264.5t192 -192.5t264.5 -71q141 0 261 71t189.5 192.5t69.5 264.5z" />
    <glyph glyph-name="H18533" unicode="&#x25cf;" horiz-adv-x="1708" 
d="M121 725q0 155 60 295.5t161 242.5t241.5 162t295.5 60t295.5 -60t242 -162t161.5 -242.5t60 -295.5t-60 -295.5t-161.5 -241.5t-242 -161t-295.5 -60t-295.5 60t-241.5 161t-161 241.5t-60 295.5z" />
    <glyph glyph-name="uni262E" unicode="&#x262e;" horiz-adv-x="1699" 
d="M1630 725q0 -154 -60 -294.5t-161 -242t-241 -161.5t-294 -60t-293.5 60t-240 161.5t-160 242t-59.5 294.5q0 155 59.5 295.5t160 242.5t240 162t293.5 60t294 -60t241 -162t161 -242.5t60 -295.5zM1399 725q0 193 -117 339t-297 185v-399l379 -320q35 93 35 195z
M348 725q0 -93 33 -190l375 315v397q-177 -40 -292.5 -186t-115.5 -336zM985 201q148 31 254 137l-254 221v-358zM506 342q103 -106 250 -141v356z" />
    <glyph glyph-name="uni2713" unicode="&#x2713;" horiz-adv-x="1804" 
d="M1913 1321l-1264 -1354l-600 664l170 160l438 -478l1088 1174z" />
    <glyph glyph-name="uni2715" unicode="&#x2715;" horiz-adv-x="1802" 
d="M358 -10l-163 164l567 573l-567 567l163 164l566 -567l563 567l164 -164l-561 -567l573 -573l-164 -164l-573 571z" />
    <glyph glyph-name="uni2780" unicode="&#x2780;" horiz-adv-x="1701" 
d="M121 725q0 154 59.5 294.5t160 242.5t240 162.5t293.5 60.5t294.5 -60.5t242 -162.5t161.5 -242.5t60 -294.5q0 -153 -60 -293.5t-161.5 -242t-242 -162t-294.5 -60.5t-293.5 60.5t-240 162t-160 242t-59.5 293.5zM295 725q0 -165 76 -301.5t209.5 -215.5t293.5 -79
t293.5 79t210 215.5t76.5 301.5t-76.5 302.5t-209.5 216.5t-294 79q-120 0 -227.5 -46.5t-184.5 -126t-122 -190.5t-45 -235zM1012 352h-209v457h-189v137q90 0 144.5 47.5t66.5 110.5h187v-752z" />
    <glyph glyph-name="uni2781" unicode="&#x2781;" horiz-adv-x="1701" 
d="M874 1485q154 0 294.5 -60.5t242 -162.5t161.5 -242.5t60 -294.5q0 -153 -60 -293.5t-161.5 -242t-242 -162t-294.5 -60.5t-293.5 60.5t-240 162t-160 242t-59.5 293.5q0 154 59.5 294.5t160 242.5t240 162.5t293.5 60.5zM295 725q0 -165 76 -301.5t209.5 -215.5
t293.5 -79t293.5 79t210 215.5t76.5 301.5t-76.5 302.5t-209.5 216.5t-294 79q-120 0 -227.5 -46.5t-184.5 -126t-122 -190.5t-45 -235zM754 719l123 72q79 48 79 104q0 31 -23 55.5t-67 24.5q-45 0 -71.5 -25t-28.5 -67q0 -25 6 -52h-188q-6 27 -6 58q0 107 77 180.5
t215 73.5q133 0 212 -72.5t79 -177.5q0 -132 -162 -229l-143 -86q-25 -17 -25 -31h336v-174h-596v24q0 214 183 322z" />
    <glyph glyph-name="uni2782" unicode="&#x2782;" horiz-adv-x="1701" 
d="M121 725q0 154 59.5 294.5t160 242.5t240 162.5t293.5 60.5t294.5 -60.5t242 -162.5t161.5 -242.5t60 -294.5q0 -153 -60 -293.5t-161.5 -242t-242 -162t-294.5 -60.5t-293.5 60.5t-240 162t-160 242t-59.5 293.5zM295 725q0 -165 76 -301.5t209.5 -215.5t293.5 -79
t293.5 79t210 215.5t76.5 301.5t-76.5 302.5t-209.5 216.5t-294 79q-120 0 -227.5 -46.5t-184.5 -126t-122 -190.5t-45 -235zM553 563l186 43q5 -46 40 -77t85 -31q51 0 82 25.5t31 64.5q0 46 -32 69t-79 23q-35 0 -65 -12l-68 139l178 121h-329v170h581v-168l-182 -125
q93 -12 149 -69.5t56 -151.5q0 -107 -87.5 -181.5t-232.5 -74.5q-133 0 -216.5 69t-96.5 166z" />
    <glyph glyph-name="uni2783" unicode="&#x2783;" horiz-adv-x="1701" 
d="M121 725q0 154 59.5 294.5t160 242.5t240 162.5t293.5 60.5t294.5 -60.5t242 -162.5t161.5 -242.5t60 -294.5q0 -153 -60 -293.5t-161.5 -242t-242 -162t-294.5 -60.5t-293.5 60.5t-240 162t-160 242t-59.5 293.5zM295 725q0 -165 76 -301.5t209.5 -215.5t293.5 -79
t293.5 79t210 215.5t76.5 301.5t-76.5 302.5t-209.5 216.5t-294 79q-120 0 -227.5 -46.5t-184.5 -126t-122 -190.5t-45 -235zM508 510v190l346 416h223v-444h125v-162h-125v-145h-207v145h-362zM870 672v217l-180 -217h180z" />
    <glyph glyph-name="uni2784" unicode="&#x2784;" horiz-adv-x="1701" 
d="M121 725q0 154 59.5 294.5t160 242.5t240 162.5t293.5 60.5t294.5 -60.5t242 -162.5t161.5 -242.5t60 -294.5q0 -153 -60 -293.5t-161.5 -242t-242 -162t-294.5 -60.5t-293.5 60.5t-240 162t-160 242t-59.5 293.5zM295 725q0 -165 76 -301.5t209.5 -215.5t293.5 -79
t293.5 79t210 215.5t76.5 301.5t-76.5 302.5t-209.5 216.5t-294 79q-120 0 -227.5 -46.5t-184.5 -126t-122 -190.5t-45 -235zM549 551l182 47q6 -46 41.5 -74t83.5 -28t78.5 26.5t30.5 71.5q0 52 -31 78t-84 26q-65 0 -107 -45l-170 52l95 387h454v-170h-331l-31 -129
q53 47 145 47q121 0 192.5 -65.5t71.5 -178.5q0 -115 -84 -192.5t-229 -77.5q-122 0 -207.5 65t-99.5 160z" />
    <glyph glyph-name="uni2785" unicode="&#x2785;" horiz-adv-x="1701" 
d="M121 725q0 154 59.5 294.5t160 242.5t240 162.5t293.5 60.5t294.5 -60.5t242 -162.5t161.5 -242.5t60 -294.5q0 -153 -60 -293.5t-161.5 -242t-242 -162t-294.5 -60.5t-293.5 60.5t-240 162t-160 242t-59.5 293.5zM295 725q0 -165 76 -301.5t209.5 -215.5t293.5 -79
t293.5 79t210 215.5t76.5 301.5t-76.5 302.5t-209.5 216.5t-294 79q-120 0 -227.5 -46.5t-184.5 -126t-122 -190.5t-45 -235zM1145 1087l-39 -157q-63 24 -133 24q-86 0 -152 -42t-88 -128q65 68 174 68q118 0 192.5 -64t74.5 -180q0 -120 -90 -196t-230 -76
q-139 0 -233.5 93t-94.5 253q0 201 123.5 319.5t311.5 118.5q93 0 184 -33zM743 602q0 -44 32.5 -72t78.5 -28t78.5 28t32.5 72q0 46 -32.5 74.5t-78.5 28.5t-78.5 -28.5t-32.5 -74.5z" />
    <glyph glyph-name="uni2786" unicode="&#x2786;" horiz-adv-x="1701" 
d="M121 725q0 154 59.5 294.5t160 242.5t240 162.5t293.5 60.5t294.5 -60.5t242 -162.5t161.5 -242.5t60 -294.5q0 -153 -60 -293.5t-161.5 -242t-242 -162t-294.5 -60.5t-293.5 60.5t-240 162t-160 242t-59.5 293.5zM295 725q0 -165 76 -301.5t209.5 -215.5t293.5 -79
t293.5 79t210 215.5t76.5 301.5t-76.5 302.5t-209.5 216.5t-294 79q-120 0 -227.5 -46.5t-184.5 -126t-122 -190.5t-45 -235zM1186 1087v-174q-28 -22 -54.5 -47.5t-68 -78.5t-73 -112.5t-59 -150t-36.5 -190.5h-219q8 105 37.5 203.5t66 164t72.5 116t60 74.5l24 23h-379
v172h629z" />
    <glyph glyph-name="uni2787" unicode="&#x2787;" horiz-adv-x="1701" 
d="M121 725q0 154 59.5 294.5t160 242.5t240 162.5t293.5 60.5t294.5 -60.5t242 -162.5t161.5 -242.5t60 -294.5q0 -153 -60 -293.5t-161.5 -242t-242 -162t-294.5 -60.5t-293.5 60.5t-240 162t-160 242t-59.5 293.5zM295 725q0 -165 76 -301.5t209.5 -215.5t293.5 -79
t293.5 79t210 215.5t76.5 301.5t-76.5 302.5t-209.5 216.5t-294 79q-120 0 -227.5 -46.5t-184.5 -126t-122 -190.5t-45 -235zM874 807q44 0 69.5 23t25.5 57q0 29 -25.5 51.5t-69.5 22.5q-43 0 -67.5 -22.5t-24.5 -51.5q0 -34 24.5 -57t67.5 -23zM874 500q57 0 85 25t28 63
q0 34 -29 58t-84 24q-54 0 -83 -24t-29 -58q0 -38 28.5 -63t83.5 -25zM874 338q-148 0 -232.5 61.5t-84.5 163.5q0 61 41.5 109t108.5 69q-60 20 -93.5 66t-33.5 102q0 93 79 153t215 60q138 0 217.5 -60t79.5 -153q0 -56 -33.5 -102t-93.5 -66q65 -21 107.5 -68.5
t42.5 -105.5q0 -104 -84 -166.5t-236 -62.5z" />
    <glyph glyph-name="uni2788" unicode="&#x2788;" horiz-adv-x="1701" 
d="M121 725q0 154 59.5 294.5t160 242.5t240 162.5t293.5 60.5t294.5 -60.5t242 -162.5t161.5 -242.5t60 -294.5q0 -153 -60 -293.5t-161.5 -242t-242 -162t-294.5 -60.5t-293.5 60.5t-240 162t-160 242t-59.5 293.5zM295 725q0 -165 76 -301.5t209.5 -215.5t293.5 -79
t293.5 79t210 215.5t76.5 301.5t-76.5 302.5t-209.5 216.5t-294 79q-120 0 -227.5 -46.5t-184.5 -126t-122 -190.5t-45 -235zM604 367l35 161q56 -24 133 -24q90 0 155.5 40.5t84.5 127.5q-66 -66 -178 -66q-111 0 -190 65.5t-79 178.5q0 121 88 196.5t232 75.5
q140 0 232.5 -93.5t92.5 -254.5q0 -205 -118.5 -322.5t-303.5 -117.5q-93 0 -184 33zM989 854q0 45 -31.5 73.5t-78.5 28.5q-45 0 -77 -28.5t-32 -73.5t32 -73.5t77 -28.5q47 0 78.5 28.5t31.5 73.5z" />
    <glyph glyph-name="uniE000" unicode="&#xe000;" horiz-adv-x="1462" 
d="M489 -31l-456 527h344v956h1157v-235h-922v-721h338z" />
    <glyph glyph-name="uniE002" unicode="&#xe002;" horiz-adv-x="2000" 
d="M1096 725l438 514l440 -514h-309q0 -155 -60 -295.5t-161 -241.5t-241.5 -161t-295.5 -60q-154 0 -294 60t-241.5 161t-161.5 241.5t-60 295.5t60 295.5t161.5 242.5t241.5 162t294 60q167 0 324 -72l-94 -217q-106 53 -228 53q-143 0 -263.5 -70t-190.5 -191t-70 -263
t69.5 -263t190.5 -192t264 -71q106 0 202 42t165 112.5t110 167.5t41 204h-331z" />
    <glyph glyph-name="commaaccent" unicode="&#xf6c3;" horiz-adv-x="387" 
d="M-47 1108l20 98q10 -2 31 -2q117 0 154 80q-16 -8 -45 -8q-59 0 -92 33t-33 80q0 60 44.5 100.5t110.5 40.5q70 0 111 -42t41 -110q0 -125 -83.5 -199.5t-205.5 -74.5q-17 0 -53 4z" />
    <glyph glyph-name="uniFB00" unicode="&#xfb00;" horiz-adv-x="1404" 
d="M375 0h-275l164 776h-170l49 232h172l31 151q20 93 60 161t94 105.5t113.5 54.5t129.5 17q50 0 96.5 -11t69.5 -24l-47 -223l-9 4q-9 4 -31 9t-48 5q-60 0 -104 -31t-58 -96l-24 -122h377l30 151q20 94 60 161.5t94.5 105t115 54.5t130.5 17q49 0 95 -11t69 -24l-48 -223
l-9 4q-9 4 -31 9t-48 5q-60 0 -103.5 -31t-57.5 -96l-25 -122h215l-51 -232h-213l-164 -776h-274l163 776h-374z" />
    <glyph glyph-name="fi" unicode="&#xfb01;" horiz-adv-x="1298" 
d="M539 776l-164 -776h-275l164 776h-170l49 232h172l35 163q19 89 58.5 154t93 101.5t113 53.5t128.5 17q50 0 96.5 -11t69.5 -24l-47 -223l-10 4q-10 4 -33 9t-49 5q-130 0 -160 -139l-22 -110h657l-215 -1008h-270l166 776h-387zM1010 1327q0 75 54.5 128.5t129.5 53.5
q67 0 109.5 -42.5t42.5 -104.5q0 -77 -56.5 -129.5t-130.5 -52.5q-64 0 -106.5 42t-42.5 105z" />
    <glyph glyph-name="fl" unicode="&#xfb02;" horiz-adv-x="1294" 
d="M539 776l-164 -776h-275l164 776h-170l49 232h172l35 163q19 89 58.5 154t93 101.5t113 53.5t128.5 17q50 0 96.5 -11t69.5 -24l-47 -223l-10 4q-10 4 -33 9t-49 5q-130 0 -160 -139l-22 -110h385l100 475h273l-316 -1483h-270l164 776h-385z" />
    <glyph glyph-name="uniFB03" unicode="&#xfb03;" horiz-adv-x="1939" 
d="M1651 1327q0 75 54.5 128.5t129.5 53.5q67 0 109.5 -42.5t42.5 -104.5q0 -77 -56.5 -129.5t-130.5 -52.5q-64 0 -106.5 42t-42.5 105zM375 0h-275l164 776h-170l49 232h172l31 151q20 93 60 161t94 105.5t113.5 54.5t129.5 17q50 0 96.5 -11t69.5 -24l-47 -223l-9 4
q-9 4 -31 9t-48 5q-60 0 -104 -31t-58 -96l-24 -122h377l30 151q20 94 60 161.5t94.5 105t115 54.5t130.5 17q49 0 95 -11t69 -24l-48 -223l-9 4q-9 4 -31 9t-48 5q-60 0 -103.5 -31t-57.5 -96l-25 -122h649l-215 -1008h-270l166 776h-379l-164 -776h-274l163 776h-374z" />
    <glyph glyph-name="uniFB04" unicode="&#xfb04;" horiz-adv-x="1949" 
d="M375 0h-275l164 776h-170l49 232h172l31 151q20 93 60 161t94 105.5t113.5 54.5t129.5 17q50 0 96.5 -11t69.5 -24l-47 -223l-9 4q-9 4 -31 9t-48 5q-60 0 -104 -31t-58 -96l-24 -122h377l30 151q20 94 60 161.5t94.5 105t115 54.5t130.5 17q49 0 95 -11t69 -24l-48 -223
l-9 4q-9 4 -31 9t-48 5q-60 0 -103.5 -31t-57.5 -96l-25 -122h391l101 475h272l-315 -1483h-271l164 776h-391l-164 -776h-274l163 776h-374z" />
    <glyph glyph-name="uniFEFF" unicode="&#xfeff;" horiz-adv-x="0" 
 />
    <glyph glyph-name="i.latn_TRK" horiz-adv-x="544" 
d="M258 1327q0 75 54.5 128.5t129.5 53.5q67 0 109.5 -42.5t42.5 -104.5q0 -77 -56 -129.5t-130 -52.5q-64 0 -107 42t-43 105zM279 0h-271l215 1008h271z" />
    <glyph glyph-name="Ldot.latn_CAT" horiz-adv-x="1132" 
d="M956 0h-913l307 1452h283l-250 -1182h631zM662 788q0 69 54 123t128 54q65 0 107 -42t42 -102q0 -76 -53.5 -129t-126.5 -53q-66 0 -108.5 43t-42.5 106z" />
    <glyph glyph-name="ldot.latn_CAT" horiz-adv-x="811" 
d="M279 0h-271l314 1483h272zM524 657q0 71 53 126t128 55q63 0 105 -42t42 -102q0 -77 -52.5 -130.5t-125.5 -53.5q-65 0 -107.5 43t-42.5 104z" />
    <glyph glyph-name="zero.numr" horiz-adv-x="813" 
d="M131 858q0 65 13 130.5t43.5 130.5t74 115t110.5 81t148 31q152 0 230.5 -84t78.5 -213q0 -87 -22.5 -170.5t-67.5 -156.5t-122 -118t-175 -45q-140 0 -225.5 80.5t-85.5 218.5zM336 862q0 -55 26 -91t87 -36q45 0 80.5 31.5t55.5 80.5t30 100.5t10 99.5q0 124 -113 124
q-47 0 -83 -34t-55 -85t-28.5 -100t-9.5 -90z" />
    <glyph glyph-name="one.numr" horiz-adv-x="518" 
d="M424 578h-209l100 466h-182l29 136q87 1 150.5 44.5t88.5 104.5h183z" />
    <glyph glyph-name="two.numr" horiz-adv-x="729" 
d="M326 936l133 57q96 41 96 105q0 31 -20 55.5t-62 24.5q-55 0 -83 -34t-28 -95l-188 12q0 123 84.5 202.5t220.5 79.5t210.5 -65.5t74.5 -163.5q0 -88 -57.5 -154.5t-159.5 -109.5l-156 -66q-30 -13 -37 -34h330l-37 -175h-575q9 255 254 361z" />
    <glyph glyph-name="three.numr" horiz-adv-x="741" 
d="M367 909l-54 135l222 115h-338l36 170h574l-39 -194l-209 -109q71 -14 115.5 -68.5t44.5 -130.5q0 -109 -91.5 -188.5t-232.5 -79.5q-133 0 -215 72.5t-82 175.5q0 23 2 35l191 10q-2 -8 -2 -16q0 -45 29.5 -76t80.5 -31q52 0 82.5 28.5t30.5 76.5q0 39 -28 61.5
t-68 22.5q-22 0 -49 -9z" />
    <glyph glyph-name="four.numr" horiz-adv-x="782" 
d="M78 725l43 213l416 391h227l-94 -444h125l-35 -160h-125q0 -1 -5 -25t-13 -62.5t-13 -62.5h-207l33 150h-352zM463 885l51 227l-240 -227h189z" />
    <glyph glyph-name="five.numr" horiz-adv-x="712" 
d="M94 819l189 19q0 -52 32.5 -77.5t73.5 -25.5q45 0 78 29.5t33 81.5q0 41 -28.5 65.5t-68.5 24.5q-47 0 -92 -35l-161 78l155 350h455l-35 -170h-315l-50 -112q45 26 107 26q109 0 173.5 -58.5t64.5 -156.5q0 -125 -90.5 -210t-229.5 -85q-126 0 -208.5 69.5t-82.5 186.5z
" />
    <glyph glyph-name="six.numr" horiz-adv-x="761" 
d="M825 1290l-67 -153q-76 37 -158 37q-74 0 -139.5 -37.5t-95.5 -104.5q54 45 147 45q110 0 173 -61t63 -160q0 -132 -94.5 -215.5t-229.5 -83.5q-128 0 -211.5 84.5t-83.5 226.5q0 209 137.5 341t335.5 132q137 0 223 -51zM451 928q-45 0 -80 -30t-35 -79q0 -42 27 -68
t69 -26q46 0 79.5 31t33.5 84q0 39 -26 63.5t-68 24.5z" />
    <glyph glyph-name="seven.numr" horiz-adv-x="698" 
d="M815 1329l-37 -170q-311 -220 -420 -584h-217q25 100 74 196t97 159.5t101 118.5t80 77.5t39 30.5h-374l35 172h622z" />
    <glyph glyph-name="eight.numr" horiz-adv-x="745" 
d="M389 1100q0 -29 22 -49.5t56 -20.5q42 0 70 24t28 62q0 27 -20.5 47.5t-61.5 20.5q-44 0 -69 -25t-25 -59zM307 795q0 -36 29 -57t70 -21q52 0 83 27t31 67q0 31 -25 54.5t-75 23.5q-51 0 -82 -29t-31 -65zM406 557q-148 0 -227 59t-79 154q0 72 54 126.5t139 72.5
q-43 19 -70.5 60.5t-27.5 86.5q0 97 83 162t214 65q132 0 205 -56.5t73 -145.5q0 -63 -45.5 -114t-120.5 -73q50 -17 83.5 -61t33.5 -94q0 -106 -89.5 -174t-225.5 -68z" />
    <glyph glyph-name="nine.numr" horiz-adv-x="759" 
d="M84 616l70 152q67 -41 168 -41q72 0 137.5 38.5t87.5 108.5q-52 -49 -141 -49q-111 0 -177.5 61t-66.5 158q0 131 93 214t228 83q129 0 212 -82.5t83 -222.5q0 -217 -131 -348t-330 -131q-136 0 -233 59zM457 969q46 0 79 32t33 82q0 39 -26.5 66t-65.5 27
q-46 0 -79 -32.5t-33 -84.5q0 -38 26 -64t66 -26z" />
    <glyph glyph-name="zero.dnom" horiz-adv-x="815" 
d="M8 281q0 65 13 130.5t43.5 130.5t74 114.5t110.5 80.5t148 31q152 0 231 -84.5t79 -212.5q0 -68 -13.5 -135.5t-44.5 -132t-75 -113t-110 -78.5t-145 -30q-140 0 -225.5 80.5t-85.5 218.5zM213 285q0 -55 26 -91t87 -36q45 0 80.5 31.5t55.5 80t30 100t10 99.5
q0 125 -113 125q-47 0 -83 -34t-55 -85t-28.5 -100t-9.5 -90z" />
    <glyph glyph-name="one.dnom" horiz-adv-x="520" 
d="M301 0h-209l101 467h-183l29 135q87 1 151 45t89 105h182z" />
    <glyph glyph-name="two.dnom" horiz-adv-x="733" 
d="M205 360l133 58q96 41 96 104q0 31 -20 55.5t-62 24.5q-54 0 -82 -34t-28 -95l-189 12q0 123 84.5 203t220.5 80t210.5 -65.5t74.5 -163.5q0 -88 -57.5 -155t-159.5 -110l-156 -65q-30 -13 -37 -35h330l-37 -174h-575q9 254 254 360z" />
    <glyph glyph-name="three.dnom" horiz-adv-x="745" 
d="M246 334l-53 135l221 115h-338l37 170h573l-39 -195l-209 -108q71 -14 115.5 -68.5t44.5 -130.5q0 -109 -91.5 -188.5t-232.5 -79.5q-133 0 -215 72t-82 175q0 17 3 35l190 10q-2 -8 -2 -16q0 -45 30 -75.5t81 -30.5q52 0 82 28t30 76q0 39 -28 61.5t-68 22.5
q-25 0 -49 -8z" />
    <glyph glyph-name="four.dnom" horiz-adv-x="784" 
d="M-45 150l43 212l416 392h227l-94 -445h125l-35 -159h-125q0 -1 -5 -25t-13 -62.5t-13 -62.5h-207l33 150h-352zM340 309l51 228l-239 -228h188z" />
    <glyph glyph-name="five.dnom" horiz-adv-x="716" 
d="M-29 242l189 18q0 -52 32 -77t74 -25q45 0 78 29t33 81q0 41 -28 65.5t-68 24.5q-50 0 -93 -34l-161 77l155 351h455l-35 -170h-315l-49 -113q47 27 106 27q109 0 173.5 -58.5t64.5 -156.5q0 -125 -90.5 -210t-229.5 -85q-126 0 -208.5 69.5t-82.5 186.5z" />
    <glyph glyph-name="six.dnom" horiz-adv-x="763" 
d="M702 717l-67 -154q-76 37 -158 37q-74 0 -139.5 -37.5t-95.5 -103.5q54 45 147 45q110 0 173 -61t63 -160q0 -132 -94.5 -215.5t-229.5 -83.5q-128 0 -211.5 84.5t-83.5 226.5q0 209 137.5 341t335.5 132q137 0 223 -51zM328 354q-46 0 -80.5 -29.5t-34.5 -78.5
q0 -42 27 -68t69 -26q46 0 79.5 30.5t33.5 83.5q0 39 -26 63.5t-68 24.5z" />
    <glyph glyph-name="seven.dnom" horiz-adv-x="702" 
d="M696 754l-37 -170q-309 -219 -419 -584h-217q25 100 74 196t97 159.5t101 118.5t80 77.5t39 30.5h-375l35 172h622z" />
    <glyph glyph-name="eight.dnom" horiz-adv-x="749" 
d="M268 524q0 -29 22 -49t56 -20q42 0 70 24t28 62q0 27 -20.5 47t-61.5 20q-44 0 -69 -25t-25 -59zM186 219q0 -36 29 -57t70 -21q52 0 83 27.5t31 67.5q0 31 -25 54t-75 23q-51 0 -82 -29t-31 -65zM285 -18q-148 0 -226.5 59t-78.5 154q0 72 53.5 126t138.5 72
q-42 19 -70 61t-28 87q0 97 83 162t214 65q132 0 205 -56.5t73 -146.5q0 -63 -45.5 -113.5t-120.5 -72.5q50 -17 83.5 -61.5t33.5 -94.5q0 -106 -89.5 -173.5t-225.5 -67.5z" />
    <glyph glyph-name="nine.dnom" horiz-adv-x="763" 
d="M-37 43l70 152q67 -41 168 -41q72 0 137.5 38.5t87.5 108.5q-52 -49 -141 -49q-111 0 -177.5 61t-66.5 158q0 131 93 214t228 83q129 0 212 -82.5t83 -222.5q0 -217 -130.5 -348t-329.5 -131q-137 0 -234 59zM336 395q46 0 79.5 32.5t33.5 82.5q0 39 -27 65.5t-66 26.5
q-46 0 -79 -32.5t-33 -84.5q0 -38 26 -64t66 -26z" />
    <glyph glyph-name="space.frac" horiz-adv-x="96" 
 />
    <glyph glyph-name="a.ordn" horiz-adv-x="870" 
d="M721 1329h203l-121 -561q-15 -73 -15 -119q0 -16 3 -28h-191q-2 6 -2 24q0 23 6 60q-25 -38 -72.5 -67.5t-113.5 -29.5q-126 0 -201.5 91t-75.5 227q0 183 104.5 302.5t256.5 119.5q89 0 136.5 -30.5t63.5 -64.5zM520 1159q-79 0 -124.5 -68t-45.5 -155
q0 -69 35.5 -108.5t93.5 -39.5q68 0 118 61t50 169q0 68 -34.5 104.5t-92.5 36.5z" />
    <glyph glyph-name="b.ordn" horiz-adv-x="886" 
d="M305 621h-201l218 1038h206l-79 -385q27 31 75.5 50t106.5 19q132 0 204 -82.5t72 -211.5q0 -193 -106 -319t-264 -126q-79 0 -135 33.5t-76 75.5zM559 1163q-77 0 -128.5 -66t-51.5 -157q0 -71 38.5 -110t98.5 -39q69 0 125.5 59t56.5 164q0 72 -38 110.5t-101 38.5z
" />
    <glyph glyph-name="c.ordn" horiz-adv-x="804" 
d="M854 1110l-188 -53q-8 44 -43.5 74t-94.5 30q-72 0 -128 -59t-56 -164q0 -68 41 -107.5t107 -39.5q101 0 147 94l172 -66q-40 -95 -126.5 -158t-207.5 -63q-6 0 -18 1t-17 1q-135 10 -220 103.5t-85 230.5q0 185 120.5 301.5t285.5 116.5q135 0 214.5 -71t96.5 -171z" />
    <glyph glyph-name="d.ordn" horiz-adv-x="870" 
d="M520 1159q-79 0 -124.5 -68t-45.5 -155q0 -69 35.5 -108.5t93.5 -39.5q68 0 118 61t50 169q0 68 -34.5 104.5t-92.5 36.5zM604 705q-70 -97 -186 -97q-126 0 -201.5 91t-75.5 227q0 183 104.5 302.5t256.5 119.5q81 0 129 -26t67 -60l84 397h209l-188 -891
q-15 -62 -15 -115q0 -8 3 -32h-191q-2 12 -2 30q0 27 6 54z" />
    <glyph glyph-name="e.ordn" horiz-adv-x="806" 
d="M352 1059h289q2 2 2 14q0 43 -31.5 78t-95.5 35q-123 0 -164 -127zM815 922l-483 -2q0 -63 40 -105.5t111 -42.5q49 0 86.5 23.5t55.5 60.5l161 -76q-38 -77 -118.5 -128.5t-200.5 -51.5q-136 0 -232 92t-96 236q0 95 32.5 176.5t86.5 134.5t121.5 83t138.5 30
q148 0 233 -84t85 -217q0 -67 -21 -129z" />
    <glyph glyph-name="f.ordn" horiz-adv-x="563" 
d="M643 1153h-145l-115 -532h-209l113 532h-119l37 176h121l22 107q25 120 102 176.5t185 56.5q79 0 125 -24l-39 -172q-25 14 -62 14q-94 0 -112 -94l-12 -64h147z" />
    <glyph glyph-name="g.ordn" horiz-adv-x="872" 
d="M649 1030q0 58 -36 94.5t-93 36.5q-73 0 -120.5 -54t-47.5 -138q0 -60 35.5 -95.5t95.5 -35.5q69 0 117.5 52.5t48.5 139.5zM57 600l183 35q0 -55 37.5 -91t105.5 -36q154 0 197 176l10 45q-55 -67 -160 -67q-131 0 -209 82.5t-78 211.5q0 163 102.5 276.5t254.5 113.5
q80 0 132.5 -27.5t72.5 -65.5l18 76h203l-138 -649q-33 -156 -135 -254t-264 -98q-82 0 -147.5 24t-104.5 64t-59.5 87t-20.5 97z" />
    <glyph glyph-name="h.ordn" horiz-adv-x="843" 
d="M756 618h-209l88 406q4 24 4 35q0 47 -26.5 74.5t-75.5 27.5q-54 0 -88.5 -36t-47.5 -95l-90 -412h-207l220 1039h208l-81 -387q32 38 82 58t100 20q108 0 164.5 -63t56.5 -165q0 -42 -8 -78z" />
    <glyph glyph-name="i.ordn" horiz-adv-x="409" 
d="M279 1544q0 56 40 95.5t97 39.5q48 0 79 -31.5t31 -76.5q0 -60 -40.5 -97.5t-96.5 -37.5q-47 0 -78.5 31t-31.5 77zM311 621h-209l152 708h209z" />
    <glyph glyph-name="j.ordn" horiz-adv-x="409" 
d="M96 586l158 743h209l-168 -790q-23 -104 -87.5 -157.5t-158.5 -53.5q-88 0 -139 34l35 164q29 -14 67 -14q74 0 84 74zM281 1544q0 56 39 95.5t96 39.5q50 0 81 -31.5t31 -76.5q0 -60 -40.5 -97.5t-96.5 -37.5q-49 0 -79.5 31t-30.5 77z" />
    <glyph glyph-name="k.ordn" horiz-adv-x="808" 
d="M571 621l-125 266l-96 -82l-39 -184h-207l220 1038h208l-118 -559l260 229h287l-355 -303l199 -405h-234z" />
    <glyph glyph-name="l.ordn" horiz-adv-x="409" 
d="M313 621h-209l220 1038h208z" />
    <glyph glyph-name="m.ordn" horiz-adv-x="1277" 
d="M1188 621h-207l88 407q4 24 4 37q0 44 -26.5 71t-75.5 27q-47 0 -80 -33.5t-47 -95.5l-90 -413h-211l88 407q4 24 4 37q0 44 -26.5 71t-76.5 27q-47 0 -81.5 -34t-47.5 -95l-90 -413h-207l123 589q15 73 15 119h202q0 -40 -4 -65q33 42 84 64t107 22q133 0 190 -105
q84 105 238 105q102 0 164.5 -65.5t62.5 -166.5q0 -36 -8 -69z" />
    <glyph glyph-name="n.ordn" horiz-adv-x="845" 
d="M758 621h-209l88 405q4 24 4 35q0 47 -26.5 74.5t-75.5 27.5q-54 0 -88.5 -36t-47.5 -95l-90 -411h-207l123 589q15 73 15 119h202q0 -38 -4 -67q32 43 85 65.5t108 22.5q106 0 163.5 -63.5t57.5 -164.5q0 -42 -8 -78z" />
    <glyph glyph-name="o.ordn" horiz-adv-x="847" 
d="M524 1163q-76 0 -126 -65.5t-50 -157.5q0 -69 37.5 -109t95.5 -40q69 0 123.5 57.5t54.5 163.5q0 72 -36 110.5t-99 40.5zM868 1020q0 -112 -50 -208t-142.5 -154t-208.5 -58q-145 0 -236.5 94.5t-91.5 237.5q0 185 117.5 302.5t284.5 117.5q148 0 237.5 -94t89.5 -238z
" />
    <glyph glyph-name="p.ordn" horiz-adv-x="888" 
d="M561 1163q-76 0 -127 -66t-51 -157q0 -71 38 -110t97 -39q69 0 124.5 59t55.5 164q0 73 -37.5 111t-99.5 38zM442 1260q29 37 80 60t111 23q133 0 204.5 -81t71.5 -211q0 -196 -104.5 -321.5t-263.5 -125.5q-76 0 -131.5 27.5t-81.5 66.5l-74 -350h-207l182 862
q15 73 15 119h202q0 -42 -4 -69z" />
    <glyph glyph-name="q.ordn" horiz-adv-x="870" 
d="M924 1329l-209 -983h-209l67 320q-62 -58 -153 -58q-126 0 -202.5 92t-76.5 226q0 183 104.5 302.5t256.5 119.5q89 0 137 -30t66 -65l16 76h203zM520 1157q-78 0 -124 -67t-46 -154q0 -69 36 -108.5t95 -39.5q68 0 118 61t50 167q0 68 -34.5 104.5t-94.5 36.5z" />
    <glyph glyph-name="r.ordn" horiz-adv-x="577" 
d="M649 1120q-42 10 -76 10q-68 0 -117.5 -40t-72.5 -144l-72 -325h-207l125 589q15 73 15 119h200q0 -47 -4 -80q59 86 172 86q24 0 82 -10z" />
    <glyph glyph-name="s.ordn" horiz-adv-x="679" 
d="M106 838l177 28q-2 -8 -2 -16q0 -41 27.5 -69.5t72.5 -28.5q39 0 59.5 18t20.5 45q0 45 -51 64l-72 30q-85 37 -121.5 87.5t-36.5 117.5q0 99 77.5 168.5t197.5 69.5q77 0 133 -22.5t83 -58.5t39 -70.5t13 -70.5l-178 -24q0 37 -20.5 65.5t-71.5 28.5q-34 0 -55 -17.5
t-21 -45.5q0 -40 39 -56l90 -37q160 -65 160 -208q0 -94 -74.5 -165t-204.5 -71q-123 0 -202 59.5t-79 178.5z" />
    <glyph glyph-name="t.ordn" horiz-adv-x="571" 
d="M479 1147l-57 -264q-4 -16 -4 -33q0 -62 74 -62q25 0 53 7l-37 -166q-38 -19 -96 -19q-96 0 -151.5 51.5t-55.5 139.5q0 29 6 59l59 287h-123l39 182h33q110 0 135 117l21 94h188l-47 -211h139l-39 -182h-137z" />
    <glyph glyph-name="u.ordn" horiz-adv-x="837" 
d="M246 1329h207l-86 -401q-5 -18 -5 -41q0 -46 26 -73.5t75 -27.5q56 0 87 40t42 94l90 409h207l-121 -577q-14 -72 -14 -131h-201q-2 14 -2 34q0 19 2 35q-24 -41 -72 -63.5t-100 -22.5q-112 0 -173 66t-61 170q0 32 9 73z" />
    <glyph glyph-name="v.ordn" horiz-adv-x="757" 
d="M901 1329l-412 -708h-206l-127 708h217l57 -452l238 452h233z" />
    <glyph glyph-name="w.ordn" horiz-adv-x="1210" 
d="M643 1329h221l51 -430l201 430h215l-362 -708h-205l-57 466l-240 -466h-215l-68 708h205l31 -428z" />
    <glyph glyph-name="x.ordn" horiz-adv-x="778" 
d="M442 823l-174 -202h-248l334 364l-186 344h229l95 -196l167 196h252l-329 -358l188 -350h-229z" />
    <glyph glyph-name="y.ordn" horiz-adv-x="759" 
d="M287 348h-230l238 383l-150 598h220l86 -381l225 381h231z" />
    <glyph glyph-name="z.ordn" horiz-adv-x="735" 
d="M668 621h-594l39 184l385 348h-301l39 176h577l-39 -172l-401 -358h334z" />
    <glyph glyph-name="space.tf" 
 />
    <glyph glyph-name="numbersign.tf" 
d="M147 811v197h213l70 321h213l-70 -321h213l70 321h215l-70 -321h179v-197h-219l-62 -287h176v-194h-219l-70 -330h-215l70 330h-213l-70 -330h-213l70 330h-170v194h213l61 287h-172zM532 811l-61 -287h213l61 287h-213z" />
    <glyph glyph-name="dollar.tf" 
d="M324 -227l49 229q-82 24 -145 70t-99 103t-54 116.5t-18 118.5q0 21 4 41l250 43q-2 -16 -2 -39q0 -47 14.5 -89.5t43 -78t77 -56.5t111.5 -22q89 0 142 42.5t55 113.5q0 88 -111 145q-8 4 -44 21t-68.5 32t-45.5 19q-256 114 -256 354q0 171 123.5 285.5t306.5 126.5
l43 211h222l-50 -234q76 -22 133.5 -65.5t88 -95t45 -101t14.5 -96.5l-254 -43q0 19 -3.5 39.5t-17 49.5t-35.5 51t-64 38t-97 16q-80 0 -131 -47t-51 -113q0 -96 102 -143l150 -67q276 -127 276 -365q0 -158 -120.5 -277.5t-319.5 -128.5l-43 -204h-221z" />
    <glyph glyph-name="percent.tf" 
d="M510 1081q0 44 -26.5 73.5t-71.5 29.5q-49 0 -87 -38.5t-38 -98.5q0 -44 26.5 -73.5t71.5 -29.5q49 0 87 38t38 99zM426 1348q111 0 184.5 -74.5t73.5 -181.5q0 -132 -95 -222t-218 -90q-111 0 -184.5 74t-73.5 182q0 132 93.5 222t219.5 90zM1151 1106l-43 -207
l-1040 -666l41 203zM932 289q0 44 -26 73t-70 29q-50 0 -87.5 -38t-37.5 -99q0 -44 26.5 -73t69.5 -29q50 0 87.5 37.5t37.5 99.5zM1108 299q0 -132 -95.5 -221.5t-219.5 -89.5q-110 0 -183 74t-73 182q0 132 93.5 221.5t219.5 89.5q109 0 183.5 -74.5t74.5 -181.5z" />
    <glyph glyph-name="plus.tf" 
d="M711 492v-402h-230v402h-387v223h387v399h230v-399h387v-223h-387z" />
    <glyph glyph-name="comma.tf" 
d="M287 158q0 94 66 155.5t161 61.5q94 0 152.5 -62.5t58.5 -160.5q0 -218 -151 -372.5t-371 -168.5l33 156q87 8 172 74.5t106 158.5q-16 -8 -53 -8q-77 0 -125.5 47.5t-48.5 118.5z" />
    <glyph glyph-name="period.tf" 
d="M492 -14q-84 0 -137.5 54.5t-53.5 131.5q0 93 69 161t167 68q84 0 137 -54t53 -132q0 -94 -69 -161.5t-166 -67.5z" />
    <glyph glyph-name="zero.tf" 
d="M348 477q0 -258 199 -258q68 0 124.5 46t92 116.5t60 158.5t34.5 167.5t10 148.5q0 55 -8.5 97.5t-29.5 79.5t-61.5 57t-98.5 20q-73 0 -131.5 -49.5t-93 -122.5t-57.5 -163.5t-31.5 -164.5t-8.5 -133zM532 -31q-121 1 -212 42t-144 111.5t-78.5 156t-25.5 186.5
q0 73 9 152t30.5 167t53 169.5t81 156t111 129.5t145.5 88t182 33q97 0 175.5 -27.5t131.5 -74t88.5 -111t51.5 -136t16 -151.5q0 -110 -19 -226t-66 -237t-115 -214.5t-175.5 -153.5t-239.5 -60z" />
    <glyph glyph-name="one.tf" 
d="M63 240h334l140 663h-304l41 187q131 5 240 71t150 168h243l-229 -1089h352l-51 -240h-965z" />
    <glyph glyph-name="two.tf" 
d="M-16 0q0 4 4 28.5t4 28.5q34 188 134 321.5t292 219.5l244 109q104 46 155 102t51 133q0 71 -46.5 120.5t-141.5 49.5q-114 0 -172.5 -77.5t-58.5 -213.5l-263 29q0 144 59.5 258.5t176.5 183t274 68.5q112 0 200.5 -31t142.5 -85t82 -123t28 -148q0 -305 -354 -465
l-283 -127q-45 -21 -85.5 -57t-64.5 -80h648l-52 -244h-974z" />
    <glyph glyph-name="three.tf" 
d="M479 612l-94 211l414 264h-586l47 242h942l-55 -276l-395 -254q129 -14 214 -108.5t85 -237.5q0 -94 -38.5 -181.5t-106 -154.5t-168 -107.5t-216.5 -40.5q-114 0 -208 36.5t-153.5 97.5t-91.5 138t-32 160q0 21 4 37l274 31q-2 -14 -2 -39q0 -94 57 -155.5t154 -61.5
q106 0 174 63.5t68 165.5q0 91 -59 138t-144 47q-43 0 -84 -15z" />
    <glyph glyph-name="four.tf" 
d="M-10 285l61 297l707 747h340l-172 -803h190l-51 -241h-191l-57 -285h-278l57 285h-606zM647 526l109 500l-465 -500h356z" />
    <glyph glyph-name="five.tf" 
d="M47 397v9l266 51q-2 -4 -2 -27q0 -91 57.5 -156t159.5 -65q100 0 172 65.5t72 180.5q0 91 -59.5 143.5t-151.5 52.5q-110 0 -186 -69l-236 116l277 631h747l-51 -244h-543l-118 -264q79 49 194 49q194 0 303 -103.5t109 -281.5q0 -106 -38 -200.5t-106 -165t-169 -111.5
t-220 -41q-210 0 -343.5 127t-133.5 303z" />
    <glyph glyph-name="six.tf" 
d="M1229 1270l-113 -217q-104 55 -252 55q-162 0 -291 -90.5t-180 -253.5q50 56 126.5 87.5t162.5 31.5q191 0 300.5 -106t109.5 -279q0 -114 -42.5 -213t-114.5 -167.5t-171 -107.5t-209 -39q-210 0 -347.5 140t-137.5 370q0 176 59 334t163.5 276t258.5 187.5t334 69.5
q111 0 202 -21.5t142 -56.5zM596 655q-103 0 -174.5 -68t-71.5 -173q0 -89 58.5 -146t152.5 -57q100 0 172 67.5t72 178.5q0 90 -56.5 144t-152.5 54z" />
    <glyph glyph-name="seven.tf" 
d="M176 1090l49 239h1053l-49 -235q-32 -21 -70.5 -50.5t-99.5 -84.5t-120 -118.5t-128.5 -155t-129.5 -190.5t-118 -228.5t-98 -266.5h-297q35 133 89.5 261t112.5 227t126 192.5t124.5 157t116 121t92 84.5t58.5 47h-711z" />
    <glyph glyph-name="eight.tf" 
d="M653 780q92 0 150.5 55.5t58.5 135.5q0 64 -45 109.5t-129 45.5q-101 0 -158 -56t-57 -134q0 -63 46 -109.5t134 -46.5zM326 373q0 -78 59 -126t152 -48q102 0 167.5 60t65.5 144q0 74 -53.5 124.5t-157.5 50.5t-168.5 -60t-64.5 -145zM1042 381q0 -95 -43 -174
t-115.5 -130t-166.5 -79.5t-197 -28.5q-205 0 -338 98t-133 271q0 129 90.5 225t237.5 127q-72 32 -123 106.5t-51 161.5q0 118 65.5 210t178 142t251.5 50q211 0 330 -100.5t119 -253.5q0 -119 -76.5 -211.5t-208.5 -130.5q82 -31 131 -111.5t49 -171.5z" />
    <glyph glyph-name="nine.tf" 
d="M408 877q0 -89 56.5 -143t151.5 -54q103 0 171.5 66.5t68.5 171.5q0 90 -57.5 145t-149.5 55q-99 0 -170 -65t-71 -176zM-6 76l110 217q122 -74 267 -74q168 0 292 97.5t162 261.5q-47 -59 -120 -91t-160 -32q-185 0 -301.5 112t-116.5 289q0 151 73 267.5t193.5 176.5
t265.5 60q215 0 350.5 -137.5t135.5 -372.5q0 -198 -58 -363t-160 -278.5t-245.5 -176.5t-312.5 -63q-228 0 -375 107z" />
    <glyph glyph-name="colon.tf" 
d="M485 -18q-77 0 -125.5 50.5t-48.5 123.5q0 86 62.5 147.5t152.5 61.5q78 0 126 -50t48 -122q0 -85 -63 -148t-152 -63zM627 643q-77 0 -126.5 50.5t-49.5 121.5q0 85 63 147t152 62q78 0 127 -49t49 -121q0 -86 -63.5 -148.5t-151.5 -62.5z" />
    <glyph glyph-name="semicolon.tf" 
d="M301 145q0 85 60 141t147 56t140.5 -57t53.5 -146q0 -199 -139 -341t-340 -154l31 143q80 8 157.5 68.5t96.5 144.5q-16 -8 -47 -8q-71 0 -115.5 43.5t-44.5 109.5zM618 639q-78 0 -127 50t-49 122q0 87 63.5 150t153.5 63q78 0 128.5 -50t50.5 -122q0 -88 -64.5 -150.5
t-155.5 -62.5z" />
    <glyph glyph-name="less.tf" 
d="M109 500v207l880 444v-252l-606 -293l606 -293v-256z" />
    <glyph glyph-name="equal.tf" 
d="M94 698v220h993v-220h-993zM94 291v221h993v-221h-993z" />
    <glyph glyph-name="greater.tf" 
d="M1087 707v-205l-880 -445v252l606 293l-606 293v256z" />
    <glyph glyph-name="cent.tf" 
d="M387 0l41 195q-131 44 -206 153.5t-75 255.5q0 150 67 271.5t176.5 191.5t240.5 84l37 178h209l-41 -196q114 -33 181.5 -113t86.5 -178l-234 -68q-13 65 -63.5 108.5t-136.5 43.5q-104 0 -184 -84.5t-80 -233.5q0 -99 58 -156t154 -57q143 0 218 135l215 -79
q-27 -55 -65 -102.5t-89.5 -88.5t-119.5 -66.5t-146 -29.5l-35 -164h-209z" />
    <glyph glyph-name="sterling.tf" 
d="M90 559l45 209h137q-14 72 -14 133q0 124 52 226t157.5 165.5t247.5 63.5q102 0 180.5 -28.5t124 -77.5t68 -109.5t22.5 -130.5q0 -40 -6 -58l-246 -26q4 16 4 47q0 68 -39.5 111.5t-115.5 43.5q-84 0 -138.5 -56.5t-54.5 -170.5q0 -43 16 -133h363l-45 -209h-295
q-8 -107 -65.5 -194t-153.5 -127h330q85 0 135 49.5t61 126.5l236 -43q-28 -167 -142 -269t-278 -102h-711l51 246q123 24 196 112.5t83 200.5h-205z" />
    <glyph glyph-name="currency.tf" 
d="M135 502q0 119 60 221l-148 149l164 164l151 -153q99 55 216 55q115 0 210 -53l150 151l166 -164l-146 -145q64 -103 64 -225q0 -125 -64 -223l146 -146l-164 -164l-149 150q-95 -53 -213 -53q-120 0 -218 55l-149 -152l-164 164l148 150q-60 97 -60 219zM362 502
q0 -93 61.5 -154t154.5 -61q94 0 154.5 60.5t60.5 154.5t-60.5 154.5t-154.5 60.5q-93 0 -154.5 -61t-61.5 -154z" />
    <glyph glyph-name="yen.tf" 
d="M131 610l41 193h201l-185 526h295l150 -502l356 502h311l-405 -526h217l-41 -193h-344l-31 -141h344l-43 -193h-342l-57 -276h-266l57 276h-330l43 193h328l31 141h-330z" />
    <glyph glyph-name="section.tf" 
d="M31 4l262 19q-8 -31 -8 -62q0 -73 45 -113.5t121 -40.5q68 0 116.5 43.5t48.5 112.5q0 73 -61 115l-186 129q-66 44 -110.5 86.5t-75.5 104t-31 130.5q0 113 63 186t156 109q-103 100 -103 248q0 92 41 171t107 131t147.5 81t165.5 29q192 0 300 -100t108 -253
q0 -25 -7 -69l-262 -19q6 18 6 60q0 72 -44 111.5t-119 39.5q-68 0 -117 -44t-49 -111q0 -68 63 -113l183 -129q106 -75 162.5 -147t56.5 -170q0 -79 -34 -143t-80.5 -99.5t-104.5 -58.5q102 -99 102 -238q0 -95 -40.5 -175.5t-106 -133t-148 -82t-168.5 -29.5
q-190 0 -297.5 99.5t-107.5 250.5q0 34 6 74zM688 592l-182 129q-94 -51 -94 -141q0 -67 61 -109l182 -131q95 54 95 143q0 64 -62 109z" />
    <glyph glyph-name="logicalnot.tf" 
d="M1071 279h-235v399h-744v225h979v-624z" />
    <glyph glyph-name="plusminus.tf" 
d="M688 641v-252h-229v252h-365v221h365v252h229v-252h365v-221h-365zM94 90v223h959v-223h-959z" />
    <glyph glyph-name="multiply.tf" 
d="M258 98l-162 162l338 344l-338 344l164 162l336 -342l338 342l164 -160l-340 -346l340 -344l-162 -164l-340 344z" />
    <glyph glyph-name="divide.tf" 
d="M96 492v227h1000v-227h-1000zM430 229q0 66 47.5 113t112.5 47q66 0 113 -47t47 -113q0 -65 -47 -112t-113 -47q-65 0 -112.5 47.5t-47.5 111.5zM430 981q0 64 47.5 111t112.5 47q66 0 113 -46.5t47 -111.5t-47 -112.5t-113 -47.5q-64 0 -112 47.5t-48 112.5z" />
    <glyph glyph-name="florin.tf" 
d="M317 55l146 721h-201v230h248l39 188q16 82 55 145.5t92 101t112.5 56.5t123.5 19q66 0 99 -5.5t83 -21.5v-236q-69 15 -123 15q-35 0 -66 -10t-64.5 -46.5t-45.5 -97.5l-22 -108h239v-230h-287l-161 -803q-16 -81 -55 -144.5t-92 -101t-113 -56.5t-123 -19
q-66 0 -103.5 6.5t-85.5 22.5v233q65 -14 133 -14q141 0 172 155z" />
    <glyph glyph-name="uni2007.tf" 
 />
    <glyph glyph-name="uni2008.tf" 
 />
    <glyph glyph-name="perthousand.tf" 
d="M502 133q40 0 72 33.5t32 83.5q0 39 -22 62.5t-60 23.5q-40 0 -72 -33.5t-32 -83.5q0 -39 22 -62.5t60 -23.5zM113 1077q0 116 82 194.5t192 78.5q98 0 163.5 -65t65.5 -161q0 -118 -83 -196t-193 -78q-99 0 -163 65.5t-64 161.5zM489 -18q-99 0 -163 65.5t-64 161.5
q0 116 83 195t194 79q98 0 161 -69q72 69 179 69q98 0 162.5 -64.5t64.5 -160.5q0 -118 -83.5 -197t-191.5 -79q-99 0 -163 71q-77 -71 -179 -71zM1155 1214l-45 -210l-1049 -652l45 209zM375 1202q-42 0 -73.5 -33t-31.5 -84q0 -39 22 -62.5t58 -23.5q43 0 75 31.5t32 85.5
q0 37 -22 61t-60 25zM842 133q43 0 74.5 31.5t31.5 85.5q0 37 -22.5 61.5t-61.5 24.5q-42 0 -73 -31.5t-31 -85.5q0 -37 22 -61.5t60 -24.5z" />
    <glyph glyph-name="Euro.tf" 
d="M96 725l41 193h142q93 201 277.5 321.5t406.5 120.5q109 0 177 -18.5t136 -53.5l-117 -223q-78 49 -217 49q-101 0 -200 -49.5t-164 -146.5h505l-96 -193h-487q-15 -77 -15 -131h445l-96 -193h-310q44 -91 136 -137.5t212 -46.5q59 0 117 14l15 -235q-82 -29 -179 -29
q-217 0 -379.5 118t-216.5 316h-202l41 193h139q0 45 12 131h-123z" />
    <glyph glyph-name="minus.tf" 
d="M109 494v223h972v-223h-972z" />
    <glyph glyph-name="approxequal.tf" 
d="M993 535l146 -119q-56 -99 -144 -152t-190 -53q-109 0 -219 61l-99 54q-58 28 -108 28q-103 0 -178 -96l-150 121q57 99 144.5 153t189.5 54q107 0 219 -62l96 -53q56 -33 119 -33q105 0 174 97zM993 948l146 -121q-56 -99 -143.5 -151.5t-190.5 -52.5q-109 0 -219 61
l-99 53q-57 31 -110 31q-100 0 -176 -98l-150 121q57 99 143.5 152.5t188.5 53.5q108 0 221 -61l96 -53q56 -33 119 -33q104 0 174 98z" />
    <glyph glyph-name="notequal.tf" 
d="M100 698v220h594l123 188h246l-123 -188h154v-220h-297l-121 -186h418v-221h-564l-129 -199h-245l129 199h-185v221h330l121 186h-451z" />
    <glyph glyph-name="lessequal.tf" 
d="M131 90v223h881v-223h-881zM131 647v221l881 279v-225l-572 -160l572 -162v-229z" />
    <glyph glyph-name="greaterequal.tf" 
d="M1042 313v-223h-880v223h880zM1042 868v-221l-880 -276v225l571 160l-571 162v229z" />
    <glyph glyph-name="parenleft.case" horiz-adv-x="727" 
d="M98 504q0 371 169 668.5t489 496.5l125 -162q-130 -93 -225.5 -188t-173 -215t-117 -269t-39.5 -325q0 -168 53.5 -333t146.5 -302l-176 -125q-109 146 -180.5 343t-71.5 411z" />
    <glyph glyph-name="parenright.case" horiz-adv-x="720" 
d="M668 915q0 -368 -169.5 -664t-488.5 -501l-123 162q102 77 180 149t151.5 165.5t120.5 192.5t75 224.5t28 267.5q0 167 -54 332t-148 301l178 125q108 -147 179 -344t71 -410z" />
    <glyph glyph-name="hyphen.case" horiz-adv-x="858" 
d="M719 590h-594l51 241h596z" />
    <glyph glyph-name="bracketleft.case" horiz-adv-x="686" 
d="M436 -223h-471l402 1896h471l-43 -209h-244l-315 -1476h245z" />
    <glyph glyph-name="bracketright.case" horiz-adv-x="686" 
d="M369 -223h-471l43 211h243l316 1476h-246l45 209h471z" />
    <glyph glyph-name="braceleft.case" horiz-adv-x="782" 
d="M45 614l47 228q61 0 110.5 17.5t88.5 60.5t53 110l51 246q44 213 161.5 304t311.5 91h70l-45 -207h-59q-170 0 -209 -182l-64 -297q-22 -104 -88.5 -174t-171.5 -90q73 -20 111.5 -76t38.5 -133q0 -26 -7 -70l-55 -266q-6 -34 -6 -59q0 -129 145 -129h52l-43 -207h-58
q-152 0 -238.5 80t-86.5 225q0 52 12 113l47 223q6 30 6 55q0 70 -47 103.5t-127 33.5z" />
    <glyph glyph-name="braceright.case" horiz-adv-x="782" 
d="M788 838l-49 -228q-93 0 -161.5 -45t-88.5 -143l-51 -246q-44 -212 -162.5 -303.5t-310.5 -91.5h-69l43 207h61q81 0 134 41.5t75 140.5l63 297q23 105 89.5 175.5t170.5 88.5q-73 22 -112 77t-39 132q0 37 8 70l55 266q7 35 7 57q0 131 -146 131h-51l43 207h57
q151 0 238.5 -80.5t87.5 -224.5q0 -54 -12 -113l-50 -223q-6 -27 -6 -53q0 -71 48 -105t128 -34z" />
    <glyph glyph-name="exclamdown.case" horiz-adv-x="569" 
d="M473 1010l-147 -1010h-330l278 1010h199zM590 1323q0 -74 -52.5 -127t-125.5 -53q-66 0 -107 42t-41 103q0 74 53.5 127t122.5 53q65 0 107.5 -41.5t42.5 -103.5z" />
    <glyph glyph-name="guillemotleft.case" horiz-adv-x="1167" 
d="M549 309h-246l-205 404l361 397h272l-379 -414zM997 309h-245l-205 404l360 397h273l-379 -414z" />
    <glyph glyph-name="uni00AD.case" horiz-adv-x="870" 
d="M731 600h-594l41 244h594z" />
    <glyph glyph-name="guillemotright.case" horiz-adv-x="1173" 
d="M209 1110h246l207 -405l-363 -396h-270l377 414zM666 1110h245l207 -405l-362 -396h-271l377 414z" />
    <glyph glyph-name="questiondown.case" horiz-adv-x="1079" 
d="M543 1014h219q-4 -262 -223 -385l-115 -66q-119 -68 -119 -190q0 -67 44.5 -113.5t133.5 -46.5q112 0 174 78t62 188l254 -28q-3 -206 -144.5 -343t-363.5 -137q-107 0 -193.5 31t-139.5 83t-81 116t-28 133q0 268 278 426l96 55q71 40 105.5 86.5t40.5 112.5zM846 1325
q0 -73 -53 -126.5t-127 -53.5q-66 0 -106 41.5t-40 103.5q0 74 53 127t123 53q65 0 107.5 -41.5t42.5 -103.5z" />
    <glyph glyph-name="endash.case" horiz-adv-x="1323" 
d="M1184 592h-1057l49 235h1057z" />
    <glyph glyph-name="emdash.case" horiz-adv-x="2191" 
d="M2052 592h-1925l49 235h1925z" />
    <glyph glyph-name="guilsinglleft.case" horiz-adv-x="718" 
d="M549 309h-246l-205 404l361 397h272l-379 -414z" />
    <glyph glyph-name="guilsinglright.case" horiz-adv-x="716" 
d="M209 1110h246l207 -405l-363 -396h-270l377 414z" />
    <glyph glyph-name="G.ss01" horiz-adv-x="1556" 
d="M901 1483q112 0 208.5 -26t165 -69.5t120.5 -103t81.5 -123.5t41.5 -133l-277 -82q-23 114 -112.5 191t-247.5 77q-130 0 -239 -70.5t-175 -202.5t-66 -298q0 -183 103 -295t282 -112q154 0 257 78.5t135 189.5h-492l53 244h764q-5 -162 -55 -302t-140.5 -247.5
t-230 -169.5t-311.5 -62q-186 0 -335.5 86t-233.5 237t-84 337q0 198 67 362.5t178 271t251.5 164.5t291.5 58z" />
    <glyph glyph-name="Gcircumflex.ss01" horiz-adv-x="1556" 
d="M901 1483q112 0 208.5 -26t165 -69.5t120.5 -103t81.5 -123.5t41.5 -133l-277 -82q-23 114 -112.5 191t-247.5 77q-130 0 -239 -70.5t-175 -202.5t-66 -298q0 -183 103 -295t282 -112q154 0 257 78.5t135 189.5h-492l53 244h764q-5 -162 -55 -302t-140.5 -247.5
t-230 -169.5t-311.5 -62q-186 0 -335.5 86t-233.5 237t-84 337q0 198 67 362.5t178 271t251.5 164.5t291.5 58zM784 1554h-256l299 261h281l192 -261h-237l-111 134z" />
    <glyph glyph-name="Gbreve.ss01" horiz-adv-x="1556" 
d="M901 1483q112 0 208.5 -26t165 -69.5t120.5 -103t81.5 -123.5t41.5 -133l-277 -82q-23 114 -112.5 191t-247.5 77q-130 0 -239 -70.5t-175 -202.5t-66 -298q0 -183 103 -295t282 -112q154 0 257 78.5t135 189.5h-492l53 244h764q-5 -162 -55 -302t-140.5 -247.5
t-230 -169.5t-311.5 -62q-186 0 -335.5 86t-233.5 237t-84 337q0 198 67 362.5t178 271t251.5 164.5t291.5 58zM965 1544q-132 0 -214.5 65.5t-82.5 176.5q0 23 4 35h196q-2 -10 -2 -21q0 -36 28.5 -60t82.5 -24q61 0 99.5 30t49.5 75h213q-31 -113 -128 -195t-246 -82z" />
    <glyph glyph-name="Gdotaccent.ss01" horiz-adv-x="1556" 
d="M901 1483q112 0 208.5 -26t165 -69.5t120.5 -103t81.5 -123.5t41.5 -133l-277 -82q-23 114 -112.5 191t-247.5 77q-130 0 -239 -70.5t-175 -202.5t-66 -298q0 -183 103 -295t282 -112q154 0 257 78.5t135 189.5h-492l53 244h764q-5 -162 -55 -302t-140.5 -247.5
t-230 -169.5t-311.5 -62q-186 0 -335.5 86t-233.5 237t-84 337q0 198 67 362.5t178 271t251.5 164.5t291.5 58zM795 1700q0 69 54 122.5t128 53.5q65 0 107 -41.5t42 -101.5q0 -76 -53.5 -129.5t-126.5 -53.5q-66 0 -108.5 43.5t-42.5 106.5z" />
    <glyph glyph-name="Gcommaaccent.ss01" horiz-adv-x="1556" 
d="M901 1483q112 0 208.5 -26t165 -69.5t120.5 -103t81.5 -123.5t41.5 -133l-277 -82q-23 114 -112.5 191t-247.5 77q-130 0 -239 -70.5t-175 -202.5t-66 -298q0 -183 103 -295t282 -112q154 0 257 78.5t135 189.5h-492l53 244h764q-5 -162 -55 -302t-140.5 -247.5
t-230 -169.5t-311.5 -62q-186 0 -335.5 86t-233.5 237t-84 337q0 198 67 362.5t178 271t251.5 164.5t291.5 58zM582 -227q0 60 44 100.5t111 40.5q69 0 111.5 -43.5t42.5 -110.5q0 -128 -86 -200t-201 -72q-35 0 -59 6l22 96q10 -2 29 -2q51 0 94 19t60 61q-8 -8 -43 -8
q-59 0 -92 33t-33 80z" />
    <glyph glyph-name="r.ss03" horiz-adv-x="806" 
d="M627 657q-74 0 -121 48t-47 116v23l-180 -844h-271l193 905q10 51 10 103h274q0 -36 -8 -82l-12 -54q19 64 74.5 107t126.5 43q73 0 119 -48t46 -116q0 -82 -60 -141.5t-144 -59.5z" />
    <glyph glyph-name="racute.ss03" horiz-adv-x="806" 
d="M903 1436l-344 -308h-233l245 308h332zM627 657q-74 0 -121 48t-47 116v23l-180 -844h-271l193 905q10 51 10 103h274q0 -36 -8 -82l-12 -54q19 64 74.5 107t126.5 43q73 0 119 -48t46 -116q0 -82 -60 -141.5t-144 -59.5z" />
    <glyph glyph-name="rcommaaccent.ss03" horiz-adv-x="806" 
d="M-51 -227q0 60 44 100.5t111 40.5q69 0 111.5 -43.5t42.5 -110.5q0 -128 -86 -200t-201 -72q-35 0 -59 6l22 96q10 -2 29 -2q51 0 94 19t60 61q-8 -8 -43 -8q-59 0 -92 33t-33 80zM627 657q-74 0 -121 48t-47 116v23l-180 -844h-271l193 905q10 51 10 103h274
q0 -36 -8 -82l-12 -54q19 64 74.5 107t126.5 43q73 0 119 -48t46 -116q0 -82 -60 -141.5t-144 -59.5z" />
    <glyph glyph-name="rcaron.ss03" horiz-adv-x="806" 
d="M705 1434h235l-291 -304h-272l-162 304h211l111 -154zM627 657q-74 0 -121 48t-47 116v23l-180 -844h-271l193 905q10 51 10 103h274q0 -36 -8 -82l-12 -54q19 64 74.5 107t126.5 43q73 0 119 -48t46 -116q0 -82 -60 -141.5t-144 -59.5z" />
    <glyph glyph-name="ampersand.ss04" horiz-adv-x="1396" 
d="M1317 451h-152q-41 -209 -200 -345.5t-387 -136.5q-127 0 -229.5 34t-167.5 92.5t-99.5 133.5t-34.5 160q0 98 37 180t96.5 133t125 81.5t132.5 39.5q-74 36 -119 106t-45 156q0 117 68.5 210.5t172 141.5t216.5 48q108 0 193.5 -30.5t138.5 -82t80.5 -116.5t27.5 -138
q0 -32 -6 -69l-270 -11q4 18 4 52q0 72 -42 116.5t-130 44.5q-70 0 -127 -49t-57 -129q0 -73 51 -112t125 -39l-51 -234h-33q-37 0 -74.5 -7t-78.5 -26t-72 -48t-51.5 -77t-20.5 -108q0 -86 65 -148.5t189 -62.5q108 0 189.5 64.5t107.5 175.5h-176l49 235h602z" />
    <glyph glyph-name="one.ss05" horiz-adv-x="1009" 
d="M25 240h274l139 663h-280l39 187q128 3 227 68.5t141 170.5h244l-229 -1089h317l-51 -240h-871z" />
    <glyph glyph-name="registered.ss06" horiz-adv-x="962" 
d="M184 1077q0 161 115 276t276 115q162 0 278 -115t116 -276t-116 -276t-278 -115q-161 0 -276 115t-115 276zM293 1077q0 -122 81 -205.5t201 -83.5t201.5 83.5t81.5 205.5t-81.5 205.5t-201.5 83.5t-201 -83.5t-81 -205.5zM559 1108h33q25 0 41 11.5t16 31.5
q0 22 -9.5 31.5t-31.5 9.5h-30zM596 883l-31 133h-24l-29 -133h-115l86 401h160q56 0 88.5 -32t32.5 -83q0 -49 -26.5 -85t-69.5 -50l43 -151h-115z" />
    <glyph glyph-name="quotedbl.ss08" horiz-adv-x="858" 
d="M246 891l-15 356l-1 10q0 10 -0.5 25t-0.5 29q0 69 47.5 116.5t118.5 47.5q64 0 104 -38.5t40 -97.5q0 -34 -23 -86l-176 -362h-94zM631 891l-15 356v10q-1 10 -1.5 25t-0.5 29q0 69 47 116.5t119 47.5q64 0 105 -38.5t41 -97.5q0 -30 -25 -86l-174 -362h-96z" />
    <glyph glyph-name="numbersign.ss08" horiz-adv-x="1464" 
d="M737 0l76 367h-276l-76 -367h-211l76 367h-252v196h295l71 338h-258v197h299l76 354h211l-76 -354h275l75 354h213l-73 -354h262v-197h-305l-72 -338h264v-196h-305l-76 -367h-213zM651 901l-71 -338h274l72 338h-275z" />
    <glyph glyph-name="dollar.ss08" horiz-adv-x="1173" 
d="M215 1012q0 92 36 171.5t97.5 134.5t142.5 89t171 41h8l47 233h225l-53 -256q79 -24 138 -68.5t91 -98.5t47 -106t15 -103l-252 -43q0 21 -4.5 44t-19 53.5t-38.5 54t-68 40t-102 16.5q-91 0 -150 -52.5t-59 -125.5q0 -58 29.5 -93.5t85.5 -59.5l158 -70
q153 -66 224 -160.5t71 -222.5q0 -81 -32.5 -156t-91 -134.5t-148.5 -97t-197 -42.5l-49 -236h-228l56 261q-110 32 -186 102.5t-108 149t-32 161.5q0 32 4 64l250 43q-4 -28 -4 -53q0 -108 67 -181t197 -73q101 0 160 47t59 125q0 53 -27 92t-92 65l-172 72
q-133 56 -199.5 151.5t-66.5 221.5z" />
    <glyph glyph-name="percent.ss08" horiz-adv-x="1773" 
d="M186 0l1207 1452h245l-1206 -1452h-246zM545 1475q129 0 216 -88.5t87 -215.5q0 -78 -32 -147t-83.5 -116t-118 -74t-135.5 -27q-132 0 -217.5 86t-85.5 215q0 155 110.5 261t258.5 106zM496 997q59 0 104 45t45 119q0 53 -32 87t-87 34q-59 0 -103 -45t-44 -117
q0 -55 31 -88.5t86 -34.5zM1346 645q130 0 216.5 -87t86.5 -214q0 -105 -54 -190.5t-138 -131t-177 -45.5q-132 0 -217.5 87t-85.5 215q0 155 110.5 260.5t258.5 105.5zM1296 168q59 0 104.5 46t45.5 120q0 53 -32 87t-87 34q-58 0 -102.5 -46t-44.5 -118q0 -55 30.5 -88.5
t85.5 -34.5z" />
    <glyph glyph-name="quotesingle.ss08" horiz-adv-x="471" 
d="M246 891l-15 356l-1 10q0 10 -0.5 25t-0.5 29q0 69 47.5 116.5t118.5 47.5q64 0 104 -38.5t40 -97.5q0 -34 -23 -86l-176 -362h-94z" />
    <glyph glyph-name="plus.ss08" horiz-adv-x="1181" 
d="M111 825h387v400h231v-400h387v-223h-387v-401h-231v401h-387v223z" />
    <glyph glyph-name="zero.ss08" horiz-adv-x="1376" 
d="M625 -31q-135 0 -237.5 47t-162.5 127.5t-89.5 178.5t-29.5 210q0 83 11.5 171.5t37.5 182t64 179t95 162.5t126.5 133.5t162.5 89.5t198 33q110 0 199 -31t148 -84t98.5 -125.5t57 -152.5t17.5 -168q0 -101 -17.5 -206.5t-52 -214t-92 -203t-132 -169t-178.5 -117.5
t-224 -43zM385 535q0 -145 63 -229.5t193 -84.5q84 0 154 49t114.5 125t75 172t43 186t12.5 171q0 142 -62 223.5t-196 81.5q-84 0 -154 -48t-114 -122.5t-74 -169t-42.5 -183.5t-12.5 -171z" />
    <glyph glyph-name="one.ss08" horiz-adv-x="776" 
d="M508 0h-281l211 1008h-309l39 184q140 6 246.5 76t152.5 184h246z" />
    <glyph glyph-name="two.ss08" horiz-adv-x="1249" 
d="M442 645l267 123q121 56 179 119.5t58 150.5q0 83 -53 140t-162 57q-129 0 -199.5 -86t-70.5 -234v-10l-264 27v8q0 151 64.5 273.5t191 196t292.5 73.5q120 0 214 -33t152 -90.5t88 -131.5t30 -159q0 -333 -381 -506l-311 -141q-135 -64 -185 -174h729l-53 -248h-1057
l4 31q57 428 467 614z" />
    <glyph glyph-name="three.ss08" horiz-adv-x="1259" 
d="M520 678l-98 223l471 307h-657l49 244h1011l-57 -285l-444 -295q140 -16 235.5 -119t95.5 -261q0 -101 -41 -195.5t-113 -167t-180 -116.5t-233 -44q-99 0 -184 25.5t-146 70t-104.5 104t-64.5 127t-21 138.5q0 29 2 47l276 31q-2 -18 -2 -47q0 -106 65 -178t179 -72
q124 0 201.5 72.5t77.5 191.5q0 105 -68 159t-164 54q-46 0 -86 -14z" />
    <glyph glyph-name="four.ss08" horiz-adv-x="1339" 
d="M-2 313l65 308l801 831h348l-192 -891h254l-51 -248h-254l-64 -313h-276l61 313h-692zM741 561l127 588l-561 -588h434z" />
    <glyph glyph-name="five.ss08" horiz-adv-x="1222" 
d="M31 436q0 9 2 13l266 49q-2 -12 -2 -31q0 -105 65.5 -179.5t184.5 -74.5q115 0 197.5 76t82.5 209q0 104 -67 164.5t-172 60.5q-125 0 -211 -76l-242 127l303 678h805l-51 -244h-600l-141 -313q83 53 215 53q207 0 327.5 -112.5t120.5 -307.5q0 -114 -41.5 -216
t-114.5 -178t-181 -120.5t-234 -44.5q-229 0 -370.5 135t-141.5 332z" />
    <glyph glyph-name="six.ss08" horiz-adv-x="1306" 
d="M1346 1391l-111 -215q-117 57 -268 57q-194 0 -337.5 -106t-201.5 -296q52 61 139 96.5t185 35.5q208 0 327 -115t119 -307q0 -126 -46.5 -234t-125.5 -181.5t-185.5 -115t-224.5 -41.5q-107 0 -201 38t-164.5 107.5t-111.5 174.5t-41 231q0 153 37.5 296t112.5 263.5
t178 211t242.5 141.5t298.5 51q116 0 216 -24t163 -68zM670 731q-122 0 -204.5 -79.5t-82.5 -202.5q0 -104 69.5 -171t176.5 -67q115 0 198.5 78.5t83.5 210.5q0 105 -65.5 168t-175.5 63z" />
    <glyph glyph-name="seven.ss08" horiz-adv-x="1161" 
d="M1307 1452l-50 -242q-37 -24 -79.5 -56.5t-110 -94t-132.5 -131t-141.5 -170t-142.5 -210.5t-130 -253t-109 -295h-297q41 155 104.5 302.5t129 258.5t145.5 216t142 172t129.5 129.5t97.5 86t57 43.5h-750l51 244h1086z" />
    <glyph glyph-name="eight.ss08" horiz-adv-x="1267" 
d="M1124 418q0 -136 -78.5 -240t-206 -156.5t-280.5 -52.5q-227 0 -366.5 108t-139.5 290q0 142 97.5 246.5t261.5 138.5q-77 34 -133 115.5t-56 174.5q0 130 72 231.5t193.5 155.5t269.5 54q225 0 352 -107.5t127 -271.5q0 -131 -84 -232.5t-229 -142.5q93 -34 146.5 -121
t53.5 -190zM705 846q109 0 178 63.5t69 159.5q0 74 -53 127t-149 53q-119 0 -186.5 -64.5t-67.5 -158.5q0 -75 54.5 -127.5t154.5 -52.5zM332 399q0 -90 67.5 -144t175.5 -54q119 0 197 68t78 167q0 86 -62 143.5t-180 57.5q-122 0 -199 -69t-77 -169z" />
    <glyph glyph-name="nine.ss08" horiz-adv-x="1310" 
d="M446 956q0 -103 66 -166t174 -63q120 0 198.5 78.5t78.5 200.5q0 105 -66.5 169t-171.5 64q-114 0 -196.5 -77t-82.5 -206zM16 86l113 217q128 -82 295 -82q196 0 333.5 113.5t174.5 304.5q-51 -66 -133 -103.5t-185 -37.5q-196 0 -324 122t-128 316q0 123 46.5 227.5
t126 173.5t184 107.5t220.5 38.5q228 0 373 -146.5t145 -404.5q0 -284 -103 -502.5t-293 -339.5t-439 -121q-114 0 -222 29t-184 88z" />
    <glyph glyph-name="less.ss08" horiz-adv-x="1150" 
d="M106 610v205l881 447v-254l-606 -291l606 -295v-256z" />
    <glyph glyph-name="equal.ss08" horiz-adv-x="1341" 
d="M1176 809h-994v219h994v-219zM1176 401h-994v222h994v-222z" />
    <glyph glyph-name="greater.ss08" horiz-adv-x="1148" 
d="M1090 817v-207l-881 -444v252l606 293l-606 295v256z" />
    <glyph glyph-name="cent.ss08" horiz-adv-x="1150" 
d="M670 1014q-113 0 -200 -91.5t-87 -246.5q0 -105 62 -167.5t165 -62.5q79 0 139 41.5t93 108.5l221 -86q-57 -131 -173 -219.5t-278 -95.5l-39 -195h-206l47 225q-135 48 -217 167.5t-82 277.5q0 123 42 230.5t113 183t164 122.5t195 58l41 188h207l-43 -207
q123 -33 197.5 -121.5t94.5 -199.5l-245 -70q-13 68 -66.5 114t-144.5 46z" />
    <glyph glyph-name="sterling.ss08" horiz-adv-x="1327" 
d="M162 805h151q-24 144 -24 215q0 201 130.5 330t342.5 129q106 0 191.5 -34t137 -89t78.5 -120.5t27 -133.5q0 -37 -4 -53l-244 -25q4 28 4 41q0 81 -53.5 132.5t-142.5 51.5q-96 0 -154.5 -65t-58.5 -176q0 -45 22 -203h387l-43 -205h-331q-3 -112 -58.5 -212.5
t-152.5 -149.5h393q92 0 151.5 49.5t73.5 134.5l229 -45q-28 -173 -145 -275t-297 -102h-784l51 231q122 32 199 134.5t86 234.5h-203z" />
    <glyph glyph-name="currency.ss08" horiz-adv-x="1347" 
d="M233 715q0 119 62 219l-148 151l164 164l152 -155q99 55 215 55q115 0 209 -51l149 151l166 -164l-145 -147q63 -101 63 -223q0 -124 -61 -223l143 -146l-164 -164l-147 150q-95 -53 -213 -53q-120 0 -217 57l-152 -154l-162 164l146 148q-60 107 -60 221zM463 715
q0 -95 60.5 -155t154.5 -60q93 0 153 60t60 155q0 93 -60 153t-153 60q-94 0 -154.5 -59.5t-60.5 -153.5z" />
    <glyph glyph-name="yen.ss08" horiz-adv-x="1368" 
d="M1124 311h-379l-63 -311h-270l67 311h-358l41 193h356l31 137h-359l41 195h232l-227 616h290l201 -588l440 588h308l-490 -616h250l-41 -195h-379l-29 -137h381z" />
    <glyph glyph-name="ordfeminine.ss08" horiz-adv-x="937" 
d="M539 1280q-79 0 -124.5 -68t-45.5 -155q0 -69 35.5 -108.5t93.5 -39.5q68 0 118 61t50 169q0 68 -34.5 104.5t-92.5 36.5zM739 1450h203l-121 -561q-14 -58 -14 -115q0 -17 2 -33h-191q-2 12 -2 31q0 22 7 53q-69 -96 -187 -96q-126 0 -201 91t-75 227q0 183 104 302
t256 119q89 0 137.5 -30t63.5 -64z" />
    <glyph glyph-name="logicalnot.ss08" horiz-adv-x="1294" 
d="M1147 387h-236v399h-766v228h1002v-627z" />
    <glyph glyph-name="degree.ss08" horiz-adv-x="819" 
d="M553 1483q129 0 216 -88t87 -215q0 -104 -54 -189t-138 -130.5t-177 -45.5q-132 0 -217.5 86t-85.5 215q0 155 110.5 261t258.5 106zM504 1006q59 0 104 44.5t45 118.5q0 54 -32 87.5t-86 33.5q-59 0 -103.5 -45t-44.5 -117q0 -55 31 -88t86 -34z" />
    <glyph glyph-name="plusminus.ss08" horiz-adv-x="1271" 
d="M156 973h364v252h232v-252h364v-223h-364v-250h-232v250h-364v223zM156 422h960v-223h-960v223z" />
    <glyph glyph-name="ordmasculine.ss08" horiz-adv-x="882" 
d="M387 1063q0 -69 37 -109.5t96 -40.5q66 0 121 58t55 162q0 71 -36 109t-97 38q-77 0 -126.5 -64t-49.5 -153zM580 1475q148 0 237.5 -94.5t89.5 -237.5q0 -113 -50.5 -209.5t-143 -154.5t-207.5 -58q-146 0 -238 95t-92 237q0 186 117.5 304t286.5 118z" />
    <glyph glyph-name="onequarter.ss08" horiz-adv-x="1689" 
d="M338 0h-244l1206 1452h244zM844 150l45 212l414 392h227l-94 -443h127l-35 -161h-125l-31 -150h-207l31 150h-352zM1229 311l51 226l-240 -226h189zM182 1167l29 136q87 3 151.5 46.5t88.5 102.5h184l-162 -752h-209l101 467h-183z" />
    <glyph glyph-name="onehalf.ss08" horiz-adv-x="1751" 
d="M356 0h-241l1206 1452h244zM182 1167l29 136q87 3 151.5 46.5t88.5 102.5h184l-162 -752h-209l101 467h-183zM1372 770q135 0 209 -65.5t74 -163.5q0 -176 -217 -267l-156 -65q-24 -12 -37 -35h332l-39 -174h-573q6 253 254 360l133 58q96 39 96 108q0 29 -22 52.5
t-62 23.5q-53 0 -82 -34t-29 -95l-186 12v17q0 114 87.5 191t217.5 77z" />
    <glyph glyph-name="threequarters.ss08" horiz-adv-x="1880" 
d="M512 0h-244l1209 1452h241zM1036 150l43 212l416 392h225l-92 -443h125l-35 -161h-125q0 -3 -30 -150h-207l30 150h-350zM1421 311l49 226l-239 -226h190zM408 1032l-54 137l221 113h-337l34 170h576l-39 -195l-209 -108q72 -14 116 -67t44 -128q0 -117 -92.5 -194.5
t-229.5 -77.5q-132 0 -215.5 72.5t-83.5 179.5q0 15 4 31l189 10q-2 -6 -2 -21q0 -42 29.5 -71t78.5 -29q48 0 81.5 24.5t33.5 77.5q0 39 -28 61.5t-68 22.5q-28 0 -49 -8z" />
    <glyph glyph-name="multiply.ss08" horiz-adv-x="1275" 
d="M999 207l-340 344l-340 -344l-159 164l338 344l-338 344l162 162l337 -344l338 344l162 -162l-338 -344l340 -344z" />
    <glyph glyph-name="divide.ss08" horiz-adv-x="1185" 
d="M451 340q0 65 46.5 111.5t112.5 46.5t113 -46.5t47 -111.5t-47 -112.5t-113 -47.5t-112.5 47.5t-46.5 112.5zM451 1092q0 65 46.5 111t112.5 46t113 -46t47 -111q0 -66 -47 -114t-113 -48t-112.5 48t-46.5 114zM115 602v225h1003v-225h-1003z" />
    <glyph glyph-name="perthousand.ss08" horiz-adv-x="2246" 
d="M186 0l1207 1452h245l-1206 -1452h-246zM176 1108q0 155 110.5 261t258.5 106q129 0 216 -88.5t87 -215.5q0 -78 -32 -147t-83.5 -116t-118 -74t-135.5 -27q-132 0 -217.5 86t-85.5 215zM496 997q59 0 104 45t45 119q0 53 -32 87t-87 34q-59 0 -103 -45t-44 -117
q0 -55 31 -88.5t86 -34.5zM1346 645q138 0 225 -100q108 100 250 100q131 0 217 -87t86 -214q0 -105 -54 -190.5t-138 -131t-177 -45.5q-141 0 -227 99q-107 -99 -248 -99q-132 0 -217.5 87t-85.5 215q0 155 110.5 260.5t258.5 105.5zM1772 168q59 0 104 46t45 120
q0 54 -31.5 87.5t-85.5 33.5q-58 0 -102.5 -46t-44.5 -118q0 -55 31 -88.5t84 -34.5zM1296 168q59 0 104.5 46t45.5 120q0 53 -32 87t-87 34q-58 0 -102.5 -46t-44.5 -118q0 -55 30.5 -88.5t85.5 -34.5z" />
    <glyph glyph-name="fraction.ss08" horiz-adv-x="358" 
d="M-276 0h-242l1206 1452h244z" />
    <glyph glyph-name="Euro.ss08" horiz-adv-x="1492" 
d="M948 465h-360q42 -121 144 -184.5t247 -63.5q147 0 262 72q77 -203 80 -213q-172 -105 -379 -105q-251 0 -425 136t-222 358h-240l45 184h179q0 80 10 144h-162q5 29 41 182h174q95 230 303 368t455 138q267 0 434 -146l-141 -200q-52 47 -136.5 75.5t-179.5 28.5
q-129 0 -250 -69.5t-192 -194.5h639l-123 -182h-590q-12 -49 -12 -109q0 -27 2 -35h514z" />
    <glyph glyph-name="uni2113.ss08" horiz-adv-x="876" 
d="M494 -18q-159 0 -248.5 78t-89.5 214q0 32 6 66l31 147q-48 -10 -152 -22l49 235q67 6 150 31l92 438q31 151 122 231.5t214 80.5q132 0 205 -73t73 -194q0 -179 -138.5 -357.5t-356.5 -281.5l-39 -180q-6 -36 -6 -53q0 -131 155 -131q76 0 148 31l-47 -224
q-65 -36 -168 -36zM573 1157l-59 -291q79 58 135 148.5t56 179.5q0 27 -15 42t-39 15q-58 0 -78 -94z" />
    <glyph glyph-name="uni2160.ss08" horiz-adv-x="997" 
d="M1094 1452l-50 -240h-274l-207 -972h273l-50 -240h-829l49 240h277l206 972h-274l49 240h830z" />
    <glyph glyph-name="uni2161.ss08" horiz-adv-x="1599" 
d="M1438 240l-49 -240h-1432l49 240h289l207 972h-287l49 240h1432l-49 -240h-289l-207 -972h287zM870 240l209 972h-297l-207 -972h295z" />
    <glyph glyph-name="uni2162.ss08" horiz-adv-x="2158" 
d="M1997 240l-49 -240h-1991l49 240h291l203 972h-287l49 240h1991l-49 -240h-287l-205 -972h285zM1432 240l204 972h-288l-203 -972h287zM780 1212l-202 -972h286l203 972h-287z" />
    <glyph glyph-name="uni2163.ss08" horiz-adv-x="2166" 
d="M2005 240l-49 -240h-1999l49 240h275l206 972h-272l49 240h1997l-49 -240h-201l-489 -972h483zM768 1212l-207 -972h449l-56 972h-186zM1272 324l434 888h-471z" />
    <glyph glyph-name="uni2164.ss08" horiz-adv-x="1636" 
d="M213 1212l49 240h1469l-50 -240h-194l-492 -972h480l-50 -240h-1468l49 240h479l-55 972h-217zM748 324l432 888h-469z" />
    <glyph glyph-name="uni2165.ss08" horiz-adv-x="2148" 
d="M2245 1452l-50 -240h-268l-209 -972h269l-50 -240h-1980l49 240h479l-55 972h-217l49 240h1983zM995 240h443l209 972h-160zM748 324l432 888h-469z" />
    <glyph glyph-name="uni2166.ss08" horiz-adv-x="2707" 
d="M2804 1452l-49 -240h-275l-209 -972h275l-49 -240h-2540l49 240h479l-55 972h-217l49 240h2542zM1927 1212l-209 -972h273l209 972h-273zM1487 1212l-492 -972h443l209 972h-160zM748 324l432 888h-469z" />
    </font>
</defs>
</svg>
