<?xml version="1.0" standalone="no"?>
<!DOCTYPE svg PUBLIC "-//W3C//DTD SVG 1.1//EN" "http://www.w3.org/Graphics/SVG/1.1/DTD/svg11.dtd" >
<svg xmlns="http://www.w3.org/2000/svg" xmlns:xlink="http://www.w3.org/1999/xlink" version="1.1">
<metadata>
Created by FontForge 20170731 at Wed Oct 13 17:31:48 2021
 By Aleksey,,,
(c) 2019, Copyright by Lineto. All rights reserved.
</metadata>
<defs>
<font id="CircularXX-ThinItalic" horiz-adv-x="1146" >
  <font-face 
    font-family="CircularXX Thin"
    font-weight="250"
    font-style="italic"
    font-stretch="normal"
    units-per-em="2048"
    panose-1="2 1 3 4 1 1 1 1 1 4"
    ascent="1536"
    descent="-512"
    x-height="971"
    cap-height="1452"
    bbox="-508 -498 3160 2087"
    underline-thickness="102"
    underline-position="-307"
    slope="-12"
    unicode-range="U+000D-FEFF"
  />
<missing-glyph horiz-adv-x="540" 
 />
    <glyph glyph-name="f_f" unicode="ff" horiz-adv-x="1189" 
d="M449 1235l-58 -264h512l60 274q19 89 64 147.5t100.5 81.5t121.5 23q71 0 117 -24l-18 -70q-45 18 -99 18q-168 0 -207 -186l-57 -264h252l-16 -74h-250l-191 -897h-82l191 897h-512l-191 -897h-82l191 897h-205l14 74h205l60 274q19 89 64 147.5t100.5 81.5t121.5 23
q71 0 117 -24l-18 -70q-45 18 -99 18q-167 0 -206 -186z" />
    <glyph glyph-name="f_f_i" unicode="ffi" horiz-adv-x="1667" 
d="M1044 1235l-57 -264h594l-207 -971h-82l191 897h-510l-191 -897h-82l191 897h-514l-191 -897h-82l191 897h-205l14 74h205l60 274q19 89 64 147.5t100.5 81.5t121.5 23q71 0 117 -24l-18 -70q-45 18 -99 18q-167 0 -206 -186l-58 -264h514l60 274q19 89 64 147.5
t100.5 81.5t121.5 23q71 0 117 -24l-18 -70q-45 18 -99 18q-168 0 -207 -186zM1548 1386q0 37 26 64t62 27q31 0 50.5 -21t19.5 -53q0 -34 -25 -60t-61 -26q-31 0 -51.5 19.5t-20.5 49.5z" />
    <glyph glyph-name="f_f_l" unicode="ffl" horiz-adv-x="1665" 
d="M449 1235l-58 -264h512l60 274q19 89 64 147.5t100.5 81.5t121.5 23q71 0 117 -24l-18 -70q-45 18 -99 18q-168 0 -207 -186l-57 -264h512l109 506h82l-314 -1477h-82l191 897h-512l-191 -897h-82l191 897h-512l-191 -897h-82l191 897h-205l14 74h205l60 274
q19 89 64 147.5t100.5 81.5t121.5 23q71 0 117 -24l-18 -70q-45 18 -99 18q-167 0 -206 -186z" />
    <glyph glyph-name="f_i" unicode="fi" horiz-adv-x="1071" 
d="M778 0h-82l191 897h-510l-191 -897h-82l191 897h-205l14 74h205l60 274q19 89 64 147.5t100.5 81.5t121.5 23q71 0 117 -24l-18 -70q-45 18 -99 18q-167 0 -206 -186l-58 -264h594zM952 1386q0 37 26 64t62 27q31 0 50.5 -21t19.5 -53q0 -34 -25 -60t-61 -26
q-31 0 -51.5 19.5t-20.5 49.5z" />
    <glyph glyph-name="f_l" unicode="fl" horiz-adv-x="1071" 
d="M780 0h-82l191 897h-512l-191 -897h-82l191 897h-205l14 74h205l60 274q19 89 64 147.5t100.5 81.5t121.5 23q71 0 117 -24l-18 -70q-45 18 -99 18q-167 0 -206 -186l-58 -264h512l109 506h82z" />
    <glyph glyph-name=".notdef" horiz-adv-x="540" 
 />
    <glyph glyph-name=".null" horiz-adv-x="0" 
 />
    <glyph glyph-name=".null" horiz-adv-x="0" 
 />
    <glyph glyph-name="uni000D" unicode="&#xd;" horiz-adv-x="538" 
 />
    <glyph glyph-name="space" unicode=" " horiz-adv-x="538" 
 />
    <glyph glyph-name="exclam" unicode="!" horiz-adv-x="428" 
d="M342 1452h107l-254 -1081h-58zM39 61q0 40 25.5 68.5t64.5 28.5q31 0 50.5 -22.5t19.5 -51.5q0 -38 -26.5 -65t-63.5 -27q-30 0 -50 20.5t-20 48.5z" />
    <glyph glyph-name="quotedbl" unicode="&#x22;" horiz-adv-x="614" 
d="M274 918h-30l20 329q7 94 76 94q27 0 42 -16t15 -43q0 -31 -30 -115zM500 918h-31l20 329q7 94 76 94q27 0 42.5 -16t15.5 -43q0 -29 -31 -115z" />
    <glyph glyph-name="numbersign" unicode="#" horiz-adv-x="1445" 
d="M782 0l84 389h-389l-82 -389h-76l84 389h-317v70h332l88 413h-320v70h336l82 385h76l-84 -385h389l82 385h76l-84 -385h334v-70h-349l-88 -413h336v-70h-352l-82 -389h-76zM582 872l-88 -413h387l88 413h-387z" />
    <glyph glyph-name="dollar" unicode="$" horiz-adv-x="1062" 
d="M1020 981l-76 -14q0 112 -59.5 195t-175.5 108l-121 -570l80 -34q121 -55 181 -132t60 -184q0 -167 -123 -271t-311 -104q-27 0 -41 2l-43 -206h-69l45 215q-146 28 -229 127t-83 247q0 51 8 95l78 12q-10 -52 -10 -92q0 -123 63 -209t187 -111l127 596l-76 35
q-100 45 -158.5 122t-58.5 181q0 107 59.5 192t150.5 128t193 43q25 0 37 -2l45 209h70l-45 -218q146 -28 219.5 -127t75.5 -233zM635 596l-64 27l-120 -576h28q152 0 250 82.5t98 212.5q0 170 -192 254zM295 997q0 -85 43 -142.5t131 -98.5l55 -27l117 549q-5 0 -15 1
t-14 1q-122 0 -219.5 -80.5t-97.5 -202.5z" />
    <glyph glyph-name="percent" unicode="%" horiz-adv-x="1685" 
d="M508 1339q120 0 199 -78.5t79 -195.5q0 -137 -98.5 -240.5t-241.5 -103.5q-120 0 -199 78.5t-79 195.5q0 137 98.5 240.5t241.5 103.5zM453 788q106 0 182 82t76 191q0 91 -58 151t-151 60q-106 0 -182 -82t-76 -191q0 -91 58 -151t151 -60zM1272 604q120 0 199 -79
t79 -195q0 -137 -98.5 -240.5t-241.5 -103.5q-120 0 -199 79t-79 195q0 137 98.5 240.5t241.5 103.5zM1217 53q106 0 182 82t76 191q0 91 -58 151t-151 60q-106 0 -182 -82t-76 -191q0 -91 58 -151t151 -60zM293 0h-92l1233 1327h92z" />
    <glyph glyph-name="ampersand" unicode="&#x26;" horiz-adv-x="1265" 
d="M1063 0h-92l-140 209q-117 -110 -219.5 -166.5t-205.5 -56.5q-81 0 -147.5 29t-109 77t-65.5 108t-23 124q0 73 24.5 134.5t73 112.5t103 90t131.5 82l64 35l-62 94q-82 126 -82 242q0 160 105 261.5t254 101.5q129 0 212 -82t83 -201q0 -65 -21.5 -121t-61 -99.5
t-81.5 -75.5t-96 -62l-144 -80l285 -430l350 325l-27 -123l-282 -266zM412 63q89 0 178.5 53t191.5 148l9 8l-295 445l-88 -49q-57 -32 -99.5 -63t-82.5 -73.5t-61.5 -95.5t-21.5 -114q0 -65 30 -123t93 -97t146 -39zM391 1122q0 -101 66 -202l67 -103l156 86
q207 115 207 283q0 94 -62 154.5t-163 60.5q-114 0 -192.5 -80.5t-78.5 -198.5z" />
    <glyph glyph-name="quotesingle" unicode="'" horiz-adv-x="389" 
d="M274 918h-30l20 329q7 94 76 94q27 0 42 -16t15 -43q0 -31 -30 -115z" />
    <glyph glyph-name="parenleft" unicode="(" horiz-adv-x="571" 
d="M172 401q0 -324 184 -614l-55 -41q-92 131 -147.5 300.5t-55.5 354.5q0 201 44.5 378.5t129 325t192.5 269t249 234.5l49 -49q-136 -108 -239 -223.5t-184.5 -257t-124 -312.5t-42.5 -365z" />
    <glyph glyph-name="parenright" unicode=")" horiz-adv-x="567" 
d="M434 952q0 325 -184 615l55 41q92 -131 147.5 -301t55.5 -355q0 -201 -44.5 -378t-129 -325t-192 -269t-248.5 -234l-50 49q108 86 194.5 175t162 197.5t126 226.5t79 260t28.5 298z" />
    <glyph glyph-name="asterisk" unicode="*" horiz-adv-x="942" 
d="M682 1452l-68 -315l326 104l10 -65l-329 -107l141 -272l-57 -37l-140 276l-256 -282l-55 47l256 276l-277 103l33 61l279 -104l65 315h72z" />
    <glyph glyph-name="plus" unicode="+" horiz-adv-x="1064" 
d="M90 625h404v438h73v-438h408v-70h-408v-444h-73v444h-404v70z" />
    <glyph glyph-name="comma" unicode="," horiz-adv-x="468" 
d="M47 70q0 39 27.5 65.5t64.5 26.5q39 0 62.5 -26t23.5 -70q0 -67 -28.5 -130t-73 -107t-95.5 -73.5t-98 -38.5l13 66q74 18 136 82.5t77 134.5q-9 -6 -33 -6q-33 0 -54.5 21.5t-21.5 54.5z" />
    <glyph glyph-name="hyphen" unicode="-" horiz-adv-x="823" 
d="M666 551h-529l15 74h528z" />
    <glyph glyph-name="period" unicode="." horiz-adv-x="438" 
d="M39 66q0 42 26.5 71t67.5 29q32 0 52 -23.5t20 -54.5q0 -40 -27 -68t-65 -28q-33 0 -53.5 22t-20.5 52z" />
    <glyph glyph-name="slash" unicode="/" horiz-adv-x="931" 
d="M1044 1452l-1007 -1452h-88l1007 1452h88z" />
    <glyph glyph-name="zero" unicode="0" horiz-adv-x="1198" 
d="M1028 850q0 91 -16.5 164t-53 133t-101.5 92.5t-155 32.5q-96 0 -179.5 -50.5t-141.5 -133.5t-99.5 -189.5t-61 -218t-19.5 -219.5q0 -84 18 -155t56 -128.5t103 -90t152 -32.5t162.5 40t128 107t94 149.5t65.5 173.5t36 173t12 152zM713 1352q107 0 186.5 -41t124 -113
t65.5 -159t21 -191q0 -108 -22.5 -225t-70.5 -233.5t-115.5 -208t-167 -149t-214.5 -57.5q-106 0 -186 41.5t-125.5 112.5t-67.5 156t-22 182q0 92 16.5 191t47.5 198.5t82 188t114.5 157.5t150 109.5t183.5 40.5z" />
    <glyph glyph-name="one" unicode="1" horiz-adv-x="643" 
d="M354 0h-84l244 1145q-46 -62 -150 -121t-227 -66l17 78q133 13 238.5 95t158.5 196h84z" />
    <glyph glyph-name="two" unicode="2" horiz-adv-x="1085" 
d="M109 80h768l-17 -80h-860q31 170 114 284t234 185l305 143q150 69 231 161t81 220q0 56 -18 105.5t-53.5 90.5t-96 65t-138.5 24q-100 0 -182.5 -44.5t-135.5 -132.5t-58 -204l-78 18q6 180 132.5 308.5t317.5 128.5q97 0 174 -30.5t123.5 -81t70.5 -111t24 -125.5
q0 -83 -26.5 -153t-76 -125t-109.5 -96t-139 -79l-327 -156q-91 -44 -158 -116t-102 -199z" />
    <glyph glyph-name="three" unicode="3" horiz-adv-x="1126" 
d="M492 -25q-198 0 -313.5 111t-115.5 281q0 35 9 75l80 11q-9 -41 -9 -76q0 -145 94 -233.5t250 -88.5q163 0 274 109.5t111 263.5q0 140 -86.5 211.5t-214.5 71.5q-51 0 -104 -15l-39 95l608 458h-747l16 78h842l-21 -102l-598 -451q27 6 58 6q162 0 267 -91t105 -257
q0 -91 -37 -175.5t-99 -146t-148.5 -98.5t-181.5 -37z" />
    <glyph glyph-name="four" unicode="4" horiz-adv-x="1138" 
d="M627 0l75 358h-690l21 99l846 870h112l-188 -891h239l-16 -78h-240l-75 -358h-84zM891 1235l-776 -799h604z" />
    <glyph glyph-name="five" unicode="5" horiz-adv-x="1097" 
d="M446 1327h650l-17 -78h-587l-234 -504q57 54 137 80.5t160 26.5q186 0 285.5 -101.5t99.5 -261.5q0 -138 -62.5 -256t-173 -188t-241.5 -70q-100 0 -180.5 32t-131.5 86.5t-78.5 124.5t-27.5 149q0 29 8 65l82 10q-8 -36 -8 -65q0 -139 88 -230.5t250 -91.5
q155 0 272 127t117 297q0 299 -324 299q-156 0 -307 -125l-65 52z" />
    <glyph glyph-name="six" unicode="6" horiz-adv-x="1157" 
d="M842 1352q179 0 274 -74l-35 -70q-95 66 -256 66q-124 0 -231.5 -53.5t-185.5 -146.5t-131 -215t-76 -263q48 114 163.5 193t266.5 79q177 0 286 -109.5t109 -281.5q0 -111 -43 -206.5t-112.5 -159.5t-158 -100t-180.5 -36q-194 0 -307.5 135t-113.5 347q0 105 21 211
t61 206t103.5 186.5t142 151.5t182.5 102.5t221 37.5zM614 795q-163 0 -286 -118.5t-123 -285.5q0 -146 92 -242t244 -96q73 0 145 30.5t129 83t92 131.5t35 169q0 144 -90 236t-238 92z" />
    <glyph glyph-name="seven" unicode="7" horiz-adv-x="1030" 
d="M1139 1327l-23 -102q-308 -223 -520.5 -518t-333.5 -707h-90q240 807 872 1249h-841l16 78h920z" />
    <glyph glyph-name="eight" unicode="8" horiz-adv-x="1112" 
d="M657 1276q-141 0 -241.5 -79t-100.5 -218q0 -111 86 -186.5t230 -75.5q142 0 240 85t98 218q0 126 -89.5 191t-222.5 65zM516 647q-157 0 -259.5 -92t-102.5 -225q0 -121 92 -200t254 -79q155 0 257.5 94t102.5 228q0 71 -28.5 125t-77.5 85.5t-109 47.5t-129 16zM72 319
q0 152 107 253.5t253 125.5q-86 31 -141 109t-55 172q0 160 123.5 266.5t308.5 106.5q177 0 281 -92.5t104 -231.5q0 -138 -96 -238t-236 -122q96 -29 156.5 -112t60.5 -185q0 -91 -38 -167t-100 -125t-140.5 -76.5t-161.5 -27.5q-191 0 -308.5 94t-117.5 250z" />
    <glyph glyph-name="nine" unicode="9" horiz-adv-x="1171" 
d="M672 1274q-100 0 -190 -49.5t-148 -144t-58 -212.5q0 -141 86.5 -229t235.5 -88q101 0 190 48.5t146 141.5t57 211q0 140 -88 231t-231 91zM414 53q84 0 158 24t130.5 65t104 96.5t80 117t56.5 128.5t36 129t16 120q-52 -119 -160.5 -187.5t-238.5 -68.5
q-178 0 -290.5 107.5t-112.5 277.5q0 105 40.5 198t107 156t152 99.5t175.5 36.5q109 0 191.5 -38.5t130.5 -106.5t71.5 -154t23.5 -189q0 -130 -24.5 -254.5t-79 -240.5t-132.5 -203t-193.5 -139t-254.5 -52q-108 0 -210.5 35.5t-165.5 89.5l38 72q71 -62 165 -90.5
t186 -28.5z" />
    <glyph glyph-name="colon" unicode=":" horiz-adv-x="458" 
d="M39 66q0 42 26.5 71t67.5 29q32 0 52 -23.5t20 -54.5q0 -40 -27 -68t-65 -28q-33 0 -53.5 22t-20.5 52zM211 879q0 42 26.5 71t67.5 29q32 0 52 -23.5t20 -54.5q0 -40 -27 -68t-65 -28q-33 0 -53.5 22t-20.5 52z" />
    <glyph glyph-name="semicolon" unicode=";" horiz-adv-x="458" 
d="M39 70q0 39 27.5 65.5t64.5 26.5q39 0 62.5 -26t23.5 -70q0 -67 -28.5 -130t-73 -107t-95.5 -73.5t-98 -38.5l12 66q74 18 136 82.5t77 134.5q-9 -6 -32 -6q-33 0 -54.5 21.5t-21.5 54.5zM211 879q0 42 26.5 71t67.5 29q32 0 52 -23.5t20 -54.5q0 -40 -27 -68t-65 -28
q-33 0 -53.5 22t-20.5 52z" />
    <glyph glyph-name="less" unicode="&#x3c;" horiz-adv-x="1056" 
d="M78 551v76l811 426v-82l-742 -381l742 -383v-82z" />
    <glyph glyph-name="equal" unicode="=" horiz-adv-x="1300" 
d="M1092 752h-895v71h895v-71zM1092 356h-895v72h895v-72z" />
    <glyph glyph-name="greater" unicode="&#x3e;" horiz-adv-x="1056" 
d="M973 627v-76l-811 -426v82l741 383l-741 381v82z" />
    <glyph glyph-name="question" unicode="?" horiz-adv-x="976" 
d="M459 369h-72q-2 12 -2 39q0 120 50.5 194.5t154.5 136.5l102 62q110 67 168 147.5t58 186.5q0 114 -78 190t-222 76q-107 0 -190.5 -55.5t-125.5 -140t-42 -179.5q0 -6 1 -20t1 -21l-78 19q-2 10 -2 30q0 82 31.5 161t87 142t141 101.5t185.5 38.5q88 0 160 -29
t118 -76.5t71 -107.5t25 -125q0 -243 -278 -406l-105 -61q-159 -92 -159 -264v-39zM307 61q0 40 25.5 68.5t64.5 28.5q31 0 50.5 -22.5t19.5 -51.5q0 -38 -26.5 -65t-63.5 -27q-30 0 -50 20.5t-20 48.5z" />
    <glyph glyph-name="at" unicode="@" horiz-adv-x="1695" 
d="M1262 307q-90 0 -139.5 49.5t-49.5 126.5q-39 -80 -108.5 -128t-151.5 -48q-125 0 -208 93.5t-83 242.5q0 114 48 217.5t137 169.5t198 66q88 0 153.5 -51t78.5 -136l28 162h72l-98 -510q-6 -30 -6 -57q0 -133 131 -133q111 0 201.5 128.5t90.5 315.5q0 112 -42.5 217
t-121 190.5t-202 137t-272.5 51.5q-143 0 -271.5 -56t-221.5 -152.5t-147.5 -231.5t-54.5 -287q0 -149 50 -278.5t140 -224.5t223 -149.5t292 -54.5q148 0 282 55.5t236 157.5l39 -47q-101 -107 -250 -169t-307 -62q-171 0 -317 58.5t-247 161t-157.5 245t-56.5 307.5
t61 312.5t164 252.5t244 166.5t296 61.5q162 0 299 -57t226.5 -150.5t139.5 -211.5t50 -243q0 -109 -32.5 -205.5t-85 -162t-118 -103t-132.5 -37.5zM1104 799q0 101 -55 165t-154 64q-120 0 -209.5 -111.5t-89.5 -265.5q0 -115 58 -196.5t161 -81.5q73 0 130 38t90.5 101
t50.5 136t18 151z" />
    <glyph glyph-name="A" unicode="A" horiz-adv-x="1316" 
d="M1057 0l-86 504h-649l-295 -504h-101l862 1452h105l250 -1452h-86zM825 1362l-456 -778h587z" />
    <glyph glyph-name="B" unicode="B" horiz-adv-x="1206" 
d="M397 1452h383q90 0 160.5 -26.5t113 -72t64 -102t21.5 -121.5q0 -130 -85 -244t-225 -151q100 -33 155.5 -113t55.5 -178q0 -64 -20 -126.5t-61 -120t-98.5 -101.5t-139 -70t-176.5 -26h-455zM340 774h348q107 0 193 53t130 131.5t44 163.5q0 51 -15.5 94.5t-48 79.5
t-88.5 57t-131 21h-305zM193 78h346q100 0 181.5 32t132 85t78 117.5t27.5 131.5q0 109 -73.5 181.5t-216.5 72.5h-344z" />
    <glyph glyph-name="C" unicode="C" horiz-adv-x="1482" 
d="M727 -25q-121 0 -227 41.5t-187.5 118.5t-128.5 196.5t-47 266.5q0 168 45.5 313.5t122 247.5t176 175t207 108t215.5 35q242 0 392 -129t178 -326l-78 -27q-26 180 -157 291t-341 111q-94 0 -188 -31.5t-181 -98t-154.5 -158.5t-108 -223.5t-40.5 -283.5
q0 -132 40.5 -237.5t110.5 -172.5t162 -102t199 -35q189 0 334.5 101t235.5 290l67 -43q-92 -197 -263.5 -312.5t-383.5 -115.5z" />
    <glyph glyph-name="D" unicode="D" horiz-adv-x="1413" 
d="M487 0h-399l309 1452h383q164 0 291.5 -64t202 -190t74.5 -297q0 -179 -63 -343t-173.5 -287.5t-273 -197t-351.5 -73.5zM193 78h299q108 0 216 33t207 101.5t175 164.5t121.5 231.5t45.5 292.5q0 115 -37 205.5t-103 148.5t-153.5 88.5t-191.5 30.5h-303z" />
    <glyph glyph-name="E" unicode="E" horiz-adv-x="1155" 
d="M924 0h-836l309 1452h817l-16 -80h-731l-129 -604h661l-16 -80h-661l-129 -608h747z" />
    <glyph glyph-name="F" unicode="F" horiz-adv-x="1161" 
d="M176 0h-88l309 1452h824l-17 -80h-735l-135 -629h670l-17 -79h-670z" />
    <glyph glyph-name="G" unicode="G" horiz-adv-x="1533" 
d="M1288 0h-69l45 266q-29 -50 -76 -98t-113 -93t-157 -72.5t-191 -27.5q-113 0 -217.5 41.5t-188.5 118.5t-134 199t-50 270q0 143 32.5 269t89 220t131.5 168.5t161.5 121t176.5 70.5t179 24q224 0 375.5 -122t192.5 -317l-80 -37q-41 182 -171 289t-325 107
q-95 0 -188.5 -30t-181.5 -94t-154.5 -154.5t-107 -223t-40.5 -287.5q0 -108 28.5 -199.5t77.5 -156t114.5 -109.5t140.5 -66.5t155 -21.5q101 0 190 31t154.5 83t115.5 121t79 143t39 151h-545l17 80h632z" />
    <glyph glyph-name="H" unicode="H" horiz-adv-x="1456" 
d="M1116 0h-88l150 698h-852l-150 -698h-88l309 1452h88l-143 -674h852l143 674h88z" />
    <glyph glyph-name="I" unicode="I" horiz-adv-x="516" 
d="M176 0h-88l309 1452h88z" />
    <glyph glyph-name="J" unicode="J" horiz-adv-x="1056" 
d="M45 463l16 80l89 14l-21 -94q-14 -57 -14 -123q0 -60 15.5 -110t47.5 -90t87.5 -62.5t129.5 -22.5q127 0 215 88t119 238l223 1071h88l-225 -1069q-40 -193 -150 -300.5t-274 -107.5q-177 0 -268.5 98.5t-91.5 258.5q0 68 14 131z" />
    <glyph glyph-name="K" unicode="K" horiz-adv-x="1263" 
d="M1405 1452l-729 -641l444 -811h-102l-406 754l-338 -297l-96 -457h-88l307 1452h88l-184 -866l977 866h127z" />
    <glyph glyph-name="L" unicode="L" horiz-adv-x="1081" 
d="M926 0h-838l309 1452h88l-292 -1372h749z" />
    <glyph glyph-name="M" unicode="M" horiz-adv-x="1867" 
d="M831 123l879 1329h127l-307 -1452h-86l278 1323l-874 -1323h-74l-319 1323l-279 -1323h-86l307 1452h115z" />
    <glyph glyph-name="N" unicode="N" horiz-adv-x="1466" 
d="M1128 0h-96l-571 1339l-283 -1339h-88l307 1452h115l557 -1317l279 1317h88z" />
    <glyph glyph-name="O" unicode="O" horiz-adv-x="1570" 
d="M733 55q94 0 188 31.5t181 98t154.5 158.5t108 223.5t40.5 283.5q0 134 -40.5 240.5t-110.5 172.5t-161 100t-196 34q-94 0 -188 -31.5t-181 -98t-154.5 -158.5t-108 -223.5t-40.5 -283.5q0 -134 40.5 -240.5t110.5 -172.5t161 -100t196 -34zM727 -25q-121 0 -227 40.5
t-187.5 116.5t-128.5 196.5t-47 269.5q0 168 45.5 313.5t122 247.5t176 175t207 108t215.5 35q121 0 227 -41t187.5 -117.5t128.5 -196.5t47 -268q0 -168 -45.5 -313.5t-122 -247.5t-176 -175t-207 -108t-215.5 -35z" />
    <glyph glyph-name="P" unicode="P" horiz-adv-x="1179" 
d="M326 707h344q194 0 321 115.5t127 293.5q0 118 -78.5 187t-222.5 69h-348zM670 627h-361l-133 -627h-88l309 1452h445q167 0 266.5 -94t99.5 -238q0 -140 -70.5 -253t-193.5 -176.5t-274 -63.5z" />
    <glyph glyph-name="Q" unicode="Q" horiz-adv-x="1570" 
d="M727 -25q-121 0 -227 40.5t-187.5 116.5t-128.5 196.5t-47 269.5q0 168 45.5 313.5t122 247.5t176 175t207 108t215.5 35q121 0 227 -41t187.5 -117.5t128.5 -196.5t47 -268q0 -224 -77.5 -398.5t-209.5 -291.5l193 -268l-68 -46l-186 263q-193 -138 -418 -138zM733 55
q197 0 365 125l-244 344l66 45l239 -338q113 106 179.5 263t66.5 356q0 134 -40.5 240.5t-110.5 172.5t-161 100t-196 34q-94 0 -188 -31.5t-181 -98t-154.5 -158.5t-108 -223.5t-40.5 -283.5q0 -134 40.5 -240.5t110.5 -172.5t161 -100t196 -34z" />
    <glyph glyph-name="R" unicode="R" horiz-adv-x="1222" 
d="M1010 0h-97l-243 647h-355l-139 -647h-88l309 1452h434q167 0 267 -94t100 -238q0 -187 -124 -311.5t-318 -149.5zM332 727h327q197 0 323 106.5t126 282.5q0 118 -78.5 187t-222.5 69h-338z" />
    <glyph glyph-name="S" unicode="S" horiz-adv-x="1155" 
d="M1124 1073l-82 -16q0 70 -22 130.5t-65 108.5t-113.5 75.5t-161.5 27.5q-135 0 -241.5 -86t-106.5 -219q0 -94 47 -159t143 -108l217 -98q265 -120 265 -344q0 -182 -135.5 -296t-340.5 -114q-206 0 -331 115t-125 307q0 54 8 101l84 14q-10 -58 -10 -100
q0 -157 98.5 -258t282.5 -101q164 0 272 91t108 231q0 91 -50 158t-163 118l-221 101q-235 109 -235 329q0 117 65 209.5t164.5 139.5t210.5 47t196.5 -33.5t136.5 -91t77 -128t28 -151.5z" />
    <glyph glyph-name="T" unicode="T" horiz-adv-x="1191" 
d="M1313 1372h-510l-293 -1372h-88l293 1372h-510l16 80h1108z" />
    <glyph glyph-name="U" unicode="U" horiz-adv-x="1349" 
d="M1247 1452h88l-219 -1028q-47 -220 -177.5 -334.5t-330.5 -114.5q-209 0 -323.5 112.5t-114.5 307.5q0 81 16 154l193 903h88l-193 -907q-16 -78 -16 -142q0 -159 89 -253.5t267 -94.5q168 0 273.5 99.5t144.5 283.5z" />
    <glyph glyph-name="V" unicode="V" horiz-adv-x="1251" 
d="M516 96l764 1356h94l-825 -1452h-98l-207 1452h84z" />
    <glyph glyph-name="W" unicode="W" horiz-adv-x="1970" 
d="M1128 1333l-677 -1333h-103l-115 1452h89l100 -1331l678 1331h100l154 -1333l641 1333h94l-705 -1452h-100z" />
    <glyph glyph-name="X" unicode="X" horiz-adv-x="1177" 
d="M895 0l-295 657l-575 -657h-107l649 729l-331 723h96l293 -659l592 659h108l-657 -723l-4 -4l327 -725h-96z" />
    <glyph glyph-name="Y" unicode="Y" horiz-adv-x="1177" 
d="M561 643l-315 809h92l280 -737l564 737h102l-641 -821l-135 -631h-86z" />
    <glyph glyph-name="Z" unicode="Z" horiz-adv-x="1214" 
d="M993 0h-1050l20 92l1251 1280h-958l16 80h1063l-20 -90l-1254 -1282h949z" />
    <glyph glyph-name="bracketleft" unicode="[" horiz-adv-x="514" 
d="M283 -281h-310l396 1864h309l-14 -70h-236l-367 -1724h236z" />
    <glyph glyph-name="backslash" unicode="\" horiz-adv-x="915" 
d="M643 0l-391 1452h76l391 -1452h-76z" />
    <glyph glyph-name="bracketright" unicode="]" horiz-adv-x="514" 
d="M258 1583h309l-395 -1864h-309l14 70h236l366 1724h-235z" />
    <glyph glyph-name="asciicircum" unicode="^" horiz-adv-x="1087" 
d="M1020 727h-86l-346 643l-346 -643h-86l395 725h74z" />
    <glyph glyph-name="underscore" unicode="_" horiz-adv-x="1081" 
d="M932 -70h-1047v70h1047v-70z" />
    <glyph glyph-name="grave" unicode="`" horiz-adv-x="305" 
d="M356 1094h-63l-160 276h98z" />
    <glyph glyph-name="a" unicode="a" horiz-adv-x="1140" 
d="M856 451q14 72 14 124q0 154 -80.5 250.5t-224.5 96.5q-108 0 -203 -66.5t-153.5 -187.5t-58.5 -267q0 -155 82 -254.5t227 -99.5q142 0 251.5 114t145.5 290zM809 184q-26 -39 -59 -73t-77.5 -66t-102.5 -51t-121 -19q-116 0 -203 57.5t-130.5 150t-43.5 204.5
q0 129 40.5 243t108 193.5t158 125.5t188.5 46q73 0 132.5 -20t95.5 -49t62.5 -68t38 -71t17.5 -64l54 248h82l-148 -692q-20 -103 -20 -189q0 -65 2 -90h-78q-4 40 -4 76q0 53 8 108z" />
    <glyph glyph-name="b" unicode="b" horiz-adv-x="1161" 
d="M438 1477l-145 -680q33 48 78.5 89.5t123 75t164.5 33.5q94 0 168.5 -33t121 -90t71 -131t24.5 -159q0 -171 -68.5 -311t-183 -218t-249.5 -78q-87 0 -155.5 27.5t-109.5 72.5t-64.5 91t-33.5 94l-55 -260h-82l313 1477h82zM223 399q0 -154 83.5 -252t228.5 -98
q113 0 211.5 69.5t157.5 190.5t59 262q0 153 -86 253t-234 100q-79 0 -148 -33t-118 -87t-84.5 -123t-52.5 -141t-17 -141z" />
    <glyph glyph-name="c" unicode="c" horiz-adv-x="1064" 
d="M864 305l64 -35q-63 -135 -178.5 -215t-260.5 -80q-187 0 -302 122.5t-115 310.5q0 125 44.5 236t117.5 187t169 120t197 44q84 0 152.5 -24.5t114.5 -66.5t75 -94t41 -112l-74 -28q-24 114 -106.5 183t-208.5 69q-82 0 -160.5 -37t-140 -102.5t-99.5 -163t-38 -209.5
q0 -161 94 -261t248 -100q120 0 214.5 70t151.5 186z" />
    <glyph glyph-name="d" unicode="d" horiz-adv-x="1134" 
d="M1151 1477l-254 -1198q-23 -118 -23 -179q0 -38 5 -100h-80q-4 40 -4 76q0 53 8 108q-51 -84 -143.5 -146.5t-213.5 -62.5q-173 0 -273.5 116t-100.5 298q0 167 68.5 307t182.5 219.5t246 79.5q71 0 129.5 -19.5t94 -48.5t61.5 -68t38 -72t17 -66l160 756h82zM457 49
q74 0 141 31.5t115.5 84.5t84.5 120.5t54 141.5t18 146q0 155 -80 251t-223 96q-167 0 -291 -151.5t-124 -371.5q0 -152 82 -250t223 -98z" />
    <glyph glyph-name="e" unicode="e" horiz-adv-x="1075" 
d="M963 479h-807q-4 -27 -4 -80q0 -157 95 -253.5t245 -96.5q113 0 206 64t148 163l65 -43q-65 -116 -178 -187t-250 -71q-182 0 -296.5 115.5t-114.5 310.5q0 130 44.5 243t117 189t164 119t186.5 43q188 0 289.5 -111.5t101.5 -283.5q0 -60 -12 -121zM582 922
q-146 0 -258.5 -106.5t-153.5 -264.5h719q4 28 4 47q0 142 -80.5 233t-230.5 91z" />
    <glyph glyph-name="f" unicode="f" horiz-adv-x="595" 
d="M449 1235l-58 -264h252l-16 -74h-250l-191 -897h-82l191 897h-205l14 74h205l60 274q19 89 64 147.5t100.5 81.5t121.5 23q71 0 117 -24l-18 -70q-45 18 -99 18q-167 0 -206 -186z" />
    <glyph glyph-name="g" unicode="g" horiz-adv-x="1128" 
d="M877 592q0 139 -80 234.5t-228 95.5q-105 0 -197 -61.5t-148 -169t-56 -234.5q0 -148 81.5 -238t233.5 -90q88 0 164 43t125 111t77 149t28 160zM-20 -57l81 18q2 -131 88.5 -216t239.5 -85q72 0 130.5 21.5t97.5 55.5t69 84t46.5 99t29.5 109l45 211q-47 -77 -134 -130
t-202 -53q-176 0 -281.5 112t-105.5 284q0 112 39.5 213t106 173t155.5 114t184 42q66 0 121.5 -15.5t93 -41t65.5 -59.5t43 -68t21 -70l48 230h81l-198 -942q-95 -443 -457 -443q-180 0 -292 101t-115 256z" />
    <glyph glyph-name="h" unicode="h" horiz-adv-x="1060" 
d="M125 0h-82l313 1477h82l-141 -664q41 73 126 127.5t187 54.5q154 -1 231 -85.5t77 -213.5q0 -33 -11 -90l-123 -606h-84l125 602q9 56 9 78q0 107 -61 175.5t-185 68.5q-116 0 -211.5 -96.5t-126.5 -239.5z" />
    <glyph glyph-name="i" unicode="i" horiz-adv-x="417" 
d="M125 0h-82l207 971h82zM299 1386q0 37 26 64t62 27q31 0 50.5 -21t19.5 -53q0 -34 -25 -60t-61 -26q-31 0 -51.5 19.5t-20.5 49.5z" />
    <glyph glyph-name="j" unicode="j" horiz-adv-x="417" 
d="M12 -143l238 1114h82l-240 -1125q-28 -129 -96 -186t-172 -57q-84 0 -131 35l14 69q60 -31 121 -31q146 0 184 181zM299 1386q0 37 26 64t62 27q31 0 50.5 -21t19.5 -53q0 -34 -25 -60t-61 -26q-31 0 -51.5 19.5t-20.5 49.5z" />
    <glyph glyph-name="k" unicode="k" horiz-adv-x="978" 
d="M125 0h-82l313 1477h82l-223 -1055l666 549h118l-485 -398l311 -573h-94l-280 522l-261 -215z" />
    <glyph glyph-name="l" unicode="l" horiz-adv-x="415" 
d="M125 0h-82l313 1477h82z" />
    <glyph glyph-name="m" unicode="m" horiz-adv-x="1638" 
d="M741 0h-82l129 606q11 61 11 96q0 102 -55.5 162t-170.5 60q-107 0 -199 -94t-124 -242l-125 -588h-82l174 819q19 90 19 152h75q0 -70 -16 -148q44 70 124.5 121t170.5 51q120 0 195 -57.5t92 -159.5q52 103 145 160t190 57q137 0 212 -72.5t75 -201.5q0 -57 -10 -103
l-131 -618h-82l129 608q12 52 12 101q0 99 -54 157t-167 58q-110 0 -204.5 -95.5t-125.5 -238.5z" />
    <glyph glyph-name="n" unicode="n" horiz-adv-x="1060" 
d="M782 0h-82l121 567q15 71 15 119q0 108 -62.5 173t-183.5 65q-117 0 -213 -96.5t-127 -239.5l-125 -588h-82l172 809q21 100 21 162h79q0 -77 -18 -158q41 73 126 127.5t187 54.5q145 0 226.5 -82.5t81.5 -216.5q0 -54 -15 -125z" />
    <glyph glyph-name="o" unicode="o" horiz-adv-x="1105" 
d="M586 922q-76 0 -151.5 -35t-138.5 -98t-102.5 -163t-39.5 -218q0 -161 91 -260t232 -99q76 0 151.5 35.5t138.5 99.5t102.5 164.5t39.5 218.5q0 161 -90 258t-233 97zM471 -25q-175 0 -286 118t-111 306q0 135 45.5 249.5t119.5 189t166 116t187 41.5q179 0 288 -117
t109 -307q0 -135 -45 -249.5t-118.5 -189t-165.5 -116t-189 -41.5z" />
    <glyph glyph-name="p" unicode="p" horiz-adv-x="1132" 
d="M631 924q-91 0 -170 -48.5t-131 -125t-81.5 -169.5t-29.5 -184q0 -156 78.5 -252t220.5 -96q82 0 159 41.5t134 111.5t91 168t34 205q0 153 -81.5 251t-223.5 98zM297 813q52 76 143 129t207 53q174 0 272.5 -114t98.5 -291q0 -128 -40.5 -242.5t-107.5 -196t-158.5 -129
t-189.5 -47.5q-81 0 -146.5 26.5t-105 69.5t-62 85t-32.5 84l-133 -629h-82l254 1198q21 100 21 162h79q0 -77 -18 -158z" />
    <glyph glyph-name="q" unicode="q" horiz-adv-x="1140" 
d="M766 -389h-82l115 543q-22 -32 -49.5 -60t-67.5 -56.5t-95.5 -45.5t-117.5 -17q-175 0 -284 126.5t-109 308.5q0 163 67 298t180 211t246 76q69 0 126.5 -19t94.5 -47t65.5 -66.5t42.5 -72t22 -67.5l53 248h82zM481 47q74 0 139 33t111 87t80 123.5t50 143t16 144.5
q0 151 -81 246.5t-223 95.5q-111 0 -206.5 -65t-153 -180.5t-57.5 -254.5q0 -155 89.5 -264t235.5 -109z" />
    <glyph glyph-name="r" unicode="r" horiz-adv-x="661" 
d="M303 825q111 156 291 156q75 0 117 -25l-17 -82q-52 23 -121 23q-113 0 -200.5 -82t-120.5 -235l-123 -580h-82l172 809q19 90 19 162h79q0 -77 -14 -146z" />
    <glyph glyph-name="s" unicode="s" horiz-adv-x="862" 
d="M793 709l-78 -21q0 61 -25.5 113.5t-83.5 88.5t-139 36q-92 0 -164 -56.5t-72 -136.5q0 -57 31.5 -97.5t108.5 -76.5l143 -65q82 -37 127 -96t45 -132q0 -124 -91.5 -207.5t-236.5 -83.5q-151 0 -242 82.5t-91 216.5q0 28 6 52l75 20q-4 -24 -4 -51q0 -111 66 -179.5
t190 -68.5q103 0 173.5 57t70.5 148q0 112 -137 176l-139 64q-174 80 -174 227q0 116 90.5 196t228.5 80q80 0 143 -25t101 -66.5t58 -91.5t20 -103z" />
    <glyph glyph-name="t" unicode="t" horiz-adv-x="563" 
d="M360 1280h82l-65 -309h209l-15 -74h-211l-122 -582q-17 -81 -17 -112q0 -65 34.5 -103.5t104.5 -38.5q32 0 64 9l-16 -72q-24 -8 -58 -8q-103 0 -157 55.5t-54 153.5q0 42 19 129l121 569h-189l14 74h52q71 0 110 24t56 105z" />
    <glyph glyph-name="u" unicode="u" horiz-adv-x="1054" 
d="M236 971h81l-120 -568q-15 -71 -15 -118q0 -108 60.5 -173t181.5 -65q118 0 212 99t128 257l121 568h82l-172 -809q-17 -81 -17 -162h-78q0 102 17 164q-42 -76 -125 -132.5t-189 -56.5q-144 0 -223.5 82.5t-79.5 216.5q0 54 15 125z" />
    <glyph glyph-name="v" unicode="v" horiz-adv-x="950" 
d="M143 971h82l144 -877l499 877h95l-566 -971h-90z" />
    <glyph glyph-name="w" unicode="w" horiz-adv-x="1523" 
d="M141 971h84l76 -860l483 860h111l102 -871l461 871h88l-522 -971h-90l-107 899l-508 -899h-81z" />
    <glyph glyph-name="x" unicode="x" horiz-adv-x="931" 
d="M-84 0l485 504l-256 467h93l221 -412l389 412h106l-460 -473l272 -498h-92l-236 436l-413 -436h-109z" />
    <glyph glyph-name="y" unicode="y" horiz-adv-x="966" 
d="M104 -389h-94l361 532l-242 828h86l211 -752l492 752h96z" />
    <glyph glyph-name="z" unicode="z" horiz-adv-x="915" 
d="M717 0h-770l12 74l827 823h-622l14 74h729l-12 -74l-829 -823h665z" />
    <glyph glyph-name="braceleft" unicode="{" horiz-adv-x="591" 
d="M59 614l19 82q209 15 254 222l76 354q32 151 109.5 221t213.5 70h14l-14 -70h-14q-104 0 -158 -52.5t-78 -164.5l-78 -373q-22 -108 -90 -173.5t-180 -78.5q81 -12 123.5 -61.5t42.5 -126.5q0 -30 -6 -64l-78 -372q-10 -55 -10 -88q0 -66 35.5 -97.5t117.5 -31.5h15
l-15 -68h-14q-99 0 -156 49t-57 137q0 44 12 103l76 354q6 30 6 59q0 72 -44 116.5t-122 53.5z" />
    <glyph glyph-name="bar" unicode="|" horiz-adv-x="389" 
d="M47 -281h-74l396 1864h73z" />
    <glyph glyph-name="braceright" unicode="}" horiz-adv-x="591" 
d="M559 690l-18 -82q-209 -15 -254 -221l-76 -354q-32 -151 -110 -221t-214 -70h-14l14 70h15q104 0 157.5 52.5t77.5 164.5l78 372q22 108 90 173.5t180 78.5q-81 12 -123.5 62t-42.5 127q0 23 7 63l77 373q11 60 11 88q0 66 -36 97.5t-118 31.5h-14l14 68h14q99 0 156 -49
t57 -138q0 -44 -12 -102l-76 -354q-6 -30 -6 -60q0 -72 44 -116.5t122 -53.5z" />
    <glyph glyph-name="asciitilde" unicode="~" horiz-adv-x="1230" 
d="M641 537l-96 49q-81 43 -146 43q-66 0 -113.5 -28t-90.5 -87l-52 41q51 74 112 110.5t144 36.5q80 0 181 -53l94 -51q92 -47 157 -47q67 0 114.5 27t88.5 86l51 -41q-51 -74 -111 -110t-143 -36q-73 0 -190 60z" />
    <glyph glyph-name="uni00A0" unicode="&#xa0;" horiz-adv-x="538" 
 />
    <glyph glyph-name="exclamdown" unicode="&#xa1;" horiz-adv-x="401" 
d="M31 -473h-107l254 1081h58zM334 918q0 -40 -25.5 -68.5t-64.5 -28.5q-31 0 -50.5 22.5t-19.5 51.5q0 38 26.5 65t63.5 27q30 0 50 -20.5t20 -48.5z" />
    <glyph glyph-name="cent" unicode="&#xa2;" horiz-adv-x="1042" 
d="M373 0l43 205q-135 32 -215 139.5t-80 253.5q0 117 41 220.5t108.5 174t156.5 112.5t185 44l39 178h72l-39 -182q129 -16 207 -94.5t100 -186.5l-69 -26q-22 96 -87.5 160t-164.5 77l-170 -811h26q116 0 206.5 67.5t146.5 178.5l59 -33q-59 -130 -170 -206t-248 -76h-35
l-41 -195h-71zM201 600q0 -122 61.5 -209t167.5 -115l168 803q-76 -5 -147 -40.5t-127 -96t-89.5 -150t-33.5 -192.5z" />
    <glyph glyph-name="sterling" unicode="&#xa3;" horiz-adv-x="1179" 
d="M330 551q0 19 -4 59h-185l15 76h159q-2 11 -9.5 48.5t-10.5 54.5t-7.5 47.5t-6.5 56t-2 51.5q0 172 123 290t290 118q95 0 168.5 -29.5t117.5 -79t66.5 -110.5t22.5 -129q0 -22 -4 -58l-86 -8q4 20 4 61q0 121 -78.5 199t-212.5 78q-135 0 -230 -95.5t-95 -236.5
q0 -39 5 -79.5t16 -98t15 -80.5h406l-14 -76h-383q4 -36 4 -57q0 -282 -299 -477h518q136 0 223 78t119 217l80 -13q-37 -168 -145.5 -263t-272.5 -95h-653l16 82q147 82 238.5 205.5t91.5 263.5z" />
    <glyph glyph-name="currency" unicode="&#xa4;" horiz-adv-x="1275" 
d="M182 469q0 165 107 285l-150 155l54 52l149 -156q125 100 276 100q152 0 267 -94l145 150l51 -52l-141 -147q115 -125 115 -293q0 -170 -111 -287l141 -143l-51 -51l-143 143q-119 -98 -273 -98q-163 0 -282 106l-148 -151l-51 51l148 151q-103 115 -103 279zM256 469
q0 -152 105.5 -258.5t256.5 -106.5t256 106.5t105 258.5q0 153 -105 259t-256 106t-256.5 -106t-105.5 -259z" />
    <glyph glyph-name="yen" unicode="&#xa5;" horiz-adv-x="1171" 
d="M485 350h-393l14 68h394l39 182h-394l15 66h354l-262 661h94l248 -655l526 655h101l-541 -661h352l-14 -66h-393l-39 -182h393l-14 -68h-394l-73 -350h-86z" />
    <glyph glyph-name="brokenbar" unicode="&#xa6;" horiz-adv-x="407" 
d="M379 1583h74l-174 -819h-74zM158 541h73l-174 -822h-73z" />
    <glyph glyph-name="section" unicode="&#xa7;" horiz-adv-x="1001" 
d="M655 774q90 -68 136.5 -128t46.5 -140q0 -113 -77 -191t-194 -106q164 -120 164 -264q0 -161 -116 -260t-275 -99q-166 0 -257 91t-91 235q0 63 10 86l78 8q-8 -33 -8 -74q0 -123 71 -199.5t203 -76.5q123 0 212 73t89 191q0 127 -133 227l-186 140q-89 67 -136 129.5
t-47 142.5q0 61 24.5 114t64 89t86 58.5t94.5 29.5q-76 55 -117 124.5t-41 143.5q0 109 54 192t140.5 125t188.5 42q156 0 245 -89.5t89 -230.5q0 -37 -6 -78l-80 -10q6 37 6 74q0 119 -66.5 191.5t-189.5 72.5q-116 0 -206.5 -75t-90.5 -195q0 -131 129 -224zM623 694
l-154 115q-94 -10 -168 -76.5t-74 -159.5q0 -107 133 -206l152 -115q55 7 109.5 39t93.5 86.5t39 114.5q0 58 -33.5 106t-97.5 96z" />
    <glyph glyph-name="dieresis" unicode="&#xa8;" horiz-adv-x="544" 
d="M133 1229q0 34 22.5 58t55.5 24q25 0 41 -19.5t16 -44.5q0 -33 -21.5 -55.5t-53.5 -22.5q-27 0 -43.5 18t-16.5 42zM461 1229q0 34 22.5 58t55.5 24q25 0 41 -19.5t16 -44.5q0 -32 -22 -55t-54 -23q-27 0 -43 18t-16 42z" />
    <glyph glyph-name="copyright" unicode="&#xa9;" horiz-adv-x="1738" 
d="M1270 915l-70 -24q-22 93 -89 146t-165 53q-66 0 -129 -30t-113 -82.5t-81 -132t-31 -171.5q0 -129 77.5 -208t200.5 -79q178 0 281 180q17 -5 66 -24q-53 -92 -142.5 -155.5t-208.5 -63.5q-156 0 -253 98.5t-97 249.5q0 103 37.5 194t98 153t139 98t159.5 36
q138 0 221 -68t99 -170zM227 725q0 -188 88.5 -345t243 -248t338.5 -91t338 91t243 248.5t89 344.5q0 113 -33.5 218t-95 189t-144 147.5t-185 97.5t-212.5 34q-138 0 -262.5 -53.5t-213.5 -145.5t-141.5 -219t-52.5 -268zM156 725q0 153 58 292.5t157 240t236.5 160
t289.5 59.5t290 -59.5t237 -160t157.5 -240t58.5 -292.5t-58.5 -291.5t-157.5 -239t-237 -160t-290 -59.5t-290 59.5t-236.5 160t-156.5 239t-58 291.5z" />
    <glyph glyph-name="ordfeminine" unicode="&#xaa;" horiz-adv-x="913" 
d="M477 690q83 0 150 54.5t101 135.5t34 167q0 104 -57.5 167.5t-159.5 63.5q-116 0 -199.5 -100t-83.5 -250q0 -105 57.5 -171.5t157.5 -66.5zM764 641h-72q4 45 19 121q-35 -55 -99.5 -96t-148.5 -41q-129 0 -203 85t-74 216q0 178 106.5 299t254.5 121q63 0 112 -19
t76 -49.5t41 -58t19 -54.5l34 164h74l-125 -586q-4 -19 -14 -102z" />
    <glyph glyph-name="guillemotleft" unicode="&#xab;" horiz-adv-x="888" 
d="M371 188h-78l-193 392l351 391h94l-361 -398zM680 188h-78l-192 392l350 391h94l-360 -398z" />
    <glyph glyph-name="logicalnot" unicode="&#xac;" horiz-adv-x="1210" 
d="M1006 332h-76v420h-797v73h873v-493z" />
    <glyph glyph-name="uni00AD" unicode="&#xad;" horiz-adv-x="823" 
d="M666 551h-529l15 74h528z" />
    <glyph glyph-name="registered" unicode="&#xae;" horiz-adv-x="1738" 
d="M227 725q0 -188 88.5 -345t243 -248t338.5 -91t338 91t243 248.5t89 344.5q0 113 -33.5 218t-95 189t-144 147.5t-185 97.5t-212.5 34q-138 0 -262.5 -53.5t-213.5 -145.5t-141.5 -219t-52.5 -268zM156 725q0 153 58 292.5t157 240t236.5 160t289.5 59.5t290 -59.5
t237 -160t157.5 -240t58.5 -292.5t-58.5 -291.5t-157.5 -239t-237 -160t-290 -59.5t-290 59.5t-236.5 160t-156.5 239t-58 291.5zM1118 324h-76l-127 340h-172l-73 -340h-68l174 815h236q96 0 154.5 -54.5t58.5 -144.5q0 -108 -68.5 -180t-171.5 -90zM758 723h160
q105 0 172 61.5t67 157.5q0 63 -43 100t-121 37h-157z" />
    <glyph glyph-name="macron" unicode="&#xaf;" horiz-adv-x="591" 
d="M629 1196h-496l14 72h496z" />
    <glyph glyph-name="degree" unicode="&#xb0;" horiz-adv-x="827" 
d="M535 1348q120 0 199 -79t79 -196q0 -137 -98.5 -240.5t-241.5 -103.5q-120 0 -199 79t-79 196q0 137 98.5 240.5t241.5 103.5zM479 797q106 0 182 81.5t76 190.5q0 91 -58 151t-151 60q-106 0 -182 -81.5t-76 -190.5q0 -91 58 -151t151 -60z" />
    <glyph glyph-name="plusminus" unicode="&#xb1;" horiz-adv-x="1228" 
d="M156 750h397v309h74v-309h399v-70h-399v-311h-74v311h-397v70zM156 219h870v-69h-870v69z" />
    <glyph glyph-name="twosuperior" unicode="&#xb2;" horiz-adv-x="698" 
d="M295 1174l-66 2q-4 20 -4 30q0 104 74 180t197 76q109 0 173 -59.5t64 -142.5q0 -82 -55.5 -146.5t-145.5 -103.5l-159 -70q-132 -57 -160 -164h461l-15 -65h-540q46 206 215 280l160 72q79 36 122 81t43 111q0 62 -44.5 104t-122.5 42q-86 0 -142.5 -59t-56.5 -146
q0 -14 2 -22z" />
    <glyph glyph-name="threesuperior" unicode="&#xb3;" horiz-adv-x="698" 
d="M391 1094l-24 63l317 229h-414l13 66h491l-18 -94l-293 -203q92 0 157.5 -55t65.5 -148q0 -106 -79.5 -181t-205.5 -75q-117 0 -189.5 64.5t-72.5 154.5q0 21 2 31l74 17q-2 -12 -2 -33q0 -76 55.5 -123t137.5 -47q85 0 144.5 57t59.5 133q0 70 -51.5 108t-126.5 38
q-27 0 -41 -2z" />
    <glyph glyph-name="acute" unicode="&#xb4;" horiz-adv-x="475" 
d="M209 1094h-76l264 276h129z" />
    <glyph glyph-name="mu" unicode="&#xb5;" horiz-adv-x="1140" 
d="M838 172q-34 -79 -115.5 -138t-200.5 -59q-99 0 -172.5 40.5t-109.5 111.5v-516h-82v1360h82v-596q0 -66 16 -122.5t49.5 -103t91 -73.5t133.5 -27q133 0 217 95t84 229v598h82v-783q0 -86 13 -188h-78q-10 90 -10 150v22z" />
    <glyph glyph-name="paragraph" unicode="&#xb6;" horiz-adv-x="1222" 
d="M670 1452h645l-17 -70h-190l-377 -1771h-72l377 1771h-254l-376 -1771h-72l227 1067h-45q-151 0 -247.5 100.5t-96.5 249.5q0 181 139 302.5t359 121.5z" />
    <glyph glyph-name="periodcentered" unicode="&#xb7;" horiz-adv-x="450" 
d="M141 571q0 42 25.5 69.5t66.5 27.5q31 0 50.5 -22t19.5 -52q0 -38 -27 -66t-65 -28q-31 0 -50.5 20.5t-19.5 50.5z" />
    <glyph glyph-name="cedilla" unicode="&#xb8;" horiz-adv-x="565" 
d="M49 -178l-24 47l159 141h82l-153 -131q10 2 30 2q78 0 127 -39.5t49 -97.5q0 -74 -59.5 -121t-150.5 -47q-79 0 -140.5 37t-91.5 98l55 35q55 -108 181 -108q63 0 100 28.5t37 77.5q0 39 -34.5 64.5t-98.5 25.5q-31 0 -68 -12z" />
    <glyph glyph-name="onesuperior" unicode="&#xb9;" horiz-adv-x="415" 
d="M195 1245l12 66q76 9 130.5 47t80.5 94h71l-157 -741h-74l129 608q-26 -26 -82.5 -50t-109.5 -24z" />
    <glyph glyph-name="ordmasculine" unicode="&#xba;" horiz-adv-x="880" 
d="M258 930q0 -105 60 -172.5t167 -67.5q55 0 107.5 24t95 67t68.5 110.5t26 148.5q0 109 -63 174.5t-164 65.5q-55 0 -107.5 -24t-95 -67t-68.5 -110.5t-26 -148.5zM557 1346q133 0 217 -84t84 -220q0 -92 -32 -171t-84 -132.5t-119 -83.5t-138 -30q-134 0 -217.5 83.5
t-83.5 219.5q0 92 32 172t84 133t119 83t138 30z" />
    <glyph glyph-name="guillemotright" unicode="&#xbb;" horiz-adv-x="888" 
d="M514 971h78l192 -391l-350 -392h-94l360 398zM205 971h78l192 -391l-350 -392h-94l360 398z" />
    <glyph glyph-name="onequarter" unicode="&#xbc;" horiz-adv-x="1552" 
d="M199 1120l12 66q76 9 130.5 47t80.5 94h72l-158 -741h-74l129 608q-26 -26 -82.5 -50t-109.5 -24zM780 178l17 78l473 485h98l-106 -497h141l-12 -66h-142l-39 -178h-73l39 178h-396zM1188 244l90 409l-406 -409h316zM162 0h-92l1233 1327h92z" />
    <glyph glyph-name="onehalf" unicode="&#xbd;" horiz-adv-x="1626" 
d="M197 1120l12 66q76 9 130.5 47t80.5 94h72l-158 -741h-74l129 608q-26 -26 -82.5 -50t-109.5 -24zM160 0h-92l1232 1327h93zM1061 463l-66 2q-4 20 -4 31q0 104 74 180t197 76q109 0 173 -60t64 -143q0 -82 -55.5 -146.5t-145.5 -103.5l-159 -70q-133 -57 -160 -163h461
l-15 -66h-540q46 207 215 281l160 71q79 35 122 81t43 112q0 61 -44.5 103t-123.5 42q-86 0 -142 -59t-56 -146q0 -14 2 -22z" />
    <glyph glyph-name="threequarters" unicode="&#xbe;" horiz-adv-x="1738" 
d="M391 969l-24 63l317 230h-414l13 65h491l-18 -94l-293 -203q92 0 157.5 -55t65.5 -148q0 -106 -79.5 -181t-205.5 -75q-117 0 -189.5 65t-72.5 155q0 20 2 30l74 17q-2 -12 -2 -33q0 -76 55.5 -123t137.5 -47q85 0 144.5 57t59.5 133q0 70 -51.5 108t-126.5 38
q-27 0 -41 -2zM967 178l16 78l473 485h98l-106 -497h141l-12 -66h-141l-39 -178h-74l39 178h-395zM1374 244l90 409l-405 -409h315zM348 0h-92l1233 1327h92z" />
    <glyph glyph-name="questiondown" unicode="&#xbf;" horiz-adv-x="958" 
d="M465 610h72q2 -12 2 -39q0 -120 -50.5 -194.5t-154.5 -136.5l-103 -62q-110 -66 -167.5 -147t-57.5 -187q0 -114 77.5 -190t221.5 -76q81 0 150 32.5t114 85.5t70 120t25 137q0 6 -1 20t-1 21l77 -19q2 -10 2 -30q0 -65 -19.5 -129t-58 -120.5t-91 -100t-124 -68.5
t-151.5 -25q-88 0 -160.5 29t-118.5 76.5t-71 107.5t-25 125q0 243 279 406l104 61q160 93 160 264v39zM616 918q0 -40 -25.5 -68.5t-64.5 -28.5q-31 0 -50 22.5t-19 51.5q0 38 26.5 65t63.5 27q30 0 49.5 -20.5t19.5 -48.5z" />
    <glyph glyph-name="Agrave" unicode="&#xc0;" horiz-adv-x="1316" 
d="M1057 0l-86 504h-649l-295 -504h-101l862 1452h105l250 -1452h-86zM825 1362l-456 -778h587zM811 1554l-209 244h109l180 -244h-80z" />
    <glyph glyph-name="Aacute" unicode="&#xc1;" horiz-adv-x="1316" 
d="M1057 0l-86 504h-649l-295 -504h-101l862 1452h105l250 -1452h-86zM825 1362l-456 -778h587zM1210 1798l-307 -244h-88l272 244h123z" />
    <glyph glyph-name="Acircumflex" unicode="&#xc2;" horiz-adv-x="1316" 
d="M1057 0l-86 504h-649l-295 -504h-101l862 1452h105l250 -1452h-86zM825 1362l-456 -778h587zM1122 1554h-69l-164 193l-238 -193h-86l275 244h116z" />
    <glyph glyph-name="Atilde" unicode="&#xc3;" horiz-adv-x="1316" 
d="M1057 0l-86 504h-649l-295 -504h-101l862 1452h105l250 -1452h-86zM825 1362l-456 -778h587zM995 1642q46 0 77.5 34.5t45.5 97.5h70q-21 -96 -78.5 -148.5t-126.5 -52.5q-68 0 -117 49l-41 39q-28 26 -47.5 36.5t-46.5 10.5q-46 0 -77.5 -33.5t-43.5 -95.5h-67
q18 95 73.5 147t126.5 52q69 0 125 -56l39 -36q27 -25 44.5 -34.5t43.5 -9.5z" />
    <glyph glyph-name="Adieresis" unicode="&#xc4;" horiz-adv-x="1316" 
d="M1057 0l-86 504h-649l-295 -504h-101l862 1452h105l250 -1452h-86zM825 1362l-456 -778h587zM606 1667q0 34 22.5 58t55.5 24q25 0 41 -19t16 -44q0 -33 -21.5 -55.5t-53.5 -22.5q-27 0 -43.5 17.5t-16.5 41.5zM993 1667q0 34 22.5 58t55.5 24q25 0 41 -19t16 -44
q0 -33 -21.5 -55.5t-53.5 -22.5q-27 0 -43.5 17.5t-16.5 41.5z" />
    <glyph glyph-name="Aring" unicode="&#xc5;" horiz-adv-x="1316" 
d="M1057 0l-86 504h-649l-295 -504h-101l836 1409q-43 22 -68.5 64t-25.5 94q0 91 64.5 153t150.5 62q76 0 125 -50t49 -124q0 -72 -44.5 -130t-111.5 -79l242 -1399h-86zM825 1362l-456 -778h587zM731 1571q0 -51 32 -85t85 -34q59 0 103 45t44 107q0 51 -31.5 84.5
t-84.5 33.5q-64 0 -106 -45t-42 -106z" />
    <glyph glyph-name="AE" unicode="&#xc6;" horiz-adv-x="1961" 
d="M1731 0h-836l96 453h-602l-391 -453h-109l1272 1452h860l-16 -80h-731l-129 -604h661l-16 -80h-662l-129 -608h748zM1008 530l178 836l-729 -836h551z" />
    <glyph glyph-name="Ccedilla" unicode="&#xc7;" horiz-adv-x="1482" 
d="M565 -178l-24 47l123 111q-110 9 -205 54.5t-167.5 122t-113.5 190t-41 251.5q0 168 45.5 313.5t122 247.5t176 175t207 108t215.5 35q242 0 392 -129t178 -326l-78 -27q-26 180 -157 291t-341 111q-94 0 -188 -31.5t-181 -98t-154.5 -158.5t-108 -223.5t-40.5 -283.5
q0 -132 40.5 -237.5t110.5 -172.5t162 -102t199 -35q189 0 334.5 101t235.5 290l67 -43q-91 -193 -258 -308.5t-375 -119.5l-112 -96q10 2 30 2q78 0 127.5 -39.5t49.5 -97.5q0 -74 -59.5 -121t-151.5 -47q-79 0 -140.5 37t-91.5 98l56 35q55 -108 180 -108q63 0 100 28.5
t37 77.5q0 39 -34.5 64.5t-98.5 25.5q-31 0 -68 -12z" />
    <glyph glyph-name="Egrave" unicode="&#xc8;" horiz-adv-x="1155" 
d="M924 0h-836l309 1452h817l-16 -80h-731l-129 -604h661l-16 -80h-661l-129 -608h747zM815 1554l-209 244h109l180 -244h-80z" />
    <glyph glyph-name="Eacute" unicode="&#xc9;" horiz-adv-x="1155" 
d="M1133 1798l-308 -244h-88l273 244h123zM924 0h-836l309 1452h817l-16 -80h-731l-129 -604h661l-16 -80h-661l-129 -608h747z" />
    <glyph glyph-name="Ecircumflex" unicode="&#xca;" horiz-adv-x="1155" 
d="M1116 1554h-69l-164 193l-238 -193h-86l275 244h116zM924 0h-836l309 1452h817l-16 -80h-731l-129 -604h661l-16 -80h-661l-129 -608h747z" />
    <glyph glyph-name="Edieresis" unicode="&#xcb;" horiz-adv-x="1155" 
d="M924 0h-836l309 1452h817l-16 -80h-731l-129 -604h661l-16 -80h-661l-129 -608h747zM588 1667q0 34 22.5 58t55.5 24q25 0 41 -19t16 -44q0 -32 -22 -55t-54 -23q-27 0 -43 17.5t-16 41.5zM975 1667q0 34 22.5 58t55.5 24q25 0 41 -19t16 -44q0 -32 -22 -55t-54 -23
q-27 0 -43 17.5t-16 41.5z" />
    <glyph glyph-name="Igrave" unicode="&#xcc;" horiz-adv-x="516" 
d="M176 0h-88l309 1452h88zM430 1554l-209 244h109l180 -244h-80z" />
    <glyph glyph-name="Iacute" unicode="&#xcd;" horiz-adv-x="516" 
d="M176 0h-88l309 1452h88zM817 1798l-307 -244h-88l272 244h123z" />
    <glyph glyph-name="Icircumflex" unicode="&#xce;" horiz-adv-x="516" 
d="M176 0h-88l309 1452h88zM731 1554h-69l-164 193l-238 -193h-86l275 244h116z" />
    <glyph glyph-name="Idieresis" unicode="&#xcf;" horiz-adv-x="516" 
d="M176 0h-88l309 1452h88zM285 1667q0 34 22 58t55 24q25 0 41.5 -19t16.5 -44q0 -32 -22 -55t-54 -23q-27 0 -43 17.5t-16 41.5zM532 1667q0 34 22.5 58t55.5 24q25 0 41.5 -19t16.5 -44q0 -32 -22 -55t-54 -23q-27 0 -43.5 17.5t-16.5 41.5z" />
    <glyph glyph-name="Eth" unicode="&#xd0;" horiz-adv-x="1417" 
d="M492 0h-400l152 713h-170l14 73h170l143 666h383q164 0 291.5 -64t202 -190t74.5 -297q0 -143 -39.5 -277.5t-115.5 -247t-179 -197t-239 -132t-287 -47.5zM197 78h299q108 0 216 33t207.5 101.5t175.5 164.5t121.5 231.5t45.5 292.5q0 152 -65 260.5t-173 160.5t-248 52
h-303l-125 -588h305l-14 -73h-307z" />
    <glyph glyph-name="Ntilde" unicode="&#xd1;" horiz-adv-x="1466" 
d="M1079 1642q46 0 77.5 34.5t45.5 97.5h70q-21 -96 -78.5 -148.5t-126.5 -52.5q-68 0 -117 49l-41 39q-28 26 -47.5 36.5t-46.5 10.5q-46 0 -77.5 -33.5t-43.5 -95.5h-67q18 95 73.5 147t126.5 52q69 0 125 -56l39 -36q27 -25 44.5 -34.5t43.5 -9.5zM1128 0h-96l-571 1339
l-283 -1339h-88l307 1452h115l557 -1317l279 1317h88z" />
    <glyph glyph-name="Ograve" unicode="&#xd2;" horiz-adv-x="1570" 
d="M938 1554l-209 244h109l180 -244h-80zM733 55q94 0 188 31.5t181 98t154.5 158.5t108 223.5t40.5 283.5q0 134 -40.5 240.5t-110.5 172.5t-161 100t-196 34q-94 0 -188 -31.5t-181 -98t-154.5 -158.5t-108 -223.5t-40.5 -283.5q0 -134 40.5 -240.5t110.5 -172.5t161 -100
t196 -34zM727 -25q-121 0 -227 40.5t-187.5 116.5t-128.5 196.5t-47 269.5q0 168 45.5 313.5t122 247.5t176 175t207 108t215.5 35q121 0 227 -41t187.5 -117.5t128.5 -196.5t47 -268q0 -168 -45.5 -313.5t-122 -247.5t-176 -175t-207 -108t-215.5 -35z" />
    <glyph glyph-name="Oacute" unicode="&#xd3;" horiz-adv-x="1570" 
d="M1286 1798l-307 -244h-88l272 244h123zM733 55q94 0 188 31.5t181 98t154.5 158.5t108 223.5t40.5 283.5q0 134 -40.5 240.5t-110.5 172.5t-161 100t-196 34q-94 0 -188 -31.5t-181 -98t-154.5 -158.5t-108 -223.5t-40.5 -283.5q0 -134 40.5 -240.5t110.5 -172.5
t161 -100t196 -34zM727 -25q-121 0 -227 40.5t-187.5 116.5t-128.5 196.5t-47 269.5q0 168 45.5 313.5t122 247.5t176 175t207 108t215.5 35q121 0 227 -41t187.5 -117.5t128.5 -196.5t47 -268q0 -168 -45.5 -313.5t-122 -247.5t-176 -175t-207 -108t-215.5 -35z" />
    <glyph glyph-name="Ocircumflex" unicode="&#xd4;" horiz-adv-x="1570" 
d="M1243 1554h-69l-164 193l-238 -193h-86l275 244h116zM733 55q94 0 188 31.5t181 98t154.5 158.5t108 223.5t40.5 283.5q0 134 -40.5 240.5t-110.5 172.5t-161 100t-196 34q-94 0 -188 -31.5t-181 -98t-154.5 -158.5t-108 -223.5t-40.5 -283.5q0 -134 40.5 -240.5
t110.5 -172.5t161 -100t196 -34zM727 -25q-121 0 -227 40.5t-187.5 116.5t-128.5 196.5t-47 269.5q0 168 45.5 313.5t122 247.5t176 175t207 108t215.5 35q121 0 227 -41t187.5 -117.5t128.5 -196.5t47 -268q0 -168 -45.5 -313.5t-122 -247.5t-176 -175t-207 -108
t-215.5 -35z" />
    <glyph glyph-name="Otilde" unicode="&#xd5;" horiz-adv-x="1570" 
d="M1106 1642q46 0 77.5 34.5t45.5 97.5h69q-21 -96 -78 -148.5t-126 -52.5q-68 0 -117 49l-41 39q-28 26 -47.5 36.5t-46.5 10.5q-46 0 -77.5 -33.5t-43.5 -95.5h-68q18 95 74 147t127 52q69 0 125 -56l39 -36q27 -25 44.5 -34.5t43.5 -9.5zM733 55q94 0 188 31.5t181 98
t154.5 158.5t108 223.5t40.5 283.5q0 134 -40.5 240.5t-110.5 172.5t-161 100t-196 34q-94 0 -188 -31.5t-181 -98t-154.5 -158.5t-108 -223.5t-40.5 -283.5q0 -134 40.5 -240.5t110.5 -172.5t161 -100t196 -34zM727 -25q-121 0 -227 40.5t-187.5 116.5t-128.5 196.5
t-47 269.5q0 168 45.5 313.5t122 247.5t176 175t207 108t215.5 35q121 0 227 -41t187.5 -117.5t128.5 -196.5t47 -268q0 -168 -45.5 -313.5t-122 -247.5t-176 -175t-207 -108t-215.5 -35z" />
    <glyph glyph-name="Odieresis" unicode="&#xd6;" horiz-adv-x="1570" 
d="M602 1667q0 34 22.5 58t55.5 24q25 0 41 -19t16 -44q0 -33 -21.5 -55.5t-53.5 -22.5q-27 0 -43.5 17.5t-16.5 41.5zM1194 1667q0 34 22.5 58t55.5 24q25 0 41 -19t16 -44q0 -32 -22 -55t-54 -23q-27 0 -43 17.5t-16 41.5zM733 55q94 0 188 31.5t181 98t154.5 158.5
t108 223.5t40.5 283.5q0 134 -40.5 240.5t-110.5 172.5t-161 100t-196 34q-94 0 -188 -31.5t-181 -98t-154.5 -158.5t-108 -223.5t-40.5 -283.5q0 -134 40.5 -240.5t110.5 -172.5t161 -100t196 -34zM727 -25q-121 0 -227 40.5t-187.5 116.5t-128.5 196.5t-47 269.5
q0 168 45.5 313.5t122 247.5t176 175t207 108t215.5 35q121 0 227 -41t187.5 -117.5t128.5 -196.5t47 -268q0 -168 -45.5 -313.5t-122 -247.5t-176 -175t-207 -108t-215.5 -35z" />
    <glyph glyph-name="multiply" unicode="&#xd7;" horiz-adv-x="1153" 
d="M946 145l-379 392l-374 -390l-50 50l375 391l-375 391l50 51l376 -391l377 391l49 -49l-379 -393l379 -391z" />
    <glyph glyph-name="Oslash" unicode="&#xd8;" horiz-adv-x="1570" 
d="M727 -25q-265 0 -428 172l-172 -174l-49 47l176 179q-117 158 -117 399q0 168 45.5 313.5t122 247.5t176 175t207 108t215.5 35q128 0 241.5 -47t194.5 -136l187 189l49 -47l-193 -195q111 -159 111 -387q0 -168 -45.5 -313.5t-122 -247.5t-176 -175t-207 -108
t-215.5 -35zM225 602q0 -204 90 -340l965 973q-69 80 -168.5 121t-214.5 41q-94 0 -188 -31.5t-181 -98t-154.5 -158.5t-108 -223.5t-40.5 -283.5zM733 55q94 0 188 31.5t181 98t154.5 158.5t108 223.5t40.5 283.5q0 195 -84 328l-963 -971q68 -75 165 -113.5t210 -38.5z
" />
    <glyph glyph-name="Ugrave" unicode="&#xd9;" horiz-adv-x="1349" 
d="M866 1554l-209 244h109l180 -244h-80zM1247 1452h88l-219 -1028q-47 -220 -177.5 -334.5t-330.5 -114.5q-209 0 -323.5 112.5t-114.5 307.5q0 81 16 154l193 903h88l-193 -907q-16 -78 -16 -142q0 -159 89 -253.5t267 -94.5q168 0 273.5 99.5t144.5 283.5z" />
    <glyph glyph-name="Uacute" unicode="&#xda;" horiz-adv-x="1349" 
d="M1161 1798l-307 -244h-88l272 244h123zM1247 1452h88l-219 -1028q-47 -220 -177.5 -334.5t-330.5 -114.5q-209 0 -323.5 112.5t-114.5 307.5q0 81 16 154l193 903h88l-193 -907q-16 -78 -16 -142q0 -159 89 -253.5t267 -94.5q168 0 273.5 99.5t144.5 283.5z" />
    <glyph glyph-name="Ucircumflex" unicode="&#xdb;" horiz-adv-x="1349" 
d="M1147 1554h-70l-164 193l-237 -193h-86l274 244h117zM1247 1452h88l-219 -1028q-47 -220 -177.5 -334.5t-330.5 -114.5q-209 0 -323.5 112.5t-114.5 307.5q0 81 16 154l193 903h88l-193 -907q-16 -78 -16 -142q0 -159 89 -253.5t267 -94.5q168 0 273.5 99.5t144.5 283.5z
" />
    <glyph glyph-name="Udieresis" unicode="&#xdc;" horiz-adv-x="1349" 
d="M1247 1452h88l-219 -1028q-47 -220 -177.5 -334.5t-330.5 -114.5q-209 0 -323.5 112.5t-114.5 307.5q0 81 16 154l193 903h88l-193 -907q-16 -78 -16 -142q0 -159 89 -253.5t267 -94.5q168 0 273.5 99.5t144.5 283.5zM618 1667q0 34 22.5 58t55.5 24q25 0 41.5 -19
t16.5 -44q0 -32 -22 -55t-54 -23q-27 0 -43.5 17.5t-16.5 41.5zM1006 1667q0 34 22 58t55 24q25 0 41.5 -19t16.5 -44q0 -32 -22 -55t-54 -23q-27 0 -43 17.5t-16 41.5z" />
    <glyph glyph-name="Yacute" unicode="&#xdd;" horiz-adv-x="1177" 
d="M561 643l-315 809h92l280 -737l564 737h102l-641 -821l-135 -631h-86zM1081 1798l-307 -244h-88l272 244h123z" />
    <glyph glyph-name="Thorn" unicode="&#xde;" horiz-adv-x="1175" 
d="M604 317h-360l-68 -317h-88l309 1452h88l-65 -309h356q167 0 267 -94t100 -238q0 -140 -71 -253.5t-194 -177t-274 -63.5zM260 397h344q194 0 321.5 116t127.5 294q0 118 -78.5 187t-222.5 69h-349z" />
    <glyph glyph-name="germandbls" unicode="&#xdf;" horiz-adv-x="1079" 
d="M322 281l79 12q-6 -21 -6 -43q0 -84 53 -146.5t164 -62.5q74 0 131.5 40t84 94.5t26.5 109.5q0 121 -117 204l-73 54q-78 56 -78 135q0 104 123 166l96 51q73 37 118.5 102.5t45.5 157.5q0 102 -74 174t-197 72q-128 0 -222 -94.5t-130 -270.5l-219 -1036h-84l221 1044
q43 207 161 320t277 113t255 -90t96 -222q0 -123 -62.5 -209.5t-146.5 -128.5l-99 -49q-73 -37 -73 -98q0 -22 14.5 -40t46.5 -42l72 -53q63 -47 98 -112t35 -140q0 -57 -23 -114.5t-64 -105.5t-105.5 -78t-141.5 -30q-74 0 -131.5 24.5t-90 65t-49 86t-16.5 92.5q0 8 5 48z
" />
    <glyph glyph-name="agrave" unicode="&#xe0;" horiz-adv-x="1140" 
d="M856 451q14 72 14 124q0 154 -80.5 250.5t-224.5 96.5q-108 0 -203 -66.5t-153.5 -187.5t-58.5 -267q0 -155 82 -254.5t227 -99.5q142 0 251.5 114t145.5 290zM809 184q-26 -39 -59 -73t-77.5 -66t-102.5 -51t-121 -19q-116 0 -203 57.5t-130.5 150t-43.5 204.5
q0 129 40.5 243t108 193.5t158 125.5t188.5 46q73 0 132.5 -20t95.5 -49t62.5 -68t38 -71t17.5 -64l54 248h82l-148 -692q-20 -103 -20 -189q0 -65 2 -90h-78q-4 40 -4 76q0 53 8 108zM655 1094h-63l-160 276h98z" />
    <glyph glyph-name="aacute" unicode="&#xe1;" horiz-adv-x="1140" 
d="M856 451q14 72 14 124q0 154 -80.5 250.5t-224.5 96.5q-108 0 -203 -66.5t-153.5 -187.5t-58.5 -267q0 -155 82 -254.5t227 -99.5q142 0 251.5 114t145.5 290zM809 184q-26 -39 -59 -73t-77.5 -66t-102.5 -51t-121 -19q-116 0 -203 57.5t-130.5 150t-43.5 204.5
q0 129 40.5 243t108 193.5t158 125.5t188.5 46q73 0 132.5 -20t95.5 -49t62.5 -68t38 -71t17.5 -64l54 248h82l-148 -692q-20 -103 -20 -189q0 -65 2 -90h-78q-4 40 -4 76q0 53 8 108zM639 1094h-76l264 276h129z" />
    <glyph glyph-name="acircumflex" unicode="&#xe2;" horiz-adv-x="1140" 
d="M856 451q14 72 14 124q0 154 -80.5 250.5t-224.5 96.5q-108 0 -203 -66.5t-153.5 -187.5t-58.5 -267q0 -155 82 -254.5t227 -99.5q142 0 251.5 114t145.5 290zM809 184q-26 -39 -59 -73t-77.5 -66t-102.5 -51t-121 -19q-116 0 -203 57.5t-130.5 150t-43.5 204.5
q0 129 40.5 243t108 193.5t158 125.5t188.5 46q73 0 132.5 -20t95.5 -49t62.5 -68t38 -71t17.5 -64l54 248h82l-148 -692q-20 -103 -20 -189q0 -65 2 -90h-78q-4 40 -4 76q0 53 8 108zM838 1094l-168 225l-256 -225h-82l289 276h114l166 -276h-63z" />
    <glyph glyph-name="atilde" unicode="&#xe3;" horiz-adv-x="1140" 
d="M856 451q14 72 14 124q0 154 -80.5 250.5t-224.5 96.5q-108 0 -203 -66.5t-153.5 -187.5t-58.5 -267q0 -155 82 -254.5t227 -99.5q142 0 251.5 114t145.5 290zM809 184q-26 -39 -59 -73t-77.5 -66t-102.5 -51t-121 -19q-116 0 -203 57.5t-130.5 150t-43.5 204.5
q0 129 40.5 243t108 193.5t158 125.5t188.5 46q73 0 132.5 -20t95.5 -49t62.5 -68t38 -71t17.5 -64l54 248h82l-148 -692q-20 -103 -20 -189q0 -65 2 -90h-78q-4 40 -4 76q0 53 8 108zM766 1196q46 0 77.5 34t45.5 97h69q-21 -96 -76 -148.5t-124 -52.5q-64 0 -117 50
l-41 38q-28 27 -48.5 37.5t-49.5 10.5q-46 0 -77.5 -33.5t-43.5 -95.5h-72q18 95 74 146.5t129 51.5q70 0 125 -55l39 -37q43 -43 90 -43z" />
    <glyph glyph-name="adieresis" unicode="&#xe4;" horiz-adv-x="1140" 
d="M856 451q14 72 14 124q0 154 -80.5 250.5t-224.5 96.5q-108 0 -203 -66.5t-153.5 -187.5t-58.5 -267q0 -155 82 -254.5t227 -99.5q142 0 251.5 114t145.5 290zM809 184q-26 -39 -59 -73t-77.5 -66t-102.5 -51t-121 -19q-116 0 -203 57.5t-130.5 150t-43.5 204.5
q0 129 40.5 243t108 193.5t158 125.5t188.5 46q73 0 132.5 -20t95.5 -49t62.5 -68t38 -71t17.5 -64l54 248h82l-148 -692q-20 -103 -20 -189q0 -65 2 -90h-78q-4 40 -4 76q0 53 8 108zM434 1229q0 34 22.5 58t55.5 24q25 0 41 -19.5t16 -44.5q0 -33 -21.5 -55.5t-53.5 -22.5
q-27 0 -43.5 18t-16.5 42zM762 1229q0 34 22.5 58t55.5 24q25 0 41 -19.5t16 -44.5q0 -32 -22 -55t-54 -23q-27 0 -43 18t-16 42z" />
    <glyph glyph-name="aring" unicode="&#xe5;" horiz-adv-x="1140" 
d="M856 451q14 72 14 124q0 154 -80.5 250.5t-224.5 96.5q-108 0 -203 -66.5t-153.5 -187.5t-58.5 -267q0 -155 82 -254.5t227 -99.5q142 0 251.5 114t145.5 290zM809 184q-26 -39 -59 -73t-77.5 -66t-102.5 -51t-121 -19q-116 0 -203 57.5t-130.5 150t-43.5 204.5
q0 129 40.5 243t108 193.5t158 125.5t188.5 46q73 0 132.5 -20t95.5 -49t62.5 -68t38 -71t17.5 -64l54 248h82l-148 -692q-20 -103 -20 -189q0 -65 2 -90h-78q-4 40 -4 76q0 53 8 108zM676 1499q81 0 132.5 -52.5t51.5 -131.5q0 -95 -68 -163.5t-159 -68.5q-82 0 -134.5 54
t-52.5 133q0 97 69 163t161 66zM512 1274q0 -54 35 -90.5t92 -36.5q62 0 110 48.5t48 115.5q0 54 -35 90.5t-92 36.5q-67 0 -112.5 -49.5t-45.5 -114.5z" />
    <glyph glyph-name="ae" unicode="&#xe6;" horiz-adv-x="1746" 
d="M1634 479h-809q-4 -27 -4 -80q0 -157 95 -254.5t245 -97.5q113 0 206.5 64t148.5 163l65 -43q-65 -116 -178 -187t-250 -71q-146 0 -252.5 77t-142.5 212q-11 -26 -25 -51q-56 -105 -159.5 -170.5t-229.5 -65.5q-153 0 -236 74t-83 178q0 138 96.5 214.5t245.5 84.5
l278 15q43 2 71 16t40.5 37.5t17 46.5t4.5 55q0 98 -68.5 157.5t-191.5 59.5q-109 0 -191.5 -60.5t-117.5 -164.5l-74 25q43 126 147 199t238 73q143 0 225.5 -60t104.5 -157q73 107 180.5 167t222.5 60q188 0 291 -111.5t103 -283.5q0 -54 -13 -121zM1251 922
q-146 0 -258 -106t-153 -265h719q4 28 4 47q0 142 -80.5 233t-231.5 91zM109 233q0 -85 72 -135.5t169 -50.5q130 0 231 83t130 212l34 160v4q-32 -32 -108 -35l-283 -14q-104 -5 -174.5 -64t-70.5 -160z" />
    <glyph glyph-name="ccedilla" unicode="&#xe7;" horiz-adv-x="1064" 
d="M317 -178l-24 47l125 113q-158 23 -252 140t-94 286q0 125 44.5 236t117.5 187t169 120t197 44q84 0 152.5 -24.5t114.5 -66.5t75 -94t41 -112l-74 -28q-24 114 -106.5 183t-208.5 69q-82 0 -160.5 -37t-140 -102.5t-99.5 -163t-38 -209.5q0 -161 94 -261t248 -100
q120 0 214.5 70t151.5 186l64 -35q-63 -135 -176.5 -214.5t-257.5 -80.5l-113 -96q10 2 31 2q78 0 127 -39.5t49 -97.5q0 -74 -59.5 -121t-151.5 -47q-79 0 -140.5 37t-91.5 98l56 35q55 -108 180 -108q63 0 100 28.5t37 77.5q0 39 -34.5 64.5t-98.5 25.5q-31 0 -68 -12z
" />
    <glyph glyph-name="egrave" unicode="&#xe8;" horiz-adv-x="1075" 
d="M963 479h-807q-4 -27 -4 -80q0 -157 95 -253.5t245 -96.5q113 0 206 64t148 163l65 -43q-65 -116 -178 -187t-250 -71q-182 0 -296.5 115.5t-114.5 310.5q0 130 44.5 243t117 189t164 119t186.5 43q188 0 289.5 -111.5t101.5 -283.5q0 -60 -12 -121zM582 922
q-146 0 -258.5 -106.5t-153.5 -264.5h719q4 28 4 47q0 142 -80.5 233t-230.5 91zM698 1094h-63l-160 276h98z" />
    <glyph glyph-name="eacute" unicode="&#xe9;" horiz-adv-x="1075" 
d="M662 1094h-76l264 276h129zM963 479h-807q-4 -27 -4 -80q0 -157 95 -253.5t245 -96.5q113 0 206 64t148 163l65 -43q-65 -116 -178 -187t-250 -71q-182 0 -296.5 115.5t-114.5 310.5q0 130 44.5 243t117 189t164 119t186.5 43q188 0 289.5 -111.5t101.5 -283.5
q0 -60 -12 -121zM582 922q-146 0 -258.5 -106.5t-153.5 -264.5h719q4 28 4 47q0 142 -80.5 233t-230.5 91z" />
    <glyph glyph-name="ecircumflex" unicode="&#xea;" horiz-adv-x="1075" 
d="M874 1094l-167 225l-256 -225h-82l288 276h115l166 -276h-64zM963 479h-807q-4 -27 -4 -80q0 -157 95 -253.5t245 -96.5q113 0 206 64t148 163l65 -43q-65 -116 -178 -187t-250 -71q-182 0 -296.5 115.5t-114.5 310.5q0 130 44.5 243t117 189t164 119t186.5 43
q188 0 289.5 -111.5t101.5 -283.5q0 -60 -12 -121zM582 922q-146 0 -258.5 -106.5t-153.5 -264.5h719q4 28 4 47q0 142 -80.5 233t-230.5 91z" />
    <glyph glyph-name="edieresis" unicode="&#xeb;" horiz-adv-x="1075" 
d="M436 1229q0 34 22.5 58t55.5 24q25 0 41 -19.5t16 -44.5q0 -33 -21.5 -55.5t-53.5 -22.5q-27 0 -43.5 18t-16.5 42zM764 1229q0 34 22.5 58t55.5 24q25 0 41 -19.5t16 -44.5q0 -32 -22 -55t-54 -23q-27 0 -43 18t-16 42zM963 479h-807q-4 -27 -4 -80q0 -157 95 -253.5
t245 -96.5q113 0 206 64t148 163l65 -43q-65 -116 -178 -187t-250 -71q-182 0 -296.5 115.5t-114.5 310.5q0 130 44.5 243t117 189t164 119t186.5 43q188 0 289.5 -111.5t101.5 -283.5q0 -60 -12 -121zM582 922q-146 0 -258.5 -106.5t-153.5 -264.5h719q4 28 4 47
q0 142 -80.5 233t-230.5 91z" />
    <glyph glyph-name="igrave" unicode="&#xec;" horiz-adv-x="417" 
d="M125 0h-82l207 971h82zM350 1094h-63l-160 276h98z" />
    <glyph glyph-name="iacute" unicode="&#xed;" horiz-adv-x="417" 
d="M350 1094h-76l265 276h129zM125 0h-82l207 971h82z" />
    <glyph glyph-name="icircumflex" unicode="&#xee;" horiz-adv-x="417" 
d="M532 1094l-167 225l-256 -225h-82l288 276h115l166 -276h-64zM125 0h-82l207 971h82z" />
    <glyph glyph-name="idieresis" unicode="&#xef;" horiz-adv-x="417" 
d="M125 0h-82l207 971h82zM152 1229q0 34 22 58t55 24q25 0 41.5 -19.5t16.5 -44.5q0 -32 -22 -55t-54 -23q-27 0 -43 18t-16 42zM389 1229q0 34 22.5 58t55.5 24q25 0 41 -19.5t16 -44.5q0 -33 -21.5 -55.5t-53.5 -22.5q-27 0 -43.5 18t-16.5 42z" />
    <glyph glyph-name="eth" unicode="&#xf0;" horiz-adv-x="1138" 
d="M827 1262l240 90l25 -60l-220 -84q154 -231 154 -518q0 -204 -62 -365t-182.5 -255.5t-281.5 -94.5q-184 0 -307 119.5t-123 296.5q0 101 29.5 190t79.5 153t115 110t137 69t144 23q130 0 228 -58.5t139 -177.5q-12 285 -156 478l-280 -105l-23 62l258 96
q-109 118 -268 184l41 64q207 -88 313 -217zM498 49q176 0 300 140.5t124 345.5q0 145 -97.5 238t-244.5 93q-79 0 -154.5 -32.5t-137 -90.5t-99 -149.5t-37.5 -200.5q0 -149 103 -246.5t243 -97.5z" />
    <glyph glyph-name="ntilde" unicode="&#xf1;" horiz-adv-x="1060" 
d="M782 0h-82l121 567q15 71 15 119q0 108 -62.5 173t-183.5 65q-117 0 -213 -96.5t-127 -239.5l-125 -588h-82l172 809q21 100 21 162h79q0 -77 -18 -158q41 73 126 127.5t187 54.5q145 0 226.5 -82.5t81.5 -216.5q0 -54 -15 -125zM801 1196q46 0 77.5 34t45.5 97h69
q-21 -96 -76 -148.5t-124 -52.5q-64 0 -117 50l-41 38q-28 27 -48.5 37.5t-49.5 10.5q-46 0 -77.5 -33.5t-43.5 -95.5h-72q18 95 74 146.5t129 51.5q70 0 125 -55l39 -37q43 -43 90 -43z" />
    <glyph glyph-name="ograve" unicode="&#xf2;" horiz-adv-x="1105" 
d="M586 922q-76 0 -151.5 -35t-138.5 -98t-102.5 -163t-39.5 -218q0 -161 91 -260t232 -99q76 0 151.5 35.5t138.5 99.5t102.5 164.5t39.5 218.5q0 161 -90 258t-233 97zM471 -25q-175 0 -286 118t-111 306q0 135 45.5 249.5t119.5 189t166 116t187 41.5q179 0 288 -117
t109 -307q0 -135 -45 -249.5t-118.5 -189t-165.5 -116t-189 -41.5zM672 1094h-64l-159 276h98z" />
    <glyph glyph-name="oacute" unicode="&#xf3;" horiz-adv-x="1105" 
d="M670 1094h-76l264 276h129zM586 922q-76 0 -151.5 -35t-138.5 -98t-102.5 -163t-39.5 -218q0 -161 91 -260t232 -99q76 0 151.5 35.5t138.5 99.5t102.5 164.5t39.5 218.5q0 161 -90 258t-233 97zM471 -25q-175 0 -286 118t-111 306q0 135 45.5 249.5t119.5 189t166 116
t187 41.5q179 0 288 -117t109 -307q0 -135 -45 -249.5t-118.5 -189t-165.5 -116t-189 -41.5z" />
    <glyph glyph-name="ocircumflex" unicode="&#xf4;" horiz-adv-x="1105" 
d="M864 1094l-168 225l-256 -225h-82l289 276h115l166 -276h-64zM586 922q-76 0 -151.5 -35t-138.5 -98t-102.5 -163t-39.5 -218q0 -161 91 -260t232 -99q76 0 151.5 35.5t138.5 99.5t102.5 164.5t39.5 218.5q0 161 -90 258t-233 97zM471 -25q-175 0 -286 118t-111 306
q0 135 45.5 249.5t119.5 189t166 116t187 41.5q179 0 288 -117t109 -307q0 -135 -45 -249.5t-118.5 -189t-165.5 -116t-189 -41.5z" />
    <glyph glyph-name="otilde" unicode="&#xf5;" horiz-adv-x="1105" 
d="M586 922q-76 0 -151.5 -35t-138.5 -98t-102.5 -163t-39.5 -218q0 -161 91 -260t232 -99q76 0 151.5 35.5t138.5 99.5t102.5 164.5t39.5 218.5q0 161 -90 258t-233 97zM471 -25q-175 0 -286 118t-111 306q0 135 45.5 249.5t119.5 189t166 116t187 41.5q179 0 288 -117
t109 -307q0 -135 -45 -249.5t-118.5 -189t-165.5 -116t-189 -41.5zM786 1196q46 0 77.5 34t45.5 97h70q-21 -96 -76.5 -148.5t-124.5 -52.5q-63 0 -116 50l-41 38q-28 26 -49 37t-50 11q-46 0 -77.5 -33.5t-43.5 -95.5h-71q18 95 73.5 146.5t128.5 51.5q70 0 125 -55l39 -37
q43 -43 90 -43z" />
    <glyph glyph-name="odieresis" unicode="&#xf6;" horiz-adv-x="1105" 
d="M436 1229q0 34 22.5 58t55.5 24q25 0 41 -19.5t16 -44.5q0 -33 -21.5 -55.5t-53.5 -22.5q-27 0 -43.5 18t-16.5 42zM764 1229q0 34 22.5 58t55.5 24q25 0 41 -19.5t16 -44.5q0 -32 -22 -55t-54 -23q-27 0 -43 18t-16 42zM586 922q-76 0 -151.5 -35t-138.5 -98
t-102.5 -163t-39.5 -218q0 -161 91 -260t232 -99q76 0 151.5 35.5t138.5 99.5t102.5 164.5t39.5 218.5q0 161 -90 258t-233 97zM471 -25q-175 0 -286 118t-111 306q0 135 45.5 249.5t119.5 189t166 116t187 41.5q179 0 288 -117t109 -307q0 -135 -45 -249.5t-118.5 -189
t-165.5 -116t-189 -41.5z" />
    <glyph glyph-name="divide" unicode="&#xf7;" horiz-adv-x="1196" 
d="M518 223q0 32 23.5 55t54.5 23q32 0 55 -23t23 -55q0 -31 -23 -53.5t-55 -22.5q-31 0 -54.5 22.5t-23.5 53.5zM518 952q0 32 23.5 55t54.5 23q32 0 55 -23t23 -55q0 -31 -23 -54.5t-55 -23.5q-31 0 -54.5 23.5t-23.5 54.5zM156 553v74h884v-74h-884z" />
    <glyph glyph-name="oslash" unicode="&#xf8;" horiz-adv-x="1105" 
d="M471 -25q-181 0 -291 123l-119 -114l-45 51l123 119q-65 103 -65 245q0 135 45.5 249.5t119.5 189t166 116t187 41.5q181 0 291 -123l116 113l45 -51l-120 -117q65 -108 65 -246q0 -135 -45 -249.5t-118.5 -189t-165.5 -116t-189 -41.5zM586 922q-76 0 -151.5 -35
t-138.5 -98t-102.5 -163t-39.5 -218q0 -112 45 -197l626 606q-91 105 -239 105zM909 567q0 111 -45 193l-626 -606q94 -105 239 -105q76 0 151.5 35.5t138.5 99.5t102.5 164.5t39.5 218.5z" />
    <glyph glyph-name="ugrave" unicode="&#xf9;" horiz-adv-x="1054" 
d="M236 971h81l-120 -568q-15 -71 -15 -118q0 -108 60.5 -173t181.5 -65q118 0 212 99t128 257l121 568h82l-172 -809q-17 -81 -17 -162h-78q0 102 17 164q-42 -76 -125 -132.5t-189 -56.5q-144 0 -223.5 82.5t-79.5 216.5q0 54 15 125zM653 1094h-63l-160 276h98z" />
    <glyph glyph-name="uacute" unicode="&#xfa;" horiz-adv-x="1054" 
d="M618 1094h-75l264 276h129zM236 971h81l-120 -568q-15 -71 -15 -118q0 -108 60.5 -173t181.5 -65q118 0 212 99t128 257l121 568h82l-172 -809q-17 -81 -17 -162h-78q0 102 17 164q-42 -76 -125 -132.5t-189 -56.5q-144 0 -223.5 82.5t-79.5 216.5q0 54 15 125z" />
    <glyph glyph-name="ucircumflex" unicode="&#xfb;" horiz-adv-x="1054" 
d="M838 1094l-168 225l-256 -225h-82l289 276h114l166 -276h-63zM236 971h81l-120 -568q-15 -71 -15 -118q0 -108 60.5 -173t181.5 -65q118 0 212 99t128 257l121 568h82l-172 -809q-17 -81 -17 -162h-78q0 102 17 164q-42 -76 -125 -132.5t-189 -56.5q-144 0 -223.5 82.5
t-79.5 216.5q0 54 15 125z" />
    <glyph glyph-name="udieresis" unicode="&#xfc;" horiz-adv-x="1054" 
d="M426 1229q0 34 22.5 58t55.5 24q25 0 41 -19.5t16 -44.5q0 -32 -22 -55t-54 -23q-27 0 -43 18t-16 42zM754 1229q0 34 22 58t55 24q25 0 41.5 -19.5t16.5 -44.5q0 -32 -22 -55t-54 -23q-27 0 -43 18t-16 42zM236 971h81l-120 -568q-15 -71 -15 -118q0 -108 60.5 -173
t181.5 -65q118 0 212 99t128 257l121 568h82l-172 -809q-17 -81 -17 -162h-78q0 102 17 164q-42 -76 -125 -132.5t-189 -56.5q-144 0 -223.5 82.5t-79.5 216.5q0 54 15 125z" />
    <glyph glyph-name="yacute" unicode="&#xfd;" horiz-adv-x="966" 
d="M104 -389h-94l361 532l-242 828h86l211 -752l492 752h96zM588 1094h-76l264 276h129z" />
    <glyph glyph-name="thorn" unicode="&#xfe;" horiz-adv-x="1132" 
d="M438 1477l-141 -664q52 76 143 129t207 53q174 0 272.5 -114t98.5 -291q0 -128 -40.5 -242.5t-107.5 -196t-158.5 -129t-189.5 -47.5q-81 0 -146.5 26.5t-105 69.5t-62 85t-32.5 84l-133 -629h-82l395 1866h82zM631 924q-91 0 -170 -48.5t-131 -125t-81.5 -169.5
t-29.5 -184q0 -156 78.5 -252t220.5 -96q82 0 159 41.5t134 111.5t91 168t34 205q0 153 -81.5 251t-223.5 98z" />
    <glyph glyph-name="ydieresis" unicode="&#xff;" horiz-adv-x="966" 
d="M104 -389h-94l361 532l-242 828h86l211 -752l492 752h96zM362 1229q0 34 22.5 58t55.5 24q25 0 41.5 -19.5t16.5 -44.5q0 -32 -22 -55t-54 -23q-27 0 -43.5 18t-16.5 42zM690 1229q0 34 22.5 58t55.5 24q25 0 41 -19.5t16 -44.5q0 -33 -21.5 -55.5t-53.5 -22.5
q-27 0 -43.5 18t-16.5 42z" />
    <glyph glyph-name="Amacron" unicode="&#x100;" horiz-adv-x="1316" 
d="M1057 0l-86 504h-649l-295 -504h-101l862 1452h105l250 -1452h-86zM825 1362l-456 -778h587zM1116 1640h-510l15 74h509z" />
    <glyph glyph-name="amacron" unicode="&#x101;" horiz-adv-x="1140" 
d="M856 451q14 72 14 124q0 154 -80.5 250.5t-224.5 96.5q-108 0 -203 -66.5t-153.5 -187.5t-58.5 -267q0 -155 82 -254.5t227 -99.5q142 0 251.5 114t145.5 290zM809 184q-26 -39 -59 -73t-77.5 -66t-102.5 -51t-121 -19q-116 0 -203 57.5t-130.5 150t-43.5 204.5
q0 129 40.5 243t108 193.5t158 125.5t188.5 46q73 0 132.5 -20t95.5 -49t62.5 -68t38 -71t17.5 -64l54 248h82l-148 -692q-20 -103 -20 -189q0 -65 2 -90h-78q-4 40 -4 76q0 53 8 108zM915 1196h-495l14 72h496z" />
    <glyph glyph-name="Abreve" unicode="&#x102;" horiz-adv-x="1316" 
d="M1057 0l-86 504h-649l-295 -504h-101l862 1452h105l250 -1452h-86zM825 1362l-456 -778h587zM629 1794h63q-2 -8 -2 -25q0 -70 43 -115.5t129 -45.5q92 0 157 52.5t95 133.5h72q-30 -104 -120 -179t-214 -75q-111 0 -169 61.5t-58 153.5q0 15 4 39z" />
    <glyph glyph-name="abreve" unicode="&#x103;" horiz-adv-x="1140" 
d="M856 451q14 72 14 124q0 154 -80.5 250.5t-224.5 96.5q-108 0 -203 -66.5t-153.5 -187.5t-58.5 -267q0 -155 82 -254.5t227 -99.5q142 0 251.5 114t145.5 290zM809 184q-26 -39 -59 -73t-77.5 -66t-102.5 -51t-121 -19q-116 0 -203 57.5t-130.5 150t-43.5 204.5
q0 129 40.5 243t108 193.5t158 125.5t188.5 46q73 0 132.5 -20t95.5 -49t62.5 -68t38 -71t17.5 -64l54 248h82l-148 -692q-20 -103 -20 -189q0 -65 2 -90h-78q-4 40 -4 76q0 53 8 108zM625 1094q-111 0 -169.5 61.5t-58.5 153.5q0 25 9 61h63q-6 -24 -6 -47q0 -70 43 -116
t129 -46q100 0 169 62t91 147h68q-24 -110 -116.5 -193t-221.5 -83z" />
    <glyph glyph-name="Aogonek" unicode="&#x104;" horiz-adv-x="1316" 
d="M893 1452l250 -1452q-83 -41 -150 -112t-67 -150q0 -46 31.5 -70t82.5 -24q40 0 78 10l-14 -62q-47 -14 -88 -14q-74 0 -120 38.5t-46 104.5q0 87 62.5 165t142.5 120l-84 498h-649l-295 -504h-101l862 1452h105zM825 1362l-456 -778h587z" />
    <glyph glyph-name="aogonek" unicode="&#x105;" horiz-adv-x="1140" 
d="M809 184q-26 -39 -59 -73t-77.5 -66t-102.5 -51t-121 -19q-116 0 -203 57.5t-130.5 150t-43.5 204.5q0 129 40.5 243t108 193.5t158 125.5t188.5 46q73 0 132.5 -20t95.5 -49t62.5 -68t38 -71t17.5 -64l54 248h82l-148 -692q-20 -103 -20 -189q0 -65 2 -90
q-83 -41 -150 -112t-67 -150q0 -46 31.5 -70t82.5 -24q40 0 78 10l-14 -62q-47 -14 -88 -14q-74 0 -120 38.5t-46 104.5q0 89 65.5 169t147.5 120q-2 16 -2 66q0 53 8 108zM856 451q14 72 14 124q0 154 -80.5 250.5t-224.5 96.5q-108 0 -203 -66.5t-153.5 -187.5t-58.5 -267
q0 -155 82 -254.5t227 -99.5q142 0 251.5 114t145.5 290z" />
    <glyph glyph-name="Cacute" unicode="&#x106;" horiz-adv-x="1482" 
d="M727 -25q-121 0 -227 41.5t-187.5 118.5t-128.5 196.5t-47 266.5q0 168 45.5 313.5t122 247.5t176 175t207 108t215.5 35q242 0 392 -129t178 -326l-78 -27q-26 180 -157 291t-341 111q-94 0 -188 -31.5t-181 -98t-154.5 -158.5t-108 -223.5t-40.5 -283.5
q0 -132 40.5 -237.5t110.5 -172.5t162 -102t199 -35q189 0 334.5 101t235.5 290l67 -43q-92 -197 -263.5 -312.5t-383.5 -115.5zM1319 1798l-307 -244h-88l272 244h123z" />
    <glyph glyph-name="cacute" unicode="&#x107;" horiz-adv-x="1064" 
d="M659 1094h-75l264 276h129zM864 305l64 -35q-63 -135 -178.5 -215t-260.5 -80q-187 0 -302 122.5t-115 310.5q0 125 44.5 236t117.5 187t169 120t197 44q84 0 152.5 -24.5t114.5 -66.5t75 -94t41 -112l-74 -28q-24 114 -106.5 183t-208.5 69q-82 0 -160.5 -37
t-140 -102.5t-99.5 -163t-38 -209.5q0 -161 94 -261t248 -100q120 0 214.5 70t151.5 186z" />
    <glyph glyph-name="Ccircumflex" unicode="&#x108;" horiz-adv-x="1482" 
d="M1245 1554h-69l-164 193l-238 -193h-86l275 244h116zM727 -25q-121 0 -227 41.5t-187.5 118.5t-128.5 196.5t-47 266.5q0 168 45.5 313.5t122 247.5t176 175t207 108t215.5 35q242 0 392 -129t178 -326l-78 -27q-26 180 -157 291t-341 111q-94 0 -188 -31.5t-181 -98
t-154.5 -158.5t-108 -223.5t-40.5 -283.5q0 -132 40.5 -237.5t110.5 -172.5t162 -102t199 -35q189 0 334.5 101t235.5 290l67 -43q-92 -197 -263.5 -312.5t-383.5 -115.5z" />
    <glyph glyph-name="ccircumflex" unicode="&#x109;" horiz-adv-x="1064" 
d="M864 1094l-168 225l-256 -225h-82l289 276h115l166 -276h-64zM864 305l64 -35q-63 -135 -178.5 -215t-260.5 -80q-187 0 -302 122.5t-115 310.5q0 125 44.5 236t117.5 187t169 120t197 44q84 0 152.5 -24.5t114.5 -66.5t75 -94t41 -112l-74 -28q-24 114 -106.5 183
t-208.5 69q-82 0 -160.5 -37t-140 -102.5t-99.5 -163t-38 -209.5q0 -161 94 -261t248 -100q120 0 214.5 70t151.5 186z" />
    <glyph glyph-name="Cdotaccent" unicode="&#x10a;" horiz-adv-x="1482" 
d="M727 -25q-121 0 -227 41.5t-187.5 118.5t-128.5 196.5t-47 266.5q0 168 45.5 313.5t122 247.5t176 175t207 108t215.5 35q242 0 392 -129t178 -326l-78 -27q-26 180 -157 291t-341 111q-94 0 -188 -31.5t-181 -98t-154.5 -158.5t-108 -223.5t-40.5 -283.5
q0 -132 40.5 -237.5t110.5 -172.5t162 -102t199 -35q189 0 334.5 101t235.5 290l67 -43q-92 -197 -263.5 -312.5t-383.5 -115.5zM911 1665q0 36 25 63t61 27q28 0 46 -22t18 -50q0 -34 -24 -59t-58 -25q-29 0 -48.5 19.5t-19.5 46.5z" />
    <glyph glyph-name="cdotaccent" unicode="&#x10b;" horiz-adv-x="1064" 
d="M864 305l64 -35q-63 -135 -178.5 -215t-260.5 -80q-187 0 -302 122.5t-115 310.5q0 125 44.5 236t117.5 187t169 120t197 44q84 0 152.5 -24.5t114.5 -66.5t75 -94t41 -112l-74 -28q-24 114 -106.5 183t-208.5 69q-82 0 -160.5 -37t-140 -102.5t-99.5 -163t-38 -209.5
q0 -161 94 -261t248 -100q120 0 214.5 70t151.5 186zM592 1221q0 36 25 63t61 27q28 0 45.5 -22t17.5 -50q0 -34 -24 -59t-58 -25q-29 0 -48 19.5t-19 46.5z" />
    <glyph glyph-name="Ccaron" unicode="&#x10c;" horiz-adv-x="1482" 
d="M733 1798h70l164 -192l237 192h86l-274 -244h-117zM727 -25q-121 0 -227 41.5t-187.5 118.5t-128.5 196.5t-47 266.5q0 168 45.5 313.5t122 247.5t176 175t207 108t215.5 35q242 0 392 -129t178 -326l-78 -27q-26 180 -157 291t-341 111q-94 0 -188 -31.5t-181 -98
t-154.5 -158.5t-108 -223.5t-40.5 -283.5q0 -132 40.5 -237.5t110.5 -172.5t162 -102t199 -35q189 0 334.5 101t235.5 290l67 -43q-92 -197 -263.5 -312.5t-383.5 -115.5z" />
    <glyph glyph-name="ccaron" unicode="&#x10d;" horiz-adv-x="1064" 
d="M508 1370l168 -225l260 225h78l-291 -276h-113l-166 276h64zM864 305l64 -35q-63 -135 -178.5 -215t-260.5 -80q-187 0 -302 122.5t-115 310.5q0 125 44.5 236t117.5 187t169 120t197 44q84 0 152.5 -24.5t114.5 -66.5t75 -94t41 -112l-74 -28q-24 114 -106.5 183
t-208.5 69q-82 0 -160.5 -37t-140 -102.5t-99.5 -163t-38 -209.5q0 -161 94 -261t248 -100q120 0 214.5 70t151.5 186z" />
    <glyph glyph-name="Dcaron" unicode="&#x10e;" horiz-adv-x="1413" 
d="M637 1798h70l163 -192l238 192h86l-274 -244h-117zM487 0h-399l309 1452h383q164 0 291.5 -64t202 -190t74.5 -297q0 -179 -63 -343t-173.5 -287.5t-273 -197t-351.5 -73.5zM193 78h299q108 0 216 33t207 101.5t175 164.5t121.5 231.5t45.5 292.5q0 115 -37 205.5
t-103 148.5t-153.5 88.5t-191.5 30.5h-303z" />
    <glyph glyph-name="dcaron" unicode="&#x10f;" horiz-adv-x="1134" 
d="M1436 1477l-189 -369h-67l163 369h93zM1151 1477l-254 -1198q-23 -118 -23 -179q0 -38 5 -100h-80q-4 40 -4 76q0 53 8 108q-51 -84 -143.5 -146.5t-213.5 -62.5q-173 0 -273.5 116t-100.5 298q0 167 68.5 307t182.5 219.5t246 79.5q71 0 129.5 -19.5t94 -48.5t61.5 -68
t38 -72t17 -66l160 756h82zM457 49q74 0 141 31.5t115.5 84.5t84.5 120.5t54 141.5t18 146q0 155 -80 251t-223 96q-167 0 -291 -151.5t-124 -371.5q0 -152 82 -250t223 -98z" />
    <glyph glyph-name="Dcroat" unicode="&#x110;" horiz-adv-x="1417" 
d="M492 0h-400l152 713h-170l14 73h170l143 666h383q164 0 291.5 -64t202 -190t74.5 -297q0 -143 -39.5 -277.5t-115.5 -247t-179 -197t-239 -132t-287 -47.5zM197 78h299q108 0 216 33t207.5 101.5t175.5 164.5t121.5 231.5t45.5 292.5q0 152 -65 260.5t-173 160.5t-248 52
h-303l-125 -588h305l-14 -73h-307z" />
    <glyph glyph-name="dcroat" unicode="&#x111;" horiz-adv-x="1134" 
d="M1151 1477l-49 -228h229l-14 -69h-230l-190 -901q-23 -118 -23 -179q0 -38 5 -100h-80q-4 40 -4 76q0 53 8 108q-51 -84 -143.5 -146.5t-213.5 -62.5q-173 0 -273.5 116t-100.5 298q0 167 68.5 307t182.5 219.5t246 79.5q71 0 129.5 -19.5t94 -48.5t61.5 -68t38 -72
t17 -66l97 459h-254l14 69h254l49 228h82zM457 49q74 0 141 31.5t115.5 84.5t84.5 120.5t54 141.5t18 146q0 155 -80 251t-223 96q-167 0 -291 -151.5t-124 -371.5q0 -152 82 -250t223 -98z" />
    <glyph glyph-name="Emacron" unicode="&#x112;" horiz-adv-x="1155" 
d="M924 0h-836l309 1452h817l-16 -80h-731l-129 -604h661l-16 -80h-661l-129 -608h747zM1118 1640h-510l15 74h510z" />
    <glyph glyph-name="emacron" unicode="&#x113;" horiz-adv-x="1075" 
d="M963 479h-807q-4 -27 -4 -80q0 -157 95 -253.5t245 -96.5q113 0 206 64t148 163l65 -43q-65 -116 -178 -187t-250 -71q-182 0 -296.5 115.5t-114.5 310.5q0 130 44.5 243t117 189t164 119t186.5 43q188 0 289.5 -111.5t101.5 -283.5q0 -60 -12 -121zM582 922
q-146 0 -258.5 -106.5t-153.5 -264.5h719q4 28 4 47q0 142 -80.5 233t-230.5 91zM911 1196h-495l14 72h496z" />
    <glyph glyph-name="Ebreve" unicode="&#x114;" horiz-adv-x="1155" 
d="M924 0h-836l309 1452h817l-16 -80h-731l-129 -604h661l-16 -80h-661l-129 -608h747zM586 1800h63q-2 -8 -2 -24q0 -70 43 -116t129 -46q92 0 157 52.5t95 133.5h72q-30 -104 -120 -179t-214 -75q-111 0 -169 61.5t-58 153.5q0 15 4 39z" />
    <glyph glyph-name="ebreve" unicode="&#x115;" horiz-adv-x="1075" 
d="M963 479h-807q-4 -27 -4 -80q0 -157 95 -253.5t245 -96.5q113 0 206 64t148 163l65 -43q-65 -116 -178 -187t-250 -71q-182 0 -296.5 115.5t-114.5 310.5q0 130 44.5 243t117 189t164 119t186.5 43q188 0 289.5 -111.5t101.5 -283.5q0 -60 -12 -121zM582 922
q-146 0 -258.5 -106.5t-153.5 -264.5h719q4 28 4 47q0 142 -80.5 233t-230.5 91zM655 1094q-111 0 -169 61.5t-58 153.5q0 29 8 61h64q-6 -24 -6 -47q0 -70 43 -116t129 -46q100 0 169 62t91 147h67q-24 -110 -116.5 -193t-221.5 -83z" />
    <glyph glyph-name="Edotaccent" unicode="&#x116;" horiz-adv-x="1155" 
d="M793 1665q0 36 25 63t61 27q28 0 45.5 -22t17.5 -50q0 -34 -24 -59t-58 -25q-29 0 -48 19.5t-19 46.5zM924 0h-836l309 1452h817l-16 -80h-731l-129 -604h661l-16 -80h-661l-129 -608h747z" />
    <glyph glyph-name="edotaccent" unicode="&#x117;" horiz-adv-x="1075" 
d="M963 479h-807q-4 -27 -4 -80q0 -157 95 -253.5t245 -96.5q113 0 206 64t148 163l65 -43q-65 -116 -178 -187t-250 -71q-182 0 -296.5 115.5t-114.5 310.5q0 130 44.5 243t117 189t164 119t186.5 43q188 0 289.5 -111.5t101.5 -283.5q0 -60 -12 -121zM582 922
q-146 0 -258.5 -106.5t-153.5 -264.5h719q4 28 4 47q0 142 -80.5 233t-230.5 91zM584 1221q0 36 25 63t61 27q28 0 45.5 -22t17.5 -50q0 -34 -24 -59t-58 -25q-29 0 -48 19.5t-19 46.5z" />
    <glyph glyph-name="Eogonek" unicode="&#x118;" horiz-adv-x="1155" 
d="M924 0q-83 -41 -150 -112t-67 -150q0 -46 31.5 -70t82.5 -24q40 0 78 10l-14 -62q-47 -14 -88 -14q-74 0 -120 38.5t-46 104.5q0 84 58 159t136 120h-737l309 1452h817l-16 -80h-731l-129 -604h661l-16 -80h-661l-129 -608h747z" />
    <glyph glyph-name="eogonek" unicode="&#x119;" horiz-adv-x="1075" 
d="M72 401q0 130 45 243t117.5 189t164.5 119t187 43q187 0 288 -111t101 -284q0 -60 -12 -121h-805q-4 -27 -4 -80q0 -157 95 -253.5t245 -96.5q113 0 206 64t148 163l65 -43q-56 -100 -147 -165.5t-205 -85.5q-70 -11 -139.5 -89t-69.5 -155q0 -46 31.5 -70t83.5 -24
q40 0 78 10l-15 -62q-47 -14 -88 -14q-74 0 -120 38.5t-46 104.5q0 74 46.5 144t115.5 112q-163 15 -264.5 128.5t-101.5 295.5zM172 551h715q4 28 4 47q0 143 -78.5 233.5t-228.5 90.5q-146 0 -258.5 -106.5t-153.5 -264.5z" />
    <glyph glyph-name="Ecaron" unicode="&#x11a;" horiz-adv-x="1155" 
d="M610 1798h70l164 -192l237 192h86l-274 -244h-117zM924 0h-836l309 1452h817l-16 -80h-731l-129 -604h661l-16 -80h-661l-129 -608h747z" />
    <glyph glyph-name="ecaron" unicode="&#x11b;" horiz-adv-x="1075" 
d="M469 1370l168 -225l260 225h78l-291 -276h-113l-165 276h63zM963 479h-807q-4 -27 -4 -80q0 -157 95 -253.5t245 -96.5q113 0 206 64t148 163l65 -43q-65 -116 -178 -187t-250 -71q-182 0 -296.5 115.5t-114.5 310.5q0 130 44.5 243t117 189t164 119t186.5 43
q188 0 289.5 -111.5t101.5 -283.5q0 -60 -12 -121zM582 922q-146 0 -258.5 -106.5t-153.5 -264.5h719q4 28 4 47q0 142 -80.5 233t-230.5 91z" />
    <glyph glyph-name="Gcircumflex" unicode="&#x11c;" horiz-adv-x="1533" 
d="M1235 1554h-70l-164 193l-237 -193h-86l274 244h117zM1288 0h-69l45 266q-29 -50 -76 -98t-113 -93t-157 -72.5t-191 -27.5q-113 0 -217.5 41.5t-188.5 118.5t-134 199t-50 270q0 143 32.5 269t89 220t131.5 168.5t161.5 121t176.5 70.5t179 24q224 0 375.5 -122
t192.5 -317l-80 -37q-41 182 -171 289t-325 107q-95 0 -188.5 -30t-181.5 -94t-154.5 -154.5t-107 -223t-40.5 -287.5q0 -108 28.5 -199.5t77.5 -156t114.5 -109.5t140.5 -66.5t155 -21.5q101 0 190 31t154.5 83t115.5 121t79 143t39 151h-545l17 80h632z" />
    <glyph glyph-name="gcircumflex" unicode="&#x11d;" horiz-adv-x="1128" 
d="M881 1094l-168 225l-256 -225h-82l289 276h114l166 -276h-63zM877 592q0 139 -80 234.5t-228 95.5q-105 0 -197 -61.5t-148 -169t-56 -234.5q0 -148 81.5 -238t233.5 -90q88 0 164 43t125 111t77 149t28 160zM-20 -57l81 18q2 -131 88.5 -216t239.5 -85q72 0 130.5 21.5
t97.5 55.5t69 84t46.5 99t29.5 109l45 211q-47 -77 -134 -130t-202 -53q-176 0 -281.5 112t-105.5 284q0 112 39.5 213t106 173t155.5 114t184 42q66 0 121.5 -15.5t93 -41t65.5 -59.5t43 -68t21 -70l48 230h81l-198 -942q-95 -443 -457 -443q-180 0 -292 101t-115 256z" />
    <glyph glyph-name="Gbreve" unicode="&#x11e;" horiz-adv-x="1533" 
d="M745 1798h64q-2 -8 -2 -24q0 -70 43 -116t129 -46q92 0 157 52.5t95 133.5h72q-30 -104 -120 -179t-214 -75q-111 0 -169.5 61.5t-58.5 153.5q0 15 4 39zM1288 0h-69l45 266q-29 -50 -76 -98t-113 -93t-157 -72.5t-191 -27.5q-113 0 -217.5 41.5t-188.5 118.5t-134 199
t-50 270q0 143 32.5 269t89 220t131.5 168.5t161.5 121t176.5 70.5t179 24q224 0 375.5 -122t192.5 -317l-80 -37q-41 182 -171 289t-325 107q-95 0 -188.5 -30t-181.5 -94t-154.5 -154.5t-107 -223t-40.5 -287.5q0 -108 28.5 -199.5t77.5 -156t114.5 -109.5t140.5 -66.5
t155 -21.5q101 0 190 31t154.5 83t115.5 121t79 143t39 151h-545l17 80h632z" />
    <glyph glyph-name="gbreve" unicode="&#x11f;" horiz-adv-x="1128" 
d="M877 592q0 139 -80 234.5t-228 95.5q-105 0 -197 -61.5t-148 -169t-56 -234.5q0 -148 81.5 -238t233.5 -90q88 0 164 43t125 111t77 149t28 160zM-20 -57l81 18q2 -131 88.5 -216t239.5 -85q72 0 130.5 21.5t97.5 55.5t69 84t46.5 99t29.5 109l45 211q-47 -77 -134 -130
t-202 -53q-176 0 -281.5 112t-105.5 284q0 112 39.5 213t106 173t155.5 114t184 42q66 0 121.5 -15.5t93 -41t65.5 -59.5t43 -68t21 -70l48 230h81l-198 -942q-95 -443 -457 -443q-180 0 -292 101t-115 256zM668 1094q-111 0 -169.5 61.5t-58.5 153.5q0 25 9 61h63
q-6 -24 -6 -47q0 -70 43 -116t129 -46q100 0 169 62t91 147h68q-24 -110 -116.5 -193t-221.5 -83z" />
    <glyph glyph-name="Gdotaccent" unicode="&#x120;" horiz-adv-x="1533" 
d="M913 1665q0 36 25 63t61 27q28 0 46 -22t18 -50q0 -34 -24 -59t-58 -25q-29 0 -48.5 19.5t-19.5 46.5zM1288 0h-69l45 266q-29 -50 -76 -98t-113 -93t-157 -72.5t-191 -27.5q-113 0 -217.5 41.5t-188.5 118.5t-134 199t-50 270q0 143 32.5 269t89 220t131.5 168.5
t161.5 121t176.5 70.5t179 24q224 0 375.5 -122t192.5 -317l-80 -37q-41 182 -171 289t-325 107q-95 0 -188.5 -30t-181.5 -94t-154.5 -154.5t-107 -223t-40.5 -287.5q0 -108 28.5 -199.5t77.5 -156t114.5 -109.5t140.5 -66.5t155 -21.5q101 0 190 31t154.5 83t115.5 121
t79 143t39 151h-545l17 80h632z" />
    <glyph glyph-name="gdotaccent" unicode="&#x121;" horiz-adv-x="1128" 
d="M877 592q0 139 -80 234.5t-228 95.5q-105 0 -197 -61.5t-148 -169t-56 -234.5q0 -148 81.5 -238t233.5 -90q88 0 164 43t125 111t77 149t28 160zM-20 -57l81 18q2 -131 88.5 -216t239.5 -85q72 0 130.5 21.5t97.5 55.5t69 84t46.5 99t29.5 109l45 211q-47 -77 -134 -130
t-202 -53q-176 0 -281.5 112t-105.5 284q0 112 39.5 213t106 173t155.5 114t184 42q66 0 121.5 -15.5t93 -41t65.5 -59.5t43 -68t21 -70l48 230h81l-198 -942q-95 -443 -457 -443q-180 0 -292 101t-115 256zM621 1221q0 36 25 63t61 27q28 0 45.5 -22t17.5 -50
q0 -34 -24 -59t-58 -25q-29 0 -48 19.5t-19 46.5z" />
    <glyph glyph-name="Gcommaaccent" unicode="&#x122;" horiz-adv-x="1533" 
d="M586 -182q0 34 24 61t58 27q33 0 56.5 -21.5t23.5 -62.5q0 -103 -73 -164t-153 -61l10 51q52 2 95 34t55 82q-12 -8 -31 -8q-30 0 -47.5 18t-17.5 44zM1288 0h-69l45 266q-29 -50 -76 -98t-113 -93t-157 -72.5t-191 -27.5q-113 0 -217.5 41.5t-188.5 118.5t-134 199
t-50 270q0 143 32.5 269t89 220t131.5 168.5t161.5 121t176.5 70.5t179 24q224 0 375.5 -122t192.5 -317l-80 -37q-41 182 -171 289t-325 107q-95 0 -188.5 -30t-181.5 -94t-154.5 -154.5t-107 -223t-40.5 -287.5q0 -108 28.5 -199.5t77.5 -156t114.5 -109.5t140.5 -66.5
t155 -21.5q101 0 190 31t154.5 83t115.5 121t79 143t39 151h-545l17 80h632z" />
    <glyph glyph-name="gcommaaccent" unicode="&#x123;" horiz-adv-x="1128" 
d="M737 1174q0 -36 -22.5 -62.5t-59.5 -26.5q-31 0 -54 21t-23 61q0 52 22 96.5t56 72t72.5 42.5t74.5 15l-10 -52q-53 -2 -96.5 -34t-53.5 -82q12 8 29 8q30 0 47.5 -16.5t17.5 -42.5zM877 592q0 139 -80 234.5t-228 95.5q-105 0 -197 -61.5t-148 -169t-56 -234.5
q0 -148 81.5 -238t233.5 -90q88 0 164 43t125 111t77 149t28 160zM-20 -57l81 18q2 -131 88.5 -216t239.5 -85q72 0 130.5 21.5t97.5 55.5t69 84t46.5 99t29.5 109l45 211q-47 -77 -134 -130t-202 -53q-176 0 -281.5 112t-105.5 284q0 112 39.5 213t106 173t155.5 114
t184 42q66 0 121.5 -15.5t93 -41t65.5 -59.5t43 -68t21 -70l48 230h81l-198 -942q-95 -443 -457 -443q-180 0 -292 101t-115 256z" />
    <glyph glyph-name="Hcircumflex" unicode="&#x124;" horiz-adv-x="1456" 
d="M1116 0h-88l150 698h-852l-150 -698h-88l309 1452h88l-143 -674h852l143 674h88zM1204 1554h-69l-164 193l-238 -193h-86l275 244h116z" />
    <glyph glyph-name="hcircumflex" unicode="&#x125;" horiz-adv-x="1060" 
d="M125 0h-82l313 1477h82l-141 -664q41 73 126 127.5t187 54.5q154 -1 231 -85.5t77 -213.5q0 -33 -11 -90l-123 -606h-84l125 602q9 56 9 78q0 107 -61 175.5t-185 68.5q-116 0 -211.5 -96.5t-126.5 -239.5zM997 1554h-69l-164 193l-238 -193h-86l275 244h116z" />
    <glyph glyph-name="Hbar" unicode="&#x126;" horiz-adv-x="1456" 
d="M186 1092l15 67h135l63 293h88l-63 -293h852l63 293h88l-63 -293h141l-14 -67h-141l-232 -1092h-88l150 698h-852l-150 -698h-88l232 1092h-136zM344 778h852l66 314h-852z" />
    <glyph glyph-name="hbar" unicode="&#x127;" horiz-adv-x="1060" 
d="M125 0h-82l250 1182h-187l15 73h188l47 222h82l-47 -222h293l-14 -73h-295l-78 -369q41 73 126 127.5t187 54.5q154 -1 231 -85.5t77 -213.5q0 -33 -11 -90l-123 -606h-84l125 602q9 56 9 78q0 107 -61 175.5t-185 68.5q-116 0 -211.5 -96.5t-126.5 -239.5z" />
    <glyph glyph-name="Itilde" unicode="&#x128;" horiz-adv-x="516" 
d="M176 0h-88l309 1452h88zM614 1642q46 0 77.5 34.5t45.5 97.5h70q-21 -96 -78.5 -148.5t-126.5 -52.5q-68 0 -117 49l-41 39q-28 26 -47.5 36.5t-46.5 10.5q-46 0 -77.5 -33.5t-43.5 -95.5h-67q18 95 73.5 147t126.5 52q69 0 125 -56l39 -36q27 -25 44.5 -34.5t43.5 -9.5z
" />
    <glyph glyph-name="itilde" unicode="&#x129;" horiz-adv-x="417" 
d="M125 0h-82l207 971h82zM461 1196q46 0 77.5 34t45.5 97h69q-21 -96 -76 -148.5t-124 -52.5q-64 0 -117 50l-41 38q-28 27 -48.5 37.5t-49.5 10.5q-46 0 -77.5 -33.5t-43.5 -95.5h-72q18 95 74 146.5t129 51.5q70 0 125 -55l39 -37q43 -43 90 -43z" />
    <glyph glyph-name="Imacron" unicode="&#x12a;" horiz-adv-x="516" 
d="M176 0h-88l309 1452h88zM727 1640h-510l14 74h510z" />
    <glyph glyph-name="imacron" unicode="&#x12b;" horiz-adv-x="417" 
d="M125 0h-82l207 971h82zM584 1196h-496l14 72h496z" />
    <glyph glyph-name="Ibreve" unicode="&#x12c;" horiz-adv-x="516" 
d="M176 0h-88l309 1452h88zM240 1798h63q-2 -8 -2 -24q0 -70 43 -116t129 -46q92 0 157 52.5t95 133.5h72q-30 -104 -120 -179t-214 -75q-111 0 -169 61.5t-58 153.5q0 15 4 39z" />
    <glyph glyph-name="ibreve" unicode="&#x12d;" horiz-adv-x="417" 
d="M125 0h-82l207 971h82zM315 1094q-111 0 -169 61.5t-58 153.5q0 29 8 61h64q-6 -24 -6 -47q0 -70 43 -116t129 -46q100 0 169 62t91 147h67q-24 -110 -116.5 -193t-221.5 -83z" />
    <glyph glyph-name="Iogonek" unicode="&#x12e;" horiz-adv-x="516" 
d="M176 0q-83 -41 -150 -112t-67 -150q0 -46 31.5 -70t83.5 -24q40 0 78 10l-15 -62q-47 -14 -88 -14q-74 0 -120 38.5t-46 104.5q0 87 62.5 165t142.5 120l309 1446h88z" />
    <glyph glyph-name="iogonek" unicode="&#x12f;" horiz-adv-x="417" 
d="M125 0q-83 -41 -150 -112t-67 -150q0 -46 31.5 -70t83.5 -24q39 0 77 10l-14 -62q-47 -14 -88 -14q-74 0 -120 38.5t-46 104.5q0 89 65 168t148 119l205 963h82zM299 1386q0 37 26 64t62 27q31 0 50.5 -21t19.5 -53q0 -34 -25 -60t-61 -26q-31 0 -51.5 19.5t-20.5 49.5z
" />
    <glyph glyph-name="Idotaccent" unicode="&#x130;" horiz-adv-x="516" 
d="M176 0h-88l309 1452h88zM412 1665q0 36 25 63t61 27q28 0 45.5 -22t17.5 -50q0 -34 -24 -59t-58 -25q-29 0 -48 19.5t-19 46.5z" />
    <glyph glyph-name="dotlessi" unicode="&#x131;" horiz-adv-x="417" 
d="M125 0h-82l207 971h82z" />
    <glyph glyph-name="IJ" unicode="&#x132;" horiz-adv-x="1183" 
d="M309 711h-86l156 741h88zM170 463l16 80l90 14l-20 -94q-14 -66 -14 -123q0 -60 15.5 -110t47.5 -90t87.5 -62.5t129.5 -22.5q127 0 215 88t119 238l223 1071h88l-225 -1069q-40 -193 -150 -300.5t-274 -107.5q-179 0 -270.5 99.5t-91.5 261.5q0 48 14 127z" />
    <glyph glyph-name="ij" unicode="&#x133;" horiz-adv-x="835" 
d="M125 0h-82l207 971h82zM299 1386q0 37 26 64t62 27q31 0 50.5 -21t19.5 -53q0 -34 -25 -60t-61 -26q-31 0 -51.5 19.5t-20.5 49.5zM430 -143l238 1114h82l-240 -1125q-28 -129 -96 -186t-172 -57q-84 0 -131 35l14 69q60 -31 121 -31q146 0 184 181zM717 1386q0 37 26 64
t62 27q31 0 50 -21t19 -53q0 -34 -25 -60t-61 -26q-31 0 -51 19t-20 50z" />
    <glyph glyph-name="Jcircumflex" unicode="&#x134;" horiz-adv-x="1056" 
d="M45 463l16 80l89 14l-21 -94q-14 -57 -14 -123q0 -60 15.5 -110t47.5 -90t87.5 -62.5t129.5 -22.5q127 0 215 88t119 238l223 1071h88l-225 -1069q-40 -193 -150 -300.5t-274 -107.5q-177 0 -268.5 98.5t-91.5 258.5q0 68 14 131zM1278 1554h-70l-164 193l-237 -193h-86
l274 244h117z" />
    <glyph glyph-name="jcircumflex" unicode="&#x135;" horiz-adv-x="417" 
d="M12 -143l238 1114h82l-240 -1125q-28 -129 -96 -186t-172 -57q-84 0 -131 35l14 69q60 -31 121 -31q146 0 184 181zM532 1094l-167 225l-256 -225h-82l288 276h115l166 -276h-64z" />
    <glyph glyph-name="Kcommaaccent" unicode="&#x136;" horiz-adv-x="1263" 
d="M1405 1452l-729 -641l444 -811h-102l-406 754l-338 -297l-96 -457h-88l307 1452h88l-184 -866l977 866h127zM504 -182q0 34 24 61t58 27q33 0 56.5 -21.5t23.5 -62.5q0 -103 -73 -164t-153 -61l11 51q52 2 94.5 34t54.5 82q-12 -8 -31 -8q-30 0 -47.5 18t-17.5 44z" />
    <glyph glyph-name="kcommaaccent" unicode="&#x137;" horiz-adv-x="978" 
d="M125 0h-82l313 1477h82l-223 -1055l666 549h118l-485 -398l311 -573h-94l-280 522l-261 -215zM309 -182q0 34 24 61t58 27q33 0 56.5 -21.5t23.5 -62.5q0 -103 -72.5 -164t-152.5 -61l10 51q52 2 95 34t55 82q-12 -8 -31 -8q-30 0 -48 18t-18 44z" />
    <glyph glyph-name="kgreenlandic" unicode="&#x138;" horiz-adv-x="978" 
d="M250 971h82l-117 -547l666 547h118l-483 -396l309 -575h-96l-278 522l-261 -213l-65 -309h-82z" />
    <glyph glyph-name="Lacute" unicode="&#x139;" horiz-adv-x="1081" 
d="M813 1798l-307 -244h-88l272 244h123zM926 0h-838l309 1452h88l-292 -1372h749z" />
    <glyph glyph-name="lacute" unicode="&#x13a;" horiz-adv-x="415" 
d="M125 0h-82l313 1477h82zM756 1798l-307 -244h-89l273 244h123z" />
    <glyph glyph-name="Lcommaaccent" unicode="&#x13b;" horiz-adv-x="1081" 
d="M926 0h-838l309 1452h88l-292 -1372h749zM428 -182q0 34 24 61t58 27q33 0 56.5 -21.5t23.5 -62.5q0 -103 -72.5 -164t-152.5 -61l10 51q52 2 94.5 34t54.5 82q-12 -8 -30 -8q-30 0 -48 18t-18 44z" />
    <glyph glyph-name="lcommaaccent" unicode="&#x13c;" horiz-adv-x="415" 
d="M125 0h-82l313 1477h82zM-39 -182q0 34 24 61t58 27q33 0 56.5 -21.5t23.5 -62.5q0 -103 -72.5 -164t-152.5 -61l10 51q52 2 94.5 34t54.5 82q-12 -8 -30 -8q-30 0 -48 18t-18 44z" />
    <glyph glyph-name="Lcaron" unicode="&#x13d;" horiz-adv-x="1081" 
d="M963 1554l-195 -374h-68l170 374h93zM926 0h-838l309 1452h88l-292 -1372h749z" />
    <glyph glyph-name="lcaron" unicode="&#x13e;" horiz-adv-x="415" 
d="M723 1477l-188 -369h-68l164 369h92zM125 0h-82l313 1477h82z" />
    <glyph glyph-name="Ldot" unicode="&#x13f;" horiz-adv-x="1081" 
d="M926 0h-838l309 1452h88l-292 -1372h749zM614 750q0 36 25 63t61 27q28 0 46 -22t18 -50q0 -34 -24 -59t-58 -25q-29 0 -48.5 19.5t-19.5 46.5z" />
    <glyph glyph-name="ldot" unicode="&#x140;" horiz-adv-x="473" 
d="M125 0h-82l313 1477h82zM371 625q0 36 25 63t61 27q28 0 45.5 -22t17.5 -50q0 -34 -24 -59t-58 -25q-29 0 -48 19.5t-19 46.5z" />
    <glyph glyph-name="Lslash" unicode="&#x141;" horiz-adv-x="1093" 
d="M940 0h-838l140 657l-211 -86l14 78l213 86l154 717h88l-146 -678l385 156l-16 -78l-385 -156l-131 -616h749z" />
    <glyph glyph-name="lslash" unicode="&#x142;" horiz-adv-x="595" 
d="M207 0h-82l147 700l-231 -94l16 78l232 94l149 699h82l-141 -664l242 98l-17 -77l-242 -99z" />
    <glyph glyph-name="Nacute" unicode="&#x143;" horiz-adv-x="1466" 
d="M1221 1798l-308 -244h-88l273 244h123zM1128 0h-96l-571 1339l-283 -1339h-88l307 1452h115l557 -1317l279 1317h88z" />
    <glyph glyph-name="nacute" unicode="&#x144;" horiz-adv-x="1060" 
d="M643 1094h-76l264 276h130zM782 0h-82l121 567q15 71 15 119q0 108 -62.5 173t-183.5 65q-117 0 -213 -96.5t-127 -239.5l-125 -588h-82l172 809q21 100 21 162h79q0 -77 -18 -158q41 73 126 127.5t187 54.5q145 0 226.5 -82.5t81.5 -216.5q0 -54 -15 -125z" />
    <glyph glyph-name="Ncommaaccent" unicode="&#x145;" horiz-adv-x="1466" 
d="M571 -182q0 34 24 61t58 27q33 0 56.5 -21.5t23.5 -62.5q0 -103 -72.5 -164t-152.5 -61l10 51q52 2 95 34t55 82q-12 -8 -31 -8q-30 0 -48 18t-18 44zM1128 0h-96l-571 1339l-283 -1339h-88l307 1452h115l557 -1317l279 1317h88z" />
    <glyph glyph-name="ncommaaccent" unicode="&#x146;" horiz-adv-x="1060" 
d="M311 -182q0 34 24 61t58 27q33 0 56.5 -21.5t23.5 -62.5q0 -103 -72.5 -164t-152.5 -61l10 51q52 2 95 34t55 82q-12 -8 -31 -8q-30 0 -48 18t-18 44zM782 0h-82l121 567q15 71 15 119q0 108 -62.5 173t-183.5 65q-117 0 -213 -96.5t-127 -239.5l-125 -588h-82l172 809
q21 100 21 162h79q0 -77 -18 -158q41 73 126 127.5t187 54.5q145 0 226.5 -82.5t81.5 -216.5q0 -54 -15 -125z" />
    <glyph glyph-name="Ncaron" unicode="&#x147;" horiz-adv-x="1466" 
d="M702 1798h70l164 -192l238 192h86l-275 -244h-117zM1128 0h-96l-571 1339l-283 -1339h-88l307 1452h115l557 -1317l279 1317h88z" />
    <glyph glyph-name="ncaron" unicode="&#x148;" horiz-adv-x="1060" 
d="M446 1370l168 -225l260 225h78l-290 -276h-113l-166 276h63zM782 0h-82l121 567q15 71 15 119q0 108 -62.5 173t-183.5 65q-117 0 -213 -96.5t-127 -239.5l-125 -588h-82l172 809q21 100 21 162h79q0 -77 -18 -158q41 73 126 127.5t187 54.5q145 0 226.5 -82.5
t81.5 -216.5q0 -54 -15 -125z" />
    <glyph glyph-name="napostrophe" unicode="&#x149;" horiz-adv-x="1060" 
d="M336 1305q0 36 22.5 62t59.5 26q31 0 54.5 -21t23.5 -61q0 -69 -38 -122.5t-88.5 -78.5t-99.5 -25l11 52q52 2 95.5 34t53.5 82q-12 -8 -29 -8q-30 0 -47.5 17t-17.5 43zM782 0h-82l121 567q15 71 15 119q0 108 -62.5 173t-183.5 65q-117 0 -213 -96.5t-127 -239.5
l-125 -588h-82l172 809q21 100 21 162h79q0 -77 -18 -158q41 73 126 127.5t187 54.5q145 0 226.5 -82.5t81.5 -216.5q0 -54 -15 -125z" />
    <glyph glyph-name="Eng" unicode="&#x14a;" horiz-adv-x="1466" 
d="M1434 1452l-342 -1622q-53 -244 -269 -244q-84 0 -131 35l15 70q60 -31 120 -31q150 0 185 180l26 140l-577 1359l-283 -1339h-88l307 1452h115l555 -1317l279 1317h88z" />
    <glyph glyph-name="eng" unicode="&#x14b;" horiz-adv-x="1060" 
d="M670 -143l151 710q15 71 15 119q0 108 -62.5 173t-183.5 65q-117 0 -213 -96.5t-127 -239.5l-125 -588h-82l172 809q21 100 21 162h79q0 -77 -18 -158q41 73 126 127.5t187 54.5q145 0 226.5 -82.5t81.5 -216.5q0 -54 -15 -125l-153 -725q-53 -243 -269 -243
q-84 0 -131 35l15 69q60 -31 120 -31q147 0 185 181z" />
    <glyph glyph-name="Omacron" unicode="&#x14c;" horiz-adv-x="1570" 
d="M733 55q94 0 188 31.5t181 98t154.5 158.5t108 223.5t40.5 283.5q0 134 -40.5 240.5t-110.5 172.5t-161 100t-196 34q-94 0 -188 -31.5t-181 -98t-154.5 -158.5t-108 -223.5t-40.5 -283.5q0 -134 40.5 -240.5t110.5 -172.5t161 -100t196 -34zM727 -25q-121 0 -227 40.5
t-187.5 116.5t-128.5 196.5t-47 269.5q0 168 45.5 313.5t122 247.5t176 175t207 108t215.5 35q121 0 227 -41t187.5 -117.5t128.5 -196.5t47 -268q0 -168 -45.5 -313.5t-122 -247.5t-176 -175t-207 -108t-215.5 -35zM1210 1640h-510l15 74h510z" />
    <glyph glyph-name="omacron" unicode="&#x14d;" horiz-adv-x="1105" 
d="M889 1196h-496l15 72h495zM586 922q-76 0 -151.5 -35t-138.5 -98t-102.5 -163t-39.5 -218q0 -161 91 -260t232 -99q76 0 151.5 35.5t138.5 99.5t102.5 164.5t39.5 218.5q0 161 -90 258t-233 97zM471 -25q-175 0 -286 118t-111 306q0 135 45.5 249.5t119.5 189t166 116
t187 41.5q179 0 288 -117t109 -307q0 -135 -45 -249.5t-118.5 -189t-165.5 -116t-189 -41.5z" />
    <glyph glyph-name="Obreve" unicode="&#x14e;" horiz-adv-x="1570" 
d="M743 1798h64q-2 -8 -2 -24q0 -70 43 -116t129 -46q92 0 157 52.5t95 133.5h71q-30 -104 -120 -179t-213 -75q-111 0 -169.5 61.5t-58.5 153.5q0 15 4 39zM733 55q94 0 188 31.5t181 98t154.5 158.5t108 223.5t40.5 283.5q0 134 -40.5 240.5t-110.5 172.5t-161 100
t-196 34q-94 0 -188 -31.5t-181 -98t-154.5 -158.5t-108 -223.5t-40.5 -283.5q0 -134 40.5 -240.5t110.5 -172.5t161 -100t196 -34zM727 -25q-121 0 -227 40.5t-187.5 116.5t-128.5 196.5t-47 269.5q0 168 45.5 313.5t122 247.5t176 175t207 108t215.5 35q121 0 227 -41
t187.5 -117.5t128.5 -196.5t47 -268q0 -168 -45.5 -313.5t-122 -247.5t-176 -175t-207 -108t-215.5 -35z" />
    <glyph glyph-name="obreve" unicode="&#x14f;" horiz-adv-x="1105" 
d="M586 922q-76 0 -151.5 -35t-138.5 -98t-102.5 -163t-39.5 -218q0 -161 91 -260t232 -99q76 0 151.5 35.5t138.5 99.5t102.5 164.5t39.5 218.5q0 161 -90 258t-233 97zM471 -25q-175 0 -286 118t-111 306q0 135 45.5 249.5t119.5 189t166 116t187 41.5q179 0 288 -117
t109 -307q0 -135 -45 -249.5t-118.5 -189t-165.5 -116t-189 -41.5zM641 1094q-111 0 -169 61.5t-58 153.5q0 29 8 61h63q-6 -24 -6 -47q0 -70 43 -116t129 -46q100 0 169 62t91 147h68q-24 -110 -116.5 -193t-221.5 -83z" />
    <glyph glyph-name="Ohungarumlaut" unicode="&#x150;" horiz-adv-x="1570" 
d="M866 1554h-69l170 244h98zM1100 1554h-70l176 244h99zM733 55q94 0 188 31.5t181 98t154.5 158.5t108 223.5t40.5 283.5q0 134 -40.5 240.5t-110.5 172.5t-161 100t-196 34q-94 0 -188 -31.5t-181 -98t-154.5 -158.5t-108 -223.5t-40.5 -283.5q0 -134 40.5 -240.5
t110.5 -172.5t161 -100t196 -34zM727 -25q-121 0 -227 40.5t-187.5 116.5t-128.5 196.5t-47 269.5q0 168 45.5 313.5t122 247.5t176 175t207 108t215.5 35q121 0 227 -41t187.5 -117.5t128.5 -196.5t47 -268q0 -168 -45.5 -313.5t-122 -247.5t-176 -175t-207 -108
t-215.5 -35z" />
    <glyph glyph-name="ohungarumlaut" unicode="&#x151;" horiz-adv-x="1105" 
d="M586 922q-76 0 -151.5 -35t-138.5 -98t-102.5 -163t-39.5 -218q0 -161 91 -260t232 -99q76 0 151.5 35.5t138.5 99.5t102.5 164.5t39.5 218.5q0 161 -90 258t-233 97zM471 -25q-175 0 -286 118t-111 306q0 135 45.5 249.5t119.5 189t166 116t187 41.5q179 0 288 -117
t109 -307q0 -135 -45 -249.5t-118.5 -189t-165.5 -116t-189 -41.5zM778 1370l-219 -276h-65l192 276h92zM993 1370l-225 -276h-66l199 276h92z" />
    <glyph glyph-name="OE" unicode="&#x152;" horiz-adv-x="2320" 
d="M2089 0h-836l60 276q-112 -146 -268.5 -223.5t-317.5 -77.5q-121 0 -227 40.5t-187.5 116.5t-128.5 196.5t-47 269.5q0 168 45.5 313.5t122 247.5t176 175t207 108t215.5 35q208 0 364 -116.5t206 -328.5l90 420h817l-17 -80h-731l-129 -604h662l-17 -80h-661l-129 -608
h747zM733 55q94 0 188 31.5t181 98t154.5 158.5t108 223.5t40.5 283.5q0 134 -40.5 240.5t-110.5 172.5t-161 100t-196 34q-94 0 -188 -31.5t-181 -98t-154.5 -158.5t-108 -223.5t-40.5 -283.5q0 -134 40.5 -240.5t110.5 -172.5t161 -100t196 -34z" />
    <glyph glyph-name="oe" unicode="&#x153;" horiz-adv-x="1904" 
d="M1792 479h-807q-4 -27 -4 -80q0 -157 95 -253.5t245 -96.5q113 0 206 64t148 163l66 -43q-65 -116 -178 -187t-250 -71q-147 0 -252.5 76.5t-142.5 212.5q-69 -135 -191 -212t-256 -77q-175 0 -286 118t-111 306q0 135 45.5 249.5t119.5 189t166 116t187 41.5
q145 0 245 -77.5t136 -212.5q70 135 189.5 212.5t250.5 77.5q188 0 289.5 -111.5t101.5 -283.5q0 -60 -12 -121zM586 922q-76 0 -151.5 -35t-138.5 -98t-102.5 -163t-39.5 -218q0 -161 91 -260t232 -99q76 0 151.5 35.5t138.5 99.5t102.5 164.5t39.5 218.5q0 161 -90 258
t-233 97zM1411 922q-146 0 -258.5 -106.5t-153.5 -264.5h719q4 28 4 47q0 142 -80.5 233t-230.5 91z" />
    <glyph glyph-name="Racute" unicode="&#x154;" horiz-adv-x="1222" 
d="M1092 1798l-308 -244h-88l273 244h123zM1010 0h-97l-243 647h-355l-139 -647h-88l309 1452h434q167 0 267 -94t100 -238q0 -187 -124 -311.5t-318 -149.5zM332 727h327q197 0 323 106.5t126 282.5q0 118 -78.5 187t-222.5 69h-338z" />
    <glyph glyph-name="racute" unicode="&#x155;" horiz-adv-x="661" 
d="M485 1094h-75l264 276h129zM303 825q111 156 291 156q75 0 117 -25l-17 -82q-52 23 -121 23q-113 0 -200.5 -82t-120.5 -235l-123 -580h-82l172 809q19 90 19 162h79q0 -77 -14 -146z" />
    <glyph glyph-name="Rcommaaccent" unicode="&#x156;" horiz-adv-x="1222" 
d="M1010 0h-97l-243 647h-355l-139 -647h-88l309 1452h434q167 0 267 -94t100 -238q0 -187 -124 -311.5t-318 -149.5zM332 727h327q197 0 323 106.5t126 282.5q0 118 -78.5 187t-222.5 69h-338zM463 -182q0 34 24 61t58 27q33 0 56.5 -21.5t23.5 -62.5q0 -103 -73 -164
t-153 -61l11 51q52 2 94.5 34t54.5 82q-12 -8 -31 -8q-30 0 -47.5 18t-17.5 44z" />
    <glyph glyph-name="rcommaaccent" unicode="&#x157;" horiz-adv-x="661" 
d="M303 825q111 156 291 156q75 0 117 -25l-17 -82q-52 23 -121 23q-113 0 -200.5 -82t-120.5 -235l-123 -580h-82l172 809q19 90 19 162h79q0 -77 -14 -146zM-29 -182q0 34 24 61t58 27q33 0 56.5 -21.5t23.5 -62.5q0 -103 -72.5 -164t-152.5 -61l10 51q52 2 95 34t55 82
q-12 -8 -31 -8q-30 0 -48 18t-18 44z" />
    <glyph glyph-name="Rcaron" unicode="&#x158;" horiz-adv-x="1222" 
d="M563 1798h70l164 -192l237 192h86l-274 -244h-117zM1010 0h-97l-243 647h-355l-139 -647h-88l309 1452h434q167 0 267 -94t100 -238q0 -187 -124 -311.5t-318 -149.5zM332 727h327q197 0 323 106.5t126 282.5q0 118 -78.5 187t-222.5 69h-338z" />
    <glyph glyph-name="rcaron" unicode="&#x159;" horiz-adv-x="661" 
d="M334 1370l168 -225l260 225h78l-291 -276h-113l-166 276h64zM303 825q111 156 291 156q75 0 117 -25l-17 -82q-52 23 -121 23q-113 0 -200.5 -82t-120.5 -235l-123 -580h-82l172 809q19 90 19 162h79q0 -77 -14 -146z" />
    <glyph glyph-name="Sacute" unicode="&#x15a;" horiz-adv-x="1155" 
d="M1094 1798l-308 -244h-88l273 244h123zM1124 1073l-82 -16q0 70 -22 130.5t-65 108.5t-113.5 75.5t-161.5 27.5q-135 0 -241.5 -86t-106.5 -219q0 -94 47 -159t143 -108l217 -98q265 -120 265 -344q0 -182 -135.5 -296t-340.5 -114q-206 0 -331 115t-125 307q0 54 8 101
l84 14q-10 -58 -10 -100q0 -157 98.5 -258t282.5 -101q164 0 272 91t108 231q0 91 -50 158t-163 118l-221 101q-235 109 -235 329q0 117 65 209.5t164.5 139.5t210.5 47t196.5 -33.5t136.5 -91t77 -128t28 -151.5z" />
    <glyph glyph-name="sacute" unicode="&#x15b;" horiz-adv-x="862" 
d="M565 1094h-76l265 276h129zM793 709l-78 -21q0 61 -25.5 113.5t-83.5 88.5t-139 36q-92 0 -164 -56.5t-72 -136.5q0 -57 31.5 -97.5t108.5 -76.5l143 -65q82 -37 127 -96t45 -132q0 -124 -91.5 -207.5t-236.5 -83.5q-151 0 -242 82.5t-91 216.5q0 28 6 52l75 20
q-4 -24 -4 -51q0 -111 66 -179.5t190 -68.5q103 0 173.5 57t70.5 148q0 112 -137 176l-139 64q-174 80 -174 227q0 116 90.5 196t228.5 80q80 0 143 -25t101 -66.5t58 -91.5t20 -103z" />
    <glyph glyph-name="Scircumflex" unicode="&#x15c;" horiz-adv-x="1155" 
d="M1042 1554h-69l-164 193l-238 -193h-86l275 244h117zM1124 1073l-82 -16q0 70 -22 130.5t-65 108.5t-113.5 75.5t-161.5 27.5q-135 0 -241.5 -86t-106.5 -219q0 -94 47 -159t143 -108l217 -98q265 -120 265 -344q0 -182 -135.5 -296t-340.5 -114q-206 0 -331 115
t-125 307q0 54 8 101l84 14q-10 -58 -10 -100q0 -157 98.5 -258t282.5 -101q164 0 272 91t108 231q0 91 -50 158t-163 118l-221 101q-235 109 -235 329q0 117 65 209.5t164.5 139.5t210.5 47t196.5 -33.5t136.5 -91t77 -128t28 -151.5z" />
    <glyph glyph-name="scircumflex" unicode="&#x15d;" horiz-adv-x="862" 
d="M766 1094l-168 225l-256 -225h-82l289 276h115l165 -276h-63zM793 709l-78 -21q0 61 -25.5 113.5t-83.5 88.5t-139 36q-92 0 -164 -56.5t-72 -136.5q0 -57 31.5 -97.5t108.5 -76.5l143 -65q82 -37 127 -96t45 -132q0 -124 -91.5 -207.5t-236.5 -83.5q-151 0 -242 82.5
t-91 216.5q0 28 6 52l75 20q-4 -24 -4 -51q0 -111 66 -179.5t190 -68.5q103 0 173.5 57t70.5 148q0 112 -137 176l-139 64q-174 80 -174 227q0 116 90.5 196t228.5 80q80 0 143 -25t101 -66.5t58 -91.5t20 -103z" />
    <glyph glyph-name="Scedilla" unicode="&#x15e;" horiz-adv-x="1155" 
d="M360 -178l-24 47l125 111q-180 19 -284.5 130t-104.5 287q0 54 8 101l84 14q-10 -58 -10 -100q0 -157 98.5 -258t282.5 -101q164 0 272 91t108 231q0 91 -50 158t-163 118l-221 101q-235 109 -235 329q0 117 65 209.5t164.5 139.5t210.5 47t196.5 -33.5t136.5 -91
t77 -128t28 -151.5l-82 -16q0 70 -22 130.5t-65 108.5t-113.5 75.5t-161.5 27.5q-135 0 -241.5 -86t-106.5 -219q0 -94 47 -159t143 -108l217 -98q265 -120 265 -344q0 -180 -132 -293.5t-335 -116.5l-113 -96q10 2 31 2q78 0 127 -39.5t49 -97.5q0 -74 -59.5 -121
t-151.5 -47q-79 0 -140.5 37t-91.5 98l56 35q55 -108 180 -108q63 0 100 28.5t37 77.5q0 39 -34.5 64.5t-98.5 25.5q-30 0 -68 -12z" />
    <glyph glyph-name="scedilla" unicode="&#x15f;" horiz-adv-x="862" 
d="M184 -178l-24 47l125 113q-120 19 -190 97t-70 195q0 28 6 52l75 20q-4 -24 -4 -51q0 -111 66 -179.5t190 -68.5q103 0 173.5 57t70.5 148q0 112 -137 176l-139 64q-174 80 -174 227q0 116 90.5 196t228.5 80q80 0 143 -25t101 -66.5t58 -91.5t20 -103l-78 -21
q0 61 -25.5 113.5t-83.5 88.5t-139 36q-92 0 -164 -56.5t-72 -136.5q0 -57 31.5 -97.5t108.5 -76.5l143 -65q82 -37 127 -96t45 -132q0 -123 -91 -206.5t-235 -84.5l-112 -96q10 2 31 2q78 0 127 -39.5t49 -97.5q0 -74 -59.5 -121t-151.5 -47q-79 0 -140.5 37t-91.5 98
l56 35q55 -108 180 -108q63 0 100 28.5t37 77.5q0 39 -34.5 64.5t-98.5 25.5q-31 0 -68 -12z" />
    <glyph glyph-name="Scaron" unicode="&#x160;" horiz-adv-x="1155" 
d="M539 1798h69l164 -192l238 192h86l-275 -244h-116zM1124 1073l-82 -16q0 70 -22 130.5t-65 108.5t-113.5 75.5t-161.5 27.5q-135 0 -241.5 -86t-106.5 -219q0 -94 47 -159t143 -108l217 -98q265 -120 265 -344q0 -182 -135.5 -296t-340.5 -114q-206 0 -331 115t-125 307
q0 54 8 101l84 14q-10 -58 -10 -100q0 -157 98.5 -258t282.5 -101q164 0 272 91t108 231q0 91 -50 158t-163 118l-221 101q-235 109 -235 329q0 117 65 209.5t164.5 139.5t210.5 47t196.5 -33.5t136.5 -91t77 -128t28 -151.5z" />
    <glyph glyph-name="scaron" unicode="&#x161;" horiz-adv-x="862" 
d="M385 1370l168 -225l260 225h78l-291 -276h-113l-165 276h63zM793 709l-78 -21q0 61 -25.5 113.5t-83.5 88.5t-139 36q-92 0 -164 -56.5t-72 -136.5q0 -57 31.5 -97.5t108.5 -76.5l143 -65q82 -37 127 -96t45 -132q0 -124 -91.5 -207.5t-236.5 -83.5q-151 0 -242 82.5
t-91 216.5q0 28 6 52l75 20q-4 -24 -4 -51q0 -111 66 -179.5t190 -68.5q103 0 173.5 57t70.5 148q0 112 -137 176l-139 64q-174 80 -174 227q0 116 90.5 196t228.5 80q80 0 143 -25t101 -66.5t58 -91.5t20 -103z" />
    <glyph glyph-name="Tcommaaccent" unicode="&#x162;" horiz-adv-x="1191" 
d="M295 -178l-25 47l152 135l293 1368h-510l16 80h1108l-16 -80h-510l-293 -1372h-10l-142 -121q10 2 31 2q78 0 127 -39.5t49 -97.5q0 -74 -59.5 -121t-151.5 -47q-79 0 -140 37t-91 98l55 35q55 -108 180 -108q63 0 100.5 28.5t37.5 77.5q0 39 -34.5 64.5t-99.5 25.5
q-30 0 -67 -12z" />
    <glyph glyph-name="tcommaaccent" unicode="&#x163;" horiz-adv-x="563" 
d="M360 1280h82l-65 -309h209l-15 -74h-211l-122 -582q-17 -81 -17 -112q0 -65 34.5 -103.5t104.5 -38.5q32 0 64 9l-16 -72q-24 -8 -58 -8q-103 0 -157 55.5t-54 153.5q0 42 19 129l121 569h-189l14 74h52q71 0 110 24t56 105zM129 -182q0 34 24 61t58 27q33 0 56.5 -21.5
t23.5 -62.5q0 -103 -72.5 -164t-152.5 -61l10 51q52 2 94.5 34t54.5 82q-12 -8 -30 -8q-30 0 -48 18t-18 44z" />
    <glyph glyph-name="Tcaron" unicode="&#x164;" horiz-adv-x="1191" 
d="M571 1798h70l164 -192l237 192h86l-274 -244h-117zM1313 1372h-510l-293 -1372h-88l293 1372h-510l16 80h1108z" />
    <glyph glyph-name="tcaron" unicode="&#x165;" horiz-adv-x="563" 
d="M360 1280h82l-65 -309h209l-15 -74h-211l-122 -582q-17 -81 -17 -112q0 -65 34.5 -103.5t104.5 -38.5q32 0 64 9l-16 -72q-24 -8 -58 -8q-103 0 -157 55.5t-54 153.5q0 42 19 129l121 569h-189l14 74h52q71 0 110 24t56 105zM791 1477l-189 -369h-67l163 369h93z" />
    <glyph glyph-name="Tbar" unicode="&#x166;" horiz-adv-x="1191" 
d="M1313 1372h-510l-131 -614h264l-14 -74h-267l-145 -684h-88l145 684h-252l15 74h254l131 614h-510l16 80h1108z" />
    <glyph glyph-name="tbar" unicode="&#x167;" horiz-adv-x="563" 
d="M360 1280h82l-65 -309h209l-15 -74h-211l-73 -346h231l-14 -74h-234l-32 -162q-17 -81 -17 -112q0 -65 34.5 -103.5t104.5 -38.5q32 0 64 9l-16 -72q-24 -8 -58 -8q-103 0 -157 55.5t-54 153.5q0 42 19 129l30 149h-165l14 74h168l74 346h-189l14 74h52q71 0 110 24
t56 105z" />
    <glyph glyph-name="Utilde" unicode="&#x168;" horiz-adv-x="1349" 
d="M1247 1452h88l-219 -1028q-47 -220 -177.5 -334.5t-330.5 -114.5q-209 0 -323.5 112.5t-114.5 307.5q0 81 16 154l193 903h88l-193 -907q-16 -78 -16 -142q0 -159 89 -253.5t267 -94.5q168 0 273.5 99.5t144.5 283.5zM1022 1642q46 0 77.5 34.5t45.5 97.5h69
q-21 -96 -78 -148.5t-126 -52.5q-68 0 -117 49l-41 39q-28 26 -47.5 36.5t-46.5 10.5q-46 0 -77.5 -33.5t-43.5 -95.5h-68q18 95 74 147t127 52q69 0 125 -56l39 -36q27 -25 44.5 -34.5t43.5 -9.5z" />
    <glyph glyph-name="utilde" unicode="&#x169;" horiz-adv-x="1054" 
d="M236 971h81l-120 -568q-15 -71 -15 -118q0 -108 60.5 -173t181.5 -65q118 0 212 99t128 257l121 568h82l-172 -809q-17 -81 -17 -162h-78q0 102 17 164q-42 -76 -125 -132.5t-189 -56.5q-144 0 -223.5 82.5t-79.5 216.5q0 54 15 125zM791 1196q46 0 77 34t45 97h70
q-21 -96 -76.5 -148.5t-124.5 -52.5q-63 0 -116 50l-41 38q-28 26 -49 37t-50 11q-46 0 -77 -33.5t-43 -95.5h-72q18 95 74 146.5t129 51.5q70 0 125 -55l38 -37q43 -43 91 -43z" />
    <glyph glyph-name="Umacron" unicode="&#x16a;" horiz-adv-x="1349" 
d="M1247 1452h88l-219 -1028q-47 -220 -177.5 -334.5t-330.5 -114.5q-209 0 -323.5 112.5t-114.5 307.5q0 81 16 154l193 903h88l-193 -907q-16 -78 -16 -142q0 -159 89 -253.5t267 -94.5q168 0 273.5 99.5t144.5 283.5zM1143 1640h-510l14 74h510z" />
    <glyph glyph-name="umacron" unicode="&#x16b;" horiz-adv-x="1054" 
d="M236 971h81l-120 -568q-15 -71 -15 -118q0 -108 60.5 -173t181.5 -65q118 0 212 99t128 257l121 568h82l-172 -809q-17 -81 -17 -162h-78q0 102 17 164q-42 -76 -125 -132.5t-189 -56.5q-144 0 -223.5 82.5t-79.5 216.5q0 54 15 125zM883 1196h-496l14 72h496z" />
    <glyph glyph-name="Ubreve" unicode="&#x16c;" horiz-adv-x="1349" 
d="M1247 1452h88l-219 -1028q-47 -220 -177.5 -334.5t-330.5 -114.5q-209 0 -323.5 112.5t-114.5 307.5q0 81 16 154l193 903h88l-193 -907q-16 -78 -16 -142q0 -159 89 -253.5t267 -94.5q168 0 273.5 99.5t144.5 283.5zM633 1798h63q-2 -8 -2 -24q0 -70 43 -116t129 -46
q92 0 157 52.5t95 133.5h72q-30 -104 -120 -179t-214 -75q-111 0 -169 61.5t-58 153.5q0 15 4 39z" />
    <glyph glyph-name="ubreve" unicode="&#x16d;" horiz-adv-x="1054" 
d="M236 971h81l-120 -568q-15 -71 -15 -118q0 -108 60.5 -173t181.5 -65q118 0 212 99t128 257l121 568h82l-172 -809q-17 -81 -17 -162h-78q0 102 17 164q-42 -76 -125 -132.5t-189 -56.5q-144 0 -223.5 82.5t-79.5 216.5q0 54 15 125zM625 1094q-111 0 -169.5 61.5
t-58.5 153.5q0 25 9 61h63q-6 -24 -6 -47q0 -70 43 -116t129 -46q100 0 169 62t91 147h68q-24 -110 -116.5 -193t-221.5 -83z" />
    <glyph glyph-name="Uring" unicode="&#x16e;" horiz-adv-x="1349" 
d="M1247 1452h88l-219 -1028q-47 -220 -177.5 -334.5t-330.5 -114.5q-209 0 -323.5 112.5t-114.5 307.5q0 81 16 154l193 903h88l-193 -907q-16 -78 -16 -142q0 -159 89 -253.5t267 -94.5q168 0 273.5 99.5t144.5 283.5zM909 1925q76 0 125 -50t49 -124q0 -89 -64 -153
t-149 -64q-77 0 -126.5 50.5t-49.5 125.5q0 91 64.5 153t150.5 62zM758 1714q0 -51 31.5 -85t84.5 -34q59 0 103.5 45t44.5 107q0 51 -32 85t-85 34q-64 0 -105.5 -45.5t-41.5 -106.5z" />
    <glyph glyph-name="uring" unicode="&#x16f;" horiz-adv-x="1054" 
d="M676 1499q81 0 132.5 -52.5t51.5 -131.5q0 -95 -68 -163.5t-159 -68.5q-82 0 -134.5 54t-52.5 133q0 97 69 163t161 66zM512 1274q0 -54 35 -90.5t92 -36.5q62 0 110 48.5t48 115.5q0 54 -35 90.5t-92 36.5q-67 0 -112.5 -49.5t-45.5 -114.5zM236 971h81l-120 -568
q-15 -71 -15 -118q0 -108 60.5 -173t181.5 -65q118 0 212 99t128 257l121 568h82l-172 -809q-17 -81 -17 -162h-78q0 102 17 164q-42 -76 -125 -132.5t-189 -56.5q-144 0 -223.5 82.5t-79.5 216.5q0 54 15 125z" />
    <glyph glyph-name="Uhungarumlaut" unicode="&#x170;" horiz-adv-x="1349" 
d="M760 1554h-70l170 244h98zM993 1554h-69l176 244h98zM1247 1452h88l-219 -1028q-47 -220 -177.5 -334.5t-330.5 -114.5q-209 0 -323.5 112.5t-114.5 307.5q0 81 16 154l193 903h88l-193 -907q-16 -78 -16 -142q0 -159 89 -253.5t267 -94.5q168 0 273.5 99.5t144.5 283.5z
" />
    <glyph glyph-name="uhungarumlaut" unicode="&#x171;" horiz-adv-x="1054" 
d="M236 971h81l-120 -568q-15 -71 -15 -118q0 -108 60.5 -173t181.5 -65q118 0 212 99t128 257l121 568h82l-172 -809q-17 -81 -17 -162h-78q0 102 17 164q-42 -76 -125 -132.5t-189 -56.5q-144 0 -223.5 82.5t-79.5 216.5q0 54 15 125zM741 1370l-219 -276h-65l192 276h92z
M956 1370l-225 -276h-65l198 276h92z" />
    <glyph glyph-name="Uogonek" unicode="&#x172;" horiz-adv-x="1349" 
d="M467 -262q0 -46 32.5 -70t84.5 -24q40 0 78 10l-15 -62q-47 -14 -88 -14q-74 0 -120 38.5t-46 104.5q0 74 46 141t114 115q-184 15 -283.5 125.5t-99.5 292.5q0 81 16 154l193 903h88l-193 -907q-16 -78 -16 -142q0 -159 89 -253.5t267 -94.5q168 0 273.5 99.5
t144.5 283.5l215 1014h88l-219 -1028q-42 -198 -153 -310t-281 -134q-77 -11 -146 -88.5t-69 -153.5z" />
    <glyph glyph-name="uogonek" unicode="&#x173;" horiz-adv-x="1054" 
d="M236 971h81l-120 -568q-15 -71 -15 -118q0 -108 60.5 -173t181.5 -65q118 0 212 99t128 257l121 568h82l-172 -809q-17 -81 -17 -162q-83 -41 -150 -112t-67 -150q0 -46 31.5 -70t83.5 -24q40 0 78 10l-15 -62q-47 -14 -88 -14q-74 0 -120 38.5t-46 104.5q0 90 66 169.5
t149 119.5q0 94 17 154q-42 -76 -125 -132.5t-189 -56.5q-144 0 -223.5 82.5t-79.5 216.5q0 54 15 125z" />
    <glyph glyph-name="Wcircumflex" unicode="&#x174;" horiz-adv-x="1970" 
d="M1454 1554h-70l-163 193l-238 -193h-86l274 244h117zM1128 1333l-677 -1333h-103l-115 1452h89l100 -1331l678 1331h100l154 -1333l641 1333h94l-705 -1452h-100z" />
    <glyph glyph-name="wcircumflex" unicode="&#x175;" horiz-adv-x="1523" 
d="M1067 1094l-168 225l-256 -225h-82l289 276h115l165 -276h-63zM141 971h84l76 -860l483 860h111l102 -871l461 871h88l-522 -971h-90l-107 899l-508 -899h-81z" />
    <glyph glyph-name="Ycircumflex" unicode="&#x176;" horiz-adv-x="1177" 
d="M561 643l-315 809h92l280 -737l564 737h102l-641 -821l-135 -631h-86zM1032 1554h-69l-164 193l-238 -193h-86l275 244h116z" />
    <glyph glyph-name="ycircumflex" unicode="&#x177;" horiz-adv-x="966" 
d="M104 -389h-94l361 532l-242 828h86l211 -752l492 752h96zM795 1094l-168 225l-256 -225h-82l289 276h114l166 -276h-63z" />
    <glyph glyph-name="Ydieresis" unicode="&#x178;" horiz-adv-x="1177" 
d="M561 643l-315 809h92l280 -737l564 737h102l-641 -821l-135 -631h-86zM510 1667q0 34 22.5 58t55.5 24q25 0 41 -19t16 -44q0 -32 -22 -55t-54 -23q-27 0 -43 17.5t-16 41.5zM897 1667q0 34 22.5 58t55.5 24q25 0 41 -19t16 -44q0 -32 -22 -55t-54 -23q-27 0 -43 17.5
t-16 41.5z" />
    <glyph glyph-name="Zacute" unicode="&#x179;" horiz-adv-x="1214" 
d="M1092 1798l-308 -244h-88l273 244h123zM993 0h-1050l20 92l1251 1280h-958l16 80h1063l-20 -90l-1254 -1282h949z" />
    <glyph glyph-name="zacute" unicode="&#x17a;" horiz-adv-x="915" 
d="M573 1094h-75l264 276h129zM717 0h-770l12 74l827 823h-622l14 74h729l-12 -74l-829 -823h665z" />
    <glyph glyph-name="Zdotaccent" unicode="&#x17b;" horiz-adv-x="1214" 
d="M993 0h-1050l20 92l1251 1280h-958l16 80h1063l-20 -90l-1254 -1282h949zM752 1665q0 36 25 63t61 27q28 0 45.5 -22t17.5 -50q0 -34 -24 -59t-58 -25q-29 0 -48 19.5t-19 46.5z" />
    <glyph glyph-name="zdotaccent" unicode="&#x17c;" horiz-adv-x="915" 
d="M717 0h-770l12 74l827 823h-622l14 74h729l-12 -74l-829 -823h665zM512 1221q0 36 25 63t61 27q28 0 46 -22t18 -50q0 -34 -24 -59t-58 -25q-29 0 -48.5 19.5t-19.5 46.5z" />
    <glyph glyph-name="Zcaron" unicode="&#x17d;" horiz-adv-x="1214" 
d="M590 1798h69l164 -192l238 192h86l-275 -244h-116zM993 0h-1050l20 92l1251 1280h-958l16 80h1063l-20 -90l-1254 -1282h949z" />
    <glyph glyph-name="zcaron" unicode="&#x17e;" horiz-adv-x="915" 
d="M383 1370l168 -225l260 225h78l-291 -276h-113l-166 276h64zM717 0h-770l12 74l827 823h-622l14 74h729l-12 -74l-829 -823h665z" />
    <glyph glyph-name="uni018F" unicode="&#x18f;" horiz-adv-x="1591" 
d="M100 606q0 43 11 111h1302q8 52 8 123q0 130 -43 236t-117 175.5t-173.5 107.5t-213.5 38q-181 0 -341.5 -95.5t-249.5 -263.5l-72 35q103 188 283.5 296t382.5 108q132 0 247.5 -43.5t201.5 -122.5t135.5 -198t49.5 -263q0 -167 -44 -311t-119.5 -246t-175.5 -175
t-213 -108t-232 -35q-177 0 -319.5 79t-225 224t-82.5 328zM729 55q113 0 220.5 38.5t198.5 111t158 185.5t95 253h-1219v-33q0 -164 72 -291t196.5 -195.5t278.5 -68.5z" />
    <glyph glyph-name="florin" unicode="&#x192;" horiz-adv-x="735" 
d="M186 10l176 887h-247v74h262l47 231q28 138 109.5 208.5t193.5 70.5q58 0 117 -19v-76q-1 0 -12.5 3.5t-23 6t-31 5t-38.5 2.5q-87 0 -148 -54t-85 -169l-43 -209h276v-74h-290l-181 -909q-28 -138 -108.5 -208.5t-192.5 -70.5q-62 0 -121 19v75q1 0 13 -3t23.5 -5.5
t32 -5t40.5 -2.5q85 0 147 55t84 168z" />
    <glyph glyph-name="uni01B5" unicode="&#x1b5;" horiz-adv-x="1214" 
d="M993 0h-1050l20 92l615 629h-351l15 74h407l565 577h-958l16 80h1063l-20 -90l-555 -567h362l-14 -74h-420l-627 -641h949z" />
    <glyph glyph-name="uni01B6" unicode="&#x1b6;" horiz-adv-x="915" 
d="M717 0h-770l12 74l408 405h-279l14 68h332l352 350h-622l14 74h729l-12 -74l-354 -350h266l-14 -68h-320l-407 -405h665z" />
    <glyph glyph-name="Aringacute" unicode="&#x1fa;" horiz-adv-x="1316" 
d="M1057 0l-86 504h-649l-295 -504h-101l836 1409q-43 22 -68.5 64t-25.5 94q0 91 64.5 153t150.5 62q76 0 125 -50t49 -124q0 -72 -44.5 -130t-111.5 -79l242 -1399h-86zM825 1362l-456 -778h587zM1260 2087l-308 -244h-88l273 244h123zM731 1571q0 -51 32 -85t85 -34
q59 0 103 45t44 107q0 51 -31.5 84.5t-84.5 33.5q-64 0 -106 -45t-42 -106z" />
    <glyph glyph-name="aringacute" unicode="&#x1fb;" horiz-adv-x="1140" 
d="M856 451q14 72 14 124q0 154 -80.5 250.5t-224.5 96.5q-108 0 -203 -66.5t-153.5 -187.5t-58.5 -267q0 -155 82 -254.5t227 -99.5q142 0 251.5 114t145.5 290zM809 184q-26 -39 -59 -73t-77.5 -66t-102.5 -51t-121 -19q-116 0 -203 57.5t-130.5 150t-43.5 204.5
q0 129 40.5 243t108 193.5t158 125.5t188.5 46q73 0 132.5 -20t95.5 -49t62.5 -68t38 -71t17.5 -64l54 248h82l-148 -692q-20 -103 -20 -189q0 -65 2 -90h-78q-4 40 -4 76q0 53 8 108zM756 1579h-72l250 262h123zM686 1499q81 0 132.5 -52.5t51.5 -131.5q0 -95 -68 -163.5
t-159 -68.5q-82 0 -134 54t-52 133q0 97 68.5 163t160.5 66zM522 1274q0 -54 35 -90.5t92 -36.5q62 0 110 48.5t48 115.5q0 54 -35 90.5t-92 36.5q-67 0 -112.5 -49.5t-45.5 -114.5z" />
    <glyph glyph-name="AEacute" unicode="&#x1fc;" horiz-adv-x="1961" 
d="M1634 1798l-307 -244h-88l272 244h123zM1731 0h-836l96 453h-602l-391 -453h-109l1272 1452h860l-16 -80h-731l-129 -604h661l-16 -80h-662l-129 -608h748zM1008 530l178 836l-729 -836h551z" />
    <glyph glyph-name="aeacute" unicode="&#x1fd;" horiz-adv-x="1746" 
d="M932 1094h-76l264 276h129zM1634 479h-809q-4 -27 -4 -80q0 -157 95 -254.5t245 -97.5q113 0 206.5 64t148.5 163l65 -43q-65 -116 -178 -187t-250 -71q-146 0 -252.5 77t-142.5 212q-11 -26 -25 -51q-56 -105 -159.5 -170.5t-229.5 -65.5q-153 0 -236 74t-83 178
q0 138 96.5 214.5t245.5 84.5l278 15q43 2 71 16t40.5 37.5t17 46.5t4.5 55q0 98 -68.5 157.5t-191.5 59.5q-109 0 -191.5 -60.5t-117.5 -164.5l-74 25q43 126 147 199t238 73q143 0 225.5 -60t104.5 -157q73 107 180.5 167t222.5 60q188 0 291 -111.5t103 -283.5
q0 -54 -13 -121zM1251 922q-146 0 -258 -106t-153 -265h719q4 28 4 47q0 142 -80.5 233t-231.5 91zM109 233q0 -85 72 -135.5t169 -50.5q130 0 231 83t130 212l34 160v4q-32 -32 -108 -35l-283 -14q-104 -5 -174.5 -64t-70.5 -160z" />
    <glyph glyph-name="Oslashacute" unicode="&#x1fe;" horiz-adv-x="1570" 
d="M727 -25q-265 0 -428 172l-172 -174l-49 47l176 179q-117 158 -117 399q0 168 45.5 313.5t122 247.5t176 175t207 108t215.5 35q128 0 241.5 -47t194.5 -136l187 189l49 -47l-193 -195q111 -159 111 -387q0 -168 -45.5 -313.5t-122 -247.5t-176 -175t-207 -108
t-215.5 -35zM225 602q0 -204 90 -340l965 973q-69 80 -168.5 121t-214.5 41q-94 0 -188 -31.5t-181 -98t-154.5 -158.5t-108 -223.5t-40.5 -283.5zM733 55q94 0 188 31.5t181 98t154.5 158.5t108 223.5t40.5 283.5q0 195 -84 328l-963 -971q68 -75 165 -113.5t210 -38.5z
M1290 1798l-307 -244h-88l272 244h123z" />
    <glyph glyph-name="oslashacute" unicode="&#x1ff;" horiz-adv-x="1105" 
d="M471 -25q-181 0 -291 123l-119 -114l-45 51l123 119q-65 103 -65 245q0 135 45.5 249.5t119.5 189t166 116t187 41.5q181 0 291 -123l116 113l45 -51l-120 -117q65 -108 65 -246q0 -135 -45 -249.5t-118.5 -189t-165.5 -116t-189 -41.5zM586 922q-76 0 -151.5 -35
t-138.5 -98t-102.5 -163t-39.5 -218q0 -112 45 -197l626 606q-91 105 -239 105zM909 567q0 111 -45 193l-626 -606q94 -105 239 -105q76 0 151.5 35.5t138.5 99.5t102.5 164.5t39.5 218.5zM670 1094h-76l264 276h129z" />
    <glyph glyph-name="Scommaaccent" unicode="&#x218;" horiz-adv-x="1155" 
d="M1124 1073l-82 -16q0 70 -22 130.5t-65 108.5t-113.5 75.5t-161.5 27.5q-135 0 -241.5 -86t-106.5 -219q0 -94 47 -159t143 -108l217 -98q265 -120 265 -344q0 -182 -135.5 -296t-340.5 -114q-206 0 -331 115t-125 307q0 54 8 101l84 14q-10 -58 -10 -100
q0 -157 98.5 -258t282.5 -101q164 0 272 91t108 231q0 91 -50 158t-163 118l-221 101q-235 109 -235 329q0 117 65 209.5t164.5 139.5t210.5 47t196.5 -33.5t136.5 -91t77 -128t28 -151.5zM360 -182q0 34 24 61t58 27q33 0 56.5 -21.5t23.5 -62.5q0 -103 -72.5 -164
t-152.5 -61l10 51q52 2 95 34t55 82q-12 -8 -31 -8q-30 0 -48 18t-18 44z" />
    <glyph glyph-name="scommaaccent" unicode="&#x219;" horiz-adv-x="862" 
d="M793 709l-78 -21q0 61 -25.5 113.5t-83.5 88.5t-139 36q-92 0 -164 -56.5t-72 -136.5q0 -57 31.5 -97.5t108.5 -76.5l143 -65q82 -37 127 -96t45 -132q0 -124 -91.5 -207.5t-236.5 -83.5q-151 0 -242 82.5t-91 216.5q0 28 6 52l75 20q-4 -24 -4 -51q0 -111 66 -179.5
t190 -68.5q103 0 173.5 57t70.5 148q0 112 -137 176l-139 64q-174 80 -174 227q0 116 90.5 196t228.5 80q80 0 143 -25t101 -66.5t58 -91.5t20 -103zM225 -182q0 34 24 61t58 27q33 0 56.5 -21.5t23.5 -62.5q0 -103 -72.5 -164t-152.5 -61l10 51q52 2 95 34t55 82
q-12 -8 -31 -8q-30 0 -48 18t-18 44z" />
    <glyph glyph-name="uni021A" unicode="&#x21a;" horiz-adv-x="1191" 
d="M1313 1372h-510l-293 -1372h-88l293 1372h-510l16 80h1108zM348 -182q0 34 24 61t58 27q33 0 56.5 -21.5t23.5 -62.5q0 -103 -72.5 -164t-152.5 -61l10 51q52 2 94.5 34t54.5 82q-12 -8 -30 -8q-30 0 -48 18t-18 44z" />
    <glyph glyph-name="uni021B" unicode="&#x21b;" horiz-adv-x="563" 
d="M115 -178l-25 47l158 139q-109 46 -109 191q0 42 19 129l121 569h-189l14 74h52q71 0 110 24t56 105l38 180h82l-65 -309h209l-15 -74h-211l-122 -582q-17 -81 -17 -112q0 -65 34.5 -103.5t104.5 -38.5q32 0 64 9l-16 -72q-24 -8 -58 -8q-29 0 -41 2l-131 -113q10 2 31 2
q78 0 127 -39.5t49 -97.5q0 -74 -59.5 -121t-151.5 -47q-79 0 -140 37t-91 98l55 35q55 -108 180 -108q63 0 100 28.5t37 77.5q0 39 -34.5 64.5t-98.5 25.5q-30 0 -67 -12z" />
    <glyph glyph-name="dotlessj" unicode="&#x237;" horiz-adv-x="417" 
d="M12 -143l238 1114h82l-240 -1125q-28 -129 -96 -186t-172 -57q-84 0 -131 35l14 69q60 -31 121 -31q146 0 184 181z" />
    <glyph glyph-name="uni0259" unicode="&#x259;" horiz-adv-x="1077" 
d="M70 492h807q4 27 4 79q0 157 -95 254t-245 97q-113 0 -206.5 -64.5t-148.5 -163.5l-65 43q65 116 178 187t250 71q182 0 297 -115.5t115 -310.5q0 -130 -44.5 -243t-117 -189t-164 -119t-186.5 -43q-188 0 -290 112t-102 284q0 54 13 121zM451 49q146 0 258 106t153 265
h-719q-4 -28 -4 -47q0 -142 80.5 -233t231.5 -91z" />
    <glyph glyph-name="circumflex" unicode="&#x2c6;" horiz-adv-x="651" 
d="M639 1094l-168 225l-256 -225h-82l289 276h115l165 -276h-63z" />
    <glyph glyph-name="caron" unicode="&#x2c7;" horiz-adv-x="651" 
d="M197 1370l168 -225l260 225h77l-290 -276h-113l-166 276h64z" />
    <glyph glyph-name="uni02C9" unicode="&#x2c9;" horiz-adv-x="591" 
d="M629 1196h-496l14 72h496z" />
    <glyph glyph-name="breve" unicode="&#x2d8;" horiz-adv-x="647" 
d="M360 1094q-111 0 -169 61.5t-58 153.5q0 29 8 61h64q-6 -24 -6 -47q0 -70 43 -116t129 -46q100 0 169 62t91 147h67q-24 -110 -116.5 -193t-221.5 -83z" />
    <glyph glyph-name="dotaccent" unicode="&#x2d9;" horiz-adv-x="231" 
d="M133 1221q0 36 25 63t61 27q28 0 46 -22t18 -50q0 -34 -24 -59t-58 -25q-29 0 -48.5 19.5t-19.5 46.5z" />
    <glyph glyph-name="ring" unicode="&#x2da;" horiz-adv-x="495" 
d="M362 1499q81 0 133 -52.5t52 -131.5q0 -95 -68.5 -163.5t-159.5 -68.5q-82 0 -134 54t-52 133q0 97 68.5 163t160.5 66zM199 1274q0 -54 35 -90.5t92 -36.5q62 0 109.5 48.5t47.5 115.5q0 54 -35 90.5t-92 36.5q-67 0 -112 -49.5t-45 -114.5z" />
    <glyph glyph-name="ogonek" unicode="&#x2db;" horiz-adv-x="415" 
d="M119 23l51 -23q-83 -41 -150 -112t-67 -150q0 -46 31.5 -70t83.5 -24q39 0 77 10l-14 -62q-47 -14 -88 -14q-74 0 -120 38.5t-46 104.5q0 97 77.5 182.5t164.5 119.5z" />
    <glyph glyph-name="tilde" unicode="&#x2dc;" horiz-adv-x="727" 
d="M586 1196q46 0 77.5 34t45.5 97h69q-21 -96 -76 -148.5t-124 -52.5q-64 0 -117 50l-41 38q-28 27 -48.5 37.5t-49.5 10.5q-46 0 -77.5 -33.5t-43.5 -95.5h-72q18 95 74 146.5t129 51.5q70 0 125 -55l39 -37q43 -43 90 -43z" />
    <glyph glyph-name="hungarumlaut" unicode="&#x2dd;" horiz-adv-x="593" 
d="M418 1370l-219 -276h-66l193 276h92zM633 1370l-225 -276h-66l199 276h92z" />
    <glyph glyph-name="uni0394" unicode="&#x394;" horiz-adv-x="1390" 
d="M6 0l557 1452h86l561 -1452h-1204zM606 1343l-479 -1265h963z" />
    <glyph glyph-name="uni03A9" unicode="&#x3a9;" horiz-adv-x="1792" 
d="M901 1401q-124 0 -239 -47t-203 -129.5t-140.5 -205t-52.5 -263.5q0 -127 44.5 -240.5t119.5 -195.5t172 -136.5t205 -72.5v-111h-602v74h483q-103 30 -193.5 91t-161.5 146.5t-112 201t-41 243.5q0 157 58.5 293.5t157.5 229t230 145.5t275 53t275.5 -53t230.5 -145.5
t158 -229t59 -293.5q0 -128 -41 -243.5t-112 -201t-161.5 -146.5t-193.5 -91h483v-74h-602v111q108 18 205 72.5t172 136.5t119.5 195.5t44.5 240.5q0 141 -52.5 263.5t-140.5 205t-203.5 129.5t-240.5 47z" />
    <glyph glyph-name="uni03BC" unicode="&#x3bc;" horiz-adv-x="1140" 
d="M838 172q-34 -79 -115.5 -138t-200.5 -59q-99 0 -172.5 40.5t-109.5 111.5v-516h-82v1360h82v-596q0 -66 16 -122.5t49.5 -103t91 -73.5t133.5 -27q133 0 217 95t84 229v598h82v-783q0 -86 13 -188h-78q-10 90 -10 150v22z" />
    <glyph glyph-name="pi" unicode="&#x3c0;" horiz-adv-x="1423" 
d="M1217 74v-68q-56 -18 -113 -18q-93 0 -143 57.5t-50 147.5v706h-465v-899h-81v899h-209v72h1048v-72h-211v-700q0 -65 36 -102.5t97 -37.5q40 0 91 15z" />
    <glyph glyph-name="Wgrave" unicode="&#x1e80;" horiz-adv-x="1970" 
d="M1130 1554l-208 244h108l180 -244h-80zM1128 1333l-677 -1333h-103l-115 1452h89l100 -1331l678 1331h100l154 -1333l641 1333h94l-705 -1452h-100z" />
    <glyph glyph-name="wgrave" unicode="&#x1e81;" horiz-adv-x="1523" 
d="M141 971h84l76 -860l483 860h111l102 -871l461 871h88l-522 -971h-90l-107 899l-508 -899h-81zM893 1094h-64l-159 276h98z" />
    <glyph glyph-name="Wacute" unicode="&#x1e82;" horiz-adv-x="1970" 
d="M1513 1798l-307 -244h-88l273 244h122zM1128 1333l-677 -1333h-103l-115 1452h89l100 -1331l678 1331h100l154 -1333l641 1333h94l-705 -1452h-100z" />
    <glyph glyph-name="wacute" unicode="&#x1e83;" horiz-adv-x="1523" 
d="M907 1094h-76l265 276h129zM141 971h84l76 -860l483 860h111l102 -871l461 871h88l-522 -971h-90l-107 899l-508 -899h-81z" />
    <glyph glyph-name="Wdieresis" unicode="&#x1e84;" horiz-adv-x="1970" 
d="M776 1667q0 34 22.5 58t55.5 24q25 0 41 -19t16 -44q0 -33 -21.5 -55.5t-53.5 -22.5q-27 0 -43.5 17.5t-16.5 41.5zM1409 1667q0 34 22.5 58t55.5 24q25 0 41 -19t16 -44q0 -32 -22 -55t-54 -23q-27 0 -43 17.5t-16 41.5zM1128 1333l-677 -1333h-103l-115 1452h89
l100 -1331l678 1331h100l154 -1333l641 1333h94l-705 -1452h-100z" />
    <glyph glyph-name="wdieresis" unicode="&#x1e85;" horiz-adv-x="1523" 
d="M606 1229q0 34 22.5 58t55.5 24q25 0 41 -19.5t16 -44.5q0 -33 -21.5 -55.5t-53.5 -22.5q-27 0 -43.5 18t-16.5 42zM1016 1229q0 34 22.5 58t55.5 24q25 0 41 -19.5t16 -44.5q0 -32 -22 -55t-54 -23q-27 0 -43 18t-16 42zM141 971h84l76 -860l483 860h111l102 -871
l461 871h88l-522 -971h-90l-107 899l-508 -899h-81z" />
    <glyph glyph-name="uni1E8A" unicode="&#x1e8a;" horiz-adv-x="1177" 
d="M895 0l-295 657l-575 -657h-107l649 729l-331 723h96l293 -659l592 659h108l-657 -723l-4 -4l327 -725h-96zM694 1665q0 36 25 63t61 27q28 0 46 -22t18 -50q0 -34 -24 -59t-58 -25q-29 0 -48.5 19.5t-19.5 46.5z" />
    <glyph glyph-name="uni1E8B" unicode="&#x1e8b;" horiz-adv-x="931" 
d="M-84 0l485 504l-256 467h93l221 -412l389 412h106l-460 -473l272 -498h-92l-236 436l-413 -436h-109zM494 1221q0 36 25 63t61 27q28 0 45.5 -22t17.5 -50q0 -34 -24 -59t-58 -25q-29 0 -48 19.5t-19 46.5z" />
    <glyph glyph-name="Ygrave" unicode="&#x1ef2;" horiz-adv-x="1177" 
d="M561 643l-315 809h92l280 -737l564 737h102l-641 -821l-135 -631h-86zM729 1554l-209 244h109l180 -244h-80z" />
    <glyph glyph-name="ygrave" unicode="&#x1ef3;" horiz-adv-x="966" 
d="M104 -389h-94l361 532l-242 828h86l211 -752l492 752h96zM623 1094h-64l-160 276h99z" />
    <glyph glyph-name="uni2007" unicode="&#x2007;" horiz-adv-x="1198" 
 />
    <glyph glyph-name="uni2008" unicode="&#x2008;" horiz-adv-x="438" 
 />
    <glyph glyph-name="uni200B" unicode="&#x200b;" horiz-adv-x="0" 
 />
    <glyph glyph-name="endash" unicode="&#x2013;" horiz-adv-x="1304" 
d="M1147 551h-1010l15 74h1009z" />
    <glyph glyph-name="emdash" unicode="&#x2014;" horiz-adv-x="2134" 
d="M1976 551h-1839l15 74h1839z" />
    <glyph glyph-name="quoteleft" unicode="&#x2018;" horiz-adv-x="446" 
d="M403 1126q0 -38 -26 -63t-62 -25q-37 0 -59.5 25t-22.5 67q0 64 27.5 123.5t69.5 101.5t90.5 69.5t93.5 35.5l-12 -61q-71 -18 -129 -79.5t-72 -127.5q6 6 31 6q31 0 51 -20t20 -52z" />
    <glyph glyph-name="quoteright" unicode="&#x2019;" horiz-adv-x="450" 
d="M332 1376q0 38 26 63t62 25q37 0 59.5 -25t22.5 -67q0 -64 -27.5 -123.5t-69.5 -101.5t-90.5 -69.5t-93.5 -35.5l12 62q71 18 129 79.5t72 127.5q-6 -6 -31 -6q-31 0 -51 19.5t-20 51.5z" />
    <glyph glyph-name="quotesinglbase" unicode="&#x201a;" horiz-adv-x="460" 
d="M51 66q0 38 26 63t62 25q37 0 59.5 -25.5t22.5 -67.5q0 -64 -27 -123.5t-69 -101t-90.5 -69t-93.5 -35.5l12 61q71 18 129 79.5t72 127.5q-6 -6 -31 -6q-31 0 -51.5 20t-20.5 52z" />
    <glyph glyph-name="quotedblleft" unicode="&#x201c;" horiz-adv-x="706" 
d="M403 1126q0 -38 -26 -63t-62 -25q-37 0 -59.5 25t-22.5 67q0 64 27.5 123.5t69.5 101.5t90.5 69.5t93.5 35.5l-12 -61q-71 -18 -129 -79.5t-72 -127.5q6 6 31 6q31 0 51 -20t20 -52zM664 1126q0 -37 -26.5 -62.5t-62.5 -25.5q-37 0 -59 24.5t-22 67.5q0 64 27 123.5
t69 101.5t90.5 69.5t93.5 35.5l-12 -61q-71 -18 -129 -79.5t-72 -127.5q6 6 31 6q31 0 51.5 -20t20.5 -52z" />
    <glyph glyph-name="quotedblright" unicode="&#x201d;" horiz-adv-x="708" 
d="M332 1376q0 38 26 63t62 25q37 0 59.5 -25t22.5 -67q0 -64 -27.5 -123.5t-69.5 -101.5t-90.5 -69.5t-93.5 -35.5l12 62q71 18 129 79.5t72 127.5q-6 -6 -31 -6q-31 0 -51 19.5t-20 51.5zM592 1376q0 38 26 63t62 25q37 0 59.5 -25t22.5 -67q0 -64 -27.5 -123.5
t-69.5 -101.5t-90.5 -69.5t-93.5 -35.5l13 62q70 18 128 79.5t72 127.5q-6 -6 -30 -6q-31 0 -51.5 19.5t-20.5 51.5z" />
    <glyph glyph-name="quotedblbase" unicode="&#x201e;" horiz-adv-x="720" 
d="M51 66q0 38 26 63t62 25q37 0 59.5 -25.5t22.5 -67.5q0 -64 -27 -123.5t-69 -101t-90.5 -69t-93.5 -35.5l12 61q71 18 129 79.5t72 127.5q-6 -6 -31 -6q-31 0 -51.5 20t-20.5 52zM311 66q0 38 26 63t62 25q37 0 59.5 -25.5t22.5 -67.5q0 -64 -27 -123.5t-69 -101
t-90.5 -69t-93.5 -35.5l12 61q71 18 129 79.5t72 127.5q-6 -6 -31 -6q-31 0 -51.5 20t-20.5 52z" />
    <glyph glyph-name="dagger" unicode="&#x2020;" horiz-adv-x="839" 
d="M840 1038h-291l-150 -706h-73l151 706h-289l15 70h289l73 344h74l-74 -344h289z" />
    <glyph glyph-name="daggerdbl" unicode="&#x2021;" horiz-adv-x="901" 
d="M872 1038h-288l-133 -624h286l-14 -70h-287l-74 -344h-73l73 344h-290l14 70h291l133 624h-289l15 70h288l74 344h74l-74 -344h289z" />
    <glyph glyph-name="bullet" unicode="&#x2022;" horiz-adv-x="1171" 
d="M158 569q0 177 124.5 301.5t299.5 124.5t299.5 -124.5t124.5 -301.5q0 -174 -125 -299t-299 -125t-299 125t-125 299z" />
    <glyph glyph-name="ellipsis" unicode="&#x2026;" horiz-adv-x="1374" 
d="M506 66q0 42 26.5 71t67.5 29q32 0 52 -23.5t20 -54.5q0 -40 -27 -68t-65 -28q-33 0 -53.5 22t-20.5 52zM39 66q0 42 26.5 71t67.5 29q32 0 52 -23.5t20 -54.5q0 -40 -27 -68t-65 -28q-33 0 -53.5 22t-20.5 52zM975 66q0 42 26.5 71t67.5 29q32 0 52 -23.5t20 -54.5
q0 -40 -27 -68t-65 -28q-33 0 -53.5 22t-20.5 52z" />
    <glyph glyph-name="perthousand" unicode="&#x2030;" horiz-adv-x="2222" 
d="M1812 604q121 0 200 -79t79 -195q0 -137 -98.5 -240.5t-241.5 -103.5q-88 0 -155.5 43t-100.5 116q-46 -73 -120.5 -116t-164.5 -43q-120 0 -199 79t-79 195q0 137 98.5 240.5t241.5 103.5q87 0 154.5 -44t99.5 -116q46 73 121 116.5t165 43.5zM508 1339q120 0 199 -78.5
t79 -195.5q0 -137 -98.5 -240.5t-241.5 -103.5q-120 0 -199 78.5t-79 195.5q0 137 98.5 240.5t241.5 103.5zM453 788q106 0 182 82t76 191q0 91 -58 151t-151 60q-106 0 -182 -82t-76 -191q0 -91 58 -151t151 -60zM293 0h-92l1233 1327h92zM1217 53q106 0 182 82t76 191
q0 91 -58 151t-151 60q-106 0 -182 -82t-76 -191q0 -91 58 -151t151 -60zM1757 53q106 0 182 82t76 191q0 91 -58 151t-151 60q-106 0 -182 -82t-76 -191q0 -91 58 -151t151 -60z" />
    <glyph glyph-name="guilsinglleft" unicode="&#x2039;" horiz-adv-x="575" 
d="M367 188h-74l-193 392l351 391h90l-361 -398z" />
    <glyph glyph-name="guilsinglright" unicode="&#x203a;" horiz-adv-x="581" 
d="M123 188h-92l362 396l-190 387h84l190 -393z" />
    <glyph glyph-name="uni2042" unicode="&#x2042;" horiz-adv-x="1640" 
d="M1020 1452l-62 -285l293 95l11 -58l-297 -96l127 -246l-52 -33l-127 248l-229 -254l-49 43l229 248l-248 92l29 56l250 -95l59 285h66zM444 639l-61 -285l293 95l10 -58l-297 -96l127 -246l-51 -33l-127 248l-229 -254l-50 43l230 248l-248 92l29 56l249 -95l60 285h65z
M1284 639l-61 -285l293 95l10 -58l-297 -96l127 -246l-51 -33l-127 248l-230 -254l-49 43l229 248l-247 92l28 56l250 -95l60 285h65z" />
    <glyph glyph-name="fraction" unicode="&#x2044;" horiz-adv-x="327" 
d="M-403 0h-93l1233 1327h92z" />
    <glyph glyph-name="uni2051" unicode="&#x2051;" horiz-adv-x="907" 
d="M668 1452l-62 -285l293 95l10 -58l-297 -96l127 -246l-51 -33l-127 248l-229 -254l-49 43l229 248l-248 92l29 56l250 -95l59 285h66zM492 639l-62 -285l293 95l10 -58l-297 -96l127 -246l-51 -33l-127 248l-229 -254l-50 43l230 248l-248 92l29 56l250 -95l59 285h66z
" />
    <glyph glyph-name="uni2070" unicode="&#x2070;" horiz-adv-x="772" 
d="M442 698q-128 0 -193 79t-65 208q0 51 10.5 110t36.5 125.5t65 120t102 88.5t141 35q71 0 123.5 -24.5t80.5 -66.5t41 -88.5t13 -100.5q0 -53 -10 -113t-36.5 -127.5t-65 -121t-102 -89t-141.5 -35.5zM721 1180q0 94 -49 156.5t-142 62.5q-67 0 -121 -41t-85 -105.5
t-47.5 -135t-16.5 -136.5q0 -96 45.5 -156.5t145.5 -60.5q67 0 121 41t85 105t47.5 134t16.5 136z" />
    <glyph glyph-name="uni2074" unicode="&#x2074;" horiz-adv-x="727" 
d="M123 889l16 78l473 485h99l-107 -498h141l-12 -65h-141l-39 -178h-74l39 178h-395zM530 954l91 410l-406 -410h315z" />
    <glyph glyph-name="uni2075" unicode="&#x2075;" horiz-adv-x="690" 
d="M410 1386l-119 -249q67 53 162 53q107 0 170 -61.5t63 -155.5q0 -114 -82.5 -195.5t-206.5 -81.5q-117 0 -188.5 66.5t-71.5 155.5q0 12 2 20l74 20q-2 -8 -2 -20q0 -75 51.5 -125.5t138.5 -50.5q88 0 147.5 58.5t59.5 144.5q0 72 -48.5 116.5t-131.5 44.5
q-89 0 -168 -59l-59 31l172 354h391l-14 -66h-340z" />
    <glyph glyph-name="uni2076" unicode="&#x2076;" horiz-adv-x="733" 
d="M264 1087q27 46 94.5 83.5t141.5 37.5q104 0 167.5 -63.5t63.5 -159.5q0 -122 -88.5 -204.5t-208.5 -82.5q-115 0 -184.5 75t-69.5 196q0 119 38.5 216t100.5 156t135.5 91t147.5 32q132 0 205 -57l-33 -59q-65 51 -178 51q-126 0 -214.5 -89t-117.5 -223zM475 1145
q-80 0 -145.5 -63.5t-65.5 -147.5q0 -72 49.5 -122t122.5 -50q86 0 152.5 62.5t66.5 154.5q0 75 -50 120.5t-130 45.5z" />
    <glyph glyph-name="uni2077" unicode="&#x2077;" horiz-adv-x="653" 
d="M795 1452l-15 -70q-370 -232 -495 -671h-80q120 431 477 675h-467l14 66h566z" />
    <glyph glyph-name="uni2078" unicode="&#x2078;" horiz-adv-x="712" 
d="M324 1251q0 -62 52 -96.5t124 -34.5q75 0 124.5 41.5t49.5 108.5q0 57 -45.5 95t-128.5 38q-75 0 -125.5 -43t-50.5 -109zM231 903q1 -66 58.5 -102.5t134.5 -36.5q86 0 139 44.5t53 113.5q0 61 -49 101t-143 40q-88 0 -140.5 -45t-52.5 -115zM422 698q-44 0 -88.5 11
t-85.5 32.5t-66.5 61t-25.5 90.5q0 84 56 140.5t146 68.5q-50 20 -79 61t-29 92q0 90 74.5 149.5t179.5 59.5q113 0 179.5 -54.5t66.5 -135.5q0 -74 -54.5 -128t-128.5 -65q57 -24 90 -67.5t33 -98.5q0 -93 -74.5 -155t-193.5 -62z" />
    <glyph glyph-name="uni2079" unicode="&#x2079;" horiz-adv-x="727" 
d="M672 1085q-30 -57 -93.5 -90.5t-134.5 -33.5q-98 0 -166.5 61.5t-68.5 161.5q0 119 84.5 199.5t202.5 80.5q116 0 187 -75.5t71 -200.5q0 -135 -48.5 -246.5t-139.5 -177.5t-206 -66q-123 0 -208 68l30 59q67 -61 178 -61q118 0 199.5 83.5t112.5 237.5zM465 1026
q83 0 145 60t62 145q0 69 -52.5 118.5t-127.5 49.5q-83 0 -145 -58t-62 -149q0 -79 51.5 -122.5t128.5 -43.5z" />
    <glyph glyph-name="uni2080" unicode="&#x2080;" horiz-adv-x="774" 
d="M254 -193q-128 0 -193 79t-65 208q0 42 7.5 90t23.5 103t44.5 105t65.5 91t92.5 65.5t120.5 24.5q71 0 123.5 -24.5t80.5 -66.5t41 -88.5t13 -100.5q0 -53 -10 -113t-36 -127.5t-64.5 -121t-102 -89t-141.5 -35.5zM532 289q0 94 -48.5 156.5t-141.5 62.5q-67 0 -121 -41
t-85 -105.5t-47.5 -135t-16.5 -136.5q0 -96 45 -156.5t145 -60.5q67 0 121 41t85 105t47.5 134t16.5 136z" />
    <glyph glyph-name="uni2081" unicode="&#x2081;" horiz-adv-x="419" 
d="M6 356l12 66q76 9 130.5 47t80.5 94h72l-158 -741h-73l129 608q-26 -26 -83 -50t-110 -24z" />
    <glyph glyph-name="uni2082" unicode="&#x2082;" horiz-adv-x="712" 
d="M111 285l-66 2q-4 20 -4 30q0 104 73.5 180t196.5 76q109 0 173.5 -59.5t64.5 -142.5q0 -82 -55.5 -146.5t-145.5 -103.5l-160 -70q-131 -57 -159 -164h460l-14 -65h-541q45 205 216 280l159 72q79 36 122.5 81.5t43.5 111.5q0 61 -44.5 103t-123.5 42q-86 0 -142 -59
t-56 -146q0 -14 2 -22z" />
    <glyph glyph-name="uni2083" unicode="&#x2083;" horiz-adv-x="704" 
d="M207 205l-25 63l318 230h-414l12 65h492l-19 -94l-292 -203q92 0 157.5 -55t65.5 -148q0 -106 -79.5 -181t-205.5 -75q-117 0 -189.5 65t-72.5 155q0 20 2 30l74 17q-2 -12 -2 -33q0 -76 55 -123t137 -47q85 0 145 57t60 133q0 70 -51.5 108t-126.5 38q-27 0 -41 -2z" />
    <glyph glyph-name="uni2084" unicode="&#x2084;" horiz-adv-x="731" 
d="M-63 0l16 78l473 485h98l-106 -497h141l-12 -66h-141l-39 -178h-74l39 178h-395zM344 66l90 409l-405 -409h315z" />
    <glyph glyph-name="uni2085" unicode="&#x2085;" horiz-adv-x="696" 
d="M225 498l-119 -250q67 53 162 53q107 0 170.5 -61.5t63.5 -155.5q0 -114 -82.5 -195.5t-206.5 -81.5q-117 0 -188.5 66.5t-71.5 155.5q0 12 2 20l74 21q-2 -8 -2 -21q0 -75 51.5 -125.5t138.5 -50.5q88 0 147.5 58.5t59.5 144.5q0 72 -48.5 117t-131.5 45q-88 0 -168 -60
l-60 31l172 354h392l-15 -65h-340z" />
    <glyph glyph-name="uni2086" unicode="&#x2086;" horiz-adv-x="739" 
d="M78 197q27 46 94 83t141 37q104 0 168 -63.5t64 -159.5q0 -122 -88.5 -204.5t-208.5 -82.5q-115 0 -184.5 75t-69.5 196q0 119 38.5 216t100.5 156t135.5 91t147.5 32q132 0 205 -57l-33 -59q-65 51 -178 51q-126 0 -214.5 -89t-117.5 -222zM289 254q-80 0 -145.5 -63.5
t-65.5 -147.5q0 -72 49.5 -122t122.5 -50q86 0 152.5 62.5t66.5 154.5q0 75 -50 120.5t-130 45.5z" />
    <glyph glyph-name="uni2087" unicode="&#x2087;" horiz-adv-x="653" 
d="M606 563l-14 -69q-371 -232 -496 -672h-80q120 431 478 676h-467l14 65h565z" />
    <glyph glyph-name="uni2088" unicode="&#x2088;" horiz-adv-x="716" 
d="M137 360q0 -62 52 -96.5t124 -34.5q75 0 124.5 41.5t49.5 108.5q0 57 -45.5 95t-128.5 38q-75 0 -125.5 -43t-50.5 -109zM45 12q1 -66 58.5 -102.5t134.5 -36.5q86 0 139 44.5t53 113.5q0 61 -49 101t-143 40q-88 0 -140.5 -45t-52.5 -115zM236 -193q-44 0 -89 11
t-86 32.5t-66.5 61t-25.5 90.5q0 84 56 140.5t147 68.5q-50 20 -79.5 61.5t-29.5 92.5q0 90 74.5 149t179.5 59q113 0 179.5 -54.5t66.5 -135.5q0 -74 -54 -128t-128 -65q57 -24 90 -67.5t33 -97.5q0 -94 -75 -156t-193 -62z" />
    <glyph glyph-name="uni2089" unicode="&#x2089;" horiz-adv-x="731" 
d="M485 195q-30 -57 -93 -91t-134 -34q-98 0 -166.5 61.5t-68.5 161.5q0 120 84 200t202 80q116 0 187 -75.5t71 -200.5q0 -135 -48.5 -246.5t-139 -177.5t-205.5 -66q-60 0 -115.5 19t-93.5 49l31 59q67 -61 178 -61q118 0 199 83.5t112 238.5zM279 135q83 0 144.5 60
t61.5 145q0 69 -52.5 118.5t-127.5 49.5q-83 0 -145 -58t-62 -149q0 -78 52 -122t129 -44z" />
    <glyph glyph-name="Euro" unicode="&#x20ac;" horiz-adv-x="1402" 
d="M858 500h-516q28 -198 168.5 -323.5t343.5 -125.5q179 0 328 99l28 -66q-160 -109 -364 -109q-119 0 -223.5 40.5t-180 111t-124 167t-62.5 206.5h-190l16 71h170v15q0 86 18 168h-151l16 69h158q77 226 274.5 377.5t440.5 151.5q240 0 385 -129l-50 -62q-59 53 -152 84
t-196 31q-197 0 -371 -126.5t-247 -326.5h698l-51 -69h-668q-20 -76 -20 -164v-19h573z" />
    <glyph glyph-name="uni2113" unicode="&#x2113;" horiz-adv-x="741" 
d="M526 92l-16 -76q-65 -26 -131 -26q-106 0 -164.5 52.5t-58.5 150.5q0 42 8 81l55 267q-86 -29 -151 -43l16 77q57 12 152 48l96 450q59 279 243 279q97 0 145 -52.5t48 -140.5t-25.5 -167.5t-68 -140.5t-102.5 -114.5t-124 -91.5t-139 -70l-63 -307q-8 -36 -8 -67
q0 -68 39 -103t112 -35q61 0 137 29zM412 1065l-86 -406q75 37 136.5 82t113.5 105t81 138t29 167q0 57 -28 91t-83 34q-120 0 -163 -211z" />
    <glyph glyph-name="trademark" unicode="&#x2122;" horiz-adv-x="1697" 
d="M825 1391h-256l-145 -680h-68l146 680h-256l12 61h580zM1190 711h-62l-155 610l-129 -610h-68l158 741h80l162 -645l432 645h92l-158 -741h-67l129 610z" />
    <glyph glyph-name="Omega" unicode="&#x2126;" horiz-adv-x="1792" 
d="M901 1401q-124 0 -239 -47t-203 -129.5t-140.5 -205t-52.5 -263.5q0 -128 43.5 -241t117.5 -195t170.5 -136.5t203.5 -72.5v-111h-596v74h477q-102 30 -192.5 91t-159.5 146.5t-109.5 201t-40.5 243.5q0 157 58.5 293.5t157.5 229t230 145.5t275 53t275.5 -53
t230.5 -145.5t158 -229t59 -293.5q0 -128 -40.5 -243.5t-109.5 -201t-159.5 -146.5t-192.5 -91h477v-74h-595v111q107 18 203.5 72.5t170 136.5t117 195t43.5 241q0 141 -52.5 263.5t-140.5 205t-203.5 129.5t-240.5 47z" />
    <glyph glyph-name="uni2160" unicode="&#x2160;" horiz-adv-x="954" 
d="M1026 1327l-16 -76h-351l-247 -1173h350l-17 -78h-782l14 78h351l247 1173h-350l17 76h784z" />
    <glyph glyph-name="uni2161" unicode="&#x2161;" horiz-adv-x="1495" 
d="M1303 78l-17 -78h-1323l14 78h342l248 1173h-342l17 76h1325l-17 -76h-344l-248 -1173h345zM874 78l248 1173h-471l-248 -1173h471z" />
    <glyph glyph-name="uni2162" unicode="&#x2162;" horiz-adv-x="2041" 
d="M1849 78l-16 -78h-1870l14 78h342l248 1173h-342l17 76h1872l-17 -76h-342l-248 -1173h342zM1423 78l248 1173h-467l-248 -1173h467zM651 1251l-248 -1173h467l248 1173h-467z" />
    <glyph glyph-name="uni2163" unicode="&#x2163;" horiz-adv-x="1978" 
d="M1784 78l-17 -78h-1804l14 78h336l250 1173h-336l15 76h1806l-14 -76h-230l-653 -1173h633zM647 1251l-250 -1173h609l-150 1173h-209zM1085 115l623 1136h-762z" />
    <glyph glyph-name="uni2164" unicode="&#x2164;" horiz-adv-x="1556" 
d="M1632 1327l-16 -76h-221l-652 -1173h617l-17 -78h-1374l17 78h614l-154 1173h-223l17 76h1392zM678 115l622 1136h-763z" />
    <glyph glyph-name="uni2165" unicode="&#x2165;" horiz-adv-x="1980" 
d="M1788 78l-16 -78h-1805l15 78h634l-151 1173h-234l15 76h1806l-14 -76h-307l-250 -1173h307zM1413 1251l-653 -1173h637l250 1173h-234zM694 115l625 1136h-764z" />
    <glyph glyph-name="uni2166" unicode="&#x2166;" horiz-adv-x="2570" 
d="M2378 78l-17 -78h-2394l15 78h632l-149 1173h-234l15 76h2396l-14 -76h-344l-250 -1173h344zM1950 78l250 1173h-469l-250 -1173h469zM1413 1251l-653 -1173h635l250 1173h-232zM694 115l623 1136h-762z" />
    <glyph glyph-name="uni2167" unicode="&#x2167;" horiz-adv-x="3080" 
d="M2888 78l-17 -78h-2904l15 78h630l-147 1173h-234l15 76h2906l-14 -76h-340l-250 -1173h340zM1724 1251l-249 -1173h452l250 1173h-453zM2261 1251l-250 -1173h453l250 1173h-453zM1407 1251l-651 -1173h635l249 1173h-233zM690 115l621 1136h-756z" />
    <glyph glyph-name="uni2168" unicode="&#x2168;" horiz-adv-x="1916" 
d="M1724 78l-16 -78h-1745l14 78h336l248 1173h-336l17 76h1745l-17 -76h-205l-538 -592l286 -581h211zM1128 659l-288 592h-195l-248 -1173h195zM932 1251l254 -524l477 524h-731zM1165 592l-471 -514h725z" />
    <glyph glyph-name="uni2169" unicode="&#x2169;" horiz-adv-x="1490" 
d="M1561 1327l-17 -76h-192l-547 -600l285 -573h206l-16 -78h-1315l15 78h200l529 573l-293 600h-189l17 76h1317zM508 1251l258 -532l485 532h-743zM745 584l-464 -506h714z" />
    <glyph glyph-name="uni216C" unicode="&#x216c;" horiz-adv-x="1257" 
d="M1167 561l-118 -561h-1086l14 78h310l248 1173h-310l17 76h723l-17 -76h-330l-247 -1173h608l102 483h86z" />
    <glyph glyph-name="uni216D" unicode="&#x216d;" horiz-adv-x="1398" 
d="M1294 901h-65q-11 171 -111 272t-301 101q-87 0 -173.5 -28.5t-166.5 -89t-141.5 -145t-98 -205t-36.5 -261.5q0 -153 65 -266.5t174 -170.5t246 -57q172 0 294.5 102.5t172.5 282.5h84l-92 -436h-84l39 184q-67 -93 -175.5 -151t-248.5 -58q-252 0 -404.5 158
t-152.5 408q0 156 42.5 290t113 228t162.5 161.5t192 99.5t200 32q88 0 161 -20t123 -56t83.5 -77t56.5 -91l47 219h84z" />
    <glyph glyph-name="uni216E" unicode="&#x216e;" horiz-adv-x="1417" 
d="M-25 78h320l250 1173h-320l17 76h581q228 0 373 -135t145 -369q0 -164 -57.5 -313.5t-158.5 -262.5t-249.5 -180t-320.5 -67h-594zM375 78h184q82 0 165 21.5t161 63t145.5 106t118 144.5t79.5 186t29 224q0 205 -123.5 316.5t-318.5 111.5h-188z" />
    <glyph glyph-name="uni216F" unicode="&#x216f;" horiz-adv-x="2101" 
d="M641 1327l299 -1214l815 1214h414l-17 -76h-286l-248 -1173h297l-17 -78h-638l16 78h258l240 1134l-816 -1212h-73l-303 1212l-240 -1134h274l-16 -78h-637l14 78h283l248 1173h-283l17 76h399z" />
    <glyph glyph-name="arrowleft" unicode="&#x2190;" horiz-adv-x="2062" 
d="M457 905v-272h1437v-74h-1437v-272l-367 309z" />
    <glyph glyph-name="arrowup" unicode="&#x2191;" horiz-adv-x="882" 
d="M496 -303v1515h-287l323 426l324 -426h-287v-1515h-73z" />
    <glyph glyph-name="arrowright" unicode="&#x2192;" horiz-adv-x="2060" 
d="M1604 633v272l366 -309l-366 -309v272h-1438v74h1438z" />
    <glyph glyph-name="arrowdown" unicode="&#x2193;" horiz-adv-x="878" 
d="M340 94v1516h74v-1516h286l-323 -426l-324 426h287z" />
    <glyph glyph-name="uni2196" unicode="&#x2196;" horiz-adv-x="1902" 
d="M1677 -16l-1210 1210l-207 -207v465h463l-205 -205l1213 -1210z" />
    <glyph glyph-name="uni2197" unicode="&#x2197;" horiz-adv-x="1415" 
d="M1208 1194l-1210 -1210l-53 53l1212 1210l-205 205h463v-465z" />
    <glyph glyph-name="uni2198" unicode="&#x2198;" horiz-adv-x="1904" 
d="M287 1468l1210 -1210l207 207v-465h-463l205 205l-1213 1210z" />
    <glyph glyph-name="uni2199" unicode="&#x2199;" horiz-adv-x="1417" 
d="M266 258l1211 1210l53 -53l-1213 -1210l205 -205h-463v465z" />
    <glyph glyph-name="uni21A9" unicode="&#x21a9;" horiz-adv-x="1634" 
d="M1198 551h-758v-272l-366 309l366 309v-272h758q135 0 232.5 88t97.5 225q0 133 -95 224t-229 91h-315v74h315q165 0 281.5 -113t116.5 -276q0 -113 -57 -202.5t-149 -137t-198 -47.5z" />
    <glyph glyph-name="uni21B0" unicode="&#x21b0;" horiz-adv-x="1624" 
d="M1421 1237v-1237h-73v1163h-830v-239l-330 276l330 277v-240h903z" />
    <glyph glyph-name="uni21B1" unicode="&#x21b1;" horiz-adv-x="1388" 
d="M227 0v1237h903v240l330 -277l-330 -276v239h-829v-1163h-74z" />
    <glyph glyph-name="uni21B2" unicode="&#x21b2;" horiz-adv-x="1396" 
d="M1229 1452v-1237h-903v-240l-330 277l330 276v-239h829v1163h74z" />
    <glyph glyph-name="uni21B3" unicode="&#x21b3;" horiz-adv-x="1628" 
d="M262 215v1237h74v-1163h829v239l330 -276l-330 -277v240h-903z" />
    <glyph glyph-name="uni21B4" unicode="&#x21b4;" horiz-adv-x="1757" 
d="M248 1452h1138v-1147h240l-276 -330l-277 330h240v1073h-1065v74z" />
    <glyph glyph-name="uni21B5" unicode="&#x21b5;" horiz-adv-x="2119" 
d="M375 358l-281 369h244q0 153 59.5 291.5t159.5 239t239 160t291 59.5q194 0 371 -99l-33 -65q-155 90 -338 90t-338.5 -90.5t-246 -246.5t-90.5 -339h243zM2081 727h-244q0 -153 -59.5 -291.5t-160 -239t-239 -160t-291.5 -59.5q-193 0 -370 99l33 65q155 -90 337 -90
q137 0 262.5 53.5t216 144t144 216t53.5 262.5h-243l280 369z" />
    <glyph glyph-name="uni21C6" unicode="&#x21c6;" horiz-adv-x="2181" 
d="M553 1415v-272h1438v-74h-1438v-272l-367 309zM1688 385v272l366 -309l-366 -309v272h-1438v74h1438z" />
    <glyph glyph-name="partialdiff" unicode="&#x2202;" horiz-adv-x="1208" 
d="M1010 690q-1 111 -16.5 207.5t-55.5 191.5t-102 162t-162.5 108.5t-229.5 41.5q-152 0 -284 -66l-27 70q144 72 332 72q157 0 279.5 -61t197.5 -168t113.5 -245.5t38.5 -300.5q0 -119 -20 -225t-63 -198.5t-105.5 -159.5t-152.5 -105.5t-200 -38.5q-201 0 -338 132
t-137 344q0 207 137 338t342 131q143 0 263 -61.5t190 -168.5zM567 846q-181 0 -294 -113t-113 -287t114 -284.5t283 -110.5q89 0 162.5 31.5t123 83t85 121t52.5 143t21 150.5q-68 130 -182 198t-252 68z" />
    <glyph glyph-name="Delta" unicode="&#x2206;" horiz-adv-x="1390" 
d="M6 0l557 1452h86l561 -1452h-1204zM606 1343l-479 -1265h963z" />
    <glyph glyph-name="product" unicode="&#x220f;" horiz-adv-x="1519" 
d="M1307 0h-84v1376h-867v-1376h-86v1452h1037v-1452z" />
    <glyph glyph-name="summation" unicode="&#x2211;" horiz-adv-x="1421" 
d="M244 0v78l630 653l-630 643v78h981v-80h-869l633 -641l-641 -651h877v-80h-981z" />
    <glyph glyph-name="minus" unicode="&#x2212;" horiz-adv-x="1177" 
d="M1016 555h-860v70h860v-70z" />
    <glyph glyph-name="uni2215" unicode="&#x2215;" horiz-adv-x="739" 
d="M795 1327h84l-922 -1327h-84z" />
    <glyph glyph-name="uni2219" unicode="&#x2219;" horiz-adv-x="450" 
d="M141 571q0 42 25.5 69.5t66.5 27.5q31 0 50.5 -22t19.5 -52q0 -38 -27 -66t-65 -28q-31 0 -50.5 20.5t-19.5 50.5z" />
    <glyph glyph-name="radical" unicode="&#x221a;" horiz-adv-x="1181" 
d="M1378 1649h-266l-551 -1649h-76l-364 1047h94l309 -906l523 1585h331v-77z" />
    <glyph glyph-name="infinity" unicode="&#x221e;" horiz-adv-x="1675" 
d="M795 594q-172 256 -349 256q-104 0 -177.5 -77t-73.5 -183q0 -104 74 -180t177 -76q174 0 349 260zM877 594q81 -121 166 -190.5t182 -69.5q104 0 178 76.5t74 179.5q0 106 -74 183t-178 77q-176 0 -348 -256zM836 535q-82 -123 -182 -198t-210 -75q-133 0 -228 97.5
t-95 232.5t95 232.5t228 97.5q110 0 210 -75t182 -198q82 123 181.5 198t209.5 75q133 0 228 -97.5t95 -232.5t-95 -232.5t-228 -97.5q-110 0 -209.5 75t-181.5 198z" />
    <glyph glyph-name="integral" unicode="&#x222b;" horiz-adv-x="569" 
d="M231 -78v1225q0 143 75 224t202 81h47v-74h-43q-91 0 -145 -61.5t-54 -173.5v-1227q0 -144 -72.5 -224.5t-197.5 -80.5h-53v74h43q91 0 144.5 62.5t53.5 174.5z" />
    <glyph glyph-name="approxequal" unicode="&#x2248;" horiz-adv-x="1304" 
d="M1071 449l47 -41q-51 -70 -111 -104t-141 -34q-75 0 -192 60l-96 51q-85 45 -152 45q-65 0 -112 -26t-89 -81l-49 43q54 71 112 105.5t138 34.5q69 0 186 -60l95 -49q90 -49 167 -49q63 0 109 25t88 80zM1071 844l47 -41q-51 -70 -111 -103.5t-141 -33.5q-77 0 -192 59
l-96 51q-85 45 -152 45q-65 0 -112 -25.5t-89 -80.5l-49 43q54 71 112 105t138 34q71 0 186 -59l95 -50q90 -49 167 -49q63 0 109 25t88 80z" />
    <glyph glyph-name="notequal" unicode="&#x2260;" horiz-adv-x="1183" 
d="M141 823h582l170 230h86l-170 -230h227v-71h-280l-240 -324h520v-72h-573l-174 -235h-86l174 235h-236v72h289l240 324h-529v71z" />
    <glyph glyph-name="lessequal" unicode="&#x2264;" horiz-adv-x="1165" 
d="M147 219h820v-69h-820v69zM147 676v72l820 303v-78l-723 -262l723 -258v-80z" />
    <glyph glyph-name="greaterequal" unicode="&#x2265;" horiz-adv-x="1196" 
d="M174 219h819v-69h-819v69zM993 748v-72l-819 -303v80l723 258l-723 262v78z" />
    <glyph glyph-name="dotmath" unicode="&#x22c5;" horiz-adv-x="450" 
d="M141 571q0 42 25.5 69.5t66.5 27.5q31 0 50.5 -22t19.5 -52q0 -38 -27 -66t-65 -28q-31 0 -50.5 20.5t-19.5 50.5z" />
    <glyph glyph-name="uni24C5" unicode="&#x24c5;" horiz-adv-x="1712" 
d="M215 725q0 -188 88.5 -345t243 -248t338.5 -91t337.5 91t242.5 248t89 345t-89 346t-242.5 249t-337.5 91q-138 0 -262.5 -53.5t-213.5 -145.5t-141.5 -219t-52.5 -268zM143 725q0 205 98.5 378t269.5 273.5t374 100.5q152 0 290 -59.5t237 -160t157.5 -240t58.5 -292.5
t-58.5 -291.5t-157.5 -239t-237 -160t-290 -59.5q-203 0 -374 100.5t-269.5 273t-98.5 376.5zM913 659h-174l-73 -340h-68l174 816h242q98 0 156.5 -54t58.5 -145q0 -125 -92 -201t-224 -76zM754 719h164q106 0 174.5 62t68.5 157q0 62 -44.5 99.5t-123.5 37.5h-162z" />
    <glyph glyph-name="filledbox" unicode="&#x25a0;" horiz-adv-x="1906" 
d="M264 0v1452h1436v-1452h-1436z" />
    <glyph glyph-name="H22073" unicode="&#x25a1;" horiz-adv-x="1906" 
d="M1700 0h-1436v1452h1436v-1452zM336 1384v-1316h1292v1316h-1292z" />
    <glyph glyph-name="uni25AF" unicode="&#x25af;" horiz-adv-x="1353" 
d="M1147 0h-883v1452h883v-1452zM340 1380v-1310h731v1310h-731z" />
    <glyph glyph-name="triagup" unicode="&#x25b2;" horiz-adv-x="1859" 
d="M827 1489l859 -1489h-1725z" />
    <glyph glyph-name="uni25B3" unicode="&#x25b3;" horiz-adv-x="1859" 
d="M827 1489l859 -1489h-1725zM1563 68l-738 1278l-741 -1278h1479z" />
    <glyph glyph-name="lozenge" unicode="&#x25ca;" horiz-adv-x="1089" 
d="M608 0h-69l-433 725l435 727h65l434 -727zM195 725l378 -625l379 625l-379 627z" />
    <glyph glyph-name="circle" unicode="&#x25cb;" horiz-adv-x="1744" 
d="M150 725q0 153 59.5 292.5t159.5 240.5t239.5 161t292.5 60t292.5 -60t240.5 -161t161 -240.5t60 -292.5t-60 -292.5t-161 -240t-240.5 -160t-292.5 -59.5t-292.5 59.5t-239.5 160t-159.5 240t-59.5 292.5zM223 725q0 -139 53.5 -265t144.5 -217.5t216.5 -145.5
t263.5 -54q139 0 265 54t217 145.5t144.5 217.5t53.5 265t-53.5 265t-144.5 217.5t-217 145.5t-265 54q-138 0 -263.5 -54t-216.5 -145.5t-144.5 -217.5t-53.5 -265z" />
    <glyph glyph-name="H18533" unicode="&#x25cf;" horiz-adv-x="1744" 
d="M150 725q0 153 59.5 292.5t159.5 240.5t239.5 161t292.5 60t292.5 -60t240.5 -161t161 -240.5t60 -292.5t-60 -292.5t-161 -240t-240.5 -160t-292.5 -59.5t-292.5 59.5t-239.5 160t-159.5 240t-59.5 292.5z" />
    <glyph glyph-name="uni262E" unicode="&#x262e;" horiz-adv-x="1726" 
d="M354 315l496 496v598q-131 -7 -247.5 -63t-200 -147t-132.5 -214.5t-49 -259.5q0 -232 133 -410zM1561 725q0 136 -49.5 259.5t-134 214.5t-202.5 147t-249 63v-598l497 -498q138 185 138 412zM150 725q0 153 58 292.5t156.5 240t235.5 160t289 59.5t290.5 -59.5
t238 -160t158 -240t58.5 -292.5q0 -152 -58.5 -290.5t-158 -239.5t-238 -160.5t-290.5 -59.5q-202 0 -372.5 101t-268.5 273.5t-98 375.5zM926 707v-664q131 6 247.5 61.5t204.5 149.5zM850 707l-451 -449q86 -96 203 -152.5t248 -62.5v664z" />
    <glyph glyph-name="uni2713" unicode="&#x2713;" horiz-adv-x="1845" 
d="M1954 1374l-1305 -1405l-573 641l51 49l526 -581l1250 1345z" />
    <glyph glyph-name="uni2715" unicode="&#x2715;" horiz-adv-x="1769" 
d="M1546 -6l-637 649l-635 -649l-51 51l635 649l-635 652l51 51l635 -649l635 649l53 -51l-636 -652l636 -649z" />
    <glyph glyph-name="uni2780" unicode="&#x2780;" horiz-adv-x="1722" 
d="M217 725q0 -187 89 -344t243.5 -248.5t337.5 -91.5q184 0 339.5 91.5t245 248.5t89.5 344q0 188 -89.5 345.5t-245 249t-339.5 91.5q-183 0 -337.5 -91.5t-243.5 -249t-89 -345.5zM150 725q0 204 98 377t268 274t371 101q152 0 290 -59.5t237.5 -160.5t158.5 -240
t59 -292q0 -203 -99.5 -375.5t-271.5 -273.5t-374 -101q-201 0 -371 101t-268 273.5t-98 375.5zM686 872v66q73 17 119 61t59 101h74v-742h-74v607q-17 -27 -71.5 -58t-106.5 -35z" />
    <glyph glyph-name="uni2781" unicode="&#x2781;" horiz-adv-x="1722" 
d="M217 725q0 -187 89 -344t243.5 -248.5t337.5 -91.5q184 0 339.5 91.5t245 248.5t89.5 344q0 188 -89.5 345.5t-245 249t-339.5 91.5q-183 0 -337.5 -91.5t-243.5 -249t-89 -345.5zM150 725q0 204 98 377t268 274t371 101q152 0 290 -59.5t237.5 -160.5t158.5 -240
t59 -292q0 -203 -99.5 -375.5t-271.5 -273.5t-374 -101q-201 0 -371 101t-268 273.5t-98 375.5zM707 831l-74 11q-4 20 -4 39q0 98 71 163.5t187 65.5q112 0 180 -62.5t68 -154.5q0 -127 -150 -221l-151 -94q-102 -64 -113 -154h426v-66h-518q0 167 153 265l152 94
q127 79 127 176q0 64 -48.5 110t-125.5 46q-81 0 -133 -48.5t-52 -128.5q0 -6 5 -41z" />
    <glyph glyph-name="uni2782" unicode="&#x2782;" horiz-adv-x="1722" 
d="M217 725q0 -187 89 -344t243.5 -248.5t337.5 -91.5q184 0 339.5 91.5t245 248.5t89.5 344q0 188 -89.5 345.5t-245 249t-339.5 91.5q-183 0 -337.5 -91.5t-243.5 -249t-89 -345.5zM150 725q0 204 98 377t268 274t371 101q152 0 290 -59.5t237.5 -160.5t158.5 -240
t59 -292q0 -203 -99.5 -375.5t-271.5 -273.5t-374 -101q-201 0 -371 101t-268 273.5t-98 375.5zM834 729l-37 59l258 244h-428v66h524v-64l-254 -239q16 2 27 2q102 0 172.5 -56t70.5 -161q0 -100 -76 -168t-198 -68q-119 0 -197.5 62.5t-87.5 158.5l70 23q4 -82 67 -131
t146 -49q85 0 143 49t58 123q0 75 -53.5 117t-135.5 42q-36 0 -69 -10z" />
    <glyph glyph-name="uni2783" unicode="&#x2783;" horiz-adv-x="1722" 
d="M217 725q0 -187 89 -344t243.5 -248.5t337.5 -91.5q184 0 339.5 91.5t245 248.5t89.5 344q0 188 -89.5 345.5t-245 249t-339.5 91.5q-183 0 -337.5 -91.5t-243.5 -249t-89 -345.5zM150 725q0 204 98 377t268 274t371 101q152 0 290 -59.5t237.5 -160.5t158.5 -240
t59 -292q0 -203 -99.5 -375.5t-271.5 -273.5t-374 -101q-201 0 -371 101t-268 273.5t-98 375.5zM532 537v77l371 484h98v-496h152v-65h-152v-179h-73v179h-396zM928 602v416l-322 -416h322z" />
    <glyph glyph-name="uni2784" unicode="&#x2784;" horiz-adv-x="1722" 
d="M217 725q0 -187 89 -344t243.5 -248.5t337.5 -91.5q184 0 339.5 91.5t245 248.5t89.5 344q0 188 -89.5 345.5t-245 249t-339.5 91.5q-183 0 -337.5 -91.5t-243.5 -249t-89 -345.5zM150 725q0 204 98 377t268 274t371 101q152 0 290 -59.5t237.5 -160.5t158.5 -240
t59 -292q0 -203 -99.5 -375.5t-271.5 -273.5t-374 -101q-201 0 -371 101t-268 273.5t-98 375.5zM602 557l68 27q8 -75 65 -124.5t139 -49.5q87 0 143 51.5t56 130.5q0 81 -54.5 131.5t-141.5 50.5q-104 0 -179 -78l-67 25l100 377h391v-66h-340l-69 -264q70 70 180 70
q113 0 184.5 -69t71.5 -175t-76 -178t-199 -72q-109 0 -186 63t-86 150z" />
    <glyph glyph-name="uni2785" unicode="&#x2785;" horiz-adv-x="1722" 
d="M217 725q0 -187 89 -344t243.5 -248.5t337.5 -91.5q184 0 339.5 91.5t245 248.5t89.5 344q0 188 -89.5 345.5t-245 249t-339.5 91.5q-183 0 -337.5 -91.5t-243.5 -249t-89 -345.5zM150 725q0 204 98 377t268 274t371 101q152 0 290 -59.5t237.5 -160.5t158.5 -240
t59 -292q0 -203 -99.5 -375.5t-271.5 -273.5t-374 -101q-201 0 -371 101t-268 273.5t-98 375.5zM637 702q19 60 85.5 103t149.5 43q112 0 187.5 -70t75.5 -182q0 -111 -80.5 -181.5t-198.5 -70.5q-131 0 -212 93t-81 253q0 200 109 310t270 110q108 0 172 -39l-20 -61
q-60 34 -150 34q-98 0 -168 -48t-103 -123.5t-36 -170.5zM659 598q0 -81 59.5 -134.5t139.5 -53.5q83 0 142 53t59 135q0 83 -58.5 134.5t-142.5 51.5q-81 0 -140 -52t-59 -134z" />
    <glyph glyph-name="uni2786" unicode="&#x2786;" horiz-adv-x="1722" 
d="M217 725q0 -187 89 -344t243.5 -248.5t337.5 -91.5q184 0 339.5 91.5t245 248.5t89.5 344q0 188 -89.5 345.5t-245 249t-339.5 91.5q-183 0 -337.5 -91.5t-243.5 -249t-89 -345.5zM150 725q0 204 98 377t268 274t371 101q152 0 290 -59.5t237.5 -160.5t158.5 -240
t59 -292q0 -203 -99.5 -375.5t-271.5 -273.5t-374 -101q-201 0 -371 101t-268 273.5t-98 375.5zM1182 1098v-70q-66 -57 -118.5 -118t-102.5 -142.5t-84 -185.5t-48 -224h-77q48 408 342 674h-480v66h568z" />
    <glyph glyph-name="uni2787" unicode="&#x2787;" horiz-adv-x="1722" 
d="M217 725q0 -187 89 -344t243.5 -248.5t337.5 -91.5q184 0 339.5 91.5t245 248.5t89.5 344q0 188 -89.5 345.5t-245 249t-339.5 91.5q-183 0 -337.5 -91.5t-243.5 -249t-89 -345.5zM150 725q0 204 98 377t268 274t371 101q152 0 290 -59.5t237.5 -160.5t158.5 -240
t59 -292q0 -203 -99.5 -375.5t-271.5 -273.5t-374 -101q-201 0 -371 101t-268 273.5t-98 375.5zM887 770q80 0 130 39t50 100q0 63 -49 102.5t-131 39.5q-83 0 -130.5 -39.5t-47.5 -102.5q0 -62 49.5 -100.5t128.5 -38.5zM887 410q91 0 143.5 41.5t52.5 105.5
q0 67 -52 109.5t-144 42.5q-91 0 -144 -43t-53 -109q0 -63 53.5 -105t143.5 -42zM887 344q-125 0 -199 60t-74 149q0 66 44 116.5t116 69.5q-61 18 -100 65t-39 107q0 87 69.5 144t182.5 57t183.5 -57t70.5 -144q0 -60 -40 -107t-102 -65q72 -19 116 -69.5t44 -116.5
q0 -90 -73 -149.5t-199 -59.5z" />
    <glyph glyph-name="uni2788" unicode="&#x2788;" horiz-adv-x="1722" 
d="M217 725q0 -187 89 -344t243.5 -248.5t337.5 -91.5q184 0 339.5 91.5t245 248.5t89.5 344q0 188 -89.5 345.5t-245 249t-339.5 91.5q-183 0 -337.5 -91.5t-243.5 -249t-89 -345.5zM150 725q0 204 98 377t268 274t371 101q152 0 290 -59.5t237.5 -160.5t158.5 -240
t59 -292q0 -203 -99.5 -375.5t-271.5 -273.5t-374 -101q-201 0 -371 101t-268 273.5t-98 375.5zM1120 762q-22 -64 -86.5 -105t-142.5 -41q-110 0 -186 69t-76 179q0 106 80 177t194 71q131 0 211 -92t80 -248q0 -192 -91.5 -310t-273.5 -118q-106 0 -184 47l21 62
q68 -43 161 -43q136 0 214.5 91.5t78.5 260.5zM1098 864q0 81 -58 132t-139 51q-82 0 -139 -51t-57 -132t57 -132.5t139 -51.5t139.5 51.5t57.5 132.5z" />
    <glyph glyph-name="uniE000" unicode="&#xe000;" horiz-adv-x="1341" 
d="M297 1452h1139v-74h-1065v-1073h239l-276 -330l-277 330h240v1147z" />
    <glyph glyph-name="uniE002" unicode="&#xe002;" horiz-adv-x="1953" 
d="M1292 1378l-32 -65q-155 90 -338 90q-137 0 -262.5 -53.5t-216 -144t-144 -216t-53.5 -262.5t53.5 -262.5t144 -216t216 -144t262.5 -53.5q183 0 338.5 90.5t246 246.5t90.5 339h-243l280 369l281 -369h-244q0 -153 -59.5 -291.5t-159.5 -239t-239 -160t-291 -59.5
q-153 0 -291.5 59.5t-239 160t-160 239t-59.5 291.5t59.5 291.5t160 239t239 160t291.5 59.5q193 0 370 -99z" />
    <glyph glyph-name="commaaccent" unicode="&#xf6c3;" horiz-adv-x="307" 
d="M199 1305q0 36 22.5 62t59.5 26q31 0 54 -21t23 -61q0 -52 -22 -96.5t-56 -72t-72.5 -42.5t-74.5 -15l10 52q53 2 96.5 34t53.5 82q-12 -8 -29 -8q-30 0 -47.5 17t-17.5 43z" />
    <glyph glyph-name="uniFB00" unicode="&#xfb00;" horiz-adv-x="1189" 
d="M449 1235l-58 -264h512l60 274q19 89 64 147.5t100.5 81.5t121.5 23q71 0 117 -24l-18 -70q-45 18 -99 18q-168 0 -207 -186l-57 -264h252l-16 -74h-250l-191 -897h-82l191 897h-512l-191 -897h-82l191 897h-205l14 74h205l60 274q19 89 64 147.5t100.5 81.5t121.5 23
q71 0 117 -24l-18 -70q-45 18 -99 18q-167 0 -206 -186z" />
    <glyph glyph-name="fi" unicode="&#xfb01;" horiz-adv-x="1071" 
d="M778 0h-82l191 897h-510l-191 -897h-82l191 897h-205l14 74h205l60 274q19 89 64 147.5t100.5 81.5t121.5 23q71 0 117 -24l-18 -70q-45 18 -99 18q-167 0 -206 -186l-58 -264h594zM952 1386q0 37 26 64t62 27q31 0 50.5 -21t19.5 -53q0 -34 -25 -60t-61 -26
q-31 0 -51.5 19.5t-20.5 49.5z" />
    <glyph glyph-name="fl" unicode="&#xfb02;" horiz-adv-x="1071" 
d="M780 0h-82l191 897h-512l-191 -897h-82l191 897h-205l14 74h205l60 274q19 89 64 147.5t100.5 81.5t121.5 23q71 0 117 -24l-18 -70q-45 18 -99 18q-167 0 -206 -186l-58 -264h512l109 506h82z" />
    <glyph glyph-name="uniFB03" unicode="&#xfb03;" horiz-adv-x="1667" 
d="M1044 1235l-57 -264h594l-207 -971h-82l191 897h-510l-191 -897h-82l191 897h-514l-191 -897h-82l191 897h-205l14 74h205l60 274q19 89 64 147.5t100.5 81.5t121.5 23q71 0 117 -24l-18 -70q-45 18 -99 18q-167 0 -206 -186l-58 -264h514l60 274q19 89 64 147.5
t100.5 81.5t121.5 23q71 0 117 -24l-18 -70q-45 18 -99 18q-168 0 -207 -186zM1548 1386q0 37 26 64t62 27q31 0 50.5 -21t19.5 -53q0 -34 -25 -60t-61 -26q-31 0 -51.5 19.5t-20.5 49.5z" />
    <glyph glyph-name="uniFB04" unicode="&#xfb04;" horiz-adv-x="1665" 
d="M449 1235l-58 -264h512l60 274q19 89 64 147.5t100.5 81.5t121.5 23q71 0 117 -24l-18 -70q-45 18 -99 18q-168 0 -207 -186l-57 -264h512l109 506h82l-314 -1477h-82l191 897h-512l-191 -897h-82l191 897h-512l-191 -897h-82l191 897h-205l14 74h205l60 274
q19 89 64 147.5t100.5 81.5t121.5 23q71 0 117 -24l-18 -70q-45 18 -99 18q-167 0 -206 -186z" />
    <glyph glyph-name="uniFEFF" unicode="&#xfeff;" horiz-adv-x="0" 
 />
    <glyph glyph-name="i.latn_TRK" horiz-adv-x="417" 
d="M125 0h-82l207 971h82zM299 1386q0 37 26 64t62 27q31 0 50.5 -21t19.5 -53q0 -34 -25 -60t-61 -26q-31 0 -51.5 19.5t-20.5 49.5z" />
    <glyph glyph-name="Ldot.latn_CAT" horiz-adv-x="1087" 
d="M926 0h-838l309 1452h88l-292 -1372h749zM614 750q0 36 25 63t61 27q28 0 46 -22t18 -50q0 -34 -24 -59t-58 -25q-29 0 -48.5 19.5t-19.5 46.5z" />
    <glyph glyph-name="ldot.latn_CAT" horiz-adv-x="473" 
d="M125 0h-82l313 1477h82zM371 625q0 36 25 63t61 27q28 0 45.5 -22t17.5 -50q0 -34 -24 -59t-58 -25q-29 0 -48 19.5t-19 46.5z" />
    <glyph glyph-name="zero.numr" horiz-adv-x="772" 
d="M416 571q-128 0 -193 79t-65 208q0 42 7.5 90t23.5 103t44.5 105t65.5 91t92.5 65.5t120.5 24.5q71 0 123.5 -24.5t80.5 -66.5t41 -88.5t13 -100.5q0 -53 -10 -113t-36 -127.5t-64.5 -121t-102 -89t-141.5 -35.5zM694 1053q0 94 -48.5 156.5t-141.5 62.5q-67 0 -121 -41
t-85.5 -105.5t-48 -135t-16.5 -136.5q0 -96 45.5 -156.5t145.5 -60.5q67 0 121 41t85 105t47.5 134t16.5 136z" />
    <glyph glyph-name="one.numr" horiz-adv-x="413" 
d="M166 1120l12 66q76 9 130.5 47t80.5 94h72l-158 -741h-74l129 608q-26 -26 -82.5 -50t-109.5 -24z" />
    <glyph glyph-name="two.numr" horiz-adv-x="696" 
d="M266 1049l-65 2q-4 20 -4 30q0 104 73.5 180t196.5 76q109 0 173.5 -59.5t64.5 -142.5q0 -82 -55.5 -146.5t-145.5 -103.5l-160 -70q-132 -57 -160 -164h461l-14 -65h-541q46 206 215 280l160 72q80 36 123 81t43 111q0 62 -45 104t-123 42q-86 0 -142.5 -59t-56.5 -146
q0 -14 2 -22z" />
    <glyph glyph-name="three.numr" horiz-adv-x="700" 
d="M367 969l-25 63l317 230h-413l12 65h492l-19 -94l-293 -203q92 0 158 -55t66 -148q0 -106 -79.5 -181t-205.5 -75q-117 0 -189.5 65t-72.5 155q0 20 2 30l73 17q-2 -12 -2 -33q0 -76 55.5 -123t137.5 -47q85 0 145 57t60 133q0 70 -51.5 108t-126.5 38q-27 0 -41 -2z" />
    <glyph glyph-name="four.numr" horiz-adv-x="727" 
d="M96 764l17 78l473 485h98l-106 -498h141l-12 -65h-142l-39 -178h-73l39 178h-396zM504 829l90 410l-406 -410h316z" />
    <glyph glyph-name="five.numr" horiz-adv-x="690" 
d="M383 1262l-119 -250q67 53 162 53q107 0 170 -61.5t63 -155.5q0 -115 -82 -196t-206 -81q-117 0 -188.5 66.5t-71.5 155.5q0 12 2 20l73 21q-2 -8 -2 -21q0 -74 52 -125t139 -51q88 0 147.5 58.5t59.5 144.5q0 72 -49 116.5t-132 44.5q-89 0 -168 -59l-59 31l172 354h391
l-14 -65h-340z" />
    <glyph glyph-name="six.numr" horiz-adv-x="735" 
d="M238 961q27 46 94 83t141 37q104 0 168 -63.5t64 -159.5q0 -122 -88.5 -204.5t-208.5 -82.5q-115 0 -184.5 75t-69.5 196q0 119 38.5 216t100 156t135 91t147.5 32q132 0 205 -57l-32 -59q-65 51 -179 51q-126 0 -214 -88.5t-117 -222.5zM449 1018q-80 0 -145.5 -63.5
t-65.5 -147.5q0 -72 49.5 -122t122.5 -50q86 0 152.5 62.5t66.5 154.5q0 75 -50 120.5t-130 45.5z" />
    <glyph glyph-name="seven.numr" horiz-adv-x="655" 
d="M770 1327l-14 -70q-371 -232 -496 -671h-80q121 432 477 676h-467l15 65h565z" />
    <glyph glyph-name="eight.numr" horiz-adv-x="712" 
d="M297 1124q0 -62 52 -96.5t124 -34.5q75 0 124.5 41.5t49.5 108.5q0 57 -45.5 95t-128.5 38q-75 0 -125.5 -43t-50.5 -109zM205 776q1 -66 58 -102.5t134 -36.5q87 0 140 44.5t53 113.5q0 61 -49.5 101t-143.5 40q-88 0 -140 -45t-52 -115zM395 571q-44 0 -88.5 11
t-85.5 32.5t-66.5 61t-25.5 90.5q0 84 56 140.5t147 68.5q-50 20 -79.5 61t-29.5 92q0 90 74.5 149.5t179.5 59.5q113 0 179.5 -54.5t66.5 -135.5q0 -74 -54 -128t-128 -65q57 -24 90 -67.5t33 -98.5q0 -93 -75 -155t-194 -62z" />
    <glyph glyph-name="nine.numr" horiz-adv-x="727" 
d="M645 958q-30 -57 -93 -90.5t-134 -33.5q-98 0 -167 61.5t-69 161.5q0 119 84.5 199.5t202.5 80.5q116 0 187 -75.5t71 -200.5q0 -135 -48.5 -246.5t-139 -177.5t-205.5 -66q-60 0 -115.5 19t-93.5 49l31 59q67 -61 178 -61q118 0 199 83.5t112 237.5zM438 899
q83 0 145 60t62 145q0 69 -52.5 118.5t-127.5 49.5q-83 0 -145 -58t-62 -149q0 -79 51.5 -122.5t128.5 -43.5z" />
    <glyph glyph-name="zero.dnom" horiz-adv-x="774" 
d="M293 -8q-128 0 -193 79t-65 208q0 42 7.5 90t23.5 103t44.5 105t65.5 91t92.5 65.5t120.5 24.5q71 0 123.5 -24.5t80.5 -66.5t41 -89t13 -101q0 -43 -7.5 -92.5t-23 -105t-44 -106t-66 -91.5t-92.5 -65.5t-121 -24.5zM571 473q0 94 -48.5 156.5t-141.5 62.5
q-67 0 -121 -41t-85 -105.5t-47.5 -135t-16.5 -136.5q0 -96 45 -156.5t145 -60.5q67 0 121 41t85 105t47.5 134t16.5 136z" />
    <glyph glyph-name="one.dnom" horiz-adv-x="419" 
d="M45 535l12 65q76 9 130.5 47t80.5 94h72l-158 -741h-73l129 608q-26 -26 -83 -49.5t-110 -23.5z" />
    <glyph glyph-name="two.dnom" horiz-adv-x="702" 
d="M145 463l-65 2q-4 20 -4 31q0 104 73.5 180t196.5 76q109 0 173.5 -60t64.5 -143q0 -82 -55.5 -146.5t-145.5 -103.5l-160 -70q-133 -57 -160 -163h461l-14 -66h-541q46 207 215 281l160 71q79 36 122.5 81.5t43.5 111.5q0 61 -44.5 103t-123.5 42q-86 0 -142.5 -59
t-56.5 -146q0 -14 2 -22z" />
    <glyph glyph-name="three.dnom" horiz-adv-x="704" 
d="M246 385l-25 64l318 229h-414l12 65h492l-19 -94l-293 -203q93 0 158.5 -54.5t65.5 -147.5q0 -106 -79.5 -181t-205.5 -75q-117 0 -189.5 64.5t-72.5 154.5q0 21 2 31l74 16q-2 -12 -2 -33q0 -76 55 -123t137 -47q85 0 145 57.5t60 133.5q0 70 -51.5 107.5t-126.5 37.5
q-27 0 -41 -2z" />
    <glyph glyph-name="four.dnom" horiz-adv-x="729" 
d="M-27 178l17 78l473 485h98l-106 -497h141l-12 -66h-142l-39 -178h-73l39 178h-396zM381 244l90 409l-405 -409h315z" />
    <glyph glyph-name="five.dnom" horiz-adv-x="696" 
d="M262 676l-119 -250q67 53 162 53q107 0 170.5 -61.5t63.5 -155.5q0 -114 -82.5 -195t-206.5 -81q-117 0 -188.5 66t-71.5 155q0 12 2 20l74 21q-3 -12 -3 -21q0 -74 52 -125t139 -51q88 0 147.5 58.5t59.5 144.5q0 72 -48.5 117t-131.5 45q-88 0 -168 -60l-60 31l172 354
h391l-14 -65h-340z" />
    <glyph glyph-name="six.dnom" horiz-adv-x="737" 
d="M115 375q27 46 94 83.5t141 37.5q104 0 168 -64t64 -160q0 -122 -88.5 -204t-208.5 -82q-115 0 -184.5 74.5t-69.5 195.5q0 119 38.5 216t100.5 156.5t135.5 91.5t147.5 32q129 0 204 -58l-32 -59q-65 51 -179 51q-126 0 -214 -88.5t-117 -222.5zM326 432
q-80 0 -145.5 -63.5t-65.5 -147.5q0 -72 49.5 -122t122.5 -50q86 0 152.5 62.5t66.5 154.5q0 75 -50 120.5t-130 45.5z" />
    <glyph glyph-name="seven.dnom" horiz-adv-x="655" 
d="M645 741l-14 -69q-371 -232 -496 -672h-80q121 432 477 676h-466l14 65h565z" />
    <glyph glyph-name="eight.dnom" horiz-adv-x="714" 
d="M174 539q0 -62 52 -96.5t124 -34.5q75 0 124.5 41.5t49.5 107.5q0 57 -45.5 95t-128.5 38q-75 0 -125.5 -42.5t-50.5 -108.5zM82 190q1 -66 58 -102.5t134 -36.5q87 0 140 44.5t53 113.5q0 61 -49.5 101t-143.5 40q-88 0 -140 -45t-52 -115zM272 -14q-45 0 -89 10.5
t-85 32.5t-66.5 61t-25.5 90q0 84 56 140.5t147 68.5q-50 20 -79.5 61.5t-29.5 92.5q0 90 74.5 149.5t179.5 59.5q113 0 179.5 -55t66.5 -136q0 -74 -54 -127.5t-128 -64.5q57 -24 90 -67.5t33 -98.5q0 -93 -75 -155t-194 -62z" />
    <glyph glyph-name="nine.dnom" horiz-adv-x="729" 
d="M520 369q-30 -57 -93 -91t-134 -34q-98 0 -167 61.5t-69 161.5q0 120 84.5 200.5t202.5 80.5q116 0 187 -75.5t71 -201.5q0 -135 -48.5 -246t-139 -177t-205.5 -66q-125 0 -209 67l31 60q68 -62 178 -62q118 0 199 83.5t112 238.5zM313 309q83 0 145 60t62 145
q0 69 -52.5 118.5t-127.5 49.5q-83 0 -145 -58t-62 -149q0 -79 51.5 -122.5t128.5 -43.5z" />
    <glyph glyph-name="space.frac" horiz-adv-x="106" 
 />
    <glyph glyph-name="a.ordn" horiz-adv-x="858" 
d="M457 688q83 0 149.5 54.5t100.5 135t34 166.5q0 104 -57.5 168t-159.5 64q-116 0 -199 -100t-83 -250q0 -105 57.5 -171.5t157.5 -66.5zM743 639h-71q4 54 18 121q-35 -55 -99.5 -96t-148.5 -41q-129 0 -202.5 85t-73.5 216q0 178 106 298.5t254 120.5q63 0 112 -19
t76 -49t41 -57.5t19 -54.5l35 164h74l-125 -586q-6 -31 -15 -102z" />
    <glyph glyph-name="b.ordn" horiz-adv-x="860" 
d="M217 639h-74l224 1044h73l-100 -471q36 52 102.5 91.5t149.5 39.5q121 0 196.5 -81t75.5 -209q0 -179 -106.5 -304.5t-253.5 -125.5q-58 0 -104.5 17t-75.5 45.5t-46.5 60t-23.5 65.5zM573 1278q-83 0 -149.5 -52t-101.5 -131t-35 -165q0 -105 56.5 -173.5t154.5 -68.5
q119 0 203.5 102t84.5 252q0 99 -57.5 167.5t-155.5 68.5z" />
    <glyph glyph-name="c.ordn" horiz-adv-x="792" 
d="M821 1130l-69 -22q-15 79 -72 124.5t-141 45.5q-116 0 -206.5 -98.5t-90.5 -251.5q0 -108 64.5 -174t166.5 -66q84 0 143.5 45t96.5 111l65 -25q-43 -82 -123.5 -139t-185.5 -57q-135 0 -219 85.5t-84 217.5q0 89 32 168t85 133t121 85t139 31q121 0 192.5 -60t85.5 -153
z" />
    <glyph glyph-name="d.ordn" horiz-adv-x="858" 
d="M457 688q83 0 149.5 54.5t100.5 135t34 166.5q0 104 -57.5 168t-159.5 64q-116 0 -199 -100t-83 -250q0 -105 57.5 -171.5t157.5 -66.5zM743 639h-71q4 54 18 121q-35 -55 -99.5 -96t-148.5 -41q-129 0 -202.5 85t-73.5 216q0 178 106 298.5t254 120.5q63 0 112 -19
t76 -49t41 -57.5t19 -54.5l109 520h73l-198 -942q-6 -31 -15 -102z" />
    <glyph glyph-name="e.ordn" horiz-adv-x="788" 
d="M803 1071q0 -46 -8 -94h-553q-2 -18 -2 -53q0 -106 62.5 -171t160.5 -65q145 0 235 150l58 -29q-45 -83 -122.5 -134.5t-172.5 -51.5q-131 0 -213 81.5t-82 219.5q0 181 109.5 300t248.5 119q136 0 207.5 -75.5t71.5 -196.5zM520 1278q-102 0 -170.5 -70t-95.5 -172h473
q2 14 2 41q0 87 -53.5 144t-155.5 57z" />
    <glyph glyph-name="f.ordn" horiz-adv-x="491" 
d="M197 1327h149l31 148q20 95 77 145.5t138 50.5q58 0 98 -24l-12 -64q-34 19 -84 19q-52 0 -93 -34.5t-55 -105.5l-28 -135h196l-14 -65h-197l-129 -623h-75l133 623h-150z" />
    <glyph glyph-name="g.ordn" horiz-adv-x="827" 
d="M453 743q108 0 187 91.5t79 224.5q0 97 -55 158t-152 61q-108 0 -187 -91t-79 -224q0 -97 55 -158.5t152 -61.5zM780 1327h74l-143 -663q-67 -316 -322 -316q-137 0 -215 73t-80 189l74 13q0 -91 57.5 -150t161.5 -59q199 0 252 256l27 129q-31 -51 -88 -85t-136 -34
q-125 0 -197.5 76.5t-72.5 199.5q0 163 100.5 275t239.5 112q107 0 166 -51t70 -118z" />
    <glyph glyph-name="h.ordn" horiz-adv-x="792" 
d="M680 639h-76l88 420q6 30 6 61q0 70 -35.5 115t-115.5 45q-82 0 -152.5 -60t-85.5 -137l-92 -444h-74l219 1044h74l-94 -448q32 45 93 76.5t126 31.5q109 0 162 -60.5t53 -149.5q0 -24 -8 -70z" />
    <glyph glyph-name="i.ordn" horiz-adv-x="339" 
d="M381 1556q-26 0 -40.5 15.5t-14.5 40.5q0 31 19 51t50 20q26 0 41 -15t15 -40q0 -31 -19.5 -51.5t-50.5 -20.5zM217 639h-74l148 688h74z" />
    <glyph glyph-name="j.ordn" horiz-adv-x="339" 
d="M291 1327h74l-170 -795q-18 -84 -72 -130t-125 -46q-52 0 -98 23l12 65q48 -20 80 -20q106 0 131 121zM381 1556q-26 0 -40.5 15.5t-14.5 40.5q0 31 19 51t50 20q26 0 41 -15t15 -40q0 -31 -19.5 -51.5t-50.5 -20.5z" />
    <glyph glyph-name="k.ordn" horiz-adv-x="727" 
d="M217 639h-74l224 1044h73l-151 -706l471 350h117l-381 -280l202 -408h-88l-176 367l-166 -127z" />
    <glyph glyph-name="l.ordn" horiz-adv-x="339" 
d="M217 639h-74l224 1044h73z" />
    <glyph glyph-name="m.ordn" horiz-adv-x="1236" 
d="M283 1327h71q0 -34 -14 -100q29 48 91 82t130 34q81 0 131.5 -40.5t69.5 -104.5q31 61 94.5 103t151.5 42q99 0 156 -56.5t57 -149.5q0 -26 -7 -66l-90 -432h-73l88 430q6 27 6 53q0 67 -41.5 111.5t-120.5 44.5q-80 0 -139 -55.5t-80 -141.5q0 -3 -1 -8.5t-1 -7.5
l-88 -426h-74l88 424q8 40 8 61q0 68 -37.5 112t-111.5 44q-92 0 -157.5 -64t-82.5 -145l-90 -432h-74l127 600q11 60 13 88z" />
    <glyph glyph-name="n.ordn" horiz-adv-x="788" 
d="M340 1227q29 48 91 82t130 34q106 0 159.5 -59t53.5 -145q0 -28 -8 -74l-90 -426h-74l90 424q8 40 8 61q0 68 -37.5 112t-111.5 44q-82 0 -153.5 -59t-88.5 -142l-92 -440h-74l127 600q11 60 13 88h71q0 -34 -14 -100z" />
    <glyph glyph-name="o.ordn" horiz-adv-x="837" 
d="M240 928q0 -105 60 -172.5t167 -67.5q55 0 107.5 24t95 67t68.5 110.5t26 148.5q0 109 -63 174.5t-164 65.5q-55 0 -107.5 -24t-95 -67t-68.5 -110.5t-26 -148.5zM539 1343q133 0 217 -83.5t84 -219.5q0 -92 -32 -171t-84 -132.5t-119 -83.5t-138 -30q-134 0 -217.5 83.5
t-83.5 219.5q0 92 32 171.5t84 132.5t119 83t138 30z" />
    <glyph glyph-name="p.ordn" horiz-adv-x="860" 
d="M291 1327h74l-25 -115q36 52 102.5 91.5t149.5 39.5q121 0 196.5 -80t75.5 -208q0 -179 -106.5 -305.5t-253.5 -126.5q-58 0 -104.5 17t-75 46t-46 60t-24.5 65l-96 -449h-74zM573 1278q-83 0 -149.5 -52t-101.5 -131t-35 -165q0 -105 56.5 -173.5t154.5 -68.5
q118 0 203 102.5t85 253.5q0 99 -57.5 166.5t-155.5 67.5z" />
    <glyph glyph-name="q.ordn" horiz-adv-x="860" 
d="M678 362h-74l84 392q-37 -53 -100.5 -92t-145.5 -39q-129 0 -202.5 85t-73.5 216q0 178 106 298.5t254 120.5q62 0 110 -18t75 -47.5t41.5 -57.5t21.5 -59l37 166h74zM457 688q83 0 149.5 54.5t100.5 135t34 166.5q0 104 -57.5 168t-159.5 64q-116 0 -199 -100t-83 -250
q0 -105 57.5 -171.5t157.5 -66.5z" />
    <glyph glyph-name="r.ordn" horiz-adv-x="512" 
d="M336 1219q80 114 209 114q59 0 86 -12l-17 -78q-39 17 -84 17q-82 0 -144 -57t-85 -163l-82 -401h-74l119 573q14 69 17 115h71q0 -35 -16 -108z" />
    <glyph glyph-name="s.ordn" horiz-adv-x="657" 
d="M131 852l70 16v-16q0 -73 46 -119.5t136 -46.5q70 0 119 39.5t49 101.5q0 40 -27.5 68.5t-72.5 42.5l-109 35q-61 19 -95 59.5t-34 97.5q0 90 71 151.5t173 61.5q60 0 106 -19t71 -50.5t37.5 -66.5t12.5 -72l-70 -17v10q0 65 -41 107.5t-122 42.5q-66 0 -116 -37t-50 -98
q0 -79 92 -107l108 -35q66 -21 103 -63t37 -100q0 -94 -68 -154.5t-180 -60.5q-121 0 -183.5 64t-62.5 147v18z" />
    <glyph glyph-name="t.ordn" horiz-adv-x="493" 
d="M412 1327h190l-14 -65h-189l-90 -416q-6 -27 -6 -49q0 -101 117 -101q30 0 51 6l-12 -63q-24 -8 -62 -8q-78 0 -123 42.5t-45 114.5q0 23 7 58l90 416h-150l14 65h52q97 0 116 84l29 135h70z" />
    <glyph glyph-name="u.ordn" horiz-adv-x="794" 
d="M281 1327h73l-86 -399q-8 -46 -8 -70q0 -74 39.5 -123t126.5 -49q77 0 141 59.5t82 139.5l94 442h74l-117 -547q-18 -88 -18 -141h-66q0 61 9 94q-32 -43 -87 -76.5t-120 -33.5q-119 0 -176.5 65t-57.5 158q0 28 11 78z" />
    <glyph glyph-name="v.ordn" horiz-adv-x="684" 
d="M727 1327h84l-418 -688h-78l-131 688h80l105 -604z" />
    <glyph glyph-name="w.ordn" horiz-adv-x="1126" 
d="M1161 1327h80l-373 -688h-82l-86 600l-338 -600h-83l-84 688h77l64 -598l340 598h78l90 -598z" />
    <glyph glyph-name="x.ordn" horiz-adv-x="686" 
d="M700 1327h97l-326 -338l193 -350h-84l-158 297l-285 -297h-92l340 350l-182 338h80l149 -283z" />
    <glyph glyph-name="y.ordn" horiz-adv-x="696" 
d="M750 1327h81l-671 -965h-86l264 375l-158 590h78l135 -518z" />
    <glyph glyph-name="z.ordn" horiz-adv-x="692" 
d="M631 639h-547l14 66l566 557h-443l15 65h532l-14 -65l-566 -557h457z" />
    <glyph glyph-name="space.tf" 
 />
    <glyph glyph-name="numbersign.tf" 
d="M985 1327l-94 -385h250v-72h-267l-96 -409h232v-72h-250l-90 -389h-78l92 389h-344l-92 -389h-78l92 389h-213v72h232l94 409h-215v72h231l94 385h78l-92 -385h342l92 385h80zM453 870l-97 -409h344l97 409h-344z" />
    <glyph glyph-name="dollar.tf" 
d="M1061 981l-76 -14q0 112 -59.5 195t-175.5 108l-121 -570l80 -34q121 -55 181 -132t60 -184q0 -167 -123 -271t-311 -104q-27 0 -41 2l-43 -206h-70l46 215q-146 28 -229 127t-83 247q0 51 8 95l78 12q-10 -52 -10 -92q0 -123 63 -209t187 -111l127 596l-76 35
q-100 45 -158.5 122t-58.5 181q0 107 59.5 192t150.5 128t193 43q25 0 37 -2l45 209h70l-45 -218q146 -28 219.5 -127t75.5 -233zM676 596l-64 27l-120 -576h28q152 0 250 82.5t98 212.5q0 170 -192 254zM336 997q0 -85 43 -142.5t131 -98.5l55 -27l117 549q-5 0 -15 1
t-14 1q-122 0 -219.5 -80.5t-97.5 -202.5z" />
    <glyph glyph-name="percent.tf" 
d="M403 1280q-93 0 -166 -68.5t-73 -164.5q0 -83 56 -137t138 -54q95 0 167.5 69.5t72.5 168.5q0 78 -56 132t-139 54zM98 1042q0 119 93 212.5t217 93.5q110 0 185 -73.5t75 -178.5q0 -83 -46 -154.5t-118 -111t-150 -39.5q-110 0 -183 72t-73 179zM1100 1038l-21 -88
l-993 -647l18 88zM823 483q-93 0 -166 -68.5t-73 -164.5q0 -83 56 -137t138 -54q95 0 167.5 69.5t72.5 168.5q0 78 -56 132t-139 54zM518 246q0 119 92.5 212t216.5 93q110 0 185 -73.5t75 -178.5q0 -83 -45.5 -154.5t-117.5 -111t-150 -39.5q-110 0 -183 72t-73 180z" />
    <glyph glyph-name="plus.tf" 
d="M131 625h404v438h73v-438h408v-70h-408v-444h-73v444h-404v70z" />
    <glyph glyph-name="comma.tf" 
d="M389 70q0 39 27.5 65.5t64.5 26.5q39 0 62.5 -26t23.5 -70q0 -67 -28.5 -130t-73 -107t-95.5 -73.5t-98 -38.5l13 66q74 18 136 82.5t77 134.5q-9 -6 -33 -6q-33 0 -54.5 21.5t-21.5 54.5z" />
    <glyph glyph-name="period.tf" 
d="M393 66q0 42 26.5 71t67.5 29q32 0 52 -23.5t20 -54.5q0 -40 -27 -68t-65 -28q-33 0 -53.5 22t-20.5 52z" />
    <glyph glyph-name="zero.tf" 
d="M991 850q0 422 -313 422q-94 0 -175.5 -50.5t-138 -133.5t-97.5 -189.5t-60 -218t-19 -219.5q0 -66 10.5 -124.5t35 -111t60.5 -90t90.5 -59t121.5 -21.5q101 0 185.5 57t138.5 145t91.5 197.5t53.5 209.5t16 186zM684 1352q84 0 151 -27.5t111 -74t73 -111.5t41.5 -137
t12.5 -154q0 -108 -21.5 -225t-68 -233.5t-111.5 -208t-162 -149t-210 -57.5q-104 0 -182 41.5t-123 112.5t-67 156t-22 182q0 92 15.5 190.5t46 198.5t79.5 188.5t111 157.5t146.5 109.5t179.5 40.5z" />
    <glyph glyph-name="one.tf" 
d="M131 76h342l227 1069q-46 -68 -161 -132.5t-256 -74.5l16 78q150 13 267 103t171 208h84l-264 -1251h365l-15 -76h-790z" />
    <glyph glyph-name="two.tf" 
d="M139 80h768l-16 -80h-860q31 170 114 284t234 185l305 143q150 69 230.5 161t80.5 220q0 56 -17.5 105.5t-53 90.5t-96 65t-138.5 24q-153 0 -261.5 -103.5t-115.5 -277.5l-77 18q6 180 132.5 308.5t317.5 128.5q97 0 173.5 -30.5t123 -81t70.5 -111t24 -125.5
q0 -67 -18 -126t-48 -105t-76 -87.5t-96 -73t-112 -61.5l-328 -156q-91 -44 -158 -116t-102 -199z" />
    <glyph glyph-name="three.tf" 
d="M502 -25q-198 0 -313 110.5t-115 281.5q0 39 8 75l80 11q-8 -36 -8 -76q0 -145 94 -233.5t250 -88.5q163 0 274 109.5t111 263.5q0 140 -86.5 211.5t-214.5 71.5q-52 0 -105 -15l-39 95l609 458h-748l16 78h842l-20 -102l-598 -451q27 6 57 6q162 0 267.5 -91t105.5 -257
q0 -122 -62.5 -227.5t-170 -167.5t-234.5 -62z" />
    <glyph glyph-name="four.tf" 
d="M623 0l75 358h-690l21 99l845 870h113l-188 -891h260l-17 -78h-260l-75 -358h-84zM887 1235l-776 -799h604z" />
    <glyph glyph-name="five.tf" 
d="M471 1327h649l-16 -78h-588l-233 -504q57 54 137 80.5t160 26.5q186 0 285.5 -101.5t99.5 -261.5q0 -138 -63 -256t-173.5 -188t-241.5 -70q-132 0 -228.5 55.5t-142.5 143t-46 193.5q0 29 8 65l82 10q-8 -36 -8 -65q0 -139 87.5 -230.5t249.5 -91.5q102 0 192 58
t144 156.5t54 209.5q0 299 -324 299q-156 0 -307 -125l-66 52z" />
    <glyph glyph-name="six.tf" 
d="M838 1352q179 0 274 -74l-35 -70q-95 66 -256 66q-124 0 -231.5 -53.5t-185.5 -146.5t-131 -215t-76 -263q48 114 163.5 193t266.5 79q177 0 286 -109.5t109 -281.5q0 -111 -43 -206.5t-112.5 -159.5t-158 -100t-180.5 -36q-194 0 -308 135t-114 347q0 127 29.5 253
t90.5 242t146 205t206 142t260 53zM610 795q-163 0 -286 -118.5t-123 -285.5q0 -146 92 -242t244 -96q73 0 145 30.5t129 83t92 131.5t35 169q0 144 -90 236t-238 92z" />
    <glyph glyph-name="seven.tf" 
d="M1217 1327l-23 -102q-153 -111 -279.5 -232.5t-240.5 -270.5t-203.5 -331t-151.5 -391h-90q236 792 889 1249h-878l16 78h961z" />
    <glyph glyph-name="eight.tf" 
d="M674 1276q-141 0 -241.5 -79t-100.5 -218q0 -111 86 -186.5t229 -75.5q142 0 240 85t98 218q0 126 -89 191t-222 65zM532 647q-157 0 -259.5 -92t-102.5 -225q0 -121 92 -200t254 -79q155 0 258 94t103 228q0 71 -28.5 125t-77.5 85.5t-109.5 47.5t-129.5 16zM88 319
q0 78 31 145.5t82.5 114.5t115 77.5t132.5 41.5q-86 31 -141.5 109t-55.5 172q0 160 123.5 266.5t308.5 106.5q177 0 281 -92.5t104 -231.5q0 -138 -96 -238t-236 -122q96 -29 156.5 -112t60.5 -185q0 -91 -38 -167t-100 -125t-140.5 -76.5t-161.5 -27.5q-191 0 -308.5 94
t-117.5 250z" />
    <glyph glyph-name="nine.tf" 
d="M659 1274q-100 0 -190 -49.5t-147.5 -144t-57.5 -212.5q0 -141 86.5 -229t235.5 -88q101 0 190 48.5t146 141.5t57 211q0 140 -88.5 231t-231.5 91zM401 53q97 0 181.5 32t145.5 86.5t109 123t78 146t47 150.5t21 142q-52 -119 -160.5 -187.5t-238.5 -68.5
q-179 0 -291.5 107.5t-112.5 277.5q0 105 40.5 198t107 156t152 99.5t175.5 36.5q109 0 191.5 -38.5t131 -106.5t72 -154t23.5 -189q0 -130 -24.5 -254.5t-79 -240.5t-132.5 -203t-193.5 -139t-254.5 -52q-108 0 -211 35.5t-166 89.5l39 72q71 -62 164.5 -90.5t185.5 -28.5z
" />
    <glyph glyph-name="colon.tf" 
d="M383 66q0 42 26.5 71t67.5 29q32 0 52 -23.5t20 -54.5q0 -40 -27 -68t-65 -28q-33 0 -53.5 22t-20.5 52zM555 879q0 42 26.5 71t67.5 29q32 0 52 -23.5t20 -54.5q0 -40 -27 -68t-65 -28q-33 0 -53.5 22t-20.5 52z" />
    <glyph glyph-name="semicolon.tf" 
d="M385 70q0 39 27.5 65.5t64.5 26.5q39 0 62.5 -26t23.5 -70q0 -67 -28.5 -130t-73 -107t-95.5 -73.5t-98 -38.5l13 66q74 18 136 82.5t77 134.5q-9 -6 -33 -6q-33 0 -54.5 21.5t-21.5 54.5zM557 879q0 42 26.5 71t67.5 29q32 0 52 -23.5t20 -54.5q0 -40 -27 -68t-65 -28
q-33 0 -53.5 22t-20.5 52z" />
    <glyph glyph-name="less.tf" 
d="M123 551v76l811 426v-82l-741 -381l741 -383v-82z" />
    <glyph glyph-name="equal.tf" 
d="M1014 752h-895v71h895v-71zM1014 356h-895v72h895v-72z" />
    <glyph glyph-name="greater.tf" 
d="M1018 627v-76l-811 -426v82l741 383l-741 381v82z" />
    <glyph glyph-name="cent.tf" 
d="M1042 879l-69 -27q-21 89 -89.5 155.5t-178.5 73.5l-175 -825q14 -2 43 -2q115 0 213 62.5t144 156.5l69 -27q-47 -111 -166 -188.5t-270 -77.5q-33 0 -47 2l-39 -182h-69l41 195q-128 35 -206.5 141t-78.5 260q0 119 41 223.5t109.5 175.5t156 113t180.5 47l37 172h70
l-37 -174q132 -13 216 -92t105 -182zM242 602q0 -124 61 -212.5t162 -119.5l170 809q-74 -9 -143 -45t-125.5 -95t-90.5 -147t-34 -190z" />
    <glyph glyph-name="sterling.tf" 
d="M313 551q0 19 -4 59h-184l14 76h160q-2 9 -12 59.5t-13.5 70.5t-7.5 58t-4 70q0 85 34 161.5t90.5 130t132.5 85t157 31.5q95 0 168.5 -29.5t117.5 -79t66.5 -110.5t22.5 -129q0 -22 -4 -58l-86 -8q4 20 4 61q0 121 -78.5 199t-212.5 78q-135 0 -230.5 -95.5
t-95.5 -236.5q0 -39 5.5 -80t16.5 -97t15 -81h406l-15 -76h-383q4 -36 4 -57q0 -282 -299 -477h518q136 0 223 78t119 217l80 -13q-37 -168 -145.5 -263t-271.5 -95h-654l17 82q147 81 238 205t91 264z" />
    <glyph glyph-name="currency.tf" 
d="M113 449q0 165 106 284l-149 156l53 51l149 -156q126 101 277 101t266 -94l146 149l51 -51l-142 -148q115 -125 115 -292q0 -170 -111 -287l142 -144l-51 -51l-144 144q-120 -99 -272 -99q-163 0 -283 107l-147 -152l-51 51l147 152q-102 114 -102 279zM186 449
q0 -152 106 -258.5t257 -106.5t255.5 106.5t104.5 258.5q0 153 -104.5 258.5t-255.5 105.5t-257 -105.5t-106 -258.5z" />
    <glyph glyph-name="yen.tf" 
d="M473 350h-393l14 68h393l39 182h-393l14 66h355l-262 661h94l248 -655l526 655h100l-540 -661h352l-14 -66h-394l-39 -182h394l-15 -68h-393l-74 -350h-86z" />
    <glyph glyph-name="section.tf" 
d="M727 776q88 -66 134 -126t46 -140q0 -113 -76 -190t-192 -105q162 -119 162 -264q0 -107 -55.5 -189.5t-143 -125t-190.5 -42.5q-165 0 -255.5 91t-90.5 233q0 63 10 86l78 8q-9 -38 -9 -73q0 -123 71 -199t202 -76q123 0 212 72t89 190q0 128 -133 228l-187 137
q-57 44 -92 79t-61.5 86.5t-26.5 106.5q0 80 41.5 145t100.5 100t124 44q-76 55 -116.5 124.5t-40.5 143.5q0 161 112.5 259t270.5 98q154 0 242.5 -89.5t88.5 -228.5q0 -37 -6 -78l-80 -10q7 44 7 74q0 118 -66.5 190t-187.5 72q-74 0 -141 -31.5t-111.5 -94t-44.5 -142.5
q0 -131 129 -224zM694 698l-153 113q-94 -10 -167 -75t-73 -158q0 -110 131 -207l152 -115q87 11 163 80.5t76 159.5q0 58 -33 106t-96 96z" />
    <glyph glyph-name="logicalnot.tf" 
d="M1012 332h-76v420h-797v73h873v-493z" />
    <glyph glyph-name="plusminus.tf" 
d="M115 750h397v309h74v-309h399v-70h-399v-311h-74v311h-397v70zM115 219h870v-69h-870v69z" />
    <glyph glyph-name="multiply.tf" 
d="M944 145l-379 392l-375 -390l-49 50l375 391l-375 391l49 51l377 -391l377 391l49 -49l-379 -393l379 -391z" />
    <glyph glyph-name="divide.tf" 
d="M131 553v74h885v-74h-885zM496 223q0 32 22.5 55t54.5 23t55 -23t23 -55t-23 -55t-55 -23t-54.5 23t-22.5 55zM496 952q0 32 22.5 55t54.5 23t55 -23t23 -55t-23 -55t-55 -23t-54.5 23t-22.5 55z" />
    <glyph glyph-name="florin.tf" 
d="M391 10l176 887h-248v74h263l47 231q28 138 109.5 208.5t193.5 70.5q58 0 117 -19v-76q-1 0 -12.5 3.5t-23 6t-31 5t-38.5 2.5q-87 0 -148 -54t-85 -169l-43 -209h276v-74h-291l-180 -909q-28 -138 -108.5 -208.5t-192.5 -70.5q-62 0 -121 19v75q1 0 13 -3t23.5 -5.5
t32 -5t40.5 -2.5q85 0 147 55t84 168z" />
    <glyph glyph-name="uni2007.tf" 
 />
    <glyph glyph-name="uni2008.tf" 
 />
    <glyph glyph-name="perthousand.tf" 
d="M229 197q0 100 73 178t177 78q65 0 114 -31.5t73 -85.5q34 53 86.5 85t117.5 32q90 0 149.5 -58t59.5 -145q0 -105 -74 -182.5t-178 -77.5q-61 0 -110 32.5t-74 86.5q-33 -54 -88 -86.5t-119 -32.5q-86 0 -146.5 61.5t-60.5 145.5zM104 1087q0 100 73 178t177 78
q90 0 149.5 -57.5t59.5 -144.5q0 -105 -74 -182.5t-178 -77.5q-86 0 -146.5 61t-60.5 145zM352 1286q-75 0 -130.5 -56.5t-55.5 -137.5q0 -63 41 -108.5t108 -45.5q73 0 131 58.5t58 138.5q0 63 -43 107t-109 44zM868 395q-75 0 -130.5 -56.5t-55.5 -137.5q0 -63 41 -108.5
t108 -45.5q73 0 131 58.5t58 138.5q0 63 -43 107t-109 44zM477 395q-75 0 -130.5 -56.5t-55.5 -137.5q0 -63 41 -108.5t108 -45.5q63 0 116.5 45t68.5 111q0 13 4 37v4q0 63 -43 107t-109 44zM1120 1141l-22 -86l-1016 -613l20 86z" />
    <glyph glyph-name="Euro.tf" 
d="M784 514h-489q25 -203 166 -333t348 -130q71 0 139 23v-76q-59 -23 -147 -23q-242 0 -404 154t-186 385h-180l16 72h160q0 98 20 182h-143l16 70h150q78 225 273.5 369.5t439.5 144.5q157 0 254 -58l-35 -63q-93 45 -232 45q-198 0 -370 -120t-246 -318h620l-43 -70h-598
q-22 -90 -22 -178v-4h532z" />
    <glyph glyph-name="minus.tf" 
d="M1001 555h-860v70h860v-70z" />
    <glyph glyph-name="approxequal.tf" 
d="M993 449l47 -41q-51 -70 -111 -104t-141 -34q-75 0 -192 60l-96 51q-85 45 -152 45q-65 0 -112 -26t-89 -81l-49 43q54 71 112 105.5t138 34.5q70 0 187 -60l94 -49q90 -49 168 -49q63 0 108.5 25t87.5 80zM993 844l47 -41q-51 -70 -111 -103.5t-141 -33.5q-77 0 -192 59
l-96 51q-85 45 -152 45q-65 0 -112 -25.5t-89 -80.5l-49 43q54 71 112 105t138 34q72 0 187 -59l94 -50q90 -49 168 -49q63 0 108.5 25t87.5 80z" />
    <glyph glyph-name="notequal.tf" 
d="M1018 356h-576l-186 -235h-86l186 235h-233v72h287l258 324h-545v71h596l182 230h86l-182 -230h213v-71h-264l-258 -324h522v-72z" />
    <glyph glyph-name="lessequal.tf" 
d="M137 219h819v-69h-819v69zM137 676v72l819 303v-78l-723 -262l723 -258v-80z" />
    <glyph glyph-name="greaterequal.tf" 
d="M150 219h819v-69h-819v69zM969 748v-72l-819 -303v80l722 258l-722 262v78z" />
    <glyph glyph-name="parenleft.case" horiz-adv-x="593" 
d="M360 -141l-63 -33q-180 319 -180 616q0 192 42 363t122.5 314t184 261t239.5 226l47 -47q-131 -104 -230.5 -217t-176.5 -250t-117 -301t-40 -349q0 -283 172 -583z" />
    <glyph glyph-name="parenright.case" horiz-adv-x="608" 
d="M264 1563l64 32q90 -140 149.5 -312.5t59.5 -336.5q0 -187 -41 -351.5t-120 -302.5t-181.5 -253t-239.5 -223l-47 47q132 105 230.5 215t174 242t114 289.5t38.5 336.5q0 154 -57 317t-144 300z" />
    <glyph glyph-name="hyphen.case" horiz-adv-x="845" 
d="M696 653h-528l14 74h529z" />
    <glyph glyph-name="bracketleft.case" horiz-adv-x="528" 
d="M291 -94h-268l362 1712h268l-14 -70h-195l-333 -1573h194z" />
    <glyph glyph-name="bracketright.case" horiz-adv-x="528" 
d="M311 1618h269l-363 -1712h-268l14 69h195l334 1573h-195z" />
    <glyph glyph-name="braceleft.case" horiz-adv-x="626" 
d="M111 725l18 78q92 11 155 63.5t83 143.5l71 331q30 137 103.5 206t199.5 69h15l-15 -68h-12q-98 0 -148 -49t-73 -156l-74 -346q-20 -94 -88.5 -158t-165.5 -79q76 -12 116 -58.5t40 -117.5q0 -28 -6 -62l-74 -342q-8 -41 -8 -84q0 -62 34 -91.5t111 -29.5h13l-13 -67
h-14q-199 0 -199 178q0 52 10 98l70 326q6 27 6 55q0 68 -40.5 109.5t-114.5 50.5z" />
    <glyph glyph-name="braceright.case" horiz-adv-x="626" 
d="M590 799l-19 -78q-92 -11 -154.5 -63.5t-82.5 -143.5l-72 -332q-30 -137 -103.5 -205.5t-199.5 -68.5h-14l14 67h12q98 0 148.5 49.5t73.5 155.5l73 346q20 94 89 158.5t165 79.5q-76 12 -115.5 58.5t-39.5 117.5q0 26 6 61l73 342q9 47 9 84q0 62 -34.5 91.5
t-111.5 29.5h-12l12 68h15q198 0 198 -178q0 -53 -10 -99l-70 -325q-6 -27 -6 -56q0 -68 41 -109t115 -50z" />
    <glyph glyph-name="exclamdown.case" horiz-adv-x="454" 
d="M158 0h-107l254 1081h57zM461 1391q0 -40 -25.5 -68.5t-64.5 -28.5q-31 0 -50.5 22.5t-19.5 51.5q0 38 26.5 65t63.5 27q30 0 50 -20.5t20 -48.5z" />
    <glyph glyph-name="guillemotleft.case" horiz-adv-x="931" 
d="M408 299h-74l-193 391l351 391h90l-361 -397zM721 299h-74l-192 391l350 391h90l-360 -397z" />
    <glyph glyph-name="uni00AD.case" horiz-adv-x="845" 
d="M696 653h-528l14 74h529z" />
    <glyph glyph-name="guillemotright.case" horiz-adv-x="933" 
d="M479 299h-90l363 395l-189 387h80l191 -393zM166 299h-88l362 395l-190 387h80l190 -393z" />
    <glyph glyph-name="questiondown.case" horiz-adv-x="974" 
d="M575 1083h72q2 -12 2 -39q0 -120 -50.5 -194.5t-154.5 -136.5l-102 -62q-110 -66 -167.5 -147t-57.5 -187q0 -114 77.5 -190t221.5 -76q107 0 190.5 55.5t125.5 140t42 179.5q0 6 -1 20t-1 21l78 -18q2 -10 2 -31q0 -65 -19.5 -129t-58 -120.5t-91 -100t-124 -68.5
t-151.5 -25q-88 0 -160.5 29t-118.5 76.5t-71 107.5t-25 125q0 243 278 406l105 61q88 51 123.5 116t35.5 159v28zM727 1391q0 -40 -25.5 -68.5t-64.5 -28.5q-31 0 -50.5 22.5t-19.5 51.5q0 38 26.5 65t63.5 27q30 0 50 -20.5t20 -48.5z" />
    <glyph glyph-name="endash.case" horiz-adv-x="1327" 
d="M1178 653h-1010l14 74h1010z" />
    <glyph glyph-name="emdash.case" horiz-adv-x="2152" 
d="M2005 653h-1839l14 74h1839z" />
    <glyph glyph-name="guilsinglleft.case" horiz-adv-x="618" 
d="M408 299h-74l-193 391l351 391h90l-361 -397z" />
    <glyph glyph-name="guilsinglright.case" horiz-adv-x="620" 
d="M166 299h-88l362 395l-190 387h80l190 -393z" />
    <glyph glyph-name="G.ss01" horiz-adv-x="1513" 
d="M731 -25q-113 0 -218.5 41.5t-189.5 118.5t-135 199t-51 270q0 143 32.5 269t89 220t131.5 168.5t161.5 121t176.5 70.5t179 24q224 0 375.5 -122t192.5 -317l-80 -37q-41 182 -171 289t-325 107q-95 0 -188.5 -30t-181.5 -94t-154.5 -154.5t-107 -223t-40.5 -287.5
q0 -108 28.5 -199.5t77.5 -156t114.5 -109.5t140.5 -66.5t155 -21.5q203 0 366 139.5t222 360.5h-555l17 78h637q-20 -137 -82.5 -258.5t-154.5 -209.5t-212 -139t-250 -51z" />
    <glyph glyph-name="Gcircumflex.ss01" horiz-adv-x="1513" 
d="M1229 1554h-70l-164 193l-237 -193h-86l274 244h117zM731 -25q-113 0 -218.5 41.5t-189.5 118.5t-135 199t-51 270q0 143 32.5 269t89 220t131.5 168.5t161.5 121t176.5 70.5t179 24q224 0 375.5 -122t192.5 -317l-80 -37q-41 182 -171 289t-325 107q-95 0 -188.5 -30
t-181.5 -94t-154.5 -154.5t-107 -223t-40.5 -287.5q0 -108 28.5 -199.5t77.5 -156t114.5 -109.5t140.5 -66.5t155 -21.5q203 0 366 139.5t222 360.5h-555l17 78h637q-20 -137 -82.5 -258.5t-154.5 -209.5t-212 -139t-250 -51z" />
    <glyph glyph-name="Gbreve.ss01" horiz-adv-x="1513" 
d="M727 1798h64q-3 -12 -3 -24q0 -70 43.5 -116t129.5 -46q91 0 156 52.5t95 133.5h72q-30 -104 -120 -179t-214 -75q-111 0 -169 61.5t-58 153.5q0 15 4 39zM731 -25q-113 0 -218.5 41.5t-189.5 118.5t-135 199t-51 270q0 143 32.5 269t89 220t131.5 168.5t161.5 121
t176.5 70.5t179 24q224 0 375.5 -122t192.5 -317l-80 -37q-41 182 -171 289t-325 107q-95 0 -188.5 -30t-181.5 -94t-154.5 -154.5t-107 -223t-40.5 -287.5q0 -108 28.5 -199.5t77.5 -156t114.5 -109.5t140.5 -66.5t155 -21.5q203 0 366 139.5t222 360.5h-555l17 78h637
q-20 -137 -82.5 -258.5t-154.5 -209.5t-212 -139t-250 -51z" />
    <glyph glyph-name="Gdotaccent.ss01" horiz-adv-x="1513" 
d="M915 1665q0 36 25 63t61 27q28 0 46 -22t18 -50q0 -34 -24 -59t-58 -25q-29 0 -48.5 19.5t-19.5 46.5zM731 -25q-113 0 -218.5 41.5t-189.5 118.5t-135 199t-51 270q0 143 32.5 269t89 220t131.5 168.5t161.5 121t176.5 70.5t179 24q224 0 375.5 -122t192.5 -317l-80 -37
q-41 182 -171 289t-325 107q-95 0 -188.5 -30t-181.5 -94t-154.5 -154.5t-107 -223t-40.5 -287.5q0 -108 28.5 -199.5t77.5 -156t114.5 -109.5t140.5 -66.5t155 -21.5q203 0 366 139.5t222 360.5h-555l17 78h637q-20 -137 -82.5 -258.5t-154.5 -209.5t-212 -139t-250 -51z
" />
    <glyph glyph-name="Gcommaaccent.ss01" horiz-adv-x="1513" 
d="M602 -182q0 34 24 61t58 27q33 0 56.5 -21.5t23.5 -62.5q0 -103 -72.5 -164t-152.5 -61l10 51q52 2 94.5 34t54.5 82q-12 -8 -30 -8q-30 0 -48 18t-18 44zM731 -25q-113 0 -218.5 41.5t-189.5 118.5t-135 199t-51 270q0 143 32.5 269t89 220t131.5 168.5t161.5 121
t176.5 70.5t179 24q224 0 375.5 -122t192.5 -317l-80 -37q-41 182 -171 289t-325 107q-95 0 -188.5 -30t-181.5 -94t-154.5 -154.5t-107 -223t-40.5 -287.5q0 -108 28.5 -199.5t77.5 -156t114.5 -109.5t140.5 -66.5t155 -21.5q203 0 366 139.5t222 360.5h-555l17 78h637
q-20 -137 -82.5 -258.5t-154.5 -209.5t-212 -139t-250 -51z" />
    <glyph glyph-name="r.ss03" horiz-adv-x="456" 
d="M125 0h-82l207 971h82l-10 -41q17 45 69 45q25 0 42.5 -18t17.5 -44q0 -29 -20.5 -49t-49.5 -20q-27 0 -44.5 18t-17.5 45v6z" />
    <glyph glyph-name="racute.ss03" horiz-adv-x="456" 
d="M403 1094h-75l264 276h129zM125 0h-82l207 971h82l-10 -41q17 45 69 45q25 0 42.5 -18t17.5 -44q0 -29 -20.5 -49t-49.5 -20q-27 0 -44.5 18t-17.5 45v6z" />
    <glyph glyph-name="rcommaaccent.ss03" horiz-adv-x="456" 
d="M125 0h-82l207 971h82l-10 -41q17 45 69 45q25 0 42.5 -18t17.5 -44q0 -29 -20.5 -49t-49.5 -20q-27 0 -44.5 18t-17.5 45v6zM-29 -182q0 34 24 61t58 27q33 0 56.5 -21.5t23.5 -62.5q0 -103 -72.5 -164t-152.5 -61l10 51q52 2 95 34t55 82q-12 -8 -31 -8q-30 0 -48 18
t-18 44z" />
    <glyph glyph-name="rcaron.ss03" horiz-adv-x="456" 
d="M125 0h-82l207 971h82l-10 -41q17 45 69 45q25 0 42.5 -18t17.5 -44q0 -29 -20.5 -49t-49.5 -20q-27 0 -44.5 18t-17.5 45v6zM203 1370l168 -225l260 225h78l-291 -276h-113l-166 276h64z" />
    <glyph glyph-name="ampersand.ss04" horiz-adv-x="1290" 
d="M1077 1079l-80 -12q4 16 4 39q0 135 -75.5 216t-223.5 81q-137 0 -234 -93t-97 -225q0 -93 64 -166t181 -92l-16 -73q-187 0 -314.5 -108t-127.5 -281q0 -136 94.5 -226t259.5 -90q66 0 125.5 14.5t117.5 49.5t102.5 88.5t76.5 137.5t43 191h-232l17 78h467l-17 -78h-155
q-12 -120 -49.5 -215.5t-90 -158t-120.5 -104.5t-138.5 -59.5t-146.5 -17.5q-202 0 -319 109.5t-117 277.5q0 160 112.5 286.5t290.5 158.5q-92 35 -141 112t-49 162q0 109 57.5 200.5t154 143.5t208.5 52q185 0 278.5 -99t93.5 -262q0 -21 -4 -37z" />
    <glyph glyph-name="one.ss05" horiz-adv-x="954" 
d="M35 76h342l227 1069q-46 -68 -161.5 -132.5t-256.5 -74.5l17 78q150 13 267 103t171 208h84l-264 -1251h364l-14 -76h-791z" />
    <glyph glyph-name="registered.ss06" horiz-adv-x="1015" 
d="M651 1249h-80l-34 -168h86q44 0 76 29.5t32 65.5q0 33 -22 53t-58 20zM530 1294h134q53 0 85.5 -32t32.5 -80q0 -50 -36 -91.5t-91 -50.5l60 -161h-58l-57 157h-74l-32 -157h-52zM221 1081q0 162 112 275.5t273 113.5t274 -114t113 -275t-113 -275t-274 -114t-273 113.5
t-112 275.5zM608 743q138 0 235 99t97 239t-97 239t-235 99q-139 0 -236.5 -99t-97.5 -239t97.5 -239t236.5 -99z" />
    <glyph glyph-name="quotedbl.ss08" horiz-adv-x="598" 
d="M293 1040h-31l21 330q7 94 75 94q27 0 42.5 -16t15.5 -43q0 -29 -31 -115zM518 1040h-31l21 330q7 94 76 94q27 0 42 -16t15 -43q0 -29 -31 -115z" />
    <glyph glyph-name="numbersign.ss08" horiz-adv-x="1447" 
d="M795 0l88 451h-387l-88 -451h-76l88 451h-322v69h334l82 414h-315v70h327l90 448h76l-88 -448h385l90 448h76l-88 -448h338v-70h-352l-80 -414h332v-69h-347l-88 -451h-75zM590 934l-80 -414h385l82 414h-387z" />
    <glyph glyph-name="dollar.ss08" horiz-adv-x="1122" 
d="M1092 1063l-78 -16q0 116 -62.5 203.5t-183.5 115.5l-129 -602l80 -35q128 -60 192 -140t64 -192q0 -176 -130.5 -286.5t-328.5 -110.5h-37l-49 -229h-70l50 237q-156 28 -247 133.5t-91 264.5q0 42 10 100l80 14q-10 -55 -10 -96q0 -131 70.5 -223.5t203.5 -116.5
l133 627l-90 41q-227 100 -227 319q0 113 63 202t159.5 134t203.5 45q8 0 24 -1t23 -1l45 209h69l-47 -219q102 -20 173 -77.5t103 -133t34 -166.5zM684 655l-61 27l-129 -606h26q159 0 265 87.5t106 223.5q0 88 -48.5 153t-158.5 115zM326 1083q0 -92 45 -154t139 -104
l65 -30l125 581q-12 2 -38 2q-130 0 -233 -83t-103 -212z" />
    <glyph glyph-name="percent.ss08" horiz-adv-x="1705" 
d="M313 0h-94l1231 1452h94zM535 1466q121 0 199.5 -79t78.5 -195q0 -137 -98.5 -240.5t-241.5 -103.5q-121 0 -199.5 79t-78.5 195q0 137 98.5 240.5t241.5 103.5zM479 915q106 0 182 82t76 191q0 91 -58 151t-151 60q-106 0 -182 -82t-76 -191q0 -91 58 -151t151 -60z
M1290 604q121 0 200 -79t79 -195q0 -137 -98.5 -240.5t-241.5 -103.5q-121 0 -200 79t-79 195q0 137 98.5 240.5t241.5 103.5zM1235 53q106 0 182 82t76 191q0 91 -58 151t-151 60q-106 0 -182 -82t-76 -191q0 -91 58 -151t151 -60z" />
    <glyph glyph-name="quotesingle.ss08" horiz-adv-x="372" 
d="M293 1040h-31l21 330q7 94 75 94q27 0 42.5 -16t15.5 -43q0 -29 -31 -115z" />
    <glyph glyph-name="plus.ss08" horiz-adv-x="1091" 
d="M129 750h403v438h74v-438h408v-70h-408v-444h-74v444h-403v70z" />
    <glyph glyph-name="zero.ss08" horiz-adv-x="1282" 
d="M565 -25q-98 0 -174 30t-124 80t-79.5 120.5t-44 145t-12.5 159.5q0 86 13 179t40 187.5t65.5 182t92.5 163.5t118 133t144.5 89.5t169.5 32.5q98 0 174 -30t124 -80t79.5 -120.5t44 -145t12.5 -159.5q0 -86 -13 -179t-40 -187.5t-65.5 -182t-92.5 -163.5t-118 -133
t-144.5 -89.5t-169.5 -32.5zM768 1399q-103 0 -194 -55.5t-155 -147.5t-110.5 -209t-69 -242t-22.5 -245q0 -95 19 -172.5t59 -140t110.5 -97.5t165.5 -35q103 0 193.5 55.5t154.5 147t111 208t69.5 241.5t22.5 245q0 75 -11.5 139.5t-38 122t-66.5 98t-100.5 64
t-137.5 23.5z" />
    <glyph glyph-name="one.ss08" horiz-adv-x="657" 
d="M367 0h-84l266 1268q-50 -78 -159.5 -140t-233.5 -71l14 76q142 14 248.5 103.5t163.5 215.5h92z" />
    <glyph glyph-name="two.ss08" horiz-adv-x="1132" 
d="M111 80h807l-17 -80h-897q21 159 116 292t251 214l329 170q324 165 324 432q0 128 -81 210.5t-232 82.5q-166 0 -282.5 -113.5t-119.5 -302.5l-84 19q2 129 67 237.5t177.5 172t247.5 63.5q95 0 171.5 -29.5t124.5 -80t73.5 -116t25.5 -139.5q0 -312 -367 -498l-350 -180
q-104 -53 -182.5 -150.5t-101.5 -203.5z" />
    <glyph glyph-name="three.ss08" horiz-adv-x="1191" 
d="M479 848l660 526h-801l18 78h912l-17 -80l-653 -522h27q78 0 148.5 -24t126 -69.5t88 -118t32.5 -161.5q0 -141 -70 -256.5t-189 -180.5t-261 -65q-206 0 -329.5 119t-123.5 305q0 41 8 68l86 12q-10 -38 -10 -82q0 -154 107.5 -249t263.5 -95q113 0 211 51.5t159.5 150
t61.5 222.5q0 139 -94 222t-254 83q-42 0 -82 -8z" />
    <glyph glyph-name="four.ss08" horiz-adv-x="1167" 
d="M717 0h-84l78 375h-693l25 98l852 979h129l-213 -1003h264l-16 -74h-264zM924 1370l-799 -921h602z" />
    <glyph glyph-name="five.ss08" horiz-adv-x="1163" 
d="M547 1374l-262 -563q61 60 147.5 89.5t175.5 29.5q192 0 302 -116t110 -302q0 -147 -70.5 -270.5t-192.5 -195t-268 -71.5q-133 0 -234 59t-152.5 154t-51.5 209q0 38 2 58l84 16q-2 -14 -2 -45q0 -163 95 -268t270 -105q114 0 214 58.5t160 162t60 226.5q0 162 -91 257
t-259 95q-179 0 -330 -133l-74 41l322 692h676v-78h-631z" />
    <glyph glyph-name="six.ss08" horiz-adv-x="1236" 
d="M891 1382q-134 0 -253 -63t-204 -168.5t-142.5 -239t-80.5 -280.5q44 129 168.5 222t302.5 93q184 0 299 -112t115 -299q0 -121 -45.5 -227t-119.5 -178t-169 -113.5t-195 -41.5q-211 0 -328.5 135t-117.5 365q0 138 32 276.5t98.5 266t158.5 226t221.5 157.5t277.5 59
q114 0 202.5 -31.5t143.5 -82.5l-45 -70q-45 45 -126 75.5t-193 30.5zM662 870q-112 0 -214.5 -57.5t-168.5 -162.5t-66 -230q0 -161 97 -264t257 -103q82 0 161 33.5t140.5 92.5t99.5 147.5t38 191.5q0 161 -92 256.5t-252 95.5z" />
    <glyph glyph-name="seven.ss08" horiz-adv-x="1058" 
d="M1210 1452l-20 -90q-334 -264 -568.5 -590t-381.5 -772h-93q271 840 949 1374h-889l16 78h987z" />
    <glyph glyph-name="eight.ss08" horiz-adv-x="1198" 
d="M1024 399q-3 -182 -139 -303t-344 -121q-113 0 -203 31.5t-145.5 85t-84 120.5t-28.5 142q0 160 112 272.5t267 137.5q-93 39 -143 120t-50 187q0 172 134.5 289t326.5 117q198 0 313 -103t115 -258q0 -145 -103 -255t-241 -136q102 -42 157.5 -125t55.5 -201zM545 51
q172 0 285.5 103t113.5 252q0 132 -98 218.5t-283 86.5q-181 0 -288 -101.5t-107 -257.5q0 -76 33 -135.5t88 -94.5t120 -53t136 -18zM696 776q157 0 266 96t109 244q0 123 -94 204t-260 81q-159 0 -265 -96t-106 -242q0 -72 30 -129t81 -90.5t111.5 -50.5t127.5 -17z" />
    <glyph glyph-name="nine.ss08" horiz-adv-x="1228" 
d="M717 1399q-77 0 -153 -32t-137 -88.5t-99.5 -141.5t-38.5 -183q0 -167 96.5 -262.5t253.5 -95.5q81 0 158.5 34t137.5 92t97 142.5t37 179.5q0 154 -98.5 254.5t-253.5 100.5zM723 1477q206 0 323 -133.5t117 -364.5q0 -106 -19.5 -217.5t-57.5 -223t-100 -210
t-140.5 -175t-186 -121t-229.5 -44.5q-118 0 -223.5 40t-163.5 107l45 70q137 -137 350 -137q105 0 195 37t158 102t122 158.5t90.5 201.5t59.5 236q-54 -129 -171 -206t-261 -77q-183 0 -304.5 115.5t-121.5 300.5q0 126 45.5 230.5t119.5 171t165.5 103t187.5 36.5z" />
    <glyph glyph-name="less.ss08" horiz-adv-x="1103" 
d="M115 676v76l811 426v-82l-742 -381l742 -383v-82z" />
    <glyph glyph-name="equal.ss08" horiz-adv-x="1323" 
d="M1122 877h-895v71h895v-71zM1122 481h-895v72h895v-72z" />
    <glyph glyph-name="greater.ss08" horiz-adv-x="1103" 
d="M1042 752v-76l-811 -426v82l742 383l-742 381v82z" />
    <glyph glyph-name="cent.ss08" horiz-adv-x="1099" 
d="M920 492l63 -35q-63 -135 -178 -215t-260 -80q-29 0 -43 2l-35 -164h-72l37 174q-141 35 -223 149t-82 271q0 123 43 232.5t114.5 185.5t165 121.5t193.5 48.5l31 145h71l-30 -149q136 -16 217.5 -97.5t105.5 -195.5l-73 -29q-22 102 -91.5 168.5t-175.5 79.5l-182 -868
h37q120 0 215 70.5t152 185.5zM211 596q0 -131 63 -223t172 -123l181 858q-79 -5 -153.5 -44t-133 -104t-94 -160t-35.5 -204z" />
    <glyph glyph-name="sterling.ss08" horiz-adv-x="1269" 
d="M365 602q0 12 -5 70h-202l14 76h178q-3 21 -14.5 85.5t-17 109.5t-5.5 89q0 127 60.5 229.5t162.5 159t222 56.5q104 0 184 -32t127.5 -86.5t71.5 -121t24 -141.5q0 -41 -6 -62l-86 -10q6 34 6 68q0 137 -85 223t-236 86q-152 0 -255.5 -104.5t-103.5 -264.5
q0 -43 5.5 -88.5t16.5 -106t15 -89.5h449l-15 -76h-426q5 -58 5 -68q0 -314 -322 -526h565q149 0 246.5 87t132.5 238l80 -12q-41 -186 -156 -288.5t-297 -102.5h-714l18 90q161 89 262 224.5t101 287.5z" />
    <glyph glyph-name="currency.ss08" horiz-adv-x="1288" 
d="M188 713q0 164 107 284l-150 156l54 51l149 -155q125 100 277 100q151 0 266 -94l145 149l51 -51l-141 -147q115 -125 115 -293q0 -170 -111 -287l142 -143l-52 -52l-143 144q-120 -99 -272 -99q-163 0 -283 107l-147 -152l-52 52l148 151q-103 115 -103 279zM262 713
q0 -152 106 -258.5t257 -106.5t255.5 106.5t104.5 258.5q0 153 -104.5 258.5t-255.5 105.5t-257 -105.5t-106 -258.5z" />
    <glyph glyph-name="yen.ss08" horiz-adv-x="1208" 
d="M1001 383h-401l-82 -383h-86l82 383h-385l16 76h385l41 182h-393l17 76h348l-287 735h92l279 -735h4l561 735h102l-573 -735h346l-16 -76h-396l-39 -182h402z" />
    <glyph glyph-name="ordfeminine.ss08" horiz-adv-x="905" 
d="M498 813q83 0 149.5 54.5t100.5 135t34 166.5q0 104 -57.5 168t-159.5 64q-116 0 -199 -100t-83 -250q0 -105 57.5 -171.5t157.5 -66.5zM784 764h-71q4 54 18 121q-35 -55 -99.5 -96t-148.5 -41q-129 0 -202.5 85t-73.5 216q0 178 106 298.5t254 120.5q63 0 112 -19
t76 -49t41 -57.5t19 -54.5l35 164h74l-125 -586q-6 -31 -15 -102z" />
    <glyph glyph-name="logicalnot.ss08" horiz-adv-x="1224" 
d="M1055 457h-76v420h-797v73h873v-493z" />
    <glyph glyph-name="degree.ss08" horiz-adv-x="827" 
d="M535 1473q120 0 199 -79t79 -196q0 -137 -98.5 -240.5t-241.5 -103.5q-121 0 -199.5 79t-78.5 195q0 137 98.5 241t241.5 104zM479 922q106 0 182 81.5t76 190.5q0 91 -58 151t-151 60q-106 0 -182 -81.5t-76 -190.5q0 -91 58 -151t151 -60z" />
    <glyph glyph-name="plusminus.ss08" horiz-adv-x="1290" 
d="M209 874h397v310h74v-310h399v-69h-399v-311h-74v311h-397v69zM209 344h870v-70h-870v70z" />
    <glyph glyph-name="ordmasculine.ss08" horiz-adv-x="876" 
d="M281 1053q0 -105 60 -172.5t167 -67.5q55 0 107.5 24t95 67t68.5 110.5t26 148.5q0 109 -63 174.5t-164 65.5q-55 0 -107.5 -24t-95 -67t-68.5 -110.5t-26 -148.5zM580 1468q133 0 217 -83.5t84 -219.5q0 -92 -32 -171t-84 -132.5t-119 -83.5t-138 -30
q-134 0 -217.5 83.5t-83.5 219.5q0 92 32 171.5t84 132.5t119 83t138 30z" />
    <glyph glyph-name="onequarter.ss08" horiz-adv-x="1546" 
d="M160 0h-94l1230 1452h95zM776 178l17 78l473 485h98l-107 -497h142l-13 -66h-141l-39 -178h-73l38 178h-395zM1184 244l90 409l-406 -409h316zM221 1245l12 66q76 9 130.5 47t80.5 94h72l-158 -741h-73l129 608q-26 -26 -83 -50t-110 -24z" />
    <glyph glyph-name="onehalf.ss08" horiz-adv-x="1619" 
d="M158 0h-95l1231 1452h95zM1057 463l-66 2q-4 20 -4 31q0 104 73.5 180t196.5 76q109 0 173.5 -60t64.5 -143q0 -82 -55.5 -146.5t-145.5 -103.5l-159 -70q-133 -57 -160 -163h461l-15 -66h-540q46 207 215 281l159 71q79 36 122.5 81.5t43.5 111.5q0 61 -44.5 103
t-123.5 42q-86 0 -142 -59t-56 -146q0 -14 2 -22zM219 1245l12 66q76 9 130.5 47t80.5 94h72l-158 -741h-73l129 608q-26 -26 -83 -50t-110 -24z" />
    </font>
</defs>
</svg>
