<?xml version="1.0" standalone="no"?>
<!DOCTYPE svg PUBLIC "-//W3C//DTD SVG 1.1//EN" "http://www.w3.org/Graphics/SVG/1.1/DTD/svg11.dtd" >
<svg xmlns="http://www.w3.org/2000/svg" xmlns:xlink="http://www.w3.org/1999/xlink" version="1.1">
<metadata>
Created by FontForge 20170731 at Wed Oct 13 17:31:48 2021
 By Aleksey,,,
(c) 2019, Copyright by Lineto. All rights reserved.
</metadata>
<defs>
<font id="CircularXX-Regular" horiz-adv-x="1165" >
  <font-face 
    font-family="CircularXX"
    font-weight="400"
    font-stretch="normal"
    units-per-em="2048"
    panose-1="2 1 5 4 1 1 1 1 1 4"
    ascent="1536"
    descent="-512"
    x-height="981"
    cap-height="1452"
    bbox="-408 -481 3076 2085"
    underline-thickness="102"
    underline-position="-307"
    unicode-range="U+000D-FEFF"
  />
<missing-glyph horiz-adv-x="524" 
 />
    <glyph glyph-name="f_f" unicode="ff" horiz-adv-x="1331" 
d="M1290 834h-254v-834h-164v834h-475v-834h-164v834h-192v147h192v182q0 156 87 242t223 86q75 0 112 -21v-141q-33 14 -88 14q-70 0 -120 -43.5t-50 -140.5v-178h475v182q0 156 87 242t223 86q75 0 112 -21v-141q-33 14 -88 14q-70 0 -120 -43.5t-50 -140.5v-178h254v-147
z" />
    <glyph glyph-name="f_f_i" unicode="ffi" horiz-adv-x="1835" 
d="M1036 834v-834h-164v834h-475v-834h-164v834h-192v147h192v182q0 156 87 242t223 86q75 0 112 -21v-141q-33 14 -88 14q-70 0 -120 -43.5t-50 -140.5v-178h475v182q0 156 87 242t223 86q75 0 112 -21v-141q-33 14 -88 14q-70 0 -120 -43.5t-50 -140.5v-178h639v-981h-164
v834h-475zM1470 1368q0 51 36 87t87 36t87 -36t36 -87t-36 -87t-87 -36t-87 36t-36 87z" />
    <glyph glyph-name="f_f_l" unicode="ffl" horiz-adv-x="1835" 
d="M1036 834v-834h-164v834h-475v-834h-164v834h-192v147h192v182q0 156 87 242t223 86q75 0 112 -21v-141q-33 14 -88 14q-70 0 -120 -43.5t-50 -140.5v-178h475v182q0 156 87 242t223 86q75 0 112 -21v-141q-33 14 -88 14q-70 0 -120 -43.5t-50 -140.5v-178h475v500h164
v-1481h-164v834h-475z" />
    <glyph glyph-name="f_i" unicode="fi" horiz-adv-x="1196" 
d="M1036 0h-164v834h-475v-834h-164v834h-192v147h192v182q0 156 87 242t223 86q75 0 112 -21v-141q-33 14 -88 14q-70 0 -120 -43.5t-50 -140.5v-178h639v-981zM831 1368q0 51 36 87t87 36t87 -36t36 -87t-36 -87t-87 -36t-87 36t-36 87z" />
    <glyph glyph-name="f_l" unicode="fl" horiz-adv-x="1196" 
d="M1036 0h-164v834h-475v-834h-164v834h-192v147h192v182q0 156 87 242t223 86q75 0 112 -21v-141q-33 14 -88 14q-70 0 -120 -43.5t-50 -140.5v-178h475v500h164v-1481z" />
    <glyph glyph-name=".notdef" horiz-adv-x="524" 
 />
    <glyph glyph-name=".null" horiz-adv-x="0" 
 />
    <glyph glyph-name=".null" horiz-adv-x="0" 
 />
    <glyph glyph-name="uni000D" unicode="&#xd;" horiz-adv-x="522" 
 />
    <glyph glyph-name="space" unicode=" " horiz-adv-x="522" 
 />
    <glyph glyph-name="exclam" unicode="!" horiz-adv-x="495" 
d="M350 1452l-45 -1049h-115l-45 1049h205zM127 113q0 51 36 85.5t87 34.5q50 0 85.5 -34.5t35.5 -85.5q0 -52 -35.5 -87.5t-85.5 -35.5q-51 0 -87 35.5t-36 87.5z" />
    <glyph glyph-name="quotedbl" unicode="&#x22;" horiz-adv-x="768" 
d="M252 827h-57l-72 340q-8 41 -8 64q0 51 30 81.5t78 30.5t78.5 -31t30.5 -81q0 -23 -8 -64zM573 827h-57l-72 340q-8 41 -8 64q0 50 30.5 81t78.5 31t78 -30.5t30 -81.5q0 -23 -8 -64z" />
    <glyph glyph-name="numbersign" unicode="#" horiz-adv-x="1458" 
d="M176 846v135h307l74 346h145l-73 -346h317l74 346h145l-73 -346h290v-135h-319l-74 -348h293v-136h-321l-80 -362h-146l78 362h-315l-80 -362h-146l78 362h-274v136h303l76 348h-279zM600 846l-74 -348h316l76 348h-318z" />
    <glyph glyph-name="dollar" unicode="$" horiz-adv-x="1126" 
d="M647 -238h-143v213q-99 9 -180 47t-133.5 94.5t-83.5 123t-39 137.5l163 51q10 -113 80.5 -198t192.5 -103v471l-58 14q-152 39 -238.5 129t-86.5 232q0 146 108.5 253t274.5 126v215h143v-215q88 -10 157 -43t113 -81t70.5 -99t40.5 -109l-156 -55q-13 80 -70.5 146.5
t-154.5 86.5v-457l41 -10q163 -40 257.5 -138.5t94.5 -236.5q0 -146 -105.5 -254.5t-287.5 -126.5v-213zM870 346q0 78 -53 135.5t-155 83.5l-15 4v-444q109 17 166 76.5t57 144.5zM293 981q0 -158 194 -207l17 -4v432q-96 -15 -153.5 -75t-57.5 -146z" />
    <glyph glyph-name="percent" unicode="%" horiz-adv-x="1589" 
d="M211 1028q0 -78 51 -130t125 -52q76 0 127 52t51 130t-51 130t-127 52q-74 0 -125 -52t-51 -130zM68 1028q0 133 94 226.5t225 93.5q133 0 228.5 -93.5t95.5 -226.5t-95.5 -226t-228.5 -93q-131 0 -225 93t-94 226zM1022 309q0 -78 51 -130t125 -52q76 0 127 52t51 130
t-51 130.5t-127 52.5q-74 0 -125 -52.5t-51 -130.5zM879 309q0 133 94 226.5t225 93.5q133 0 228.5 -93.5t95.5 -226.5t-95.5 -226t-228.5 -93q-131 0 -225 93t-94 226zM393 0h-162l961 1327h158z" />
    <glyph glyph-name="ampersand" unicode="&#x26;" horiz-adv-x="1388" 
d="M1126 0l-198 205q-100 -114 -198.5 -174t-213.5 -60q-96 0 -175.5 31.5t-130 84.5t-77.5 118.5t-27 136.5q0 67 17.5 123.5t53.5 105.5t78 88t105 86l29 21l-43 45q-35 37 -56.5 63t-51.5 69t-45 89t-15 94q0 106 54 189t137 124.5t178 41.5q163 0 268 -95t105 -249
q0 -67 -32 -130t-73 -104.5t-100 -85.5l-88 -63l301 -312l313 363v-238l-205 -237l320 -330h-230zM518 131q80 0 150 45.5t141 126.5l12 14l-325 338l-72 -55q-145 -107 -145 -244q0 -90 66 -157.5t173 -67.5zM350 1137q0 -100 113 -213l57 -62l109 82q119 85 119 197
q0 81 -56.5 136.5t-144.5 55.5q-79 0 -138 -54.5t-59 -141.5z" />
    <glyph glyph-name="quotesingle" unicode="'" horiz-adv-x="446" 
d="M252 827h-57l-72 340q-8 41 -8 64q0 51 30 81.5t78 30.5t78.5 -31t30.5 -81q0 -23 -8 -64z" />
    <glyph glyph-name="parenleft" unicode="(" horiz-adv-x="616" 
d="M98 649q0 574 385 973l101 -88q-342 -381 -342 -885t342 -885l-101 -88q-385 396 -385 973z" />
    <glyph glyph-name="parenright" unicode=")" horiz-adv-x="616" 
d="M518 649q0 -577 -385 -973l-100 88q342 381 342 885t-342 885l100 88q385 -399 385 -973z" />
    <glyph glyph-name="asterisk" unicode="*" horiz-adv-x="944" 
d="M539 1452v-285l266 90l39 -124l-266 -91l176 -231l-107 -80l-178 238l-168 -236l-106 80l170 229l-269 91l41 124l264 -92v287h138z" />
    <glyph glyph-name="plus" unicode="+" horiz-adv-x="1081" 
d="M80 657h387v410h143v-410h391v-137h-391v-414h-143v414h-387v137z" />
    <glyph glyph-name="comma" unicode="," horiz-adv-x="524" 
d="M123 117q0 53 37.5 90t95.5 37q62 0 104.5 -47t42.5 -131q0 -87 -25.5 -158.5t-68 -116t-89.5 -71t-97 -35.5v96q73 17 118.5 81.5t45.5 139.5q-15 -10 -43 -10q-52 0 -86.5 34t-34.5 91z" />
    <glyph glyph-name="hyphen" unicode="-" horiz-adv-x="825" 
d="M686 516h-547v143h547v-143z" />
    <glyph glyph-name="period" unicode="." horiz-adv-x="495" 
d="M121 117q0 54 37 90.5t90 36.5t90 -36.5t37 -90.5t-37 -90.5t-90 -36.5t-90 36.5t-37 90.5z" />
    <glyph glyph-name="slash" unicode="/" horiz-adv-x="978" 
d="M922 1452l-703 -1452h-160l703 1452h160z" />
    <glyph glyph-name="zero" unicode="0" horiz-adv-x="1253" 
d="M627 123q136 0 223 94q125 131 125 447q0 315 -125 446q-87 94 -223 94q-137 0 -224 -94q-124 -130 -124 -446q0 -317 124 -447q87 -94 224 -94zM627 -29q-255 0 -394 203q-122 176 -122 490q0 313 122 489q139 203 394 203q254 0 393 -203q123 -178 123 -489
q0 -312 -123 -490q-139 -203 -393 -203z" />
    <glyph glyph-name="one" unicode="1" horiz-adv-x="700" 
d="M547 0h-168v969h-326v98q135 6 226 78t116 182h152v-1327z" />
    <glyph glyph-name="two" unicode="2" horiz-adv-x="1122" 
d="M287 852l-168 20q-6 27 -6 60q0 115 52 210.5t156 154.5t242 59q199 0 318.5 -116t119.5 -286q0 -127 -65.5 -229.5t-183.5 -177.5l-273 -174q-150 -95 -170 -217h705v-156h-914q3 159 73.5 282.5t225.5 223.5l238 153q192 122 192 293q0 104 -72 178t-198 74
q-131 0 -204.5 -81t-73.5 -208q0 -39 6 -63z" />
    <glyph glyph-name="three" unicode="3" horiz-adv-x="1167" 
d="M475 639l-84 141l412 391h-668v156h893v-153l-403 -381q20 4 39 4q73 0 142.5 -26.5t126 -75.5t91.5 -127t35 -173q0 -176 -129.5 -300t-345.5 -124q-143 0 -254 58t-170.5 151t-65.5 205l168 39q6 -136 97.5 -218.5t222.5 -82.5q138 0 221.5 76.5t83.5 193.5
q0 127 -85.5 195.5t-205.5 68.5q-66 0 -121 -18z" />
    <glyph glyph-name="four" unicode="4" horiz-adv-x="1181" 
d="M63 309v197l586 821h236v-862h231v-156h-231v-309h-168v309h-654zM717 465v696l-496 -696h496z" />
    <glyph glyph-name="five" unicode="5" horiz-adv-x="1134" 
d="M72 365l164 47q9 -128 97 -209.5t220 -81.5t220.5 81t88.5 210q0 138 -88 217.5t-221 79.5q-160 0 -262 -111l-168 66l172 663h686v-156h-573l-107 -421q49 53 126 80.5t159 27.5q197 0 322.5 -120.5t125.5 -319.5q0 -190 -133.5 -318.5t-347.5 -128.5q-100 0 -187.5 32
t-149 86t-99.5 125.5t-45 150.5z" />
    <glyph glyph-name="six" unicode="6" horiz-adv-x="1198" 
d="M1065 1282l-53 -139q-100 61 -244 61q-148 0 -258.5 -73t-167.5 -193t-63 -272q39 88 137.5 148t230.5 60q199 0 326 -121.5t127 -330.5q0 -135 -67.5 -239.5t-177 -158t-239.5 -53.5q-102 0 -192.5 38t-162 111.5t-113.5 194t-42 273.5q0 182 52.5 329.5t144 242.5
t213 145.5t262.5 50.5q179 0 287 -74zM309 422q0 -133 92 -216t217 -83q131 0 220.5 82t89.5 217q0 137 -90.5 221t-219.5 84t-219 -84t-90 -221z" />
    <glyph glyph-name="seven" unicode="7" horiz-adv-x="1062" 
d="M1024 1327v-164q-45 -40 -84 -78t-95 -102.5t-101.5 -131t-96.5 -161t-88.5 -194.5t-68 -229t-44.5 -267h-176q10 117 34 230t52.5 203t71 179.5t76.5 152t83.5 130t77.5 103.5t72.5 82t55.5 56t38 35h-768v156h961z" />
    <glyph glyph-name="eight" unicode="8" horiz-adv-x="1163" 
d="M582 752q118 0 194 64.5t76 166.5q0 100 -74.5 164.5t-195.5 64.5q-123 0 -197 -64.5t-74 -164.5q0 -102 76 -166.5t195 -64.5zM582 119q139 0 220 69t81 174t-81.5 175.5t-219.5 70.5q-140 0 -220.5 -70.5t-80.5 -175.5t80.5 -174t220.5 -69zM582 -29
q-218 0 -345.5 107.5t-127.5 269.5q0 119 72.5 207t187.5 125q-99 33 -163.5 118.5t-64.5 194.5q0 158 125 260.5t316 102.5t315.5 -102.5t124.5 -260.5q0 -108 -65 -194t-164 -119q115 -35 188.5 -124t73.5 -208q0 -162 -127.5 -269.5t-345.5 -107.5z" />
    <glyph glyph-name="nine" unicode="9" horiz-adv-x="1193" 
d="M127 51l57 144q48 -31 118.5 -51.5t135.5 -20.5q235 0 353 143t124 396q-39 -89 -135.5 -147t-228.5 -58q-87 0 -168 30t-145.5 85t-103 141t-38.5 190q0 130 67 235t176 161.5t236 56.5q104 0 195 -38.5t162 -112.5t112 -192.5t41 -267.5q0 -178 -39 -319t-117.5 -243.5
t-202.5 -157t-288 -54.5q-81 0 -170 22.5t-141 57.5zM885 905q0 135 -92.5 219t-217.5 84t-216 -84t-91 -219q0 -136 90 -218.5t217 -82.5t218.5 83t91.5 218z" />
    <glyph glyph-name="colon" unicode=":" horiz-adv-x="536" 
d="M141 117q0 54 37 90.5t90 36.5t90 -36.5t37 -90.5t-37 -90.5t-90 -36.5t-90 36.5t-37 90.5zM141 864q0 54 37 90.5t90 36.5t90 -36.5t37 -90.5t-37 -90.5t-90 -36.5t-90 36.5t-37 90.5z" />
    <glyph glyph-name="semicolon" unicode=";" horiz-adv-x="536" 
d="M127 864q0 54 37 90.5t90 36.5t90 -36.5t37 -90.5t-37 -90.5t-90 -36.5t-90 36.5t-37 90.5zM127 113q0 50 36 85t91 35q59 0 100 -45t41 -125q0 -84 -24.5 -152.5t-65.5 -111t-85.5 -68t-92.5 -34.5v92q70 17 113 79t43 134q-10 -10 -41 -10q-49 0 -82 33t-33 88z" />
    <glyph glyph-name="less" unicode="&#x3c;" horiz-adv-x="1021" 
d="M68 514v148l835 423v-165l-663 -332l663 -332v-164z" />
    <glyph glyph-name="equal" unicode="=" horiz-adv-x="1212" 
d="M1073 719h-934v137h934v-137zM1073 322h-934v139h934v-139z" />
    <glyph glyph-name="greater" unicode="&#x3e;" horiz-adv-x="1019" 
d="M952 662v-148l-833 -422v164l665 332l-665 332v165z" />
    <glyph glyph-name="question" unicode="?" horiz-adv-x="1024" 
d="M561 403h-158q-4 46 -4 74q0 196 166 314l90 63q123 89 123 223q0 105 -69 177.5t-193 72.5q-134 0 -205 -82t-71 -196q0 -60 16 -103l-170 21q-12 49 -12 102q0 73 26.5 144t78.5 132t139.5 98.5t197.5 37.5q100 0 183.5 -34t137.5 -90.5t83.5 -128t29.5 -149.5
q0 -210 -207 -354l-88 -63q-98 -69 -98 -203q0 -36 4 -56zM362 113q0 51 36 85.5t87 34.5q50 0 85.5 -34.5t35.5 -85.5q0 -52 -35.5 -87.5t-85.5 -35.5q-51 0 -87 35.5t-36 87.5z" />
    <glyph glyph-name="at" unicode="@" horiz-adv-x="1695" 
d="M1235 287q-78 0 -132.5 37.5t-66.5 105.5q-44 -68 -110.5 -106.5t-137.5 -38.5q-135 0 -221 95.5t-86 250.5q0 196 118 333.5t284 137.5q73 0 135 -38t86 -106l22 117h138l-105 -512q-6 -30 -6 -57q0 -96 90 -96q61 0 116.5 54.5t89.5 148t34 200.5q0 111 -42 209.5
t-117 172t-186.5 116.5t-244.5 43q-182 0 -329 -85t-231.5 -239t-84.5 -348q0 -186 78.5 -332.5t230.5 -231.5t354 -85q253 0 447 162l72 -95q-91 -89 -234 -141.5t-285 -52.5q-176 0 -326 57t-256 158.5t-165.5 246t-59.5 314.5q0 172 63 322t170 254t251 163.5t303 59.5
q208 0 375.5 -89.5t260.5 -242t93 -336.5q0 -223 -114 -374.5t-271 -151.5zM811 412q64 0 114.5 34t80 89.5t44.5 117.5t15 125q0 89 -48.5 141t-133.5 52q-110 0 -184 -97t-74 -225q0 -106 44.5 -171.5t141.5 -65.5z" />
    <glyph glyph-name="A" unicode="A" horiz-adv-x="1445" 
d="M1221 0l-166 424h-666l-162 -424h-186l582 1452h200l584 -1452h-186zM721 1276l-270 -694h542z" />
    <glyph glyph-name="B" unicode="B" horiz-adv-x="1255" 
d="M201 1452h452q204 0 321.5 -108t117.5 -283q0 -114 -60.5 -197.5t-159.5 -118.5q121 -30 193 -128.5t72 -223.5q0 -173 -124 -283t-323 -110h-489v1452zM373 807h280q119 0 193 69t74 177q0 115 -76.5 181t-212.5 66h-258v-493zM373 152h297q133 0 214 68t81 183
q0 116 -75.5 186t-205.5 70h-311v-507z" />
    <glyph glyph-name="C" unicode="C" horiz-adv-x="1527" 
d="M817 -29q-140 0 -267.5 51t-228 144.5t-160 239t-59.5 321.5q0 141 40 264t109 211.5t160 152t194.5 95t211.5 31.5q244 0 412 -124.5t223 -336.5l-160 -55q-41 171 -165 264.5t-310 93.5q-84 0 -162.5 -24t-148 -73t-121 -119t-81.5 -167.5t-30 -212.5t30 -213.5
t81.5 -168t121 -119t148 -73.5t162.5 -24q187 0 313.5 100.5t172.5 264.5l151 -56q-57 -210 -225.5 -338.5t-411.5 -128.5z" />
    <glyph glyph-name="D" unicode="D" horiz-adv-x="1476" 
d="M373 152h305q108 0 201.5 36.5t165.5 105.5t113.5 179.5t41.5 249.5q0 140 -41 251t-112 181.5t-164.5 107.5t-200.5 37h-309v-1148zM678 0h-477v1452h481q111 0 213 -29.5t189 -90t151 -146.5t100.5 -204.5t36.5 -258.5q0 -173 -56.5 -312.5t-152.5 -228t-220.5 -135.5
t-264.5 -47z" />
    <glyph glyph-name="E" unicode="E" horiz-adv-x="1183" 
d="M1071 0h-870v1452h870v-158h-698v-489h635v-158h-635v-489h698v-158z" />
    <glyph glyph-name="F" unicode="F" horiz-adv-x="1169" 
d="M373 0h-172v1452h872v-158h-700v-510h637v-157h-637v-627z" />
    <glyph glyph-name="G" unicode="G" horiz-adv-x="1579" 
d="M1446 0h-139l-17 236q-25 -48 -65 -92t-99.5 -84.5t-144 -64.5t-182.5 -24q-107 0 -208 31t-189.5 94t-155 151.5t-104.5 212.5t-38 267q0 142 39.5 265.5t108 212t159.5 151.5t193.5 94t210.5 31q232 0 403.5 -119.5t235.5 -317.5l-156 -67q-51 163 -178 254.5
t-305 91.5q-83 0 -160.5 -23t-146.5 -72t-120.5 -118.5t-81.5 -168t-30 -214.5q0 -144 45 -260.5t120 -189t168.5 -110.5t195.5 -38q99 0 181 27.5t134.5 71t89 99.5t52.5 110.5t18 107.5h-518v157h684v-702z" />
    <glyph glyph-name="H" unicode="H" horiz-adv-x="1521" 
d="M1321 0h-172v659h-776v-659h-172v1452h172v-635h776v635h172v-1452z" />
    <glyph glyph-name="I" unicode="I" horiz-adv-x="573" 
d="M373 0h-172v1452h172v-1452z" />
    <glyph glyph-name="J" unicode="J" horiz-adv-x="1116" 
d="M61 430v92l172 39v-127q0 -149 72 -227t195 -78q122 0 190 78t68 215v1030h172v-1020q0 -199 -116 -330t-312 -131q-206 0 -323.5 124t-117.5 335z" />
    <glyph glyph-name="K" unicode="K" horiz-adv-x="1339" 
d="M1108 0l-510 682l-225 -240v-442h-172v1452h172v-782l714 782h228l-604 -645l612 -807h-215z" />
    <glyph glyph-name="L" unicode="L" horiz-adv-x="1118" 
d="M1077 0h-876v1452h172v-1294h704v-158z" />
    <glyph glyph-name="M" unicode="M" horiz-adv-x="1951" 
d="M1751 0h-172v1182l-526 -1182h-158l-522 1182v-1182h-172v1452h235l539 -1223l543 1223h233v-1452z" />
    <glyph glyph-name="N" unicode="N" horiz-adv-x="1576" 
d="M1376 0h-180l-823 1229v-1229h-172v1452h225l778 -1163v1163h172v-1452z" />
    <glyph glyph-name="O" unicode="O" horiz-adv-x="1642" 
d="M274 727q0 -143 45.5 -259t123 -189t174.5 -111.5t204 -38.5q108 0 205 38.5t174 111.5t122.5 189t45.5 259t-45.5 258.5t-122.5 188t-174 111t-205 38.5q-85 0 -164.5 -24t-149.5 -73t-121.5 -119t-81.5 -167.5t-30 -212.5zM102 727q0 176 61.5 321.5t163.5 238.5
t229.5 143.5t264.5 50.5q109 0 213.5 -31.5t196 -95t160.5 -152t109 -211.5t40 -264t-40 -264t-109 -212t-160.5 -153t-196 -95.5t-213.5 -31.5t-213 31.5t-195.5 95.5t-161 153t-109.5 212t-40 264z" />
    <glyph glyph-name="P" unicode="P" horiz-adv-x="1216" 
d="M373 756h307q138 0 219.5 73.5t81.5 194.5q0 125 -81 199.5t-220 74.5h-307v-542zM707 602h-334v-602h-172v1452h506q198 0 322 -121t124 -305q0 -185 -123.5 -304.5t-322.5 -119.5z" />
    <glyph glyph-name="Q" unicode="Q" horiz-adv-x="1642" 
d="M1395 -115l-181 201q-177 -115 -393 -115q-109 0 -213 31.5t-195.5 95.5t-161 153t-109.5 212t-40 264q0 176 61.5 321.5t163.5 238.5t229.5 143.5t264.5 50.5q109 0 213.5 -31.5t196 -95t160.5 -152t109 -211.5t40 -264q0 -336 -205 -541l178 -198zM821 129
q161 0 285 78l-266 299l118 102l269 -301q141 164 141 420q0 143 -45.5 258.5t-122.5 188t-174 111t-205 38.5q-85 0 -164.5 -24t-149.5 -73t-121.5 -119t-81.5 -167.5t-30 -212.5q0 -143 45.5 -259t123 -189t174.5 -111.5t204 -38.5z" />
    <glyph glyph-name="R" unicode="R" horiz-adv-x="1273" 
d="M965 0l-340 608h-252v-608h-172v1452h528q197 0 317.5 -121.5t120.5 -302.5q0 -159 -95.5 -270t-258.5 -137l352 -621h-200zM373 762h329q132 0 212.5 72.5t80.5 193.5q0 123 -80.5 196.5t-212.5 73.5h-329v-536z" />
    <glyph glyph-name="S" unicode="S" horiz-adv-x="1206" 
d="M1092 1122l-154 -55q-9 49 -32 93t-61.5 82t-99 61t-135.5 24q-127 0 -214 -74t-87 -184q0 -88 54.5 -147.5t154.5 -81.5l213 -47q176 -38 274.5 -143.5t98.5 -258.5q0 -173 -137 -296.5t-357 -123.5q-121 0 -220 37t-162.5 99.5t-101.5 137.5t-48 158l162 52
q13 -138 110 -233t260 -95q152 0 237 70.5t85 179.5q0 90 -61 155t-175 91l-213 47q-158 35 -252 135t-94 254q0 112 62.5 209t171.5 155t237 58q90 0 166.5 -21.5t129 -56.5t92 -82.5t62 -96.5t34.5 -102z" />
    <glyph glyph-name="T" unicode="T" horiz-adv-x="1243" 
d="M1204 1294h-497v-1294h-170v1294h-498v158h1165v-158z" />
    <glyph glyph-name="U" unicode="U" horiz-adv-x="1396" 
d="M698 -29q-228 0 -371 137t-143 384v960h172v-956q0 -175 89 -271t253 -96t253 96t89 271v956h172v-960q0 -247 -143 -384t-371 -137z" />
    <glyph glyph-name="V" unicode="V" horiz-adv-x="1363" 
d="M682 215l459 1237h180l-553 -1452h-172l-551 1452h182z" />
    <glyph glyph-name="W" unicode="W" horiz-adv-x="2052" 
d="M1120 1452l367 -1188l346 1188h176l-430 -1452h-174l-379 1219l-379 -1219h-174l-430 1452h176l346 -1188l367 1188h188z" />
    <glyph glyph-name="X" unicode="X" horiz-adv-x="1255" 
d="M1221 1452l-492 -725l488 -727h-205l-383 590l-389 -590h-207l493 727l-489 725h209l383 -592l385 592h207z" />
    <glyph glyph-name="Y" unicode="Y" horiz-adv-x="1294" 
d="M561 621l-510 831h201l395 -674l395 674h201l-510 -831v-621h-172v621z" />
    <glyph glyph-name="Z" unicode="Z" horiz-adv-x="1288" 
d="M1202 0h-1118v172l903 1122h-885v158h1090v-168l-905 -1126h915v-158z" />
    <glyph glyph-name="bracketleft" unicode="[" horiz-adv-x="573" 
d="M514 -297h-360v1899h360v-134h-217v-1632h217v-133z" />
    <glyph glyph-name="backslash" unicode="\" horiz-adv-x="978" 
d="M760 0l-703 1452h160l703 -1452h-160z" />
    <glyph glyph-name="bracketright" unicode="]" horiz-adv-x="573" 
d="M420 -297h-361v133h217v1632h-217v134h361v-1899z" />
    <glyph glyph-name="asciicircum" unicode="^" horiz-adv-x="1130" 
d="M1034 725h-172l-297 559l-297 -559h-172l396 727h145z" />
    <glyph glyph-name="underscore" unicode="_" horiz-adv-x="1067" 
d="M1057 -137h-1047v137h1047v-137z" />
    <glyph glyph-name="grave" unicode="`" horiz-adv-x="550" 
d="M334 1108l-252 293h209l178 -293h-135z" />
    <glyph glyph-name="a" unicode="a" horiz-adv-x="1048" 
d="M90 260q0 125 79 199t214 94l264 39q51 7 69.5 27.5t18.5 56.5q0 87 -58 140.5t-169 53.5q-105 0 -169 -57.5t-75 -153.5l-155 37q15 139 125.5 226.5t269.5 87.5q101 0 178.5 -28t124 -77t69.5 -111t23 -135v-495q0 -102 12 -164h-159q-13 75 -13 147
q-38 -71 -121.5 -123.5t-203.5 -52.5q-146 0 -235 85.5t-89 203.5zM434 111q135 0 218 76.5t83 226.5v65l-319 -47q-74 -11 -118 -53t-44 -111q0 -63 49.5 -110t130.5 -47z" />
    <glyph glyph-name="b" unicode="b" horiz-adv-x="1200" 
d="M319 0h-159v1481h164v-660q38 78 125.5 133.5t209.5 55.5q141 0 244 -70.5t153 -186t50 -261.5q0 -226 -121.5 -373.5t-329.5 -147.5q-117 0 -203.5 53t-132.5 138v-162zM631 119q140 0 225.5 104.5t85.5 268.5t-85 267t-226 103t-226.5 -103t-85.5 -267t86 -268.5
t226 -104.5z" />
    <glyph glyph-name="c" unicode="c" horiz-adv-x="1089" 
d="M578 862q-135 0 -228.5 -99t-93.5 -271q0 -171 94 -272t230 -101q66 0 119 21t86.5 56.5t54 70t32.5 73.5l144 -64q-19 -58 -53.5 -109.5t-86.5 -97t-129 -72t-167 -26.5q-212 0 -350 148t-138 373q0 227 138.5 372.5t347.5 145.5q176 0 286 -90t144 -220l-148 -63
q-11 42 -31.5 79.5t-53 71.5t-83.5 54t-114 20z" />
    <glyph glyph-name="d" unicode="d" horiz-adv-x="1189" 
d="M870 141v27q-38 -82 -120.5 -139.5t-200.5 -57.5q-207 0 -331 148.5t-124 372.5q0 142 56 260t160.5 188t238.5 70q128 0 207.5 -56.5t109.5 -130.5v658h164v-1297q0 -134 10 -184h-159q-11 63 -11 141zM563 119q137 0 222 104.5t85 268.5t-84.5 267t-222.5 103
t-221.5 -103t-83.5 -267t84 -268.5t221 -104.5z" />
    <glyph glyph-name="e" unicode="e" horiz-adv-x="1107" 
d="M264 586h586q-3 122 -79.5 200t-211.5 78q-123 0 -205 -82t-90 -196zM872 330l142 -51q-44 -135 -158.5 -221.5t-277.5 -86.5q-99 0 -186.5 36t-154.5 101.5t-106 165.5t-39 220q0 113 38 210.5t101.5 164t148 104t177.5 37.5q219 0 341 -138.5t122 -367.5q0 -30 -4 -58
h-756v-8q0 -138 92 -228.5t226 -90.5q117 0 189.5 57.5t104.5 153.5z" />
    <glyph glyph-name="f" unicode="f" horiz-adv-x="692" 
d="M651 834h-254v-834h-164v834h-192v147h192v182q0 156 87 242t223 86q75 0 112 -21v-141q-33 14 -88 14q-70 0 -120 -43.5t-50 -140.5v-178h254v-147z" />
    <glyph glyph-name="g" unicode="g" horiz-adv-x="1171" 
d="M92 -55l158 39q12 -110 90 -182t195 -72q313 0 313 338v157q-37 -78 -117.5 -130t-193.5 -52q-194 0 -318.5 137t-124.5 344q0 208 125 347t322 139q111 0 190.5 -46t118.5 -122v139h162v-907q0 -76 -14 -144t-48.5 -133t-87.5 -111.5t-137 -75t-190 -28.5
q-179 0 -301.5 102.5t-141.5 260.5zM856 526q0 152 -82.5 244t-216.5 92t-216.5 -92t-82.5 -244t82.5 -244t216.5 -92t216.5 92t82.5 244z" />
    <glyph glyph-name="h" unicode="h" horiz-adv-x="1124" 
d="M324 586v-586h-164v1481h164v-631q47 76 127 118t176 42q170 0 260 -106.5t90 -274.5v-629h-164v604q0 116 -59 187t-185 71q-113 0 -179 -79t-66 -197z" />
    <glyph glyph-name="i" unicode="i" horiz-adv-x="483" 
d="M324 0h-164v981h164v-981zM119 1368q0 51 36 87t87 36t87 -36t36 -87t-36 -87t-87 -36t-87 36t-36 87z" />
    <glyph glyph-name="j" unicode="j" horiz-adv-x="483" 
d="M160 -115v1096h164v-1102q0 -134 -72.5 -215.5t-196.5 -81.5q-67 0 -110 17v143q24 -12 69 -12q77 0 111.5 38.5t34.5 116.5zM119 1368q0 51 36 87t87 36t87 -36t36 -87t-36 -87t-87 -36t-87 36t-36 87z" />
    <glyph glyph-name="k" unicode="k" horiz-adv-x="1048" 
d="M1008 981l-418 -416l428 -565h-207l-336 453l-151 -156v-297h-164v1481h164v-967l458 467h226z" />
    <glyph glyph-name="l" unicode="l" horiz-adv-x="483" 
d="M324 0h-164v1481h164v-1481z" />
    <glyph glyph-name="m" unicode="m" horiz-adv-x="1738" 
d="M319 981v-139q41 76 124 122t178 46q103 0 184 -53t117 -148q51 101 137 151t194 50q142 0 240 -96.5t98 -272.5v-641h-164v623q0 107 -57 173t-168 66q-107 0 -175.5 -77t-68.5 -189v-596h-163v623q0 107 -58 173t-170 66q-109 0 -176 -75.5t-67 -192.5v-594h-164v981
h159z" />
    <glyph glyph-name="n" unicode="n" horiz-adv-x="1124" 
d="M324 578v-578h-164v981h159v-147q46 85 128 130.5t180 45.5q170 0 260 -106.5t90 -274.5v-629h-164v604q0 116 -59 187t-185 71q-114 0 -179.5 -81.5t-65.5 -202.5z" />
    <glyph glyph-name="o" unicode="o" horiz-adv-x="1167" 
d="M584 1010q213 0 352 -146.5t139 -371.5q0 -227 -139 -374t-352 -147t-352.5 147t-139.5 374q0 225 139.5 371.5t352.5 146.5zM584 862q-138 0 -233 -99t-95 -271q0 -173 95 -273t233 -100t232.5 100t94.5 273q0 172 -94.5 271t-232.5 99z" />
    <glyph glyph-name="p" unicode="p" horiz-adv-x="1200" 
d="M324 -389h-164v1370h159v-164q42 83 130 138t210 55q210 0 328.5 -145.5t118.5 -372.5q0 -147 -53 -264.5t-156.5 -187t-241.5 -69.5q-117 0 -202.5 52t-128.5 129v-541zM631 119q140 0 225.5 104.5t85.5 268.5t-85 267t-226 103t-226.5 -103t-85.5 -267t86 -268.5
t226 -104.5z" />
    <glyph glyph-name="q" unicode="q" horiz-adv-x="1196" 
d="M1036 -389h-164v543q-41 -80 -124.5 -131.5t-196.5 -51.5q-136 0 -241.5 70.5t-160.5 188.5t-55 262t53.5 260.5t157.5 187t242 70.5q125 0 209.5 -57.5t120.5 -135.5v164h159v-1370zM565 119q138 0 223.5 104.5t85.5 268.5t-84.5 267t-224.5 103t-223.5 -103t-83.5 -267
t84.5 -268.5t222.5 -104.5z" />
    <glyph glyph-name="r" unicode="r" horiz-adv-x="720" 
d="M686 987v-174q-34 10 -86 10q-129 0 -202.5 -77.5t-73.5 -237.5v-508h-164v981h159v-176q30 68 81 112t104 61t112 17q42 0 70 -8z" />
    <glyph glyph-name="s" unicode="s" horiz-adv-x="917" 
d="M80 258l147 51q11 -88 75 -143t171 -55q86 0 138.5 42.5t52.5 106.5q0 54 -40 91t-110 52l-160 37q-114 27 -178.5 98t-64.5 175q0 123 101 210t241 87q73 0 133 -18t98.5 -45t67.5 -64t43 -69t22 -66l-145 -54q-5 29 -18 56.5t-37 56t-66.5 46t-97.5 17.5
q-77 0 -130 -43t-53 -104q0 -103 129 -133l160 -37q129 -29 197.5 -102.5t68.5 -182.5q0 -54 -23 -106t-66 -95t-112 -69.5t-153 -26.5q-92 0 -167 27t-120.5 71t-71.5 92t-32 97z" />
    <glyph glyph-name="t" unicode="t" horiz-adv-x="694" 
d="M397 1292v-311h232v-147h-232v-543q0 -154 150 -154q42 0 82 10v-139q-54 -18 -129 -18q-123 0 -195 73t-72 205v566h-196v147h63q144 0 144 149v162h153z" />
    <glyph glyph-name="u" unicode="u" horiz-adv-x="1126" 
d="M811 133q-35 -74 -116 -118t-179 -44q-115 0 -200 53.5t-127 142t-42 198.5v616h164v-590q0 -56 13.5 -103.5t41.5 -86t76 -60.5t111 -22q118 0 184 74.5t66 195.5v592h164v-797q0 -106 12 -184h-158q-10 38 -10 125v8z" />
    <glyph glyph-name="v" unicode="v" horiz-adv-x="1052" 
d="M1001 981l-391 -981h-166l-395 981h184l295 -791l297 791h176z" />
    <glyph glyph-name="w" unicode="w" horiz-adv-x="1652" 
d="M743 981h170l273 -776l233 776h174l-319 -981h-172l-275 782l-270 -782h-174l-326 981h176l240 -776z" />
    <glyph glyph-name="x" unicode="x" horiz-adv-x="1011" 
d="M37 0l375 502l-359 479h199l256 -360l258 360h192l-358 -479l375 -502h-197l-272 379l-273 -379h-196z" />
    <glyph glyph-name="y" unicode="y" horiz-adv-x="1071" 
d="M410 -389h-183l238 506l-422 864h188l324 -694l305 694h178z" />
    <glyph glyph-name="z" unicode="z" horiz-adv-x="966" 
d="M877 0h-785v143l572 691h-566v147h768v-143l-571 -691h582v-147z" />
    <glyph glyph-name="braceleft" unicode="{" horiz-adv-x="679" 
d="M39 575v152q96 3 157.5 55.5t61.5 155.5v307q0 357 342 357h23v-134h-23q-110 0 -154.5 -51t-44.5 -164v-350q0 -100 -57 -166.5t-156 -85.5q99 -19 156 -85.5t57 -166.5v-350q0 -113 44.5 -164t154.5 -51h23v-133h-23q-342 0 -342 356v308q0 103 -61 155t-158 55z" />
    <glyph glyph-name="bar" unicode="|" horiz-adv-x="450" 
d="M297 -299h-143v1901h143v-1901z" />
    <glyph glyph-name="braceright" unicode="}" horiz-adv-x="679" 
d="M641 727v-152q-97 -3 -158 -55t-61 -155v-308q0 -356 -342 -356h-23v133h23q110 0 154.5 51t44.5 164v350q0 100 57 166.5t156 85.5q-99 19 -156 85.5t-57 166.5v350q0 113 -44.5 164t-154.5 51h-23v134h23q342 0 342 -357v-307q0 -103 61.5 -155.5t157.5 -55.5z" />
    <glyph glyph-name="asciitilde" unicode="~" horiz-adv-x="1288" 
d="M657 502l-94 51q-62 33 -121 33q-110 0 -198 -115l-99 80q112 182 297 182q91 0 191 -53l94 -51q64 -37 127 -37q120 0 195 113l98 -80q-110 -181 -293 -181q-90 0 -197 58z" />
    <glyph glyph-name="uni00A0" unicode="&#xa0;" horiz-adv-x="522" 
 />
    <glyph glyph-name="exclamdown" unicode="&#xa1;" horiz-adv-x="466" 
d="M131 -453l45 1049h115l45 -1049h-205zM354 887q0 -51 -36 -86t-87 -35q-50 0 -85 35t-35 86q0 52 35 87.5t85 35.5q51 0 87 -35.5t36 -87.5z" />
    <glyph glyph-name="cent" unicode="&#xa2;" horiz-adv-x="1069" 
d="M625 0h-133v195q-174 26 -284 158t-110 319q0 188 110 318.5t284 158.5v178h133v-176q144 -13 234 -94t122 -193l-139 -57q-22 73 -76 130t-141 71v-674q92 14 148 71t77 127l139 -57q-34 -108 -128 -190t-236 -95v-190zM262 672q0 -132 63.5 -219t166.5 -113v661
q-103 -26 -166.5 -111.5t-63.5 -217.5z" />
    <glyph glyph-name="sterling" unicode="&#xa3;" horiz-adv-x="1191" 
d="M125 723h147q-2 4 -13.5 31.5t-14.5 36t-12 33t-12 38t-8 35.5t-7 41.5t-2 40.5q0 163 112.5 270t282.5 107q87 0 157.5 -21.5t116 -57t77 -84t46 -98.5t17.5 -104l-172 -28q-3 117 -66.5 180t-171.5 63q-97 0 -163 -62t-66 -165q0 -18 2 -36t7 -38.5t9 -34.5t13 -38
t13 -34t16.5 -38.5t15.5 -36.5h389v-152h-344q8 -33 8 -73q0 -107 -54 -200t-145 -146h436q106 0 160 66t57 171l164 -24q-3 -163 -94 -264t-246 -101h-671v166q101 47 164 134t63 179q0 45 -12 92h-199v152z" />
    <glyph glyph-name="currency" unicode="&#xa4;" horiz-adv-x="1196" 
d="M598 45q-132 0 -246 86l-149 -156l-103 103l148 155q-80 114 -80 250q0 143 84 258l-152 158l105 102l153 -157q111 78 240 78t240 -78l153 157l105 -102l-152 -158q84 -115 84 -258q0 -136 -80 -250l148 -155l-103 -103l-149 156q-114 -86 -246 -86zM598 778
q-121 0 -202 -84t-81 -211t81 -211t202 -84t202 84t81 211t-81 211t-202 84z" />
    <glyph glyph-name="yen" unicode="&#xa5;" horiz-adv-x="1212" 
d="M1053 317h-359v-317h-170v317h-358v132h358v165h-358v131h276l-372 582h200l338 -565l338 565h195l-367 -582h279v-131h-359v-165h359v-132z" />
    <glyph glyph-name="brokenbar" unicode="&#xa6;" horiz-adv-x="471" 
d="M164 1602h143v-820h-143v820zM164 520h143v-819h-143v819z" />
    <glyph glyph-name="section" unicode="&#xa7;" horiz-adv-x="1044" 
d="M911 500q0 -89 -53.5 -159t-126.5 -99q90 -56 139.5 -133.5t49.5 -165.5q0 -106 -56 -189t-147.5 -126.5t-200.5 -43.5q-184 0 -286 100.5t-105 270.5l151 33q2 -122 65 -195.5t179 -73.5q102 0 168 56t66 151q0 126 -136 197l-212 113q-52 27 -86.5 48t-72.5 52
t-60.5 62.5t-37 74.5t-14.5 94q0 89 55 158.5t125 95.5q-91 56 -139.5 133t-48.5 168q0 159 118 259t283 100q182 0 285 -103.5t105 -265.5l-154 -33q-2 121 -64.5 194t-175.5 73q-99 0 -165 -57.5t-66 -149.5q0 -124 135 -195l211 -113q64 -34 106 -62t83.5 -68t62 -90
t20.5 -111zM610 664l-196 106q-49 -19 -86 -68t-37 -110q0 -113 143 -189l197 -106q47 16 84 65.5t37 110.5q0 114 -142 191z" />
    <glyph glyph-name="dieresis" unicode="&#xa8;" horiz-adv-x="749" 
d="M82 1262q0 44 31 75t75 31t75.5 -31t31.5 -75t-31.5 -75.5t-75.5 -31.5t-75 31.5t-31 75.5zM455 1262q0 44 31 75t75 31t75.5 -31t31.5 -75t-31.5 -75.5t-75.5 -31.5t-75 31.5t-31 75.5z" />
    <glyph glyph-name="copyright" unicode="&#xa9;" horiz-adv-x="1703" 
d="M854 1026q-109 0 -184.5 -81t-75.5 -220q0 -138 75 -218.5t187 -80.5q102 0 160 53t80 123l118 -51q-16 -47 -45 -89.5t-72.5 -79.5t-105.5 -59t-135 -22q-173 0 -286 121t-113 303q0 185 113 304.5t284 119.5q144 0 234.5 -73.5t119.5 -180.5l-123 -49q-20 76 -77 128
t-154 52zM1599 725q0 -153 -58.5 -292.5t-158.5 -241t-238.5 -161t-291.5 -59.5t-292 59.5t-238.5 161t-158.5 241t-59 292.5t59 293t158.5 241.5t238.5 161.5t292 60t291.5 -60t238.5 -161.5t158.5 -241.5t58.5 -293zM1464 725q0 128 -47.5 244.5t-128.5 202t-195 136
t-241 50.5t-241 -50.5t-195 -136t-128.5 -202t-47.5 -244.5t47.5 -244.5t128.5 -201.5t195 -135t241 -50t241 50t195 135t128.5 201.5t47.5 244.5z" />
    <glyph glyph-name="ordfeminine" unicode="&#xaa;" horiz-adv-x="851" 
d="M117 821q0 87 57.5 140t151.5 67l184 29q57 8 57 55q0 56 -38 91.5t-111 35.5q-71 0 -114.5 -39.5t-49.5 -103.5l-123 28q9 97 88 160.5t197 63.5q144 0 213 -70t69 -180v-346q0 -52 9 -115h-125q-9 36 -9 96q-29 -48 -85.5 -81.5t-137.5 -33.5q-105 0 -169 60t-64 143z
M371 725q91 0 143.5 53t52.5 158v37l-211 -35q-48 -8 -77 -36t-29 -75q0 -42 32.5 -72t88.5 -30z" />
    <glyph glyph-name="guillemotleft" unicode="&#xab;" horiz-adv-x="1005" 
d="M526 199h-161l-273 391l273 391h161l-268 -391zM903 199h-162l-272 391l272 391h162l-268 -391z" />
    <glyph glyph-name="logicalnot" unicode="&#xac;" 
d="M1022 311h-148v406h-782v143h930v-549z" />
    <glyph glyph-name="uni00AD" unicode="&#xad;" horiz-adv-x="825" 
d="M686 516h-547v143h547v-143z" />
    <glyph glyph-name="registered" unicode="&#xae;" horiz-adv-x="1703" 
d="M741 752h125q73 0 114.5 36t41.5 99q0 65 -41.5 101t-114.5 36h-125v-272zM741 635v-316h-133v822h277q117 0 194.5 -72.5t77.5 -179.5q0 -87 -51 -153t-135 -89l190 -328h-153l-179 316h-88zM1599 725q0 -153 -58.5 -292.5t-158.5 -241t-238.5 -161t-291.5 -59.5
t-292 59.5t-238.5 161t-158.5 241t-59 292.5t59 293t158.5 241.5t238.5 161.5t292 60t291.5 -60t238.5 -161.5t158.5 -241.5t58.5 -293zM1464 725q0 128 -47.5 244.5t-128.5 202t-195 136t-241 50.5t-241 -50.5t-195 -136t-128.5 -202t-47.5 -244.5t47.5 -244.5
t128.5 -201.5t195 -135t241 -50t241 50t195 135t128.5 201.5t47.5 244.5z" />
    <glyph glyph-name="macron" unicode="&#xaf;" horiz-adv-x="706" 
d="M625 1184h-543v143h543v-143z" />
    <glyph glyph-name="degree" unicode="&#xb0;" horiz-adv-x="841" 
d="M244 1036q0 -78 51 -130t125 -52q76 0 127 52t51 130t-51 130.5t-127 52.5q-74 0 -125 -52.5t-51 -130.5zM100 1036q0 133 94.5 226.5t225.5 93.5q133 0 228 -93.5t95 -226.5t-95 -226t-228 -93q-131 0 -225.5 93t-94.5 226z" />
    <glyph glyph-name="plusminus" unicode="&#xb1;" horiz-adv-x="1161" 
d="M137 780h371v287h143v-287h373v-135h-373v-285h-143v285h-371v135zM137 254h887v-137h-887v137z" />
    <glyph glyph-name="twosuperior" unicode="&#xb2;" horiz-adv-x="702" 
d="M221 1169l-131 2q-6 27 -6 58q0 100 73.5 167.5t194.5 67.5q119 0 190.5 -66.5t71.5 -162.5q0 -134 -145 -225l-147 -92q-68 -43 -76 -97h375v-114h-541v18q0 186 168 289l131 82q98 59 98 141q0 47 -34.5 81t-92.5 34q-61 0 -98 -36t-37 -97q0 -26 6 -50z" />
    <glyph glyph-name="threesuperior" unicode="&#xb3;" horiz-adv-x="735" 
d="M303 1053l-53 100l213 184h-373v115h547v-113l-217 -184q10 2 29 2q81 0 142.5 -61t61.5 -162q0 -102 -81.5 -173t-209.5 -71q-124 0 -202 62t-94 151l118 47q9 -64 58.5 -104.5t117.5 -40.5t112 37t44 92q0 64 -44.5 95.5t-109.5 31.5q-27 0 -59 -8z" />
    <glyph glyph-name="acute" unicode="&#xb4;" horiz-adv-x="550" 
d="M469 1401l-252 -293h-135l178 293h209z" />
    <glyph glyph-name="mu" unicode="&#xb5;" horiz-adv-x="1112" 
d="M809 133q-37 -75 -117.5 -118.5t-179.5 -43.5q-136 0 -203 82v-442h-164v1370h164v-592q0 -118 59 -195t181 -77q120 0 186 74.5t66 195.5v594h164v-797q0 -102 10 -184h-158q-8 40 -8 127v6z" />
    <glyph glyph-name="paragraph" unicode="&#xb6;" horiz-adv-x="1286" 
d="M651 1311v-1700h-143v1053h-47q-161 0 -277 112.5t-116 274.5q0 183 129 292t325 109h678v-141h-196v-1700h-144v1700h-209z" />
    <glyph glyph-name="periodcentered" unicode="&#xb7;" horiz-adv-x="536" 
d="M141 582q0 54 37 90.5t90 36.5t90 -36.5t37 -90.5t-37 -90.5t-90 -36.5t-90 36.5t-37 90.5z" />
    <glyph glyph-name="cedilla" unicode="&#xb8;" horiz-adv-x="620" 
d="M246 -201l-60 70l99 156h125l-86 -129q12 4 30 4q82 0 133.5 -45t51.5 -117q0 -77 -60.5 -127.5t-173.5 -50.5q-70 0 -130 27.5t-93 68.5l68 80q69 -74 155 -74q47 0 78 19.5t31 56.5q0 33 -27.5 53.5t-75.5 20.5q-33 0 -65 -13z" />
    <glyph glyph-name="onesuperior" unicode="&#xb9;" horiz-adv-x="464" 
d="M360 707h-135v522h-176v78q73 6 123 47t61 98h127v-745z" />
    <glyph glyph-name="ordmasculine" unicode="&#xba;" horiz-adv-x="905" 
d="M453 737q93 0 157 65.5t64 180.5t-64 180.5t-157 65.5t-157.5 -65.5t-64.5 -180.5t64.5 -180.5t157.5 -65.5zM453 618q-154 0 -253.5 102t-99.5 263t99.5 263t253.5 102t253 -102t99 -263t-99 -263t-253 -102z" />
    <glyph glyph-name="guillemotright" unicode="&#xbb;" horiz-adv-x="1005" 
d="M641 199h-162l269 391l-269 391h162l272 -391zM264 199h-162l269 391l-269 391h162l273 -391z" />
    <glyph glyph-name="onequarter" unicode="&#xbc;" horiz-adv-x="1527" 
d="M399 582h-135v522h-176v78q73 6 123 47t61 98h127v-745zM797 156v131l364 458h156v-475h135v-114h-135v-156h-137v156h-383zM1180 270v320l-252 -320h252zM303 0h-162l961 1327h158z" />
    <glyph glyph-name="onehalf" unicode="&#xbd;" horiz-adv-x="1558" 
d="M397 582h-135v522h-176v78q73 6 123 47t61 98h127v-745zM301 0h-162l961 1327h157zM1065 463l-131 2q-6 27 -6 57q0 100 73.5 168t194.5 68q119 0 190.5 -67t71.5 -163q0 -134 -145 -225l-148 -92q-67 -43 -75 -96h374v-115h-540v18q0 186 168 289l131 82q98 59 98 141
q0 47 -34.5 81t-92.5 34q-61 0 -98 -36t-37 -97q0 -25 6 -49z" />
    <glyph glyph-name="threequarters" unicode="&#xbe;" horiz-adv-x="1716" 
d="M332 928l-53 100l213 184h-373v115h547v-113l-217 -184q10 2 28 2q82 0 143.5 -61t61.5 -162q0 -102 -81.5 -173t-209.5 -71q-124 0 -202.5 62t-94.5 151l119 47q9 -64 58.5 -104.5t117.5 -40.5t112 37t44 92q0 64 -44.5 95.5t-109.5 31.5q-27 0 -59 -8zM985 156v131
l365 458h155v-475h135v-114h-135v-156h-137v156h-383zM1368 270v320l-252 -320h252zM492 0h-162l960 1327h158z" />
    <glyph glyph-name="questiondown" unicode="&#xbf;" horiz-adv-x="1007" 
d="M455 596h157q4 -46 4 -74q0 -100 -39.5 -176t-125.5 -137l-91 -64q-122 -88 -122 -223q0 -105 69 -177.5t193 -72.5q134 0 205 82.5t71 196.5q0 59 -16 102l170 -20q12 -49 12 -103q0 -73 -26.5 -144t-78.5 -131.5t-139.5 -98t-197.5 -37.5q-100 0 -183.5 33.5t-137.5 90
t-83.5 128t-29.5 149.5q0 211 206 354l88 64q99 70 99 203q0 35 -4 55zM653 887q0 -51 -36 -86t-87 -35q-50 0 -85 35t-35 86q0 52 35 87.5t85 35.5q51 0 87 -35.5t36 -87.5z" />
    <glyph glyph-name="Agrave" unicode="&#xc0;" horiz-adv-x="1445" 
d="M1221 0l-166 424h-666l-162 -424h-186l582 1452h200l584 -1452h-186zM721 1276l-270 -694h542zM639 1554l-279 244h228l213 -244h-162z" />
    <glyph glyph-name="Aacute" unicode="&#xc1;" horiz-adv-x="1445" 
d="M1221 0l-166 424h-666l-162 -424h-186l582 1452h200l584 -1452h-186zM721 1276l-270 -694h542zM1081 1798l-278 -244h-162l213 244h227z" />
    <glyph glyph-name="Acircumflex" unicode="&#xc2;" horiz-adv-x="1445" 
d="M1221 0l-166 424h-666l-162 -424h-186l582 1452h200l584 -1452h-186zM721 1276l-270 -694h542zM539 1554h-160l229 244h226l229 -244h-160l-182 152z" />
    <glyph glyph-name="Atilde" unicode="&#xc3;" horiz-adv-x="1445" 
d="M1221 0l-166 424h-666l-162 -424h-186l582 1452h200l584 -1452h-186zM721 1276l-270 -694h542zM1042 1796v-29q0 -103 -49 -160t-131 -57q-70 0 -141 47l-45 29q-51 33 -84 33q-36 0 -57 -25t-21 -75h-119v28q0 102 53 158.5t136 56.5q71 0 139 -45l45 -28q53 -33 84 -33
q32 0 52 22t20 66v12h118z" />
    <glyph glyph-name="Adieresis" unicode="&#xc4;" horiz-adv-x="1445" 
d="M340 1677q0 44 31 75.5t75 31.5t75.5 -31.5t31.5 -75.5t-31.5 -75t-75.5 -31t-75 31t-31 75zM889 1677q0 44 31 75.5t75 31.5t75.5 -31.5t31.5 -75.5t-31.5 -75t-75.5 -31t-75 31t-31 75zM1221 0l-166 424h-666l-162 -424h-186l582 1452h200l584 -1452h-186zM721 1276
l-270 -694h542z" />
    <glyph glyph-name="Aring" unicode="&#xc5;" horiz-adv-x="1445" 
d="M1221 0l-166 424h-666l-162 -424h-186l549 1372q-47 32 -76 83.5t-29 109.5q0 98 70.5 165.5t165.5 67.5t165 -67.5t70 -165.5q0 -58 -28 -107.5t-74 -83.5l553 -1374h-186zM721 1276l-270 -694h542zM721 1679q-46 0 -79.5 -33.5t-33.5 -80.5t33.5 -80t79.5 -33t79.5 33
t33.5 80t-33.5 80.5t-79.5 33.5z" />
    <glyph glyph-name="AE" unicode="&#xc6;" horiz-adv-x="2048" 
d="M1935 0h-870v424h-571l-275 -424h-221l967 1452h970v-158h-698v-489h635v-158h-635v-489h698v-158zM1065 1303l-469 -721h469v721z" />
    <glyph glyph-name="Ccedilla" unicode="&#xc7;" horiz-adv-x="1527" 
d="M756 -201l-60 70l66 104q-132 10 -250 65t-210 148t-146 233t-54 308q0 141 40 264t109 211.5t160 152t194.5 95t211.5 31.5q244 0 412 -124.5t223 -336.5l-160 -55q-41 171 -165 264.5t-310 93.5q-84 0 -162.5 -24t-148 -73t-121 -119t-81.5 -167.5t-30 -212.5
t30 -213.5t81.5 -168t121 -119t148 -73.5t162.5 -24q187 0 313.5 100.5t172.5 264.5l151 -56q-54 -195 -203 -320t-366 -143l-51 -79q12 4 30 4q82 0 133.5 -45t51.5 -117q0 -77 -60.5 -127.5t-173.5 -50.5q-70 0 -130 27.5t-93 68.5l67 80q69 -74 156 -74q47 0 78 19.5
t31 56.5q0 33 -27.5 53.5t-75.5 20.5q-33 0 -65 -13z" />
    <glyph glyph-name="Egrave" unicode="&#xc8;" horiz-adv-x="1183" 
d="M608 1554l-278 244h227l213 -244h-162zM1071 0h-870v1452h870v-158h-698v-489h635v-158h-635v-489h698v-158z" />
    <glyph glyph-name="Eacute" unicode="&#xc9;" horiz-adv-x="1183" 
d="M946 1798l-278 -244h-162l213 244h227zM1071 0h-870v1452h870v-158h-698v-489h635v-158h-635v-489h698v-158z" />
    <glyph glyph-name="Ecircumflex" unicode="&#xca;" horiz-adv-x="1183" 
d="M455 1554h-160l229 244h226l229 -244h-160l-182 152zM1071 0h-870v1452h870v-158h-698v-489h635v-158h-635v-489h698v-158z" />
    <glyph glyph-name="Edieresis" unicode="&#xcb;" horiz-adv-x="1183" 
d="M1071 0h-870v1452h870v-158h-698v-489h635v-158h-635v-489h698v-158zM309 1677q0 44 31.5 75.5t75.5 31.5t75 -31.5t31 -75.5t-31 -75t-75 -31t-75.5 31t-31.5 75zM756 1677q0 44 31 75.5t75 31.5t75.5 -31.5t31.5 -75.5t-31.5 -75t-75.5 -31t-75 31t-31 75z" />
    <glyph glyph-name="Igrave" unicode="&#xcc;" horiz-adv-x="573" 
d="M373 0h-172v1452h172v-1452zM205 1554l-279 244h228l213 -244h-162z" />
    <glyph glyph-name="Iacute" unicode="&#xcd;" horiz-adv-x="573" 
d="M373 0h-172v1452h172v-1452zM649 1798l-278 -244h-162l213 244h227z" />
    <glyph glyph-name="Icircumflex" unicode="&#xce;" horiz-adv-x="573" 
d="M373 0h-172v1452h172v-1452zM115 1554h-160l229 244h226l229 -244h-160l-182 152z" />
    <glyph glyph-name="Idieresis" unicode="&#xcf;" horiz-adv-x="573" 
d="M373 0h-172v1452h172v-1452zM35 1677q0 40 29.5 69.5t70.5 29.5t71 -29.5t30 -69.5t-30 -69t-71 -29t-70.5 29t-29.5 69zM338 1677q0 40 29.5 69.5t70.5 29.5t71 -29.5t30 -69.5t-30 -69t-71 -29t-70.5 29t-29.5 69z" />
    <glyph glyph-name="Eth" unicode="&#xd0;" horiz-adv-x="1480" 
d="M682 0h-477v678h-158v143h158v631h481q111 0 213 -29.5t189 -90t151 -146.5t100.5 -204.5t36.5 -258.5q0 -173 -56.5 -312.5t-152.5 -228t-220.5 -135.5t-264.5 -47zM377 152h305q108 0 201.5 36.5t165.5 105.5t113.5 179.5t41.5 249.5q0 140 -41 251t-112 181.5
t-164.5 107.5t-200.5 37h-309v-479h266v-143h-266v-526z" />
    <glyph glyph-name="Ntilde" unicode="&#xd1;" horiz-adv-x="1576" 
d="M1114 1796v-29q0 -103 -49 -160t-131 -57q-70 0 -141 47l-45 29q-51 33 -84 33q-36 0 -57 -25t-21 -75h-119v28q0 102 52.5 158.5t135.5 56.5q72 0 140 -45l45 -28q53 -33 84 -33q32 0 51.5 22t19.5 66v12h119zM1376 0h-180l-823 1229v-1229h-172v1452h225l778 -1163
v1163h172v-1452z" />
    <glyph glyph-name="Ograve" unicode="&#xd2;" horiz-adv-x="1642" 
d="M754 1554l-279 244h227l213 -244h-161zM274 727q0 -143 45.5 -259t123 -189t174.5 -111.5t204 -38.5q108 0 205 38.5t174 111.5t122.5 189t45.5 259t-45.5 258.5t-122.5 188t-174 111t-205 38.5q-85 0 -164.5 -24t-149.5 -73t-121.5 -119t-81.5 -167.5t-30 -212.5z
M102 727q0 176 61.5 321.5t163.5 238.5t229.5 143.5t264.5 50.5q109 0 213.5 -31.5t196 -95t160.5 -152t109 -211.5t40 -264t-40 -264t-109 -212t-160.5 -153t-196 -95.5t-213.5 -31.5t-213 31.5t-195.5 95.5t-161 153t-109.5 212t-40 264z" />
    <glyph glyph-name="Oacute" unicode="&#xd3;" horiz-adv-x="1642" 
d="M1167 1798l-278 -244h-162l213 244h227zM274 727q0 -143 45.5 -259t123 -189t174.5 -111.5t204 -38.5q108 0 205 38.5t174 111.5t122.5 189t45.5 259t-45.5 258.5t-122.5 188t-174 111t-205 38.5q-85 0 -164.5 -24t-149.5 -73t-121.5 -119t-81.5 -167.5t-30 -212.5z
M102 727q0 176 61.5 321.5t163.5 238.5t229.5 143.5t264.5 50.5q109 0 213.5 -31.5t196 -95t160.5 -152t109 -211.5t40 -264t-40 -264t-109 -212t-160.5 -153t-196 -95.5t-213.5 -31.5t-213 31.5t-195.5 95.5t-161 153t-109.5 212t-40 264z" />
    <glyph glyph-name="Ocircumflex" unicode="&#xd4;" horiz-adv-x="1642" 
d="M639 1554h-160l230 244h225l229 -244h-159l-183 152zM274 727q0 -143 45.5 -259t123 -189t174.5 -111.5t204 -38.5q108 0 205 38.5t174 111.5t122.5 189t45.5 259t-45.5 258.5t-122.5 188t-174 111t-205 38.5q-85 0 -164.5 -24t-149.5 -73t-121.5 -119t-81.5 -167.5
t-30 -212.5zM102 727q0 176 61.5 321.5t163.5 238.5t229.5 143.5t264.5 50.5q109 0 213.5 -31.5t196 -95t160.5 -152t109 -211.5t40 -264t-40 -264t-109 -212t-160.5 -153t-196 -95.5t-213.5 -31.5t-213 31.5t-195.5 95.5t-161 153t-109.5 212t-40 264z" />
    <glyph glyph-name="Otilde" unicode="&#xd5;" horiz-adv-x="1642" 
d="M1153 1798v-29q0 -103 -49 -160t-131 -57q-71 0 -142 47l-45 29q-51 33 -84 33q-77 0 -77 -100h-119v28q0 102 52.5 158.5t135.5 56.5q72 0 140 -45l45 -28q53 -33 84 -33q32 0 51.5 22t19.5 66v12h119zM274 727q0 -143 45.5 -259t123 -189t174.5 -111.5t204 -38.5
q108 0 205 38.5t174 111.5t122.5 189t45.5 259t-45.5 258.5t-122.5 188t-174 111t-205 38.5q-85 0 -164.5 -24t-149.5 -73t-121.5 -119t-81.5 -167.5t-30 -212.5zM102 727q0 176 61.5 321.5t163.5 238.5t229.5 143.5t264.5 50.5q109 0 213.5 -31.5t196 -95t160.5 -152
t109 -211.5t40 -264t-40 -264t-109 -212t-160.5 -153t-196 -95.5t-213.5 -31.5t-213 31.5t-195.5 95.5t-161 153t-109.5 212t-40 264z" />
    <glyph glyph-name="Odieresis" unicode="&#xd6;" horiz-adv-x="1642" 
d="M410 1677q0 44 31 75.5t75 31.5t75.5 -31.5t31.5 -75.5t-31.5 -75t-75.5 -31t-75 31t-31 75zM1020 1677q0 44 31 75.5t75 31.5t75.5 -31.5t31.5 -75.5t-31.5 -75t-75.5 -31t-75 31t-31 75zM274 727q0 -143 45.5 -259t123 -189t174.5 -111.5t204 -38.5q108 0 205 38.5
t174 111.5t122.5 189t45.5 259t-45.5 258.5t-122.5 188t-174 111t-205 38.5q-85 0 -164.5 -24t-149.5 -73t-121.5 -119t-81.5 -167.5t-30 -212.5zM102 727q0 176 61.5 321.5t163.5 238.5t229.5 143.5t264.5 50.5q109 0 213.5 -31.5t196 -95t160.5 -152t109 -211.5t40 -264
t-40 -264t-109 -212t-160.5 -153t-196 -95.5t-213.5 -31.5t-213 31.5t-195.5 95.5t-161 153t-109.5 212t-40 264z" />
    <glyph glyph-name="multiply" unicode="&#xd7;" horiz-adv-x="1103" 
d="M905 121l-356 366l-352 -364l-97 98l353 369l-353 364l101 101l350 -367l352 367l98 -99l-354 -366l357 -369z" />
    <glyph glyph-name="Oslash" unicode="&#xd8;" horiz-adv-x="1642" 
d="M102 727q0 176 61.5 321.5t163.5 238.5t229.5 143.5t264.5 50.5q222 0 402 -121l145 188l117 -90l-150 -192q205 -212 205 -539q0 -141 -40 -264t-109 -212t-160.5 -153t-196 -95.5t-213.5 -31.5q-215 0 -395 117l-145 -186l-121 90l149 192q-97 99 -152 237t-55 306z
M274 727q0 -251 136 -414l714 920q-137 90 -303 90q-85 0 -164.5 -24t-149.5 -73t-121.5 -119t-81.5 -167.5t-30 -212.5zM1368 727q0 249 -133 408l-713 -920q133 -86 299 -86q108 0 205 38.5t174 111.5t122.5 189t45.5 259z" />
    <glyph glyph-name="Ugrave" unicode="&#xd9;" horiz-adv-x="1396" 
d="M664 1554l-279 244h227l213 -244h-161zM698 -29q-228 0 -371 137t-143 384v960h172v-956q0 -175 89 -271t253 -96t253 96t89 271v956h172v-960q0 -247 -143 -384t-371 -137z" />
    <glyph glyph-name="Uacute" unicode="&#xda;" horiz-adv-x="1396" 
d="M1006 1798l-279 -244h-162l213 244h228zM698 -29q-228 0 -371 137t-143 384v960h172v-956q0 -175 89 -271t253 -96t253 96t89 271v956h172v-960q0 -247 -143 -384t-371 -137z" />
    <glyph glyph-name="Ucircumflex" unicode="&#xdb;" horiz-adv-x="1396" 
d="M516 1554h-160l230 244h225l229 -244h-159l-183 152zM698 -29q-228 0 -371 137t-143 384v960h172v-956q0 -175 89 -271t253 -96t253 96t89 271v956h172v-960q0 -247 -143 -384t-371 -137z" />
    <glyph glyph-name="Udieresis" unicode="&#xdc;" horiz-adv-x="1396" 
d="M698 -29q-228 0 -371 137t-143 384v960h172v-956q0 -175 89 -271t253 -96t253 96t89 271v956h172v-960q0 -247 -143 -384t-371 -137zM369 1677q0 44 31 75.5t75 31.5t75.5 -31.5t31.5 -75.5t-31.5 -75t-75.5 -31t-75 31t-31 75zM815 1677q0 44 31.5 75.5t75.5 31.5
t75 -31.5t31 -75.5t-31 -75t-75 -31t-75.5 31t-31.5 75z" />
    <glyph glyph-name="Yacute" unicode="&#xdd;" horiz-adv-x="1294" 
d="M561 621l-510 831h201l395 -674l395 674h201l-510 -831v-621h-172v621zM952 1798l-278 -244h-162l213 244h227z" />
    <glyph glyph-name="Thorn" unicode="&#xde;" horiz-adv-x="1220" 
d="M373 0h-172v1452h172v-287h334q198 0 322 -121t124 -305q0 -185 -123.5 -304.5t-322.5 -119.5h-334v-315zM373 469h307q138 0 219.5 73.5t81.5 194.5q0 125 -81 200t-220 75h-307v-543z" />
    <glyph glyph-name="germandbls" unicode="&#xdf;" horiz-adv-x="1146" 
d="M705 702q0 -35 20.5 -53t71.5 -43l73 -37q92 -46 150.5 -123.5t58.5 -177.5q0 -53 -20.5 -104.5t-59 -95t-103 -70.5t-144.5 -27q-85 0 -151 27.5t-103 72t-56 92t-20 95.5l147 39q0 -30 10 -61t30 -60.5t57 -48t86 -18.5q77 0 120 45t43 102q0 115 -120 172l-74 35
q-40 19 -66 35.5t-57 44.5t-47 66t-16 85q0 125 118 203l70 47q117 74 117 186q0 87 -65.5 146t-178.5 59q-117 0 -194.5 -88t-77.5 -248v-999h-164v1008q0 219 124 346t312 127q182 0 296 -98.5t114 -247.5q0 -186 -172 -297l-68 -43q-61 -40 -61 -93z" />
    <glyph glyph-name="agrave" unicode="&#xe0;" horiz-adv-x="1048" 
d="M90 260q0 125 79 199t214 94l264 39q51 7 69.5 27.5t18.5 56.5q0 87 -58 140.5t-169 53.5q-105 0 -169 -57.5t-75 -153.5l-155 37q15 139 125.5 226.5t269.5 87.5q101 0 178.5 -28t124 -77t69.5 -111t23 -135v-495q0 -102 12 -164h-159q-13 75 -13 147
q-38 -71 -121.5 -123.5t-203.5 -52.5q-146 0 -235 85.5t-89 203.5zM434 111q135 0 218 76.5t83 226.5v65l-319 -47q-74 -11 -118 -53t-44 -111q0 -63 49.5 -110t130.5 -47zM465 1108l-252 293h209l178 -293h-135z" />
    <glyph glyph-name="aacute" unicode="&#xe1;" horiz-adv-x="1048" 
d="M90 260q0 125 79 199t214 94l264 39q51 7 69.5 27.5t18.5 56.5q0 87 -58 140.5t-169 53.5q-105 0 -169 -57.5t-75 -153.5l-155 37q15 139 125.5 226.5t269.5 87.5q101 0 178.5 -28t124 -77t69.5 -111t23 -135v-495q0 -102 12 -164h-159q-13 75 -13 147
q-38 -71 -121.5 -123.5t-203.5 -52.5q-146 0 -235 85.5t-89 203.5zM434 111q135 0 218 76.5t83 226.5v65l-319 -47q-74 -11 -118 -53t-44 -111q0 -63 49.5 -110t130.5 -47zM823 1401l-252 -293h-135l178 293h209z" />
    <glyph glyph-name="acircumflex" unicode="&#xe2;" horiz-adv-x="1048" 
d="M356 1108h-151l217 283h194l215 -283h-151l-162 186zM90 260q0 125 79 199t214 94l264 39q51 7 69.5 27.5t18.5 56.5q0 87 -58 140.5t-169 53.5q-105 0 -169 -57.5t-75 -153.5l-155 37q15 139 125.5 226.5t269.5 87.5q101 0 178.5 -28t124 -77t69.5 -111t23 -135v-495
q0 -102 12 -164h-159q-13 75 -13 147q-38 -71 -121.5 -123.5t-203.5 -52.5q-146 0 -235 85.5t-89 203.5zM434 111q135 0 218 76.5t83 226.5v65l-319 -47q-74 -11 -118 -53t-44 -111q0 -63 49.5 -110t130.5 -47z" />
    <glyph glyph-name="atilde" unicode="&#xe3;" horiz-adv-x="1048" 
d="M90 260q0 125 79 199t214 94l264 39q51 7 69.5 27.5t18.5 56.5q0 87 -58 140.5t-169 53.5q-105 0 -169 -57.5t-75 -153.5l-155 37q15 139 125.5 226.5t269.5 87.5q101 0 178.5 -28t124 -77t69.5 -111t23 -135v-495q0 -102 12 -164h-159q-13 75 -13 147
q-38 -71 -121.5 -123.5t-203.5 -52.5q-146 0 -235 85.5t-89 203.5zM434 111q135 0 218 76.5t83 226.5v65l-319 -47q-74 -11 -118 -53t-44 -111q0 -63 49.5 -110t130.5 -47zM834 1370v-27q0 -102 -53 -157.5t-136 -55.5q-64 0 -133 48l-31 22q-51 35 -86 35
q-34 0 -50.5 -23.5t-16.5 -76.5h-127v28q0 102 52.5 156.5t135.5 54.5q76 0 139 -47l31 -22q45 -33 82 -33q68 0 68 98h125z" />
    <glyph glyph-name="adieresis" unicode="&#xe4;" horiz-adv-x="1048" 
d="M221 1262q0 44 31.5 75t75.5 31t75 -31t31 -75t-31 -75.5t-75 -31.5t-75.5 31.5t-31.5 75.5zM594 1262q0 44 31 75t75 31t75.5 -31t31.5 -75t-31.5 -75.5t-75.5 -31.5t-75 31.5t-31 75.5zM90 260q0 125 79 199t214 94l264 39q51 7 69.5 27.5t18.5 56.5q0 87 -58 140.5
t-169 53.5q-105 0 -169 -57.5t-75 -153.5l-155 37q15 139 125.5 226.5t269.5 87.5q101 0 178.5 -28t124 -77t69.5 -111t23 -135v-495q0 -102 12 -164h-159q-13 75 -13 147q-38 -71 -121.5 -123.5t-203.5 -52.5q-146 0 -235 85.5t-89 203.5zM434 111q135 0 218 76.5t83 226.5
v65l-319 -47q-74 -11 -118 -53t-44 -111q0 -63 49.5 -110t130.5 -47z" />
    <glyph glyph-name="aring" unicode="&#xe5;" horiz-adv-x="1048" 
d="M90 260q0 125 79 199t214 94l264 39q51 7 69.5 27.5t18.5 56.5q0 87 -58 140.5t-169 53.5q-105 0 -169 -57.5t-75 -153.5l-155 37q15 139 125.5 226.5t269.5 87.5q101 0 178.5 -28t124 -77t69.5 -111t23 -135v-495q0 -102 12 -164h-159q-13 75 -13 147
q-38 -71 -121.5 -123.5t-203.5 -52.5q-146 0 -235 85.5t-89 203.5zM434 111q135 0 218 76.5t83 226.5v65l-319 -47q-74 -11 -118 -53t-44 -111q0 -63 49.5 -110t130.5 -47zM512 1085q-92 0 -157.5 65t-65.5 157q0 93 65 157t158 64t158 -64t65 -157q0 -92 -65.5 -157
t-157.5 -65zM403 1307q0 -48 31 -80.5t78 -32.5t78 32.5t31 80.5t-31 80t-78 32t-78 -32t-31 -80z" />
    <glyph glyph-name="ae" unicode="&#xe6;" horiz-adv-x="1751" 
d="M504 1010q254 0 348 -172q66 83 156 127.5t192 44.5q219 0 341 -138.5t122 -367.5q0 -30 -4 -58h-756v-8q0 -138 92 -228.5t226 -90.5q117 0 190 58t105 153l141 -51q-44 -135 -158 -221.5t-276 -86.5q-129 0 -238 59.5t-174 170.5q-47 -100 -144.5 -165t-252.5 -65
q-146 0 -235 85.5t-89 203.5q0 125 79 199t214 94l264 39q51 7 69.5 27.5t18.5 56.5q0 87 -58 140.5t-169 53.5q-105 0 -169 -57.5t-75 -153.5l-155 37q15 139 125.5 226.5t269.5 87.5zM434 111q135 0 218 76.5t83 226.5v65l-319 -47q-74 -11 -118 -53t-44 -111
q0 -63 49.5 -110t130.5 -47zM907 586h586q-3 122 -79.5 200t-211.5 78q-123 0 -205 -82t-90 -196z" />
    <glyph glyph-name="ccedilla" unicode="&#xe7;" horiz-adv-x="1089" 
d="M514 -201l-59 70l65 106q-190 22 -309 165t-119 352q0 227 138.5 372.5t347.5 145.5q176 0 286 -90t144 -220l-148 -63q-11 42 -31.5 79.5t-53 71.5t-83.5 54t-114 20q-135 0 -228.5 -99t-93.5 -271q0 -171 94 -272t230 -101q66 0 119 21t86.5 56.5t54 70t32.5 73.5
l144 -64q-17 -52 -47.5 -100t-75 -90.5t-109 -72t-139.5 -38.5l-53 -79q12 4 31 4q82 0 133 -45t51 -117q0 -77 -60.5 -127.5t-173.5 -50.5q-70 0 -130 27.5t-93 68.5l68 80q69 -74 155 -74q47 0 78 19.5t31 56.5q0 33 -27 53.5t-75 20.5q-34 0 -66 -13z" />
    <glyph glyph-name="egrave" unicode="&#xe8;" horiz-adv-x="1107" 
d="M264 586h586q-3 122 -79.5 200t-211.5 78q-123 0 -205 -82t-90 -196zM872 330l142 -51q-44 -135 -158.5 -221.5t-277.5 -86.5q-99 0 -186.5 36t-154.5 101.5t-106 165.5t-39 220q0 113 38 210.5t101.5 164t148 104t177.5 37.5q219 0 341 -138.5t122 -367.5q0 -30 -4 -58
h-756v-8q0 -138 92 -228.5t226 -90.5q117 0 189.5 57.5t104.5 153.5zM524 1108l-252 293h209l178 -293h-135z" />
    <glyph glyph-name="eacute" unicode="&#xe9;" horiz-adv-x="1107" 
d="M874 1401l-251 -293h-136l179 293h208zM264 586h586q-3 122 -79.5 200t-211.5 78q-123 0 -205 -82t-90 -196zM872 330l142 -51q-44 -135 -158.5 -221.5t-277.5 -86.5q-99 0 -186.5 36t-154.5 101.5t-106 165.5t-39 220q0 113 38 210.5t101.5 164t148 104t177.5 37.5
q219 0 341 -138.5t122 -367.5q0 -30 -4 -58h-756v-8q0 -138 92 -228.5t226 -90.5q117 0 189.5 57.5t104.5 153.5z" />
    <glyph glyph-name="ecircumflex" unicode="&#xea;" horiz-adv-x="1107" 
d="M410 1108h-152l217 283h195l215 -283h-152l-162 186zM264 586h586q-3 122 -79.5 200t-211.5 78q-123 0 -205 -82t-90 -196zM872 330l142 -51q-44 -135 -158.5 -221.5t-277.5 -86.5q-99 0 -186.5 36t-154.5 101.5t-106 165.5t-39 220q0 113 38 210.5t101.5 164t148 104
t177.5 37.5q219 0 341 -138.5t122 -367.5q0 -30 -4 -58h-756v-8q0 -138 92 -228.5t226 -90.5q117 0 189.5 57.5t104.5 153.5z" />
    <glyph glyph-name="edieresis" unicode="&#xeb;" horiz-adv-x="1107" 
d="M274 1262q0 44 31.5 75t75.5 31t75 -31t31 -75t-31 -75.5t-75 -31.5t-75.5 31.5t-31.5 75.5zM647 1262q0 44 31.5 75t75.5 31t75 -31t31 -75t-31 -75.5t-75 -31.5t-75.5 31.5t-31.5 75.5zM264 586h586q-3 122 -79.5 200t-211.5 78q-123 0 -205 -82t-90 -196zM872 330
l142 -51q-44 -135 -158.5 -221.5t-277.5 -86.5q-99 0 -186.5 36t-154.5 101.5t-106 165.5t-39 220q0 113 38 210.5t101.5 164t148 104t177.5 37.5q219 0 341 -138.5t122 -367.5q0 -30 -4 -58h-756v-8q0 -138 92 -228.5t226 -90.5q117 0 189.5 57.5t104.5 153.5z" />
    <glyph glyph-name="igrave" unicode="&#xec;" horiz-adv-x="483" 
d="M324 0h-164v981h164v-981zM184 1108l-252 293h209l178 -293h-135z" />
    <glyph glyph-name="iacute" unicode="&#xed;" horiz-adv-x="483" 
d="M561 1401l-252 -293h-135l178 293h209zM324 0h-164v981h164v-981z" />
    <glyph glyph-name="icircumflex" unicode="&#xee;" horiz-adv-x="483" 
d="M84 1108h-152l218 283h194l215 -283h-151l-162 186zM324 0h-164v981h164v-981z" />
    <glyph glyph-name="idieresis" unicode="&#xef;" horiz-adv-x="483" 
d="M324 0h-164v981h164v-981zM2 1262q0 41 29.5 70.5t70.5 29.5t71 -29.5t30 -70.5t-30 -71t-71 -30t-70.5 30t-29.5 71zM281 1262q0 41 29.5 70.5t70.5 29.5t70.5 -29.5t29.5 -70.5t-29.5 -71t-70.5 -30t-70.5 30t-29.5 71z" />
    <glyph glyph-name="eth" unicode="&#xf0;" horiz-adv-x="1183" 
d="M973 1319l-178 -88q129 -123 205.5 -299.5t76.5 -403.5q0 -158 -57.5 -283t-170.5 -198.5t-265 -73.5q-215 0 -353.5 140t-138.5 352q0 109 39.5 201.5t105.5 153.5t149.5 94.5t172.5 33.5q100 0 180.5 -32t126.5 -95q-64 197 -219 336l-268 -135l-51 111l207 102
q-107 71 -252 113l51 133q76 -17 172 -59.5t186 -106.5l226 112zM584 121q141 0 233 95.5t92 256.5q0 155 -94 245.5t-231 90.5t-231.5 -93t-94.5 -251t93.5 -251t232.5 -93z" />
    <glyph glyph-name="ntilde" unicode="&#xf1;" horiz-adv-x="1124" 
d="M901 1370v-27q0 -102 -52.5 -157.5t-135.5 -55.5q-64 0 -133 48l-31 22q-51 35 -86 35t-51.5 -23.5t-16.5 -76.5h-127v28q0 102 53 156.5t136 54.5q76 0 139 -47l31 -22q45 -33 82 -33q34 0 50.5 23t16.5 75h125zM324 578v-578h-164v981h159v-147q46 85 128 130.5
t180 45.5q170 0 260 -106.5t90 -274.5v-629h-164v604q0 116 -59 187t-185 71q-114 0 -179.5 -81.5t-65.5 -202.5z" />
    <glyph glyph-name="ograve" unicode="&#xf2;" horiz-adv-x="1167" 
d="M524 1108l-252 293h209l178 -293h-135zM584 1010q213 0 352 -146.5t139 -371.5q0 -227 -139 -374t-352 -147t-352.5 147t-139.5 374q0 225 139.5 371.5t352.5 146.5zM584 862q-138 0 -233 -99t-95 -271q0 -173 95 -273t233 -100t232.5 100t94.5 273q0 172 -94.5 271
t-232.5 99z" />
    <glyph glyph-name="oacute" unicode="&#xf3;" horiz-adv-x="1167" 
d="M877 1401l-252 -293h-136l179 293h209zM584 1010q213 0 352 -146.5t139 -371.5q0 -227 -139 -374t-352 -147t-352.5 147t-139.5 374q0 225 139.5 371.5t352.5 146.5zM584 862q-138 0 -233 -99t-95 -271q0 -173 95 -273t233 -100t232.5 100t94.5 273q0 172 -94.5 271
t-232.5 99z" />
    <glyph glyph-name="ocircumflex" unicode="&#xf4;" horiz-adv-x="1167" 
d="M422 1108h-152l217 283h195l215 -283h-152l-161 186zM584 1010q213 0 352 -146.5t139 -371.5q0 -227 -139 -374t-352 -147t-352.5 147t-139.5 374q0 225 139.5 371.5t352.5 146.5zM584 862q-138 0 -233 -99t-95 -271q0 -173 95 -273t233 -100t232.5 100t94.5 273
q0 172 -94.5 271t-232.5 99z" />
    <glyph glyph-name="otilde" unicode="&#xf5;" horiz-adv-x="1167" 
d="M584 1010q213 0 352 -146.5t139 -371.5q0 -227 -139 -374t-352 -147t-352.5 147t-139.5 374q0 225 139.5 371.5t352.5 146.5zM584 862q-138 0 -233 -99t-95 -271q0 -173 95 -273t233 -100t232.5 100t94.5 273q0 172 -94.5 271t-232.5 99zM903 1370v-27
q0 -102 -52.5 -157.5t-135.5 -55.5q-64 0 -133 48l-31 22q-51 35 -86 35t-51.5 -23.5t-16.5 -76.5h-127v28q0 102 53 156.5t136 54.5q76 0 139 -47l31 -22q45 -33 82 -33q34 0 50.5 23t16.5 75h125z" />
    <glyph glyph-name="odieresis" unicode="&#xf6;" horiz-adv-x="1167" 
d="M289 1262q0 44 31 75t75 31t75.5 -31t31.5 -75t-31.5 -75.5t-75.5 -31.5t-75 31.5t-31 75.5zM662 1262q0 44 31 75t75 31t75 -31t31 -75t-31 -75.5t-75 -31.5t-75 31.5t-31 75.5zM584 1010q213 0 352 -146.5t139 -371.5q0 -227 -139 -374t-352 -147t-352.5 147
t-139.5 374q0 225 139.5 371.5t352.5 146.5zM584 862q-138 0 -233 -99t-95 -271q0 -173 95 -273t233 -100t232.5 100t94.5 273q0 172 -94.5 271t-232.5 99z" />
    <glyph glyph-name="divide" unicode="&#xf7;" horiz-adv-x="1155" 
d="M457 225q0 47 35.5 82t82.5 35q49 0 83 -34.5t34 -82.5t-34 -83.5t-83 -35.5q-47 0 -82.5 36t-35.5 83zM457 952q0 47 35.5 82t82.5 35q49 0 83 -34.5t34 -82.5t-34 -83t-83 -35q-47 0 -82.5 35.5t-35.5 82.5zM117 516v146h921v-146h-921z" />
    <glyph glyph-name="oslash" unicode="&#xf8;" horiz-adv-x="1171" 
d="M586 1010q142 0 262 -74l104 137l105 -84l-109 -139q129 -142 129 -358q0 -227 -139 -374t-352 -147q-140 0 -262 72l-105 -135l-104 84l106 139q-127 143 -127 361q0 225 139.5 371.5t352.5 146.5zM913 492q0 136 -63 231l-432 -559q71 -45 168 -45q138 0 232.5 100
t94.5 273zM586 862q-138 0 -233 -99t-95 -271q0 -142 64 -234l432 557q-74 47 -168 47z" />
    <glyph glyph-name="ugrave" unicode="&#xf9;" horiz-adv-x="1126" 
d="M811 133q-35 -74 -116 -118t-179 -44q-115 0 -200 53.5t-127 142t-42 198.5v616h164v-590q0 -56 13.5 -103.5t41.5 -86t76 -60.5t111 -22q118 0 184 74.5t66 195.5v592h164v-797q0 -106 12 -184h-158q-10 38 -10 125v8zM524 1108l-252 293h209l178 -293h-135z" />
    <glyph glyph-name="uacute" unicode="&#xfa;" horiz-adv-x="1126" 
d="M829 1401l-251 -293h-136l179 293h208zM811 133q-35 -74 -116 -118t-179 -44q-115 0 -200 53.5t-127 142t-42 198.5v616h164v-590q0 -56 13.5 -103.5t41.5 -86t76 -60.5t111 -22q118 0 184 74.5t66 195.5v592h164v-797q0 -106 12 -184h-158q-10 38 -10 125v8z" />
    <glyph glyph-name="ucircumflex" unicode="&#xfb;" horiz-adv-x="1126" 
d="M395 1108h-151l217 283h194l215 -283h-151l-162 186zM811 133q-35 -74 -116 -118t-179 -44q-115 0 -200 53.5t-127 142t-42 198.5v616h164v-590q0 -56 13.5 -103.5t41.5 -86t76 -60.5t111 -22q118 0 184 74.5t66 195.5v592h164v-797q0 -106 12 -184h-158q-10 38 -10 125
v8z" />
    <glyph glyph-name="udieresis" unicode="&#xfc;" horiz-adv-x="1126" 
d="M262 1262q0 44 31.5 75t75.5 31t75 -31t31 -75t-31 -75.5t-75 -31.5t-75.5 31.5t-31.5 75.5zM635 1262q0 44 31 75t75 31t75.5 -31t31.5 -75t-31.5 -75.5t-75.5 -31.5t-75 31.5t-31 75.5zM811 133q-35 -74 -116 -118t-179 -44q-115 0 -200 53.5t-127 142t-42 198.5v616
h164v-590q0 -56 13.5 -103.5t41.5 -86t76 -60.5t111 -22q118 0 184 74.5t66 195.5v592h164v-797q0 -106 12 -184h-158q-10 38 -10 125v8z" />
    <glyph glyph-name="yacute" unicode="&#xfd;" horiz-adv-x="1071" 
d="M410 -389h-183l238 506l-422 864h188l324 -694l305 694h178zM821 1401l-252 -293h-135l178 293h209z" />
    <glyph glyph-name="thorn" unicode="&#xfe;" horiz-adv-x="1200" 
d="M160 1481h164v-664q39 82 126 137.5t209 55.5q210 0 328.5 -145.5t118.5 -372.5q0 -147 -53 -264.5t-156.5 -187t-241.5 -69.5q-117 0 -202.5 52t-128.5 129v-541h-164v1870zM631 119q140 0 225.5 104.5t85.5 268.5t-85 267t-226 103t-226.5 -103t-85.5 -267t86 -268.5
t226 -104.5z" />
    <glyph glyph-name="ydieresis" unicode="&#xff;" horiz-adv-x="1071" 
d="M246 1262q0 44 31 75t75 31t75.5 -31t31.5 -75t-31.5 -75.5t-75.5 -31.5t-75 31.5t-31 75.5zM618 1262q0 44 31.5 75t75.5 31t75 -31t31 -75t-31 -75.5t-75 -31.5t-75.5 31.5t-31.5 75.5zM410 -389h-183l238 506l-422 864h188l324 -694l305 694h178z" />
    <glyph glyph-name="Amacron" unicode="&#x100;" horiz-adv-x="1445" 
d="M1221 0l-166 424h-666l-162 -424h-186l582 1452h200l584 -1452h-186zM721 1276l-270 -694h542zM1012 1610h-582v143h582v-143z" />
    <glyph glyph-name="amacron" unicode="&#x101;" horiz-adv-x="1048" 
d="M90 260q0 125 79 199t214 94l264 39q51 7 69.5 27.5t18.5 56.5q0 87 -58 140.5t-169 53.5q-105 0 -169 -57.5t-75 -153.5l-155 37q15 139 125.5 226.5t269.5 87.5q101 0 178.5 -28t124 -77t69.5 -111t23 -135v-495q0 -102 12 -164h-159q-13 75 -13 147
q-38 -71 -121.5 -123.5t-203.5 -52.5q-146 0 -235 85.5t-89 203.5zM434 111q135 0 218 76.5t83 226.5v65l-319 -47q-74 -11 -118 -53t-44 -111q0 -63 49.5 -110t130.5 -47zM786 1184h-542v143h542v-143z" />
    <glyph glyph-name="Abreve" unicode="&#x102;" horiz-adv-x="1445" 
d="M1221 0l-166 424h-666l-162 -424h-186l582 1452h200l584 -1452h-186zM721 1276l-270 -694h542zM723 1542q-139 0 -221 78t-90 186h141q7 -52 48.5 -91.5t121.5 -39.5t121.5 39.5t48.5 91.5h141q-8 -108 -90 -186t-221 -78z" />
    <glyph glyph-name="abreve" unicode="&#x103;" horiz-adv-x="1048" 
d="M90 260q0 125 79 199t214 94l264 39q51 7 69.5 27.5t18.5 56.5q0 87 -58 140.5t-169 53.5q-105 0 -169 -57.5t-75 -153.5l-155 37q15 139 125.5 226.5t269.5 87.5q101 0 178.5 -28t124 -77t69.5 -111t23 -135v-495q0 -102 12 -164h-159q-13 75 -13 147
q-38 -71 -121.5 -123.5t-203.5 -52.5q-146 0 -235 85.5t-89 203.5zM434 111q135 0 218 76.5t83 226.5v65l-319 -47q-74 -11 -118 -53t-44 -111q0 -63 49.5 -110t130.5 -47zM510 1110q-138 0 -215.5 86.5t-77.5 204.5h127q3 -65 44.5 -110.5t121.5 -45.5t121.5 45.5
t44.5 110.5h127q0 -118 -77.5 -204.5t-215.5 -86.5z" />
    <glyph glyph-name="Aogonek" unicode="&#x104;" horiz-adv-x="1445" 
d="M1221 0l-166 424h-666l-162 -424h-186l582 1452h200l584 -1452q-172 -88 -172 -207q0 -51 34.5 -77.5t82.5 -26.5q35 0 67 8v-119q-44 -14 -98 -14q-95 0 -160 53t-65 145q0 147 147 238h-22zM721 1276l-270 -694h542z" />
    <glyph glyph-name="aogonek" unicode="&#x105;" horiz-adv-x="1048" 
d="M600 -238q0 150 152 238q-13 75 -13 147q-38 -71 -121.5 -123.5t-203.5 -52.5q-146 0 -235 85.5t-89 203.5q0 125 79 199t214 94l264 39q51 7 69.5 27.5t18.5 56.5q0 87 -58 140.5t-169 53.5q-105 0 -169 -57.5t-75 -153.5l-155 37q15 139 125.5 226.5t269.5 87.5
q101 0 178.5 -28t124 -77t69.5 -111t23 -135v-495q0 -102 12 -164q-172 -88 -172 -207q0 -51 34.5 -77.5t82.5 -26.5q36 0 68 8v-119q-44 -14 -99 -14q-95 0 -160 53t-65 145zM434 111q135 0 218 76.5t83 226.5v65l-319 -47q-74 -11 -118 -53t-44 -111q0 -63 49.5 -110
t130.5 -47z" />
    <glyph glyph-name="Cacute" unicode="&#x106;" horiz-adv-x="1527" 
d="M1165 1798l-278 -244h-162l213 244h227zM817 -29q-140 0 -267.5 51t-228 144.5t-160 239t-59.5 321.5q0 141 40 264t109 211.5t160 152t194.5 95t211.5 31.5q244 0 412 -124.5t223 -336.5l-160 -55q-41 171 -165 264.5t-310 93.5q-84 0 -162.5 -24t-148 -73t-121 -119
t-81.5 -167.5t-30 -212.5t30 -213.5t81.5 -168t121 -119t148 -73.5t162.5 -24q187 0 313.5 100.5t172.5 264.5l151 -56q-57 -210 -225.5 -338.5t-411.5 -128.5z" />
    <glyph glyph-name="cacute" unicode="&#x107;" horiz-adv-x="1089" 
d="M879 1401l-252 -293h-135l178 293h209zM578 862q-135 0 -228.5 -99t-93.5 -271q0 -171 94 -272t230 -101q66 0 119 21t86.5 56.5t54 70t32.5 73.5l144 -64q-19 -58 -53.5 -109.5t-86.5 -97t-129 -72t-167 -26.5q-212 0 -350 148t-138 373q0 227 138.5 372.5t347.5 145.5
q176 0 286 -90t144 -220l-148 -63q-11 42 -31.5 79.5t-53 71.5t-83.5 54t-114 20z" />
    <glyph glyph-name="Ccircumflex" unicode="&#x108;" horiz-adv-x="1527" 
d="M647 1554h-160l230 244h225l229 -244h-159l-183 152zM817 -29q-140 0 -267.5 51t-228 144.5t-160 239t-59.5 321.5q0 141 40 264t109 211.5t160 152t194.5 95t211.5 31.5q244 0 412 -124.5t223 -336.5l-160 -55q-41 171 -165 264.5t-310 93.5q-84 0 -162.5 -24t-148 -73
t-121 -119t-81.5 -167.5t-30 -212.5t30 -213.5t81.5 -168t121 -119t148 -73.5t162.5 -24q187 0 313.5 100.5t172.5 264.5l151 -56q-57 -210 -225.5 -338.5t-411.5 -128.5z" />
    <glyph glyph-name="ccircumflex" unicode="&#x109;" horiz-adv-x="1089" 
d="M418 1108h-152l217 283h195l215 -283h-152l-161 186zM578 862q-135 0 -228.5 -99t-93.5 -271q0 -171 94 -272t230 -101q66 0 119 21t86.5 56.5t54 70t32.5 73.5l144 -64q-19 -58 -53.5 -109.5t-86.5 -97t-129 -72t-167 -26.5q-212 0 -350 148t-138 373q0 227 138.5 372.5
t347.5 145.5q176 0 286 -90t144 -220l-148 -63q-11 42 -31.5 79.5t-53 71.5t-83.5 54t-114 20z" />
    <glyph glyph-name="Cdotaccent" unicode="&#x10a;" horiz-adv-x="1527" 
d="M817 -29q-140 0 -267.5 51t-228 144.5t-160 239t-59.5 321.5q0 141 40 264t109 211.5t160 152t194.5 95t211.5 31.5q244 0 412 -124.5t223 -336.5l-160 -55q-41 171 -165 264.5t-310 93.5q-84 0 -162.5 -24t-148 -73t-121 -119t-81.5 -167.5t-30 -212.5t30 -213.5
t81.5 -168t121 -119t148 -73.5t162.5 -24q187 0 313.5 100.5t172.5 264.5l151 -56q-57 -210 -225.5 -338.5t-411.5 -128.5zM821 1561q-48 0 -82 33.5t-34 82.5t34 83t82 34t82.5 -34t34.5 -83t-34.5 -82.5t-82.5 -33.5z" />
    <glyph glyph-name="cdotaccent" unicode="&#x10b;" horiz-adv-x="1089" 
d="M578 862q-135 0 -228.5 -99t-93.5 -271q0 -171 94 -272t230 -101q66 0 119 21t86.5 56.5t54 70t32.5 73.5l144 -64q-19 -58 -53.5 -109.5t-86.5 -97t-129 -72t-167 -26.5q-212 0 -350 148t-138 373q0 227 138.5 372.5t347.5 145.5q176 0 286 -90t144 -220l-148 -63
q-11 42 -31.5 79.5t-53 71.5t-83.5 54t-114 20zM469 1255q0 47 33.5 80t79.5 33t79 -33t33 -80t-33 -79.5t-79 -32.5t-79.5 32.5t-33.5 79.5z" />
    <glyph glyph-name="Ccaron" unicode="&#x10c;" horiz-adv-x="1527" 
d="M1001 1798h160l-229 -244h-225l-230 244h160l182 -151zM817 -29q-140 0 -267.5 51t-228 144.5t-160 239t-59.5 321.5q0 141 40 264t109 211.5t160 152t194.5 95t211.5 31.5q244 0 412 -124.5t223 -336.5l-160 -55q-41 171 -165 264.5t-310 93.5q-84 0 -162.5 -24
t-148 -73t-121 -119t-81.5 -167.5t-30 -212.5t30 -213.5t81.5 -168t121 -119t148 -73.5t162.5 -24q187 0 313.5 100.5t172.5 264.5l151 -56q-57 -210 -225.5 -338.5t-411.5 -128.5z" />
    <glyph glyph-name="ccaron" unicode="&#x10d;" horiz-adv-x="1089" 
d="M252 1391h151l162 -187l162 187h152l-215 -283h-195zM578 862q-135 0 -228.5 -99t-93.5 -271q0 -171 94 -272t230 -101q66 0 119 21t86.5 56.5t54 70t32.5 73.5l144 -64q-19 -58 -53.5 -109.5t-86.5 -97t-129 -72t-167 -26.5q-212 0 -350 148t-138 373q0 227 138.5 372.5
t347.5 145.5q176 0 286 -90t144 -220l-148 -63q-11 42 -31.5 79.5t-53 71.5t-83.5 54t-114 20z" />
    <glyph glyph-name="Dcaron" unicode="&#x10e;" horiz-adv-x="1476" 
d="M913 1798h160l-229 -244h-226l-229 244h160l182 -151zM373 152h305q108 0 201.5 36.5t165.5 105.5t113.5 179.5t41.5 249.5q0 140 -41 251t-112 181.5t-164.5 107.5t-200.5 37h-309v-1148zM678 0h-477v1452h481q111 0 213 -29.5t189 -90t151 -146.5t100.5 -204.5
t36.5 -258.5q0 -173 -56.5 -312.5t-152.5 -228t-220.5 -135.5t-264.5 -47z" />
    <glyph glyph-name="dcaron" unicode="&#x10f;" horiz-adv-x="1189" 
d="M1368 1481l-125 -365h-121l64 365h182zM870 141v27q-38 -82 -120.5 -139.5t-200.5 -57.5q-207 0 -331 148.5t-124 372.5q0 142 56 260t160.5 188t238.5 70q128 0 207.5 -56.5t109.5 -130.5v658h164v-1297q0 -134 10 -184h-159q-11 63 -11 141zM563 119q137 0 222 104.5
t85 268.5t-84.5 267t-222.5 103t-221.5 -103t-83.5 -267t84 -268.5t221 -104.5z" />
    <glyph glyph-name="Dcroat" unicode="&#x110;" horiz-adv-x="1480" 
d="M682 0h-477v678h-158v143h158v631h481q111 0 213 -29.5t189 -90t151 -146.5t100.5 -204.5t36.5 -258.5q0 -173 -56.5 -312.5t-152.5 -228t-220.5 -135.5t-264.5 -47zM377 152h305q108 0 201.5 36.5t165.5 105.5t113.5 179.5t41.5 249.5q0 140 -41 251t-112 181.5
t-164.5 107.5t-200.5 37h-309v-479h266v-143h-266v-526z" />
    <glyph glyph-name="dcroat" unicode="&#x111;" horiz-adv-x="1189" 
d="M870 141v27q-38 -82 -120.5 -139.5t-200.5 -57.5q-207 0 -331 148.5t-124 372.5q0 142 56 260t160.5 188t238.5 70q128 0 207.5 -56.5t109.5 -130.5v324h-268v135h268v199h164v-199h170v-135h-170v-963q0 -134 10 -184h-159q-11 63 -11 141zM563 119q137 0 222 104.5
t85 268.5t-84.5 267t-222.5 103t-221.5 -103t-83.5 -267t84 -268.5t221 -104.5z" />
    <glyph glyph-name="Emacron" unicode="&#x112;" horiz-adv-x="1183" 
d="M1071 0h-870v1452h870v-158h-698v-489h635v-158h-635v-489h698v-158zM924 1610h-582v143h582v-143z" />
    <glyph glyph-name="emacron" unicode="&#x113;" horiz-adv-x="1107" 
d="M844 1184h-543v143h543v-143zM264 586h586q-3 122 -79.5 200t-211.5 78q-123 0 -205 -82t-90 -196zM872 330l142 -51q-44 -135 -158.5 -221.5t-277.5 -86.5q-99 0 -186.5 36t-154.5 101.5t-106 165.5t-39 220q0 113 38 210.5t101.5 164t148 104t177.5 37.5
q219 0 341 -138.5t122 -367.5q0 -30 -4 -58h-756v-8q0 -138 92 -228.5t226 -90.5q117 0 189.5 57.5t104.5 153.5z" />
    <glyph glyph-name="Ebreve" unicode="&#x114;" horiz-adv-x="1183" 
d="M641 1542q-139 0 -221 78t-90 186h141q7 -52 48.5 -91.5t121.5 -39.5t121.5 39.5t48.5 91.5h141q-8 -108 -90 -186t-221 -78zM1071 0h-870v1452h870v-158h-698v-489h635v-158h-635v-489h698v-158z" />
    <glyph glyph-name="ebreve" unicode="&#x115;" horiz-adv-x="1107" 
d="M264 586h586q-3 122 -79.5 200t-211.5 78q-123 0 -205 -82t-90 -196zM872 330l142 -51q-44 -135 -158.5 -221.5t-277.5 -86.5q-99 0 -186.5 36t-154.5 101.5t-106 165.5t-39 220q0 113 38 210.5t101.5 164t148 104t177.5 37.5q219 0 341 -138.5t122 -367.5q0 -30 -4 -58
h-756v-8q0 -138 92 -228.5t226 -90.5q117 0 189.5 57.5t104.5 153.5zM571 1110q-138 0 -215 86.5t-77 204.5h127q3 -66 44 -111t121 -45t121.5 45.5t44.5 110.5h127q0 -118 -77.5 -204.5t-215.5 -86.5z" />
    <glyph glyph-name="Edotaccent" unicode="&#x116;" horiz-adv-x="1183" 
d="M639 1561q-48 0 -82.5 33.5t-34.5 82.5t34.5 83t82.5 34t82.5 -34t34.5 -83t-34.5 -82.5t-82.5 -33.5zM1071 0h-870v1452h870v-158h-698v-489h635v-158h-635v-489h698v-158z" />
    <glyph glyph-name="edotaccent" unicode="&#x117;" horiz-adv-x="1107" 
d="M264 586h586q-3 122 -79.5 200t-211.5 78q-123 0 -205 -82t-90 -196zM872 330l142 -51q-44 -135 -158.5 -221.5t-277.5 -86.5q-99 0 -186.5 36t-154.5 101.5t-106 165.5t-39 220q0 113 38 210.5t101.5 164t148 104t177.5 37.5q219 0 341 -138.5t122 -367.5q0 -30 -4 -58
h-756v-8q0 -138 92 -228.5t226 -90.5q117 0 189.5 57.5t104.5 153.5zM461 1255q0 47 33 80t79 33t79.5 -33t33.5 -80t-33.5 -79.5t-79.5 -32.5t-79 32.5t-33 79.5z" />
    <glyph glyph-name="Eogonek" unicode="&#x118;" horiz-adv-x="1183" 
d="M760 -238q0 147 147 238h-706v1452h870v-158h-698v-489h635v-158h-635v-489h698v-158q-172 -88 -172 -207q0 -51 34.5 -77.5t82.5 -26.5q35 0 67 8v-119q-44 -14 -98 -14q-95 0 -160 53t-65 145z" />
    <glyph glyph-name="eogonek" unicode="&#x119;" horiz-adv-x="1107" 
d="M436 -238q0 124 109 211q-93 5 -175.5 43.5t-144 103.5t-97.5 162t-36 212q0 113 38 210.5t101.5 164t148 104t177.5 37.5q219 0 341 -138.5t122 -367.5q0 -30 -4 -58h-756v-8q0 -138 92 -228.5t226 -90.5q117 0 189.5 57.5t104.5 153.5l142 -51q-64 -193 -252 -273
q-72 -30 -129.5 -86.5t-57.5 -126.5q0 -51 34.5 -77.5t82.5 -26.5q36 0 68 8v-119q-44 -14 -98 -14q-95 0 -160.5 53t-65.5 145zM264 586h586q-3 122 -79.5 200t-211.5 78q-123 0 -205 -82t-90 -196z" />
    <glyph glyph-name="Ecaron" unicode="&#x11a;" horiz-adv-x="1183" 
d="M834 1798h159l-229 -244h-225l-230 244h160l182 -151zM1071 0h-870v1452h870v-158h-698v-489h635v-158h-635v-489h698v-158z" />
    <glyph glyph-name="ecaron" unicode="&#x11b;" horiz-adv-x="1107" 
d="M258 1391h152l161 -187l162 187h152l-215 -283h-195zM264 586h586q-3 122 -79.5 200t-211.5 78q-123 0 -205 -82t-90 -196zM872 330l142 -51q-44 -135 -158.5 -221.5t-277.5 -86.5q-99 0 -186.5 36t-154.5 101.5t-106 165.5t-39 220q0 113 38 210.5t101.5 164t148 104
t177.5 37.5q219 0 341 -138.5t122 -367.5q0 -30 -4 -58h-756v-8q0 -138 92 -228.5t226 -90.5q117 0 189.5 57.5t104.5 153.5z" />
    <glyph glyph-name="Gcircumflex" unicode="&#x11c;" horiz-adv-x="1579" 
d="M635 1554h-160l230 244h225l229 -244h-160l-182 152zM1446 0h-139l-17 236q-25 -48 -65 -92t-99.5 -84.5t-144 -64.5t-182.5 -24q-107 0 -208 31t-189.5 94t-155 151.5t-104.5 212.5t-38 267q0 142 39.5 265.5t108 212t159.5 151.5t193.5 94t210.5 31q232 0 403.5 -119.5
t235.5 -317.5l-156 -67q-51 163 -178 254.5t-305 91.5q-83 0 -160.5 -23t-146.5 -72t-120.5 -118.5t-81.5 -168t-30 -214.5q0 -144 45 -260.5t120 -189t168.5 -110.5t195.5 -38q99 0 181 27.5t134.5 71t89 99.5t52.5 110.5t18 107.5h-518v157h684v-702z" />
    <glyph glyph-name="gcircumflex" unicode="&#x11d;" horiz-adv-x="1171" 
d="M410 1108h-152l217 283h195l215 -283h-152l-162 186zM92 -55l158 39q12 -110 90 -182t195 -72q313 0 313 338v157q-37 -78 -117.5 -130t-193.5 -52q-194 0 -318.5 137t-124.5 344q0 208 125 347t322 139q111 0 190.5 -46t118.5 -122v139h162v-907q0 -76 -14 -144
t-48.5 -133t-87.5 -111.5t-137 -75t-190 -28.5q-179 0 -301.5 102.5t-141.5 260.5zM856 526q0 152 -82.5 244t-216.5 92t-216.5 -92t-82.5 -244t82.5 -244t216.5 -92t216.5 92t82.5 244z" />
    <glyph glyph-name="Gbreve" unicode="&#x11e;" horiz-adv-x="1579" 
d="M803 1542q-139 0 -221 78t-90 186h141q7 -52 48.5 -91.5t121.5 -39.5t121.5 39.5t48.5 91.5h141q-8 -108 -90 -186t-221 -78zM1446 0h-139l-17 236q-25 -48 -65 -92t-99.5 -84.5t-144 -64.5t-182.5 -24q-107 0 -208 31t-189.5 94t-155 151.5t-104.5 212.5t-38 267
q0 142 39.5 265.5t108 212t159.5 151.5t193.5 94t210.5 31q232 0 403.5 -119.5t235.5 -317.5l-156 -67q-51 163 -178 254.5t-305 91.5q-83 0 -160.5 -23t-146.5 -72t-120.5 -118.5t-81.5 -168t-30 -214.5q0 -144 45 -260.5t120 -189t168.5 -110.5t195.5 -38q99 0 181 27.5
t134.5 71t89 99.5t52.5 110.5t18 107.5h-518v157h684v-702z" />
    <glyph glyph-name="gbreve" unicode="&#x11f;" horiz-adv-x="1171" 
d="M561 1110q-138 0 -215.5 86.5t-77.5 204.5h127q3 -65 44.5 -110.5t121.5 -45.5t121.5 45.5t44.5 110.5h127q0 -118 -77.5 -204.5t-215.5 -86.5zM92 -55l158 39q12 -110 90 -182t195 -72q313 0 313 338v157q-37 -78 -117.5 -130t-193.5 -52q-194 0 -318.5 137t-124.5 344
q0 208 125 347t322 139q111 0 190.5 -46t118.5 -122v139h162v-907q0 -76 -14 -144t-48.5 -133t-87.5 -111.5t-137 -75t-190 -28.5q-179 0 -301.5 102.5t-141.5 260.5zM856 526q0 152 -82.5 244t-216.5 92t-216.5 -92t-82.5 -244t82.5 -244t216.5 -92t216.5 92t82.5 244z" />
    <glyph glyph-name="Gdotaccent" unicode="&#x120;" horiz-adv-x="1579" 
d="M813 1561q-48 0 -82.5 33.5t-34.5 82.5t34.5 83t82.5 34t82.5 -34t34.5 -83t-34.5 -82.5t-82.5 -33.5zM1446 0h-139l-17 236q-25 -48 -65 -92t-99.5 -84.5t-144 -64.5t-182.5 -24q-107 0 -208 31t-189.5 94t-155 151.5t-104.5 212.5t-38 267q0 142 39.5 265.5t108 212
t159.5 151.5t193.5 94t210.5 31q232 0 403.5 -119.5t235.5 -317.5l-156 -67q-51 163 -178 254.5t-305 91.5q-83 0 -160.5 -23t-146.5 -72t-120.5 -118.5t-81.5 -168t-30 -214.5q0 -144 45 -260.5t120 -189t168.5 -110.5t195.5 -38q99 0 181 27.5t134.5 71t89 99.5
t52.5 110.5t18 107.5h-518v157h684v-702z" />
    <glyph glyph-name="gdotaccent" unicode="&#x121;" horiz-adv-x="1171" 
d="M451 1255q0 47 33 80t79 33t79.5 -33t33.5 -80t-33.5 -79.5t-79.5 -32.5t-79 32.5t-33 79.5zM92 -55l158 39q12 -110 90 -182t195 -72q313 0 313 338v157q-37 -78 -117.5 -130t-193.5 -52q-194 0 -318.5 137t-124.5 344q0 208 125 347t322 139q111 0 190.5 -46
t118.5 -122v139h162v-907q0 -76 -14 -144t-48.5 -133t-87.5 -111.5t-137 -75t-190 -28.5q-179 0 -301.5 102.5t-141.5 260.5zM856 526q0 152 -82.5 244t-216.5 92t-216.5 -92t-82.5 -244t82.5 -244t216.5 -92t216.5 92t82.5 244z" />
    <glyph glyph-name="Gcommaaccent" unicode="&#x122;" horiz-adv-x="1579" 
d="M715 -178q0 44 32.5 71t77.5 27q48 0 84.5 -34t36.5 -103q0 -106 -65.5 -165t-153.5 -62v75q51 1 89 33.5t40 73.5q-15 -12 -43 -12q-44 0 -71 25.5t-27 70.5zM1446 0h-139l-17 236q-25 -48 -65 -92t-99.5 -84.5t-144 -64.5t-182.5 -24q-107 0 -208 31t-189.5 94
t-155 151.5t-104.5 212.5t-38 267q0 142 39.5 265.5t108 212t159.5 151.5t193.5 94t210.5 31q232 0 403.5 -119.5t235.5 -317.5l-156 -67q-51 163 -178 254.5t-305 91.5q-83 0 -160.5 -23t-146.5 -72t-120.5 -118.5t-81.5 -168t-30 -214.5q0 -144 45 -260.5t120 -189
t168.5 -110.5t195.5 -38q99 0 181 27.5t134.5 71t89 99.5t52.5 110.5t18 107.5h-518v157h684v-702z" />
    <glyph glyph-name="gcommaaccent" unicode="&#x123;" horiz-adv-x="1171" 
d="M668 1178q0 -44 -33 -71.5t-78 -27.5q-48 0 -84.5 34.5t-36.5 103.5q0 106 65.5 165t153.5 62v-76q-51 -1 -89 -33t-40 -73q15 12 43 12q44 0 71.5 -25.5t27.5 -70.5zM92 -55l158 39q12 -110 90 -182t195 -72q313 0 313 338v157q-37 -78 -117.5 -130t-193.5 -52
q-194 0 -318.5 137t-124.5 344q0 208 125 347t322 139q111 0 190.5 -46t118.5 -122v139h162v-907q0 -76 -14 -144t-48.5 -133t-87.5 -111.5t-137 -75t-190 -28.5q-179 0 -301.5 102.5t-141.5 260.5zM856 526q0 152 -82.5 244t-216.5 92t-216.5 -92t-82.5 -244t82.5 -244
t216.5 -92t216.5 92t82.5 244z" />
    <glyph glyph-name="Hcircumflex" unicode="&#x124;" horiz-adv-x="1521" 
d="M578 1554h-160l229 244h225l230 -244h-160l-182 152zM1321 0h-172v659h-776v-659h-172v1452h172v-635h776v635h172v-1452z" />
    <glyph glyph-name="hcircumflex" unicode="&#x125;" horiz-adv-x="1124" 
d="M391 1569h-160l230 243h225l229 -243h-159l-183 151zM324 586v-586h-164v1481h164v-631q47 76 127 118t176 42q170 0 260 -106.5t90 -274.5v-629h-164v604q0 116 -59 187t-185 71q-113 0 -179 -79t-66 -197z" />
    <glyph glyph-name="Hbar" unicode="&#x126;" horiz-adv-x="1527" 
d="M1325 0h-172v659h-778v-659h-172v1061h-146v131h146v260h172v-260h778v260h172v-260h148v-131h-148v-1061zM375 817h778v244h-778v-244z" />
    <glyph glyph-name="hbar" unicode="&#x127;" horiz-adv-x="1124" 
d="M324 586v-586h-164v1151h-183v135h183v195h164v-195h256v-135h-256v-301q47 76 127 118t176 42q170 0 260 -106.5t90 -274.5v-629h-164v604q0 116 -59 187t-185 71q-113 0 -179 -79t-66 -197z" />
    <glyph glyph-name="Itilde" unicode="&#x128;" horiz-adv-x="573" 
d="M373 0h-172v1452h172v-1452zM614 1796v-29q0 -103 -49 -160t-131 -57q-70 0 -141 47l-45 29q-51 33 -84 33q-36 0 -57 -25t-21 -75h-119v28q0 102 53 158.5t136 56.5q71 0 139 -45l45 -28q53 -33 84 -33q32 0 52 22t20 66v12h118z" />
    <glyph glyph-name="itilde" unicode="&#x129;" horiz-adv-x="483" 
d="M324 0h-164v981h164v-981zM561 1370v-27q0 -102 -52.5 -157.5t-135.5 -55.5q-64 0 -133 48l-31 22q-51 35 -86 35t-51.5 -23.5t-16.5 -76.5h-127v28q0 102 53 156.5t136 54.5q76 0 139 -47l31 -22q45 -33 82 -33q34 0 50.5 23t16.5 75h125z" />
    <glyph glyph-name="Imacron" unicode="&#x12a;" horiz-adv-x="573" 
d="M373 0h-172v1452h172v-1452zM580 1610h-582v143h582v-143z" />
    <glyph glyph-name="imacron" unicode="&#x12b;" horiz-adv-x="483" 
d="M324 0h-164v981h164v-981zM514 1184h-543v143h543v-143z" />
    <glyph glyph-name="Ibreve" unicode="&#x12c;" horiz-adv-x="573" 
d="M373 0h-172v1452h172v-1452zM289 1542q-139 0 -221.5 78t-90.5 186h142q7 -52 48.5 -91.5t121.5 -39.5t121.5 39.5t48.5 91.5h141q-8 -108 -90 -186t-221 -78z" />
    <glyph glyph-name="ibreve" unicode="&#x12d;" horiz-adv-x="483" 
d="M324 0h-164v981h164v-981zM242 1110q-138 0 -215.5 86.5t-77.5 204.5h127q3 -65 44.5 -110.5t121.5 -45.5t121.5 45.5t44.5 110.5h127q0 -118 -77.5 -204.5t-215.5 -86.5z" />
    <glyph glyph-name="Iogonek" unicode="&#x12e;" horiz-adv-x="573" 
d="M61 -238q0 146 148 238h-8v1452h172v-1452q-172 -88 -172 -207q0 -51 34 -77.5t82 -26.5q36 0 68 8v-119q-44 -14 -98 -14q-95 0 -160.5 53t-65.5 145z" />
    <glyph glyph-name="iogonek" unicode="&#x12f;" horiz-adv-x="483" 
d="M12 -238q0 146 148 238v981h164v-981q-172 -88 -172 -207q0 -51 34 -77.5t82 -26.5q36 0 68 8v-119q-44 -14 -98 -14q-95 0 -160.5 53t-65.5 145zM119 1368q0 51 36 87t87 36t87 -36t36 -87t-36 -87t-87 -36t-87 36t-36 87z" />
    <glyph glyph-name="Idotaccent" unicode="&#x130;" horiz-adv-x="573" 
d="M373 0h-172v1452h172v-1452zM285 1561q-48 0 -82.5 33.5t-34.5 82.5t34.5 83t82.5 34t82 -34t34 -83t-34 -82.5t-82 -33.5z" />
    <glyph glyph-name="dotlessi" unicode="&#x131;" horiz-adv-x="483" 
d="M324 0h-164v981h164v-981z" />
    <glyph glyph-name="IJ" unicode="&#x132;" horiz-adv-x="1239" 
d="M358 678h-174v774h174v-774zM184 430v92l172 39v-127q0 -149 72 -227t195 -78q122 0 190 78t68 215v1030h172v-1020q0 -199 -116 -330t-312 -131q-206 0 -323.5 124t-117.5 335z" />
    <glyph glyph-name="ij" unicode="&#x133;" horiz-adv-x="966" 
d="M324 0h-164v981h164v-981zM119 1368q0 51 36 87t87 36t87 -36t36 -87t-36 -87t-87 -36t-87 36t-36 87zM643 -115v1096h164v-1102q0 -135 -72 -216t-196 -81q-69 0 -111 17v143q24 -12 70 -12q76 0 110.5 38.5t34.5 116.5zM602 1368q0 51 36 87t87 36t87 -36t36 -87
t-36 -87t-87 -36t-87 36t-36 87z" />
    <glyph glyph-name="Jcircumflex" unicode="&#x134;" horiz-adv-x="1116" 
d="M666 1554h-160l229 244h226l229 -244h-160l-182 152zM61 430v92l172 39v-127q0 -149 72 -227t195 -78q122 0 190 78t68 215v1030h172v-1020q0 -199 -116 -330t-312 -131q-206 0 -323.5 124t-117.5 335z" />
    <glyph glyph-name="jcircumflex" unicode="&#x135;" horiz-adv-x="483" 
d="M82 1108h-152l217 283h195l215 -283h-151l-162 186zM160 -115v1096h164v-1102q0 -134 -72.5 -215.5t-196.5 -81.5q-67 0 -110 17v143q24 -12 69 -12q77 0 111.5 38.5t34.5 116.5z" />
    <glyph glyph-name="Kcommaaccent" unicode="&#x136;" horiz-adv-x="1339" 
d="M1108 0l-510 682l-225 -240v-442h-172v1452h172v-782l714 782h228l-604 -645l612 -807h-215zM635 -178q0 44 32.5 71t77.5 27q48 0 84.5 -34t36.5 -103q0 -106 -65.5 -165t-153.5 -62v75q51 1 89 33.5t40 73.5q-15 -12 -43 -12q-44 0 -71 25.5t-27 70.5z" />
    <glyph glyph-name="kcommaaccent" unicode="&#x137;" horiz-adv-x="1048" 
d="M1008 981l-418 -416l428 -565h-207l-336 453l-151 -156v-297h-164v1481h164v-967l458 467h226zM475 -178q0 44 33 71t78 27q48 0 84.5 -34t36.5 -103q0 -106 -66 -165t-154 -62v75q51 1 89 33.5t40 73.5q-15 -12 -43 -12q-44 0 -71 25.5t-27 70.5z" />
    <glyph glyph-name="kgreenlandic" unicode="&#x138;" horiz-adv-x="1048" 
d="M1008 981l-418 -416l428 -565h-207l-336 453l-151 -156v-297h-164v981h164v-467l458 467h226z" />
    <glyph glyph-name="Lacute" unicode="&#x139;" horiz-adv-x="1118" 
d="M649 1798l-278 -244h-162l213 244h227zM1077 0h-876v1452h172v-1294h704v-158z" />
    <glyph glyph-name="lacute" unicode="&#x13a;" horiz-adv-x="483" 
d="M602 1812l-278 -243h-162l213 243h227zM324 0h-164v1481h164v-1481z" />
    <glyph glyph-name="Lcommaaccent" unicode="&#x13b;" horiz-adv-x="1118" 
d="M555 -178q0 44 33 71t78 27q48 0 84 -34t36 -103q0 -106 -65.5 -165t-153.5 -62v75q51 1 89 33.5t40 73.5q-15 -12 -43 -12q-44 0 -71 25.5t-27 70.5zM1077 0h-876v1452h172v-1294h704v-158z" />
    <glyph glyph-name="lcommaaccent" unicode="&#x13c;" horiz-adv-x="483" 
d="M129 -178q0 44 33 71t78 27q48 0 84 -34t36 -103q0 -106 -65.5 -165t-153.5 -62v75q51 1 89 33.5t40 73.5q-15 -12 -43 -12q-44 0 -71 25.5t-27 70.5zM324 0h-164v1481h164v-1481z" />
    <glyph glyph-name="Lcaron" unicode="&#x13d;" horiz-adv-x="1118" 
d="M854 1554l-133 -385h-127l68 385h192zM1077 0h-876v1452h172v-1294h704v-158z" />
    <glyph glyph-name="lcaron" unicode="&#x13e;" horiz-adv-x="483" 
d="M649 1481l-125 -365h-121l64 365h182zM324 0h-164v1481h164v-1481z" />
    <glyph glyph-name="Ldot" unicode="&#x13f;" horiz-adv-x="1118" 
d="M631 766q0 47 35 82t82 35t81.5 -35t34.5 -82t-34.5 -82t-81.5 -35t-82 35t-35 82zM1077 0h-876v1452h172v-1294h704v-158z" />
    <glyph glyph-name="ldot" unicode="&#x140;" horiz-adv-x="647" 
d="M324 0h-164v1481h164v-1481zM442 651q0 47 33.5 80t79.5 33t79.5 -33t33.5 -80t-33.5 -79.5t-79.5 -32.5t-79.5 32.5t-33.5 79.5z" />
    <glyph glyph-name="Lslash" unicode="&#x141;" horiz-adv-x="1146" 
d="M1108 0h-877v604l-200 -88v152l200 88v696h170v-621l328 146v-154l-328 -145v-518h707v-160z" />
    <glyph glyph-name="lslash" unicode="&#x142;" horiz-adv-x="659" 
d="M403 0h-163v575l-189 -81v151l189 82v754h163v-680l203 90v-152l-203 -90v-649z" />
    <glyph glyph-name="Nacute" unicode="&#x143;" horiz-adv-x="1576" 
d="M1087 1798l-278 -244h-162l213 244h227zM1376 0h-180l-823 1229v-1229h-172v1452h225l778 -1163v1163h172v-1452z" />
    <glyph glyph-name="nacute" unicode="&#x144;" horiz-adv-x="1124" 
d="M844 1401l-252 -293h-135l178 293h209zM324 578v-578h-164v981h159v-147q46 85 128 130.5t180 45.5q170 0 260 -106.5t90 -274.5v-629h-164v604q0 116 -59 187t-185 71q-114 0 -179.5 -81.5t-65.5 -202.5z" />
    <glyph glyph-name="Ncommaaccent" unicode="&#x145;" horiz-adv-x="1576" 
d="M715 -178q0 44 32.5 71t77.5 27q48 0 84.5 -34t36.5 -103q0 -106 -65.5 -165t-153.5 -62v75q51 1 89 33.5t40 73.5q-15 -12 -43 -12q-44 0 -71 25.5t-27 70.5zM1376 0h-180l-823 1229v-1229h-172v1452h225l778 -1163v1163h172v-1452z" />
    <glyph glyph-name="ncommaaccent" unicode="&#x146;" horiz-adv-x="1124" 
d="M481 -178q0 44 33 71t78 27q48 0 84.5 -34t36.5 -103q0 -106 -65.5 -165t-153.5 -62v75q51 1 89 33.5t40 73.5q-15 -12 -43 -12q-44 0 -71.5 25.5t-27.5 70.5zM324 578v-578h-164v981h159v-147q46 85 128 130.5t180 45.5q170 0 260 -106.5t90 -274.5v-629h-164v604
q0 116 -59 187t-185 71q-114 0 -179.5 -81.5t-65.5 -202.5z" />
    <glyph glyph-name="Ncaron" unicode="&#x147;" horiz-adv-x="1576" 
d="M975 1798h160l-230 -244h-225l-229 244h159l183 -151zM1376 0h-180l-823 1229v-1229h-172v1452h225l778 -1163v1163h172v-1452z" />
    <glyph glyph-name="ncaron" unicode="&#x148;" horiz-adv-x="1124" 
d="M227 1391h152l162 -187l161 187h152l-215 -283h-195zM324 578v-578h-164v981h159v-147q46 85 128 130.5t180 45.5q170 0 260 -106.5t90 -274.5v-629h-164v604q0 116 -59 187t-185 71q-114 0 -179.5 -81.5t-65.5 -202.5z" />
    <glyph glyph-name="napostrophe" unicode="&#x149;" horiz-adv-x="1124" 
d="M135 1346q0 44 33 71t78 27q48 0 84.5 -34t36.5 -103q0 -106 -66 -165.5t-154 -62.5v76q51 1 89 33.5t40 73.5q-16 -13 -43 -13q-44 0 -71 26t-27 71zM324 578v-578h-164v981h159v-147q46 85 128 130.5t180 45.5q170 0 260 -106.5t90 -274.5v-629h-164v604q0 116 -59 187
t-185 71q-114 0 -179.5 -81.5t-65.5 -202.5z" />
    <glyph glyph-name="Eng" unicode="&#x14a;" horiz-adv-x="1576" 
d="M1075 -256q71 0 100 35t29 106v103l-831 1241v-1229h-172v1452h225l778 -1163v1163h172v-1571q0 -126 -70 -205t-188 -79q-77 0 -114 16v137q24 -6 71 -6z" />
    <glyph glyph-name="eng" unicode="&#x14b;" horiz-adv-x="1124" 
d="M324 578v-578h-164v981h159v-147q46 85 128 130.5t180 45.5q170 0 260 -106.5t90 -274.5v-750q0 -135 -72 -216t-196 -81q-68 0 -111 17v143q24 -12 70 -12q76 0 110.5 38.5t34.5 116.5v719q0 116 -59 187t-185 71q-114 0 -179.5 -81.5t-65.5 -202.5z" />
    <glyph glyph-name="Omacron" unicode="&#x14c;" horiz-adv-x="1642" 
d="M274 727q0 -143 45.5 -259t123 -189t174.5 -111.5t204 -38.5q108 0 205 38.5t174 111.5t122.5 189t45.5 259t-45.5 258.5t-122.5 188t-174 111t-205 38.5q-85 0 -164.5 -24t-149.5 -73t-121.5 -119t-81.5 -167.5t-30 -212.5zM102 727q0 176 61.5 321.5t163.5 238.5
t229.5 143.5t264.5 50.5q109 0 213.5 -31.5t196 -95t160.5 -152t109 -211.5t40 -264t-40 -264t-109 -212t-160.5 -153t-196 -95.5t-213.5 -31.5t-213 31.5t-195.5 95.5t-161 153t-109.5 212t-40 264zM1112 1610h-582v143h582v-143z" />
    <glyph glyph-name="omacron" unicode="&#x14d;" horiz-adv-x="1167" 
d="M858 1184h-543v143h543v-143zM584 1010q213 0 352 -146.5t139 -371.5q0 -227 -139 -374t-352 -147t-352.5 147t-139.5 374q0 225 139.5 371.5t352.5 146.5zM584 862q-138 0 -233 -99t-95 -271q0 -173 95 -273t233 -100t232.5 100t94.5 273q0 172 -94.5 271t-232.5 99z
" />
    <glyph glyph-name="Obreve" unicode="&#x14e;" horiz-adv-x="1642" 
d="M836 1542q-139 0 -221.5 78t-90.5 186h142q7 -52 48.5 -91.5t121.5 -39.5t121.5 39.5t48.5 91.5h141q-8 -108 -90 -186t-221 -78zM274 727q0 -143 45.5 -259t123 -189t174.5 -111.5t204 -38.5q108 0 205 38.5t174 111.5t122.5 189t45.5 259t-45.5 258.5t-122.5 188
t-174 111t-205 38.5q-85 0 -164.5 -24t-149.5 -73t-121.5 -119t-81.5 -167.5t-30 -212.5zM102 727q0 176 61.5 321.5t163.5 238.5t229.5 143.5t264.5 50.5q109 0 213.5 -31.5t196 -95t160.5 -152t109 -211.5t40 -264t-40 -264t-109 -212t-160.5 -153t-196 -95.5
t-213.5 -31.5t-213 31.5t-195.5 95.5t-161 153t-109.5 212t-40 264z" />
    <glyph glyph-name="obreve" unicode="&#x14f;" horiz-adv-x="1167" 
d="M584 1010q213 0 352 -146.5t139 -371.5q0 -227 -139 -374t-352 -147t-352.5 147t-139.5 374q0 225 139.5 371.5t352.5 146.5zM584 862q-138 0 -233 -99t-95 -271q0 -173 95 -273t233 -100t232.5 100t94.5 273q0 172 -94.5 271t-232.5 99zM584 1110q-138 0 -215.5 86.5
t-77.5 204.5h127q3 -65 44.5 -110.5t121.5 -45.5t121.5 45.5t44.5 110.5h127q0 -118 -77.5 -204.5t-215.5 -86.5z" />
    <glyph glyph-name="Ohungarumlaut" unicode="&#x150;" horiz-adv-x="1642" 
d="M920 1798l-191 -244h-121l127 244h185zM1206 1798l-211 -244h-121l150 244h182zM274 727q0 -143 45.5 -259t123 -189t174.5 -111.5t204 -38.5q108 0 205 38.5t174 111.5t122.5 189t45.5 259t-45.5 258.5t-122.5 188t-174 111t-205 38.5q-85 0 -164.5 -24t-149.5 -73
t-121.5 -119t-81.5 -167.5t-30 -212.5zM102 727q0 176 61.5 321.5t163.5 238.5t229.5 143.5t264.5 50.5q109 0 213.5 -31.5t196 -95t160.5 -152t109 -211.5t40 -264t-40 -264t-109 -212t-160.5 -153t-196 -95.5t-213.5 -31.5t-213 31.5t-195.5 95.5t-161 153t-109.5 212
t-40 264z" />
    <glyph glyph-name="ohungarumlaut" unicode="&#x151;" horiz-adv-x="1167" 
d="M584 1010q213 0 352 -146.5t139 -371.5q0 -227 -139 -374t-352 -147t-352.5 147t-139.5 374q0 225 139.5 371.5t352.5 146.5zM584 862q-138 0 -233 -99t-95 -271q0 -173 95 -273t233 -100t232.5 100t94.5 273q0 172 -94.5 271t-232.5 99zM961 1401l-205 -293h-115
l135 293h185zM705 1401l-197 -293h-115l127 293h185z" />
    <glyph glyph-name="OE" unicode="&#x152;" horiz-adv-x="2351" 
d="M102 727q0 176 61.5 321.5t163.5 238.5t229.5 143.5t264.5 50.5q158 0 301.5 -66.5t245.5 -195.5v233h870v-158h-698v-489h635v-158h-635v-489h698v-158h-870v233q-102 -129 -245.5 -195.5t-301.5 -66.5q-109 0 -213 31.5t-195.5 95.5t-161 153t-109.5 212t-40 264z
M274 727q0 -143 45.5 -259t123 -189t174.5 -111.5t204 -38.5q108 0 205 38.5t174 111.5t122.5 189t45.5 259t-45.5 258.5t-122.5 188t-174 111t-205 38.5q-85 0 -164.5 -24t-149.5 -73t-121.5 -119t-81.5 -167.5t-30 -212.5z" />
    <glyph glyph-name="oe" unicode="&#x153;" horiz-adv-x="1927" 
d="M584 1010q130 0 236 -60.5t171 -169.5q64 110 165.5 170t219.5 60q219 0 341 -138.5t122 -367.5q0 -30 -4 -58h-756v-8q0 -138 92 -228.5t226 -90.5q117 0 190 58t105 153l141 -51q-44 -135 -158.5 -221.5t-277.5 -86.5q-128 0 -234.5 58.5t-171.5 169.5
q-65 -109 -171 -168.5t-236 -59.5q-213 0 -352.5 147t-139.5 374q0 225 139.5 371.5t352.5 146.5zM584 862q-138 0 -233 -99t-95 -271q0 -173 95 -273t233 -100t232.5 100t94.5 273q0 172 -94.5 271t-232.5 99zM1083 586h586q-3 122 -79.5 200t-211.5 78q-123 0 -205 -82
t-90 -196z" />
    <glyph glyph-name="Racute" unicode="&#x154;" horiz-adv-x="1273" 
d="M952 1798l-278 -244h-162l213 244h227zM965 0l-340 608h-252v-608h-172v1452h528q197 0 317.5 -121.5t120.5 -302.5q0 -159 -95.5 -270t-258.5 -137l352 -621h-200zM373 762h329q132 0 212.5 72.5t80.5 193.5q0 123 -80.5 196.5t-212.5 73.5h-329v-536z" />
    <glyph glyph-name="racute" unicode="&#x155;" horiz-adv-x="720" 
d="M682 1401l-252 -293h-135l178 293h209zM686 987v-174q-34 10 -86 10q-129 0 -202.5 -77.5t-73.5 -237.5v-508h-164v981h159v-176q30 68 81 112t104 61t112 17q42 0 70 -8z" />
    <glyph glyph-name="Rcommaaccent" unicode="&#x156;" horiz-adv-x="1273" 
d="M965 0l-340 608h-252v-608h-172v1452h528q197 0 317.5 -121.5t120.5 -302.5q0 -159 -95.5 -270t-258.5 -137l352 -621h-200zM373 762h329q132 0 212.5 72.5t80.5 193.5q0 123 -80.5 196.5t-212.5 73.5h-329v-536zM588 -178q0 44 32.5 71t77.5 27q48 0 84.5 -34t36.5 -103
q0 -106 -65.5 -165t-153.5 -62v75q51 1 89 33.5t40 73.5q-15 -12 -43 -12q-44 0 -71 25.5t-27 70.5z" />
    <glyph glyph-name="rcommaaccent" unicode="&#x157;" horiz-adv-x="720" 
d="M686 987v-174q-34 10 -86 10q-129 0 -202.5 -77.5t-73.5 -237.5v-508h-164v981h159v-176q30 68 81 112t104 61t112 17q42 0 70 -8zM133 -178q0 44 33 71t78 27q48 0 84.5 -34t36.5 -103q0 -106 -66 -165t-154 -62v75q51 1 89 33.5t40 73.5q-15 -12 -43 -12
q-44 0 -71 25.5t-27 70.5z" />
    <glyph glyph-name="Rcaron" unicode="&#x158;" horiz-adv-x="1273" 
d="M811 1798h160l-230 -244h-225l-229 244h159l183 -151zM965 0l-340 608h-252v-608h-172v1452h528q197 0 317.5 -121.5t120.5 -302.5q0 -159 -95.5 -270t-258.5 -137l352 -621h-200zM373 762h329q132 0 212.5 72.5t80.5 193.5q0 123 -80.5 196.5t-212.5 73.5h-329v-536z
" />
    <glyph glyph-name="rcaron" unicode="&#x159;" horiz-adv-x="720" 
d="M102 1391h152l162 -187l162 187h151l-215 -283h-195zM686 987v-174q-34 10 -86 10q-129 0 -202.5 -77.5t-73.5 -237.5v-508h-164v981h159v-176q30 68 81 112t104 61t112 17q42 0 70 -8z" />
    <glyph glyph-name="Sacute" unicode="&#x15a;" horiz-adv-x="1206" 
d="M952 1798l-278 -244h-162l213 244h227zM1092 1122l-154 -55q-9 49 -32 93t-61.5 82t-99 61t-135.5 24q-127 0 -214 -74t-87 -184q0 -88 54.5 -147.5t154.5 -81.5l213 -47q176 -38 274.5 -143.5t98.5 -258.5q0 -173 -137 -296.5t-357 -123.5q-121 0 -220 37t-162.5 99.5
t-101.5 137.5t-48 158l162 52q13 -138 110 -233t260 -95q152 0 237 70.5t85 179.5q0 90 -61 155t-175 91l-213 47q-158 35 -252 135t-94 254q0 112 62.5 209t171.5 155t237 58q90 0 166.5 -21.5t129 -56.5t92 -82.5t62 -96.5t34.5 -102z" />
    <glyph glyph-name="sacute" unicode="&#x15b;" horiz-adv-x="917" 
d="M764 1401l-252 -293h-135l178 293h209zM80 258l147 51q11 -88 75 -143t171 -55q86 0 138.5 42.5t52.5 106.5q0 54 -40 91t-110 52l-160 37q-114 27 -178.5 98t-64.5 175q0 123 101 210t241 87q73 0 133 -18t98.5 -45t67.5 -64t43 -69t22 -66l-145 -54q-5 29 -18 56.5
t-37 56t-66.5 46t-97.5 17.5q-77 0 -130 -43t-53 -104q0 -103 129 -133l160 -37q129 -29 197.5 -102.5t68.5 -182.5q0 -54 -23 -106t-66 -95t-112 -69.5t-153 -26.5q-92 0 -167 27t-120.5 71t-71.5 92t-32 97z" />
    <glyph glyph-name="Scircumflex" unicode="&#x15c;" horiz-adv-x="1206" 
d="M457 1554h-160l229 244h226l229 -244h-160l-182 152zM1092 1122l-154 -55q-9 49 -32 93t-61.5 82t-99 61t-135.5 24q-127 0 -214 -74t-87 -184q0 -88 54.5 -147.5t154.5 -81.5l213 -47q176 -38 274.5 -143.5t98.5 -258.5q0 -173 -137 -296.5t-357 -123.5q-121 0 -220 37
t-162.5 99.5t-101.5 137.5t-48 158l162 52q13 -138 110 -233t260 -95q152 0 237 70.5t85 179.5q0 90 -61 155t-175 91l-213 47q-158 35 -252 135t-94 254q0 112 62.5 209t171.5 155t237 58q90 0 166.5 -21.5t129 -56.5t92 -82.5t62 -96.5t34.5 -102z" />
    <glyph glyph-name="scircumflex" unicode="&#x15d;" horiz-adv-x="917" 
d="M315 1108h-151l217 283h194l216 -283h-152l-162 186zM80 258l147 51q11 -88 75 -143t171 -55q86 0 138.5 42.5t52.5 106.5q0 54 -40 91t-110 52l-160 37q-114 27 -178.5 98t-64.5 175q0 123 101 210t241 87q73 0 133 -18t98.5 -45t67.5 -64t43 -69t22 -66l-145 -54
q-5 29 -18 56.5t-37 56t-66.5 46t-97.5 17.5q-77 0 -130 -43t-53 -104q0 -103 129 -133l160 -37q129 -29 197.5 -102.5t68.5 -182.5q0 -54 -23 -106t-66 -95t-112 -69.5t-153 -26.5q-92 0 -167 27t-120.5 71t-71.5 92t-32 97z" />
    <glyph glyph-name="Scedilla" unicode="&#x15e;" horiz-adv-x="1206" 
d="M557 -201l-59 70l65 104q-110 7 -200 46.5t-148 100.5t-92.5 132.5t-44.5 150.5l162 52q13 -138 110 -233t260 -95q152 0 237 70.5t85 179.5q0 90 -61 155t-175 91l-213 47q-158 35 -252 135t-94 254q0 112 62.5 209t171.5 155t237 58q90 0 166.5 -21.5t129 -56.5
t92 -82.5t62 -96.5t34.5 -102l-154 -55q-9 49 -32 93t-61.5 82t-99 61t-135.5 24q-127 0 -214 -74t-87 -184q0 -88 54.5 -147.5t154.5 -81.5l213 -47q176 -38 274.5 -143.5t98.5 -258.5q0 -158 -113.5 -275.5t-302.5 -138.5l-53 -81q12 4 31 4q82 0 133 -45t51 -117
q0 -77 -60.5 -127.5t-173.5 -50.5q-70 0 -130 27.5t-93 68.5l68 80q69 -74 155 -74q47 0 78 19.5t31 56.5q0 33 -27 53.5t-75 20.5q-33 0 -66 -13z" />
    <glyph glyph-name="scedilla" unicode="&#x15f;" horiz-adv-x="917" 
d="M403 -201l-59 70l66 106q-77 9 -139.5 38.5t-101.5 70.5t-61 85t-28 89l147 51q11 -88 75 -143t171 -55q86 0 138.5 42.5t52.5 106.5q0 54 -40 91t-110 52l-160 37q-114 27 -178.5 98t-64.5 175q0 123 101 210t241 87q73 0 133 -18t98.5 -45t67.5 -64t43 -69t22 -66
l-145 -54q-5 29 -18 56.5t-37 56t-66.5 46t-97.5 17.5q-77 0 -130 -43t-53 -104q0 -103 129 -133l160 -37q129 -29 197.5 -102.5t68.5 -182.5q0 -104 -77.5 -189.5t-212.5 -103.5l-54 -79q12 4 31 4q82 0 133 -45t51 -117q0 -77 -60 -127.5t-173 -50.5q-70 0 -130 27.5
t-93 68.5l67 80q69 -74 156 -74q47 0 77.5 19.5t30.5 56.5q0 33 -27 53.5t-75 20.5q-33 0 -66 -13z" />
    <glyph glyph-name="Scaron" unicode="&#x160;" horiz-adv-x="1206" 
d="M799 1798h159l-229 -244h-225l-230 244h160l182 -151zM1092 1122l-154 -55q-9 49 -32 93t-61.5 82t-99 61t-135.5 24q-127 0 -214 -74t-87 -184q0 -88 54.5 -147.5t154.5 -81.5l213 -47q176 -38 274.5 -143.5t98.5 -258.5q0 -173 -137 -296.5t-357 -123.5q-121 0 -220 37
t-162.5 99.5t-101.5 137.5t-48 158l162 52q13 -138 110 -233t260 -95q152 0 237 70.5t85 179.5q0 90 -61 155t-175 91l-213 47q-158 35 -252 135t-94 254q0 112 62.5 209t171.5 155t237 58q90 0 166.5 -21.5t129 -56.5t92 -82.5t62 -96.5t34.5 -102z" />
    <glyph glyph-name="scaron" unicode="&#x161;" horiz-adv-x="917" 
d="M150 1391h151l162 -187l162 187h151l-215 -283h-194zM80 258l147 51q11 -88 75 -143t171 -55q86 0 138.5 42.5t52.5 106.5q0 54 -40 91t-110 52l-160 37q-114 27 -178.5 98t-64.5 175q0 123 101 210t241 87q73 0 133 -18t98.5 -45t67.5 -64t43 -69t22 -66l-145 -54
q-5 29 -18 56.5t-37 56t-66.5 46t-97.5 17.5q-77 0 -130 -43t-53 -104q0 -103 129 -133l160 -37q129 -29 197.5 -102.5t68.5 -182.5q0 -54 -23 -106t-66 -95t-112 -69.5t-153 -26.5q-92 0 -167 27t-120.5 71t-71.5 92t-32 97z" />
    <glyph glyph-name="Tcommaaccent" unicode="&#x162;" horiz-adv-x="1243" 
d="M1204 1294h-497v-1294h-17l-69 -104q12 4 30 4q82 0 133.5 -45t51.5 -117q0 -77 -60.5 -127.5t-173.5 -50.5q-70 0 -130 27.5t-93 68.5l67 80q69 -74 156 -74q47 0 78 19.5t31 56.5q0 33 -27.5 53.5t-75.5 20.5q-32 0 -65 -13l-60 70l82 131h-28v1294h-498v158h1165v-158
z" />
    <glyph glyph-name="tcommaaccent" unicode="&#x163;" horiz-adv-x="694" 
d="M348 -201l-59 70l90 143q-70 30 -108 95t-38 161v566h-196v147h63q144 0 144 149v162h153v-311h232v-147h-232v-543q0 -154 150 -154q42 0 82 10v-139q-54 -18 -129 -18h-13l-61 -94q12 4 31 4q82 0 133 -45t51 -117q0 -77 -60 -127.5t-173 -50.5q-70 0 -130.5 27.5
t-93.5 68.5l68 80q69 -74 156 -74q47 0 77.5 19.5t30.5 56.5q0 33 -27 53.5t-75 20.5q-34 0 -66 -13z" />
    <glyph glyph-name="Tcaron" unicode="&#x164;" horiz-adv-x="1243" 
d="M803 1798h160l-230 -244h-225l-229 244h159l183 -151zM1204 1294h-497v-1294h-170v1294h-498v158h1165v-158z" />
    <glyph glyph-name="tcaron" unicode="&#x165;" horiz-adv-x="694" 
d="M780 1513l-125 -364h-120l63 364h182zM397 1292v-311h232v-147h-232v-543q0 -154 150 -154q42 0 82 10v-139q-54 -18 -129 -18q-123 0 -195 73t-72 205v566h-196v147h63q144 0 144 149v162h153z" />
    <glyph glyph-name="Tbar" unicode="&#x166;" horiz-adv-x="1243" 
d="M1204 1294h-497v-534h239v-142h-239v-618h-170v618h-238v142h238v534h-498v158h1165v-158z" />
    <glyph glyph-name="tbar" unicode="&#x167;" horiz-adv-x="694" 
d="M629 434h-232v-143q0 -154 150 -154q42 0 82 10v-139q-54 -18 -129 -18q-123 0 -195 73t-72 205v166h-196v148h196v252h-196v147h63q144 0 144 149v162h153v-311h232v-147h-232v-252h232v-148z" />
    <glyph glyph-name="Utilde" unicode="&#x168;" horiz-adv-x="1396" 
d="M1022 1796v-29q0 -103 -49 -160t-131 -57q-71 0 -142 47l-45 29q-51 33 -84 33q-77 0 -77 -100h-119v28q0 102 52.5 158.5t135.5 56.5q71 0 139 -45l46 -28q53 -33 83 -33q32 0 52 22t20 66v12h119zM698 -29q-228 0 -371 137t-143 384v960h172v-956q0 -175 89 -271
t253 -96t253 96t89 271v956h172v-960q0 -247 -143 -384t-371 -137z" />
    <glyph glyph-name="utilde" unicode="&#x169;" horiz-adv-x="1126" 
d="M811 133q-35 -74 -116 -118t-179 -44q-115 0 -200 53.5t-127 142t-42 198.5v616h164v-590q0 -56 13.5 -103.5t41.5 -86t76 -60.5t111 -22q118 0 184 74.5t66 195.5v592h164v-797q0 -106 12 -184h-158q-10 38 -10 125v8zM872 1370v-27q0 -102 -52.5 -157.5t-135.5 -55.5
q-64 0 -133 48l-31 22q-51 35 -86 35q-34 0 -50.5 -23.5t-16.5 -76.5h-127v28q0 102 52.5 156.5t135.5 54.5q76 0 139 -47l31 -22q45 -33 82 -33q68 0 68 98h124z" />
    <glyph glyph-name="Umacron" unicode="&#x16a;" horiz-adv-x="1396" 
d="M698 -29q-228 0 -371 137t-143 384v960h172v-956q0 -175 89 -271t253 -96t253 96t89 271v956h172v-960q0 -247 -143 -384t-371 -137zM989 1610h-581v143h581v-143z" />
    <glyph glyph-name="umacron" unicode="&#x16b;" horiz-adv-x="1126" 
d="M829 1184h-542v143h542v-143zM811 133q-35 -74 -116 -118t-179 -44q-115 0 -200 53.5t-127 142t-42 198.5v616h164v-590q0 -56 13.5 -103.5t41.5 -86t76 -60.5t111 -22q118 0 184 74.5t66 195.5v592h164v-797q0 -106 12 -184h-158q-10 38 -10 125v8z" />
    <glyph glyph-name="Ubreve" unicode="&#x16c;" horiz-adv-x="1396" 
d="M700 1542q-139 0 -221 78t-90 186h141q7 -52 48.5 -91.5t121.5 -39.5t121.5 39.5t48.5 91.5h142q-8 -108 -90.5 -186t-221.5 -78zM698 -29q-228 0 -371 137t-143 384v960h172v-956q0 -175 89 -271t253 -96t253 96t89 271v956h172v-960q0 -247 -143 -384t-371 -137z" />
    <glyph glyph-name="ubreve" unicode="&#x16d;" horiz-adv-x="1126" 
d="M811 133q-35 -74 -116 -118t-179 -44q-115 0 -200 53.5t-127 142t-42 198.5v616h164v-590q0 -56 13.5 -103.5t41.5 -86t76 -60.5t111 -22q118 0 184 74.5t66 195.5v592h164v-797q0 -106 12 -184h-158q-10 38 -10 125v8zM561 1110q-138 0 -215.5 86.5t-77.5 204.5h127
q3 -65 44.5 -110.5t121.5 -45.5t121.5 45.5t44.5 110.5h127q0 -118 -77.5 -204.5t-215.5 -86.5z" />
    <glyph glyph-name="Uring" unicode="&#x16e;" horiz-adv-x="1396" 
d="M698 -29q-228 0 -371 137t-143 384v960h172v-956q0 -175 89 -271t253 -96t253 96t89 271v956h172v-960q0 -247 -143 -384t-371 -137zM698 1520q-89 0 -154 62.5t-65 152.5q0 91 65 154t154 63t154.5 -63t65.5 -154q0 -90 -65.5 -152.5t-154.5 -62.5zM698 1841
q-43 0 -73.5 -31t-30.5 -75t30.5 -74.5t73.5 -30.5t74 30.5t31 74.5t-31 75t-74 31z" />
    <glyph glyph-name="uring" unicode="&#x16f;" horiz-adv-x="1126" 
d="M557 1085q-92 0 -157.5 65t-65.5 157q0 93 65 157t158 64t158 -64t65 -157q0 -92 -65.5 -157t-157.5 -65zM449 1307q0 -48 30.5 -80.5t77.5 -32.5t78 32.5t31 80.5t-31 80t-78 32t-77.5 -32t-30.5 -80zM811 133q-35 -74 -116 -118t-179 -44q-115 0 -200 53.5t-127 142
t-42 198.5v616h164v-590q0 -56 13.5 -103.5t41.5 -86t76 -60.5t111 -22q118 0 184 74.5t66 195.5v592h164v-797q0 -106 12 -184h-158q-10 38 -10 125v8z" />
    <glyph glyph-name="Uhungarumlaut" unicode="&#x170;" horiz-adv-x="1396" 
d="M784 1798l-190 -244h-121l127 244h184zM1071 1798l-211 -244h-121l150 244h182zM698 -29q-228 0 -371 137t-143 384v960h172v-956q0 -175 89 -271t253 -96t253 96t89 271v956h172v-960q0 -247 -143 -384t-371 -137z" />
    <glyph glyph-name="uhungarumlaut" unicode="&#x171;" horiz-adv-x="1126" 
d="M811 133q-35 -74 -116 -118t-179 -44q-115 0 -200 53.5t-127 142t-42 198.5v616h164v-590q0 -56 13.5 -103.5t41.5 -86t76 -60.5t111 -22q118 0 184 74.5t66 195.5v592h164v-797q0 -106 12 -184h-158q-10 38 -10 125v8zM909 1401l-204 -293h-115l135 293h184zM653 1401
l-196 -293h-115l127 293h184z" />
    <glyph glyph-name="Uogonek" unicode="&#x172;" horiz-adv-x="1396" 
d="M571 -238q0 124 107 209q-221 6 -357.5 142.5t-136.5 378.5v960h172v-956q0 -175 89 -271t253 -96t253 96t89 271v956h172v-960q0 -189 -85 -315t-232 -175q-72 -25 -128 -81.5t-56 -127.5q0 -51 34 -77.5t82 -26.5q36 0 68 8v-119q-44 -14 -98 -14q-95 0 -160.5 53
t-65.5 145z" />
    <glyph glyph-name="uogonek" unicode="&#x173;" horiz-adv-x="1126" 
d="M668 -238q0 153 151 240q-8 33 -8 123v8q-35 -74 -116 -118t-179 -44q-115 0 -200 53.5t-127 142t-42 198.5v616h164v-590q0 -56 13.5 -103.5t41.5 -86t76 -60.5t111 -22q118 0 184 74.5t66 195.5v592h164v-797q0 -106 12 -184q-172 -88 -172 -207q0 -51 34.5 -77.5
t82.5 -26.5q35 0 67 8v-119q-44 -14 -98 -14q-95 0 -160 53t-65 145z" />
    <glyph glyph-name="Wcircumflex" unicode="&#x174;" horiz-adv-x="2052" 
d="M848 1554h-160l230 244h225l229 -244h-160l-182 152zM1120 1452l367 -1188l346 1188h176l-430 -1452h-174l-379 1219l-379 -1219h-174l-430 1452h176l346 -1188l367 1188h188z" />
    <glyph glyph-name="wcircumflex" unicode="&#x175;" horiz-adv-x="1652" 
d="M666 1108h-152l217 283h195l215 -283h-152l-162 186zM743 981h170l273 -776l233 776h174l-319 -981h-172l-275 782l-270 -782h-174l-326 981h176l240 -776z" />
    <glyph glyph-name="Ycircumflex" unicode="&#x176;" horiz-adv-x="1294" 
d="M561 621l-510 831h201l395 -674l395 674h201l-510 -831v-621h-172v621zM465 1554h-160l230 244h225l229 -244h-160l-182 152z" />
    <glyph glyph-name="ycircumflex" unicode="&#x177;" horiz-adv-x="1071" 
d="M377 1108h-152l217 283h195l215 -283h-152l-161 186zM410 -389h-183l238 506l-422 864h188l324 -694l305 694h178z" />
    <glyph glyph-name="Ydieresis" unicode="&#x178;" horiz-adv-x="1294" 
d="M561 621l-510 831h201l395 -674l395 674h201l-510 -831v-621h-172v621zM317 1677q0 44 31.5 75.5t75.5 31.5t75 -31.5t31 -75.5t-31 -75t-75 -31t-75.5 31t-31.5 75zM764 1677q0 44 31 75.5t75 31.5t75.5 -31.5t31.5 -75.5t-31.5 -75t-75.5 -31t-75 31t-31 75z" />
    <glyph glyph-name="Zacute" unicode="&#x179;" horiz-adv-x="1288" 
d="M950 1798l-278 -244h-162l213 244h227zM1202 0h-1118v172l903 1122h-885v158h1090v-168l-905 -1126h915v-158z" />
    <glyph glyph-name="zacute" unicode="&#x17a;" horiz-adv-x="966" 
d="M756 1401l-252 -293h-135l178 293h209zM877 0h-785v143l572 691h-566v147h768v-143l-571 -691h582v-147z" />
    <glyph glyph-name="Zdotaccent" unicode="&#x17b;" horiz-adv-x="1288" 
d="M1202 0h-1118v172l903 1122h-885v158h1090v-168l-905 -1126h915v-158zM647 1561q-48 0 -82.5 33.5t-34.5 82.5t34.5 83t82.5 34t82.5 -34t34.5 -83t-34.5 -82.5t-82.5 -33.5z" />
    <glyph glyph-name="zdotaccent" unicode="&#x17c;" horiz-adv-x="966" 
d="M877 0h-785v143l572 691h-566v147h768v-143l-571 -691h582v-147zM365 1255q0 47 33 80t79 33t79.5 -33t33.5 -80t-33.5 -79.5t-79.5 -32.5t-79 32.5t-33 79.5z" />
    <glyph glyph-name="Zcaron" unicode="&#x17d;" horiz-adv-x="1288" 
d="M836 1798h159l-229 -244h-225l-230 244h160l182 -151zM1202 0h-1118v172l903 1122h-885v158h1090v-168l-905 -1126h915v-158z" />
    <glyph glyph-name="zcaron" unicode="&#x17e;" horiz-adv-x="966" 
d="M166 1391h151l162 -187l162 187h152l-215 -283h-195zM877 0h-785v143l572 691h-566v147h768v-143l-571 -691h582v-147z" />
    <glyph glyph-name="uni018F" unicode="&#x18f;" horiz-adv-x="1609" 
d="M82 727v29h1253q-4 135 -51.5 245t-124 179t-172 106t-199.5 37q-183 0 -328.5 -103.5t-193.5 -261.5l-153 56q62 203 249.5 335t425.5 132q109 0 213.5 -31.5t196 -95t160.5 -152t109 -211.5t40 -264t-39 -264t-107.5 -212t-158.5 -153t-194 -95.5t-213 -31.5t-213 31
t-194.5 94t-158.5 151.5t-107.5 212.5t-39.5 267zM795 129q95 0 181.5 30.5t158.5 88t122 148.5t68 204h-1061q13 -113 62.5 -204t122 -148.5t161 -88t185.5 -30.5z" />
    <glyph glyph-name="florin" unicode="&#x192;" horiz-adv-x="964" 
d="M223 33l160 801h-231v147h260l47 231q29 146 120 219.5t209 73.5q87 0 142 -20v-146q-43 15 -107 15q-74 0 -128.5 -41.5t-78.5 -155.5l-34 -176h268v-147h-297l-172 -857q-29 -146 -119.5 -219t-210.5 -73q-90 0 -145 20v145q40 -14 110 -14q168 0 207 197z" />
    <glyph glyph-name="uni01B5" unicode="&#x1b5;" horiz-adv-x="1288" 
d="M1202 0h-1118v172l412 512h-310v150h430l371 460h-885v158h1090v-168l-363 -450h277v-150h-397l-422 -526h915v-158z" />
    <glyph glyph-name="uni01B6" unicode="&#x1b6;" horiz-adv-x="966" 
d="M877 0h-785v143l246 297h-229v148h350l205 246h-566v147h768v-143l-207 -250h185v-148h-307l-242 -293h582v-147z" />
    <glyph glyph-name="Aringacute" unicode="&#x1fa;" horiz-adv-x="1445" 
d="M1221 0l-166 424h-666l-162 -424h-186l549 1372q-47 32 -76 83.5t-29 109.5q0 98 70.5 165.5t165.5 67.5t165 -67.5t70 -165.5q0 -58 -28 -107.5t-74 -83.5l553 -1374h-186zM721 1276l-270 -694h542zM721 1679q-46 0 -79.5 -33.5t-33.5 -80.5t33.5 -80t79.5 -33t79.5 33
t33.5 80t-33.5 80.5t-79.5 33.5zM1075 2085l-278 -244h-162l213 244h227z" />
    <glyph glyph-name="aringacute" unicode="&#x1fb;" horiz-adv-x="1048" 
d="M90 260q0 125 79 199t214 94l264 39q51 7 69.5 27.5t18.5 56.5q0 87 -58 140.5t-169 53.5q-105 0 -169 -57.5t-75 -153.5l-155 37q15 139 125.5 226.5t269.5 87.5q101 0 178.5 -28t124 -77t69.5 -111t23 -135v-495q0 -102 12 -164h-159q-13 75 -13 147
q-38 -71 -121.5 -123.5t-203.5 -52.5q-146 0 -235 85.5t-89 203.5zM434 111q135 0 218 76.5t83 226.5v65l-319 -47q-74 -11 -118 -53t-44 -111q0 -63 49.5 -110t130.5 -47zM827 1888l-252 -293h-135l178 293h209zM510 1077q-92 0 -157.5 64.5t-65.5 156.5q0 93 65 157.5
t158 64.5t158 -64.5t65 -157.5q0 -92 -65.5 -156.5t-157.5 -64.5zM401 1298q0 -48 31 -80t78 -32t77.5 32t30.5 80t-30.5 80.5t-77.5 32.5t-78 -32.5t-31 -80.5z" />
    <glyph glyph-name="AEacute" unicode="&#x1fc;" horiz-adv-x="2048" 
d="M1466 1798l-278 -244h-162l213 244h227zM1935 0h-870v424h-571l-275 -424h-221l967 1452h970v-158h-698v-489h635v-158h-635v-489h698v-158zM1065 1303l-469 -721h469v721z" />
    <glyph glyph-name="aeacute" unicode="&#x1fd;" horiz-adv-x="1751" 
d="M1169 1401l-251 -293h-136l179 293h208zM504 1010q254 0 348 -172q66 83 156 127.5t192 44.5q219 0 341 -138.5t122 -367.5q0 -30 -4 -58h-756v-8q0 -138 92 -228.5t226 -90.5q117 0 190 58t105 153l141 -51q-44 -135 -158 -221.5t-276 -86.5q-129 0 -238 59.5
t-174 170.5q-47 -100 -144.5 -165t-252.5 -65q-146 0 -235 85.5t-89 203.5q0 125 79 199t214 94l264 39q51 7 69.5 27.5t18.5 56.5q0 87 -58 140.5t-169 53.5q-105 0 -169 -57.5t-75 -153.5l-155 37q15 139 125.5 226.5t269.5 87.5zM434 111q135 0 218 76.5t83 226.5v65
l-319 -47q-74 -11 -118 -53t-44 -111q0 -63 49.5 -110t130.5 -47zM907 586h586q-3 122 -79.5 200t-211.5 78q-123 0 -205 -82t-90 -196z" />
    <glyph glyph-name="Oslashacute" unicode="&#x1fe;" horiz-adv-x="1642" 
d="M102 727q0 176 61.5 321.5t163.5 238.5t229.5 143.5t264.5 50.5q222 0 402 -121l145 188l117 -90l-150 -192q205 -212 205 -539q0 -141 -40 -264t-109 -212t-160.5 -153t-196 -95.5t-213.5 -31.5q-215 0 -395 117l-145 -186l-121 90l149 192q-97 99 -152 237t-55 306z
M274 727q0 -251 136 -414l714 920q-137 90 -303 90q-85 0 -164.5 -24t-149.5 -73t-121.5 -119t-81.5 -167.5t-30 -212.5zM1368 727q0 249 -133 408l-713 -920q133 -86 299 -86q108 0 205 38.5t174 111.5t122.5 189t45.5 259zM1167 1798l-278 -244h-162l213 244h227z" />
    <glyph glyph-name="oslashacute" unicode="&#x1ff;" horiz-adv-x="1171" 
d="M586 1010q142 0 262 -74l104 137l105 -84l-109 -139q129 -142 129 -358q0 -227 -139 -374t-352 -147q-140 0 -262 72l-105 -135l-104 84l106 139q-127 143 -127 361q0 225 139.5 371.5t352.5 146.5zM913 492q0 136 -63 231l-432 -559q71 -45 168 -45q138 0 232.5 100
t94.5 273zM586 862q-138 0 -233 -99t-95 -271q0 -142 64 -234l432 557q-74 47 -168 47zM899 1401l-252 -293h-135l178 293h209z" />
    <glyph glyph-name="Scommaaccent" unicode="&#x218;" horiz-adv-x="1206" 
d="M1092 1122l-154 -55q-9 49 -32 93t-61.5 82t-99 61t-135.5 24q-127 0 -214 -74t-87 -184q0 -88 54.5 -147.5t154.5 -81.5l213 -47q176 -38 274.5 -143.5t98.5 -258.5q0 -173 -137 -296.5t-357 -123.5q-121 0 -220 37t-162.5 99.5t-101.5 137.5t-48 158l162 52
q13 -138 110 -233t260 -95q152 0 237 70.5t85 179.5q0 90 -61 155t-175 91l-213 47q-158 35 -252 135t-94 254q0 112 62.5 209t171.5 155t237 58q90 0 166.5 -21.5t129 -56.5t92 -82.5t62 -96.5t34.5 -102zM524 -178q0 44 33 71t78 27q48 0 84.5 -34t36.5 -103
q0 -106 -65.5 -165t-153.5 -62v75q51 1 89 33.5t40 73.5q-15 -12 -43 -12q-44 0 -71.5 25.5t-27.5 70.5z" />
    <glyph glyph-name="scommaaccent" unicode="&#x219;" horiz-adv-x="917" 
d="M80 258l147 51q11 -88 75 -143t171 -55q86 0 138.5 42.5t52.5 106.5q0 54 -40 91t-110 52l-160 37q-114 27 -178.5 98t-64.5 175q0 123 101 210t241 87q73 0 133 -18t98.5 -45t67.5 -64t43 -69t22 -66l-145 -54q-5 29 -18 56.5t-37 56t-66.5 46t-97.5 17.5
q-77 0 -130 -43t-53 -104q0 -103 129 -133l160 -37q129 -29 197.5 -102.5t68.5 -182.5q0 -54 -23 -106t-66 -95t-112 -69.5t-153 -26.5q-92 0 -167 27t-120.5 71t-71.5 92t-32 97zM371 -178q0 44 32.5 71t77.5 27q48 0 84.5 -34t36.5 -103q0 -106 -65.5 -165t-153.5 -62v75
q51 1 89 33.5t40 73.5q-15 -12 -43 -12q-44 0 -71 25.5t-27 70.5z" />
    <glyph glyph-name="uni021A" unicode="&#x21a;" horiz-adv-x="1243" 
d="M518 -178q0 44 33 71t78 27q48 0 84.5 -34t36.5 -103q0 -106 -66 -165t-154 -62v75q51 1 89 33.5t40 73.5q-15 -12 -43 -12q-44 0 -71 25.5t-27 70.5zM1204 1294h-497v-1294h-170v1294h-498v158h1165v-158z" />
    <glyph glyph-name="uni021B" unicode="&#x21b;" horiz-adv-x="694" 
d="M397 1292v-311h232v-147h-232v-543q0 -154 150 -154q42 0 82 10v-139q-41 -15 -113 -18l-61 -94q12 4 30 4q82 0 133.5 -45t51.5 -117q0 -77 -60.5 -127.5t-173.5 -50.5q-70 0 -130 27.5t-93 68.5l68 80q69 -74 155 -74q47 0 78 19.5t31 56.5q0 33 -27.5 53.5t-75.5 20.5
q-32 0 -65 -13l-60 70l84 135q-79 25 -123.5 93t-44.5 171v566h-196v147h63q144 0 144 149v162h153z" />
    <glyph glyph-name="dotlessj" unicode="&#x237;" horiz-adv-x="483" 
d="M160 -115v1096h164v-1102q0 -134 -72.5 -215.5t-196.5 -81.5q-67 0 -110 17v143q24 -12 69 -12q77 0 111.5 38.5t34.5 116.5z" />
    <glyph glyph-name="uni0259" unicode="&#x259;" horiz-adv-x="1107" 
d="M844 395h-586q3 -122 79.5 -200t211.5 -78q123 0 205 82t90 196zM236 651l-142 51q44 135 158.5 221.5t277.5 86.5q99 0 186.5 -36t154.5 -101.5t106 -165.5t39 -220q0 -113 -38 -210.5t-101.5 -164t-148 -104t-177.5 -37.5q-219 0 -341 138.5t-122 367.5q0 30 4 58h756
v8q0 138 -92 228.5t-226 90.5q-117 0 -189.5 -57.5t-104.5 -153.5z" />
    <glyph glyph-name="circumflex" unicode="&#x2c6;" horiz-adv-x="790" 
d="M233 1108h-151l217 283h195l215 -283h-152l-162 186z" />
    <glyph glyph-name="caron" unicode="&#x2c7;" horiz-adv-x="790" 
d="M82 1391h151l162 -187l162 187h152l-215 -283h-195z" />
    <glyph glyph-name="uni02C9" unicode="&#x2c9;" horiz-adv-x="706" 
d="M625 1184h-543v143h543v-143z" />
    <glyph glyph-name="breve" unicode="&#x2d8;" horiz-adv-x="749" 
d="M375 1110q-138 0 -215.5 86.5t-77.5 204.5h127q3 -65 44.5 -110.5t121.5 -45.5t121.5 45.5t44.5 110.5h127q0 -118 -77.5 -204.5t-215.5 -86.5z" />
    <glyph glyph-name="dotaccent" unicode="&#x2d9;" horiz-adv-x="389" 
d="M82 1255q0 47 33.5 80t79.5 33t79 -33t33 -80t-33 -79.5t-79 -32.5t-79.5 32.5t-33.5 79.5z" />
    <glyph glyph-name="ring" unicode="&#x2da;" horiz-adv-x="610" 
d="M305 1085q-92 0 -157.5 65t-65.5 157q0 93 65 157t158 64t158 -64t65 -157q0 -92 -65.5 -157t-157.5 -65zM197 1307q0 -48 30.5 -80.5t77.5 -32.5t78 32.5t31 80.5t-31 80t-78 32t-77.5 -32t-30.5 -80z" />
    <glyph glyph-name="ogonek" unicode="&#x2db;" horiz-adv-x="487" 
d="M82 -238q0 172 203 267l108 -29q-172 -88 -172 -207q0 -51 34.5 -77.5t82.5 -26.5q36 0 68 8v-119q-44 -14 -99 -14q-95 0 -160 53t-65 145z" />
    <glyph glyph-name="tilde" unicode="&#x2dc;" horiz-adv-x="796" 
d="M715 1370v-27q0 -102 -53 -157.5t-136 -55.5q-64 0 -133 48l-31 22q-51 35 -86 35q-34 0 -50.5 -23.5t-16.5 -76.5h-127v28q0 102 52.5 156.5t135.5 54.5q77 0 140 -47l30 -22q45 -33 82 -33q68 0 68 98h125z" />
    <glyph glyph-name="hungarumlaut" unicode="&#x2dd;" horiz-adv-x="731" 
d="M649 1401l-205 -293h-114l135 293h184zM393 1401l-196 -293h-115l127 293h184z" />
    <glyph glyph-name="uni0394" unicode="&#x394;" horiz-adv-x="1454" 
d="M59 0l574 1452h186l576 -1452h-1336zM723 1262l-420 -1104h846z" />
    <glyph glyph-name="uni03A9" unicode="&#x3a9;" horiz-adv-x="1687" 
d="M844 1327q-103 0 -200.5 -37t-175.5 -104t-125.5 -172t-47.5 -230q0 -112 39.5 -210.5t105.5 -167.5t146 -114.5t166 -62.5v-229h-617v152h430q-86 30 -164.5 86.5t-141.5 135.5t-100.5 185t-37.5 223q0 158 59.5 291.5t160 221.5t230.5 137t273 49t273 -49t230.5 -137
t160 -221.5t59.5 -291.5q0 -117 -37.5 -223t-101 -185t-142.5 -135.5t-166 -86.5h432v-152h-616v229q86 17 166 62.5t146 114.5t105.5 167.5t39.5 210.5q0 125 -47.5 230t-125.5 172t-175.5 104t-200.5 37z" />
    <glyph glyph-name="uni03BC" unicode="&#x3bc;" horiz-adv-x="1112" 
d="M809 133q-37 -75 -117.5 -118.5t-179.5 -43.5q-136 0 -203 82v-442h-164v1370h164v-592q0 -118 59 -195t181 -77q120 0 186 74.5t66 195.5v594h164v-797q0 -102 10 -184h-158q-8 40 -8 127v6z" />
    <glyph glyph-name="pi" unicode="&#x3c0;" horiz-adv-x="1202" 
d="M1114 8q-55 -22 -121 -22q-112 0 -170.5 67.5t-58.5 165.5v619h-371v-838h-164v838h-178v143h1057v-143h-180v-600q0 -56 31 -83.5t85 -27.5q43 0 70 8v-127z" />
    <glyph glyph-name="Wgrave" unicode="&#x1e80;" horiz-adv-x="2052" 
d="M950 1554l-278 244h227l213 -244h-162zM1120 1452l367 -1188l346 1188h176l-430 -1452h-174l-379 1219l-379 -1219h-174l-430 1452h176l346 -1188l367 1188h188z" />
    <glyph glyph-name="wgrave" unicode="&#x1e81;" horiz-adv-x="1652" 
d="M762 1108l-252 293h209l178 -293h-135zM743 981h170l273 -776l233 776h174l-319 -981h-172l-275 782l-270 -782h-174l-326 981h176l240 -776z" />
    <glyph glyph-name="Wacute" unicode="&#x1e82;" horiz-adv-x="2052" 
d="M1391 1798l-279 -244h-162l213 244h228zM1120 1452l367 -1188l346 1188h176l-430 -1452h-174l-379 1219l-379 -1219h-174l-430 1452h176l346 -1188l367 1188h188z" />
    <glyph glyph-name="wacute" unicode="&#x1e83;" horiz-adv-x="1652" 
d="M1149 1401l-252 -293h-135l178 293h209zM743 981h170l273 -776l233 776h174l-319 -981h-172l-275 782l-270 -782h-174l-326 981h176l240 -776z" />
    <glyph glyph-name="Wdieresis" unicode="&#x1e84;" horiz-adv-x="2052" 
d="M635 1677q0 44 31 75.5t75 31.5t75.5 -31.5t31.5 -75.5t-31.5 -75t-75.5 -31t-75 31t-31 75zM1204 1677q0 44 31.5 75.5t75.5 31.5t75 -31.5t31 -75.5t-31 -75t-75 -31t-75.5 31t-31.5 75zM1120 1452l367 -1188l346 1188h176l-430 -1452h-174l-379 1219l-379 -1219h-174
l-430 1452h176l346 -1188l367 1188h188z" />
    <glyph glyph-name="wdieresis" unicode="&#x1e85;" horiz-adv-x="1652" 
d="M494 1262q0 44 31 75t75 31t75.5 -31t31.5 -75t-31.5 -75.5t-75.5 -31.5t-75 31.5t-31 75.5zM948 1262q0 44 31.5 75t75.5 31t75 -31t31 -75t-31 -75.5t-75 -31.5t-75.5 31.5t-31.5 75.5zM743 981h170l273 -776l233 776h174l-319 -981h-172l-275 782l-270 -782h-174
l-326 981h176l240 -776z" />
    <glyph glyph-name="uni1E8A" unicode="&#x1e8a;" horiz-adv-x="1255" 
d="M1221 1452l-492 -725l488 -727h-205l-383 590l-389 -590h-207l493 727l-489 725h209l383 -592l385 592h207zM627 1561q-48 0 -82.5 33.5t-34.5 82.5t34.5 83t82.5 34t82 -34t34 -83t-34 -82.5t-82 -33.5z" />
    <glyph glyph-name="uni1E8B" unicode="&#x1e8b;" horiz-adv-x="1011" 
d="M37 0l375 502l-359 479h199l256 -360l258 360h192l-358 -479l375 -502h-197l-272 379l-273 -379h-196zM395 1255q0 47 33.5 80t79.5 33t79.5 -33t33.5 -80t-33.5 -79.5t-79.5 -32.5t-79.5 32.5t-33.5 79.5z" />
    <glyph glyph-name="Ygrave" unicode="&#x1ef2;" horiz-adv-x="1294" 
d="M561 621l-510 831h201l395 -674l395 674h201l-510 -831v-621h-172v621zM592 1554l-279 244h228l213 -244h-162z" />
    <glyph glyph-name="ygrave" unicode="&#x1ef3;" horiz-adv-x="1071" 
d="M410 -389h-183l238 506l-422 864h188l324 -694l305 694h178zM512 1108l-252 293h209l178 -293h-135z" />
    <glyph glyph-name="uni2007" unicode="&#x2007;" horiz-adv-x="1253" 
 />
    <glyph glyph-name="uni2008" unicode="&#x2008;" horiz-adv-x="495" 
 />
    <glyph glyph-name="uni200B" unicode="&#x200b;" horiz-adv-x="0" 
 />
    <glyph glyph-name="endash" unicode="&#x2013;" horiz-adv-x="1316" 
d="M1178 516h-1039v143h1039v-143z" />
    <glyph glyph-name="emdash" unicode="&#x2014;" horiz-adv-x="2199" 
d="M2060 516h-1921v143h1921v-143z" />
    <glyph glyph-name="quoteleft" unicode="&#x2018;" horiz-adv-x="497" 
d="M375 1065q0 -50 -36 -85.5t-91 -35.5q-59 0 -99 44.5t-40 125.5q0 83 24 149.5t64 107.5t85 65t93 30v-90q-71 -13 -113.5 -71.5t-42.5 -130.5q15 10 41 10q49 0 82 -32.5t33 -86.5z" />
    <glyph glyph-name="quoteright" unicode="&#x2019;" horiz-adv-x="499" 
d="M137 1348q0 50 36 85t91 35q59 0 99 -44.5t40 -125.5q0 -83 -24 -149.5t-64 -107.5t-85 -65t-93 -30v90q71 13 113.5 72t42.5 131q-15 -10 -41 -10q-49 0 -82 32.5t-33 86.5z" />
    <glyph glyph-name="quotesinglbase" unicode="&#x201a;" horiz-adv-x="509" 
d="M123 111q0 50 36 85t91 35q59 0 99 -44.5t40 -125.5q0 -83 -24 -149.5t-64 -107.5t-85 -65t-93 -30v90q71 13 113.5 72t42.5 131q-15 -10 -41 -10q-49 0 -82 32.5t-33 86.5z" />
    <glyph glyph-name="quotedblleft" unicode="&#x201c;" horiz-adv-x="825" 
d="M375 1065q0 -50 -36 -85.5t-91 -35.5q-59 0 -99 44.5t-40 125.5q0 83 24 149.5t64 107.5t85 65t93 30v-90q-71 -13 -113.5 -71.5t-42.5 -130.5q15 10 41 10q49 0 82 -32.5t33 -86.5zM702 1065q0 -50 -36 -85.5t-91 -35.5q-59 0 -99 44.5t-40 125.5q0 83 24 149.5
t64 107.5t85 65t93 30v-90q-71 -13 -113 -71.5t-42 -130.5q15 10 41 10q49 0 81.5 -32.5t32.5 -86.5z" />
    <glyph glyph-name="quotedblright" unicode="&#x201d;" horiz-adv-x="827" 
d="M465 1348q0 50 36 85t91 35q59 0 99 -44.5t40 -125.5q0 -83 -24 -149.5t-64 -107.5t-85 -65t-93 -30v90q71 13 113.5 72t42.5 131q-15 -10 -41 -10q-49 0 -82 32.5t-33 86.5zM137 1348q0 50 36 85t91 35q59 0 99 -44.5t40 -125.5q0 -83 -24 -149.5t-64 -107.5t-85 -65
t-93 -30v90q71 13 113.5 72t42.5 131q-15 -10 -41 -10q-49 0 -82 32.5t-33 86.5z" />
    <glyph glyph-name="quotedblbase" unicode="&#x201e;" horiz-adv-x="837" 
d="M123 111q0 50 36 85t91 35q59 0 99 -44.5t40 -125.5q0 -83 -24 -149.5t-64 -107.5t-85 -65t-93 -30v90q71 13 113.5 72t42.5 131q-15 -10 -41 -10q-49 0 -82 32.5t-33 86.5zM451 111q0 50 36 85t91 35q59 0 99 -44.5t40 -125.5q0 -83 -24 -149.5t-64 -107.5t-85 -65
t-93 -30v90q71 13 113 72t42 131q-15 -10 -41 -10q-49 0 -81.5 32.5t-32.5 86.5z" />
    <glyph glyph-name="dagger" unicode="&#x2020;" horiz-adv-x="839" 
d="M492 332h-144v661h-268v144h268v315h144v-315h268v-144h-268v-661z" />
    <glyph glyph-name="daggerdbl" unicode="&#x2021;" horiz-adv-x="921" 
d="M121 459h268v534h-268v144h268v315h143v-315h269v-144h-269v-534h269v-144h-269v-315h-143v315h-268v144z" />
    <glyph glyph-name="bullet" unicode="&#x2022;" horiz-adv-x="1146" 
d="M152 586q0 178 123 301t298 123t298.5 -123t123.5 -301t-123.5 -301t-298.5 -123t-298 123t-123 301z" />
    <glyph glyph-name="ellipsis" unicode="&#x2026;" horiz-adv-x="1529" 
d="M121 111q0 49 35.5 83.5t85.5 34.5t84 -34.5t34 -83.5q0 -51 -34 -86t-84 -35t-85.5 35t-35.5 86zM645 111q0 49 35.5 83.5t85.5 34.5t84.5 -34.5t34.5 -83.5q0 -51 -34.5 -86t-84.5 -35t-85.5 35t-35.5 86zM1169 111q0 49 35.5 83.5t85.5 34.5t84.5 -34.5t34.5 -83.5
q0 -51 -34.5 -86t-84.5 -35t-85.5 35t-35.5 86z" />
    <glyph glyph-name="perthousand" unicode="&#x2030;" horiz-adv-x="2086" 
d="M1022 303q0 -78 51 -130t125 -52q75 0 126.5 52t51.5 130t-51.5 130t-126.5 52q-74 0 -125 -52t-51 -130zM1524 303q0 -78 51 -130t125 -52q75 0 126.5 52t51.5 130t-51.5 130t-126.5 52q-74 0 -125 -52t-51 -130zM879 303q0 133 94 226.5t225 93.5q78 0 144 -36.5
t108 -99.5q41 63 106.5 99.5t143.5 36.5q133 0 228 -93.5t95 -226.5t-95 -226t-228 -93q-78 0 -143.5 36t-106.5 97q-42 -61 -108 -97t-144 -36q-131 0 -225 93t-94 226zM211 1028q0 -78 51 -130t125 -52q76 0 127 52t51 130t-51 130t-127 52q-74 0 -125 -52t-51 -130z
M68 1028q0 133 94 226.5t225 93.5q133 0 228.5 -93.5t95.5 -226.5t-95.5 -226t-228.5 -93q-131 0 -225 93t-94 226zM393 0h-162l961 1327h158z" />
    <glyph glyph-name="guilsinglleft" unicode="&#x2039;" horiz-adv-x="628" 
d="M526 199h-161l-273 391l273 391h161l-268 -391z" />
    <glyph glyph-name="guilsinglright" unicode="&#x203a;" horiz-adv-x="628" 
d="M264 199h-162l269 391l-269 391h162l273 -391z" />
    <glyph glyph-name="uni2042" unicode="&#x2042;" horiz-adv-x="1695" 
d="M909 1452v-256l240 82l35 -113l-240 -82l158 -209l-96 -71l-160 215l-152 -213l-96 72l154 206l-242 82l37 113l237 -84v258h125zM469 637v-256l240 82l34 -113l-239 -82l158 -209l-97 -71l-159 215l-152 -213l-96 71l153 207l-241 82l36 113l238 -84v258h125zM1352 637
v-256l239 82l35 -113l-240 -82l158 -209l-96 -71l-160 215l-151 -213l-97 71l154 207l-242 82l37 113l238 -84v258h125z" />
    <glyph glyph-name="fraction" unicode="&#x2044;" horiz-adv-x="356" 
d="M-233 0h-162l960 1327h158z" />
    <glyph glyph-name="uni2051" unicode="&#x2051;" horiz-adv-x="907" 
d="M516 1452v-256l240 82l35 -113l-240 -82l158 -209l-97 -71l-159 215l-152 -213l-96 72l153 206l-241 82l37 113l237 -84v258h125zM516 637v-256l240 82l35 -113l-240 -82l158 -209l-97 -71l-159 215l-152 -213l-96 71l153 207l-241 82l37 113l237 -84v258h125z" />
    <glyph glyph-name="uni2070" unicode="&#x2070;" horiz-adv-x="778" 
d="M219 1077q0 -268 170 -268q172 0 172 268q0 271 -172 271q-170 0 -170 -271zM80 1077q0 173 74 273q81 114 235 114q157 0 238 -114q71 -99 71 -273q0 -168 -71 -270q-82 -115 -238 -115q-153 0 -235 115q-74 102 -74 270z" />
    <glyph glyph-name="uni2074" unicode="&#x2074;" horiz-adv-x="768" 
d="M55 862v131l365 459h155v-475h136v-115h-136v-155h-137v155h-383zM438 977v319l-252 -319h252z" />
    <glyph glyph-name="uni2075" unicode="&#x2075;" horiz-adv-x="704" 
d="M59 887l119 51q12 -59 56.5 -95t107.5 -36q67 0 110.5 38t43.5 101q0 67 -43 105.5t-111 38.5q-81 0 -143 -62l-115 43l100 381h412v-115h-322l-53 -202q55 61 158 61q114 0 184 -67t70 -177q0 -111 -78.5 -185.5t-212.5 -74.5q-108 0 -186.5 58t-96.5 137z" />
    <glyph glyph-name="uni2076" unicode="&#x2076;" horiz-adv-x="747" 
d="M645 1427l-31 -104q-55 31 -133 31q-112 0 -182 -66t-84 -182q23 44 79 73t120 29q119 0 191.5 -68t72.5 -188q0 -115 -84.5 -187.5t-210.5 -72.5q-60 0 -114 21.5t-97 63t-68.5 108t-25.5 149.5q0 198 111.5 315t281.5 117q110 0 174 -39zM229 952q0 -66 47 -105.5
t109 -39.5q63 0 109.5 39.5t46.5 105.5q0 65 -46.5 104.5t-109.5 39.5q-62 0 -109 -39.5t-47 -104.5z" />
    <glyph glyph-name="uni2077" unicode="&#x2077;" horiz-adv-x="688" 
d="M647 1452v-123q-283 -223 -325 -622h-144q10 110 42.5 213t67.5 169.5t79.5 126t66.5 82.5t41 39h-426v115h598z" />
    <glyph glyph-name="uni2078" unicode="&#x2078;" horiz-adv-x="737" 
d="M369 1143q61 0 97 29t36 79q0 46 -36 75.5t-97 29.5t-97 -29.5t-36 -75.5q0 -49 36.5 -78.5t96.5 -29.5zM369 805q73 0 113 32t40 83q0 52 -40.5 83t-112.5 31q-71 0 -111.5 -31t-40.5 -83q0 -51 40 -83t112 -32zM369 692q-134 0 -212.5 61.5t-78.5 155.5q0 59 39 108.5
t106 72.5q-56 20 -88.5 65t-32.5 100q0 92 75 151.5t192 59.5t192.5 -59.5t75.5 -151.5q0 -55 -33.5 -100t-89.5 -65q67 -23 106 -72.5t39 -108.5q0 -94 -77.5 -155.5t-212.5 -61.5z" />
    <glyph glyph-name="uni2079" unicode="&#x2079;" horiz-adv-x="745" 
d="M102 733l33 107q64 -31 135 -31q112 0 182.5 62.5t79.5 185.5q-25 -46 -80 -75.5t-116 -29.5q-116 0 -191 70t-75 186q0 114 85 187t210 73q127 0 214 -89.5t87 -252.5q0 -202 -104.5 -318t-280.5 -116q-112 0 -179 41zM514 1208q0 65 -46 105.5t-110 40.5t-108.5 -40.5
t-44.5 -105.5t44.5 -105t108.5 -40q65 0 110.5 40t45.5 105z" />
    <glyph glyph-name="uni2080" unicode="&#x2080;" horiz-adv-x="786" 
d="M223 215q0 -268 170 -268q172 0 172 268q0 270 -172 270q-170 0 -170 -270zM84 215q0 172 74 272q82 115 235 115q156 0 238 -115q71 -99 71 -272q0 -168 -71 -270q-82 -115 -238 -115q-153 0 -235 115q-74 102 -74 270z" />
    <glyph glyph-name="uni2081" unicode="&#x2081;" horiz-adv-x="471" 
d="M362 -156h-135v523h-176v77q73 6 123.5 47.5t61.5 98.5h126v-746z" />
    <glyph glyph-name="uni2082" unicode="&#x2082;" horiz-adv-x="714" 
d="M227 307l-131 2q-6 27 -6 58q0 100 73.5 167.5t194.5 67.5q119 0 191 -66.5t72 -162.5q0 -135 -146 -226l-147 -92q-68 -44 -76 -96h375v-115h-541v19q0 186 168 289l131 81q98 59 98 142q0 47 -34.5 80.5t-92.5 33.5q-61 0 -98 -36t-37 -97q0 -25 6 -49z" />
    <glyph glyph-name="uni2083" unicode="&#x2083;" horiz-adv-x="741" 
d="M305 193l-53 100l213 184h-373v115h547v-113l-217 -184q10 2 29 2q81 0 142.5 -61t61.5 -162q0 -102 -81 -173t-209 -71q-124 0 -202.5 62t-94.5 151l118 47q9 -64 58.5 -104.5t117.5 -40.5t112 37t44 92q0 64 -44 95.5t-109 31.5q-28 0 -60 -8z" />
    <glyph glyph-name="uni2084" unicode="&#x2084;" horiz-adv-x="774" 
d="M59 0v131l365 459h156v-475h135v-115h-135v-156h-138v156h-383zM442 115v319l-252 -319h252z" />
    <glyph glyph-name="uni2085" unicode="&#x2085;" horiz-adv-x="708" 
d="M61 25l119 51q12 -59 56.5 -95t107.5 -36q67 0 110.5 38t43.5 101q0 67 -43 105t-111 38q-82 0 -143 -61l-115 43l100 381h412v-115h-322l-53 -203q56 62 158 62q114 0 184 -67t70 -177q0 -111 -78.5 -185.5t-212.5 -74.5q-108 0 -186.5 58t-96.5 137z" />
    <glyph glyph-name="uni2086" unicode="&#x2086;" horiz-adv-x="753" 
d="M649 565l-31 -104q-55 31 -133 31q-112 0 -182 -66t-84 -182q23 44 79 73t120 29q119 0 191.5 -68t72.5 -188q0 -115 -84.5 -187.5t-210.5 -72.5q-60 0 -114 21.5t-97 63t-68.5 108t-25.5 149.5q0 198 111.5 315t281.5 117q110 0 174 -39zM233 90q0 -66 47 -105.5
t109 -39.5q63 0 109.5 39.5t46.5 105.5q0 65 -46.5 104t-109.5 39q-62 0 -109 -39.5t-47 -103.5z" />
    <glyph glyph-name="uni2087" unicode="&#x2087;" horiz-adv-x="692" 
d="M649 590v-123q-283 -223 -325 -623h-144q10 110 42.5 213t67.5 169.5t79.5 126.5t66.5 83t41 39h-426v115h598z" />
    <glyph glyph-name="uni2088" unicode="&#x2088;" horiz-adv-x="745" 
d="M373 281q61 0 97 29t36 79q0 46 -36 75.5t-97 29.5t-97 -29.5t-36 -75.5q0 -49 36.5 -78.5t96.5 -29.5zM373 -57q73 0 113 31.5t40 82.5q0 52 -40.5 83.5t-112.5 31.5q-71 0 -111.5 -31.5t-40.5 -83.5q0 -51 40 -82.5t112 -31.5zM373 -170q-134 0 -212.5 61.5
t-78.5 155.5q0 59 39 108t106 72q-56 20 -88.5 65.5t-32.5 100.5q0 92 75 151.5t192 59.5t192.5 -59.5t75.5 -151.5q0 -55 -33.5 -100.5t-89.5 -65.5q67 -23 106.5 -72t39.5 -108q0 -94 -78 -155.5t-213 -61.5z" />
    <glyph glyph-name="uni2089" unicode="&#x2089;" horiz-adv-x="751" 
d="M106 -129l33 106q61 -30 135 -30q112 0 183 62.5t80 185.5q-25 -46 -80.5 -75.5t-116.5 -29.5q-116 0 -191 70t-75 186q0 114 85 187t210 73q127 0 214 -89.5t87 -252.5q0 -202 -104.5 -318t-280.5 -116q-112 0 -179 41zM518 346q0 65 -46 105.5t-110 40.5t-108.5 -40.5
t-44.5 -105.5t44.5 -105t108.5 -40q65 0 110.5 40t45.5 105z" />
    <glyph glyph-name="Euro" unicode="&#x20ac;" horiz-adv-x="1390" 
d="M92 571h164q-4 50 -4 95q0 36 4 86h-164v135h191q33 114 101.5 205.5t156.5 148t185.5 86t195.5 29.5q211 0 348 -94l-70 -134q-109 76 -278 76q-150 0 -280 -82t-183 -235h626l-67 -135h-592q-6 -41 -6 -86q0 -60 6 -95h508l-70 -135h-401q53 -152 177.5 -232.5
t274.5 -80.5q204 0 322 115l84 -123q-167 -144 -406 -144q-99 0 -195.5 30t-181.5 86.5t-152 146.5t-101 202h-193v135z" />
    <glyph glyph-name="uni2113" unicode="&#x2113;" horiz-adv-x="808" 
d="M80 532q55 13 141 54v452q0 148 71 233t187 85q125 0 192.5 -78.5t67.5 -216.5q0 -165 -94.5 -315t-259.5 -250v-189q0 -82 38.5 -124t102.5 -42q107 0 179 56v-150q-66 -57 -185 -57q-146 0 -222.5 84t-76.5 225v121q-81 -29 -141 -41v153zM575 1061q0 145 -90 145
q-100 0 -100 -166v-352q190 157 190 373z" />
    <glyph glyph-name="trademark" unicode="&#x2122;" horiz-adv-x="1775" 
d="M680 1333h-234v-618h-133v618h-233v119h600v-119zM1612 715h-133v508l-224 -508h-106l-217 502v-502h-133v737h172l235 -547l236 547h170v-737z" />
    <glyph glyph-name="Omega" unicode="&#x2126;" horiz-adv-x="1687" 
d="M844 1327q-103 0 -200.5 -37t-175.5 -104t-125.5 -172t-47.5 -230q0 -112 39.5 -210.5t105.5 -167.5t146 -114.5t166 -62.5v-229h-617v152h430q-86 30 -164.5 86.5t-141.5 135.5t-100.5 185t-37.5 223q0 158 59.5 291.5t160 221.5t230.5 137t273 49t273 -49t230.5 -137
t160 -221.5t59.5 -291.5q0 -117 -37.5 -223t-101 -185t-142.5 -135.5t-166 -86.5h432v-152h-616v229q86 17 166 62.5t146 114.5t105.5 167.5t39.5 210.5q0 125 -47.5 230t-125.5 172t-175.5 104t-200.5 37z" />
    <glyph glyph-name="uni2160" unicode="&#x2160;" horiz-adv-x="1001" 
d="M903 1327v-153h-317v-1020h317v-154h-805v154h318v1020h-318v153h805z" />
    <glyph glyph-name="uni2161" unicode="&#x2161;" horiz-adv-x="1540" 
d="M1442 154v-154h-1344v154h301v1020h-301v153h1344v-153h-301v-1020h301zM971 154v1020h-404v-1020h404z" />
    <glyph glyph-name="uni2162" unicode="&#x2162;" horiz-adv-x="2097" 
d="M1999 154v-154h-1901v154h301v1020h-301v153h1901v-153h-301v-1020h301zM1528 154v1020h-393v-1020h393zM569 1174v-1020h396v1020h-396z" />
    <glyph glyph-name="uni2163" unicode="&#x2163;" horiz-adv-x="2023" 
d="M1925 154v-154h-1827v154h283v1020h-283v153h1825v-153h-235l-351 -1020h588zM551 1174v-1020h520l-346 1020h-174zM1208 244l308 930h-613z" />
    <glyph glyph-name="uni2164" unicode="&#x2164;" horiz-adv-x="1601" 
d="M1505 1327v-153h-225l-352 -1020h569v-154h-1393v154h560l-347 1020h-223v153h1411zM801 244l307 930h-612z" />
    <glyph glyph-name="uni2165" unicode="&#x2165;" horiz-adv-x="2023" 
d="M1927 154v-154h-1827v154h580l-346 1020h-234v153h1825v-153h-274v-1020h276zM1296 1174l-352 -1020h537v1020h-185zM817 244l307 930h-612z" />
    <glyph glyph-name="uni2166" unicode="&#x2166;" horiz-adv-x="2613" 
d="M2515 154v-154h-2415v154h578l-344 1020h-234v153h2415v-153h-301v-1020h301zM2044 154v1020h-395v-1020h395zM1294 1174l-350 -1020h535v1020h-185zM815 244l307 930h-610z" />
    <glyph glyph-name="uni2167" unicode="&#x2167;" horiz-adv-x="3123" 
d="M3025 154v-154h-2925v154h572l-338 1020h-234v153h2925v-153h-293v-1020h293zM1638 1174v-1020h379v1020h-379zM2185 1174v-1020h377v1020h-377zM1282 1174l-348 -1020h534v1020h-186zM809 244l297 930h-594z" />
    <glyph glyph-name="uni2168" unicode="&#x2168;" horiz-adv-x="1961" 
d="M1864 154v-154h-1766v154h281v1020h-281v153h1764v-153h-213l-365 -523l350 -497h230zM1098 651l-369 523h-180v-1020h190zM922 1174l268 -392l268 392h-536zM1188 522l-260 -368h514z" />
    <glyph glyph-name="uni2169" unicode="&#x2169;" horiz-adv-x="1536" 
d="M1436 1327v-153h-209l-367 -525l350 -495h228v-154h-1338v154h217l357 495l-369 525h-205v153h1336zM496 1174l270 -394l270 394h-540zM764 520l-258 -366h512z" />
    <glyph glyph-name="uni216C" unicode="&#x216c;" horiz-adv-x="1288" 
d="M1204 571v-571h-1106v154h275v1020h-275v153h742v-153h-297v-1020h493v417h168z" />
    <glyph glyph-name="uni216D" unicode="&#x216d;" horiz-adv-x="1470" 
d="M1327 461v-461h-168v160q-136 -189 -405 -189q-127 0 -243.5 46.5t-208.5 132.5t-147 219.5t-55 294.5q0 130 36 242.5t98.5 194t145.5 140t177.5 87t194.5 28.5q264 0 403 -180v151h166v-453h-166q-21 152 -123.5 240t-279.5 88q-99 0 -185.5 -34t-153.5 -99t-106 -169
t-39 -236q0 -133 38.5 -237.5t105.5 -169.5t153.5 -98.5t186.5 -33.5q97 0 174.5 29t125 78t74.5 107t33 122h168z" />
    <glyph glyph-name="uni216E" unicode="&#x216e;" horiz-adv-x="1466" 
d="M98 1327h641q99 0 190 -26.5t170 -81.5t137.5 -133t92 -187t33.5 -237q0 -127 -33.5 -235t-92.5 -186t-139.5 -132.5t-174 -81.5t-195.5 -27h-629v154h285v1020h-285v153zM553 154h178q91 0 172 31.5t146.5 92t104 160t38.5 224.5q0 123 -36.5 222t-100.5 161.5
t-147 95.5t-179 33h-176v-1020z" />
    <glyph glyph-name="uni216F" unicode="&#x216f;" horiz-adv-x="2150" 
d="M606 1327l463 -1096l465 1096h518v-153h-268v-1020h270v-154h-657v154h217v944l-477 -1098h-136l-475 1098v-944h230v-154h-658v154h258v1020h-258v153h508z" />
    <glyph glyph-name="arrowleft" unicode="&#x2190;" horiz-adv-x="2117" 
d="M563 190l-477 400l477 401v-329h1430v-146h-1430v-326z" />
    <glyph glyph-name="arrowup" unicode="&#x2191;" horiz-adv-x="897" 
d="M449 1634l382 -467h-311v-1468h-143v1468h-311z" />
    <glyph glyph-name="arrowright" unicode="&#x2192;" horiz-adv-x="2117" 
d="M2032 590l-478 -400v326h-1429v146h1429v329z" />
    <glyph glyph-name="arrowdown" unicode="&#x2193;" horiz-adv-x="923" 
d="M862 150l-401 -478l-400 478h326v1458h145v-1458h330z" />
    <glyph glyph-name="uni2196" unicode="&#x2196;" horiz-adv-x="1638" 
d="M115 1452h563l-229 -231l1136 -1135l-102 -102l-1137 1134l-231 -233v567z" />
    <glyph glyph-name="uni2197" unicode="&#x2197;" horiz-adv-x="1640" 
d="M963 1452h563v-567l-234 233l-1136 -1134l-103 102l1139 1135z" />
    <glyph glyph-name="uni2198" unicode="&#x2198;" horiz-adv-x="1640" 
d="M1528 0h-561l227 231l-1137 1135l103 102l1136 -1136l232 235v-567z" />
    <glyph glyph-name="uni2199" unicode="&#x2199;" horiz-adv-x="1642" 
d="M676 0h-563v567l231 -235l1139 1136l102 -102l-1139 -1135z" />
    <glyph glyph-name="uni21A9" unicode="&#x21a9;" horiz-adv-x="1781" 
d="M883 1206v146h374q178 0 305.5 -121t127.5 -297q0 -121 -62.5 -218t-163 -148.5t-215.5 -51.5h-753v-289l-430 361l430 362v-288h745q126 0 215.5 74t89.5 198q0 123 -88.5 197.5t-218.5 74.5h-356z" />
    <glyph glyph-name="uni21B0" unicode="&#x21b0;" horiz-adv-x="1497" 
d="M483 758l-430 362l430 361v-289h852v-1192h-145v1049h-707v-291z" />
    <glyph glyph-name="uni21B1" unicode="&#x21b1;" horiz-adv-x="1572" 
d="M307 0h-145v1192h928v289l430 -361l-430 -362v291h-783v-1049z" />
    <glyph glyph-name="uni21B2" unicode="&#x21b2;" horiz-adv-x="1583" 
d="M1272 1452h145v-1186h-928v-289l-430 363l430 360v-288h783v1040z" />
    <glyph glyph-name="uni21B3" unicode="&#x21b3;" horiz-adv-x="1583" 
d="M1094 700l430 -360l-430 -363v289h-928v1186h145v-1040h783v288z" />
    <glyph glyph-name="uni21B4" unicode="&#x21b4;" horiz-adv-x="1593" 
d="M68 1307v145h1175v-1053h289l-363 -430l-360 430h289v908h-1030z" />
    <glyph glyph-name="uni21B5" unicode="&#x21b5;" horiz-adv-x="2166" 
d="M408 313l-351 414h269q1 153 60.5 292.5t160 240.5t240 161t292.5 60q196 0 373 -97l-66 -129q-141 80 -305 80q-167 0 -307.5 -81t-221.5 -221t-81 -306h287zM1833 725q-1 -154 -60.5 -293.5t-160.5 -240.5t-240.5 -160.5t-292.5 -59.5q-195 0 -372 97l65 129
q141 -80 305 -80q125 0 238.5 48t195 129t129.5 193.5t48 237.5h-279l350 414l348 -414h-274z" />
    <glyph glyph-name="uni21C6" unicode="&#x21c6;" horiz-adv-x="2185" 
d="M526 745l-430 361l430 362v-288h1520v-146h-1520v-289zM2091 348l-430 -360v288h-1518v146h1518v289z" />
    <glyph glyph-name="partialdiff" unicode="&#x2202;" horiz-adv-x="1245" 
d="M494 1331q-153 0 -287 -63l-55 129q148 84 358 84q93 0 179 -23.5t169.5 -80.5t144.5 -143t98.5 -220.5t37.5 -302.5q0 -223 -61 -387.5t-188 -258.5t-308 -94q-96 0 -183 31.5t-155.5 90.5t-109 152.5t-40.5 207.5q0 141 68 249.5t180.5 165t249.5 56.5
q123 0 222.5 -40.5t154.5 -105.5q-18 267 -137 410t-338 143zM614 778q-165 0 -259.5 -95.5t-94.5 -240.5t97 -232t235 -87q78 0 141.5 28.5t106 75t71.5 109.5t42 129t14 135q-55 87 -149.5 132.5t-203.5 45.5z" />
    <glyph glyph-name="Delta" unicode="&#x2206;" horiz-adv-x="1454" 
d="M59 0l574 1452h186l576 -1452h-1336zM723 1262l-420 -1104h846z" />
    <glyph glyph-name="product" unicode="&#x220f;" horiz-adv-x="1351" 
d="M1194 0h-166v1300h-700v-1300h-170v1452h1036v-1452z" />
    <glyph glyph-name="summation" unicode="&#x2211;" horiz-adv-x="1216" 
d="M98 0v152l566 579l-566 567v154h1008v-158h-782l561 -563l-576 -573h797v-158h-1008z" />
    <glyph glyph-name="minus" unicode="&#x2212;" horiz-adv-x="1142" 
d="M1004 520h-865v137h865v-137z" />
    <glyph glyph-name="uni2215" unicode="&#x2215;" horiz-adv-x="788" 
d="M784 1327l-641 -1327h-159l641 1327h159z" />
    <glyph glyph-name="uni2219" unicode="&#x2219;" horiz-adv-x="536" 
d="M141 582q0 54 35.5 90.5t89.5 36.5t91.5 -36.5t37.5 -90.5t-37.5 -90.5t-91.5 -36.5t-89.5 36.5t-35.5 90.5z" />
    <glyph glyph-name="radical" unicode="&#x221a;" horiz-adv-x="1382" 
d="M1368 1612h-250l-545 -1612h-157l-381 1073h186l275 -801l491 1493h381v-153z" />
    <glyph glyph-name="infinity" unicode="&#x221e;" horiz-adv-x="1669" 
d="M831 485q-95 -115 -184 -173t-190 -58q-149 0 -247.5 97.5t-98.5 242.5t98.5 243.5t247.5 98.5q199 0 381 -234q91 115 181.5 174.5t190.5 59.5q150 0 249.5 -98.5t99.5 -243.5t-99.5 -242.5t-249.5 -97.5q-205 0 -379 231zM461 795q-91 0 -149 -58.5t-58 -144.5
t58 -144.5t149 -58.5q77 0 144 52t143 149q-80 103 -144 154t-143 51zM1208 389q91 0 148 58.5t57 144.5t-57 144.5t-148 58.5q-42 0 -79.5 -14t-73.5 -44.5t-64.5 -61.5t-68.5 -81q77 -101 142.5 -153t143.5 -52z" />
    <glyph glyph-name="integral" unicode="&#x222b;" horiz-adv-x="692" 
d="M264 -55v1188q0 149 84 234t230 85h67v-149h-55q-75 0 -118.5 -46.5t-43.5 -134.5v-1192q0 -150 -80.5 -234.5t-224.5 -84.5h-78v149h57q72 0 117 49t45 136z" />
    <glyph glyph-name="approxequal" unicode="&#x2248;" horiz-adv-x="1273" 
d="M1049 870l88 -79q-112 -162 -287 -162q-92 0 -201 61l-96 53q-72 37 -133 37q-114 0 -191 -96l-92 82q113 166 281 166q87 0 205 -62l94 -51q78 -43 149 -43q108 0 183 94zM1049 473l88 -80q-113 -160 -287 -160q-93 0 -201 60l-96 53q-67 37 -133 37q-114 0 -191 -96
l-92 84q114 164 281 164q87 0 205 -62l94 -51q78 -43 149 -43q104 0 183 94z" />
    <glyph glyph-name="notequal" unicode="&#x2260;" horiz-adv-x="1196" 
d="M1073 322h-577l-156 -213h-168l156 213h-189v139h291l191 258h-482v137h582l156 209h167l-155 -209h184v-137h-285l-190 -258h475v-139z" />
    <glyph glyph-name="lessequal" unicode="&#x2264;" horiz-adv-x="1105" 
d="M131 254h836v-137h-836v137zM131 637v147l836 299v-147l-652 -225l652 -226v-147z" />
    <glyph glyph-name="greaterequal" unicode="&#x2265;" horiz-adv-x="1105" 
d="M139 254h836v-137h-836v137zM975 784v-147l-836 -299v147l654 226l-654 225v147z" />
    <glyph glyph-name="dotmath" unicode="&#x22c5;" horiz-adv-x="536" 
d="M141 582q0 54 35.5 90.5t89.5 36.5t91.5 -36.5t37.5 -90.5t-37.5 -90.5t-91.5 -36.5t-89.5 36.5t-35.5 90.5z" />
    <glyph glyph-name="uni24C5" unicode="&#x24c5;" horiz-adv-x="1687" 
d="M735 741h156q73 0 115.5 39t42.5 103q0 65 -42.5 104t-115.5 39h-156v-285zM911 627h-176v-308h-133v822h309q117 0 195 -74.5t78 -181.5q0 -110 -77.5 -184t-195.5 -74zM1591 725q0 -153 -58.5 -292.5t-158.5 -241t-238.5 -161t-291.5 -59.5t-292 59.5t-238.5 161
t-158.5 241t-59 292.5t59 293t158.5 241.5t238.5 161.5t292 60t291.5 -60t238.5 -161.5t158.5 -241.5t58.5 -293zM1456 725q0 128 -47.5 244.5t-128.5 202t-195 136t-241 50.5q-170 0 -311 -85.5t-221.5 -231t-80.5 -316.5t80.5 -316t221.5 -230t311 -85q127 0 241 50
t195 135t128.5 201.5t47.5 244.5z" />
    <glyph glyph-name="filledbox" unicode="&#x25a0;" horiz-adv-x="1738" 
d="M152 0v1452h1435v-1452h-1435z" />
    <glyph glyph-name="H22073" unicode="&#x25a1;" horiz-adv-x="1738" 
d="M1587 0h-1435v1452h1435v-1452zM295 1319v-1188h1151v1188h-1151z" />
    <glyph glyph-name="uni25AF" unicode="&#x25af;" horiz-adv-x="1142" 
d="M991 0h-839v1452h839v-1452zM291 1313v-1176h561v1176h-561z" />
    <glyph glyph-name="triagup" unicode="&#x25b2;" horiz-adv-x="1818" 
d="M913 1485l854 -1485h-1716z" />
    <glyph glyph-name="uni25B3" unicode="&#x25b3;" horiz-adv-x="1818" 
d="M913 1485l854 -1485h-1716zM1522 131l-611 1069l-616 -1069h1227z" />
    <glyph glyph-name="lozenge" unicode="&#x25ca;" horiz-adv-x="1114" 
d="M244 725l313 -528l309 528l-309 530zM68 725l417 727h142l420 -727l-420 -725h-142z" />
    <glyph glyph-name="circle" unicode="&#x25cb;" horiz-adv-x="1710" 
d="M98 725q0 154 59.5 294.5t160.5 242t241 161.5t295 60q154 0 294.5 -60t242 -161.5t161.5 -242t60 -294.5t-60 -294t-161.5 -241t-242 -161t-294.5 -60q-155 0 -295 60t-241 161t-160.5 241t-59.5 294zM244 725q0 -169 81 -311.5t221.5 -225t307.5 -82.5t307.5 82.5
t221.5 225t81 311.5q0 127 -48 241.5t-129.5 197t-194.5 131t-238 48.5t-238 -48.5t-194.5 -131t-129.5 -197t-48 -241.5z" />
    <glyph glyph-name="H18533" unicode="&#x25cf;" horiz-adv-x="1710" 
d="M98 725q0 154 59.5 294.5t160.5 242t241 161.5t295 60q154 0 294.5 -60t242 -161.5t161.5 -242t60 -294.5t-60 -294t-161.5 -241t-242 -161t-294.5 -60q-155 0 -295 60t-241 161t-160.5 241t-59.5 294z" />
    <glyph glyph-name="uni262E" unicode="&#x262e;" horiz-adv-x="1689" 
d="M1591 727q0 -153 -59 -293t-159 -241.5t-239 -161.5t-292 -60q-203 0 -374.5 101.5t-270.5 275.5t-99 379t99 378.5t270.5 274.5t374.5 101q153 0 292 -60t239 -161t159 -240.5t59 -292.5zM1450 727q0 161 -71 297.5t-194 221.5t-274 102v-519l443 -442q96 156 96 340z
M233 727q0 -183 95 -338l440 440v519q-230 -26 -382.5 -201.5t-152.5 -419.5zM911 104q206 21 353 168l-353 355v-523zM416 274q146 -149 352 -170v523z" />
    <glyph glyph-name="uni2713" unicode="&#x2713;" horiz-adv-x="1992" 
d="M1944 1372l-1307 -1405l-576 643l105 99l479 -525l1194 1291z" />
    <glyph glyph-name="uni2715" unicode="&#x2715;" horiz-adv-x="1566" 
d="M1393 -8l-611 622l-610 -622l-102 102l610 625l-610 624l104 103l608 -623l609 623l104 -103l-612 -624l614 -625z" />
    <glyph glyph-name="uni2780" unicode="&#x2780;" horiz-adv-x="1689" 
d="M233 727q0 -174 81 -318.5t220.5 -227.5t307.5 -83t307.5 83t220 227.5t80.5 318.5q0 130 -47.5 246t-128.5 199.5t-194 132.5t-238 49t-238 -49t-194.5 -132.5t-129 -199.5t-47.5 -246zM98 727q0 204 99 377.5t270.5 275t374.5 101.5q152 0 291 -60t239 -161.5
t159.5 -240.5t59.5 -292t-59.5 -293t-159.5 -241.5t-239 -161.5t-291 -60q-203 0 -374.5 101.5t-270.5 275.5t-99 379zM934 356h-135v523h-176v77q73 6 123 47.5t61 98.5h127v-746z" />
    <glyph glyph-name="uni2781" unicode="&#x2781;" horiz-adv-x="1689" 
d="M233 727q0 -174 81 -318.5t220.5 -227.5t307.5 -83t307.5 83t220 227.5t80.5 318.5q0 130 -47.5 246t-128.5 199.5t-194 132.5t-238 49t-238 -49t-194.5 -132.5t-129 -199.5t-47.5 -246zM98 727q0 204 99 377.5t270.5 275t374.5 101.5q152 0 291 -60t239 -161.5
t159.5 -240.5t59.5 -292t-59.5 -293t-159.5 -241.5t-239 -161.5t-291 -60q-203 0 -374.5 101.5t-270.5 275.5t-99 379zM705 825l-132 2q-6 27 -6 58q0 100 74 167.5t195 67.5q119 0 190.5 -66.5t71.5 -162.5q0 -134 -146 -225l-147 -93q-68 -44 -76 -96h375v-115h-541v19
q0 186 168 289l131 82q99 60 99 141q0 47 -34.5 81t-92.5 34q-61 0 -98.5 -36.5t-37.5 -97.5q0 -21 7 -49z" />
    <glyph glyph-name="uni2782" unicode="&#x2782;" horiz-adv-x="1689" 
d="M98 727q0 204 99 377.5t270.5 275t374.5 101.5q152 0 291 -60t239 -161.5t159.5 -240.5t59.5 -292t-59.5 -293t-159.5 -241.5t-239 -161.5t-291 -60q-203 0 -374.5 101.5t-270.5 275.5t-99 379zM233 727q0 -174 81 -318.5t220.5 -227.5t307.5 -83t307.5 83t220 227.5
t80.5 318.5q0 130 -47.5 246t-128.5 199.5t-194 132.5t-238 49t-238 -49t-194.5 -132.5t-129 -199.5t-47.5 -246zM774 698l-53 101l211 184h-371v115h547v-111l-217 -184h6q96 -6 161.5 -63.5t65.5 -157.5q0 -103 -81 -173.5t-209 -70.5q-124 0 -202.5 61.5t-94.5 151.5
l118 47q9 -65 58.5 -105t117.5 -40q69 0 112.5 36.5t43.5 92.5q0 63 -44.5 95t-108.5 32q-31 0 -60 -11z" />
    <glyph glyph-name="uni2783" unicode="&#x2783;" horiz-adv-x="1689" 
d="M233 727q0 -174 81 -318.5t220.5 -227.5t307.5 -83t307.5 83t220 227.5t80.5 318.5q0 130 -47.5 246t-128.5 199.5t-194 132.5t-238 49t-238 -49t-194.5 -132.5t-129 -199.5t-47.5 -246zM98 727q0 204 99 377.5t270.5 275t374.5 101.5q152 0 291 -60t239 -161.5
t159.5 -240.5t59.5 -292t-59.5 -293t-159.5 -241.5t-239 -161.5t-291 -60q-203 0 -374.5 101.5t-270.5 275.5t-99 379zM483 518v131l365 459h156v-475h135v-115h-135v-156h-138v156h-383zM866 633v319l-252 -319h252z" />
    <glyph glyph-name="uni2784" unicode="&#x2784;" horiz-adv-x="1689" 
d="M233 727q0 -174 81 -318.5t220.5 -227.5t307.5 -83t307.5 83t220 227.5t80.5 318.5q0 130 -47.5 246t-128.5 199.5t-194 132.5t-238 49t-238 -49t-194.5 -132.5t-129 -199.5t-47.5 -246zM98 727q0 204 99 377.5t270.5 275t374.5 101.5q152 0 291 -60t239 -161.5
t159.5 -240.5t59.5 -292t-59.5 -293t-159.5 -241.5t-239 -161.5t-291 -60q-203 0 -374.5 101.5t-270.5 275.5t-99 379zM537 532l118 52q12 -59 56.5 -95t107.5 -36q67 0 110.5 38t43.5 101q0 67 -43 105t-111 38q-82 0 -143 -61l-115 43l101 381h411v-115h-321l-54 -203
q56 62 158 62q114 0 184 -67t70 -177q0 -111 -78.5 -185.5t-212.5 -74.5q-108 0 -186 57.5t-96 136.5z" />
    <glyph glyph-name="uni2785" unicode="&#x2785;" horiz-adv-x="1689" 
d="M233 727q0 -174 81 -318.5t220.5 -227.5t307.5 -83t307.5 83t220 227.5t80.5 318.5q0 130 -47.5 246t-128.5 199.5t-194 132.5t-238 49t-238 -49t-194.5 -132.5t-129 -199.5t-47.5 -246zM98 727q0 204 99 377.5t270.5 275t374.5 101.5q152 0 291 -60t239 -161.5
t159.5 -240.5t59.5 -292t-59.5 -293t-159.5 -241.5t-239 -161.5t-291 -60q-203 0 -374.5 101.5t-270.5 275.5t-99 379zM1079 1077l-30 -104q-55 31 -134 31q-112 0 -182 -66t-84 -182q23 44 79 73t120 29q119 0 191.5 -68t72.5 -188q0 -115 -84.5 -187.5t-210.5 -72.5
q-60 0 -114 21.5t-97 63t-68.5 108t-25.5 149.5q0 198 111.5 315t281.5 117q110 0 174 -39zM664 602q0 -66 46.5 -105.5t108.5 -39.5q63 0 109.5 39.5t46.5 105.5q0 65 -46.5 104t-109.5 39q-62 0 -108.5 -39.5t-46.5 -103.5z" />
    <glyph glyph-name="uni2786" unicode="&#x2786;" horiz-adv-x="1689" 
d="M233 727q0 -174 81 -318.5t220.5 -227.5t307.5 -83t307.5 83t220 227.5t80.5 318.5q0 130 -47.5 246t-128.5 199.5t-194 132.5t-238 49t-238 -49t-194.5 -132.5t-129 -199.5t-47.5 -246zM98 727q0 204 99 377.5t270.5 275t374.5 101.5q152 0 291 -60t239 -161.5
t159.5 -240.5t59.5 -292t-59.5 -293t-159.5 -241.5t-239 -161.5t-291 -60q-203 0 -374.5 101.5t-270.5 275.5t-99 379zM1145 1094v-123q-284 -224 -326 -623h-143q10 110 42.5 213t67.5 169.5t79.5 126.5t66.5 83t41 39h-426v115h598z" />
    <glyph glyph-name="uni2787" unicode="&#x2787;" horiz-adv-x="1689" 
d="M233 727q0 -174 81 -318.5t220.5 -227.5t307.5 -83t307.5 83t220 227.5t80.5 318.5q0 130 -47.5 246t-128.5 199.5t-194 132.5t-238 49t-238 -49t-194.5 -132.5t-129 -199.5t-47.5 -246zM98 727q0 204 99 377.5t270.5 275t374.5 101.5q152 0 291 -60t239 -161.5
t159.5 -240.5t59.5 -292t-59.5 -293t-159.5 -241.5t-239 -161.5t-291 -60q-203 0 -374.5 101.5t-270.5 275.5t-99 379zM840 793q61 0 97 29t36 79q0 46 -36 75.5t-97 29.5t-97 -29.5t-36 -75.5q0 -49 36.5 -78.5t96.5 -29.5zM840 455q73 0 113 31.5t40 82.5q0 52 -40.5 83.5
t-112.5 31.5q-71 0 -111.5 -31.5t-40.5 -83.5q0 -51 40 -82.5t112 -31.5zM840 342q-134 0 -212.5 61.5t-78.5 155.5q0 59 39 108t106 72q-56 20 -88.5 65.5t-32.5 100.5q0 92 75 151.5t192 59.5t192.5 -59.5t75.5 -151.5q0 -55 -33.5 -100.5t-89.5 -65.5q67 -23 106 -72
t39 -108q0 -94 -77.5 -155.5t-212.5 -61.5z" />
    <glyph glyph-name="uni2788" unicode="&#x2788;" horiz-adv-x="1689" 
d="M233 727q0 -174 81 -318.5t220.5 -227.5t307.5 -83t307.5 83t220 227.5t80.5 318.5q0 130 -47.5 246t-128.5 199.5t-194 132.5t-238 49t-238 -49t-194.5 -132.5t-129 -199.5t-47.5 -246zM98 727q0 204 99 377.5t270.5 275t374.5 101.5q152 0 291 -60t239 -161.5
t159.5 -240.5t59.5 -292t-59.5 -293t-159.5 -241.5t-239 -161.5t-291 -60q-203 0 -374.5 101.5t-270.5 275.5t-99 379zM584 379l32 106q62 -30 136 -30q112 0 182.5 62t79.5 185q-25 -46 -80 -75t-117 -29q-116 0 -191 70t-75 186q0 114 85 187t210 73q127 0 214 -89.5
t87 -252.5q0 -202 -104.5 -318t-280.5 -116q-111 0 -178 41zM995 854q0 65 -45.5 105t-109.5 40t-109 -40t-45 -105t45 -105t109 -40q65 0 110 39.5t45 105.5z" />
    <glyph glyph-name="uniE000" unicode="&#xe000;" horiz-adv-x="1593" 
d="M424 -31l-363 430h289v1053h1176v-145h-1030v-908h288z" />
    <glyph glyph-name="uniE002" unicode="&#xe002;" horiz-adv-x="1955" 
d="M1198 725l348 414l350 -414h-266q0 -153 -60 -292.5t-161 -240.5t-241 -161t-294 -60q-153 0 -292.5 60t-240.5 161t-160.5 240.5t-59.5 292.5q0 154 59.5 294t160.5 241t240.5 161t292.5 60q196 0 373 -97l-65 -129q-141 80 -305 80q-125 0 -238 -48t-194.5 -129.5
t-129 -194.5t-47.5 -238t47.5 -238t129 -195t194.5 -130.5t238 -48.5q167 0 307 82t220.5 222.5t80.5 307.5h-287z" />
    <glyph glyph-name="commaaccent" unicode="&#xf6c3;" horiz-adv-x="395" 
d="M82 1346q0 44 33 71t78 27q48 0 84 -34t36 -103q0 -106 -65.5 -165.5t-153.5 -62.5v76q51 1 89 33.5t40 73.5q-16 -13 -43 -13q-44 0 -71 26t-27 71z" />
    <glyph glyph-name="uniFB00" unicode="&#xfb00;" horiz-adv-x="1331" 
d="M1290 834h-254v-834h-164v834h-475v-834h-164v834h-192v147h192v182q0 156 87 242t223 86q75 0 112 -21v-141q-33 14 -88 14q-70 0 -120 -43.5t-50 -140.5v-178h475v182q0 156 87 242t223 86q75 0 112 -21v-141q-33 14 -88 14q-70 0 -120 -43.5t-50 -140.5v-178h254v-147
z" />
    <glyph glyph-name="fi" unicode="&#xfb01;" horiz-adv-x="1196" 
d="M1036 0h-164v834h-475v-834h-164v834h-192v147h192v182q0 156 87 242t223 86q75 0 112 -21v-141q-33 14 -88 14q-70 0 -120 -43.5t-50 -140.5v-178h639v-981zM831 1368q0 51 36 87t87 36t87 -36t36 -87t-36 -87t-87 -36t-87 36t-36 87z" />
    <glyph glyph-name="fl" unicode="&#xfb02;" horiz-adv-x="1196" 
d="M1036 0h-164v834h-475v-834h-164v834h-192v147h192v182q0 156 87 242t223 86q75 0 112 -21v-141q-33 14 -88 14q-70 0 -120 -43.5t-50 -140.5v-178h475v500h164v-1481z" />
    <glyph glyph-name="uniFB03" unicode="&#xfb03;" horiz-adv-x="1835" 
d="M1036 834v-834h-164v834h-475v-834h-164v834h-192v147h192v182q0 156 87 242t223 86q75 0 112 -21v-141q-33 14 -88 14q-70 0 -120 -43.5t-50 -140.5v-178h475v182q0 156 87 242t223 86q75 0 112 -21v-141q-33 14 -88 14q-70 0 -120 -43.5t-50 -140.5v-178h639v-981h-164
v834h-475zM1470 1368q0 51 36 87t87 36t87 -36t36 -87t-36 -87t-87 -36t-87 36t-36 87z" />
    <glyph glyph-name="uniFB04" unicode="&#xfb04;" horiz-adv-x="1835" 
d="M1036 834v-834h-164v834h-475v-834h-164v834h-192v147h192v182q0 156 87 242t223 86q75 0 112 -21v-141q-33 14 -88 14q-70 0 -120 -43.5t-50 -140.5v-178h475v182q0 156 87 242t223 86q75 0 112 -21v-141q-33 14 -88 14q-70 0 -120 -43.5t-50 -140.5v-178h475v500h164
v-1481h-164v834h-475z" />
    <glyph glyph-name="uniFEFF" unicode="&#xfeff;" horiz-adv-x="0" 
 />
    <glyph glyph-name="i.latn_TRK" horiz-adv-x="483" 
d="M324 0h-164v981h164v-981zM119 1368q0 51 36 87t87 36t87 -36t36 -87t-36 -87t-87 -36t-87 36t-36 87z" />
    <glyph glyph-name="Ldot.latn_CAT" horiz-adv-x="1130" 
d="M631 766q0 47 35 82t82 35t81.5 -35t34.5 -82t-34.5 -82t-81.5 -35t-82 35t-35 82zM1077 0h-876v1452h172v-1294h704v-158z" />
    <glyph glyph-name="ldot.latn_CAT" horiz-adv-x="647" 
d="M324 0h-164v1481h164v-1481zM442 651q0 47 33.5 80t79.5 33t79.5 -33t33.5 -80t-33.5 -79.5t-79.5 -32.5t-79.5 32.5t-33.5 79.5z" />
    <glyph glyph-name="zero.numr" horiz-adv-x="782" 
d="M221 952q0 -268 170 -268q172 0 172 268q0 271 -172 271q-170 0 -170 -271zM82 952q0 173 74 273q81 114 235 114q157 0 238 -114q71 -99 71 -273q0 -168 -71 -270q-82 -115 -238 -115q-153 0 -235 115q-74 102 -74 270z" />
    <glyph glyph-name="one.numr" horiz-adv-x="466" 
d="M362 582h-135v522h-176v78q73 6 123.5 47t61.5 98h126v-745z" />
    <glyph glyph-name="two.numr" horiz-adv-x="702" 
d="M221 1044l-131 3q-6 27 -6 57q0 100 73.5 167.5t194.5 67.5q119 0 190.5 -66.5t71.5 -162.5q0 -134 -145 -225l-147 -92q-68 -43 -76 -97h375v-114h-541v18q0 186 168 289l131 82q98 59 98 141q0 47 -34.5 81t-92.5 34q-61 0 -98 -36t-37 -97q0 -26 6 -50z" />
    <glyph glyph-name="three.numr" horiz-adv-x="737" 
d="M305 928l-53 100l213 184h-373v115h547v-113l-217 -184q10 2 29 2q81 0 142.5 -61t61.5 -162q0 -102 -81 -173t-209 -71q-124 0 -202.5 62t-94.5 151l118 47q9 -64 58.5 -104.5t117.5 -40.5t112 37t44 92q0 64 -44 95.5t-109 31.5q-28 0 -60 -8z" />
    <glyph glyph-name="four.numr" horiz-adv-x="770" 
d="M57 737v131l365 459h156v-475h135v-115h-135v-155h-138v155h-383zM440 852v319l-252 -319h252z" />
    <glyph glyph-name="five.numr" horiz-adv-x="704" 
d="M59 762l119 51q12 -59 56.5 -95t107.5 -36q67 0 110.5 38t43.5 101q0 67 -43 105.5t-111 38.5q-81 0 -143 -62l-115 43l100 381h412v-115h-322l-53 -202q55 61 158 61q114 0 184 -67t70 -177q0 -111 -78.5 -185.5t-212.5 -74.5q-108 0 -186.5 58t-96.5 137z" />
    <glyph glyph-name="six.numr" horiz-adv-x="749" 
d="M647 1303l-31 -105q-55 31 -133 31q-112 0 -182 -66t-84 -182q23 44 79 73t120 29q119 0 191.5 -68t72.5 -188q0 -115 -84.5 -187.5t-210.5 -72.5q-60 0 -114 21.5t-97 63t-68.5 108t-25.5 149.5q0 198 111.5 315t281.5 117q112 0 174 -38zM231 827q0 -66 47 -105.5
t109 -39.5q63 0 109.5 39.5t46.5 105.5q0 65 -46.5 104.5t-109.5 39.5q-62 0 -109 -39.5t-47 -104.5z" />
    <glyph glyph-name="seven.numr" horiz-adv-x="692" 
d="M649 1327v-123q-283 -223 -325 -622h-144q10 110 42.5 213t67.5 169.5t79.5 126t66.5 82.5t41 39h-426v115h598z" />
    <glyph glyph-name="eight.numr" horiz-adv-x="739" 
d="M369 1018q61 0 97 29t36 79q0 46 -36 75.5t-97 29.5t-97 -29.5t-36 -75.5q0 -49 36.5 -78.5t96.5 -29.5zM369 680q73 0 113 32t40 83q0 52 -40.5 83t-112.5 31q-71 0 -111.5 -31t-40.5 -83q0 -51 40 -83t112 -32zM369 567q-134 0 -212.5 61.5t-78.5 155.5q0 59 39 108.5
t106 72.5q-56 20 -88.5 65t-32.5 100q0 92 75 151.5t192 59.5t192.5 -59.5t75.5 -151.5q0 -55 -33.5 -100t-89.5 -65q67 -23 106 -72.5t39 -108.5q0 -94 -77.5 -155.5t-212.5 -61.5z" />
    <glyph glyph-name="nine.numr" horiz-adv-x="745" 
d="M102 604l33 107q64 -31 135 -31q112 0 182.5 62.5t79.5 185.5q-25 -46 -80 -75.5t-116 -29.5q-116 0 -191 70t-75 186q0 114 85 187t210 73q127 0 214 -89.5t87 -252.5q0 -202 -104.5 -318t-280.5 -116q-112 0 -179 41zM514 1079q0 65 -46 105.5t-110 40.5t-108.5 -40.5
t-44.5 -105.5t44.5 -105t108.5 -40q65 0 110.5 40t45.5 105z" />
    <glyph glyph-name="zero.dnom" horiz-adv-x="786" 
d="M223 371q0 -269 170 -269q172 0 172 269q0 270 -172 270q-170 0 -170 -270zM84 371q0 172 74 272q82 115 235 115q156 0 238 -115q71 -99 71 -272q0 -169 -71 -271q-81 -114 -238 -114q-154 0 -235 114q-74 102 -74 271z" />
    <glyph glyph-name="one.dnom" horiz-adv-x="471" 
d="M365 0h-136v522h-176v78q73 6 123.5 47t61.5 98h127v-745z" />
    <glyph glyph-name="two.dnom" horiz-adv-x="706" 
d="M223 463l-131 2q-6 27 -6 57q0 100 73.5 168t194.5 68q119 0 190.5 -67t71.5 -163q0 -134 -145 -225l-147 -92q-68 -44 -76 -96h375v-115h-541v18q0 186 168 289l131 82q98 59 98 141q0 47 -34.5 81t-92.5 34q-61 0 -98 -36t-37 -97q0 -25 6 -49z" />
    <glyph glyph-name="three.dnom" horiz-adv-x="741" 
d="M305 348l-53 101l213 184h-373v115h547v-113l-217 -184q10 2 29 2q81 0 142.5 -61.5t61.5 -162.5q0 -102 -81 -172.5t-209 -70.5q-124 0 -202.5 62t-94.5 151l118 47q9 -64 58.5 -105t117.5 -41t112 37t44 92q0 64 -44 95.5t-109 31.5q-28 0 -60 -8z" />
    <glyph glyph-name="four.dnom" horiz-adv-x="774" 
d="M59 156v131l365 458h156v-475h135v-114h-135v-156h-138v156h-383zM442 270v320l-252 -320h252z" />
    <glyph glyph-name="five.dnom" horiz-adv-x="708" 
d="M61 180l119 51q12 -59 56.5 -95t107.5 -36q67 0 110.5 38.5t43.5 101.5q0 67 -43 105t-111 38q-82 0 -143 -61l-115 43l100 380h412v-114h-322l-53 -203q55 61 158 61q114 0 184 -66.5t70 -176.5q0 -111 -78.5 -185.5t-212.5 -74.5q-108 0 -186.5 57.5t-96.5 136.5z" />
    <glyph glyph-name="six.dnom" horiz-adv-x="753" 
d="M649 721l-31 -105q-55 31 -133 31q-112 0 -182 -66t-84 -182q23 45 79 74t120 29q119 0 191.5 -68t72.5 -188q0 -115 -84.5 -187.5t-210.5 -72.5q-60 0 -114 21.5t-97 63t-68.5 108t-25.5 149.5q0 198 111.5 315t281.5 117q110 0 174 -39zM233 246q0 -66 47 -106t109 -40
q63 0 109.5 40t46.5 106q0 65 -46.5 104t-109.5 39q-62 0 -109 -39.5t-47 -103.5z" />
    <glyph glyph-name="seven.dnom" horiz-adv-x="696" 
d="M651 745v-122q-283 -223 -325 -623h-144q10 110 42.5 213t67.5 169.5t79.5 126.5t66.5 83t41 39h-426v114h598z" />
    <glyph glyph-name="eight.dnom" horiz-adv-x="745" 
d="M373 436q61 0 97 29.5t36 79.5q0 45 -35.5 74.5t-97.5 29.5t-97.5 -29.5t-35.5 -74.5q0 -49 36.5 -79t96.5 -30zM373 98q73 0 113 32t40 83q0 52 -40.5 83.5t-112.5 31.5q-71 0 -111.5 -31.5t-40.5 -83.5q0 -51 40 -83t112 -32zM373 -14q-134 0 -212.5 61.5t-78.5 155.5
q0 59 39 108t106 72q-56 20 -88.5 65.5t-32.5 100.5q0 92 75 151.5t192 59.5t192.5 -59.5t75.5 -151.5q0 -55 -33.5 -100.5t-89.5 -65.5q67 -23 106.5 -72t39.5 -108q0 -94 -78 -155.5t-213 -61.5z" />
    <glyph glyph-name="nine.dnom" horiz-adv-x="749" 
d="M104 27l33 106q64 -31 135 -31q112 0 183 62.5t80 185.5q-25 -46 -80 -75t-117 -29q-116 0 -191 70t-75 186q0 114 85 187t210 73q127 0 214 -89.5t87 -252.5q0 -202 -104.5 -318t-280.5 -116q-112 0 -179 41zM516 502q0 65 -46 105t-110 40t-108.5 -40t-44.5 -105
t44.5 -105.5t108.5 -40.5q65 0 110.5 40t45.5 106z" />
    <glyph glyph-name="space.frac" horiz-adv-x="104" 
 />
    <glyph glyph-name="a.ordn" horiz-adv-x="774" 
d="M76 819q0 87 57.5 140t151.5 67l184 29q57 8 57 55q0 56 -38 91.5t-111 35.5q-71 0 -114.5 -39.5t-49.5 -103.5l-123 28q9 97 88 160.5t197 63.5q144 0 213 -70t69 -180v-346q0 -52 9 -115h-125q-9 36 -9 96q-29 -48 -85.5 -81.5t-137.5 -33.5q-105 0 -169 60t-64 143z
M330 723q91 0 143.5 53t52.5 158v37l-211 -35q-48 -8 -77 -36t-29 -75q0 -42 32.5 -72t88.5 -30z" />
    <glyph glyph-name="b.ordn" horiz-adv-x="876" 
d="M252 635h-129v1038h131v-450q26 51 87 87t144 36q149 0 231.5 -102.5t82.5 -262.5t-85.5 -262.5t-232.5 -102.5q-79 0 -137.5 35t-91.5 92v-108zM668 981q0 112 -56 179t-149 67t-152 -67.5t-59 -178.5t59 -178.5t152 -67.5t149 67t56 179z" />
    <glyph glyph-name="c.ordn" horiz-adv-x="802" 
d="M424 1227q-90 0 -152.5 -67t-62.5 -179q0 -113 62.5 -179.5t154.5 -66.5q82 0 130 44t65 102l118 -47q-30 -89 -110.5 -153.5t-202.5 -64.5q-151 0 -250.5 103.5t-99.5 261.5q0 159 99 262t249 103q126 0 205.5 -64t103.5 -158l-119 -47q-16 62 -62.5 106t-127.5 44z" />
    <glyph glyph-name="d.ordn" horiz-adv-x="876" 
d="M213 981q0 -110 56.5 -178t150.5 -68q92 0 148.5 68.5t56.5 177.5t-56.5 177.5t-148.5 68.5q-94 0 -150.5 -68t-56.5 -178zM754 1673v-911q0 -73 6 -127h-127q-8 32 -8 98v8q-27 -51 -84 -88t-135 -37q-147 0 -237.5 103.5t-90.5 261.5q0 153 91 259t234 106
q90 0 144.5 -35.5t75.5 -83.5v446h131z" />
    <glyph glyph-name="e.ordn" horiz-adv-x="811" 
d="M215 1049h387q0 78 -51 130t-141 52q-83 0 -136.5 -54t-58.5 -128zM621 870l112 -36q-29 -96 -110.5 -157t-198.5 -61q-146 0 -247 100t-101 267q0 159 99 261t233 102q156 0 243.5 -96.5t87.5 -258.5q0 -35 -2 -45h-526q1 -95 63 -155t150 -60q149 0 197 139z" />
    <glyph glyph-name="f.ordn" horiz-adv-x="522" 
d="M483 1208h-174v-573h-133v573h-131v119h131v117q0 114 63 176.5t164 62.5q59 0 82 -14v-115q-27 9 -61 9q-47 0 -81 -28.5t-34 -94.5v-113h174v-119z" />
    <glyph glyph-name="g.ordn" horiz-adv-x="860" 
d="M78 1006q0 143 87.5 241.5t225.5 98.5q81 0 136 -33.5t81 -85.5v100h129v-635q0 -69 -17.5 -128.5t-55.5 -111t-106.5 -81t-162.5 -29.5q-129 0 -218 73t-103 183l127 29q8 -73 61 -121.5t131 -48.5q213 0 213 231v94q-24 -50 -79 -83t-136 -33q-138 0 -225.5 98.5
t-87.5 241.5zM610 1006q0 97 -55.5 160t-142.5 63q-89 0 -145 -63t-56 -160t56 -160.5t145 -63.5q87 0 142.5 63.5t55.5 160.5z" />
    <glyph glyph-name="h.ordn" horiz-adv-x="829" 
d="M256 1044v-409h-133v1038h133v-430q33 49 88.5 76t120.5 27q121 0 185.5 -75.5t64.5 -193.5v-442h-133v420q0 76 -39.5 124t-122.5 48q-74 0 -119 -52.5t-45 -130.5z" />
    <glyph glyph-name="i.ordn" horiz-adv-x="376" 
d="M254 635h-131v692h131v-692zM96 1591q0 38 27 65t65 27t65.5 -27t27.5 -65t-27.5 -65t-65.5 -27t-65 27t-27 65z" />
    <glyph glyph-name="j.ordn" horiz-adv-x="376" 
d="M123 567v760h131v-772q0 -97 -53 -155t-142 -58q-53 0 -88 10v115q24 -6 54 -6q98 0 98 106zM96 1591q0 38 27 65t65 27t65.5 -27t27.5 -65t-27.5 -65t-65.5 -27t-65 27t-27 65z" />
    <glyph glyph-name="k.ordn" horiz-adv-x="765" 
d="M739 1327l-288 -291l299 -401h-166l-226 309l-104 -106v-203h-131v1038h131v-659l307 313h178z" />
    <glyph glyph-name="l.ordn" horiz-adv-x="376" 
d="M254 635h-131v1038h131v-1038z" />
    <glyph glyph-name="m.ordn" horiz-adv-x="1259" 
d="M123 635v692h127v-98q29 54 86.5 85.5t124.5 31.5q73 0 130 -35.5t81 -100.5q74 136 231 136q102 0 172 -68.5t70 -192.5v-450h-129v432q0 72 -39 116t-113 44q-72 0 -118 -50.5t-46 -125.5v-416h-131v432q0 72 -38 116t-113 44q-72 0 -118 -50.5t-46 -125.5v-416h-131z
" />
    <glyph glyph-name="n.ordn" horiz-adv-x="825" 
d="M254 1040v-405h-131v692h127v-102q32 58 89 89.5t124 31.5q121 0 184.5 -75t63.5 -194v-442h-131v420q0 78 -39.5 125t-122.5 47q-76 0 -120 -53.5t-44 -133.5z" />
    <glyph glyph-name="o.ordn" horiz-adv-x="856" 
d="M428 735q93 0 157 65.5t64 180.5t-64 180.5t-157 65.5t-157 -65.5t-64 -180.5t64 -180.5t157 -65.5zM428 616q-154 0 -253 102t-99 263t99 263t253 102t253 -102t99 -263t-99 -263t-253 -102z" />
    <glyph glyph-name="p.ordn" horiz-adv-x="880" 
d="M254 360h-131v967h129v-113q27 56 88 94t145 38q148 0 233 -103.5t85 -261.5q0 -159 -88 -262t-234 -103q-79 0 -137.5 33.5t-89.5 83.5v-373zM252 981q0 -107 59 -176.5t152 -69.5t151 69.5t58 176.5t-58 176.5t-151 69.5t-152 -69.5t-59 -176.5z" />
    <glyph glyph-name="q.ordn" horiz-adv-x="878" 
d="M756 360h-131v375q-28 -53 -84.5 -86t-134.5 -33q-145 0 -236.5 105t-91.5 262q0 154 88 258.5t235 104.5q87 0 143.5 -37t84.5 -88v106h127v-967zM627 981q0 107 -57 176.5t-150 69.5t-152 -69.5t-59 -176.5t59 -176.5t152 -69.5t150 69.5t57 176.5z" />
    <glyph glyph-name="r.ordn" horiz-adv-x="544" 
d="M506 1331v-137q-27 8 -62 8q-87 0 -138.5 -53.5t-51.5 -163.5v-350h-131v692h129v-119q56 127 203 127q23 0 51 -4z" />
    <glyph glyph-name="s.ordn" horiz-adv-x="677" 
d="M68 823l118 35q6 -58 48 -94.5t112 -36.5q57 0 91 25.5t34 66.5q0 72 -94 94l-111 23q-83 19 -129.5 71t-46.5 123q0 91 71.5 153.5t174.5 62.5q64 0 114 -19t79 -49.5t45 -61t22 -61.5l-115 -37q-7 46 -42 81.5t-103 35.5q-51 0 -86 -26t-35 -66q0 -35 23 -57.5
t63 -30.5l109 -23q93 -20 142.5 -74t49.5 -131q0 -85 -68 -148t-188 -63q-66 0 -119.5 19.5t-85.5 51.5t-50 66.5t-23 69.5z" />
    <glyph glyph-name="t.ordn" horiz-adv-x="536" 
d="M311 1546v-219h158v-119h-158v-362q0 -101 101 -101q33 0 57 9v-113q-28 -14 -94 -14q-90 0 -142.5 53t-52.5 147v381h-137v119h43q102 0 102 107v112h123z" />
    <glyph glyph-name="u.ordn" horiz-adv-x="827" 
d="M580 727q-26 -52 -82 -81.5t-123 -29.5q-122 0 -191 79t-69 198v434h131v-412q0 -78 40 -129t120 -51q78 0 122.5 49.5t44.5 128.5v414h132v-565q0 -71 8 -127h-127q-6 27 -6 92z" />
    <glyph glyph-name="v.ordn" horiz-adv-x="735" 
d="M711 1327l-275 -692h-135l-281 692h148l203 -536l196 536h144z" />
    <glyph glyph-name="w.ordn" horiz-adv-x="1179" 
d="M524 1327h138l182 -522l155 522h140l-226 -692h-137l-186 532l-184 -532h-140l-227 692h143l158 -522z" />
    <glyph glyph-name="x.ordn" horiz-adv-x="739" 
d="M35 635l256 350l-250 342h158l174 -240l172 240h153l-252 -340l261 -352h-156l-180 250l-185 -250h-151z" />
    <glyph glyph-name="y.ordn" horiz-adv-x="747" 
d="M287 352h-146l172 365l-299 610h154l217 -471l205 471h141z" />
    <glyph glyph-name="z.ordn" horiz-adv-x="716" 
d="M637 635h-559v117l385 456h-377v119h545v-115l-385 -458h391v-119z" />
    <glyph glyph-name="space.tf" 
 />
    <glyph glyph-name="numbersign.tf" 
d="M131 846v135h225l74 346h145l-73 -346h276l74 346h145l-73 -346h209v-135h-238l-74 -348h211v-136h-239l-80 -362h-146l78 362h-274l-80 -362h-146l78 362h-192v136h221l76 348h-197zM473 846l-74 -348h275l76 348h-277z" />
    <glyph glyph-name="dollar.tf" 
d="M664 -217h-140v207q-97 9 -176.5 46t-130.5 92.5t-81 119.5t-38 133l160 51q10 -111 78.5 -194t187.5 -101v461l-55 14q-147 37 -232 125.5t-85 225.5q0 142 105.5 246.5t266.5 123.5v209h140v-209q85 -10 152.5 -42t110 -79t68.5 -96.5t39 -105.5l-151 -56
q-12 78 -68 143.5t-151 84.5v-445l41 -10q159 -39 250.5 -135t91.5 -230q0 -142 -102.5 -248t-280.5 -124v-207zM881 352q0 77 -52 133t-151 80l-14 4v-434q105 17 161 75.5t56 141.5zM317 971q0 -154 191 -201l16 -4v420q-94 -14 -150.5 -72t-56.5 -143z" />
    <glyph glyph-name="percent.tf" 
d="M1081 1092v-160l-987 -674v160zM176 1065q0 -63 42 -104t104 -41t103.5 41t41.5 104t-41.5 104t-103.5 41t-104 -41t-42 -104zM598 1065q0 -113 -81.5 -192.5t-194.5 -79.5t-195 79.5t-82 192.5t82 192.5t195 79.5t194.5 -79.5t81.5 -192.5zM686 256q0 -63 41.5 -104
t103.5 -41t104 41t42 104t-42 104t-104 41t-103.5 -41t-41.5 -104zM1108 256q0 -113 -82 -192.5t-195 -79.5t-194.5 79.5t-81.5 192.5t81.5 192.5t194.5 79.5t195 -79.5t82 -192.5z" />
    <glyph glyph-name="plus.tf" 
d="M121 657h387v410h143v-410h391v-137h-391v-414h-143v414h-387v137z" />
    <glyph glyph-name="comma.tf" 
d="M434 123q0 56 39 94.5t100 38.5q65 0 110.5 -49.5t45.5 -136.5q0 -91 -27 -166t-72 -122.5t-94.5 -75.5t-101.5 -38v103q75 17 123.5 85t48.5 146q-15 -10 -45 -10q-55 0 -91 35.5t-36 95.5z" />
    <glyph glyph-name="period.tf" 
d="M446 123q0 57 39 95t95 38t94.5 -38t38.5 -95t-38.5 -95t-94.5 -38t-95 38t-39 95z" />
    <glyph glyph-name="zero.tf" 
d="M584 123q131 0 217 92q119 124 119 449q0 324 -119 448q-86 92 -217 92t-217 -92q-119 -124 -119 -448q0 -325 119 -449q86 -92 217 -92zM584 -29q-248 0 -387 203q-117 169 -117 490q0 320 117 489q139 203 387 203t387 -203q116 -168 116 -489q0 -322 -116 -490
q-139 -203 -387 -203z" />
    <glyph glyph-name="one.tf" 
d="M197 0v154h340v815h-326v98q135 6 226 78t116 182h152v-1173h325v-154h-833z" />
    <glyph glyph-name="two.tf" 
d="M307 852l-168 20q-6 27 -6 60q0 86 31 162.5t87.5 134.5t142.5 92.5t190 34.5q199 0 318.5 -116t119.5 -286q0 -249 -250 -407l-272 -174q-150 -95 -170 -217h704v-156h-913q3 159 73.5 282.5t225.5 223.5l237 153q193 123 193 293q0 104 -72 178t-198 74
q-131 0 -205 -81t-74 -208q0 -39 6 -63z" />
    <glyph glyph-name="three.tf" 
d="M475 639l-84 141l412 391h-668v156h893v-153l-403 -381q20 4 39 4q73 0 142.5 -26.5t126 -75.5t91.5 -127t35 -173q0 -176 -129.5 -300t-345.5 -124q-143 0 -254 58t-170.5 151t-65.5 205l168 39q6 -136 97.5 -218.5t222.5 -82.5q138 0 221.5 76.5t83.5 193.5
q0 127 -85.5 195.5t-205.5 68.5q-66 0 -121 -18z" />
    <glyph glyph-name="four.tf" 
d="M55 309v197l586 821h236v-862h231v-156h-231v-309h-168v309h-654zM709 465v696l-496 -696h496z" />
    <glyph glyph-name="five.tf" 
d="M88 365l164 47q9 -128 97 -209.5t220 -81.5q133 0 221.5 81t88.5 210q0 138 -88.5 217.5t-221.5 79.5q-160 0 -262 -111l-168 66l172 663h686v-156h-573l-107 -421q49 53 126 80.5t159 27.5q197 0 323 -120.5t126 -319.5q0 -190 -134 -318.5t-348 -128.5
q-100 0 -187.5 32t-149 86t-99.5 125.5t-45 150.5z" />
    <glyph glyph-name="six.tf" 
d="M1049 1282l-54 -139q-100 61 -243 61q-148 0 -258.5 -73t-168 -193t-63.5 -272q39 88 138 148t231 60q198 0 325 -121.5t127 -330.5q0 -135 -67.5 -239.5t-176.5 -158t-239 -53.5q-102 0 -192.5 38t-162 111.5t-113.5 194t-42 273.5q0 182 52.5 329.5t144 242.5
t213 145.5t262.5 50.5q179 0 287 -74zM293 422q0 -133 92 -216t217 -83q130 0 219.5 82t89.5 217q0 137 -90 221t-219 84t-219 -84t-90 -221z" />
    <glyph glyph-name="seven.tf" 
d="M1094 1327v-164q-45 -40 -84 -78t-95 -102.5t-101.5 -131t-96.5 -161t-88.5 -194.5t-68 -229t-44.5 -267h-176q10 117 34 230t52.5 203t71 179.5t76.5 152t83.5 130t77.5 103.5t72.5 82t55.5 56t38 35h-809v156h1002z" />
    <glyph glyph-name="eight.tf" 
d="M584 752q118 0 194 64.5t76 166.5q0 100 -74.5 164.5t-195.5 64.5q-123 0 -197 -64.5t-74 -164.5q0 -102 76 -166.5t195 -64.5zM584 119q139 0 220 69t81 174t-81.5 175.5t-219.5 70.5q-140 0 -220.5 -70.5t-80.5 -175.5t80.5 -174t220.5 -69zM584 -29
q-218 0 -345.5 107.5t-127.5 269.5q0 119 72.5 207t187.5 125q-99 33 -163.5 118.5t-64.5 194.5q0 158 125 260.5t316 102.5t315.5 -102.5t124.5 -260.5q0 -108 -65 -194t-164 -119q115 -35 188.5 -124t73.5 -208q0 -162 -127.5 -269.5t-345.5 -107.5z" />
    <glyph glyph-name="nine.tf" 
d="M113 51l57 144q48 -31 118.5 -51.5t135.5 -20.5q235 0 353 143t124 396q-39 -89 -135.5 -147t-228.5 -58q-87 0 -168 30t-145.5 85t-103 141t-38.5 190q0 130 67 235t176 161.5t236 56.5q104 0 195 -38.5t162 -112.5t112 -192.5t41 -267.5q0 -178 -39 -319t-117.5 -243.5
t-202.5 -157t-288 -54.5q-81 0 -170 22.5t-141 57.5zM870 905q0 135 -92 219t-217 84t-216 -84t-91 -219q0 -136 90 -218.5t217 -82.5t218 83t91 218z" />
    <glyph glyph-name="colon.tf" 
d="M446 123q0 57 39 95t95 38t94.5 -38t38.5 -95t-38.5 -95t-94.5 -38t-95 38t-39 95zM446 862q0 57 39 95t95 38t94.5 -38t38.5 -95t-38.5 -95t-94.5 -38t-95 38t-39 95z" />
    <glyph glyph-name="semicolon.tf" 
d="M440 123q0 56 39.5 94.5t100.5 38.5q65 0 110 -49.5t45 -136.5q0 -91 -27 -166t-72 -122.5t-94.5 -75.5t-101.5 -38v103q75 17 123.5 85t48.5 146q-15 -10 -45 -10q-55 0 -91 35.5t-36 95.5zM434 862q0 57 38.5 95t94.5 38t94.5 -38t38.5 -95t-38.5 -95t-94.5 -38
t-94.5 38t-38.5 95z" />
    <glyph glyph-name="less.tf" 
d="M139 514v148l836 423v-165l-664 -332l664 -332v-164z" />
    <glyph glyph-name="equal.tf" 
d="M1049 719h-934v137h934v-137zM1049 322h-934v139h934v-139z" />
    <glyph glyph-name="greater.tf" 
d="M1026 662v-148l-833 -422v164l665 332l-665 332v165z" />
    <glyph glyph-name="cent.tf" 
d="M672 0h-133v195q-174 26 -284 158t-110 319q0 188 110 318.5t284 158.5v178h133v-176q144 -13 234 -94t122 -193l-139 -57q-22 73 -76 130t-141 71v-674q92 14 148 71t77 127l139 -57q-34 -108 -128 -190t-236 -95v-190zM309 672q0 -132 63.5 -219t166.5 -113v661
q-103 -26 -166.5 -111.5t-63.5 -217.5z" />
    <glyph glyph-name="sterling.tf" 
d="M131 723h148q-2 4 -15.5 37t-17 42.5t-13.5 38.5t-13.5 45.5t-7 42.5t-3.5 50q0 163 112.5 270t282.5 107q87 0 157.5 -21.5t116 -57t77 -84t46 -98.5t17.5 -104l-172 -28q-3 117 -66.5 180t-171.5 63q-97 0 -163 -62t-66 -165q0 -18 2 -36t7 -38.5t9 -34.5t13 -38
t13 -34t16.5 -38.5t15.5 -36.5h389v-152h-344q8 -33 8 -73q0 -107 -54 -200t-145 -146h387q106 0 160 66t57 171l164 -24q-3 -163 -94 -264t-246 -101h-622v166q101 47 164 134t63 179q0 45 -12 92h-199v152z" />
    <glyph glyph-name="currency.tf" 
d="M582 39q-132 0 -246 86l-150 -156l-102 103l147 155q-79 113 -79 250q0 143 84 258l-152 158l104 102l154 -157q110 77 240 77q129 0 239 -77l154 157l104 -102l-151 -158q84 -115 84 -258q0 -136 -80 -250l147 -155l-102 -103l-150 156q-114 -86 -245 -86zM582 772
q-121 0 -202 -84t-81 -211t81 -211t202 -84q120 0 201 84t81 211t-81 211t-201 84z" />
    <glyph glyph-name="yen.tf" 
d="M1028 317h-358v-317h-170v317h-359v132h359v165h-359v131h277l-373 582h201l338 -565l338 565h194l-366 -582h278v-131h-358v-165h358v-132z" />
    <glyph glyph-name="section.tf" 
d="M971 500q0 -89 -53.5 -159t-126.5 -99q90 -56 139 -133t49 -166q0 -106 -56 -189t-147.5 -126.5t-200.5 -43.5q-184 0 -286 100.5t-105 270.5l152 33q2 -122 65 -195.5t179 -73.5q102 0 167.5 56t65.5 151q0 126 -135 197l-213 113q-65 34 -107 61.5t-83 67t-60.5 89.5
t-19.5 113q0 89 55 158.5t125 95.5q-91 56 -140 133.5t-49 167.5q0 159 118 259t284 100q182 0 284.5 -103.5t104.5 -265.5l-154 -33q-2 122 -64 194.5t-175 72.5q-99 0 -165.5 -57.5t-66.5 -149.5q0 -124 135 -195l211 -113q64 -34 106 -62t84 -68t62.5 -90t20.5 -111z
M670 664l-197 106q-49 -19 -86 -68t-37 -110q0 -59 35.5 -104.5t108.5 -84.5l196 -106q47 16 84 65.5t37 110.5q0 115 -141 191z" />
    <glyph glyph-name="logicalnot.tf" 
d="M1032 311h-147v406h-783v143h930v-549z" />
    <glyph glyph-name="plusminus.tf" 
d="M139 780h371v287h143v-287h373v-135h-373v-285h-143v285h-371v135zM139 254h887v-137h-887v137z" />
    <glyph glyph-name="multiply.tf" 
d="M936 121l-356 366l-353 -364l-96 98l352 369l-352 364l100 101l351 -367l352 367l98 -99l-354 -366l356 -369z" />
    <glyph glyph-name="divide.tf" 
d="M461 225q0 47 36 82t83 35q49 0 82.5 -34.5t33.5 -82.5t-33.5 -83.5t-82.5 -35.5q-47 0 -83 36t-36 83zM461 952q0 47 36 82t83 35q49 0 82.5 -34.5t33.5 -82.5t-33.5 -83t-82.5 -35q-47 0 -83 35.5t-36 82.5zM121 516v146h921v-146h-921z" />
    <glyph glyph-name="florin.tf" 
d="M324 33l159 801h-231v147h260l47 231q29 146 120.5 219.5t209.5 73.5q86 0 141 -20v-146q-43 15 -106 15q-74 0 -128.5 -41.5t-78.5 -155.5l-35 -176h268v-147h-297l-172 -857q-29 -146 -119 -219t-210 -73q-91 0 -146 20v145q40 -14 111 -14q168 0 207 197z" />
    <glyph glyph-name="uni2007.tf" 
 />
    <glyph glyph-name="uni2008.tf" 
 />
    <glyph glyph-name="perthousand.tf" 
d="M1083 1280v-160l-987 -770v160zM158 1098q0 -54 36 -89.5t89 -35.5q54 0 88.5 35.5t34.5 89.5q0 56 -34.5 91.5t-88.5 35.5q-53 0 -89 -36t-36 -91zM41 1098q0 100 71.5 169.5t170.5 69.5t170 -69.5t71 -169.5q0 -99 -71 -168.5t-170 -69.5t-170.5 69.5t-71.5 168.5z
M264 219q0 99 72 169.5t172 70.5q109 0 180 -88q68 88 180 88q99 0 171.5 -70.5t72.5 -169.5q0 -100 -72.5 -169.5t-171.5 -69.5q-114 0 -180 88q-69 -88 -180 -88q-101 0 -172.5 69.5t-71.5 169.5zM508 344q-55 0 -91 -35t-36 -90t36.5 -91t90.5 -36q53 0 88 36t35 91
t-35 90t-88 35zM868 344q-53 0 -89 -35t-36 -90t36 -91t89 -36q54 0 89.5 36t35.5 91t-35.5 90t-89.5 35z" />
    <glyph glyph-name="Euro.tf" 
d="M371 662q0 -61 6 -91h504l-41 -135h-426q55 -153 180 -233t276 -80q104 0 187 27l41 -142q-101 -37 -228 -37q-134 0 -258.5 49.5t-227.5 157.5t-148 258h-173v135h144q-4 32 -4 95q0 54 4 86h-144v135h170q33 115 101 206.5t156 147.5t185.5 85.5t196.5 29.5
q116 0 226 -35l-41 -143q-80 26 -185 26q-151 0 -280 -81.5t-182 -235.5h563l-41 -135h-555q-6 -30 -6 -90z" />
    <glyph glyph-name="minus.tf" 
d="M1014 520h-864v137h864v-137z" />
    <glyph glyph-name="approxequal.tf" 
d="M995 870l88 -79q-112 -162 -286 -162q-92 0 -201 61l-96 53q-72 37 -133 37q-114 0 -191 -96l-92 82q113 166 281 166q86 0 204 -62l95 -51q78 -43 149 -43q107 0 182 94zM995 473l88 -80q-113 -160 -286 -160q-93 0 -201 60l-96 53q-67 37 -133 37q-114 0 -191 -96
l-92 84q114 164 281 164q86 0 204 -62l95 -51q78 -43 149 -43q103 0 182 94z" />
    <glyph glyph-name="notequal.tf" 
d="M1057 322h-578l-155 -213h-168l155 213h-188v139h291l190 258h-481v137h582l155 209h168l-156 -209h185v-137h-285l-190 -258h475v-139z" />
    <glyph glyph-name="lessequal.tf" 
d="M160 254h835v-137h-835v137zM160 637v147l835 299v-147l-651 -225l651 -226v-147z" />
    <glyph glyph-name="greaterequal.tf" 
d="M170 254h836v-137h-836v137zM1006 784v-147l-836 -299v147l653 226l-653 225v147z" />
    <glyph glyph-name="parenleft.case" horiz-adv-x="638" 
d="M106 721q0 521 375 903l97 -86q-163 -179 -246.5 -375.5t-83.5 -441.5t83.5 -441.5t246.5 -375.5l-97 -86q-375 382 -375 903z" />
    <glyph glyph-name="parenright.case" horiz-adv-x="641" 
d="M535 721q0 -521 -375 -903l-99 86q164 180 248 376t84 441t-84 441t-248 376l99 86q375 -382 375 -903z" />
    <glyph glyph-name="hyphen.case" horiz-adv-x="837" 
d="M692 618h-547v144h547v-144z" />
    <glyph glyph-name="bracketleft.case" horiz-adv-x="604" 
d="M520 -162h-360v1794h360v-133h-217v-1528h217v-133z" />
    <glyph glyph-name="bracketright.case" horiz-adv-x="606" 
d="M446 -162h-362v133h219v1528h-219v133h362v-1794z" />
    <glyph glyph-name="braceleft.case" horiz-adv-x="722" 
d="M55 659v150q98 5 161 57.5t63 155.5v256q0 354 339 354h23v-131h-23q-110 0 -154 -50t-44 -163v-301q0 -101 -56 -167t-153 -85q97 -21 153 -86.5t56 -165.5v-299q0 -113 44 -163t154 -50h23v-131h-23q-339 0 -339 355v251q0 104 -63.5 157t-160.5 56z" />
    <glyph glyph-name="braceright.case" horiz-adv-x="724" 
d="M670 809v-150q-97 -3 -160.5 -56t-63.5 -157v-251q0 -355 -340 -355h-24v131h24q110 0 153.5 50t43.5 163v299q0 99 57 165t154 87q-97 19 -154 85t-57 167v301q0 113 -43.5 163t-153.5 50h-24v131h24q340 0 340 -354v-256q0 -103 63 -155.5t161 -57.5z" />
    <glyph glyph-name="exclamdown.case" horiz-adv-x="514" 
d="M156 0l45 1049h114l45 -1049h-204zM379 1339q0 -51 -36 -85.5t-87 -34.5q-50 0 -85.5 34.5t-35.5 85.5q0 52 35.5 87.5t85.5 35.5q51 0 87 -35.5t36 -87.5z" />
    <glyph glyph-name="guillemotleft.case" horiz-adv-x="1038" 
d="M539 303h-162l-273 391l273 391h162l-269 -391zM913 303h-161l-273 391l273 391h161l-268 -391z" />
    <glyph glyph-name="uni00AD.case" horiz-adv-x="854" 
d="M700 645h-546v143h546v-143z" />
    <glyph glyph-name="guillemotright.case" horiz-adv-x="1038" 
d="M662 303h-162l268 391l-268 391h162l272 -391zM287 303h-162l268 391l-268 391h162l272 -391z" />
    <glyph glyph-name="questiondown.case" horiz-adv-x="1024" 
d="M463 1051h158q4 -46 4 -74q0 -100 -40 -176t-126 -137l-90 -64q-123 -89 -123 -223q0 -105 69 -177.5t193 -72.5q134 0 205 82.5t71 196.5q0 59 -16 102l170 -21q12 -50 12 -102q0 -73 -26.5 -144t-78.5 -132t-139.5 -98.5t-197.5 -37.5q-100 0 -183.5 34t-137.5 90.5
t-83.5 128t-29.5 149.5q0 210 207 354l88 64q98 69 98 202q0 36 -4 56zM662 1341q0 -51 -36 -85.5t-87 -34.5q-50 0 -85.5 34.5t-35.5 85.5q0 52 35.5 87.5t85.5 35.5q51 0 87 -35.5t36 -87.5z" />
    <glyph glyph-name="endash.case" horiz-adv-x="1329" 
d="M1184 618h-1039v144h1039v-144z" />
    <glyph glyph-name="emdash.case" horiz-adv-x="2211" 
d="M2066 618h-1921v144h1921v-144z" />
    <glyph glyph-name="guilsinglleft.case" horiz-adv-x="663" 
d="M539 303h-162l-273 391l273 391h162l-269 -391z" />
    <glyph glyph-name="guilsinglright.case" horiz-adv-x="663" 
d="M287 303h-162l268 391l-268 391h162l272 -391z" />
    <glyph glyph-name="G.ss01" horiz-adv-x="1576" 
d="M825 -29q-109 0 -213.5 31.5t-196.5 96t-162 153.5t-110.5 211.5t-40.5 263.5t40.5 263.5t110.5 211t162 152.5t196.5 95.5t213.5 31.5q237 0 409.5 -124t229.5 -331l-159 -55q-47 170 -172 261t-308 91q-107 0 -204.5 -38t-175 -110t-123.5 -188t-46 -260t46 -260
t123.5 -188.5t175 -111t204.5 -38.5q204 0 334.5 111.5t153.5 283.5h-596v158h770q2 -16 2 -51q-3 -138 -49 -258t-128.5 -209.5t-208 -141t-278.5 -51.5z" />
    <glyph glyph-name="Gcircumflex.ss01" horiz-adv-x="1576" 
d="M825 -29q-109 0 -213.5 31.5t-196.5 96t-162 153.5t-110.5 211.5t-40.5 263.5t40.5 263.5t110.5 211t162 152.5t196.5 95.5t213.5 31.5q237 0 409.5 -124t229.5 -331l-159 -55q-47 170 -172 261t-308 91q-107 0 -204.5 -38t-175 -110t-123.5 -188t-46 -260t46 -260
t123.5 -188.5t175 -111t204.5 -38.5q204 0 334.5 111.5t153.5 283.5h-596v158h770q2 -16 2 -51q-3 -138 -49 -258t-128.5 -209.5t-208 -141t-278.5 -51.5zM645 1554h-160l230 244h225l229 -244h-159l-183 152z" />
    <glyph glyph-name="Gbreve.ss01" horiz-adv-x="1576" 
d="M825 -29q-109 0 -213.5 31.5t-196.5 96t-162 153.5t-110.5 211.5t-40.5 263.5t40.5 263.5t110.5 211t162 152.5t196.5 95.5t213.5 31.5q237 0 409.5 -124t229.5 -331l-159 -55q-47 170 -172 261t-308 91q-107 0 -204.5 -38t-175 -110t-123.5 -188t-46 -260t46 -260
t123.5 -188.5t175 -111t204.5 -38.5q204 0 334.5 111.5t153.5 283.5h-596v158h770q2 -16 2 -51q-3 -138 -49 -258t-128.5 -209.5t-208 -141t-278.5 -51.5zM823 1542q-139 0 -221 78t-90 186h141q7 -52 48.5 -91.5t121.5 -39.5t121.5 39.5t48.5 91.5h142q-8 -108 -90.5 -186
t-221.5 -78z" />
    <glyph glyph-name="Gdotaccent.ss01" horiz-adv-x="1576" 
d="M825 -29q-109 0 -213.5 31.5t-196.5 96t-162 153.5t-110.5 211.5t-40.5 263.5t40.5 263.5t110.5 211t162 152.5t196.5 95.5t213.5 31.5q237 0 409.5 -124t229.5 -331l-159 -55q-47 170 -172 261t-308 91q-107 0 -204.5 -38t-175 -110t-123.5 -188t-46 -260t46 -260
t123.5 -188.5t175 -111t204.5 -38.5q204 0 334.5 111.5t153.5 283.5h-596v158h770q2 -16 2 -51q-3 -138 -49 -258t-128.5 -209.5t-208 -141t-278.5 -51.5zM819 1561q-48 0 -82.5 33.5t-34.5 82.5t34.5 83t82.5 34t82.5 -34t34.5 -83t-34.5 -82.5t-82.5 -33.5z" />
    <glyph glyph-name="Gcommaaccent.ss01" horiz-adv-x="1576" 
d="M825 -29q-109 0 -213.5 31.5t-196.5 96t-162 153.5t-110.5 211.5t-40.5 263.5t40.5 263.5t110.5 211t162 152.5t196.5 95.5t213.5 31.5q237 0 409.5 -124t229.5 -331l-159 -55q-47 170 -172 261t-308 91q-107 0 -204.5 -38t-175 -110t-123.5 -188t-46 -260t46 -260
t123.5 -188.5t175 -111t204.5 -38.5q204 0 334.5 111.5t153.5 283.5h-596v158h770q2 -16 2 -51q-3 -138 -49 -258t-128.5 -209.5t-208 -141t-278.5 -51.5zM739 -178q0 44 33 71t78 27q48 0 84.5 -34t36.5 -103q0 -106 -65.5 -165t-153.5 -62v75q51 1 89 33.5t40 73.5
q-15 -12 -43 -12q-44 0 -71.5 25.5t-27.5 70.5z" />
    <glyph glyph-name="a.ss02" horiz-adv-x="1191" 
d="M258 496q0 -164 83 -270.5t226 -106.5q137 0 220 107t83 270t-81.5 264.5t-219.5 101.5q-140 0 -225.5 -101t-85.5 -265zM872 141v27q-38 -82 -120.5 -139.5t-200.5 -57.5q-138 0 -243 71t-159.5 189.5t-54.5 264.5q0 141 56.5 258t161.5 186.5t239 69.5
q128 0 207.5 -56.5t109.5 -130.5v158h164v-797q0 -94 10 -184h-159q-11 63 -11 141z" />
    <glyph glyph-name="agrave.ss02" horiz-adv-x="1191" 
d="M258 496q0 -164 83 -270.5t226 -106.5q137 0 220 107t83 270t-81.5 264.5t-219.5 101.5q-140 0 -225.5 -101t-85.5 -265zM872 141v27q-38 -82 -120.5 -139.5t-200.5 -57.5q-138 0 -243 71t-159.5 189.5t-54.5 264.5q0 141 56.5 258t161.5 186.5t239 69.5
q128 0 207.5 -56.5t109.5 -130.5v158h164v-797q0 -94 10 -184h-159q-11 63 -11 141zM510 1108l-252 293h209l178 -293h-135z" />
    <glyph glyph-name="aacute.ss02" horiz-adv-x="1191" 
d="M848 1401l-252 -293h-135l178 293h209zM258 496q0 -164 83 -270.5t226 -106.5q137 0 220 107t83 270t-81.5 264.5t-219.5 101.5q-140 0 -225.5 -101t-85.5 -265zM872 141v27q-38 -82 -120.5 -139.5t-200.5 -57.5q-138 0 -243 71t-159.5 189.5t-54.5 264.5q0 141 56.5 258
t161.5 186.5t239 69.5q128 0 207.5 -56.5t109.5 -130.5v158h164v-797q0 -94 10 -184h-159q-11 63 -11 141z" />
    <glyph glyph-name="acircumflex.ss02" horiz-adv-x="1191" 
d="M420 1108h-152l217 283h195l215 -283h-152l-161 186zM258 496q0 -164 83 -270.5t226 -106.5q137 0 220 107t83 270t-81.5 264.5t-219.5 101.5q-140 0 -225.5 -101t-85.5 -265zM872 141v27q-38 -82 -120.5 -139.5t-200.5 -57.5q-138 0 -243 71t-159.5 189.5t-54.5 264.5
q0 141 56.5 258t161.5 186.5t239 69.5q128 0 207.5 -56.5t109.5 -130.5v158h164v-797q0 -94 10 -184h-159q-11 63 -11 141z" />
    <glyph glyph-name="atilde.ss02" horiz-adv-x="1191" 
d="M258 496q0 -164 83 -270.5t226 -106.5q137 0 220 107t83 270t-81.5 264.5t-219.5 101.5q-140 0 -225.5 -101t-85.5 -265zM872 141v27q-38 -82 -120.5 -139.5t-200.5 -57.5q-138 0 -243 71t-159.5 189.5t-54.5 264.5q0 141 56.5 258t161.5 186.5t239 69.5
q128 0 207.5 -56.5t109.5 -130.5v158h164v-797q0 -94 10 -184h-159q-11 63 -11 141zM889 1370v-27q0 -102 -53 -157.5t-136 -55.5q-64 0 -133 48l-30 22q-51 35 -86 35t-51.5 -23.5t-16.5 -76.5h-127v28q0 102 52.5 156.5t135.5 54.5q77 0 140 -47l30 -22q45 -33 82 -33
q68 0 68 98h125z" />
    <glyph glyph-name="adieresis.ss02" horiz-adv-x="1191" 
d="M287 1262q0 44 31 75t75 31t75.5 -31t31.5 -75t-31.5 -75.5t-75.5 -31.5t-75 31.5t-31 75.5zM659 1262q0 44 31.5 75t75.5 31t75 -31t31 -75t-31 -75.5t-75 -31.5t-75.5 31.5t-31.5 75.5zM258 496q0 -164 83 -270.5t226 -106.5q137 0 220 107t83 270t-81.5 264.5
t-219.5 101.5q-140 0 -225.5 -101t-85.5 -265zM872 141v27q-38 -82 -120.5 -139.5t-200.5 -57.5q-138 0 -243 71t-159.5 189.5t-54.5 264.5q0 141 56.5 258t161.5 186.5t239 69.5q128 0 207.5 -56.5t109.5 -130.5v158h164v-797q0 -94 10 -184h-159q-11 63 -11 141z" />
    <glyph glyph-name="aring.ss02" horiz-adv-x="1191" 
d="M565 1085q-92 0 -157.5 65t-65.5 157q0 93 65 157t158 64t158 -64t65 -157q0 -92 -65.5 -157t-157.5 -65zM457 1307q0 -48 30.5 -80.5t77.5 -32.5t78 32.5t31 80.5t-31 80t-78 32t-77.5 -32t-30.5 -80zM258 496q0 -164 83 -270.5t226 -106.5q137 0 220 107t83 270
t-81.5 264.5t-219.5 101.5q-140 0 -225.5 -101t-85.5 -265zM872 141v27q-38 -82 -120.5 -139.5t-200.5 -57.5q-138 0 -243 71t-159.5 189.5t-54.5 264.5q0 141 56.5 258t161.5 186.5t239 69.5q128 0 207.5 -56.5t109.5 -130.5v158h164v-797q0 -94 10 -184h-159
q-11 63 -11 141z" />
    <glyph glyph-name="amacron.ss02" horiz-adv-x="1191" 
d="M258 496q0 -164 83 -270.5t226 -106.5q137 0 220 107t83 270t-81.5 264.5t-219.5 101.5q-140 0 -225.5 -101t-85.5 -265zM872 141v27q-38 -82 -120.5 -139.5t-200.5 -57.5q-138 0 -243 71t-159.5 189.5t-54.5 264.5q0 141 56.5 258t161.5 186.5t239 69.5
q128 0 207.5 -56.5t109.5 -130.5v158h164v-797q0 -94 10 -184h-159q-11 63 -11 141zM825 1184h-542v143h542v-143z" />
    <glyph glyph-name="abreve.ss02" horiz-adv-x="1191" 
d="M258 496q0 -164 83 -270.5t226 -106.5q137 0 220 107t83 270t-81.5 264.5t-219.5 101.5q-140 0 -225.5 -101t-85.5 -265zM872 141v27q-38 -82 -120.5 -139.5t-200.5 -57.5q-138 0 -243 71t-159.5 189.5t-54.5 264.5q0 141 56.5 258t161.5 186.5t239 69.5
q128 0 207.5 -56.5t109.5 -130.5v158h164v-797q0 -94 10 -184h-159q-11 63 -11 141zM565 1110q-138 0 -215.5 86.5t-77.5 204.5h127q3 -65 44.5 -110.5t121.5 -45.5t121.5 45.5t44.5 110.5h127q0 -118 -77.5 -204.5t-215.5 -86.5z" />
    <glyph glyph-name="aogonek.ss02" horiz-adv-x="1191" 
d="M731 -238q0 150 152 238q-11 63 -11 141v27q-38 -82 -120.5 -139.5t-200.5 -57.5q-138 0 -243 71t-159.5 189.5t-54.5 264.5q0 141 56.5 258t161.5 186.5t239 69.5q128 0 207.5 -56.5t109.5 -130.5v158h164v-797q0 -94 10 -184q-172 -88 -172 -207q0 -51 34.5 -77.5
t82.5 -26.5q36 0 68 8v-119q-44 -14 -99 -14q-95 0 -160 53t-65 145zM258 496q0 -164 83 -270.5t226 -106.5q137 0 220 107t83 270t-81.5 264.5t-219.5 101.5q-140 0 -225.5 -101t-85.5 -265z" />
    <glyph glyph-name="aringacute.ss02" horiz-adv-x="1191" 
d="M877 1870l-252 -293h-136l179 293h209zM565 1085q-92 0 -157.5 65t-65.5 157q0 93 65 157t158 64t158 -64t65 -157q0 -92 -65.5 -157t-157.5 -65zM457 1307q0 -48 30.5 -80.5t77.5 -32.5t78 32.5t31 80.5t-31 80t-78 32t-77.5 -32t-30.5 -80zM258 496q0 -164 83 -270.5
t226 -106.5q137 0 220 107t83 270t-81.5 264.5t-219.5 101.5q-140 0 -225.5 -101t-85.5 -265zM872 141v27q-38 -82 -120.5 -139.5t-200.5 -57.5q-138 0 -243 71t-159.5 189.5t-54.5 264.5q0 141 56.5 258t161.5 186.5t239 69.5q128 0 207.5 -56.5t109.5 -130.5v158h164v-797
q0 -94 10 -184h-159q-11 63 -11 141z" />
    <glyph glyph-name="r.ss03" horiz-adv-x="600" 
d="M324 981v-92q5 45 39 75.5t81 30.5q51 0 86 -35t35 -86t-35 -85.5t-86 -34.5q-47 0 -81.5 29t-38.5 75v-858h-164v981h164z" />
    <glyph glyph-name="racute.ss03" horiz-adv-x="600" 
d="M324 981v-92q5 45 39 75.5t81 30.5q51 0 86 -35t35 -86t-35 -85.5t-86 -34.5q-47 0 -81.5 29t-38.5 75v-858h-164v981h164zM621 1401l-252 -293h-136l179 293h209z" />
    <glyph glyph-name="rcommaaccent.ss03" horiz-adv-x="600" 
d="M324 981v-92q5 45 39 75.5t81 30.5q51 0 86 -35t35 -86t-35 -85.5t-86 -34.5q-47 0 -81.5 29t-38.5 75v-858h-164v981h164zM127 -178q0 44 33 71t78 27q48 0 84 -34t36 -103q0 -106 -65.5 -165t-153.5 -62v75q51 1 89 33.5t40 73.5q-15 -12 -43 -12q-44 0 -71 25.5
t-27 70.5z" />
    <glyph glyph-name="rcaron.ss03" horiz-adv-x="600" 
d="M324 981v-92q5 45 39 75.5t81 30.5q51 0 86 -35t35 -86t-35 -85.5t-86 -34.5q-47 0 -81.5 29t-38.5 75v-858h-164v981h164zM37 1391h151l162 -187l162 187h152l-215 -283h-195z" />
    <glyph glyph-name="ampersand.ss04" horiz-adv-x="1372" 
d="M766 512v154h545v-154h-174v-35q0 -105 -35.5 -197.5t-101 -161t-164.5 -108t-218 -39.5q-227 0 -369.5 120t-142.5 306q0 146 86.5 250.5t217.5 143.5q-106 35 -170 118t-64 201q0 154 121 262.5t295 108.5q109 0 194 -31t138 -85.5t82 -123t36 -149.5l-168 -31
q-11 127 -80.5 196.5t-197.5 69.5q-102 0 -175 -64.5t-73 -160.5q0 -104 74.5 -166.5t177.5 -65.5h18v-155q-63 -1 -121.5 -19t-108 -53.5t-79.5 -95.5t-30 -137q0 -117 92.5 -200t249.5 -83q158 0 251 95.5t93 254.5v35h-199z" />
    <glyph glyph-name="one.ss05" horiz-adv-x="978" 
d="M104 0v154h340v815h-325v98q135 6 226 78t116 182h151v-1173h326v-154h-834z" />
    <glyph glyph-name="registered.ss06" horiz-adv-x="978" 
d="M489 696q-159 0 -271 113t-112 272t112 272t271 113t271 -113t112 -272t-112 -272t-271 -113zM489 1382q-125 0 -209.5 -87t-84.5 -214t84.5 -214t209.5 -87t210 87t85 214t-85 214t-210 87zM442 1100h47q28 0 46 14.5t18 40.5q0 25 -17.5 39t-46.5 14h-47v-108zM549 885
l-68 137h-39v-137h-92v401h160q58 0 98.5 -38.5t40.5 -92.5q0 -39 -22.5 -70t-57.5 -45l78 -155h-98z" />
    <glyph glyph-name="quotedbl.ss08" horiz-adv-x="753" 
d="M109 1362q0 50 30 80.5t78 30.5t78.5 -30.5t30.5 -80.5q0 -21 -4 -49l-76 -355h-60l-73 353q-4 28 -4 51zM428 1362q0 50 31.5 80.5t79.5 30.5t78 -30.5t30 -80.5q0 -7 -6 -49l-74 -355h-59l-74 353q-6 42 -6 51z" />
    <glyph glyph-name="numbersign.ss08" horiz-adv-x="1488" 
d="M860 532l78 371h-326l-73 -371h321zM758 0l80 399h-324l-78 -399h-147l78 399h-287v133h309l78 371h-287v133h307l86 416h148l-84 -416h321l84 416h150l-82 -416h301v-133h-326l-73 -371h297v-133h-322l-80 -399h-149z" />
    <glyph glyph-name="dollar.ss08" horiz-adv-x="1155" 
d="M662 -231h-138v233q-102 10 -185.5 50t-137.5 99.5t-86 129t-41 145.5l149 45q13 -136 110.5 -232t258.5 -96q145 0 229 71t84 175q0 91 -58 151t-167 87l-225 53q-153 36 -240.5 130t-87.5 239q0 158 114 269t283 130v238h138v-238q165 -19 261.5 -116t127.5 -232
l-148 -49q-11 50 -33.5 93t-60 80t-95.5 58t-130 21q-125 0 -210 -69t-85 -173q0 -178 200 -225l220 -50q171 -37 265.5 -136.5t94.5 -248.5q0 -153 -111 -266t-296 -133v-233z" />
    <glyph glyph-name="percent.ss08" horiz-adv-x="1665" 
d="M432 0h-162l961 1452h160zM717 1151q0 -134 -95.5 -227t-228.5 -93q-132 0 -226.5 93t-94.5 227q0 132 94.5 224.5t226.5 92.5q133 0 228.5 -92t95.5 -225zM215 1151q0 -77 52 -129.5t126 -52.5q75 0 126.5 52t51.5 130q0 76 -51.5 128t-126.5 52q-74 0 -126 -52
t-52 -128zM948 303q0 132 95 225t227 93q133 0 228 -92.5t95 -225.5q0 -134 -95 -226.5t-228 -92.5q-132 0 -227 92.5t-95 226.5zM1448 303q0 76 -51.5 128t-126.5 52q-74 0 -126 -52t-52 -128q0 -77 52 -129.5t126 -52.5q75 0 126.5 52t51.5 130z" />
    <glyph glyph-name="quotesingle.ss08" horiz-adv-x="432" 
d="M109 1362q0 50 30 80.5t78 30.5t78.5 -30.5t30.5 -80.5q0 -21 -4 -49l-76 -355h-60l-73 353q-4 28 -4 51z" />
    <glyph glyph-name="plus.ss08" horiz-adv-x="1105" 
d="M623 1192v-410h391v-137h-391v-414h-144v414h-387v137h387v410h144z" />
    <glyph glyph-name="zero.ss08" horiz-adv-x="1343" 
d="M672 1331q-195 0 -295.5 -159t-100.5 -447q0 -290 100.5 -449t295.5 -159t295 158.5t100 449.5q0 288 -100 447t-295 159zM1229 725q0 -121 -18.5 -228.5t-60.5 -205t-105 -167.5t-158.5 -111.5t-214.5 -41.5t-214.5 41.5t-158.5 111.5t-105 167.5t-60.5 205t-18.5 228.5
q0 120 18 227t60 205t105 169t159 113t215 42t215 -42t159 -113t105 -169t60 -205t18 -227z" />
    <glyph glyph-name="one.ss08" horiz-adv-x="722" 
d="M565 0h-164v1055h-344v125q138 6 234 82.5t121 189.5h153v-1452z" />
    <glyph glyph-name="two.ss08" horiz-adv-x="1200" 
d="M1087 0h-983q3 172 81 305.5t249 243.5l262 170q209 133 209 325q0 121 -80.5 205t-224.5 84q-148 0 -231.5 -92.5t-83.5 -239.5q0 -40 4 -65l-168 27q-4 28 -4 57q0 198 139.5 329.5t343.5 131.5q111 0 202.5 -35t150 -95t90.5 -138t32 -166q0 -272 -276 -451l-301 -190
q-166 -105 -189 -250h778v-156z" />
    <glyph glyph-name="three.ss08" horiz-adv-x="1245" 
d="M698 862q81 0 157 -27.5t139 -79t101 -136.5t38 -191q0 -137 -71 -242.5t-188 -160t-258 -54.5q-115 0 -212 36t-163 97t-104 142t-43 172l162 39q6 -155 110 -247.5t252 -92.5q156 0 251.5 87t95.5 218q0 74 -27 133t-73.5 95.5t-104.5 55.5t-123 19q-69 0 -133 -20
l-80 143l461 448h-752v156h967v-154l-451 -442q24 6 49 6z" />
    <glyph glyph-name="four.ss08" horiz-adv-x="1265" 
d="M63 342v199l646 911h241v-954h250v-156h-250v-342h-164v342h-723zM786 498v800l-567 -800h567z" />
    <glyph glyph-name="five.ss08" horiz-adv-x="1212" 
d="M74 397l162 49q11 -145 111 -236t251 -91q150 0 249 92t99 238q0 156 -100 246.5t-248 90.5q-181 0 -299 -124l-166 67l189 723h737v-156h-627l-125 -485q55 61 140.5 93t179.5 32q215 0 351 -131.5t136 -347.5q0 -206 -144 -346t-372 -140q-217 0 -361.5 124t-162.5 302
z" />
    <glyph glyph-name="six.ss08" horiz-adv-x="1282" 
d="M313 459q0 -152 105.5 -247t245.5 -95q149 0 250.5 94t101.5 248q0 158 -101 251t-249 93q-146 0 -249.5 -96t-103.5 -248zM692 952q217 0 354.5 -133t137.5 -362q0 -111 -43 -204t-115.5 -154t-166.5 -94.5t-197 -33.5q-110 0 -207 40.5t-175 119.5t-123.5 211
t-45.5 301q0 160 37 296t103 235t156 168.5t197.5 104t226.5 34.5q95 0 177 -23t137 -59l-53 -142q-108 70 -271 70q-125 0 -228 -48.5t-170.5 -132.5t-106 -193.5t-44.5 -235.5q55 105 165.5 170t254.5 65z" />
    <glyph glyph-name="seven.ss08" horiz-adv-x="1122" 
d="M1094 1452v-166q-558 -495 -639 -1286h-170q11 129 38 253t58 222t78.5 198t84.5 167.5t93 144t86 114.5t82 92.5t62 63.5t44 41h-860v156h1043z" />
    <glyph glyph-name="eight.ss08" horiz-adv-x="1249" 
d="M625 -29q-237 0 -374.5 116.5t-137.5 291.5q0 132 82 228t211 134q-109 37 -182.5 130t-73.5 214q0 173 135 284.5t340 111.5q206 0 340.5 -111.5t134.5 -284.5q0 -121 -72.5 -214.5t-183.5 -129.5q128 -37 210.5 -133.5t82.5 -228.5q0 -175 -137.5 -291.5t-374.5 -116.5
zM625 813q134 0 221.5 74t87.5 192q0 114 -85 188t-224 74t-224.5 -74t-85.5 -188q0 -118 87.5 -192t222.5 -74zM625 119q159 0 250.5 76.5t91.5 195.5q0 122 -91.5 200.5t-250.5 78.5t-250.5 -78.5t-91.5 -200.5q0 -119 91.5 -195.5t250.5 -76.5z" />
    <glyph glyph-name="nine.ss08" horiz-adv-x="1284" 
d="M999 733q-37 -101 -147 -167t-260 -66q-75 0 -146.5 20t-134.5 61.5t-110.5 98.5t-75 136.5t-27.5 170.5q0 143 73.5 257.5t191.5 175.5t255 61q115 0 213.5 -42t174.5 -122.5t119.5 -210.5t43.5 -295q0 -407 -176.5 -623.5t-519.5 -216.5q-88 0 -185.5 24t-154.5 62
l60 140q54 -33 131.5 -54.5t148.5 -21.5q135 0 234 42.5t160 124.5t92.5 191t39.5 254zM969 991q0 151 -105 246.5t-248 95.5q-140 0 -244 -95.5t-104 -246.5q0 -157 101 -250.5t247 -93.5q144 0 248.5 95t104.5 249z" />
    <glyph glyph-name="less.ss08" horiz-adv-x="1075" 
d="M252 713l663 -332v-166l-835 422v149l835 422v-164z" />
    <glyph glyph-name="equal.ss08" horiz-adv-x="1220" 
d="M1077 844h-934v135h934v-135zM1077 446h-934v138h934v-138z" />
    <glyph glyph-name="greater.ss08" horiz-adv-x="1073" 
d="M160 381l665 332l-665 331v164l833 -422v-149l-833 -422v166z" />
    <glyph glyph-name="cent.ss08" horiz-adv-x="1122" 
d="M594 348q121 0 195.5 65t103.5 156l141 -53q-34 -122 -132 -210.5t-243 -106.5v-199h-137v201q-185 24 -303.5 165t-118.5 349q0 207 118.5 350t303.5 166v221h137v-223q144 -17 239.5 -102t129.5 -209l-145 -56q-12 42 -33.5 79t-55.5 70t-86 52.5t-116 19.5
q-145 0 -237.5 -103t-92.5 -265t93 -264.5t239 -102.5z" />
    <glyph glyph-name="sterling.ss08" horiz-adv-x="1228" 
d="M852 627h-358q14 -58 14 -103q0 -119 -51.5 -215t-134.5 -159h432q111 0 175 70t70 186l152 -25q-8 -173 -107 -277t-264 -104h-667v145q99 57 164 153t65 216q0 54 -16 113h-197v141h156q-26 60 -39 94t-26 90.5t-13 110.5q0 181 119.5 298.5t316.5 117.5q96 0 175 -31
t130 -84.5t79.5 -120t33.5 -141.5l-150 -37q-6 117 -79 189.5t-189 72.5q-120 0 -193 -71.5t-73 -200.5q0 -49 10.5 -92.5t37 -110.5t32.5 -84h395v-141z" />
    <glyph glyph-name="currency.ss08" horiz-adv-x="1259" 
d="M1022 213l-143 145q-109 -75 -244 -75q-137 0 -252 84l-150 -154l-102 102l148 154q-80 118 -80 252q0 139 84 258l-152 158l105 102l153 -160q114 80 246 80q128 0 237 -72l148 152l104 -102l-143 -150q92 -119 92 -266q0 -148 -88 -260l141 -146zM344 721
q0 -126 85 -210.5t206 -84.5q122 0 205.5 84t83.5 211t-83 210t-206 83q-122 0 -206.5 -83.5t-84.5 -209.5z" />
    <glyph glyph-name="yen.ss08" horiz-adv-x="1294" 
d="M731 0h-170v334h-383v129h383v162h-383v129h314l-424 698h194l389 -655l387 655h187l-424 -698h315v-129h-385v-162h385v-129h-385v-334z" />
    <glyph glyph-name="ordfeminine.ss08" horiz-adv-x="841" 
d="M561 1061v39q-2 -5 -18 -8l-193 -31q-106 -17 -106 -109q0 -42 32.5 -72t88.5 -30q91 0 143.5 53t52.5 158zM111 946q0 87 57.5 140.5t150.5 66.5l185 27q57 8 57 57q0 56 -38 91.5t-111 35.5q-71 0 -114.5 -39.5t-49.5 -103.5l-123 28q9 97 88 161.5t197 64.5
q143 0 212.5 -71t69.5 -181v-346q0 -59 8 -115h-125q-8 32 -8 96q-29 -48 -86 -82.5t-137 -34.5q-105 0 -169 61t-64 144z" />
    <glyph glyph-name="logicalnot.ss08" horiz-adv-x="1193" 
d="M1040 436h-147v406h-782v143h929v-549z" />
    <glyph glyph-name="degree.ss08" horiz-adv-x="833" 
d="M416 973q75 0 126.5 52t51.5 130q0 76 -51.5 128t-126.5 52q-74 0 -126 -52t-52 -128q0 -77 52 -129.5t126 -52.5zM94 1155q0 132 95 225t227 93t227.5 -93t95.5 -225q0 -134 -95.5 -226.5t-227.5 -92.5t-227 92.5t-95 226.5z" />
    <glyph glyph-name="plusminus.ss08" horiz-adv-x="1218" 
d="M1053 770h-373v-285h-143v285h-371v135h371v285h143v-285h373v-135zM1053 240h-887v139h887v-139z" />
    <glyph glyph-name="ordmasculine.ss08" horiz-adv-x="897" 
d="M449 741q-153 0 -254 104t-101 263q0 161 100.5 264t254.5 103q152 0 252 -103.5t100 -263.5q0 -159 -100.5 -263t-251.5 -104zM227 1108q0 -115 64.5 -181.5t157.5 -66.5q91 0 154 66.5t63 181.5t-63 180.5t-154 65.5q-93 0 -157.5 -65.5t-64.5 -180.5z" />
    <glyph glyph-name="onequarter.ss08" horiz-adv-x="1554" 
d="M328 0h-150l961 1452h147zM825 156v131l365 458h156v-475h135v-114h-135v-156h-138v156h-383zM1208 270v320l-252 -320h252zM74 1210v97q73 4 123 45t61 100h127v-747h-135v505h-176z" />
    <glyph glyph-name="onehalf.ss08" horiz-adv-x="1595" 
d="M334 0h-150l961 1452h147zM1106 463l-131 2q-4 36 -4 57q0 100 72.5 169t193.5 69q119 0 190.5 -68t71.5 -164q0 -134 -143 -223l-150 -94q-68 -46 -76 -96h375v-115h-540v20q0 179 170 287l129 82q98 59 98 141q0 47 -34.5 82t-92.5 35q-59 0 -96 -37t-37 -98
q0 -17 4 -49zM74 1210v97q73 4 123 45t61 100h127v-747h-135v505h-176z" />
    <glyph glyph-name="threequarters.ss08" horiz-adv-x="1718" 
d="M494 0h-150l961 1452h147zM987 156v131l367 458h153v-475h138v-114h-138v-156h-135v156h-385zM1372 270v320l-252 -320h252zM317 1053l-53 100l211 184h-371v115h547v-113l-217 -182q99 -5 166.5 -62t67.5 -159q0 -104 -81 -175t-210 -71q-122 0 -200 62t-97 153l121 45
q7 -64 56.5 -103.5t117.5 -39.5t111.5 36.5t43.5 92.5q0 63 -44 94t-107 31q-30 0 -62 -8z" />
    <glyph glyph-name="multiply.ss08" horiz-adv-x="1163" 
d="M231 1180l351 -367l352 367l98 -99l-354 -368l356 -367l-98 -100l-356 366l-353 -364l-96 98l352 367l-352 366z" />
    <glyph glyph-name="divide.ss08" horiz-adv-x="1187" 
d="M473 348q0 49 35.5 84t83.5 35q49 0 83 -34.5t34 -84.5q0 -48 -34 -82.5t-83 -34.5q-47 0 -83 35t-36 82zM1055 641h-922v145h922v-145zM473 1077q0 47 36 82t83 35q49 0 83 -34.5t34 -82.5t-34 -83.5t-83 -35.5q-47 0 -83 36t-36 83z" />
    <glyph glyph-name="perthousand.ss08" horiz-adv-x="2179" 
d="M432 0h-162l961 1452h160zM393 969q75 0 126.5 52t51.5 130q0 76 -51.5 128t-126.5 52q-74 0 -126 -52t-52 -128q0 -77 52 -129.5t126 -52.5zM72 1151q0 132 94.5 224.5t226.5 92.5q133 0 228.5 -92t95.5 -225q0 -134 -95.5 -227t-228.5 -93q-132 0 -226.5 93t-94.5 227z
M948 303q0 132 95 225t227 93q77 0 145 -34.5t113 -94.5q45 60 113 94.5t145 34.5q133 0 228 -92.5t95 -225.5q0 -134 -95 -226.5t-228 -92.5q-77 0 -145 34.5t-113 94.5q-45 -60 -113 -94.5t-145 -34.5q-132 0 -227 92.5t-95 226.5zM1270 121q75 0 126.5 52t51.5 130
q0 76 -51.5 128t-126.5 52q-74 0 -126 -52t-52 -128q0 -77 52 -129.5t126 -52.5zM1786 121q75 0 126.5 52t51.5 130q0 76 -51.5 128t-126.5 52q-74 0 -126 -52t-52 -128q0 -77 52 -129.5t126 -52.5z" />
    <glyph glyph-name="fraction.ss08" horiz-adv-x="288" 
d="M553 1452h147l-958 -1452h-150z" />
    <glyph glyph-name="Euro.ss08" horiz-adv-x="1509" 
d="M1436 127q-77 -67 -192.5 -111.5t-246.5 -44.5q-166 0 -309.5 60.5t-249.5 184t-147 292.5h-203v133h178q-4 33 -4 86q0 43 2 74h-176v131h201q30 129 101.5 234t168.5 172.5t213 104t238 36.5q222 0 372 -103l-65 -133q-121 82 -303 82q-191 0 -344.5 -101.5
t-206.5 -291.5h682l-58 -131h-651q-6 -38 -6 -76q0 -47 6 -84h578l-62 -133h-485q34 -123 118.5 -211t189.5 -128t220 -40q107 0 202.5 34.5t154.5 90.5z" />
    <glyph glyph-name="uni2113.ss08" horiz-adv-x="800" 
d="M705 176v-137q-76 -49 -187 -49q-131 0 -208 74.5t-77 209.5v289q-82 -37 -143 -49v143q52 17 143 58v446q0 150 72 234t182 84q121 0 185.5 -78t64.5 -209q0 -172 -96.5 -317.5t-257.5 -245.5v-322q0 -85 42.5 -130.5t113.5 -45.5q91 0 166 45zM383 1167v-362
q205 160 205 393q0 64 -24 102.5t-72 38.5q-109 0 -109 -172z" />
    <glyph glyph-name="uni2160.ss08" horiz-adv-x="962" 
d="M883 1452v-154h-318v-1144h318v-154h-803v154h317v1144h-317v154h803z" />
    <glyph glyph-name="uni2161.ss08" horiz-adv-x="1529" 
d="M1450 1452v-154h-320v-1144h320v-154h-1370v154h319v1144h-319v154h1370zM565 1298v-1144h398v1144h-398z" />
    <glyph glyph-name="uni2162.ss08" horiz-adv-x="2080" 
d="M2001 1452v-154h-318v-1144h318v-154h-1921v154h319v1144h-319v154h1921zM565 1298v-1144h391v1144h-391zM1124 154h392v1144h-392v-1144z" />
    <glyph glyph-name="uni2163.ss08" horiz-adv-x="2045" 
d="M1966 154v-154h-1886v154h313v1144h-313v154h1886v-154h-223l-336 -1144h559zM754 1298h-195v-1144h528zM1247 201l316 1097h-631z" />
    <glyph glyph-name="uni2164.ss08" horiz-adv-x="1572" 
d="M1493 154v-154h-1413v154h549l-336 1144h-213v154h1415v-154h-213l-336 -1144h547zM788 201l316 1097h-631z" />
    <glyph glyph-name="uni2165.ss08" horiz-adv-x="2041" 
d="M1501 154v1144h-207l-336 -1144h543zM799 201l315 1097h-631zM80 0v154h559l-334 1144h-225v154h1882v-154h-293v-1144h293v-154h-1882z" />
    <glyph glyph-name="uni2166.ss08" horiz-adv-x="2625" 
d="M2548 1452v-154h-322v-1144h318v-154h-2464v154h559l-334 1144h-225v154h2468zM1294 1298l-336 -1144h543v1144h-207zM1669 1298v-1144h389v1144h-389zM799 201l315 1097h-631z" />
    <glyph glyph-name="uni2167.ss08" horiz-adv-x="3153" 
d="M3076 1452v-154h-321v-1144h317v-154h-2992v154h559l-334 1144h-225v154h2996zM1294 1298l-336 -1144h541v1144h-205zM1665 1298v-1144h379v1144h-379zM2212 1298v-1144h375v1144h-375zM801 201l315 1097h-633z" />
    <glyph glyph-name="uni2168.ss08" horiz-adv-x="1988" 
d="M1696 1298l-375 -573l373 -571h217v-154h-1831v154h313v1144h-313v154h1829v-154h-213zM1120 723l-375 575h-186v-1144h189zM946 154h547l-272 428zM944 1298l277 -434l278 434h-555z" />
    <glyph glyph-name="uni2169.ss08" horiz-adv-x="1519" 
d="M1237 1298l-381 -579l371 -565h213v-154h-1360v154h209l368 563l-378 581h-199v154h1360v-154h-203zM485 154h541l-270 424zM477 1298l281 -440l282 440h-563z" />
    <glyph glyph-name="uni216C.ss08" horiz-adv-x="1277" 
d="M1200 0h-1120v154h280v1144h-280v154h747v-154h-299v-1144h510v424h162v-578z" />
    <glyph glyph-name="uni216D.ss08" horiz-adv-x="1556" 
d="M1255 0v213q-146 -240 -456 -240q-143 0 -270 51.5t-222.5 145.5t-151 237.5t-55.5 317.5q0 173 56.5 317t152 238.5t221 146.5t265.5 52q303 0 452 -234v207h164v-498h-164q-16 79 -49.5 144.5t-86.5 119t-133 83.5t-179 30q-106 0 -202 -39.5t-171 -113t-119.5 -191
t-44.5 -262.5q0 -143 43 -258t117.5 -189t172 -113.5t208.5 -39.5q102 0 184.5 32.5t135.5 88t85.5 120t46.5 138.5h164v-504h-164z" />
    <glyph glyph-name="uni216E.ss08" horiz-adv-x="1521" 
d="M537 154h194q109 0 200 32.5t163.5 98.5t113.5 178.5t41 261.5q0 147 -40.5 259t-112 179.5t-163.5 101t-202 33.5h-194v-1144zM80 1452h661q143 0 265 -46.5t215 -135t145.5 -229t52.5 -316.5q0 -142 -34.5 -260.5t-96 -203.5t-147 -144.5t-187.5 -88t-217 -28.5h-657
v154h293v1144h-293v154z" />
    <glyph glyph-name="uni216F.ss08" horiz-adv-x="2119" 
d="M582 1452l473 -1208l469 1208h512v-154h-267v-1144h273v-154h-660v154h222v1054l-474 -1208h-151l-475 1206v-1052h229v-154h-653v154h262v1144h-262v154h502z" />
    <glyph glyph-name="minus.ss08" horiz-adv-x="1150" 
d="M1008 645h-865v137h865v-137z" />
    <glyph glyph-name="infinity.ss08" horiz-adv-x="1665" 
d="M252 715q0 -86 58 -143.5t149 -57.5q77 0 144 51.5t142 149.5q-39 50 -67.5 81.5t-65 63t-74 46t-79.5 14.5q-91 0 -149 -59t-58 -146zM1411 715q0 87 -57.5 146t-147.5 59q-42 0 -79.5 -14t-73.5 -44.5t-64.5 -61.5t-68.5 -81q77 -101 142.5 -153t143.5 -52
q90 0 147.5 57.5t57.5 143.5zM829 608q-96 -114 -185 -172.5t-189 -58.5q-148 0 -247 98.5t-99 241.5q0 145 98.5 243.5t247.5 98.5q198 0 381 -232q91 113 181.5 172.5t190.5 59.5q150 0 249 -98t99 -244q0 -144 -99 -242t-249 -98q-202 0 -379 231z" />
    <glyph glyph-name="approxequal.ss08" horiz-adv-x="1280" 
d="M1055 993l88 -78q-111 -161 -287 -161q-88 0 -201 61l-96 51q-70 39 -133 39q-109 0 -190 -96l-93 82q116 166 281 166q89 0 205 -64l94 -49q81 -43 149 -43q106 0 183 92zM1055 598l88 -80q-112 -162 -287 -162q-90 0 -201 62l-96 53q-67 37 -133 37q-109 0 -190 -96
l-93 82q112 165 281 165q89 0 205 -61l94 -51q78 -43 149 -43q108 0 183 94z" />
    <glyph glyph-name="notequal.ss08" horiz-adv-x="1239" 
d="M352 233h-168l156 213h-188v138h290l191 260h-481v135h581l156 211h168l-156 -211h184v-135h-284l-191 -260h475v-138h-577z" />
    <glyph glyph-name="lessequal.ss08" horiz-adv-x="1171" 
d="M993 463l-835 297v149l835 299v-147l-651 -225l651 -226v-147zM993 240h-835v139h835v-139z" />
    <glyph glyph-name="greaterequal.ss08" horiz-adv-x="1171" 
d="M178 463v147l653 226l-653 225v147l836 -299v-149zM1014 240h-836v139h836v-139z" />
    </font>
</defs>
</svg>
