<?xml version="1.0" standalone="no"?>
<!DOCTYPE svg PUBLIC "-//W3C//DTD SVG 1.1//EN" "http://www.w3.org/Graphics/SVG/1.1/DTD/svg11.dtd" >
<svg xmlns="http://www.w3.org/2000/svg" xmlns:xlink="http://www.w3.org/1999/xlink" version="1.1">
<metadata>
Created by FontForge 20170731 at Wed Oct 13 17:31:47 2021
 By Aleksey,,,
(c) 2019, Copyright by Lineto. All rights reserved.
</metadata>
<defs>
<font id="CircularXX-Thin" horiz-adv-x="1146" >
  <font-face 
    font-family="CircularXX Thin"
    font-weight="250"
    font-stretch="normal"
    units-per-em="2048"
    panose-1="2 1 3 4 1 1 1 1 1 4"
    ascent="1536"
    descent="-512"
    x-height="971"
    cap-height="1452"
    bbox="-406 -498 2996 2068"
    underline-thickness="102"
    underline-position="-307"
    unicode-range="U+000D-FEFF"
  />
<missing-glyph horiz-adv-x="544" 
 />
    <glyph glyph-name="f_f" unicode="ff" horiz-adv-x="1234" 
d="M1204 897h-291v-897h-82v897h-512v-897h-81v897h-211v74h211v227q0 146 74 222.5t200 76.5q62 0 109 -20v-74q-42 20 -99 20q-93 0 -148 -56.5t-55 -174.5v-221h512v227q0 146 74.5 222.5t200.5 76.5q61 0 108 -20v-74q-42 20 -98 20q-93 0 -148 -56.5t-55 -174.5v-221
h291v-74z" />
    <glyph glyph-name="f_f_i" unicode="ffi" horiz-adv-x="1677" 
d="M1425 897h-512v-897h-82v897h-512v-897h-81v897h-211v74h211v227q0 146 74 222.5t200 76.5q62 0 109 -20v-74q-42 20 -99 20q-93 0 -148 -56.5t-55 -174.5v-221h512v227q0 146 74.5 222.5t200.5 76.5q61 0 108 -20v-74q-42 20 -98 20q-93 0 -148 -56.5t-55 -174.5v-221
h594v-971h-82v897zM1386 1395q0 34 23 58t57 24q32 0 56 -24t24 -58q0 -32 -24 -55t-56 -23q-34 0 -57 23t-23 55z" />
    <glyph glyph-name="f_f_l" unicode="ffl" horiz-adv-x="1677" 
d="M1507 0h-82v897h-512v-897h-82v897h-512v-897h-81v897h-211v74h211v227q0 146 74 222.5t200 76.5q62 0 109 -20v-74q-42 20 -99 20q-93 0 -148 -56.5t-55 -174.5v-221h512v227q0 146 74.5 222.5t200.5 76.5q61 0 108 -20v-74q-42 20 -98 20q-93 0 -148 -56.5t-55 -174.5
v-221h512v506h82v-1477z" />
    <glyph glyph-name="f_i" unicode="fi" horiz-adv-x="1083" 
d="M913 0h-82v897h-512v-897h-81v897h-211v74h211v227q0 146 74 222.5t200 76.5q62 0 109 -20v-74q-42 20 -99 20q-93 0 -148 -56.5t-55 -174.5v-221h594v-971zM793 1395q0 34 23 58t56 24q32 0 56 -24t24 -58q0 -32 -24 -55t-56 -23q-34 0 -56.5 22.5t-22.5 55.5z" />
    <glyph glyph-name="f_l" unicode="fl" horiz-adv-x="1083" 
d="M319 897v-897h-81v897h-211v74h211v227q0 146 74 222.5t200 76.5q62 0 109 -20v-74q-42 20 -99 20q-93 0 -148 -56.5t-55 -174.5v-221h512v506h82v-1477h-82v897h-512z" />
    <glyph glyph-name=".notdef" horiz-adv-x="544" 
 />
    <glyph glyph-name=".null" horiz-adv-x="0" 
 />
    <glyph glyph-name=".null" horiz-adv-x="0" 
 />
    <glyph glyph-name="uni000D" unicode="&#xd;" horiz-adv-x="544" 
 />
    <glyph glyph-name="space" unicode=" " horiz-adv-x="544" 
 />
    <glyph glyph-name="exclam" unicode="!" horiz-adv-x="430" 
d="M164 1452h106l-26 -1081h-54zM125 74q0 35 24.5 59.5t57.5 24.5q35 0 59.5 -24.5t24.5 -59.5q0 -34 -24.5 -58t-59.5 -24q-33 0 -57.5 24.5t-24.5 57.5z" />
    <glyph glyph-name="quotedbl" unicode="&#x22;" horiz-adv-x="626" 
d="M215 918h-31l-41 268q-10 62 -10 84q0 32 19.5 51.5t46.5 19.5q30 0 49.5 -19t19.5 -52q0 -22 -10 -84zM440 918h-30l-41 268q-11 69 -11 84q0 32 19 51.5t47 19.5q30 0 50 -19t20 -52q0 -15 -11 -84z" />
    <glyph glyph-name="numbersign" unicode="#" horiz-adv-x="1478" 
d="M782 0l84 389h-389l-82 -389h-76l84 389h-317v70h332l88 413h-320v70h336l82 385h76l-84 -385h389l82 385h76l-84 -385h334v-70h-349l-88 -413h336v-70h-352l-82 -389h-76zM582 872l-88 -413h387l88 413h-387z" />
    <glyph glyph-name="dollar" unicode="$" horiz-adv-x="1071" 
d="M963 1026l-74 -25q-26 120 -105.5 194t-210.5 83v-571l84 -21q147 -35 231.5 -122.5t84.5 -225.5q0 -150 -112 -252t-288 -109v-206h-69v206q-179 12 -294.5 125t-131.5 269l76 24q12 -137 107 -235t243 -111v594l-90 23q-127 31 -206 114.5t-79 214.5q0 144 110 244
t265 111v209h69v-209q162 -9 259.5 -97t130.5 -227zM643 608l-70 17v-578q147 7 233.5 86.5t86.5 198.5q0 104 -66 174t-184 102zM211 1001q0 -196 219 -256l74 -20v553q-121 -11 -207 -87t-86 -190z" />
    <glyph glyph-name="percent" unicode="%" horiz-adv-x="1579" 
d="M78 1030q0 129 89 219t218 90t218 -90t89 -219t-89 -219t-218 -90t-218 90t-89 219zM152 1030q0 -101 67.5 -171.5t165.5 -70.5t165.5 70.5t67.5 171.5t-67.5 171.5t-165.5 70.5t-165.5 -70.5t-67.5 -171.5zM889 295q0 129 89 219t218 90t218 -90t89 -219t-89 -219
t-218 -90t-218 90t-89 219zM963 295q0 -101 67.5 -171.5t165.5 -70.5t166 70.5t68 171.5t-68 171.5t-166 70.5t-165.5 -70.5t-67.5 -171.5zM328 0h-84l977 1327h84z" />
    <glyph glyph-name="ampersand" unicode="&#x26;" horiz-adv-x="1320" 
d="M1155 -2l-233 240q-106 -131 -207.5 -197t-220.5 -66q-116 0 -205 51.5t-132.5 131t-43.5 172.5q0 120 66 215t186 182l49 35l-84 88q-144 152 -144 295q0 138 96.5 235t241.5 97q146 0 239 -91t93 -229q0 -94 -53 -168t-141 -139l-130 -94l386 -398l286 353v-117
l-231 -291l295 -305h-113zM498 55q99 0 188 63t178 173l2 4l-399 412l-70 -52q-93 -70 -145.5 -145.5t-52.5 -171.5q0 -121 79.5 -202t219.5 -81zM270 1151q0 -124 119 -246l90 -94l139 100q154 110 154 248q0 100 -70 171t-178 71q-112 0 -183 -73.5t-71 -176.5z" />
    <glyph glyph-name="quotesingle" unicode="'" horiz-adv-x="401" 
d="M215 918h-31l-41 268q-10 62 -10 84q0 32 19.5 51.5t46.5 19.5q30 0 49.5 -19t19.5 -52q0 -22 -10 -84z" />
    <glyph glyph-name="parenleft" unicode="(" horiz-adv-x="557" 
d="M106 649q0 304 98 537.5t273 423.5l51 -45q-166 -185 -256 -408t-90 -508t90 -507.5t256 -407.5l-51 -45q-371 388 -371 960z" />
    <glyph glyph-name="parenright" unicode=")" horiz-adv-x="557" 
d="M451 649q0 -572 -371 -960l-51 45q166 185 256 407.5t90 507.5t-90 508t-256 408l51 45q175 -190 273 -423.5t98 -537.5z" />
    <glyph glyph-name="asterisk" unicode="*" horiz-adv-x="946" 
d="M506 1452v-317l305 106l20 -63l-305 -107l197 -274l-53 -41l-199 278l-192 -276l-54 41l191 272l-303 105l22 65l301 -106v317h70z" />
    <glyph glyph-name="plus" unicode="+" horiz-adv-x="1064" 
d="M90 625h404v438h73v-438h408v-70h-408v-444h-73v444h-404v70z" />
    <glyph glyph-name="comma" unicode="," horiz-adv-x="479" 
d="M147 78q0 34 25 59t61 25q41 0 69 -31.5t28 -87.5q0 -121 -60 -211t-151 -119v58q63 24 103 91.5t42 139.5q-13 -10 -37 -10q-34 0 -57 25.5t-23 60.5z" />
    <glyph glyph-name="hyphen" unicode="-" horiz-adv-x="819" 
d="M674 551h-529v74h529v-74z" />
    <glyph glyph-name="period" unicode="." horiz-adv-x="458" 
d="M143 78q0 37 25.5 62.5t60.5 25.5q37 0 62.5 -25.5t25.5 -62.5q0 -35 -25.5 -60.5t-62.5 -25.5q-35 0 -60.5 25.5t-25.5 60.5z" />
    <glyph glyph-name="slash" unicode="/" horiz-adv-x="931" 
d="M860 1452l-700 -1452h-84l700 1452h84z" />
    <glyph glyph-name="zero" unicode="0" horiz-adv-x="1224" 
d="M121 664q0 329 137 512q132 176 354 176q223 0 355 -176q137 -183 137 -512t-137 -512q-133 -177 -355 -177q-221 0 -354 177q-137 183 -137 512zM1018 664q0 339 -144 495q-103 115 -262 115q-158 0 -262 -115q-143 -155 -143 -495q0 -341 143 -496q104 -115 262 -115
t262 115q144 156 144 496z" />
    <glyph glyph-name="one" unicode="1" horiz-adv-x="645" 
d="M479 0h-84v1159q-30 -65 -121.5 -127t-214.5 -69v73q130 13 219 95t117 196h84v-1327z" />
    <glyph glyph-name="two" unicode="2" horiz-adv-x="1087" 
d="M979 0h-862q7 279 252 442l272 183q229 155 229 342q0 128 -89 218.5t-236 90.5q-150 0 -246 -94.5t-96 -251.5q0 -32 6 -70l-84 10q-6 27 -6 72q0 175 118 292.5t310 117.5q183 0 296 -111t113 -272q0 -228 -258 -400l-290 -194q-75 -49 -126.5 -123.5t-62.5 -171.5h760
v-80z" />
    <glyph glyph-name="three" unicode="3" horiz-adv-x="1163" 
d="M481 692l-41 72l471 485h-764v78h871v-78l-461 -475q37 6 80 6q112 -1 203.5 -44t149 -131.5t57.5 -209.5q0 -180 -127.5 -300t-331.5 -120q-194 0 -328 114t-143 292l82 20q3 -106 59.5 -187t143 -121t186.5 -40q157 0 265 96t108 244q0 146 -98 232t-251 86
q-60 0 -131 -19z" />
    <glyph glyph-name="four" unicode="4" horiz-adv-x="1118" 
d="M57 338v98l631 891h123v-911h240v-78h-240v-338h-84v338h-670zM727 416v825l-586 -825h586z" />
    <glyph glyph-name="five" unicode="5" horiz-adv-x="1116" 
d="M84 373l82 24q9 -145 115.5 -244.5t259.5 -99.5q161 0 267.5 103.5t106.5 255.5q0 157 -105.5 259.5t-264.5 102.5q-191 0 -326 -156l-82 33l168 676h647v-78h-587l-132 -534q64 68 151.5 102.5t172.5 34.5q193 0 318.5 -124.5t125.5 -313.5q0 -185 -129.5 -312
t-330.5 -127q-187 0 -316 116.5t-141 281.5z" />
    <glyph glyph-name="six" unicode="6" horiz-adv-x="1179" 
d="M197 575v-12q26 124 144 215.5t277 91.5q189 0 318 -126.5t129 -321.5q0 -128 -63.5 -231.5t-168 -159.5t-227.5 -56q-225 0 -357 170t-132 455q0 149 34 274t93.5 212.5t140 148t172.5 89t193 28.5q172 0 286 -74l-26 -74q-108 70 -265 70q-112 0 -204.5 -38.5
t-155 -104.5t-106 -155.5t-63 -190t-19.5 -210.5zM236 424q0 -160 109 -265.5t261 -105.5q155 0 264 105.5t109 265.5q0 161 -109 266t-264 105q-154 0 -262 -105t-108 -266z" />
    <glyph glyph-name="seven" unicode="7" horiz-adv-x="1052" 
d="M1016 1327v-86q-127 -120 -225.5 -244t-181 -274.5t-137 -331.5t-79.5 -391h-88q25 218 86 411t148.5 345.5t179 268.5t203.5 224h-848v78h942z" />
    <glyph glyph-name="eight" unicode="8" horiz-adv-x="1142" 
d="M571 1276q-155 0 -247.5 -78.5t-92.5 -200.5t94.5 -200t245.5 -78t245.5 78t94.5 200t-92.5 200.5t-247.5 78.5zM571 645q-171 0 -268.5 -84.5t-97.5 -212.5q0 -127 100 -212t266 -85t266.5 85t100.5 212q0 128 -98 212.5t-269 84.5zM571 -25q-206 0 -328 105.5
t-122 261.5q0 124 81 216t206 124q-110 30 -185.5 118t-75.5 201q0 150 118 250.5t306 100.5t306 -100.5t118 -250.5q0 -113 -75 -201t-185 -118q125 -32 206 -124t81 -216q0 -156 -122.5 -261.5t-328.5 -105.5z" />
    <glyph glyph-name="nine" unicode="9" horiz-adv-x="1167" 
d="M961 768q-34 -131 -147.5 -212t-262.5 -81q-116 0 -215.5 53.5t-161 154.5t-61.5 228q0 125 61.5 227t164 158t222.5 56q225 0 356.5 -168t131.5 -447q0 -129 -19.5 -239.5t-65 -208t-114 -166.5t-171.5 -108.5t-233 -39.5q-84 0 -171.5 24t-145.5 64l31 76
q54 -38 132.5 -62t153.5 -24q246 0 381.5 168t135.5 484q0 38 -2 63zM928 913q0 156 -108 258.5t-259 102.5q-150 0 -257 -102.5t-107 -258.5q0 -158 106.5 -260t257.5 -102q153 0 260 102t107 260z" />
    <glyph glyph-name="colon" unicode=":" horiz-adv-x="464" 
d="M145 78q0 37 25.5 62.5t60.5 25.5q37 0 62.5 -25.5t25.5 -62.5q0 -35 -25.5 -60.5t-62.5 -25.5q-35 0 -60.5 25.5t-25.5 60.5zM145 891q0 37 25.5 62.5t60.5 25.5q37 0 62.5 -25.5t25.5 -62.5q0 -35 -25.5 -60.5t-62.5 -25.5q-35 0 -60.5 25.5t-25.5 60.5z" />
    <glyph glyph-name="semicolon" unicode=";" horiz-adv-x="464" 
d="M137 78q0 34 25 59t61 25q40 0 68 -31.5t28 -87.5q0 -121 -59.5 -211t-150.5 -119v58q63 24 103 91.5t42 139.5q-13 -10 -37 -10q-34 0 -57 25.5t-23 60.5zM127 891q0 37 25.5 62.5t60.5 25.5q37 0 62.5 -25.5t25.5 -62.5q0 -35 -25.5 -60.5t-62.5 -25.5
q-35 0 -60.5 25.5t-25.5 60.5z" />
    <glyph glyph-name="less" unicode="&#x3c;" horiz-adv-x="1015" 
d="M76 551v76l811 426v-82l-742 -381l742 -383v-82z" />
    <glyph glyph-name="equal" unicode="=" horiz-adv-x="1189" 
d="M1042 752h-895v71h895v-71zM1042 356h-895v72h895v-72z" />
    <glyph glyph-name="greater" unicode="&#x3e;" horiz-adv-x="1011" 
d="M938 627v-76l-811 -426v82l741 383l-741 381v82z" />
    <glyph glyph-name="question" unicode="?" horiz-adv-x="970" 
d="M504 369h-74l-1 3q-1 3 -2 9t-2 15t-2 23.5t-1 31.5q0 94 31.5 164.5t103.5 127.5l90 72q160 130 160 283q0 127 -83.5 215t-229.5 88q-82 0 -146.5 -27t-104.5 -73t-60.5 -104t-20.5 -122q0 -47 18 -114l-84 12q-16 55 -16 110q0 74 26 143t75 126t130.5 91t182.5 34
q120 0 212.5 -54t138.5 -139t46 -184q0 -191 -201 -348l-90 -72q-100 -80 -100 -229q0 -18 0.5 -32.5t1 -23t1 -14.5t1.5 -9v-3zM387 74q0 35 24 59.5t58 24.5q35 0 59.5 -24.5t24.5 -59.5q0 -34 -24.5 -58t-59.5 -24q-34 0 -58 24t-24 58z" />
    <glyph glyph-name="at" unicode="@" horiz-adv-x="1679" 
d="M1225 307q-90 0 -139.5 49.5t-49.5 126.5q-39 -80 -108.5 -128t-151.5 -48q-125 0 -208 93.5t-83 242.5q0 114 48 217.5t137 169.5t198 66q88 0 153.5 -51t78.5 -136l28 162h72l-98 -510q-6 -30 -6 -57q0 -133 131 -133q111 0 202 128.5t91 315.5q0 89 -26.5 174.5
t-80.5 162t-129 134t-179 91.5t-224 34q-143 0 -271.5 -56t-221.5 -152.5t-147.5 -231.5t-54.5 -287q0 -149 50 -278.5t140 -224.5t223 -149.5t292 -54.5q148 0 282 55.5t236 157.5l39 -47q-101 -107 -250 -169t-307 -62q-171 0 -317 58.5t-247 161t-157.5 245t-56.5 307.5
t61 313t164 252.5t244.5 166t296.5 61.5q162 0 299 -57t226 -150.5t139 -211.5t50 -243q0 -109 -32.5 -205.5t-85 -162t-118 -103t-132.5 -37.5zM1067 799q0 101 -55 165t-154 64q-120 0 -209.5 -111.5t-89.5 -265.5q0 -115 58 -196.5t161 -81.5q73 0 130 38t90.5 101
t50.5 136t18 151z" />
    <glyph glyph-name="A" unicode="A" horiz-adv-x="1394" 
d="M1249 0l-205 504h-694l-203 -504h-94l594 1452h101l595 -1452h-94zM696 1364l-315 -780h631z" />
    <glyph glyph-name="B" unicode="B" horiz-adv-x="1222" 
d="M215 1452h387q206 0 323 -105t117 -280q0 -114 -61.5 -201.5t-161.5 -120.5q118 -29 195.5 -129t77.5 -227q0 -172 -124 -280.5t-323 -108.5h-430v1452zM303 774h363q121 0 204.5 82t83.5 207q0 144 -94.5 227.5t-261.5 83.5h-295v-600zM303 78h340q164 0 262.5 86
t98.5 229q0 135 -93 220t-229 85h-379v-620z" />
    <glyph glyph-name="C" unicode="C" horiz-adv-x="1527" 
d="M815 -25q-106 0 -208 31t-192 94t-157.5 151t-107 210.5t-39.5 263.5t39.5 263.5t107 211t157.5 152t192 94.5t208 31q238 0 403 -127.5t216 -335.5l-78 -29q-43 189 -188 300.5t-353 111.5q-119 0 -228.5 -44.5t-196.5 -127t-139 -212.5t-52 -288t52 -287.5t139 -211.5
t196.5 -126.5t228.5 -44.5q211 0 358.5 115.5t192.5 302.5l76 -27q-51 -209 -219.5 -340t-407.5 -131z" />
    <glyph glyph-name="D" unicode="D" horiz-adv-x="1437" 
d="M631 0h-416v1452h420q111 0 213 -29.5t189 -90t151 -146.5t100.5 -204.5t36.5 -258.5q0 -173 -56.5 -312.5t-152.5 -228t-220.5 -135.5t-264.5 -47zM303 78h326q123 0 231.5 41.5t193 120t134 203t49.5 280.5t-49 282t-132.5 205.5t-192 121.5t-230.5 42h-330v-1296z" />
    <glyph glyph-name="E" unicode="E" horiz-adv-x="1175" 
d="M1055 0h-840v1452h840v-80h-754v-604h690v-80h-690v-608h754v-80z" />
    <glyph glyph-name="F" unicode="F" horiz-adv-x="1171" 
d="M303 0h-88v1452h846v-80h-758v-618h694v-80h-694v-674z" />
    <glyph glyph-name="G" unicode="G" horiz-adv-x="1564" 
d="M1423 0h-67l-10 326q-16 -44 -42.5 -87.5t-74.5 -92.5t-107.5 -85.5t-147.5 -61t-190 -24.5q-99 0 -195.5 30.5t-183 94t-152 151t-104 211t-38.5 265.5q0 141 38 263.5t104.5 210.5t154.5 151t189 94t208 31q226 0 392 -119t230 -316l-77 -32q-58 178 -202 282.5
t-343 104.5q-118 0 -226 -44.5t-192.5 -126.5t-135 -211.5t-50.5 -287.5t51.5 -288.5t135.5 -212.5t187 -126.5t211 -44.5q119 0 216 35.5t157.5 91t102.5 127.5t59 140.5t18 134.5h-557v80h641v-664z" />
    <glyph glyph-name="H" unicode="H" horiz-adv-x="1488" 
d="M1274 0h-88v698h-883v-698h-88v1452h88v-674h883v674h88v-1452z" />
    <glyph glyph-name="I" unicode="I" horiz-adv-x="518" 
d="M303 0h-88v1452h88v-1452z" />
    <glyph glyph-name="J" unicode="J" horiz-adv-x="1083" 
d="M74 422v92l88 21v-103q0 -174 83.5 -275.5t235.5 -101.5q153 0 234.5 100t81.5 273v1024h88v-1028q0 -204 -107 -326.5t-297 -122.5t-298.5 119.5t-108.5 327.5z" />
    <glyph glyph-name="K" unicode="K" horiz-adv-x="1269" 
d="M1223 1452l-590 -641l616 -811h-110l-564 750l-272 -295v-455h-88v1452h88v-881l805 881h115z" />
    <glyph glyph-name="L" unicode="L" horiz-adv-x="1112" 
d="M1063 0h-848v1452h88v-1372h760v-80z" />
    <glyph glyph-name="M" unicode="M" horiz-adv-x="1918" 
d="M1704 0h-88v1323l-615 -1323h-86l-612 1323v-1323h-88v1452h119l627 -1341l626 1341h117v-1452z" />
    <glyph glyph-name="N" unicode="N" horiz-adv-x="1540" 
d="M1325 0h-98l-924 1339v-1339h-88v1452h117l905 -1317v1317h88v-1452z" />
    <glyph glyph-name="O" unicode="O" horiz-adv-x="1630" 
d="M199 725q0 -158 52 -287.5t139 -211.5t196.5 -126.5t228.5 -44.5q95 0 184.5 27.5t168 83.5t137.5 134.5t93 188t34 236.5q0 158 -52 288t-139.5 212.5t-197 127t-228.5 44.5t-228.5 -44.5t-196.5 -127t-139 -212.5t-52 -288zM111 725q0 141 39.5 263.5t107 211
t157.5 152t192 94.5t208 31t208 -31t192 -94.5t158 -151.5t107.5 -211t39.5 -264q0 -176 -60.5 -321t-160.5 -237t-225 -142t-259 -50q-106 0 -208 31t-192 94t-157.5 151t-107 210.5t-39.5 263.5z" />
    <glyph glyph-name="P" unicode="P" horiz-adv-x="1175" 
d="M303 707h348q167 0 266 91.5t99 239.5t-99 241t-266 93h-348v-665zM664 627h-361v-627h-88v1452h449q196 0 318 -117t122 -297t-122 -295.5t-318 -115.5z" />
    <glyph glyph-name="Q" unicode="Q" horiz-adv-x="1630" 
d="M111 725q0 141 39.5 263.5t107 211t157.5 152t192 94.5t208 31t208 -31t192 -94.5t158 -151.5t107.5 -211t39.5 -264q0 -175 -58.5 -316t-161.5 -241l199 -217l-57 -51l-201 219q-191 -144 -426 -144q-106 0 -208 31t-192 94t-157.5 151t-107 210.5t-39.5 263.5zM199 725
q0 -158 52 -287.5t139 -211.5t196.5 -126.5t228.5 -44.5q212 0 371 123l-309 342l59 51l309 -342q187 187 187 496q0 158 -52 288t-139.5 212.5t-197 127t-228.5 44.5t-228.5 -44.5t-196.5 -127t-139 -212.5t-52 -288z" />
    <glyph glyph-name="R" unicode="R" horiz-adv-x="1216" 
d="M1104 1049q0 -158 -103 -267.5t-270 -128.5l363 -653h-103l-354 647h-334v-647h-88v1452h463q187 0 306.5 -115t119.5 -288zM303 727h354q159 0 259 89t100 233q0 145 -100 234t-259 89h-354v-645z" />
    <glyph glyph-name="S" unicode="S" horiz-adv-x="1179" 
d="M1053 1122l-78 -26q-31 138 -127.5 220t-255.5 83q-142 0 -251.5 -86t-109.5 -221q0 -110 63 -182.5t181 -100.5l246 -59q165 -40 256.5 -134t91.5 -245q0 -170 -132 -283t-337 -113q-107 0 -199.5 35.5t-156 95.5t-103.5 137.5t-49 164.5l80 26q16 -160 133 -270.5
t295 -110.5q175 0 279 88.5t104 223.5q0 116 -71 192t-205 109l-248 59q-144 34 -229 124.5t-85 235.5q0 110 62 201t163.5 141t219.5 50q194 0 309.5 -97.5t153.5 -257.5z" />
    <glyph glyph-name="T" unicode="T" horiz-adv-x="1214" 
d="M1171 1372h-520v-1372h-88v1372h-520v80h1128v-80z" />
    <glyph glyph-name="U" unicode="U" horiz-adv-x="1361" 
d="M680 -25q-225 0 -354 130.5t-129 371.5v975h88v-971q0 -207 100.5 -316.5t294.5 -109.5q195 0 296 109.5t101 316.5v971h88v-975q0 -240 -129 -371t-356 -131z" />
    <glyph glyph-name="V" unicode="V" horiz-adv-x="1368" 
d="M684 94l537 1358h94l-588 -1452h-90l-582 1452h95z" />
    <glyph glyph-name="W" unicode="W" horiz-adv-x="1990" 
d="M1468 117l381 1335h90l-421 -1452h-99l-426 1343l-424 -1343h-94l-426 1452h92l383 -1331l420 1331h100z" />
    <glyph glyph-name="X" unicode="X" horiz-adv-x="1171" 
d="M1122 1452l-485 -723l487 -729h-104l-436 657l-437 -657h-102l490 729l-484 723h105l430 -655l434 655h102z" />
    <glyph glyph-name="Y" unicode="Y" horiz-adv-x="1261" 
d="M588 621l-522 831h102l465 -750l463 750h98l-520 -831v-621h-86v621z" />
    <glyph glyph-name="Z" unicode="Z" horiz-adv-x="1265" 
d="M1186 0h-1108v92l1007 1280h-997v80h1094v-90l-1008 -1282h1012v-80z" />
    <glyph glyph-name="bracketleft" unicode="[" horiz-adv-x="493" 
d="M426 -281h-268v1864h268v-70h-195v-1724h195v-70z" />
    <glyph glyph-name="backslash" unicode="\" horiz-adv-x="931" 
d="M772 0l-700 1452h84l700 -1452h-84z" />
    <glyph glyph-name="bracketright" unicode="]" horiz-adv-x="493" 
d="M336 -281h-268v70h194v1724h-194v70h268v-1864z" />
    <glyph glyph-name="asciicircum" unicode="^" horiz-adv-x="1089" 
d="M977 727h-86l-346 643l-346 -643h-86l395 725h74z" />
    <glyph glyph-name="underscore" unicode="_" horiz-adv-x="1067" 
d="M1057 -70h-1047v70h1047v-70z" />
    <glyph glyph-name="grave" unicode="`" horiz-adv-x="479" 
d="M385 1094h-61l-232 276h109z" />
    <glyph glyph-name="a" unicode="a" horiz-adv-x="1003" 
d="M420 49q150 0 246 98t96 240v158q-23 -34 -115 -47l-256 -39q-100 -15 -155.5 -69t-55.5 -140q0 -81 64 -141t176 -60zM412 -23q-147 0 -231.5 80.5t-84.5 188.5q0 118 75 188t216 92l256 39q119 19 119 111q0 112 -71 180t-193 68q-127 0 -208.5 -65.5t-94.5 -182.5
l-78 18q17 139 120.5 220t258.5 81q166 0 257 -91.5t91 -233.5v-498q0 -83 14 -172h-80q-12 60 -12 188q-40 -88 -134 -149.5t-220 -61.5z" />
    <glyph glyph-name="b" unicode="b" horiz-adv-x="1157" 
d="M250 219v-219h-80v1477h82v-723q16 42 45 81.5t73 77t109 60t142 22.5q198 0 317 -143t119 -365q0 -145 -53.5 -261t-154.5 -183.5t-231 -67.5q-76 0 -140.5 23t-108.5 61t-72.5 77.5t-46.5 82.5zM250 487q0 -189 99 -313.5t259 -124.5q163 0 265 125t102 313
t-101.5 311.5t-265.5 123.5q-160 0 -259 -123.5t-99 -311.5z" />
    <glyph glyph-name="c" unicode="c" horiz-adv-x="1067" 
d="M567 922q-165 0 -275 -121.5t-110 -315.5q0 -195 109.5 -315.5t275.5 -120.5q134 0 221.5 76t122.5 184l70 -30q-38 -128 -147 -216t-267 -88q-203 0 -336 143.5t-133 366.5q0 222 133.5 366t335.5 144q159 0 265 -83t143 -218l-72 -30q-14 50 -39.5 93.5t-65.5 82
t-99.5 60.5t-131.5 22z" />
    <glyph glyph-name="d" unicode="d" horiz-adv-x="1157" 
d="M907 166v53q-17 -43 -45 -82.5t-71.5 -77.5t-107.5 -61t-140 -23q-197 0 -320 145.5t-123 366.5t122.5 364.5t318.5 143.5q66 0 123 -16.5t94.5 -40.5t68.5 -57.5t48 -61.5t30 -59v717h82v-1289q0 -30 1 -60t2.5 -51.5t3 -38.5t2.5 -27t1 -11h-79q-11 69 -11 166z
M907 487q0 188 -99 311.5t-259 123.5q-164 0 -265.5 -122t-101.5 -313q0 -188 102 -313t265 -125q160 0 259 124.5t99 313.5z" />
    <glyph glyph-name="e" unicode="e" horiz-adv-x="1083" 
d="M188 551h713q-2 160 -97.5 265.5t-258.5 105.5q-146 0 -246 -105t-111 -266zM913 305l72 -24q-43 -133 -155 -219.5t-265 -86.5q-96 0 -180.5 35.5t-148 100t-100 162.5t-36.5 216q0 223 128 364.5t315 141.5q206 0 324 -132.5t120 -346.5q0 -17 -2 -37h-801v-12
q0 -186 110 -302t271 -116q129 0 219.5 72.5t128.5 183.5z" />
    <glyph glyph-name="f" unicode="f" horiz-adv-x="641" 
d="M610 897h-291v-897h-81v897h-211v74h211v227q0 146 74 222.5t200 76.5q62 0 109 -20v-74q-42 20 -99 20q-93 0 -148 -56.5t-55 -174.5v-221h291v-74z" />
    <glyph glyph-name="g" unicode="g" horiz-adv-x="1126" 
d="M881 526q0 169 -95 282.5t-247 113.5q-156 0 -254.5 -112.5t-98.5 -283.5t98 -283t255 -112q153 0 247.5 113t94.5 282zM874 70v202q-35 -90 -122.5 -152.5t-223.5 -62.5q-187 0 -306.5 133.5t-119.5 335.5t119.5 335.5t306.5 133.5q139 0 227 -64t122 -155v195h79v-899
q0 -72 -9 -134t-37.5 -129t-74 -114.5t-125 -78t-184.5 -30.5q-171 0 -286 103.5t-134 259.5l80 20q14 -133 106.5 -221t233.5 -88q85 0 149 24.5t101 63t60 94.5t30.5 109.5t7.5 118.5z" />
    <glyph glyph-name="h" unicode="h" horiz-adv-x="1075" 
d="M252 592v-592h-82v1477h82v-682q35 82 118 141t203 59q165 0 255 -100t90 -252v-643h-82v631q0 127 -74 209t-211 82q-129 0 -214 -99t-85 -231z" />
    <glyph glyph-name="i" unicode="i" horiz-adv-x="421" 
d="M252 0h-82v971h82v-971zM131 1395q0 34 23 58t57 24q32 0 56 -24t24 -58q0 -32 -24 -55t-56 -23q-34 0 -57 23t-23 55z" />
    <glyph glyph-name="j" unicode="j" horiz-adv-x="421" 
d="M170 -139v1110h82v-1112q0 -130 -68 -199.5t-182 -69.5q-64 0 -104 21v72q49 -19 98 -19q87 0 130.5 47.5t43.5 149.5zM131 1395q0 34 23 58t57 24q32 0 56 -24t24 -58q0 -32 -24 -55t-56 -23q-34 0 -57 23t-23 55z" />
    <glyph glyph-name="k" unicode="k" horiz-adv-x="976" 
d="M926 971l-416 -414l426 -557h-102l-379 502l-203 -203v-299h-82v1477h82v-1069l561 563h113z" />
    <glyph glyph-name="l" unicode="l" horiz-adv-x="421" 
d="M252 0h-82v1477h82v-1477z" />
    <glyph glyph-name="m" unicode="m" horiz-adv-x="1716" 
d="M250 971v-178q32 80 116 141t203 61q123 0 207 -66t109 -175q37 109 124.5 175t213.5 66q152 0 244 -96t92 -252v-647h-82v639q0 123 -73.5 203t-201.5 80q-129 0 -213 -95.5t-84 -226.5v-600h-82v639q0 123 -73 203t-201 80q-129 0 -213 -95.5t-84 -226.5v-600h-82v971
h80z" />
    <glyph glyph-name="n" unicode="n" horiz-adv-x="1075" 
d="M250 971v-178q34 84 119 143t204 59q165 0 255 -100t90 -252v-643h-82v631q0 127 -74 209t-211 82q-129 0 -214 -99t-85 -231v-592h-82v971h80z" />
    <glyph glyph-name="o" unicode="o" 
d="M182 485q0 -196 114 -316t277 -120t277.5 120t114.5 316t-114.5 316.5t-277.5 120.5t-277 -120.5t-114 -316.5zM98 485q0 227 137 368.5t338 141.5q96 0 183 -36.5t152 -102t103 -162t38 -209.5t-38 -209.5t-102.5 -162t-151.5 -102t-184 -36.5q-96 0 -183 36.5
t-151.5 102t-102.5 162t-38 209.5z" />
    <glyph glyph-name="p" unicode="p" horiz-adv-x="1157" 
d="M252 213v-602h-82v1360h82v-217q18 42 46.5 81t72.5 77t109 60.5t141 22.5q198 0 317 -143t119 -365q0 -145 -53.5 -261t-154.5 -183.5t-231 -67.5q-74 0 -138 22t-107.5 58.5t-72.5 75.5t-48 82zM250 487q0 -189 99 -313.5t259 -124.5q163 0 265 125t102 313
t-101.5 311.5t-265.5 123.5q-160 0 -259 -123.5t-99 -311.5z" />
    <glyph glyph-name="q" unicode="q" horiz-adv-x="1157" 
d="M905 -389v602q-19 -43 -48 -82t-72.5 -75.5t-107.5 -58.5t-138 -22q-130 0 -231 67.5t-154.5 183.5t-53.5 261q0 222 119.5 365t317.5 143q76 0 141 -22.5t108.5 -60.5t72 -76.5t46.5 -81.5v217h82v-1360h-82zM907 487q0 188 -99 311.5t-259 123.5q-164 0 -265.5 -123.5
t-101.5 -311.5t102 -313t265 -125q160 0 259 124.5t99 313.5z" />
    <glyph glyph-name="r" unicode="r" horiz-adv-x="661" 
d="M250 971v-187q40 94 119 145.5t186 51.5q54 0 84 -10v-86q-36 12 -88 12q-131 0 -215 -90.5t-84 -255.5v-551h-82v971h80z" />
    <glyph glyph-name="s" unicode="s" horiz-adv-x="880" 
d="M84 262l76 27q18 -110 93.5 -176t199.5 -66q106 0 177.5 55.5t71.5 145.5q0 145 -188 190l-162 37q-106 25 -167.5 86.5t-61.5 163.5q0 112 93.5 191t223.5 79q142 0 224 -72.5t108 -185.5l-74 -26q-20 97 -83.5 155t-174.5 58q-95 0 -166 -54.5t-71 -142.5
q0 -137 174 -176l162 -37q243 -56 243 -260q0 -117 -91 -198t-240 -81q-158 0 -253 82t-114 205z" />
    <glyph glyph-name="t" unicode="t" horiz-adv-x="643" 
d="M326 1280v-309h278v-74h-278v-633q0 -201 182 -201q56 0 96 17v-72q-40 -18 -117 -18q-114 0 -178.5 69.5t-64.5 200.5v637h-219v74h88q71 0 104 32t33 109v168h76z" />
    <glyph glyph-name="u" unicode="u" horiz-adv-x="1083" 
d="M838 172q-34 -79 -115.5 -138t-200.5 -59q-94 0 -166 32.5t-114 88t-63 122.5t-21 144v609h82v-596q0 -66 16 -122.5t49.5 -103t91 -73.5t133.5 -27q133 0 217 95t84 229v598h82v-783q0 -86 13 -188h-78q-10 90 -10 150v22z" />
    <glyph glyph-name="v" unicode="v" horiz-adv-x="989" 
d="M926 971l-385 -971h-90l-388 971h93l340 -881l342 881h88z" />
    <glyph glyph-name="w" unicode="w" horiz-adv-x="1601" 
d="M756 971h92l311 -875l285 875h86l-324 -971h-94l-311 874l-312 -874h-94l-325 971h90l284 -875z" />
    <glyph glyph-name="x" unicode="x" horiz-adv-x="940" 
d="M43 0l379 496l-361 475h99l311 -416l311 416h97l-359 -475l377 -496h-98l-330 436l-328 -436h-98z" />
    <glyph glyph-name="y" unicode="y" horiz-adv-x="985" 
d="M317 -389h-90l246 526l-416 834h93l368 -748l338 748h88z" />
    <glyph glyph-name="z" unicode="z" horiz-adv-x="929" 
d="M848 0h-766v74l659 823h-655v74h754v-74l-660 -823h668v-74z" />
    <glyph glyph-name="braceleft" unicode="{" horiz-adv-x="598" 
d="M59 610v82q96 11 151.5 69.5t55.5 156.5v354q0 145 64 218t198 73h15v-70h-15q-104 0 -146 -52.5t-42 -164.5v-373q0 -99 -58 -167t-157 -85q101 -15 158 -83.5t57 -168.5v-372q0 -112 42 -164.5t146 -52.5h15v-68h-15q-135 0 -198.5 72t-63.5 217v354q0 98 -55.5 156
t-151.5 69z" />
    <glyph glyph-name="bar" unicode="|" horiz-adv-x="389" 
d="M231 -281h-73v1864h73v-1864z" />
    <glyph glyph-name="braceright" unicode="}" horiz-adv-x="598" 
d="M539 692v-82q-96 -11 -151.5 -69t-55.5 -156v-354q0 -145 -63.5 -217t-198.5 -72h-15v68h15q104 0 146 52.5t42 164.5v372q0 100 57 168.5t158 83.5q-99 17 -157 85t-58 167v373q0 112 -42 164.5t-146 52.5h-15v70h15q134 0 198 -73t64 -218v-354q0 -98 55.5 -156.5
t151.5 -69.5z" />
    <glyph glyph-name="asciitilde" unicode="~" horiz-adv-x="1249" 
d="M651 537l-96 49q-81 43 -145 43q-66 0 -114 -28t-91 -87l-51 41q51 74 112 110.5t144 36.5q79 0 180 -53l94 -51q92 -47 158 -47q67 0 114 27t88 86l52 -41q-51 -74 -111 -110t-143 -36q-74 0 -191 60z" />
    <glyph glyph-name="uni00A0" unicode="&#xa0;" horiz-adv-x="544" 
 />
    <glyph glyph-name="exclamdown" unicode="&#xa1;" horiz-adv-x="405" 
d="M285 905q0 -35 -24.5 -59.5t-57.5 -24.5q-35 0 -59.5 24.5t-24.5 59.5q0 34 24.5 58t59.5 24q33 0 57.5 -24.5t24.5 -57.5zM256 -473h-106l26 1081h53z" />
    <glyph glyph-name="cent" unicode="&#xa2;" horiz-adv-x="1048" 
d="M512 0v197q-179 15 -291 145t-112 330q0 197 113 327.5t290 147.5v180h70v-180q141 -6 235.5 -84.5t128.5 -202.5l-67 -29q-27 95 -102.5 166t-194.5 78v-809q117 8 194.5 78.5t108.5 167.5l67 -29q-35 -117 -132 -199t-238 -89v-195h-70zM188 672q0 -171 90.5 -278.5
t233.5 -125.5v805q-143 -15 -233.5 -123t-90.5 -278z" />
    <glyph glyph-name="sterling" unicode="&#xa3;" horiz-adv-x="1169" 
d="M129 676h166q-6 15 -23.5 57t-25.5 64t-19.5 57t-16.5 66.5t-5 62.5q0 158 108.5 263.5t272.5 105.5q75 0 138.5 -19.5t108.5 -53t77.5 -79.5t50 -99t22.5 -112l-86 -16q-9 138 -90.5 220.5t-218.5 82.5q-128 0 -213.5 -83t-85.5 -210q0 -36 10.5 -79t21 -71t33.5 -82
t31 -75h399v-76h-376q20 -68 20 -127q0 -107 -64 -215t-155 -182h516q127 0 197.5 79.5t81.5 215.5l81 -13q-11 -165 -100 -261.5t-244 -96.5h-635v82q96 67 167 174t71 209q0 67 -22 135h-193v76z" />
    <glyph glyph-name="currency" unicode="&#xa4;" horiz-adv-x="1173" 
d="M156 469q0 166 106 285l-149 155l53 52l149 -156q125 100 277 100q151 0 266 -94l146 150l51 -52l-142 -147q115 -125 115 -293q0 -171 -110 -287l141 -143l-51 -51l-144 143q-119 -98 -272 -98q-164 0 -283 106l-147 -151l-51 51l147 151q-102 114 -102 279zM229 469
q0 -152 106 -258.5t257 -106.5t255.5 106.5t104.5 258.5q0 154 -104.5 259.5t-255.5 105.5t-257 -106t-106 -259z" />
    <glyph glyph-name="yen" unicode="&#xa5;" horiz-adv-x="1187" 
d="M637 0h-86v350h-393v68h393v182h-393v66h352l-412 661h99l397 -655l397 655h99l-412 -661h352v-66h-393v-182h393v-68h-393v-350z" />
    <glyph glyph-name="brokenbar" unicode="&#xa6;" horiz-adv-x="409" 
d="M168 1583h74v-819h-74v819zM168 541h74v-822h-74v822z" />
    <glyph glyph-name="section" unicode="&#xa7;" horiz-adv-x="1001" 
d="M123 -55l76 18q5 -139 87 -223t216 -84q122 0 203 68.5t81 177.5q0 88 -44.5 147t-135.5 107l-221 118q-61 33 -100 59.5t-74 62t-51.5 78.5t-16.5 97q0 94 59 166t150 99q-107 62 -159 137t-52 178q0 144 107 235t252 91q165 0 264.5 -100t105.5 -261l-77 -18
q-3 139 -82.5 224t-210.5 85q-110 0 -193.5 -69t-83.5 -181q0 -87 44 -146.5t128 -105.5l221 -119q122 -65 182 -130.5t60 -166.5q0 -96 -57 -165.5t-154 -102.5q113 -62 167 -136t54 -177q0 -143 -106.5 -232.5t-261.5 -89.5q-166 0 -268.5 98.5t-108.5 260.5zM600 705
l-184 98q-80 -18 -136.5 -79t-56.5 -142q0 -72 45 -125t133 -101l183 -98q79 18 135.5 78.5t56.5 140.5q0 74 -44.5 128.5t-131.5 99.5z" />
    <glyph glyph-name="dieresis" unicode="&#xa8;" horiz-adv-x="667" 
d="M92 1237q0 28 20 48t48 20t47.5 -20t19.5 -48q0 -29 -19.5 -48.5t-47.5 -19.5t-48 19.5t-20 48.5zM440 1237q0 28 20 48t48 20t47.5 -20t19.5 -48q0 -29 -19.5 -48.5t-47.5 -19.5t-48 19.5t-20 48.5z" />
    <glyph glyph-name="copyright" unicode="&#xa9;" horiz-adv-x="1710" 
d="M184 725q0 -188 88.5 -345t243 -248t338.5 -91t338 91t243 248.5t89 344.5q0 113 -33.5 218t-95 189t-144 147.5t-185 97.5t-212.5 34q-138 0 -262.5 -53.5t-213.5 -145.5t-141.5 -219t-52.5 -268zM113 725q0 153 58 292.5t157 240t236.5 160t289.5 59.5t290 -59.5
t237 -160t157.5 -240t58.5 -292.5t-58.5 -291.5t-157.5 -239t-237 -160t-290 -59.5t-290 59.5t-236.5 160t-156.5 239t-58 291.5zM860 1077q-134 0 -221.5 -98t-87.5 -254q0 -157 86.5 -254.5t222.5 -97.5q109 0 182.5 61t102.5 148l61 -27q-35 -104 -125.5 -175t-220.5 -71
q-166 0 -272.5 117.5t-106.5 298.5t106.5 298.5t272.5 117.5q131 0 218.5 -67.5t121.5 -178.5l-63 -23q-27 93 -98.5 149t-178.5 56z" />
    <glyph glyph-name="ordfeminine" unicode="&#xaa;" horiz-adv-x="829" 
d="M594 967v57q-15 -21 -72 -29l-184 -30q-135 -23 -135 -140q0 -55 42.5 -94t119.5 -39q116 0 172.5 76t56.5 199zM127 823q0 83 52.5 133t146.5 64l196 31q72 10 72 69q0 73 -48.5 118.5t-133.5 45.5q-86 0 -140 -46t-65 -126l-68 18q11 97 86 158.5t185 61.5
q127 0 192.5 -67.5t65.5 -170.5v-346q0 -55 8 -121h-72q-8 46 -8 121q-28 -58 -91.5 -97.5t-148.5 -39.5q-107 0 -168 57t-61 137z" />
    <glyph glyph-name="guillemotleft" unicode="&#xab;" horiz-adv-x="890" 
d="M459 188h-82l-273 392l273 391h82l-271 -391zM772 188h-82l-272 392l272 391h82l-270 -391z" />
    <glyph glyph-name="logicalnot" unicode="&#xac;" horiz-adv-x="1138" 
d="M975 332h-76v420h-797v73h873v-493z" />
    <glyph glyph-name="uni00AD" unicode="&#xad;" horiz-adv-x="819" 
d="M674 551h-529v74h529v-74z" />
    <glyph glyph-name="registered" unicode="&#xae;" horiz-adv-x="1710" 
d="M705 723h178q86 0 137 48t51 128t-51 128t-137 48h-178v-352zM705 664v-345h-68v816h254q111 0 180.5 -67t69.5 -169q0 -90 -55 -153t-146 -78l201 -349h-78l-199 345h-159zM184 725q0 -188 88.5 -345t243 -248t338.5 -91t338 91t243 248.5t89 344.5q0 113 -33.5 218
t-95 189t-144 147.5t-185 97.5t-212.5 34q-138 0 -262.5 -53.5t-213.5 -145.5t-141.5 -219t-52.5 -268zM113 725q0 153 58 292.5t157 240t236.5 160t289.5 59.5t290 -59.5t237 -160t157.5 -240t58.5 -292.5t-58.5 -291.5t-157.5 -239t-237 -160t-290 -59.5t-290 59.5
t-236.5 160t-156.5 239t-58 291.5z" />
    <glyph glyph-name="macron" unicode="&#xaf;" horiz-adv-x="679" 
d="M588 1196h-496v72h496v-72z" />
    <glyph glyph-name="degree" unicode="&#xb0;" horiz-adv-x="831" 
d="M109 1038q0 129 89 219.5t218 90.5t218 -90.5t89 -219.5t-89 -219t-218 -90t-218 90t-89 219zM182 1038q0 -101 68 -171t166 -70t165.5 70t67.5 171t-67.5 171.5t-165.5 70.5t-166 -70.5t-68 -171.5z" />
    <glyph glyph-name="plusminus" unicode="&#xb1;" horiz-adv-x="1210" 
d="M170 750h397v309h74v-309h399v-70h-399v-311h-74v311h-397v70zM170 219h870v-69h-870v69z" />
    <glyph glyph-name="twosuperior" unicode="&#xb2;" horiz-adv-x="686" 
d="M164 1184l-74 10q-4 20 -4 39q0 98 71 163.5t187 65.5q112 0 180 -62.5t68 -154.5q0 -127 -150 -221l-151 -94q-102 -64 -113 -154h426v-65h-518q0 165 154 264l151 94q127 79 127 176q0 64 -48.5 110t-125.5 46q-81 0 -132.5 -48t-51.5 -128q0 -13 4 -41z" />
    <glyph glyph-name="threesuperior" unicode="&#xb3;" horiz-adv-x="718" 
d="M301 1083l-37 60l258 243h-428v66h524v-63l-253 -240q16 2 26 2q102 0 173 -56.5t71 -160.5q0 -100 -76.5 -168t-198.5 -68q-118 0 -196.5 62.5t-87.5 159.5l69 22q4 -82 67 -131t146 -49q85 0 143 49t58 123q0 75 -53.5 117.5t-134.5 42.5q-33 0 -70 -11z" />
    <glyph glyph-name="acute" unicode="&#xb4;" horiz-adv-x="479" 
d="M156 1094h-64l184 276h111z" />
    <glyph glyph-name="mu" unicode="&#xb5;" horiz-adv-x="1060" 
d="M831 172q-34 -79 -115 -138t-200 -59q-99 0 -173 40.5t-110 111.5v-516h-81v1360h81v-596q0 -66 16.5 -122.5t49.5 -103t91 -73.5t134 -27q133 0 217 95t84 229v598h82v-783q0 -86 13 -188h-78q-11 99 -11 150v22z" />
    <glyph glyph-name="paragraph" unicode="&#xb6;" horiz-adv-x="1222" 
d="M543 678h-86q-160 0 -273.5 113.5t-113.5 273.5q0 163 121 275t311 112h628v-70h-190v-1771h-72v1771h-254v-1771h-71v1067z" />
    <glyph glyph-name="periodcentered" unicode="&#xb7;" horiz-adv-x="458" 
d="M145 582q0 36 24 60t60 24t60 -24t24 -60t-24 -60t-60 -24t-60 24t-24 60z" />
    <glyph glyph-name="cedilla" unicode="&#xb8;" horiz-adv-x="614" 
d="M236 -186l-37 45l98 151h68l-95 -139q25 14 70 14q83 0 132.5 -40t49.5 -107q0 -72 -56.5 -116t-156.5 -44q-67 0 -126 28.5t-91 71.5l43 50q68 -88 174 -88q68 0 106 26.5t38 71.5t-34.5 70.5t-99.5 25.5q-42 0 -83 -20z" />
    <glyph glyph-name="onesuperior" unicode="&#xb9;" horiz-adv-x="415" 
d="M53 1225v65q73 17 119 61t59 101h74v-741h-74v606q-17 -27 -71 -57.5t-107 -34.5z" />
    <glyph glyph-name="ordmasculine" unicode="&#xba;" horiz-adv-x="897" 
d="M449 694q110 0 187 81t77 214t-77 214t-187 81t-187.5 -81t-77.5 -214t77.5 -214t187.5 -81zM449 1350q143 0 240 -100t97 -261q0 -160 -96.5 -260t-240.5 -100q-143 0 -240.5 100.5t-97.5 259.5q0 161 97 261t241 100z" />
    <glyph glyph-name="guillemotright" unicode="&#xbb;" horiz-adv-x="890" 
d="M514 188h-82l270 392l-270 391h82l272 -391zM201 188h-82l272 392l-272 391h82l272 -391z" />
    <glyph glyph-name="onequarter" unicode="&#xbc;" horiz-adv-x="1515" 
d="M256 0h-84l977 1327h84zM88 1100v65q73 17 119 61t59 101h74v-741h-74v606q-17 -27 -71 -57.5t-107 -34.5zM815 180v78l371 483h98v-495h152v-66h-152v-178h-74v178h-395zM1210 246v416l-321 -416h321z" />
    <glyph glyph-name="onehalf" unicode="&#xbd;" horiz-adv-x="1554" 
d="M238 0h-84l976 1327h84zM90 1100v65q73 17 119 61t59 101h74v-741h-74v606q-17 -27 -71 -57.5t-107 -34.5zM1018 473l-74 10q-4 20 -4 39q0 98 71 164t187 66q112 0 180 -62.5t68 -154.5q0 -128 -150 -222l-151 -94q-103 -64 -113 -153h426v-66h-518q0 165 154 264
l151 94q127 79 127 177q0 64 -48.5 109.5t-125.5 45.5q-81 0 -132.5 -48t-51.5 -128q0 -13 4 -41z" />
    <glyph glyph-name="threequarters" unicode="&#xbe;" horiz-adv-x="1701" 
d="M442 0h-84l977 1327h84zM336 958l-37 60l258 244h-428v65h524v-63l-254 -240q16 2 27 2q102 0 173 -56.5t71 -160.5q0 -100 -76.5 -168t-198.5 -68q-118 0 -196.5 62.5t-87.5 159.5l69 22q4 -82 67 -131t146 -49q85 0 143 49t58 123q0 75 -53.5 117.5t-134.5 42.5
q-33 0 -70 -11zM1001 180v78l371 483h98v-495h152v-66h-152v-178h-73v178h-396zM1397 246v416l-322 -416h322z" />
    <glyph glyph-name="questiondown" unicode="&#xbf;" horiz-adv-x="954" 
d="M459 610h73l1 -3q1 -3 2 -9l2.5 -15t2.5 -23.5t1 -31.5q0 -94 -31.5 -164.5t-103.5 -127.5l-91 -72q-159 -129 -159 -283q0 -127 83.5 -215t229.5 -88q82 0 146.5 27t104.5 73t60.5 104t20.5 122q0 43 -19 114l84 -12q17 -58 17 -110q0 -74 -26 -143t-75 -126t-130.5 -91
t-182.5 -34q-120 0 -212.5 54t-138.5 139t-46 184q0 192 200 348l90 72q101 81 101 229q0 18 -0.5 32.5t-1 23t-1 14.5t-0.5 9zM575 905q0 -35 -23.5 -59.5t-57.5 -24.5q-35 0 -59.5 24.5t-24.5 59.5q0 34 24.5 58t59.5 24q34 0 57.5 -24t23.5 -58z" />
    <glyph glyph-name="Agrave" unicode="&#xc0;" horiz-adv-x="1394" 
d="M664 1554l-269 244h117l225 -244h-73zM1249 0l-205 504h-694l-203 -504h-94l594 1452h101l595 -1452h-94zM696 1364l-315 -780h631z" />
    <glyph glyph-name="Aacute" unicode="&#xc1;" horiz-adv-x="1394" 
d="M1012 1798l-269 -244h-73l225 244h117zM1249 0l-205 504h-694l-203 -504h-94l594 1452h101l595 -1452h-94zM696 1364l-315 -780h631z" />
    <glyph glyph-name="Acircumflex" unicode="&#xc2;" horiz-adv-x="1394" 
d="M922 1554l-217 195l-218 -195h-81l237 244h123l238 -244h-82zM1249 0l-205 504h-694l-203 -504h-94l594 1452h101l595 -1452h-94zM696 1364l-315 -780h631z" />
    <glyph glyph-name="Atilde" unicode="&#xc3;" horiz-adv-x="1394" 
d="M1010 1774v-17q0 -85 -46.5 -135.5t-113.5 -50.5q-72 0 -133 51l-45 37q-34 27 -57 38t-56 11q-45 0 -69.5 -34t-24.5 -95h-66v20q0 82 45.5 131.5t114.5 49.5t143 -60l43 -34q57 -44 103 -44q43 0 69.5 35t26.5 97h66zM1249 0l-205 504h-694l-203 -504h-94l594 1452h101
l595 -1452h-94zM696 1364l-315 -780h631z" />
    <glyph glyph-name="Adieresis" unicode="&#xc4;" horiz-adv-x="1394" 
d="M418 1677q0 29 19.5 49.5t47.5 20.5q29 0 49.5 -20.5t20.5 -49.5t-20.5 -49t-49.5 -20q-28 0 -47.5 20t-19.5 49zM842 1677q0 29 19.5 49.5t47.5 20.5q29 0 49.5 -20.5t20.5 -49.5t-20.5 -49t-49.5 -20q-28 0 -47.5 20t-19.5 49zM1249 0l-205 504h-694l-203 -504h-94
l594 1452h101l595 -1452h-94zM696 1364l-315 -780h631z" />
    <glyph glyph-name="Aring" unicode="&#xc5;" horiz-adv-x="1394" 
d="M1249 0l-205 504h-694l-203 -504h-94l574 1403q-52 24 -83.5 72t-31.5 108q0 83 56.5 140t136.5 57t136 -57t56 -140q0 -65 -35.5 -114t-93.5 -70l575 -1399h-94zM696 1364l-315 -780h631zM705 1452q54 0 89 37t35 94t-35 95t-89 38t-89.5 -38t-35.5 -95t35.5 -94
t89.5 -37z" />
    <glyph glyph-name="AE" unicode="&#xc6;" horiz-adv-x="1970" 
d="M1849 0h-839v453h-602l-297 -453h-109l965 1452h882v-80h-753v-604h690v-80h-690v-608h753v-80zM459 530h551v836z" />
    <glyph glyph-name="Ccedilla" unicode="&#xc7;" horiz-adv-x="1527" 
d="M762 -186l-37 45l76 116q-105 2 -205 34.5t-188 95.5t-154 150.5t-104.5 208.5t-38.5 261q0 141 39.5 263.5t107 211t157.5 152t192 94.5t208 31q238 0 403 -127.5t216 -335.5l-78 -29q-43 189 -188 300.5t-353 111.5q-119 0 -228.5 -44.5t-196.5 -127t-139 -212.5
t-52 -288t52 -287.5t139 -211.5t196.5 -126.5t228.5 -44.5q211 0 358.5 115.5t192.5 302.5l76 -27q-47 -197 -201 -325.5t-373 -143.5l-71 -106q25 14 69 14q83 0 133 -40t50 -107q0 -72 -56.5 -116t-156.5 -44q-67 0 -126.5 28.5t-91.5 71.5l44 50q68 -88 174 -88
q68 0 105.5 26.5t37.5 71.5t-34 70.5t-99 25.5q-43 0 -84 -20z" />
    <glyph glyph-name="Egrave" unicode="&#xc8;" horiz-adv-x="1175" 
d="M647 1554l-268 244h117l225 -244h-74zM1055 0h-840v1452h840v-80h-754v-604h690v-80h-690v-608h754v-80z" />
    <glyph glyph-name="Eacute" unicode="&#xc9;" horiz-adv-x="1175" 
d="M895 1798l-268 -244h-74l225 244h117zM1055 0h-840v1452h840v-80h-754v-604h690v-80h-690v-608h754v-80z" />
    <glyph glyph-name="Ecircumflex" unicode="&#xca;" horiz-adv-x="1175" 
d="M858 1554l-217 195l-217 -195h-82l238 244h122l238 -244h-82zM1055 0h-840v1452h840v-80h-754v-604h690v-80h-690v-608h754v-80z" />
    <glyph glyph-name="Edieresis" unicode="&#xcb;" horiz-adv-x="1175" 
d="M381 1677q0 29 20 49.5t48 20.5q29 0 49 -20.5t20 -49.5t-20 -49t-49 -20q-28 0 -48 20t-20 49zM762 1677q0 29 19.5 49.5t47.5 20.5q29 0 49.5 -20.5t20.5 -49.5t-20.5 -49t-49.5 -20q-28 0 -47.5 20t-19.5 49zM1055 0h-840v1452h840v-80h-754v-604h690v-80h-690v-608
h754v-80z" />
    <glyph glyph-name="Igrave" unicode="&#xcc;" horiz-adv-x="518" 
d="M231 1554l-268 244h117l225 -244h-74zM303 0h-88v1452h88v-1452z" />
    <glyph glyph-name="Iacute" unicode="&#xcd;" horiz-adv-x="518" 
d="M575 1798l-268 -244h-74l226 244h116zM303 0h-88v1452h88v-1452z" />
    <glyph glyph-name="Icircumflex" unicode="&#xce;" horiz-adv-x="518" 
d="M483 1554l-217 195l-217 -195h-82l238 244h123l237 -244h-82zM303 0h-88v1452h88v-1452z" />
    <glyph glyph-name="Idieresis" unicode="&#xcf;" horiz-adv-x="518" 
d="M303 0h-88v1452h88v-1452zM80 1677q0 28 18.5 47t44.5 19q27 0 46.5 -19.5t19.5 -46.5t-19.5 -46t-46.5 -19q-26 0 -44.5 18.5t-18.5 46.5zM326 1677q0 28 18.5 47t44.5 19q28 0 47 -19t19 -47t-19 -46.5t-47 -18.5q-26 0 -44.5 18.5t-18.5 46.5z" />
    <glyph glyph-name="Eth" unicode="&#xd0;" horiz-adv-x="1437" 
d="M631 0h-416v713h-162v73h162v666h420q111 0 213 -29.5t189 -90t151 -146.5t100.5 -204.5t36.5 -258.5q0 -173 -56.5 -312.5t-152.5 -228t-220.5 -135.5t-264.5 -47zM303 78h326q123 0 231.5 41.5t193 120t134 203t49.5 280.5t-49 282t-132.5 205.5t-192 121.5t-230.5 42
h-330v-588h315v-73h-315v-635z" />
    <glyph glyph-name="Ntilde" unicode="&#xd1;" horiz-adv-x="1540" 
d="M1085 1774v-17q0 -85 -46 -135.5t-113 -50.5q-72 0 -133 51l-45 37q-34 27 -57 38t-56 11q-45 0 -69.5 -34t-24.5 -95h-66v20q0 82 45.5 131.5t114.5 49.5t143 -60l43 -34q57 -44 103 -44q44 0 70 35t26 97h65zM1325 0h-98l-924 1339v-1339h-88v1452h117l905 -1317v1317
h88v-1452z" />
    <glyph glyph-name="Ograve" unicode="&#xd2;" horiz-adv-x="1630" 
d="M799 1554l-269 244h117l225 -244h-73zM199 725q0 -158 52 -287.5t139 -211.5t196.5 -126.5t228.5 -44.5q95 0 184.5 27.5t168 83.5t137.5 134.5t93 188t34 236.5q0 158 -52 288t-139.5 212.5t-197 127t-228.5 44.5t-228.5 -44.5t-196.5 -127t-139 -212.5t-52 -288z
M111 725q0 141 39.5 263.5t107 211t157.5 152t192 94.5t208 31t208 -31t192 -94.5t158 -151.5t107.5 -211t39.5 -264q0 -176 -60.5 -321t-160.5 -237t-225 -142t-259 -50q-106 0 -208 31t-192 94t-157.5 151t-107 210.5t-39.5 263.5z" />
    <glyph glyph-name="Oacute" unicode="&#xd3;" horiz-adv-x="1630" 
d="M1124 1798l-268 -244h-74l226 244h116zM199 725q0 -158 52 -287.5t139 -211.5t196.5 -126.5t228.5 -44.5q95 0 184.5 27.5t168 83.5t137.5 134.5t93 188t34 236.5q0 158 -52 288t-139.5 212.5t-197 127t-228.5 44.5t-228.5 -44.5t-196.5 -127t-139 -212.5t-52 -288z
M111 725q0 141 39.5 263.5t107 211t157.5 152t192 94.5t208 31t208 -31t192 -94.5t158 -151.5t107.5 -211t39.5 -264q0 -176 -60.5 -321t-160.5 -237t-225 -142t-259 -50q-106 0 -208 31t-192 94t-157.5 151t-107 210.5t-39.5 263.5z" />
    <glyph glyph-name="Ocircumflex" unicode="&#xd4;" horiz-adv-x="1630" 
d="M1040 1554l-217 195l-217 -195h-82l238 244h123l237 -244h-82zM199 725q0 -158 52 -287.5t139 -211.5t196.5 -126.5t228.5 -44.5q95 0 184.5 27.5t168 83.5t137.5 134.5t93 188t34 236.5q0 158 -52 288t-139.5 212.5t-197 127t-228.5 44.5t-228.5 -44.5t-196.5 -127
t-139 -212.5t-52 -288zM111 725q0 141 39.5 263.5t107 211t157.5 152t192 94.5t208 31t208 -31t192 -94.5t158 -151.5t107.5 -211t39.5 -264q0 -176 -60.5 -321t-160.5 -237t-225 -142t-259 -50q-106 0 -208 31t-192 94t-157.5 151t-107 210.5t-39.5 263.5z" />
    <glyph glyph-name="Otilde" unicode="&#xd5;" horiz-adv-x="1630" 
d="M1130 1774v-17q0 -85 -46 -135.5t-113 -50.5q-72 0 -133 51l-45 37q-34 27 -57 38t-56 11q-45 0 -69.5 -34t-24.5 -95h-66v20q0 82 45.5 131.5t114.5 49.5t143 -60l43 -34q57 -44 103 -44q43 0 69.5 35t26.5 97h65zM199 725q0 -158 52 -287.5t139 -211.5t196.5 -126.5
t228.5 -44.5q95 0 184.5 27.5t168 83.5t137.5 134.5t93 188t34 236.5q0 158 -52 288t-139.5 212.5t-197 127t-228.5 44.5t-228.5 -44.5t-196.5 -127t-139 -212.5t-52 -288zM111 725q0 141 39.5 263.5t107 211t157.5 152t192 94.5t208 31t208 -31t192 -94.5t158 -151.5
t107.5 -211t39.5 -264q0 -176 -60.5 -321t-160.5 -237t-225 -142t-259 -50q-106 0 -208 31t-192 94t-157.5 151t-107 210.5t-39.5 263.5z" />
    <glyph glyph-name="Odieresis" unicode="&#xd6;" horiz-adv-x="1630" 
d="M467 1677q0 29 20 49.5t48 20.5q29 0 49 -20.5t20 -49.5t-20 -49t-49 -20q-28 0 -48 20t-20 49zM1040 1677q0 29 20 49.5t48 20.5q29 0 49.5 -20.5t20.5 -49.5t-20.5 -49t-49.5 -20q-28 0 -48 20t-20 49zM199 725q0 -158 52 -287.5t139 -211.5t196.5 -126.5t228.5 -44.5
q95 0 184.5 27.5t168 83.5t137.5 134.5t93 188t34 236.5q0 158 -52 288t-139.5 212.5t-197 127t-228.5 44.5t-228.5 -44.5t-196.5 -127t-139 -212.5t-52 -288zM111 725q0 141 39.5 263.5t107 211t157.5 152t192 94.5t208 31t208 -31t192 -94.5t158 -151.5t107.5 -211
t39.5 -264q0 -176 -60.5 -321t-160.5 -237t-225 -142t-259 -50q-106 0 -208 31t-192 94t-157.5 151t-107 210.5t-39.5 263.5z" />
    <glyph glyph-name="multiply" unicode="&#xd7;" horiz-adv-x="1073" 
d="M913 145l-378 392l-375 -390l-49 50l374 391l-374 391l49 51l377 -391l376 391l50 -49l-379 -393l379 -391z" />
    <glyph glyph-name="Oslash" unicode="&#xd8;" horiz-adv-x="1630" 
d="M111 725q0 141 39.5 263.5t107 211t157.5 152t192 94.5t208 31q246 0 440 -158l156 201l57 -43l-159 -205q211 -211 211 -547q0 -176 -60.5 -321t-160.5 -237t-225 -142t-259 -50q-228 0 -412 131l-143 -184l-57 43l145 187q-111 100 -174 245t-63 328zM199 725
q0 -320 198 -508l809 1038q-171 142 -391 142q-119 0 -228.5 -44.5t-196.5 -127t-139 -212.5t-52 -288zM1432 725q0 291 -175 481l-802 -1034q156 -117 360 -117q95 0 184.5 27.5t168 83.5t137.5 134.5t93 188t34 236.5z" />
    <glyph glyph-name="Ugrave" unicode="&#xd9;" horiz-adv-x="1361" 
d="M700 1554l-268 244h117l225 -244h-74zM680 -25q-225 0 -354 130.5t-129 371.5v975h88v-971q0 -207 100.5 -316.5t294.5 -109.5q195 0 296 109.5t101 316.5v971h88v-975q0 -240 -129 -371t-356 -131z" />
    <glyph glyph-name="Uacute" unicode="&#xda;" horiz-adv-x="1361" 
d="M938 1798l-268 -244h-74l225 244h117zM680 -25q-225 0 -354 130.5t-129 371.5v975h88v-971q0 -207 100.5 -316.5t294.5 -109.5q195 0 296 109.5t101 316.5v971h88v-975q0 -240 -129 -371t-356 -131z" />
    <glyph glyph-name="Ucircumflex" unicode="&#xdb;" horiz-adv-x="1361" 
d="M903 1554l-217 195l-217 -195h-82l238 244h123l237 -244h-82zM680 -25q-225 0 -354 130.5t-129 371.5v975h88v-971q0 -207 100.5 -316.5t294.5 -109.5q195 0 296 109.5t101 316.5v971h88v-975q0 -240 -129 -371t-356 -131z" />
    <glyph glyph-name="Udieresis" unicode="&#xdc;" horiz-adv-x="1361" 
d="M430 1677q0 29 20 49.5t48 20.5q29 0 49 -20.5t20 -49.5t-20 -49t-49 -20q-28 0 -48 20t-20 49zM811 1677q0 29 20 49.5t48 20.5q29 0 49 -20.5t20 -49.5t-20 -49t-49 -20q-28 0 -48 20t-20 49zM680 -25q-225 0 -354 130.5t-129 371.5v975h88v-971q0 -207 100.5 -316.5
t294.5 -109.5q195 0 296 109.5t101 316.5v971h88v-975q0 -240 -129 -371t-356 -131z" />
    <glyph glyph-name="Yacute" unicode="&#xdd;" horiz-adv-x="1261" 
d="M874 1798l-268 -244h-74l226 244h116zM588 621l-522 831h102l465 -750l463 750h98l-520 -831v-621h-86v621z" />
    <glyph glyph-name="Thorn" unicode="&#xde;" horiz-adv-x="1173" 
d="M303 0h-88v1452h88v-309h361q196 0 318 -117t122 -297t-122 -296t-318 -116h-361v-317zM303 397h348q167 0 266 92t99 240t-99 241t-266 93h-348v-666z" />
    <glyph glyph-name="germandbls" unicode="&#xdf;" horiz-adv-x="1087" 
d="M395 258l82 21q1 -38 14 -76t39 -73t72 -57t105 -22q104 0 163.5 65.5t59.5 153.5q0 146 -164 236l-84 45q-109 61 -109 151q0 84 91 146l86 59q112 75 112 223q0 115 -79 193t-214 78q-136 0 -225.5 -106.5t-89.5 -293.5v-1001h-84v1006q0 217 114 344t285 127
t274 -98.5t103 -248.5q0 -176 -147 -280l-86 -59q-28 -20 -42 -39.5t-14 -49.5q0 -16 5 -28.5t18.5 -24t23 -17.5t33.5 -20l84 -45q87 -47 140 -122t53 -169q0 -55 -20 -107.5t-57 -96.5t-97 -70.5t-133 -26.5q-77 0 -138.5 26.5t-97 70t-55 91t-21.5 95.5z" />
    <glyph glyph-name="agrave" unicode="&#xe0;" horiz-adv-x="1003" 
d="M420 49q150 0 246 98t96 240v158q-23 -34 -115 -47l-256 -39q-100 -15 -155.5 -69t-55.5 -140q0 -81 64 -141t176 -60zM412 -23q-147 0 -231.5 80.5t-84.5 188.5q0 118 75 188t216 92l256 39q119 19 119 111q0 112 -71 180t-193 68q-127 0 -208.5 -65.5t-94.5 -182.5
l-78 18q17 139 120.5 220t258.5 81q166 0 257 -91.5t91 -233.5v-498q0 -83 14 -172h-80q-12 60 -12 188q-40 -88 -134 -149.5t-220 -61.5zM543 1094h-62l-231 276h108z" />
    <glyph glyph-name="aacute" unicode="&#xe1;" horiz-adv-x="1003" 
d="M518 1094h-63l184 276h111zM420 49q150 0 246 98t96 240v158q-23 -34 -115 -47l-256 -39q-100 -15 -155.5 -69t-55.5 -140q0 -81 64 -141t176 -60zM412 -23q-147 0 -231.5 80.5t-84.5 188.5q0 118 75 188t216 92l256 39q119 19 119 111q0 112 -71 180t-193 68
q-127 0 -208.5 -65.5t-94.5 -182.5l-78 18q17 139 120.5 220t258.5 81q166 0 257 -91.5t91 -233.5v-498q0 -83 14 -172h-80q-12 60 -12 188q-40 -88 -134 -149.5t-220 -61.5z" />
    <glyph glyph-name="acircumflex" unicode="&#xe2;" horiz-adv-x="1003" 
d="M725 1094l-215 225l-215 -225h-70l232 276h106l232 -276h-70zM420 49q150 0 246 98t96 240v158q-23 -34 -115 -47l-256 -39q-100 -15 -155.5 -69t-55.5 -140q0 -81 64 -141t176 -60zM412 -23q-147 0 -231.5 80.5t-84.5 188.5q0 118 75 188t216 92l256 39q119 19 119 111
q0 112 -71 180t-193 68q-127 0 -208.5 -65.5t-94.5 -182.5l-78 18q17 139 120.5 220t258.5 81q166 0 257 -91.5t91 -233.5v-498q0 -83 14 -172h-80q-12 60 -12 188q-40 -88 -134 -149.5t-220 -61.5z" />
    <glyph glyph-name="atilde" unicode="&#xe3;" horiz-adv-x="1003" 
d="M522 1176l-45 36q-31 26 -54 38t-54 12q-46 0 -70.5 -33.5t-24.5 -95.5h-67v20q0 81 45.5 129.5t114.5 48.5t141 -59l39 -33q56 -43 100 -43q46 0 70 34t24 97h68v-16q0 -85 -46 -135t-114 -50q-67 0 -127 50zM420 49q150 0 246 98t96 240v158q-23 -34 -115 -47l-256 -39
q-100 -15 -155.5 -69t-55.5 -140q0 -81 64 -141t176 -60zM412 -23q-147 0 -231.5 80.5t-84.5 188.5q0 118 75 188t216 92l256 39q119 19 119 111q0 112 -71 180t-193 68q-127 0 -208.5 -65.5t-94.5 -182.5l-78 18q17 139 120.5 220t258.5 81q166 0 257 -91.5t91 -233.5v-498
q0 -83 14 -172h-80q-12 60 -12 188q-40 -88 -134 -149.5t-220 -61.5z" />
    <glyph glyph-name="adieresis" unicode="&#xe4;" horiz-adv-x="1003" 
d="M272 1237q0 28 20 48t48 20t48 -20t20 -48q0 -29 -20 -48.5t-48 -19.5t-48 19.5t-20 48.5zM621 1237q0 28 19.5 48t47.5 20t48 -20t20 -48q0 -29 -20 -48.5t-48 -19.5t-47.5 19.5t-19.5 48.5zM420 49q150 0 246 98t96 240v158q-23 -34 -115 -47l-256 -39
q-100 -15 -155.5 -69t-55.5 -140q0 -81 64 -141t176 -60zM412 -23q-147 0 -231.5 80.5t-84.5 188.5q0 118 75 188t216 92l256 39q119 19 119 111q0 112 -71 180t-193 68q-127 0 -208.5 -65.5t-94.5 -182.5l-78 18q17 139 120.5 220t258.5 81q166 0 257 -91.5t91 -233.5v-498
q0 -83 14 -172h-80q-12 60 -12 188q-40 -88 -134 -149.5t-220 -61.5z" />
    <glyph glyph-name="aring" unicode="&#xe5;" horiz-adv-x="1003" 
d="M299 1292q0 86 60.5 147.5t146.5 61.5t146.5 -61.5t60.5 -147.5t-60.5 -147.5t-146.5 -61.5t-146.5 61.5t-60.5 147.5zM367 1292q0 -61 40 -103t99 -42t99 42t40 103t-40 103.5t-99 42.5t-99 -42.5t-40 -103.5zM420 49q150 0 246 98t96 240v158q-23 -34 -115 -47
l-256 -39q-100 -15 -155.5 -69t-55.5 -140q0 -81 64 -141t176 -60zM412 -23q-147 0 -231.5 80.5t-84.5 188.5q0 118 75 188t216 92l256 39q119 19 119 111q0 112 -71 180t-193 68q-127 0 -208.5 -65.5t-94.5 -182.5l-78 18q17 139 120.5 220t258.5 81q166 0 257 -91.5
t91 -233.5v-498q0 -83 14 -172h-80q-12 60 -12 188q-40 -88 -134 -149.5t-220 -61.5z" />
    <glyph glyph-name="ae" unicode="&#xe6;" horiz-adv-x="1744" 
d="M1575 305l72 -24q-43 -133 -155 -219.5t-265 -86.5q-138 0 -250 72.5t-168 202.5q-41 -121 -142 -197t-255 -76q-147 0 -231.5 80.5t-84.5 188.5q0 118 75 188t216 92l256 39q119 19 119 111q0 112 -71 180t-193 68q-127 0 -208.5 -65.5t-94.5 -182.5l-78 18
q17 139 120.5 220t258.5 81q134 0 220 -62.5t113 -168.5q59 109 158 170t217 61q207 0 325 -132.5t120 -346.5q0 -17 -2 -37h-801v-12q0 -186 110 -302t271 -116q129 0 219.5 72.5t128.5 183.5zM850 551h713q-2 160 -98 265.5t-259 105.5q-145 0 -245 -105t-111 -266z
M426 49q144 0 240 95t96 235v166q-24 -34 -103 -45l-276 -43q-94 -14 -148.5 -67.5t-54.5 -139.5q0 -82 65 -141.5t181 -59.5z" />
    <glyph glyph-name="ccedilla" unicode="&#xe7;" horiz-adv-x="1067" 
d="M508 -186l-37 45l76 116q-196 8 -322.5 150t-126.5 360q0 222 133.5 366t335.5 144q159 0 265 -83t143 -218l-72 -30q-14 50 -39.5 93.5t-65.5 82t-99.5 60.5t-131.5 22q-165 0 -275 -121.5t-110 -315.5q0 -195 109.5 -315.5t275.5 -120.5q134 0 221.5 76t122.5 184
l70 -30q-36 -119 -131.5 -204t-235.5 -98l-71 -106q25 14 69 14q83 0 133 -40t50 -107q0 -72 -56.5 -116t-156.5 -44q-67 0 -126 28.5t-91 71.5l43 50q68 -88 174 -88q68 0 105.5 26.5t37.5 71.5t-34 70.5t-99 25.5q-43 0 -84 -20z" />
    <glyph glyph-name="egrave" unicode="&#xe8;" horiz-adv-x="1083" 
d="M616 1094h-61l-231 276h108zM188 551h713q-2 160 -97.5 265.5t-258.5 105.5q-146 0 -246 -105t-111 -266zM913 305l72 -24q-43 -133 -155 -219.5t-265 -86.5q-96 0 -180.5 35.5t-148 100t-100 162.5t-36.5 216q0 223 128 364.5t315 141.5q206 0 324 -132.5t120 -346.5
q0 -17 -2 -37h-801v-12q0 -186 110 -302t271 -116q129 0 219.5 72.5t128.5 183.5z" />
    <glyph glyph-name="eacute" unicode="&#xe9;" horiz-adv-x="1083" 
d="M188 551h713q-2 160 -97.5 265.5t-258.5 105.5q-146 0 -246 -105t-111 -266zM913 305l72 -24q-43 -133 -155 -219.5t-265 -86.5q-96 0 -180.5 35.5t-148 100t-100 162.5t-36.5 216q0 223 128 364.5t315 141.5q206 0 324 -132.5t120 -346.5q0 -17 -2 -37h-801v-12
q0 -186 110 -302t271 -116q129 0 219.5 72.5t128.5 183.5zM584 1094h-64l185 276h110z" />
    <glyph glyph-name="ecircumflex" unicode="&#xea;" horiz-adv-x="1083" 
d="M776 1094l-215 225l-215 -225h-70l232 276h106l232 -276h-70zM188 551h713q-2 160 -97.5 265.5t-258.5 105.5q-146 0 -246 -105t-111 -266zM913 305l72 -24q-43 -133 -155 -219.5t-265 -86.5q-96 0 -180.5 35.5t-148 100t-100 162.5t-36.5 216q0 223 128 364.5t315 141.5
q206 0 324 -132.5t120 -346.5q0 -17 -2 -37h-801v-12q0 -186 110 -302t271 -116q129 0 219.5 72.5t128.5 183.5z" />
    <glyph glyph-name="edieresis" unicode="&#xeb;" horiz-adv-x="1083" 
d="M322 1237q0 28 19.5 48t47.5 20t48 -20t20 -48q0 -29 -20 -48.5t-48 -19.5t-47.5 19.5t-19.5 48.5zM670 1237q0 28 19.5 48t47.5 20t48 -20t20 -48q0 -29 -20 -48.5t-48 -19.5t-47.5 19.5t-19.5 48.5zM188 551h713q-2 160 -97.5 265.5t-258.5 105.5q-146 0 -246 -105
t-111 -266zM913 305l72 -24q-43 -133 -155 -219.5t-265 -86.5q-96 0 -180.5 35.5t-148 100t-100 162.5t-36.5 216q0 223 128 364.5t315 141.5q206 0 324 -132.5t120 -346.5q0 -17 -2 -37h-801v-12q0 -186 110 -302t271 -116q129 0 219.5 72.5t128.5 183.5z" />
    <glyph glyph-name="igrave" unicode="&#xec;" horiz-adv-x="421" 
d="M252 1094h-62l-231 276h109zM252 0h-82v971h82v-971z" />
    <glyph glyph-name="iacute" unicode="&#xed;" horiz-adv-x="421" 
d="M252 1094h-64l185 276h110zM252 0h-82v971h82v-971z" />
    <glyph glyph-name="icircumflex" unicode="&#xee;" horiz-adv-x="421" 
d="M436 1094l-215 225l-215 -225h-69l231 276h106l232 -276h-70zM252 0h-82v971h82v-971z" />
    <glyph glyph-name="idieresis" unicode="&#xef;" horiz-adv-x="421" 
d="M252 0h-82v971h82v-971zM37 1235q0 28 18.5 46.5t44.5 18.5q28 0 47 -18.5t19 -46.5q0 -26 -19 -45t-47 -19q-26 0 -44.5 19t-18.5 45zM274 1235q0 27 19 46t45 19q28 0 46.5 -18.5t18.5 -46.5q0 -27 -18.5 -45.5t-46.5 -18.5q-26 0 -45 19t-19 45z" />
    <glyph glyph-name="eth" unicode="&#xf0;" horiz-adv-x="1140" 
d="M948 1346l-211 -107q135 -135 212 -322.5t77 -402.5q0 -235 -123 -383.5t-340 -148.5q-203 0 -333 137.5t-130 345.5q0 108 37.5 199t100.5 150.5t144.5 92.5t170.5 33q252 0 362 -197q-63 274 -251 459l-275 -139l-27 57l246 123q-139 120 -309 166l27 68
q195 -52 360 -195l234 119zM563 53q175 0 277 125t102 316q0 167 -111 271.5t-268 104.5q-159 0 -269 -110.5t-110 -294.5q0 -182 107.5 -297t271.5 -115z" />
    <glyph glyph-name="ntilde" unicode="&#xf1;" horiz-adv-x="1075" 
d="M578 1176l-46 36q-31 26 -54 38t-54 12q-46 0 -70 -33.5t-24 -95.5h-68v20q0 81 45.5 129.5t114.5 48.5t141 -59l39 -33q56 -43 100 -43q46 0 70.5 34t24.5 97h67v-16q0 -85 -45.5 -135t-113.5 -50q-67 0 -127 50zM250 971v-178q34 84 119 143t204 59q165 0 255 -100
t90 -252v-643h-82v631q0 127 -74 209t-211 82q-129 0 -214 -99t-85 -231v-592h-82v971h80z" />
    <glyph glyph-name="ograve" unicode="&#xf2;" 
d="M621 1094h-62l-231 276h108zM182 485q0 -196 114 -316t277 -120t277.5 120t114.5 316t-114.5 316.5t-277.5 120.5t-277 -120.5t-114 -316.5zM98 485q0 227 137 368.5t338 141.5q96 0 183 -36.5t152 -102t103 -162t38 -209.5t-38 -209.5t-102.5 -162t-151.5 -102
t-184 -36.5q-96 0 -183 36.5t-151.5 102t-102.5 162t-38 209.5z" />
    <glyph glyph-name="oacute" unicode="&#xf3;" 
d="M182 485q0 -196 114 -316t277 -120t277.5 120t114.5 316t-114.5 316.5t-277.5 120.5t-277 -120.5t-114 -316.5zM98 485q0 227 137 368.5t338 141.5q96 0 183 -36.5t152 -102t103 -162t38 -209.5t-38 -209.5t-102.5 -162t-151.5 -102t-184 -36.5q-96 0 -183 36.5
t-151.5 102t-102.5 162t-38 209.5zM604 1094h-63l184 276h111z" />
    <glyph glyph-name="ocircumflex" unicode="&#xf4;" 
d="M799 1094l-215 225l-215 -225h-70l231 276h107l231 -276h-69zM182 485q0 -196 114 -316t277 -120t277.5 120t114.5 316t-114.5 316.5t-277.5 120.5t-277 -120.5t-114 -316.5zM98 485q0 227 137 368.5t338 141.5q96 0 183 -36.5t152 -102t103 -162t38 -209.5t-38 -209.5
t-102.5 -162t-151.5 -102t-184 -36.5q-96 0 -183 36.5t-151.5 102t-102.5 162t-38 209.5z" />
    <glyph glyph-name="otilde" unicode="&#xf5;" 
d="M596 1176l-45 36q-31 26 -54.5 38t-54.5 12q-46 0 -70 -33.5t-24 -95.5h-67v20q0 81 45 129.5t114 48.5q70 0 142 -59l39 -33q56 -43 100 -43q46 0 70 34t24 97h68v-16q0 -85 -46 -135t-114 -50q-67 0 -127 50zM182 485q0 -196 114 -316t277 -120t277.5 120t114.5 316
t-114.5 316.5t-277.5 120.5t-277 -120.5t-114 -316.5zM98 485q0 227 137 368.5t338 141.5q96 0 183 -36.5t152 -102t103 -162t38 -209.5t-38 -209.5t-102.5 -162t-151.5 -102t-184 -36.5q-96 0 -183 36.5t-151.5 102t-102.5 162t-38 209.5z" />
    <glyph glyph-name="odieresis" unicode="&#xf6;" 
d="M342 1237q0 28 20 48t48 20t47.5 -20t19.5 -48q0 -29 -19.5 -48.5t-47.5 -19.5t-48 19.5t-20 48.5zM690 1237q0 28 20 48t48 20t47.5 -20t19.5 -48q0 -29 -19.5 -48.5t-47.5 -19.5t-48 19.5t-20 48.5zM182 485q0 -196 114 -316t277 -120t277.5 120t114.5 316
t-114.5 316.5t-277.5 120.5t-277 -120.5t-114 -316.5zM98 485q0 227 137 368.5t338 141.5q96 0 183 -36.5t152 -102t103 -162t38 -209.5t-38 -209.5t-102.5 -162t-151.5 -102t-184 -36.5q-96 0 -183 36.5t-151.5 102t-102.5 162t-38 209.5z" />
    <glyph glyph-name="divide" unicode="&#xf7;" horiz-adv-x="1179" 
d="M510 223q0 32 23.5 55t54.5 23q32 0 55 -23t23 -55q0 -31 -23 -53.5t-55 -22.5q-31 0 -54.5 22.5t-23.5 53.5zM510 952q0 32 23.5 55t54.5 23q32 0 55 -23t23 -55q0 -31 -23 -54.5t-55 -23.5q-31 0 -54.5 23.5t-23.5 54.5zM147 555v70h885v-70h-885z" />
    <glyph glyph-name="oslash" unicode="&#xf8;" horiz-adv-x="1150" 
d="M100 485q0 227 137 368.5t338 141.5q161 0 289 -98l117 150l53 -43l-119 -154q136 -142 136 -365q0 -113 -38 -209.5t-102.5 -162t-151.5 -102t-184 -36.5q-156 0 -276 88l-111 -141l-53 43l111 144q-146 143 -146 376zM184 485q0 -192 111 -313l520 664q-106 86 -240 86
q-163 0 -277 -120.5t-114 -316.5zM967 485q0 180 -103 301l-518 -661q102 -76 229 -76q163 0 277.5 120t114.5 316z" />
    <glyph glyph-name="ugrave" unicode="&#xf9;" horiz-adv-x="1083" 
d="M621 1094h-62l-231 276h108zM838 172q-34 -79 -115.5 -138t-200.5 -59q-94 0 -166 32.5t-114 88t-63 122.5t-21 144v609h82v-596q0 -66 16 -122.5t49.5 -103t91 -73.5t133.5 -27q133 0 217 95t84 229v598h82v-783q0 -86 13 -188h-78q-10 90 -10 150v22z" />
    <glyph glyph-name="uacute" unicode="&#xfa;" horiz-adv-x="1083" 
d="M838 172q-34 -79 -115.5 -138t-200.5 -59q-94 0 -166 32.5t-114 88t-63 122.5t-21 144v609h82v-596q0 -66 16 -122.5t49.5 -103t91 -73.5t133.5 -27q133 0 217 95t84 229v598h82v-783q0 -86 13 -188h-78q-10 90 -10 150v22zM549 1094h-64l185 276h110z" />
    <glyph glyph-name="ucircumflex" unicode="&#xfb;" horiz-adv-x="1083" 
d="M762 1094l-215 225l-215 -225h-70l232 276h106l231 -276h-69zM838 172q-34 -79 -115.5 -138t-200.5 -59q-94 0 -166 32.5t-114 88t-63 122.5t-21 144v609h82v-596q0 -66 16 -122.5t49.5 -103t91 -73.5t133.5 -27q133 0 217 95t84 229v598h82v-783q0 -86 13 -188h-78
q-10 90 -10 150v22z" />
    <glyph glyph-name="udieresis" unicode="&#xfc;" horiz-adv-x="1083" 
d="M301 1237q0 28 20 48t48 20t47.5 -20t19.5 -48q0 -29 -19.5 -48.5t-47.5 -19.5t-48 19.5t-20 48.5zM649 1237q0 28 20 48t48 20t47.5 -20t19.5 -48q0 -29 -19.5 -48.5t-47.5 -19.5t-48 19.5t-20 48.5zM838 172q-34 -79 -115.5 -138t-200.5 -59q-94 0 -166 32.5t-114 88
t-63 122.5t-21 144v609h82v-596q0 -66 16 -122.5t49.5 -103t91 -73.5t133.5 -27q133 0 217 95t84 229v598h82v-783q0 -86 13 -188h-78q-10 90 -10 150v22z" />
    <glyph glyph-name="yacute" unicode="&#xfd;" horiz-adv-x="985" 
d="M496 1094h-64l184 276h111zM317 -389h-90l246 526l-416 834h93l368 -748l338 748h88z" />
    <glyph glyph-name="thorn" unicode="&#xfe;" horiz-adv-x="1157" 
d="M252 213v-602h-82v1866h82v-723q18 42 46.5 81t72.5 77t109 60.5t141 22.5q198 0 317 -143t119 -365q0 -145 -53.5 -261t-154.5 -183.5t-231 -67.5q-74 0 -138 22t-107.5 58.5t-72.5 75.5t-48 82zM250 487q0 -189 99 -313.5t259 -124.5q163 0 265 125t102 313
t-101.5 311.5t-265.5 123.5q-160 0 -259 -123.5t-99 -311.5z" />
    <glyph glyph-name="ydieresis" unicode="&#xff;" horiz-adv-x="985" 
d="M270 1237q0 28 20 48t48 20t48 -20t20 -48q0 -29 -20 -48.5t-48 -19.5t-48 19.5t-20 48.5zM618 1237q0 28 20 48t48 20t48 -20t20 -48q0 -29 -20 -48.5t-48 -19.5t-48 19.5t-20 48.5zM317 -389h-90l246 526l-416 834h93l368 -748l338 748h88z" />
    <glyph glyph-name="Amacron" unicode="&#x100;" horiz-adv-x="1394" 
d="M971 1640h-531v74h531v-74zM1249 0l-205 504h-694l-203 -504h-94l594 1452h101l595 -1452h-94zM696 1364l-315 -780h631z" />
    <glyph glyph-name="amacron" unicode="&#x101;" horiz-adv-x="1003" 
d="M758 1196h-496v72h496v-72zM420 49q150 0 246 98t96 240v158q-23 -34 -115 -47l-256 -39q-100 -15 -155.5 -69t-55.5 -140q0 -81 64 -141t176 -60zM412 -23q-147 0 -231.5 80.5t-84.5 188.5q0 118 75 188t216 92l256 39q119 19 119 111q0 112 -71 180t-193 68
q-127 0 -208.5 -65.5t-94.5 -182.5l-78 18q17 139 120.5 220t258.5 81q166 0 257 -91.5t91 -233.5v-498q0 -83 14 -172h-80q-12 60 -12 188q-40 -88 -134 -149.5t-220 -61.5z" />
    <glyph glyph-name="Abreve" unicode="&#x102;" horiz-adv-x="1394" 
d="M915 1798h68q-8 -104 -82 -179t-196 -75t-196.5 75t-82.5 179h68q8 -77 62.5 -131.5t148.5 -54.5t148 54.5t62 131.5zM1249 0l-205 504h-694l-203 -504h-94l594 1452h101l595 -1452h-94zM696 1364l-315 -780h631z" />
    <glyph glyph-name="abreve" unicode="&#x103;" horiz-adv-x="1003" 
d="M510 1094q-129 0 -204 83t-75 193h66q2 -84 57.5 -146.5t155.5 -62.5t155.5 62.5t57.5 146.5h65q0 -110 -74.5 -193t-203.5 -83zM420 49q150 0 246 98t96 240v158q-23 -34 -115 -47l-256 -39q-100 -15 -155.5 -69t-55.5 -140q0 -81 64 -141t176 -60zM412 -23
q-147 0 -231.5 80.5t-84.5 188.5q0 118 75 188t216 92l256 39q119 19 119 111q0 112 -71 180t-193 68q-127 0 -208.5 -65.5t-94.5 -182.5l-78 18q17 139 120.5 220t258.5 81q166 0 257 -91.5t91 -233.5v-498q0 -83 14 -172h-80q-12 60 -12 188q-40 -88 -134 -149.5
t-220 -61.5z" />
    <glyph glyph-name="Aogonek" unicode="&#x104;" horiz-adv-x="1394" 
d="M1249 0l-205 504h-694l-203 -504h-94l594 1452h101l595 -1452q-66 -36 -115.5 -96.5t-49.5 -130.5q0 -61 39.5 -95t99.5 -34q41 0 74 10v-62q-44 -14 -86 -14q-86 0 -142.5 48t-56.5 132q0 143 151 242h-8zM696 1364l-315 -780h631z" />
    <glyph glyph-name="aogonek" unicode="&#x105;" horiz-adv-x="1003" 
d="M412 -23q-147 0 -231.5 80.5t-84.5 188.5q0 118 75 188t216 92l256 39q119 19 119 111q0 112 -71 180t-193 68q-127 0 -208.5 -65.5t-94.5 -182.5l-78 18q17 139 120.5 220t258.5 81q166 0 257 -91.5t91 -233.5v-498q0 -83 14 -172q-66 -36 -116 -96.5t-50 -130.5
q0 -61 39.5 -95t99.5 -34q41 0 74 10v-62q-44 -14 -86 -14q-86 0 -142 48t-56 132q0 145 155 244q-10 68 -10 186q-40 -88 -134 -149.5t-220 -61.5zM420 49q150 0 246 98t96 240v158q-23 -34 -115 -47l-256 -39q-100 -15 -155.5 -69t-55.5 -140q0 -81 64 -141t176 -60z" />
    <glyph glyph-name="Cacute" unicode="&#x106;" horiz-adv-x="1527" 
d="M1120 1798l-268 -244h-74l226 244h116zM815 -25q-106 0 -208 31t-192 94t-157.5 151t-107 210.5t-39.5 263.5t39.5 263.5t107 211t157.5 152t192 94.5t208 31q238 0 403 -127.5t216 -335.5l-78 -29q-43 189 -188 300.5t-353 111.5q-119 0 -228.5 -44.5t-196.5 -127
t-139 -212.5t-52 -288t52 -287.5t139 -211.5t196.5 -126.5t228.5 -44.5q211 0 358.5 115.5t192.5 302.5l76 -27q-51 -209 -219.5 -340t-407.5 -131z" />
    <glyph glyph-name="cacute" unicode="&#x107;" horiz-adv-x="1067" 
d="M590 1094h-64l185 276h110zM567 922q-165 0 -275 -121.5t-110 -315.5q0 -195 109.5 -315.5t275.5 -120.5q134 0 221.5 76t122.5 184l70 -30q-38 -128 -147 -216t-267 -88q-203 0 -336 143.5t-133 366.5q0 222 133.5 366t335.5 144q159 0 265 -83t143 -218l-72 -30
q-14 50 -39.5 93.5t-65.5 82t-99.5 60.5t-131.5 22z" />
    <glyph glyph-name="Ccircumflex" unicode="&#x108;" horiz-adv-x="1527" 
d="M1051 1554l-217 195l-218 -195h-81l237 244h123l238 -244h-82zM815 -25q-106 0 -208 31t-192 94t-157.5 151t-107 210.5t-39.5 263.5t39.5 263.5t107 211t157.5 152t192 94.5t208 31q238 0 403 -127.5t216 -335.5l-78 -29q-43 189 -188 300.5t-353 111.5
q-119 0 -228.5 -44.5t-196.5 -127t-139 -212.5t-52 -288t52 -287.5t139 -211.5t196.5 -126.5t228.5 -44.5q211 0 358.5 115.5t192.5 302.5l76 -27q-51 -209 -219.5 -340t-407.5 -131z" />
    <glyph glyph-name="ccircumflex" unicode="&#x109;" horiz-adv-x="1067" 
d="M791 1094l-216 225l-215 -225h-69l231 276h107l231 -276h-69zM567 922q-165 0 -275 -121.5t-110 -315.5q0 -195 109.5 -315.5t275.5 -120.5q134 0 221.5 76t122.5 184l70 -30q-38 -128 -147 -216t-267 -88q-203 0 -336 143.5t-133 366.5q0 222 133.5 366t335.5 144
q159 0 265 -83t143 -218l-72 -30q-14 50 -39.5 93.5t-65.5 82t-99.5 60.5t-131.5 22z" />
    <glyph glyph-name="Cdotaccent" unicode="&#x10a;" horiz-adv-x="1527" 
d="M756 1677q0 32 23 55t55 23t54.5 -23t22.5 -55t-22.5 -55t-54.5 -23t-55 23t-23 55zM815 -25q-106 0 -208 31t-192 94t-157.5 151t-107 210.5t-39.5 263.5t39.5 263.5t107 211t157.5 152t192 94.5t208 31q238 0 403 -127.5t216 -335.5l-78 -29q-43 189 -188 300.5
t-353 111.5q-119 0 -228.5 -44.5t-196.5 -127t-139 -212.5t-52 -288t52 -287.5t139 -211.5t196.5 -126.5t228.5 -44.5q211 0 358.5 115.5t192.5 302.5l76 -27q-51 -209 -219.5 -340t-407.5 -131z" />
    <glyph glyph-name="cdotaccent" unicode="&#x10b;" horiz-adv-x="1067" 
d="M500 1233q0 32 23 55t55 23t54.5 -23t22.5 -55t-22.5 -55t-54.5 -23t-55 23t-23 55zM567 922q-165 0 -275 -121.5t-110 -315.5q0 -195 109.5 -315.5t275.5 -120.5q134 0 221.5 76t122.5 184l70 -30q-38 -128 -147 -216t-267 -88q-203 0 -336 143.5t-133 366.5
q0 222 133.5 366t335.5 144q159 0 265 -83t143 -218l-72 -30q-14 50 -39.5 93.5t-65.5 82t-99.5 60.5t-131.5 22z" />
    <glyph glyph-name="Ccaron" unicode="&#x10c;" horiz-adv-x="1527" 
d="M829 1604l218 194h81l-237 -244h-123l-238 244h82zM815 -25q-106 0 -208 31t-192 94t-157.5 151t-107 210.5t-39.5 263.5t39.5 263.5t107 211t157.5 152t192 94.5t208 31q238 0 403 -127.5t216 -335.5l-78 -29q-43 189 -188 300.5t-353 111.5q-119 0 -228.5 -44.5
t-196.5 -127t-139 -212.5t-52 -288t52 -287.5t139 -211.5t196.5 -126.5t228.5 -44.5q211 0 358.5 115.5t192.5 302.5l76 -27q-51 -209 -219.5 -340t-407.5 -131z" />
    <glyph glyph-name="ccaron" unicode="&#x10d;" horiz-adv-x="1067" 
d="M354 1370l211 -225l211 225h74l-232 -276h-106l-231 276h73zM567 922q-165 0 -275 -121.5t-110 -315.5q0 -195 109.5 -315.5t275.5 -120.5q134 0 221.5 76t122.5 184l70 -30q-38 -128 -147 -216t-267 -88q-203 0 -336 143.5t-133 366.5q0 222 133.5 366t335.5 144
q159 0 265 -83t143 -218l-72 -30q-14 50 -39.5 93.5t-65.5 82t-99.5 60.5t-131.5 22z" />
    <glyph glyph-name="Dcaron" unicode="&#x10e;" horiz-adv-x="1437" 
d="M717 1604l217 194h82l-238 -244h-123l-237 244h82zM631 0h-416v1452h420q111 0 213 -29.5t189 -90t151 -146.5t100.5 -204.5t36.5 -258.5q0 -173 -56.5 -312.5t-152.5 -228t-220.5 -135.5t-264.5 -47zM303 78h326q123 0 231.5 41.5t193 120t134 203t49.5 280.5t-49 282
t-132.5 205.5t-192 121.5t-230.5 42h-330v-1296z" />
    <glyph glyph-name="dcaron" unicode="&#x10f;" horiz-adv-x="1157" 
d="M1282 1477l-111 -369h-65l84 369h92zM907 166v53q-17 -43 -45 -82.5t-71.5 -77.5t-107.5 -61t-140 -23q-197 0 -320 145.5t-123 366.5t122.5 364.5t318.5 143.5q66 0 123 -16.5t94.5 -40.5t68.5 -57.5t48 -61.5t30 -59v717h82v-1289q0 -30 1 -60t2.5 -51.5t3 -38.5
t2.5 -27t1 -11h-79q-11 69 -11 166zM907 487q0 188 -99 311.5t-259 123.5q-164 0 -265.5 -122t-101.5 -313q0 -188 102 -313t265 -125q160 0 259 124.5t99 313.5z" />
    <glyph glyph-name="Dcroat" unicode="&#x110;" horiz-adv-x="1437" 
d="M631 0h-416v713h-162v73h162v666h420q111 0 213 -29.5t189 -90t151 -146.5t100.5 -204.5t36.5 -258.5q0 -173 -56.5 -312.5t-152.5 -228t-220.5 -135.5t-264.5 -47zM303 78h326q123 0 231.5 41.5t193 120t134 203t49.5 280.5t-49 282t-132.5 205.5t-192 121.5t-230.5 42
h-330v-588h315v-73h-315v-635z" />
    <glyph glyph-name="dcroat" unicode="&#x111;" horiz-adv-x="1157" 
d="M907 166v53q-17 -43 -45 -82.5t-71.5 -77.5t-107.5 -61t-140 -23q-197 0 -320 145.5t-123 366.5t122.5 364.5t318.5 143.5q66 0 123 -16.5t94.5 -40.5t68.5 -57.5t48 -61.5t30 -59v420h-270v69h270v228h82v-228h213v-69h-213v-992q0 -30 1 -60t2.5 -51.5t3 -38.5t2.5 -27
t1 -11h-79q-11 69 -11 166zM907 487q0 188 -99 311.5t-259 123.5q-164 0 -265.5 -122t-101.5 -313q0 -188 102 -313t265 -125q160 0 259 124.5t99 313.5z" />
    <glyph glyph-name="Emacron" unicode="&#x112;" horiz-adv-x="1175" 
d="M903 1640h-530v74h530v-74zM1055 0h-840v1452h840v-80h-754v-604h690v-80h-690v-608h754v-80z" />
    <glyph glyph-name="emacron" unicode="&#x113;" horiz-adv-x="1083" 
d="M815 1196h-496v72h496v-72zM188 551h713q-2 160 -97.5 265.5t-258.5 105.5q-146 0 -246 -105t-111 -266zM913 305l72 -24q-43 -133 -155 -219.5t-265 -86.5q-96 0 -180.5 35.5t-148 100t-100 162.5t-36.5 216q0 223 128 364.5t315 141.5q206 0 324 -132.5t120 -346.5
q0 -17 -2 -37h-801v-12q0 -186 110 -302t271 -116q129 0 219.5 72.5t128.5 183.5z" />
    <glyph glyph-name="Ebreve" unicode="&#x114;" horiz-adv-x="1175" 
d="M852 1798h68q-8 -104 -82.5 -179t-196.5 -75t-196.5 75t-82.5 179h68q8 -77 62.5 -131.5t148.5 -54.5t148.5 54.5t62.5 131.5zM1055 0h-840v1452h840v-80h-754v-604h690v-80h-690v-608h754v-80z" />
    <glyph glyph-name="ebreve" unicode="&#x115;" horiz-adv-x="1083" 
d="M567 1094q-129 0 -203.5 83t-74.5 193h65q2 -84 57.5 -146.5t155.5 -62.5t155.5 62.5t57.5 146.5h66q0 -110 -75 -193t-204 -83zM188 551h713q-2 160 -97.5 265.5t-258.5 105.5q-146 0 -246 -105t-111 -266zM913 305l72 -24q-43 -133 -155 -219.5t-265 -86.5
q-96 0 -180.5 35.5t-148 100t-100 162.5t-36.5 216q0 223 128 364.5t315 141.5q206 0 324 -132.5t120 -346.5q0 -17 -2 -37h-801v-12q0 -186 110 -302t271 -116q129 0 219.5 72.5t128.5 183.5z" />
    <glyph glyph-name="Edotaccent" unicode="&#x116;" horiz-adv-x="1175" 
d="M567 1677q0 32 23 55t55 23t55 -23t23 -55t-23 -55t-55 -23t-55 23t-23 55zM1055 0h-840v1452h840v-80h-754v-604h690v-80h-690v-608h754v-80z" />
    <glyph glyph-name="edotaccent" unicode="&#x117;" horiz-adv-x="1083" 
d="M492 1233q0 32 22.5 55t54.5 23t55 -23t23 -55t-23 -55t-55 -23t-54.5 23t-22.5 55zM188 551h713q-2 160 -97.5 265.5t-258.5 105.5q-146 0 -246 -105t-111 -266zM913 305l72 -24q-43 -133 -155 -219.5t-265 -86.5q-96 0 -180.5 35.5t-148 100t-100 162.5t-36.5 216
q0 223 128 364.5t315 141.5q206 0 324 -132.5t120 -346.5q0 -17 -2 -37h-801v-12q0 -186 110 -302t271 -116q129 0 219.5 72.5t128.5 183.5z" />
    <glyph glyph-name="Eogonek" unicode="&#x118;" horiz-adv-x="1175" 
d="M1055 0q-66 -36 -116 -96.5t-50 -130.5q0 -61 39.5 -95t99.5 -34q41 0 74 10v-62q-44 -14 -86 -14q-86 0 -142.5 48t-56.5 132q0 76 43 137.5t109 104.5h-754v1452h840v-80h-754v-604h690v-80h-690v-608h754v-80z" />
    <glyph glyph-name="eogonek" unicode="&#x119;" horiz-adv-x="1083" 
d="M913 305l72 -24q-19 -52 -45.5 -96.5t-51.5 -71t-56 -49.5t-50 -33t-42.5 -20t-24.5 -11q-64 -35 -115 -96t-51 -131q0 -61 39.5 -95t99.5 -34q41 0 74 10v-62q-44 -14 -86 -14q-86 0 -142.5 48t-56.5 132q0 122 121 219q-10 -2 -33 -2q-96 0 -180.5 35.5t-148 100
t-100 162.5t-36.5 216q0 223 128 364.5t315 141.5q206 0 324 -132.5t120 -346.5q0 -17 -2 -37h-801v-12q0 -186 110 -302t271 -116q129 0 219.5 72.5t128.5 183.5zM188 551h713q-2 160 -97.5 265.5t-258.5 105.5q-146 0 -246 -105t-111 -266z" />
    <glyph glyph-name="Ecaron" unicode="&#x11a;" horiz-adv-x="1175" 
d="M651 1604l217 194h82l-237 -244h-123l-238 244h82zM1055 0h-840v1452h840v-80h-754v-604h690v-80h-690v-608h754v-80z" />
    <glyph glyph-name="ecaron" unicode="&#x11b;" horiz-adv-x="1083" 
d="M356 1370l211 -225l211 225h74l-231 -276h-107l-231 276h73zM188 551h713q-2 160 -97.5 265.5t-258.5 105.5q-146 0 -246 -105t-111 -266zM913 305l72 -24q-43 -133 -155 -219.5t-265 -86.5q-96 0 -180.5 35.5t-148 100t-100 162.5t-36.5 216q0 223 128 364.5t315 141.5
q206 0 324 -132.5t120 -346.5q0 -17 -2 -37h-801v-12q0 -186 110 -302t271 -116q129 0 219.5 72.5t128.5 183.5z" />
    <glyph glyph-name="Gcircumflex" unicode="&#x11c;" horiz-adv-x="1564" 
d="M1036 1554l-217 195l-217 -195h-82l238 244h123l237 -244h-82zM1423 0h-67l-10 326q-16 -44 -42.5 -87.5t-74.5 -92.5t-107.5 -85.5t-147.5 -61t-190 -24.5q-99 0 -195.5 30.5t-183 94t-152 151t-104 211t-38.5 265.5q0 141 38 263.5t104.5 210.5t154.5 151t189 94
t208 31q226 0 392 -119t230 -316l-77 -32q-58 178 -202 282.5t-343 104.5q-118 0 -226 -44.5t-192.5 -126.5t-135 -211.5t-50.5 -287.5t51.5 -288.5t135.5 -212.5t187 -126.5t211 -44.5q119 0 216 35.5t157.5 91t102.5 127.5t59 140.5t18 134.5h-557v80h641v-664z" />
    <glyph glyph-name="gcircumflex" unicode="&#x11d;" horiz-adv-x="1126" 
d="M772 1094l-215 225l-215 -225h-70l232 276h106l232 -276h-70zM881 526q0 169 -95 282.5t-247 113.5q-156 0 -254.5 -112.5t-98.5 -283.5t98 -283t255 -112q153 0 247.5 113t94.5 282zM874 70v202q-35 -90 -122.5 -152.5t-223.5 -62.5q-187 0 -306.5 133.5t-119.5 335.5
t119.5 335.5t306.5 133.5q139 0 227 -64t122 -155v195h79v-899q0 -72 -9 -134t-37.5 -129t-74 -114.5t-125 -78t-184.5 -30.5q-171 0 -286 103.5t-134 259.5l80 20q14 -133 106.5 -221t233.5 -88q85 0 149 24.5t101 63t60 94.5t30.5 109.5t7.5 118.5z" />
    <glyph glyph-name="Gbreve" unicode="&#x11e;" horiz-adv-x="1564" 
d="M1014 1798h67q-8 -104 -82 -179t-196 -75t-196.5 75t-82.5 179h68q8 -77 62.5 -131.5t148.5 -54.5t148.5 54.5t62.5 131.5zM1423 0h-67l-10 326q-16 -44 -42.5 -87.5t-74.5 -92.5t-107.5 -85.5t-147.5 -61t-190 -24.5q-99 0 -195.5 30.5t-183 94t-152 151t-104 211
t-38.5 265.5q0 141 38 263.5t104.5 210.5t154.5 151t189 94t208 31q226 0 392 -119t230 -316l-77 -32q-58 178 -202 282.5t-343 104.5q-118 0 -226 -44.5t-192.5 -126.5t-135 -211.5t-50.5 -287.5t51.5 -288.5t135.5 -212.5t187 -126.5t211 -44.5q119 0 216 35.5t157.5 91
t102.5 127.5t59 140.5t18 134.5h-557v80h641v-664z" />
    <glyph glyph-name="gbreve" unicode="&#x11f;" horiz-adv-x="1126" 
d="M549 1094q-129 0 -204 83t-75 193h66q2 -84 57.5 -146.5t155.5 -62.5t155.5 62.5t57.5 146.5h65q0 -110 -74.5 -193t-203.5 -83zM881 526q0 169 -95 282.5t-247 113.5q-156 0 -254.5 -112.5t-98.5 -283.5t98 -283t255 -112q153 0 247.5 113t94.5 282zM874 70v202
q-35 -90 -122.5 -152.5t-223.5 -62.5q-187 0 -306.5 133.5t-119.5 335.5t119.5 335.5t306.5 133.5q139 0 227 -64t122 -155v195h79v-899q0 -72 -9 -134t-37.5 -129t-74 -114.5t-125 -78t-184.5 -30.5q-171 0 -286 103.5t-134 259.5l80 20q14 -133 106.5 -221t233.5 -88
q85 0 149 24.5t101 63t60 94.5t30.5 109.5t7.5 118.5z" />
    <glyph glyph-name="Gdotaccent" unicode="&#x120;" horiz-adv-x="1564" 
d="M741 1677q0 32 23 55t55 23t55 -23t23 -55t-23 -55t-55 -23t-55 23t-23 55zM1423 0h-67l-10 326q-16 -44 -42.5 -87.5t-74.5 -92.5t-107.5 -85.5t-147.5 -61t-190 -24.5q-99 0 -195.5 30.5t-183 94t-152 151t-104 211t-38.5 265.5q0 141 38 263.5t104.5 210.5t154.5 151
t189 94t208 31q226 0 392 -119t230 -316l-77 -32q-58 178 -202 282.5t-343 104.5q-118 0 -226 -44.5t-192.5 -126.5t-135 -211.5t-50.5 -287.5t51.5 -288.5t135.5 -212.5t187 -126.5t211 -44.5q119 0 216 35.5t157.5 91t102.5 127.5t59 140.5t18 134.5h-557v80h641v-664z
" />
    <glyph glyph-name="gdotaccent" unicode="&#x121;" horiz-adv-x="1126" 
d="M475 1233q0 32 23 55t55 23t55 -23t23 -55t-23 -55t-55 -23t-55 23t-23 55zM881 526q0 169 -95 282.5t-247 113.5q-156 0 -254.5 -112.5t-98.5 -283.5t98 -283t255 -112q153 0 247.5 113t94.5 282zM874 70v202q-35 -90 -122.5 -152.5t-223.5 -62.5q-187 0 -306.5 133.5
t-119.5 335.5t119.5 335.5t306.5 133.5q139 0 227 -64t122 -155v195h79v-899q0 -72 -9 -134t-37.5 -129t-74 -114.5t-125 -78t-184.5 -30.5q-171 0 -286 103.5t-134 259.5l80 20q14 -133 106.5 -221t233.5 -88q85 0 149 24.5t101 63t60 94.5t30.5 109.5t7.5 118.5z" />
    <glyph glyph-name="Gcommaaccent" unicode="&#x122;" horiz-adv-x="1564" 
d="M758 -168q0 33 22.5 53.5t55.5 20.5q34 0 60 -27.5t26 -77.5q0 -93 -52.5 -150t-130.5 -65v52q52 8 88 44t37 87q-13 -13 -35 -13q-32 0 -51.5 21.5t-19.5 54.5zM1423 0h-67l-10 326q-16 -44 -42.5 -87.5t-74.5 -92.5t-107.5 -85.5t-147.5 -61t-190 -24.5
q-99 0 -195.5 30.5t-183 94t-152 151t-104 211t-38.5 265.5q0 141 38 263.5t104.5 210.5t154.5 151t189 94t208 31q226 0 392 -119t230 -316l-77 -32q-58 178 -202 282.5t-343 104.5q-118 0 -226 -44.5t-192.5 -126.5t-135 -211.5t-50.5 -287.5t51.5 -288.5t135.5 -212.5
t187 -126.5t211 -44.5q119 0 216 35.5t157.5 91t102.5 127.5t59 140.5t18 134.5h-557v80h641v-664z" />
    <glyph glyph-name="gcommaaccent" unicode="&#x123;" horiz-adv-x="1126" 
d="M631 1157q0 -33 -22.5 -53.5t-55.5 -20.5q-34 0 -60 27.5t-26 77.5q0 93 52 150t130 65v-51q-52 -8 -88 -44t-37 -87q12 12 35 12q32 0 52 -21.5t20 -54.5zM881 526q0 169 -95 282.5t-247 113.5q-156 0 -254.5 -112.5t-98.5 -283.5t98 -283t255 -112q153 0 247.5 113
t94.5 282zM874 70v202q-35 -90 -122.5 -152.5t-223.5 -62.5q-187 0 -306.5 133.5t-119.5 335.5t119.5 335.5t306.5 133.5q139 0 227 -64t122 -155v195h79v-899q0 -72 -9 -134t-37.5 -129t-74 -114.5t-125 -78t-184.5 -30.5q-171 0 -286 103.5t-134 259.5l80 20
q14 -133 106.5 -221t233.5 -88q85 0 149 24.5t101 63t60 94.5t30.5 109.5t7.5 118.5z" />
    <glyph glyph-name="Hcircumflex" unicode="&#x124;" horiz-adv-x="1488" 
d="M965 1554l-217 195l-218 -195h-81l237 244h123l238 -244h-82zM1274 0h-88v698h-883v-698h-88v1452h88v-674h883v674h88v-1452z" />
    <glyph glyph-name="hcircumflex" unicode="&#x125;" horiz-adv-x="1075" 
d="M762 1554l-217 195l-217 -195h-82l237 244h123l238 -244h-82zM252 592v-592h-82v1477h82v-682q35 82 118 141t203 59q165 0 255 -100t90 -252v-643h-82v631q0 127 -74 209t-211 82q-129 0 -214 -99t-85 -231z" />
    <glyph glyph-name="Hbar" unicode="&#x126;" horiz-adv-x="1488" 
d="M80 1092v67h135v293h88v-293h883v293h88v-293h151v-67h-151v-1092h-88v698h-883v-698h-88v1092h-135zM303 778h883v314h-883v-314z" />
    <glyph glyph-name="hbar" unicode="&#x127;" horiz-adv-x="1075" 
d="M252 592v-592h-82v1184h-203v71h203v222h82v-222h278v-71h-278v-389q35 82 118 141t203 59q165 0 255 -100t90 -252v-643h-82v631q0 127 -74 209t-211 82q-129 0 -214 -99t-85 -231z" />
    <glyph glyph-name="Itilde" unicode="&#x128;" horiz-adv-x="518" 
d="M573 1774v-17q0 -85 -46 -135.5t-113 -50.5q-72 0 -133 51l-45 37q-34 27 -57 38t-56 11q-45 0 -69.5 -34t-24.5 -95h-66v20q0 82 45.5 131.5t114.5 49.5t143 -60l43 -34q57 -44 103 -44q43 0 69.5 35t26.5 97h65zM303 0h-88v1452h88v-1452z" />
    <glyph glyph-name="itilde" unicode="&#x129;" horiz-adv-x="421" 
d="M236 1176l-46 36q-31 26 -54 38t-54 12q-46 0 -70 -33.5t-24 -95.5h-68v20q0 81 45.5 129.5t114.5 48.5t141 -59l39 -33q56 -43 100 -43q46 0 70.5 34t24.5 97h67v-16q0 -85 -46 -135t-114 -50q-66 0 -126 50zM252 0h-82v971h82v-971z" />
    <glyph glyph-name="Imacron" unicode="&#x12a;" horiz-adv-x="518" 
d="M535 1640h-531v74h531v-74zM303 0h-88v1452h88v-1452z" />
    <glyph glyph-name="imacron" unicode="&#x12b;" horiz-adv-x="421" 
d="M469 1196h-496v72h496v-72zM252 0h-82v971h82v-971z" />
    <glyph glyph-name="Ibreve" unicode="&#x12c;" horiz-adv-x="518" 
d="M479 1798h68q-8 -104 -82.5 -179t-196.5 -75t-196 75t-82 179h67q8 -77 62.5 -131.5t148.5 -54.5t148.5 54.5t62.5 131.5zM303 0h-88v1452h88v-1452z" />
    <glyph glyph-name="ibreve" unicode="&#x12d;" horiz-adv-x="421" 
d="M221 1094q-129 0 -203.5 83t-74.5 193h65q2 -84 57.5 -146.5t155.5 -62.5t155.5 62.5t57.5 146.5h66q0 -110 -75 -193t-204 -83zM252 0h-82v971h82v-971z" />
    <glyph glyph-name="Iogonek" unicode="&#x12e;" horiz-adv-x="518" 
d="M303 0q-66 -36 -116 -96.5t-50 -130.5q0 -61 39.5 -95t99.5 -34q41 0 74 10v-62q-44 -14 -86 -14q-86 0 -142 48t-56 132q0 143 151 242h-2v1452h88v-1452z" />
    <glyph glyph-name="iogonek" unicode="&#x12f;" horiz-adv-x="421" 
d="M252 0q-66 -36 -116 -96.5t-50 -130.5q0 -61 39.5 -95t99.5 -34q41 0 74 10v-62q-44 -14 -86 -14q-86 0 -142.5 48t-56.5 132q0 77 44 139t112 105v969h82v-971zM131 1395q0 34 23 58t57 24q32 0 56 -24t24 -58q0 -32 -24 -55t-56 -23q-34 0 -57 23t-23 55z" />
    <glyph glyph-name="Idotaccent" unicode="&#x130;" horiz-adv-x="518" 
d="M188 1677q0 32 23 55t55 23t55 -23t23 -55t-23 -55t-55 -23t-55 23t-23 55zM303 0h-88v1452h88v-1452z" />
    <glyph glyph-name="dotlessi" unicode="&#x131;" horiz-adv-x="421" 
d="M252 0h-82v971h82v-971z" />
    <glyph glyph-name="IJ" unicode="&#x132;" horiz-adv-x="1206" 
d="M285 614h-88v838h88v-838zM197 442l88 17v-27q0 -178 83 -277.5t236 -99.5t234.5 100t81.5 273v1024h88v-1028q0 -201 -107 -325t-297 -124t-298.5 119.5t-108.5 327.5v20z" />
    <glyph glyph-name="ij" unicode="&#x133;" horiz-adv-x="843" 
d="M252 0h-82v971h82v-971zM131 1395q0 34 23 58t57 24q32 0 56 -24t24 -58q0 -32 -24 -55t-56 -23q-34 0 -57 23t-23 55zM592 -139v1110h82v-1112q0 -130 -68 -199.5t-182 -69.5q-64 0 -105 21v72q49 -19 99 -19q87 0 130.5 47.5t43.5 149.5zM553 1395q0 34 23 58t57 24
q32 0 56 -24t24 -58q0 -32 -24 -55t-56 -23q-34 0 -57 23t-23 55z" />
    <glyph glyph-name="Jcircumflex" unicode="&#x134;" horiz-adv-x="1083" 
d="M1073 1554l-217 195l-217 -195h-82l238 244h123l237 -244h-82zM74 422v92l88 21v-103q0 -174 83.5 -275.5t235.5 -101.5q153 0 234.5 100t81.5 273v1024h88v-1028q0 -204 -107 -326.5t-297 -122.5t-298.5 119.5t-108.5 327.5z" />
    <glyph glyph-name="jcircumflex" unicode="&#x135;" horiz-adv-x="421" 
d="M430 1094l-215 225l-215 -225h-70l232 276h106l232 -276h-70zM170 -131v1102h82v-1104q0 -133 -65 -207t-179 -74q-72 0 -110 19v67l14 -3q13 -3 35 -6t43 -3q180 0 180 209z" />
    <glyph glyph-name="Kcommaaccent" unicode="&#x136;" horiz-adv-x="1269" 
d="M643 -168q0 33 22.5 53.5t55.5 20.5q34 0 60 -27.5t26 -77.5q0 -93 -52 -150t-130 -65v52q52 8 88 44t37 87q-13 -13 -35 -13q-32 0 -52 21.5t-20 54.5zM1223 1452l-590 -641l616 -811h-110l-564 750l-272 -295v-455h-88v1452h88v-881l805 881h115z" />
    <glyph glyph-name="kcommaaccent" unicode="&#x137;" horiz-adv-x="976" 
d="M926 971l-416 -414l426 -557h-102l-379 502l-203 -203v-299h-82v1477h82v-1069l561 563h113zM467 -168q0 33 22.5 53.5t55.5 20.5q34 0 60 -27.5t26 -77.5q0 -93 -52 -150t-130 -65v52q52 8 87.5 44t36.5 87q-13 -13 -34 -13q-32 0 -52 21.5t-20 54.5z" />
    <glyph glyph-name="kgreenlandic" unicode="&#x138;" horiz-adv-x="976" 
d="M926 971l-416 -414l426 -557h-102l-379 502l-203 -203v-299h-82v971h82v-563l561 563h113z" />
    <glyph glyph-name="Lacute" unicode="&#x139;" horiz-adv-x="1112" 
d="M575 1798l-268 -244h-74l226 244h116zM1063 0h-848v1452h88v-1372h760v-80z" />
    <glyph glyph-name="lacute" unicode="&#x13a;" horiz-adv-x="421" 
d="M252 0h-82v1477h82v-1477zM526 1798l-268 -244h-74l226 244h116z" />
    <glyph glyph-name="Lcommaaccent" unicode="&#x13b;" horiz-adv-x="1112" 
d="M571 -168q0 33 22.5 53.5t55.5 20.5q34 0 60 -27.5t26 -77.5q0 -93 -52 -150t-130 -65v52q52 8 88 44t37 87q-13 -13 -35 -13q-32 0 -52 21.5t-20 54.5zM1063 0h-848v1452h88v-1372h760v-80z" />
    <glyph glyph-name="lcommaaccent" unicode="&#x13c;" horiz-adv-x="421" 
d="M137 -168q0 33 22.5 53.5t55.5 20.5q34 0 60 -27.5t26 -77.5q0 -93 -52 -150t-130 -65v52q52 8 88 44t37 87q-13 -13 -35 -13q-32 0 -52 21.5t-20 54.5zM252 0h-82v1477h82v-1477z" />
    <glyph glyph-name="Lcaron" unicode="&#x13d;" horiz-adv-x="1112" 
d="M756 1554l-119 -374h-64l86 374h97zM1063 0h-848v1452h88v-1372h760v-80z" />
    <glyph glyph-name="lcaron" unicode="&#x13e;" horiz-adv-x="421" 
d="M545 1475l-111 -369h-65l84 369h92zM252 0h-82v1477h82v-1477z" />
    <glyph glyph-name="Ldot" unicode="&#x13f;" horiz-adv-x="1112" 
d="M627 764q0 32 23 55t55 23t54.5 -23t22.5 -55t-22.5 -55t-54.5 -23t-55 23t-23 55zM1063 0h-848v1452h88v-1372h760v-80z" />
    <glyph glyph-name="ldot" unicode="&#x140;" horiz-adv-x="485" 
d="M367 637q0 32 22.5 55t54.5 23t55 -23t23 -55t-23 -55t-55 -23t-54.5 23t-22.5 55zM252 0h-82v1477h82v-1477z" />
    <glyph glyph-name="Lslash" unicode="&#x141;" horiz-adv-x="1128" 
d="M1079 0h-848v635l-206 -90v78l206 90v739h88v-700l340 151v-78l-340 -151v-594h760v-80z" />
    <glyph glyph-name="lslash" unicode="&#x142;" horiz-adv-x="598" 
d="M319 0h-81v629l-203 -88v77l203 89v770h81v-734l232 103v-78l-232 -102v-666z" />
    <glyph glyph-name="Nacute" unicode="&#x143;" horiz-adv-x="1540" 
d="M1020 1798l-268 -244h-74l225 244h117zM1325 0h-98l-924 1339v-1339h-88v1452h117l905 -1317v1317h88v-1452z" />
    <glyph glyph-name="nacute" unicode="&#x144;" horiz-adv-x="1075" 
d="M559 1094h-63l184 276h111zM250 971v-178q34 84 119 143t204 59q165 0 255 -100t90 -252v-643h-82v631q0 127 -74 209t-211 82q-129 0 -214 -99t-85 -231v-592h-82v971h80z" />
    <glyph glyph-name="Ncommaaccent" unicode="&#x145;" horiz-adv-x="1540" 
d="M719 -168q0 33 22.5 53.5t55.5 20.5q34 0 60 -27.5t26 -77.5q0 -93 -52.5 -150t-130.5 -65v52q52 8 88 44t37 87q-13 -13 -34 -13q-32 0 -52 21.5t-20 54.5zM1325 0h-98l-924 1339v-1339h-88v1452h117l905 -1317v1317h88v-1452z" />
    <glyph glyph-name="ncommaaccent" unicode="&#x146;" horiz-adv-x="1075" 
d="M485 -168q0 33 22.5 53.5t55.5 20.5q34 0 60 -27.5t26 -77.5q0 -93 -52 -150t-130 -65v52q52 8 88 44t37 87q-13 -13 -35 -13q-32 0 -52 21.5t-20 54.5zM250 971v-178q34 84 119 143t204 59q165 0 255 -100t90 -252v-643h-82v631q0 127 -74 209t-211 82q-129 0 -214 -99
t-85 -231v-592h-82v971h80z" />
    <glyph glyph-name="Ncaron" unicode="&#x147;" horiz-adv-x="1540" 
d="M780 1604l217 194h82l-237 -244h-123l-238 244h82zM1325 0h-98l-924 1339v-1339h-88v1452h117l905 -1317v1317h88v-1452z" />
    <glyph glyph-name="ncaron" unicode="&#x148;" horiz-adv-x="1075" 
d="M336 1370l211 -225l211 225h73l-231 -276h-106l-232 276h74zM250 971v-178q34 84 119 143t204 59q165 0 255 -100t90 -252v-643h-82v631q0 127 -74 209t-211 82q-129 0 -214 -99t-85 -231v-592h-82v971h80z" />
    <glyph glyph-name="napostrophe" unicode="&#x149;" horiz-adv-x="1075" 
d="M201 1319q0 33 22.5 53.5t55.5 20.5q34 0 60 -27.5t26 -77.5q0 -93 -52.5 -150t-130.5 -65v51q52 8 88 44t37 87q-12 -12 -35 -12q-32 0 -51.5 21.5t-19.5 54.5zM250 971v-178q34 84 119 143t204 59q165 0 255 -100t90 -252v-643h-82v631q0 127 -74 209t-211 82
q-129 0 -214 -99t-85 -231v-592h-82v971h80z" />
    <glyph glyph-name="Eng" unicode="&#x14a;" horiz-adv-x="1540" 
d="M1100 -334q69 0 104 41.5t35 112.5v162l-936 1357v-1339h-88v1452h117l905 -1317v1317h88v-1634q0 -101 -56 -163.5t-151 -62.5q-66 0 -114 19v70q47 -15 96 -15z" />
    <glyph glyph-name="eng" unicode="&#x14b;" horiz-adv-x="1075" 
d="M250 971v-178q34 84 119 143t204 59q165 0 255 -100t90 -252v-831q0 -102 -54.5 -164t-150.5 -62q-64 0 -115 19v69q47 -14 96 -14q70 0 106 42t36 114v815q0 127 -74 209t-211 82q-129 0 -214 -99t-85 -231v-592h-82v971h80z" />
    <glyph glyph-name="Omacron" unicode="&#x14c;" horiz-adv-x="1630" 
d="M1090 1640h-531v74h531v-74zM199 725q0 -158 52 -287.5t139 -211.5t196.5 -126.5t228.5 -44.5q95 0 184.5 27.5t168 83.5t137.5 134.5t93 188t34 236.5q0 158 -52 288t-139.5 212.5t-197 127t-228.5 44.5t-228.5 -44.5t-196.5 -127t-139 -212.5t-52 -288zM111 725
q0 141 39.5 263.5t107 211t157.5 152t192 94.5t208 31t208 -31t192 -94.5t158 -151.5t107.5 -211t39.5 -264q0 -176 -60.5 -321t-160.5 -237t-225 -142t-259 -50q-106 0 -208 31t-192 94t-157.5 151t-107 210.5t-39.5 263.5z" />
    <glyph glyph-name="omacron" unicode="&#x14d;" 
d="M834 1196h-496v72h496v-72zM182 485q0 -196 114 -316t277 -120t277.5 120t114.5 316t-114.5 316.5t-277.5 120.5t-277 -120.5t-114 -316.5zM98 485q0 227 137 368.5t338 141.5q96 0 183 -36.5t152 -102t103 -162t38 -209.5t-38 -209.5t-102.5 -162t-151.5 -102
t-184 -36.5q-96 0 -183 36.5t-151.5 102t-102.5 162t-38 209.5z" />
    <glyph glyph-name="Obreve" unicode="&#x14e;" horiz-adv-x="1630" 
d="M1034 1798h68q-8 -104 -82.5 -179t-196.5 -75t-196 75t-82 179h67q8 -77 62.5 -131.5t148.5 -54.5t148.5 54.5t62.5 131.5zM199 725q0 -158 52 -287.5t139 -211.5t196.5 -126.5t228.5 -44.5q95 0 184.5 27.5t168 83.5t137.5 134.5t93 188t34 236.5q0 158 -52 288
t-139.5 212.5t-197 127t-228.5 44.5t-228.5 -44.5t-196.5 -127t-139 -212.5t-52 -288zM111 725q0 141 39.5 263.5t107 211t157.5 152t192 94.5t208 31t208 -31t192 -94.5t158 -151.5t107.5 -211t39.5 -264q0 -176 -60.5 -321t-160.5 -237t-225 -142t-259 -50q-106 0 -208 31
t-192 94t-157.5 151t-107 210.5t-39.5 263.5z" />
    <glyph glyph-name="obreve" unicode="&#x14f;" 
d="M580 1094q-129 0 -204 83t-75 193h66q2 -84 57.5 -146.5t155.5 -62.5t155.5 62.5t57.5 146.5h65q0 -110 -74.5 -193t-203.5 -83zM182 485q0 -196 114 -316t277 -120t277.5 120t114.5 316t-114.5 316.5t-277.5 120.5t-277 -120.5t-114 -316.5zM98 485q0 227 137 368.5
t338 141.5q96 0 183 -36.5t152 -102t103 -162t38 -209.5t-38 -209.5t-102.5 -162t-151.5 -102t-184 -36.5q-96 0 -183 36.5t-151.5 102t-102.5 162t-38 209.5z" />
    <glyph glyph-name="Ohungarumlaut" unicode="&#x150;" horiz-adv-x="1630" 
d="M907 1798l-172 -244h-59l137 244h94zM1149 1798l-209 -244h-61l176 244h94zM199 725q0 -158 52 -287.5t139 -211.5t196.5 -126.5t228.5 -44.5q95 0 184.5 27.5t168 83.5t137.5 134.5t93 188t34 236.5q0 158 -52 288t-139.5 212.5t-197 127t-228.5 44.5t-228.5 -44.5
t-196.5 -127t-139 -212.5t-52 -288zM111 725q0 141 39.5 263.5t107 211t157.5 152t192 94.5t208 31t208 -31t192 -94.5t158 -151.5t107.5 -211t39.5 -264q0 -176 -60.5 -321t-160.5 -237t-225 -142t-259 -50q-106 0 -208 31t-192 94t-157.5 151t-107 210.5t-39.5 263.5z" />
    <glyph glyph-name="ohungarumlaut" unicode="&#x151;" 
d="M688 1370l-172 -276h-63l143 276h92zM903 1370l-198 -276h-64l170 276h92zM182 485q0 -196 114 -316t277 -120t277.5 120t114.5 316t-114.5 316.5t-277.5 120.5t-277 -120.5t-114 -316.5zM98 485q0 227 137 368.5t338 141.5q96 0 183 -36.5t152 -102t103 -162t38 -209.5
t-38 -209.5t-102.5 -162t-151.5 -102t-184 -36.5q-96 0 -183 36.5t-151.5 102t-102.5 162t-38 209.5z" />
    <glyph glyph-name="OE" unicode="&#x152;" horiz-adv-x="2392" 
d="M2271 0h-839v356q-89 -186 -256.5 -283.5t-360.5 -97.5q-106 0 -208 31t-192 94t-157.5 151t-107 210.5t-39.5 263.5t39.5 263.5t107 211t157.5 152t192 94.5t208 31q124 0 240.5 -42.5t216.5 -130t160 -210.5v358h839v-80h-753v-604h690v-80h-690v-608h753v-80zM199 725
q0 -158 52 -287.5t139 -211.5t196.5 -126.5t228.5 -44.5q95 0 184.5 27.5t168 83.5t137.5 134.5t93 188t34 236.5q0 158 -52 288t-139.5 212.5t-197 127t-228.5 44.5t-228.5 -44.5t-196.5 -127t-139 -212.5t-52 -288z" />
    <glyph glyph-name="oe" unicode="&#x153;" horiz-adv-x="1947" 
d="M98 485q0 227 137 368.5t338 141.5q143 0 260 -78.5t173 -216.5q51 138 158.5 216.5t242.5 78.5q206 0 324 -132.5t120 -346.5q0 -17 -2 -37h-800v-12q0 -186 110 -302t271 -116q129 0 219.5 72.5t128.5 183.5l71 -24q-43 -133 -154.5 -219.5t-264.5 -86.5
q-144 0 -258.5 78t-165.5 221q-55 -142 -171.5 -220.5t-261.5 -78.5q-96 0 -183 36.5t-151.5 102t-102.5 162t-38 209.5zM182 485q0 -196 114 -316t277 -120t277.5 120t114.5 316t-114.5 316.5t-277.5 120.5t-277 -120.5t-114 -316.5zM1053 551h712q-2 160 -97.5 265.5
t-258.5 105.5q-145 0 -245 -105t-111 -266z" />
    <glyph glyph-name="Racute" unicode="&#x154;" horiz-adv-x="1216" 
d="M881 1798l-269 -244h-73l225 244h117zM1104 1049q0 -158 -103 -267.5t-270 -128.5l363 -653h-103l-354 647h-334v-647h-88v1452h463q187 0 306.5 -115t119.5 -288zM303 727h354q159 0 259 89t100 233q0 145 -100 234t-259 89h-354v-645z" />
    <glyph glyph-name="racute" unicode="&#x155;" horiz-adv-x="661" 
d="M250 971v-187q40 94 119 145.5t186 51.5q54 0 84 -10v-86q-36 12 -88 12q-131 0 -215 -90.5t-84 -255.5v-551h-82v971h80zM389 1094h-63l184 276h111z" />
    <glyph glyph-name="Rcommaaccent" unicode="&#x156;" horiz-adv-x="1216" 
d="M590 -168q0 33 22.5 53.5t55.5 20.5q34 0 60 -27.5t26 -77.5q0 -93 -52.5 -150t-130.5 -65v52q52 8 88 44t37 87q-13 -13 -34 -13q-32 0 -52 21.5t-20 54.5zM1104 1049q0 -158 -103 -267.5t-270 -128.5l363 -653h-103l-354 647h-334v-647h-88v1452h463q187 0 306.5 -115
t119.5 -288zM303 727h354q159 0 259 89t100 233q0 145 -100 234t-259 89h-354v-645z" />
    <glyph glyph-name="rcommaaccent" unicode="&#x157;" horiz-adv-x="661" 
d="M137 -168q0 33 22.5 53.5t55.5 20.5q34 0 60 -27.5t26 -77.5q0 -93 -52 -150t-130 -65v52q52 8 88 44t37 87q-13 -13 -35 -13q-32 0 -52 21.5t-20 54.5zM250 971v-187q40 94 119 145.5t186 51.5q54 0 84 -10v-86q-36 12 -88 12q-131 0 -215 -90.5t-84 -255.5v-551h-82
v971h80z" />
    <glyph glyph-name="Rcaron" unicode="&#x158;" horiz-adv-x="1216" 
d="M608 1604l217 194h82l-237 -244h-123l-238 244h82zM1104 1049q0 -158 -103 -267.5t-270 -128.5l363 -653h-103l-354 647h-334v-647h-88v1452h463q187 0 306.5 -115t119.5 -288zM303 727h354q159 0 259 89t100 233q0 145 -100 234t-259 89h-354v-645z" />
    <glyph glyph-name="rcaron" unicode="&#x159;" horiz-adv-x="661" 
d="M188 1370l211 -225l211 225h74l-231 -276h-107l-231 276h73zM250 971v-187q40 94 119 145.5t186 51.5q54 0 84 -10v-86q-36 12 -88 12q-131 0 -215 -90.5t-84 -255.5v-551h-82v971h80z" />
    <glyph glyph-name="Sacute" unicode="&#x15a;" horiz-adv-x="1179" 
d="M895 1798l-268 -244h-74l225 244h117zM1053 1122l-78 -26q-31 138 -127.5 220t-255.5 83q-142 0 -251.5 -86t-109.5 -221q0 -110 63 -182.5t181 -100.5l246 -59q165 -40 256.5 -134t91.5 -245q0 -170 -132 -283t-337 -113q-107 0 -199.5 35.5t-156 95.5t-103.5 137.5
t-49 164.5l80 26q16 -160 133 -270.5t295 -110.5q175 0 279 88.5t104 223.5q0 116 -71 192t-205 109l-248 59q-144 34 -229 124.5t-85 235.5q0 110 62 201t163.5 141t219.5 50q194 0 309.5 -97.5t153.5 -257.5z" />
    <glyph glyph-name="sacute" unicode="&#x15b;" horiz-adv-x="880" 
d="M84 262l76 27q18 -110 93.5 -176t199.5 -66q106 0 177.5 55.5t71.5 145.5q0 145 -188 190l-162 37q-106 25 -167.5 86.5t-61.5 163.5q0 112 93.5 191t223.5 79q142 0 224 -72.5t108 -185.5l-74 -26q-20 97 -83.5 155t-174.5 58q-95 0 -166 -54.5t-71 -142.5
q0 -137 174 -176l162 -37q243 -56 243 -260q0 -117 -91 -198t-240 -81q-158 0 -253 82t-114 205zM467 1094h-64l185 276h110z" />
    <glyph glyph-name="Scircumflex" unicode="&#x15c;" horiz-adv-x="1179" 
d="M840 1554l-217 195l-217 -195h-82l237 244h123l238 -244h-82zM1053 1122l-78 -26q-31 138 -127.5 220t-255.5 83q-142 0 -251.5 -86t-109.5 -221q0 -110 63 -182.5t181 -100.5l246 -59q165 -40 256.5 -134t91.5 -245q0 -170 -132 -283t-337 -113q-107 0 -199.5 35.5
t-156 95.5t-103.5 137.5t-49 164.5l80 26q16 -160 133 -270.5t295 -110.5q175 0 279 88.5t104 223.5q0 116 -71 192t-205 109l-248 59q-144 34 -229 124.5t-85 235.5q0 110 62 201t163.5 141t219.5 50q194 0 309.5 -97.5t153.5 -257.5z" />
    <glyph glyph-name="scircumflex" unicode="&#x15d;" horiz-adv-x="880" 
d="M682 1094l-215 225l-215 -225h-70l232 276h106l232 -276h-70zM84 262l76 27q18 -110 93.5 -176t199.5 -66q106 0 177.5 55.5t71.5 145.5q0 145 -188 190l-162 37q-106 25 -167.5 86.5t-61.5 163.5q0 112 93.5 191t223.5 79q142 0 224 -72.5t108 -185.5l-74 -26
q-20 97 -83.5 155t-174.5 58q-95 0 -166 -54.5t-71 -142.5q0 -137 174 -176l162 -37q243 -56 243 -260q0 -117 -91 -198t-240 -81q-158 0 -253 82t-114 205z" />
    <glyph glyph-name="Scedilla" unicode="&#x15e;" horiz-adv-x="1179" 
d="M1053 1122l-78 -26q-31 138 -127.5 220t-255.5 83q-142 0 -251.5 -86t-109.5 -221q0 -110 63 -182.5t181 -100.5l246 -59q165 -40 256.5 -134t91.5 -245q0 -157 -114 -266.5t-296 -124.5l-71 -109q25 14 69 14q83 0 133 -40t50 -107q0 -72 -56.5 -116t-156.5 -44
q-67 0 -126 28.5t-91 71.5l43 50q68 -88 174 -88q68 0 105.5 26.5t37.5 71.5t-34 70.5t-99 25.5q-43 0 -84 -20l-37 45l76 116q-140 2 -251.5 63.5t-173.5 157.5t-75 212l80 26q16 -160 133 -270.5t295 -110.5q175 0 279 88.5t104 223.5q0 116 -71 192t-205 109l-248 59
q-144 34 -229 124.5t-85 235.5q0 110 62 201t163.5 141t219.5 50q194 0 309.5 -97.5t153.5 -257.5z" />
    <glyph glyph-name="scedilla" unicode="&#x15f;" horiz-adv-x="880" 
d="M84 262l76 27q18 -110 93.5 -176t199.5 -66q106 0 177.5 55.5t71.5 145.5q0 145 -188 190l-162 37q-106 25 -167.5 86.5t-61.5 163.5q0 112 93.5 191t223.5 79q142 0 224 -72.5t108 -185.5l-74 -26q-20 97 -83.5 155t-174.5 58q-95 0 -166 -54.5t-71 -142.5
q0 -137 174 -176l162 -37q243 -56 243 -260q0 -106 -77.5 -185t-206.5 -92l-72 -106q25 14 70 14q83 0 132.5 -40t49.5 -107q0 -72 -56.5 -116t-156.5 -44q-67 0 -126 28.5t-91 71.5l43 50q68 -88 174 -88q68 0 105.5 26.5t37.5 71.5t-34 70.5t-99 25.5q-43 0 -84 -20
l-37 45l76 116q-150 6 -240 87.5t-106 199.5z" />
    <glyph glyph-name="Scaron" unicode="&#x160;" horiz-adv-x="1179" 
d="M604 1604l217 194h82l-237 -244h-123l-238 244h82zM1053 1122l-78 -26q-31 138 -127.5 220t-255.5 83q-142 0 -251.5 -86t-109.5 -221q0 -110 63 -182.5t181 -100.5l246 -59q165 -40 256.5 -134t91.5 -245q0 -170 -132 -283t-337 -113q-107 0 -199.5 35.5t-156 95.5
t-103.5 137.5t-49 164.5l80 26q16 -160 133 -270.5t295 -110.5q175 0 279 88.5t104 223.5q0 116 -71 192t-205 109l-248 59q-144 34 -229 124.5t-85 235.5q0 110 62 201t163.5 141t219.5 50q194 0 309.5 -97.5t153.5 -257.5z" />
    <glyph glyph-name="scaron" unicode="&#x161;" horiz-adv-x="880" 
d="M244 1370l211 -225l211 225h73l-231 -276h-107l-231 276h74zM84 262l76 27q18 -110 93.5 -176t199.5 -66q106 0 177.5 55.5t71.5 145.5q0 145 -188 190l-162 37q-106 25 -167.5 86.5t-61.5 163.5q0 112 93.5 191t223.5 79q142 0 224 -72.5t108 -185.5l-74 -26
q-20 97 -83.5 155t-174.5 58q-95 0 -166 -54.5t-71 -142.5q0 -137 174 -176l162 -37q243 -56 243 -260q0 -117 -91 -198t-240 -81q-158 0 -253 82t-114 205z" />
    <glyph glyph-name="Tcommaaccent" unicode="&#x162;" horiz-adv-x="1214" 
d="M1171 1372h-520v-1372h-10l-86 -129q25 14 70 14q83 0 132.5 -40t49.5 -107q0 -72 -56.5 -116t-156.5 -44q-67 0 -126 28.5t-91 71.5l43 50q68 -88 174 -88q68 0 105.5 26.5t37.5 71.5t-34 70.5t-99 25.5q-43 0 -84 -20l-37 45l92 141h-12v1372h-520v80h1128v-80z" />
    <glyph glyph-name="tcommaaccent" unicode="&#x163;" horiz-adv-x="643" 
d="M383 -168q0 33 22.5 53.5t55.5 20.5q34 0 60 -27.5t26 -77.5q0 -93 -52 -150t-130 -65v52q52 8 87.5 44t36.5 87q-13 -13 -34 -13q-32 0 -52 21.5t-20 54.5zM326 1280v-309h278v-74h-278v-633q0 -201 182 -201q56 0 96 17v-72q-40 -18 -117 -18q-114 0 -178.5 69.5
t-64.5 200.5v637h-219v74h88q71 0 104 32t33 109v168h76z" />
    <glyph glyph-name="Tcaron" unicode="&#x164;" horiz-adv-x="1214" 
d="M614 1604l217 194h82l-237 -244h-123l-238 244h82zM1171 1372h-520v-1372h-88v1372h-520v80h1128v-80z" />
    <glyph glyph-name="tcaron" unicode="&#x165;" horiz-adv-x="643" 
d="M326 1280v-309h278v-74h-278v-633q0 -201 182 -201q56 0 96 17v-72q-40 -18 -117 -18q-114 0 -178.5 69.5t-64.5 200.5v637h-219v74h88q71 0 104 32t33 109v168h76zM639 1477l-111 -369h-65l84 369h92z" />
    <glyph glyph-name="Tbar" unicode="&#x166;" horiz-adv-x="1214" 
d="M1171 1372h-520v-614h267v-74h-267v-684h-88v684h-252v74h252v614h-520v80h1128v-80z" />
    <glyph glyph-name="tbar" unicode="&#x167;" horiz-adv-x="643" 
d="M326 1280v-309h278v-74h-278v-334h278v-74h-278v-225q0 -201 182 -201q56 0 96 17v-72q-40 -18 -117 -18q-114 0 -178.5 69.5t-64.5 200.5v229h-219v74h219v334h-219v74h88q71 0 104 32t33 109v168h76z" />
    <glyph glyph-name="Utilde" unicode="&#x168;" horiz-adv-x="1361" 
d="M995 1774v-17q0 -85 -46 -135.5t-113 -50.5q-73 0 -134 51l-45 37q-34 28 -56.5 38.5t-55.5 10.5q-45 0 -69.5 -34t-24.5 -95h-66v20q0 82 45.5 131.5t114.5 49.5t143 -60l43 -34q57 -44 103 -44q44 0 70 35t26 97h65zM680 -25q-225 0 -354 130.5t-129 371.5v975h88v-971
q0 -207 100.5 -316.5t294.5 -109.5q195 0 296 109.5t101 316.5v971h88v-975q0 -240 -129 -371t-356 -131z" />
    <glyph glyph-name="utilde" unicode="&#x169;" horiz-adv-x="1083" 
d="M557 1176l-45 36q-31 26 -54.5 38t-54.5 12q-46 0 -70 -33.5t-24 -95.5h-67v20q0 81 45 129.5t114 48.5q70 0 142 -59l39 -33q56 -43 100 -43q46 0 70 34t24 97h68v-16q0 -85 -46 -135t-114 -50q-67 0 -127 50zM838 172q-34 -79 -115.5 -138t-200.5 -59q-94 0 -166 32.5
t-114 88t-63 122.5t-21 144v609h82v-596q0 -66 16 -122.5t49.5 -103t91 -73.5t133.5 -27q133 0 217 95t84 229v598h82v-783q0 -86 13 -188h-78q-10 90 -10 150v22z" />
    <glyph glyph-name="Umacron" unicode="&#x16a;" horiz-adv-x="1361" 
d="M952 1640h-530v74h530v-74zM680 -25q-225 0 -354 130.5t-129 371.5v975h88v-971q0 -207 100.5 -316.5t294.5 -109.5q195 0 296 109.5t101 316.5v971h88v-975q0 -240 -129 -371t-356 -131z" />
    <glyph glyph-name="umacron" unicode="&#x16b;" horiz-adv-x="1083" 
d="M791 1196h-496v72h496v-72zM838 172q-34 -79 -115.5 -138t-200.5 -59q-94 0 -166 32.5t-114 88t-63 122.5t-21 144v609h82v-596q0 -66 16 -122.5t49.5 -103t91 -73.5t133.5 -27q133 0 217 95t84 229v598h82v-783q0 -86 13 -188h-78q-10 90 -10 150v22z" />
    <glyph glyph-name="Ubreve" unicode="&#x16c;" horiz-adv-x="1361" 
d="M899 1798h68q-8 -104 -82.5 -179t-196.5 -75t-196 75t-82 179h67q8 -77 62.5 -131.5t148.5 -54.5t148.5 54.5t62.5 131.5zM680 -25q-225 0 -354 130.5t-129 371.5v975h88v-971q0 -207 100.5 -316.5t294.5 -109.5q195 0 296 109.5t101 316.5v971h88v-975q0 -240 -129 -371
t-356 -131z" />
    <glyph glyph-name="ubreve" unicode="&#x16d;" horiz-adv-x="1083" 
d="M547 1094q-129 0 -204 83t-75 193h66q2 -84 57.5 -146.5t155.5 -62.5t155.5 62.5t57.5 146.5h65q0 -110 -74.5 -193t-203.5 -83zM838 172q-34 -79 -115.5 -138t-200.5 -59q-94 0 -166 32.5t-114 88t-63 122.5t-21 144v609h82v-596q0 -66 16 -122.5t49.5 -103t91 -73.5
t133.5 -27q133 0 217 95t84 229v598h82v-783q0 -86 13 -188h-78q-10 90 -10 150v22z" />
    <glyph glyph-name="Uring" unicode="&#x16e;" horiz-adv-x="1361" 
d="M688 1597q54 0 89.5 37.5t35.5 94.5t-35.5 95t-89.5 38t-89.5 -38t-35.5 -95t35.5 -94.5t89.5 -37.5zM688 1534q-80 0 -136 56t-56 139t56 139.5t136 56.5t136.5 -56.5t56.5 -139.5t-56.5 -139t-136.5 -56zM680 -25q-225 0 -354 130.5t-129 371.5v975h88v-971
q0 -207 100.5 -316.5t294.5 -109.5q195 0 296 109.5t101 316.5v971h88v-975q0 -240 -129 -371t-356 -131z" />
    <glyph glyph-name="uring" unicode="&#x16f;" horiz-adv-x="1083" 
d="M336 1292q0 86 60.5 147.5t146.5 61.5t146.5 -61.5t60.5 -147.5t-60.5 -147.5t-146.5 -61.5t-146.5 61.5t-60.5 147.5zM403 1292q0 -60 40 -102.5t100 -42.5q59 0 99 42t40 103t-40 103.5t-99 42.5t-99.5 -42.5t-40.5 -103.5zM838 172q-34 -79 -115.5 -138t-200.5 -59
q-94 0 -166 32.5t-114 88t-63 122.5t-21 144v609h82v-596q0 -66 16 -122.5t49.5 -103t91 -73.5t133.5 -27q133 0 217 95t84 229v598h82v-783q0 -86 13 -188h-78q-10 90 -10 150v22z" />
    <glyph glyph-name="Uhungarumlaut" unicode="&#x170;" horiz-adv-x="1361" 
d="M745 1798l-172 -244h-59l137 244h94zM987 1798l-209 -244h-61l176 244h94zM680 -25q-225 0 -354 130.5t-129 371.5v975h88v-971q0 -207 100.5 -316.5t294.5 -109.5q195 0 296 109.5t101 316.5v971h88v-975q0 -240 -129 -371t-356 -131z" />
    <glyph glyph-name="uhungarumlaut" unicode="&#x171;" horiz-adv-x="1083" 
d="M629 1370l-172 -276h-64l144 276h92zM844 1370l-199 -276h-63l170 276h92zM838 172q-34 -79 -115.5 -138t-200.5 -59q-94 0 -166 32.5t-114 88t-63 122.5t-21 144v609h82v-596q0 -66 16 -122.5t49.5 -103t91 -73.5t133.5 -27q133 0 217 95t84 229v598h82v-783
q0 -86 13 -188h-78q-10 90 -10 150v22z" />
    <glyph glyph-name="Uogonek" unicode="&#x172;" horiz-adv-x="1361" 
d="M680 -25q-225 0 -354 130.5t-129 371.5v975h88v-971q0 -207 100.5 -316.5t294.5 -109.5q195 0 296 109.5t101 316.5v971h88v-975q0 -206 -95.5 -332t-268.5 -159q-20 -3 -39 -19q-115 -89 -115 -194q0 -61 39.5 -95t99.5 -34q41 0 74 10v-62q-44 -14 -86 -14
q-86 0 -142.5 48t-56.5 132q0 125 119 217h-14z" />
    <glyph glyph-name="uogonek" unicode="&#x173;" horiz-adv-x="1083" 
d="M838 172q-34 -79 -115.5 -138t-200.5 -59q-94 0 -166 32.5t-114 88t-63 122.5t-21 144v609h82v-596q0 -66 16 -122.5t49.5 -103t91 -73.5t133.5 -27q133 0 217 95t84 229v598h82v-783q0 -86 13 -188q-66 -36 -116 -96.5t-50 -130.5q0 -61 39.5 -95t99.5 -34q41 0 74 10
v-62q-44 -14 -86 -14q-86 0 -142.5 48t-56.5 132q0 146 160 246q-10 50 -10 146v22z" />
    <glyph glyph-name="Wcircumflex" unicode="&#x174;" horiz-adv-x="1990" 
d="M1219 1554l-218 195l-217 -195h-82l238 244h123l237 -244h-81zM1468 117l381 1335h90l-421 -1452h-99l-426 1343l-424 -1343h-94l-426 1452h92l383 -1331l420 1331h100z" />
    <glyph glyph-name="wcircumflex" unicode="&#x175;" horiz-adv-x="1601" 
d="M1022 1094l-215 225l-215 -225h-70l232 276h106l232 -276h-70zM756 971h92l311 -875l285 875h86l-324 -971h-94l-311 874l-312 -874h-94l-325 971h90l284 -875z" />
    <glyph glyph-name="Ycircumflex" unicode="&#x176;" horiz-adv-x="1261" 
d="M840 1554l-217 195l-217 -195h-82l237 244h123l238 -244h-82zM588 621l-522 831h102l465 -750l463 750h98l-520 -831v-621h-86v621z" />
    <glyph glyph-name="ycircumflex" unicode="&#x177;" horiz-adv-x="985" 
d="M725 1094l-215 225l-215 -225h-70l232 276h106l232 -276h-70zM317 -389h-90l246 526l-416 834h93l368 -748l338 748h88z" />
    <glyph glyph-name="Ydieresis" unicode="&#x178;" horiz-adv-x="1261" 
d="M362 1677q0 29 20 49.5t48 20.5q29 0 49.5 -20.5t20.5 -49.5t-20.5 -49t-49.5 -20q-28 0 -48 20t-20 49zM743 1677q0 29 20 49.5t48 20.5q29 0 49.5 -20.5t20.5 -49.5t-20.5 -49t-49.5 -20q-28 0 -48 20t-20 49zM588 621l-522 831h102l465 -750l463 750h98l-520 -831
v-621h-86v621z" />
    <glyph glyph-name="Zacute" unicode="&#x179;" horiz-adv-x="1265" 
d="M883 1798l-269 -244h-73l225 244h117zM1186 0h-1108v92l1007 1280h-997v80h1094v-90l-1008 -1282h1012v-80z" />
    <glyph glyph-name="zacute" unicode="&#x17a;" horiz-adv-x="929" 
d="M444 1094h-63l184 276h111zM848 0h-766v74l659 823h-655v74h754v-74l-660 -823h668v-74z" />
    <glyph glyph-name="Zdotaccent" unicode="&#x17b;" horiz-adv-x="1265" 
d="M551 1677q0 32 23 55t55 23t55 -23t23 -55t-23 -55t-55 -23t-55 23t-23 55zM1186 0h-1108v92l1007 1280h-997v80h1094v-90l-1008 -1282h1012v-80z" />
    <glyph glyph-name="zdotaccent" unicode="&#x17c;" horiz-adv-x="929" 
d="M356 1233q0 32 23 55t55 23t55 -23t23 -55t-23 -55t-55 -23t-55 23t-23 55zM848 0h-766v74l659 823h-655v74h754v-74l-660 -823h668v-74z" />
    <glyph glyph-name="Zcaron" unicode="&#x17d;" horiz-adv-x="1265" 
d="M627 1604l217 194h82l-238 -244h-123l-237 244h82zM1186 0h-1108v92l1007 1280h-997v80h1094v-90l-1008 -1282h1012v-80z" />
    <glyph glyph-name="zcaron" unicode="&#x17e;" horiz-adv-x="929" 
d="M227 1370l211 -225l211 225h74l-231 -276h-107l-231 276h73zM848 0h-766v74l659 823h-655v74h754v-74l-660 -823h668v-74z" />
    <glyph glyph-name="uni018F" unicode="&#x18f;" horiz-adv-x="1591" 
d="M88 700v17h1305q-1 162 -51 293.5t-135.5 214.5t-195 127.5t-233.5 44.5q-200 0 -359 -113t-220 -305l-78 27q68 215 249.5 343t407.5 128q112 0 216 -31t192.5 -94t154.5 -151.5t103 -210.5t37 -263q0 -176 -58 -321t-155.5 -237.5t-222.5 -143t-261 -50.5
q-139 0 -266 52.5t-222 145t-151.5 230t-56.5 297.5zM176 643q9 -134 61.5 -246t135 -186t188.5 -115t223 -41q155 0 285.5 69t217 204t102.5 315h-1213z" />
    <glyph glyph-name="florin" unicode="&#x192;" horiz-adv-x="931" 
d="M229 10l177 887h-248v74h262l47 227q28 138 109.5 208.5t193.5 70.5q58 0 117 -19v-76q-1 0 -12.5 3.5t-23 6t-31 5t-38.5 2.5q-87 0 -148 -54t-85 -169l-43 -205h276v-74h-290l-181 -909q-28 -138 -108.5 -208.5t-192.5 -70.5q-52 0 -121 19v75q1 0 13 -3t23.5 -5.5
t32 -5t40.5 -2.5q85 0 147 55t84 168z" />
    <glyph glyph-name="uni01B5" unicode="&#x1b5;" horiz-adv-x="1265" 
d="M1186 0h-1108v92l493 629h-368v74h428l454 577h-997v80h1094v-90l-447 -567h348v-74h-405l-504 -641h1012v-80z" />
    <glyph glyph-name="uni01B6" unicode="&#x1b6;" horiz-adv-x="929" 
d="M848 0h-766v74l324 405h-314v68h369l280 350h-655v74h754v-74l-281 -350h238v-68h-293l-324 -405h668v-74z" />
    <glyph glyph-name="Aringacute" unicode="&#x1fa;" horiz-adv-x="1394" 
d="M1249 0l-205 504h-694l-203 -504h-94l576 1405q-53 22 -85 70t-32 110q0 83 56.5 140t136.5 57t136 -57t56 -140q0 -65 -36 -115t-93 -69l575 -1401h-94zM696 1364l-315 -780h631zM705 1454q54 0 89 37t35 94t-35 95t-89 38t-89.5 -38t-35.5 -95t35.5 -94t89.5 -37z
M995 2068l-254 -221h-69l213 221h110z" />
    <glyph glyph-name="aringacute" unicode="&#x1fb;" horiz-adv-x="1003" 
d="M420 49q150 0 246 98t96 240v158q-23 -34 -115 -47l-256 -39q-100 -15 -155.5 -69t-55.5 -140q0 -81 64 -141t176 -60zM412 -23q-147 0 -231.5 80.5t-84.5 188.5q0 118 75 188t216 92l256 39q119 19 119 111q0 112 -71 180t-193 68q-127 0 -208.5 -65.5t-94.5 -182.5
l-78 18q17 139 120.5 220t258.5 81q166 0 257 -91.5t91 -233.5v-498q0 -83 14 -172h-80q-12 60 -12 188q-40 -88 -134 -149.5t-220 -61.5zM293 1292q0 86 60.5 147.5t146.5 61.5t146.5 -61.5t60.5 -147.5t-60.5 -147.5t-146.5 -61.5t-146.5 61.5t-60.5 147.5zM360 1292
q0 -60 40 -102.5t100 -42.5q59 0 99 42t40 103t-40 103.5t-99 42.5t-99.5 -42.5t-40.5 -103.5zM539 1595h-64l184 277h111z" />
    <glyph glyph-name="AEacute" unicode="&#x1fc;" horiz-adv-x="1970" 
d="M1384 1798l-268 -244h-74l226 244h116zM1849 0h-839v453h-602l-297 -453h-109l965 1452h882v-80h-753v-604h690v-80h-690v-608h753v-80zM459 530h551v836z" />
    <glyph glyph-name="aeacute" unicode="&#x1fd;" horiz-adv-x="1744" 
d="M891 1094h-64l185 276h110zM1575 305l72 -24q-43 -133 -155 -219.5t-265 -86.5q-138 0 -250 72.5t-168 202.5q-41 -121 -142 -197t-255 -76q-147 0 -231.5 80.5t-84.5 188.5q0 118 75 188t216 92l256 39q119 19 119 111q0 112 -71 180t-193 68q-127 0 -208.5 -65.5
t-94.5 -182.5l-78 18q17 139 120.5 220t258.5 81q134 0 220 -62.5t113 -168.5q59 109 158 170t217 61q207 0 325 -132.5t120 -346.5q0 -17 -2 -37h-801v-12q0 -186 110 -302t271 -116q129 0 219.5 72.5t128.5 183.5zM850 551h713q-2 160 -98 265.5t-259 105.5
q-145 0 -245 -105t-111 -266zM426 49q144 0 240 95t96 235v166q-24 -34 -103 -45l-276 -43q-94 -14 -148.5 -67.5t-54.5 -139.5q0 -82 65 -141.5t181 -59.5z" />
    <glyph glyph-name="Oslashacute" unicode="&#x1fe;" horiz-adv-x="1630" 
d="M111 725q0 141 39.5 263.5t107 211t157.5 152t192 94.5t208 31q246 0 440 -158l156 201l57 -43l-159 -205q211 -211 211 -547q0 -176 -60.5 -321t-160.5 -237t-225 -142t-259 -50q-228 0 -412 131l-143 -184l-57 43l145 187q-111 100 -174 245t-63 328zM199 725
q0 -320 198 -508l809 1038q-171 142 -391 142q-119 0 -228.5 -44.5t-196.5 -127t-139 -212.5t-52 -288zM1432 725q0 291 -175 481l-802 -1034q156 -117 360 -117q95 0 184.5 27.5t168 83.5t137.5 134.5t93 188t34 236.5zM1124 1798l-268 -244h-74l226 244h116z" />
    <glyph glyph-name="oslashacute" unicode="&#x1ff;" horiz-adv-x="1150" 
d="M100 485q0 227 137 368.5t338 141.5q161 0 289 -98l117 150l53 -43l-119 -154q136 -142 136 -365q0 -113 -38 -209.5t-102.5 -162t-151.5 -102t-184 -36.5q-156 0 -276 88l-111 -141l-53 43l111 144q-146 143 -146 376zM184 485q0 -192 111 -313l520 664q-106 86 -240 86
q-163 0 -277 -120.5t-114 -316.5zM967 485q0 180 -103 301l-518 -661q102 -76 229 -76q163 0 277.5 120t114.5 316zM602 1094h-63l184 276h111z" />
    <glyph glyph-name="Scommaaccent" unicode="&#x218;" horiz-adv-x="1179" 
d="M535 -168q0 33 22 53.5t55 20.5q34 0 60 -27.5t26 -77.5q0 -93 -52 -150t-130 -65v52q52 8 88 44t37 87q-13 -13 -35 -13q-32 0 -51.5 21.5t-19.5 54.5zM1053 1122l-78 -26q-31 138 -127.5 220t-255.5 83q-142 0 -251.5 -86t-109.5 -221q0 -110 63 -182.5t181 -100.5
l246 -59q165 -40 256.5 -134t91.5 -245q0 -170 -132 -283t-337 -113q-107 0 -199.5 35.5t-156 95.5t-103.5 137.5t-49 164.5l80 26q16 -160 133 -270.5t295 -110.5q175 0 279 88.5t104 223.5q0 116 -71 192t-205 109l-248 59q-144 34 -229 124.5t-85 235.5q0 110 62 201
t163.5 141t219.5 50q194 0 309.5 -97.5t153.5 -257.5z" />
    <glyph glyph-name="scommaaccent" unicode="&#x219;" horiz-adv-x="880" 
d="M377 -168q0 33 22.5 53.5t55.5 20.5q34 0 60 -27.5t26 -77.5q0 -93 -52.5 -150t-130.5 -65v52q52 8 88 44t37 87q-13 -13 -34 -13q-32 0 -52 21.5t-20 54.5zM84 262l76 27q18 -110 93.5 -176t199.5 -66q106 0 177.5 55.5t71.5 145.5q0 145 -188 190l-162 37
q-106 25 -167.5 86.5t-61.5 163.5q0 112 93.5 191t223.5 79q142 0 224 -72.5t108 -185.5l-74 -26q-20 97 -83.5 155t-174.5 58q-95 0 -166 -54.5t-71 -142.5q0 -137 174 -176l162 -37q243 -56 243 -260q0 -117 -91 -198t-240 -81q-158 0 -253 82t-114 205z" />
    <glyph glyph-name="uni021A" unicode="&#x21a;" horiz-adv-x="1214" 
d="M537 -168q0 33 22 53.5t55 20.5q34 0 60 -27.5t26 -77.5q0 -93 -52 -150t-130 -65v52q52 8 88 44t37 87q-13 -13 -35 -13q-32 0 -51.5 21.5t-19.5 54.5zM1171 1372h-520v-1372h-88v1372h-520v80h1128v-80z" />
    <glyph glyph-name="uni021B" unicode="&#x21b;" horiz-adv-x="643" 
d="M326 1280v-309h278v-74h-278v-633q0 -201 182 -201q56 0 96 17v-72q-30 -15 -102 -18l-80 -119q25 14 70 14q83 0 132.5 -40t49.5 -107q0 -72 -56.5 -116t-156.5 -44q-67 0 -126 28.5t-91 71.5l43 50q68 -88 174 -88q68 0 105.5 26.5t37.5 71.5t-34 70.5t-99 25.5
q-43 0 -84 -20l-37 45l86 135q-91 14 -141.5 82t-50.5 184v637h-219v74h88q71 0 104 32t33 109v168h76z" />
    <glyph glyph-name="dotlessj" unicode="&#x237;" horiz-adv-x="421" 
d="M170 -131v1102h82v-1104q0 -133 -65 -207t-179 -74q-72 0 -110 19v67l14 -3q13 -3 35 -6t43 -3q180 0 180 209z" />
    <glyph glyph-name="uni0259" unicode="&#x259;" horiz-adv-x="1081" 
d="M893 420h-713q2 -160 98 -265.5t259 -105.5q145 0 245 105t111 266zM168 666l-72 24q43 133 155 219t265 86q96 0 180.5 -35.5t148 -100t100 -162.5t36.5 -216q0 -223 -127.5 -364.5t-314.5 -141.5q-206 0 -324.5 133t-120.5 347q0 17 2 37h801v12q0 186 -110 302
t-271 116q-129 0 -219.5 -72.5t-128.5 -183.5z" />
    <glyph glyph-name="circumflex" unicode="&#x2c6;" horiz-adv-x="753" 
d="M592 1094l-215 225l-215 -225h-70l232 276h106l232 -276h-70z" />
    <glyph glyph-name="caron" unicode="&#x2c7;" horiz-adv-x="753" 
d="M166 1370l211 -225l211 225h74l-232 -276h-106l-232 276h74z" />
    <glyph glyph-name="uni02C9" unicode="&#x2c9;" horiz-adv-x="679" 
d="M588 1196h-496v72h496v-72z" />
    <glyph glyph-name="breve" unicode="&#x2d8;" horiz-adv-x="741" 
d="M371 1094q-129 0 -204 83t-75 193h66q2 -84 57.5 -146.5t155.5 -62.5t155.5 62.5t57.5 146.5h65q0 -110 -74.5 -193t-203.5 -83z" />
    <glyph glyph-name="dotaccent" unicode="&#x2d9;" horiz-adv-x="335" 
d="M90 1233q0 32 23 55t55 23t55 -23t23 -55t-23 -55t-55 -23t-55 23t-23 55z" />
    <glyph glyph-name="ring" unicode="&#x2da;" horiz-adv-x="598" 
d="M92 1292q0 86 60.5 147.5t146.5 61.5t146.5 -61.5t60.5 -147.5t-60.5 -147.5t-146.5 -61.5t-146.5 61.5t-60.5 147.5zM160 1292q0 -61 40 -103t99 -42t99 42t40 103t-40 103.5t-99 42.5t-99 -42.5t-40 -103.5z" />
    <glyph glyph-name="ogonek" unicode="&#x2db;" horiz-adv-x="468" 
d="M274 18l56 -18q-66 -36 -116 -96.5t-50 -130.5q0 -61 39.5 -95t99.5 -34q41 0 74 10v-62q-44 -14 -86 -14q-86 0 -142.5 48t-56.5 132t52 149.5t130 110.5z" />
    <glyph glyph-name="tilde" unicode="&#x2dc;" horiz-adv-x="786" 
d="M408 1176l-46 36q-31 26 -54 38t-54 12q-46 0 -70 -33.5t-24 -95.5h-68v20q0 81 45.5 129.5t114.5 48.5t141 -59l39 -33q56 -43 100 -43q46 0 70.5 34t24.5 97h67v-16q0 -85 -45.5 -135t-113.5 -50q-67 0 -127 50z" />
    <glyph glyph-name="hungarumlaut" unicode="&#x2dd;" horiz-adv-x="624" 
d="M336 1370l-172 -276h-64l144 276h92zM551 1370l-199 -276h-63l170 276h92z" />
    <glyph glyph-name="uni0394" unicode="&#x394;" horiz-adv-x="1335" 
d="M66 0l557 1452h86l561 -1452h-1204zM666 1343l-480 -1265h963z" />
    <glyph glyph-name="uni03A9" unicode="&#x3a9;" horiz-adv-x="1689" 
d="M844 1401q-124 0 -239 -47t-203 -129.5t-140.5 -205t-52.5 -263.5q0 -128 43.5 -241t117 -195t170 -136.5t203.5 -72.5v-111h-596v74h478q-102 30 -192.5 91t-159.5 146.5t-109.5 201t-40.5 243.5q0 157 58.5 293.5t157.5 229t230 145.5t275 53t275.5 -53t230.5 -145.5
t158 -229t59 -293.5q0 -128 -40.5 -243.5t-109.5 -201t-159.5 -146.5t-192.5 -91h477v-74h-596v111q107 18 203.5 72.5t170.5 136.5t117.5 195t43.5 241q0 141 -52.5 263.5t-140.5 205t-203.5 129.5t-240.5 47z" />
    <glyph glyph-name="uni03BC" unicode="&#x3bc;" horiz-adv-x="1060" 
d="M831 172q-34 -79 -115 -138t-200 -59q-99 0 -173 40.5t-110 111.5v-516h-81v1360h81v-596q0 -66 16.5 -122.5t49.5 -103t91 -73.5t134 -27q133 0 217 95t84 229v598h82v-783q0 -86 13 -188h-78q-11 99 -11 150v22z" />
    <glyph glyph-name="pi" unicode="&#x3c0;" horiz-adv-x="1169" 
d="M1094 74v-68q-56 -18 -113 -18q-93 0 -143 57.5t-50 147.5v706h-464v-899h-82v899h-209v72h1048v-72h-211v-700q0 -64 36 -102t98 -38q39 0 90 15z" />
    <glyph glyph-name="Wgrave" unicode="&#x1e80;" horiz-adv-x="1990" 
d="M967 1554l-269 244h117l225 -244h-73zM1468 117l381 1335h90l-421 -1452h-99l-426 1343l-424 -1343h-94l-426 1452h92l383 -1331l420 1331h100z" />
    <glyph glyph-name="wgrave" unicode="&#x1e81;" horiz-adv-x="1601" 
d="M844 1094h-62l-231 276h108zM756 971h92l311 -875l285 875h86l-324 -971h-94l-311 874l-312 -874h-94l-325 971h90l284 -875z" />
    <glyph glyph-name="Wacute" unicode="&#x1e82;" horiz-adv-x="1990" 
d="M1305 1798l-269 -244h-73l225 244h117zM1468 117l381 1335h90l-421 -1452h-99l-426 1343l-424 -1343h-94l-426 1452h92l383 -1331l420 1331h100z" />
    <glyph glyph-name="wacute" unicode="&#x1e83;" horiz-adv-x="1601" 
d="M852 1094h-64l185 276h110zM756 971h92l311 -875l285 875h86l-324 -971h-94l-311 874l-312 -874h-94l-325 971h90l284 -875z" />
    <glyph glyph-name="Wdieresis" unicode="&#x1e84;" horiz-adv-x="1990" 
d="M682 1677q0 29 20 49.5t48 20.5q29 0 49 -20.5t20 -49.5t-20 -49t-49 -20q-28 0 -48 20t-20 49zM1188 1677q0 29 19.5 49.5t47.5 20.5q29 0 49.5 -20.5t20.5 -49.5t-20.5 -49t-49.5 -20q-28 0 -47.5 20t-19.5 49zM1468 117l381 1335h90l-421 -1452h-99l-426 1343
l-424 -1343h-94l-426 1452h92l383 -1331l420 1331h100z" />
    <glyph glyph-name="wdieresis" unicode="&#x1e85;" horiz-adv-x="1601" 
d="M524 1237q0 28 20 48t48 20t47.5 -20t19.5 -48q0 -29 -19.5 -48.5t-47.5 -19.5t-48 19.5t-20 48.5zM954 1237q0 28 20 48t48 20t48 -20t20 -48q0 -29 -20 -48.5t-48 -19.5t-48 19.5t-20 48.5zM756 971h92l311 -875l285 875h86l-324 -971h-94l-311 874l-312 -874h-94
l-325 971h90l284 -875z" />
    <glyph glyph-name="uni1E8A" unicode="&#x1e8a;" horiz-adv-x="1171" 
d="M494 1677q0 32 22.5 55t54.5 23t55 -23t23 -55t-23 -55t-55 -23t-54.5 23t-22.5 55zM1122 1452l-485 -723l487 -729h-104l-436 657l-437 -657h-102l490 729l-484 723h105l430 -655l434 655h102z" />
    <glyph glyph-name="uni1E8B" unicode="&#x1e8b;" horiz-adv-x="940" 
d="M397 1233q0 32 23 55t55 23t55 -23t23 -55t-23 -55t-55 -23t-55 23t-23 55zM43 0l379 496l-361 475h99l311 -416l311 416h97l-359 -475l377 -496h-98l-330 436l-328 -436h-98z" />
    <glyph glyph-name="Ygrave" unicode="&#x1ef2;" horiz-adv-x="1261" 
d="M612 1554l-268 244h117l225 -244h-74zM588 621l-522 831h102l465 -750l463 750h98l-520 -831v-621h-86v621z" />
    <glyph glyph-name="ygrave" unicode="&#x1ef3;" horiz-adv-x="985" 
d="M578 1094h-62l-231 276h108zM317 -389h-90l246 526l-416 834h93l368 -748l338 748h88z" />
    <glyph glyph-name="uni2007" unicode="&#x2007;" horiz-adv-x="1224" 
 />
    <glyph glyph-name="uni2008" unicode="&#x2008;" horiz-adv-x="458" 
 />
    <glyph glyph-name="uni200B" unicode="&#x200b;" horiz-adv-x="0" 
 />
    <glyph glyph-name="endash" unicode="&#x2013;" horiz-adv-x="1300" 
d="M1155 551h-1010v74h1010v-74z" />
    <glyph glyph-name="emdash" unicode="&#x2014;" horiz-adv-x="2129" 
d="M1985 551h-1840v74h1840v-74z" />
    <glyph glyph-name="quoteleft" unicode="&#x2018;" horiz-adv-x="438" 
d="M295 1118q0 -33 -23.5 -56.5t-58.5 -23.5q-39 0 -65.5 30t-26.5 83q0 115 57.5 200.5t143.5 112.5v-55q-61 -22 -98.5 -86t-39.5 -133q13 10 35 10q32 0 54 -24t22 -58z" />
    <glyph glyph-name="quoteright" unicode="&#x2019;" horiz-adv-x="440" 
d="M164 1384q0 33 23.5 56.5t58.5 23.5q38 0 64 -29.5t26 -82.5q0 -116 -57 -201.5t-144 -112.5v56q61 22 99 86t40 133q-13 -10 -34 -10q-32 0 -54 23.5t-22 57.5z" />
    <glyph glyph-name="quotesinglbase" unicode="&#x201a;" horiz-adv-x="466" 
d="M152 74q0 33 23 56.5t58 23.5q38 0 64.5 -30t26.5 -83q0 -116 -57 -201t-144 -112v55q61 22 99 86t40 133q-13 -10 -35 -10q-32 0 -53.5 24t-21.5 58z" />
    <glyph glyph-name="quotedblleft" unicode="&#x201c;" horiz-adv-x="688" 
d="M295 1118q0 -33 -23.5 -56.5t-58.5 -23.5q-39 0 -65.5 30t-26.5 83q0 115 57.5 200.5t143.5 112.5v-55q-61 -22 -98.5 -86t-39.5 -133q13 10 35 10q32 0 54 -24t22 -58zM545 1118q0 -33 -23.5 -56.5t-58.5 -23.5q-39 0 -65.5 30t-26.5 83q0 115 57 200.5t143 112.5v-55
q-60 -22 -97.5 -85.5t-39.5 -133.5q13 10 35 10q32 0 54 -24t22 -58z" />
    <glyph glyph-name="quotedblright" unicode="&#x201d;" horiz-adv-x="690" 
d="M164 1384q0 33 23.5 56.5t58.5 23.5q38 0 64 -29.5t26 -82.5q0 -116 -57 -201.5t-144 -112.5v56q61 22 99 86t40 133q-13 -10 -34 -10q-32 0 -54 23.5t-22 57.5zM414 1384q0 33 23.5 56.5t58.5 23.5q38 0 64 -29.5t26 -82.5q0 -116 -57 -201.5t-144 -112.5v56
q61 22 99 86t40 133q-13 -10 -35 -10q-32 0 -53.5 23.5t-21.5 57.5z" />
    <glyph glyph-name="quotedblbase" unicode="&#x201e;" horiz-adv-x="716" 
d="M152 74q0 33 23 56.5t58 23.5q38 0 64.5 -30t26.5 -83q0 -116 -57 -201t-144 -112v55q61 22 99 86t40 133q-13 -10 -35 -10q-32 0 -53.5 24t-21.5 58zM401 74q0 33 23.5 56.5t58.5 23.5q37 0 63.5 -30t26.5 -83q0 -116 -56.5 -201t-143.5 -112v55q61 22 99 86t40 133
q-13 -10 -35 -10q-32 0 -54 24t-22 58z" />
    <glyph glyph-name="dagger" unicode="&#x2020;" horiz-adv-x="839" 
d="M457 332h-74v706h-289v70h289v344h74v-344h288v-70h-288v-706z" />
    <glyph glyph-name="daggerdbl" unicode="&#x2021;" horiz-adv-x="905" 
d="M778 1038h-289v-624h289v-70h-289v-344h-73v344h-289v70h289v624h-289v70h289v344h73v-344h289v-70z" />
    <glyph glyph-name="bullet" unicode="&#x2022;" horiz-adv-x="1163" 
d="M158 569q0 177 124.5 301.5t299.5 124.5t299.5 -124.5t124.5 -301.5q0 -174 -125 -299t-299 -125t-299 125t-125 299z" />
    <glyph glyph-name="ellipsis" unicode="&#x2026;" horiz-adv-x="1392" 
d="M612 74q0 35 24 59.5t58 24.5q35 0 59.5 -24.5t24.5 -59.5q0 -34 -24.5 -58t-59.5 -24q-34 0 -58 24t-24 58zM145 74q0 35 24 59.5t58 24.5q35 0 59.5 -24.5t24.5 -59.5q0 -34 -24.5 -58t-59.5 -24q-34 0 -58 24t-24 58zM1081 74q0 35 24 59.5t58 24.5q35 0 59.5 -24.5
t24.5 -59.5q0 -34 -24.5 -58t-59.5 -24q-34 0 -58 24t-24 58z" />
    <glyph glyph-name="perthousand" unicode="&#x2030;" horiz-adv-x="2115" 
d="M889 295q0 129 89 219t218 90q86 0 158.5 -44.5t111.5 -117.5q39 74 111 118t160 44q129 0 218 -90t89 -219t-89 -219t-218 -90q-88 0 -160 43t-111 116q-39 -73 -111 -116t-159 -43q-129 0 -218 90t-89 219zM78 1030q0 129 89 219t218 90t218 -90t89 -219t-89 -219
t-218 -90t-218 90t-89 219zM152 1030q0 -101 67.5 -171.5t165.5 -70.5t165.5 70.5t67.5 171.5t-67.5 171.5t-165.5 70.5t-165.5 -70.5t-67.5 -171.5zM328 0h-84l977 1327h84zM963 295q0 -101 67.5 -171.5t165.5 -70.5t166 70.5t68 171.5t-68 171.5t-166 70.5t-165.5 -70.5
t-67.5 -171.5zM1503 295q0 -101 68 -171.5t166 -70.5t165.5 70.5t67.5 171.5t-67.5 171.5t-165.5 70.5t-166 -70.5t-68 -171.5z" />
    <glyph glyph-name="guilsinglleft" unicode="&#x2039;" horiz-adv-x="577" 
d="M459 188h-82l-273 392l273 391h82l-271 -391z" />
    <glyph glyph-name="guilsinglright" unicode="&#x203a;" horiz-adv-x="577" 
d="M201 188h-82l272 392l-272 391h82l272 -391z" />
    <glyph glyph-name="uni2042" unicode="&#x2042;" horiz-adv-x="1683" 
d="M870 1452v-285l275 95l18 -58l-274 -94l178 -248l-49 -37l-178 250l-174 -248l-48 37l173 246l-275 94l21 58l272 -95v285h61zM428 639v-285l274 95l19 -58l-275 -94l179 -248l-50 -37l-178 250l-174 -248l-47 37l172 246l-274 94l20 58l273 -95v285h61zM1313 639v-285
l274 95l19 -58l-275 -94l178 -248l-49 -37l-178 250l-174 -248l-47 37l172 246l-275 94l21 58l272 -95v285h62z" />
    <glyph glyph-name="fraction" unicode="&#x2044;" horiz-adv-x="327" 
d="M-297 0h-84l977 1327h84z" />
    <glyph glyph-name="uni2051" unicode="&#x2051;" horiz-adv-x="911" 
d="M483 1452v-285l275 95l18 -58l-274 -94l178 -248l-49 -37l-178 250l-174 -248l-48 37l172 246l-274 94l21 58l272 -95v285h61zM483 639v-285l275 95l18 -58l-274 -94l178 -248l-49 -37l-178 250l-174 -248l-48 37l172 246l-274 94l21 58l272 -95v285h61z" />
    <glyph glyph-name="uni2070" unicode="&#x2070;" horiz-adv-x="770" 
d="M385 696q-142 0 -221 107q-76 104 -76 276q0 173 76 277q78 106 221 106q141 0 223 -106q74 -101 74 -277q0 -175 -74 -276q-82 -107 -223 -107zM385 1397q-61 0 -106 -27.5t-69 -74.5t-35 -100.5t-11 -115.5q0 -49 6.5 -92.5t22.5 -85.5t40.5 -72t63.5 -48.5t88 -18.5
t88 18.5t63.5 48.5t40.5 72t22.5 85.5t6.5 92.5q0 62 -11 115.5t-35 100.5t-69 74.5t-106 27.5z" />
    <glyph glyph-name="uni2074" unicode="&#x2074;" horiz-adv-x="737" 
d="M57 891v78l371 483h98v-496h152v-65h-152v-178h-73v178h-396zM453 956v416l-322 -416h322z" />
    <glyph glyph-name="uni2075" unicode="&#x2075;" horiz-adv-x="694" 
d="M68 911l67 27q8 -74 65.5 -124t139.5 -50q87 0 143 51.5t56 130.5q0 81 -55 131.5t-142 50.5q-104 0 -178 -77l-68 24l101 377h391v-66h-340l-70 -264q70 70 180 70q113 0 184.5 -69t71.5 -175t-75.5 -178t-198.5 -72q-109 0 -186 63t-86 150z" />
    <glyph glyph-name="uni2076" unicode="&#x2076;" horiz-adv-x="737" 
d="M160 1057q19 60 85.5 102.5t149.5 42.5q112 0 187 -70t75 -182q0 -111 -80 -181.5t-198 -70.5q-131 0 -212 93t-81 253q0 200 109 310t270 110q108 0 172 -39l-21 -61q-61 35 -149 35q-98 0 -168 -48t-103 -123.5t-36 -170.5zM182 952q0 -81 59.5 -134.5t139.5 -53.5
q83 0 142 53t59 135q0 83 -58.5 135t-142.5 52q-81 0 -140 -52.5t-59 -134.5z" />
    <glyph glyph-name="uni2077" unicode="&#x2077;" horiz-adv-x="655" 
d="M616 1452v-70q-66 -57 -118 -118t-102 -142t-84 -185t-48 -224h-78q47 407 342 673h-479v66h567z" />
    <glyph glyph-name="uni2078" unicode="&#x2078;" horiz-adv-x="718" 
d="M358 1124q80 0 130.5 39.5t50.5 100.5q0 62 -49.5 101.5t-131.5 39.5q-83 0 -130.5 -39t-47.5 -102q0 -62 49.5 -101t128.5 -39zM358 764q91 0 144 41.5t53 105.5q0 67 -52 109.5t-145 42.5q-91 0 -143.5 -42.5t-52.5 -109.5q0 -63 53 -105t143 -42zM358 698
q-125 0 -198.5 60t-73.5 149q0 67 44 117.5t116 69.5q-61 18 -100.5 65t-39.5 107q0 87 69.5 143.5t182.5 56.5t183.5 -56.5t70.5 -143.5q0 -60 -40 -107t-101 -65q72 -19 116 -69.5t44 -117.5q0 -90 -73.5 -149.5t-199.5 -59.5z" />
    <glyph glyph-name="uni2079" unicode="&#x2079;" horiz-adv-x="733" 
d="M571 1116q-22 -64 -86 -104.5t-143 -40.5q-110 0 -186 69t-76 179q0 106 80 176.5t194 70.5q131 0 211 -92t80 -248q0 -192 -91 -310t-273 -118q-107 0 -185 47l21 62q68 -43 162 -43q136 0 214 91.5t78 260.5zM549 1219q0 81 -58 131.5t-139 50.5q-82 0 -139 -50.5
t-57 -131.5t57 -133t139 -52t139.5 52t57.5 133z" />
    <glyph glyph-name="uni2080" unicode="&#x2080;" horiz-adv-x="776" 
d="M387 -193q-142 0 -221 107q-76 104 -76 276q0 173 76 277q78 106 221 106q141 0 223 -106q74 -101 74 -277q0 -175 -74 -276q-82 -107 -223 -107zM387 508q-61 0 -106 -27.5t-69 -74.5t-35 -100.5t-11 -115.5q0 -49 6.5 -92.5t22.5 -85.5t40.5 -72t63.5 -48.5t88 -18.5
t88 18.5t63.5 48.5t40.5 72t22.5 85.5t6.5 92.5q0 62 -11 115.5t-35 100.5t-69 74.5t-106 27.5z" />
    <glyph glyph-name="uni2081" unicode="&#x2081;" horiz-adv-x="428" 
d="M59 336v65q73 17 119.5 61t59.5 101h73v-741h-73v606q-17 -27 -71.5 -57.5t-107.5 -34.5z" />
    <glyph glyph-name="uni2082" unicode="&#x2082;" horiz-adv-x="702" 
d="M170 295l-74 10q-4 20 -4 39q0 98 71 163.5t187 65.5q112 0 180 -62.5t68 -154.5q0 -128 -149 -221l-152 -94q-102 -64 -113 -154h426v-65h-518q0 165 154 264l151 94q127 79 127 176q0 64 -48.5 110t-125.5 46q-81 0 -132.5 -48t-51.5 -128q0 -13 4 -41z" />
    <glyph glyph-name="uni2083" unicode="&#x2083;" horiz-adv-x="724" 
d="M303 195l-37 59l258 244h-428v65h525v-63l-254 -240q16 2 26 2q102 0 173 -56.5t71 -160.5q0 -100 -76.5 -167.5t-198.5 -67.5q-118 0 -196.5 62t-87.5 159l69 22q4 -82 67 -131t146 -49q85 0 143 49t58 123q0 75 -53.5 117.5t-134.5 42.5q-37 0 -70 -10z" />
    <glyph glyph-name="uni2084" unicode="&#x2084;" horiz-adv-x="741" 
d="M59 2v78l371 483h98v-495h152v-66h-152v-178h-73v178h-396zM455 68v415l-322 -415h322z" />
    <glyph glyph-name="uni2085" unicode="&#x2085;" horiz-adv-x="698" 
d="M70 23l67 26q8 -74 65.5 -124t139.5 -50q87 0 143 51.5t56 130.5q0 81 -55 132t-142 51q-103 0 -178 -78l-68 24l101 377h391v-65h-340l-70 -265q70 70 180 70q113 0 184.5 -69t71.5 -175t-75.5 -177.5t-198.5 -71.5q-109 0 -186 63t-86 150z" />
    <glyph glyph-name="uni2086" unicode="&#x2086;" horiz-adv-x="743" 
d="M164 168q19 60 85.5 102.5t149.5 42.5q112 0 187.5 -70t75.5 -182q0 -111 -80.5 -181t-198.5 -70q-131 0 -212 93t-81 253q0 102 30.5 183t83 132t120.5 77.5t145 26.5q110 0 172 -38l-20 -62q-61 35 -150 35q-98 0 -168 -48t-103 -123.5t-36 -170.5zM186 63
q0 -81 59.5 -134.5t139.5 -53.5q83 0 142 53t59 135q0 83 -58.5 135t-142.5 52q-81 0 -140 -52.5t-59 -134.5z" />
    <glyph glyph-name="uni2087" unicode="&#x2087;" horiz-adv-x="659" 
d="M621 563v-69q-66 -57 -118.5 -118t-102.5 -142.5t-84 -185.5t-48 -224h-78q48 408 342 674h-479v65h568z" />
    <glyph glyph-name="uni2088" unicode="&#x2088;" horiz-adv-x="724" 
d="M362 236q80 0 130.5 39t50.5 100q0 62 -49.5 101.5t-131.5 39.5q-83 0 -130.5 -39t-47.5 -102q0 -62 49.5 -100.5t128.5 -38.5zM362 -125q91 0 144 42t53 106q0 67 -52 109t-145 42q-91 0 -143.5 -42.5t-52.5 -108.5q0 -63 53 -105.5t143 -42.5zM362 -190
q-125 0 -198.5 59.5t-73.5 148.5q0 67 44 117.5t116 69.5q-61 18 -100 65t-39 107q0 87 69 144t182 57t183.5 -57t70.5 -144q0 -60 -40 -107t-101 -65q72 -19 116 -69.5t44 -117.5q0 -89 -73 -148.5t-200 -59.5z" />
    <glyph glyph-name="uni2089" unicode="&#x2089;" horiz-adv-x="741" 
d="M578 227q-22 -64 -86.5 -104.5t-143.5 -40.5q-110 0 -186 69t-76 179q0 106 80 177t194 71q131 0 211 -92t80 -248q0 -192 -91 -310t-273 -118q-107 0 -185 47l21 61q68 -43 162 -43q136 0 214.5 91.5t78.5 260.5zM555 330q0 81 -58 131.5t-139 50.5q-82 0 -139 -50.5
t-57 -131.5t57 -133t139 -52t139.5 52t57.5 133z" />
    <glyph glyph-name="Euro" unicode="&#x20ac;" horiz-adv-x="1425" 
d="M88 571h174q-6 41 -6 95q0 34 4 88h-172v69h186q21 107 74.5 197.5t122 150.5t149.5 102t158 60.5t148 18.5q207 0 346 -92l-35 -66q-122 80 -311 80q-61 0 -127.5 -15.5t-136.5 -51t-129.5 -86t-106 -128t-66.5 -170.5h676l-35 -69h-655q-6 -44 -6 -88q0 -54 6 -95h578
l-35 -71h-527q20 -93 67 -170.5t106 -128t128.5 -85.5t134 -50t122.5 -15q220 0 366 133l43 -61q-78 -69 -183.5 -108.5t-225.5 -39.5q-69 0 -144 18t-155.5 59t-148.5 100t-122 149.5t-76 198.5h-186v71z" />
    <glyph glyph-name="uni2113" unicode="&#x2113;" horiz-adv-x="743" 
d="M633 109v-78q-77 -41 -162 -41q-110 0 -172.5 67.5t-62.5 192.5v266q-54 -26 -144 -57v78q81 28 144 61v455q0 143 60.5 221t154.5 78q108 0 159.5 -70.5t51.5 -187.5q0 -329 -345 -533v-311q0 -89 41 -138t113 -49q81 0 162 46zM317 1053v-406q263 174 263 447
q0 83 -30 133.5t-93 50.5q-140 0 -140 -225z" />
    <glyph glyph-name="trademark" unicode="&#x2122;" horiz-adv-x="1693" 
d="M657 1391h-256v-680h-67v680h-256v61h579v-61zM1167 711h-61l-285 610v-610h-67v741h84l299 -645l299 645h84v-741h-68v610z" />
    <glyph glyph-name="Omega" unicode="&#x2126;" horiz-adv-x="1689" 
d="M844 1401q-124 0 -239 -47t-203 -129.5t-140.5 -205t-52.5 -263.5q0 -128 43.5 -241t117 -195t170 -136.5t203.5 -72.5v-111h-596v74h478q-102 30 -192.5 91t-159.5 146.5t-109.5 201t-40.5 243.5q0 157 58.5 293.5t157.5 229t230 145.5t275 53t275.5 -53t230.5 -145.5
t158 -229t59 -293.5q0 -128 -40.5 -243.5t-109.5 -201t-159.5 -146.5t-192.5 -91h477v-74h-596v111q107 18 203.5 72.5t170.5 136.5t117.5 195t43.5 241q0 141 -52.5 263.5t-140.5 205t-203.5 129.5t-240.5 47z" />
    <glyph glyph-name="uni2160" unicode="&#x2160;" horiz-adv-x="960" 
d="M872 1327v-76h-350v-1173h350v-78h-784v78h350v1173h-350v76h784z" />
    <glyph glyph-name="uni2161" unicode="&#x2161;" horiz-adv-x="1501" 
d="M1413 78v-78h-1325v78h342v1173h-342v76h1325v-76h-344v-1173h344zM985 78v1173h-471v-1173h471z" />
    <glyph glyph-name="uni2162" unicode="&#x2162;" horiz-adv-x="2048" 
d="M1960 78v-78h-1872v78h342v1173h-342v76h1872v-76h-342v-1173h342zM1534 78v1173h-467v-1173h467zM514 1251v-1173h467v1173h-467z" />
    <glyph glyph-name="uni2163" unicode="&#x2163;" horiz-adv-x="1984" 
d="M1894 78v-78h-1806v78h336v1173h-336v76h1806v-76h-233l-404 -1173h637zM508 1251v-1173h608l-399 1173h-209zM1190 115l381 1136h-762z" />
    <glyph glyph-name="uni2164" unicode="&#x2164;" horiz-adv-x="1564" 
d="M1479 1327v-76h-226l-403 -1173h620v-78h-1374v78h615l-402 1173h-223v76h1393zM782 115l383 1136h-764z" />
    <glyph glyph-name="uni2165" unicode="&#x2165;" horiz-adv-x="1984" 
d="M1896 78v-78h-1806v78h635l-401 1173h-234v76h1806v-76h-307v-1173h307zM1268 1251l-404 -1173h641v1173h-237zM797 115l383 1136h-764z" />
    <glyph glyph-name="uni2166" unicode="&#x2166;" horiz-adv-x="2574" 
d="M2486 78v-78h-2396v78h633l-399 1173h-234v76h2396v-76h-344v-1173h344zM2058 78v1173h-469v-1173h469zM1268 1251l-404 -1173h639v1173h-235zM797 115l381 1136h-762z" />
    <glyph glyph-name="uni2167" unicode="&#x2167;" horiz-adv-x="3084" 
d="M2996 78v-78h-2906v78h631l-397 1173h-234v76h2906v-76h-340v-1173h340zM1583 1251v-1173h453v1173h-453zM2120 1251v-1173h452v1173h-452zM1262 1251l-402 -1173h639v1173h-237zM793 115l378 1136h-755z" />
    <glyph glyph-name="uni2168" unicode="&#x2168;" horiz-adv-x="1923" 
d="M1835 78v-78h-1747v78h336v1173h-336v76h1745v-76h-207l-414 -592l412 -581h211zM1116 659l-414 592h-194v-1173h194zM799 1251l364 -524l367 524h-731zM1163 592l-362 -514h725z" />
    <glyph glyph-name="uni2169" unicode="&#x2169;" horiz-adv-x="1497" 
d="M1407 1327v-76h-193l-419 -600l405 -573h207v-78h-1317v78h201l407 573l-419 600h-189v76h1317zM375 1251l370 -532l373 532h-743zM745 584l-358 -506h715z" />
    <glyph glyph-name="uni216C" unicode="&#x216c;" horiz-adv-x="1265" 
d="M1176 561v-561h-1088v78h309v1173h-309v76h723v-76h-330v-1173h609v483h86z" />
    <glyph glyph-name="uni216D" unicode="&#x216d;" horiz-adv-x="1409" 
d="M735 -23q-126 0 -238.5 45.5t-199.5 130.5t-137.5 217t-50.5 294t51 294.5t138 217.5t198 130.5t235 45.5q298 0 438 -246v221h84v-430h-84q-34 176 -142.5 277.5t-295.5 101.5q-110 0 -206.5 -40t-171 -115t-117.5 -193t-43 -264t42 -263.5t115.5 -193t171 -115
t209.5 -39.5q100 0 180 29.5t133 82.5t86.5 121t47.5 150h84v-436h-84v229q-60 -111 -168.5 -181.5t-274.5 -70.5z" />
    <glyph glyph-name="uni216E" unicode="&#x216e;" horiz-adv-x="1421" 
d="M88 1327h596q126 0 238.5 -43.5t199.5 -125t138 -209.5t51 -287q0 -127 -33.5 -235t-92.5 -186t-139.5 -132.5t-174 -81.5t-195.5 -27h-588v78h320v1173h-320v76zM489 78h189q109 0 206.5 37.5t174 108t121.5 184t45 254.5t-43.5 254.5t-119 185.5t-173.5 110.5
t-209 38.5h-191v-1173z" />
    <glyph glyph-name="uni216F" unicode="&#x216f;" horiz-adv-x="2105" 
d="M489 1327l558 -1214l557 1214h409v-76h-287v-1173h297v-78h-639v78h258v1134l-559 -1212h-73l-559 1212v-1134h274v-78h-639v78h283v1173h-283v76h403z" />
    <glyph glyph-name="arrowleft" unicode="&#x2190;" horiz-adv-x="2062" 
d="M459 905v-272h1437v-74h-1437v-272l-367 309z" />
    <glyph glyph-name="arrowup" unicode="&#x2191;" horiz-adv-x="823" 
d="M375 -303v1515h-287l324 426l323 -426h-286v-1515h-74z" />
    <glyph glyph-name="arrowright" unicode="&#x2192;" horiz-adv-x="2062" 
d="M1604 633v272l366 -309l-366 -309v272h-1438v74h1438z" />
    <glyph glyph-name="arrowdown" unicode="&#x2193;" horiz-adv-x="819" 
d="M373 94v1516h73v-1516h287l-323 -426l-324 426h287z" />
    <glyph glyph-name="uni2196" unicode="&#x2196;" horiz-adv-x="1638" 
d="M1528 -16l-1211 1210l-206 -207v465h462l-204 -205l1212 -1210z" />
    <glyph glyph-name="uni2197" unicode="&#x2197;" horiz-adv-x="1638" 
d="M1321 1194l-1210 -1210l-54 53l1213 1210l-205 205h463v-465z" />
    <glyph glyph-name="uni2198" unicode="&#x2198;" horiz-adv-x="1640" 
d="M113 1468l1210 -1210l207 207v-465h-463l205 205l-1213 1210z" />
    <glyph glyph-name="uni2199" unicode="&#x2199;" horiz-adv-x="1640" 
d="M317 258l1211 1210l53 -53l-1212 -1210l204 -205h-462v465z" />
    <glyph glyph-name="uni21A9" unicode="&#x21a9;" horiz-adv-x="1701" 
d="M1198 551h-758v-272l-366 309l366 309v-272h758q135 0 232.5 88t97.5 225q0 133 -95 224t-229 91h-315v74h315q165 0 281.5 -113t116.5 -276q0 -113 -57 -202.5t-149 -137t-198 -47.5z" />
    <glyph glyph-name="uni21B0" unicode="&#x21b0;" horiz-adv-x="1466" 
d="M1292 1237v-1237h-73v1163h-830v-239l-330 276l330 277v-240h903z" />
    <glyph glyph-name="uni21B1" unicode="&#x21b1;" horiz-adv-x="1466" 
d="M174 0v1237h903v240l330 -277l-330 -276v239h-829v-1163h-74z" />
    <glyph glyph-name="uni21B2" unicode="&#x21b2;" horiz-adv-x="1472" 
d="M1298 1452v-1237h-903v-240l-329 277l329 276v-239h830v1163h73z" />
    <glyph glyph-name="uni21B3" unicode="&#x21b3;" horiz-adv-x="1472" 
d="M174 215v1237h74v-1163h829v239l330 -276l-330 -277v240h-903z" />
    <glyph glyph-name="uni21B4" unicode="&#x21b4;" horiz-adv-x="1523" 
d="M72 1452h1138v-1147h240l-276 -330l-277 330h240v1073h-1065v74z" />
    <glyph glyph-name="uni21B5" unicode="&#x21b5;" horiz-adv-x="2119" 
d="M346 358l-280 369h243q0 153 59.5 291.5t160 239t239 160t291.5 59.5q194 0 371 -99l-33 -65q-155 90 -338 90q-137 0 -262.5 -53.5t-216 -144t-144 -216t-53.5 -262.5h244zM2052 727h-244q0 -153 -59.5 -291.5t-159.5 -239t-239 -160t-291 -59.5q-194 0 -371 99l33 65
q155 -90 338 -90q137 0 262.5 53.5t216 144t144 216t53.5 262.5h-244l281 369z" />
    <glyph glyph-name="uni21C6" unicode="&#x21c6;" horiz-adv-x="2099" 
d="M481 1415v-272h1438v-74h-1438v-272l-366 309zM1616 385v272l366 -309l-366 -309v272h-1438v74h1438z" />
    <glyph glyph-name="partialdiff" unicode="&#x2202;" horiz-adv-x="1228" 
d="M1032 690q-1 111 -16.5 207.5t-55.5 191.5t-101.5 162t-162 108.5t-229.5 41.5q-153 0 -285 -66l-26 70q144 72 331 72q157 0 279.5 -61t197.5 -168t113.5 -245.5t38.5 -300.5q0 -119 -20 -225t-63 -198.5t-105.5 -159.5t-152.5 -105.5t-200 -38.5q-201 0 -338 132
t-137 344q0 207 137.5 338t342.5 131q143 0 262.5 -61.5t189.5 -168.5zM590 846q-181 0 -294.5 -113t-113.5 -287t114.5 -284.5t283.5 -110.5q89 0 162.5 31.5t123 83t85 121t52.5 143t21 150.5q-68 130 -182 198t-252 68z" />
    <glyph glyph-name="Delta" unicode="&#x2206;" horiz-adv-x="1335" 
d="M66 0l557 1452h86l561 -1452h-1204zM666 1343l-480 -1265h963z" />
    <glyph glyph-name="product" unicode="&#x220f;" horiz-adv-x="1368" 
d="M1202 0h-84v1376h-866v-1376h-86v1452h1036v-1452z" />
    <glyph glyph-name="summation" unicode="&#x2211;" horiz-adv-x="1187" 
d="M92 0v78l631 653l-631 643v78h981v-80h-868l633 -641l-641 -651h876v-80h-981z" />
    <glyph glyph-name="minus" unicode="&#x2212;" horiz-adv-x="1183" 
d="M1034 555h-884v70h884v-70z" />
    <glyph glyph-name="uni2215" unicode="&#x2215;" horiz-adv-x="718" 
d="M711 1327l-643 -1327h-82l643 1327h82z" />
    <glyph glyph-name="uni2219" unicode="&#x2219;" horiz-adv-x="458" 
d="M145 582q0 36 24 60t60 24t60 -24t24 -60t-24 -60t-60 -24t-60 24t-24 60z" />
    <glyph glyph-name="radical" unicode="&#x221a;" horiz-adv-x="1312" 
d="M1303 1649h-267l-551 -1649h-75l-365 1047h94l310 -906l522 1585h332v-77z" />
    <glyph glyph-name="infinity" unicode="&#x221e;" horiz-adv-x="1671" 
d="M795 594q-172 256 -349 256q-104 0 -177.5 -77t-73.5 -183q0 -104 74 -180t177 -76q174 0 349 260zM877 594q81 -121 166 -190.5t182 -69.5q104 0 178 76.5t74 179.5q0 106 -74 183t-178 77q-176 0 -348 -256zM836 535q-82 -123 -182 -198t-210 -75q-133 0 -228 97.5
t-95 232.5t95 232.5t228 97.5q110 0 210 -75t182 -198q82 123 181.5 198t209.5 75q133 0 228 -97.5t95 -232.5t-95 -232.5t-228 -97.5q-110 0 -209.5 75t-181.5 198z" />
    <glyph glyph-name="integral" unicode="&#x222b;" horiz-adv-x="630" 
d="M274 -78v1225q0 143 75 224t202 81h47v-74h-43q-91 0 -145 -61.5t-54 -173.5v-1227q0 -144 -72.5 -224.5t-197.5 -80.5h-53v74h43q91 0 144.5 62.5t53.5 174.5z" />
    <glyph glyph-name="approxequal" unicode="&#x2248;" horiz-adv-x="1241" 
d="M1044 449l48 -41q-51 -70 -111 -104t-141 -34q-76 0 -193 60l-96 51q-85 45 -152 45q-64 0 -111 -25.5t-89 -81.5l-49 43q54 71 111.5 105.5t137.5 34.5q70 0 187 -60l94 -49q90 -49 168 -49q63 0 108.5 25t87.5 80zM1044 844l48 -41q-51 -70 -111 -103.5t-141 -33.5
q-78 0 -193 59l-96 51q-85 45 -152 45q-65 0 -111.5 -25.5t-88.5 -80.5l-49 43q54 71 111.5 105t137.5 34q72 0 187 -59l94 -50q90 -49 168 -49q63 0 108.5 25t87.5 80z" />
    <glyph glyph-name="notequal" unicode="&#x2260;" horiz-adv-x="1169" 
d="M137 823h582l170 230h86l-170 -230h227v-71h-280l-240 -324h520v-72h-573l-174 -235h-86l174 235h-236v72h289l240 324h-529v71z" />
    <glyph glyph-name="lessequal" unicode="&#x2264;" horiz-adv-x="1155" 
d="M166 219h819v-69h-819v69zM166 676v72l819 303v-78l-723 -262l723 -258v-80z" />
    <glyph glyph-name="greaterequal" unicode="&#x2265;" horiz-adv-x="1155" 
d="M170 219h819v-69h-819v69zM989 748v-72l-819 -303v80l723 258l-723 262v78z" />
    <glyph glyph-name="dotmath" unicode="&#x22c5;" horiz-adv-x="458" 
d="M145 582q0 36 24 60t60 24t60 -24t24 -60t-24 -60t-60 -24t-60 24t-24 60z" />
    <glyph glyph-name="uni24C5" unicode="&#x24c5;" horiz-adv-x="1685" 
d="M698 715h191q86 0 138 48t52 128q0 82 -52 131t-138 49h-191v-356zM897 655h-199v-340h-67v815h266q111 0 181.5 -67.5t70.5 -169.5t-70.5 -170t-181.5 -68zM172 725q0 -188 88.5 -345t243 -248t338.5 -91t337.5 91t242.5 248t89 345t-89 346t-242.5 249t-337.5 91
q-138 0 -262.5 -53.5t-213.5 -145.5t-141.5 -219t-52.5 -268zM100 725q0 205 98.5 378t269.5 273.5t374 100.5q152 0 290 -59.5t237 -160t157.5 -240t58.5 -292.5t-58.5 -291.5t-157.5 -239t-237 -160t-290 -59.5q-203 0 -374 100.5t-269.5 273t-98.5 376.5z" />
    <glyph glyph-name="filledbox" unicode="&#x25a0;" horiz-adv-x="1763" 
d="M164 0v1452h1435v-1452h-1435z" />
    <glyph glyph-name="H22073" unicode="&#x25a1;" horiz-adv-x="1763" 
d="M1599 0h-1435v1452h1435v-1452zM236 1384v-1316h1292v1316h-1292z" />
    <glyph glyph-name="uni25AF" unicode="&#x25af;" horiz-adv-x="1210" 
d="M1047 0h-883v1452h883v-1452zM240 1380v-1310h731v1310h-731z" />
    <glyph glyph-name="triagup" unicode="&#x25b2;" horiz-adv-x="1837" 
d="M922 1489l858 -1489h-1725z" />
    <glyph glyph-name="uni25B3" unicode="&#x25b3;" horiz-adv-x="1837" 
d="M922 1489l858 -1489h-1725zM1657 68l-737 1278l-742 -1278h1479z" />
    <glyph glyph-name="lozenge" unicode="&#x25ca;" horiz-adv-x="1089" 
d="M580 0h-70l-432 725l434 727h66l434 -727zM166 725l379 -625l379 625l-379 627z" />
    <glyph glyph-name="circle" unicode="&#x25cb;" horiz-adv-x="1718" 
d="M106 725q0 153 59.5 292.5t160 240.5t240 161t292.5 60t292.5 -60t240.5 -161t161 -240.5t60 -292.5t-60 -292.5t-161 -240t-240.5 -160t-292.5 -59.5t-292.5 59.5t-240 160t-160 240t-59.5 292.5zM180 725q0 -139 53.5 -265t144.5 -217.5t216.5 -145.5t263.5 -54
q139 0 265 54t217 145.5t144.5 217.5t53.5 265t-53.5 265t-144.5 217.5t-217 145.5t-265 54q-138 0 -263.5 -54t-216.5 -145.5t-144.5 -217.5t-53.5 -265z" />
    <glyph glyph-name="H18533" unicode="&#x25cf;" horiz-adv-x="1718" 
d="M106 725q0 153 59.5 292.5t160 240.5t240 161t292.5 60t292.5 -60t240.5 -161t161 -240.5t60 -292.5t-60 -292.5t-161 -240t-240.5 -160t-292.5 -59.5t-292.5 59.5t-240 160t-160 240t-59.5 292.5z" />
    <glyph glyph-name="uni262E" unicode="&#x262e;" horiz-adv-x="1697" 
d="M311 315l496 496v598q-131 -7 -247.5 -63t-200 -147t-132.5 -214.5t-49 -259.5q0 -232 133 -410zM1518 725q0 136 -49.5 259.5t-134 214.5t-202.5 147t-249 63v-598l497 -498q138 185 138 412zM106 725q0 153 58 292.5t157 240t236 160t289 59.5t290.5 -59.5t238 -160
t158 -240t58.5 -292.5q0 -152 -58.5 -290.5t-158 -239.5t-238 -160.5t-290.5 -59.5t-289 59.5t-236 160.5t-157 239.5t-58 290.5zM883 707v-664q131 6 247.5 61.5t204.5 149.5zM807 707l-451 -449q86 -96 203 -152.5t248 -62.5v664z" />
    <glyph glyph-name="uni2713" unicode="&#x2713;" horiz-adv-x="2013" 
d="M1956 1374l-1305 -1405l-573 641l51 49l526 -581l1250 1345z" />
    <glyph glyph-name="uni2715" unicode="&#x2715;" horiz-adv-x="1536" 
d="M1405 -6l-637 649l-635 -649l-51 51l635 649l-635 652l51 51l635 -649l635 649l53 -51l-637 -652l637 -649z" />
    <glyph glyph-name="uni2780" unicode="&#x2780;" horiz-adv-x="1695" 
d="M174 725q0 -187 89 -344t243.5 -248.5t337.5 -91.5q184 0 339.5 91.5t245 248.5t89.5 344q0 188 -89.5 345.5t-245 249t-339.5 91.5q-183 0 -337.5 -91.5t-243.5 -249t-89 -345.5zM106 725q0 122 37 236.5t105 207t158.5 162.5t203.5 108t234 38q152 0 290 -59.5
t237.5 -160.5t158.5 -240t59 -292q0 -203 -99.5 -375.5t-271.5 -273.5t-374 -101q-151 0 -288 59.5t-235.5 160.5t-156.5 239.5t-58 290.5zM643 872v66q73 17 119 61t59 101h74v-742h-74v607q-17 -27 -71.5 -58t-106.5 -35z" />
    <glyph glyph-name="uni2781" unicode="&#x2781;" horiz-adv-x="1695" 
d="M174 725q0 -187 89 -344t243.5 -248.5t337.5 -91.5q184 0 339.5 91.5t245 248.5t89.5 344q0 188 -89.5 345.5t-245 249t-339.5 91.5q-183 0 -337.5 -91.5t-243.5 -249t-89 -345.5zM106 725q0 122 37 236.5t105 207t158.5 162.5t203.5 108t234 38q152 0 290 -59.5
t237.5 -160.5t158.5 -240t59 -292q0 -203 -99.5 -375.5t-271.5 -273.5t-374 -101q-151 0 -288 59.5t-235.5 160.5t-156.5 239.5t-58 290.5zM664 831l-74 11q-4 20 -4 39q0 98 71 163.5t187 65.5q112 0 180 -62.5t68 -154.5q0 -127 -150 -221l-151 -94q-102 -64 -113 -154
h426v-66h-518q0 167 153 265l152 94q127 79 127 176q0 64 -48.5 110t-125.5 46q-81 0 -133 -48.5t-52 -128.5q0 -6 5 -41z" />
    <glyph glyph-name="uni2782" unicode="&#x2782;" horiz-adv-x="1695" 
d="M174 725q0 -187 89 -344t243.5 -248.5t337.5 -91.5q184 0 339.5 91.5t245 248.5t89.5 344q0 188 -89.5 345.5t-245 249t-339.5 91.5q-183 0 -337.5 -91.5t-243.5 -249t-89 -345.5zM106 725q0 122 37 236.5t105 207t158.5 162.5t203.5 108t234 38q152 0 290 -59.5
t237.5 -160.5t158.5 -240t59 -292q0 -203 -99.5 -375.5t-271.5 -273.5t-374 -101q-151 0 -288 59.5t-235.5 160.5t-156.5 239.5t-58 290.5zM791 731l-37 60l258 243h-428v66h524v-64l-254 -239q16 2 27 2q102 0 172.5 -56t70.5 -161q0 -100 -76 -168t-198 -68
q-119 0 -197.5 62.5t-87.5 158.5l70 23q4 -82 67 -131t146 -49q85 0 143 49t58 123q0 75 -53.5 117t-135.5 42q-36 0 -69 -10z" />
    <glyph glyph-name="uni2783" unicode="&#x2783;" horiz-adv-x="1695" 
d="M174 725q0 -187 89 -344t243.5 -248.5t337.5 -91.5q184 0 339.5 91.5t245 248.5t89.5 344q0 188 -89.5 345.5t-245 249t-339.5 91.5q-183 0 -337.5 -91.5t-243.5 -249t-89 -345.5zM106 725q0 122 37 236.5t105 207t158.5 162.5t203.5 108t234 38q152 0 290 -59.5
t237.5 -160.5t158.5 -240t59 -292q0 -203 -99.5 -375.5t-271.5 -273.5t-374 -101q-151 0 -288 59.5t-235.5 160.5t-156.5 239.5t-58 290.5zM483 539v77l371 484h98v-496h152v-65h-152v-179h-73v179h-396zM879 604v416l-322 -416h322z" />
    <glyph glyph-name="uni2784" unicode="&#x2784;" horiz-adv-x="1695" 
d="M174 725q0 -187 89 -344t243.5 -248.5t337.5 -91.5q184 0 339.5 91.5t245 248.5t89.5 344q0 188 -89.5 345.5t-245 249t-339.5 91.5q-183 0 -337.5 -91.5t-243.5 -249t-89 -345.5zM106 725q0 122 37 236.5t105 207t158.5 162.5t203.5 108t234 38q152 0 290 -59.5
t237.5 -160.5t158.5 -240t59 -292q0 -203 -99.5 -375.5t-271.5 -273.5t-374 -101q-151 0 -288 59.5t-235.5 160.5t-156.5 239.5t-58 290.5zM559 559l68 27q8 -75 65 -124.5t139 -49.5q87 0 143 51.5t56 130.5q0 81 -54.5 131.5t-141.5 50.5q-104 0 -179 -78l-67 25l100 377
h391v-66h-340l-69 -264q70 70 180 70q113 0 184.5 -69t71.5 -175t-76 -178t-199 -72q-109 0 -186 63t-86 150z" />
    <glyph glyph-name="uni2785" unicode="&#x2785;" horiz-adv-x="1695" 
d="M174 725q0 -187 89 -344t243.5 -248.5t337.5 -91.5q184 0 339.5 91.5t245 248.5t89.5 344q0 188 -89.5 345.5t-245 249t-339.5 91.5q-183 0 -337.5 -91.5t-243.5 -249t-89 -345.5zM106 725q0 122 37 236.5t105 207t158.5 162.5t203.5 108t234 38q152 0 290 -59.5
t237.5 -160.5t158.5 -240t59 -292q0 -203 -99.5 -375.5t-271.5 -273.5t-374 -101q-151 0 -288 59.5t-235.5 160.5t-156.5 239.5t-58 290.5zM594 705q19 60 85.5 102.5t149.5 42.5q112 0 187.5 -70t75.5 -182q0 -111 -80.5 -181.5t-198.5 -70.5q-131 0 -212 93t-81 253
q0 200 109 310t270 110q108 0 172 -39l-20 -61q-61 35 -150 35q-98 0 -168 -48t-103 -123.5t-36 -170.5zM616 600q0 -81 59.5 -134.5t139.5 -53.5q83 0 142 53t59 135q0 83 -58.5 134.5t-142.5 51.5q-81 0 -140 -52t-59 -134z" />
    <glyph glyph-name="uni2786" unicode="&#x2786;" horiz-adv-x="1695" 
d="M174 725q0 -187 89 -344t243.5 -248.5t337.5 -91.5q184 0 339.5 91.5t245 248.5t89.5 344q0 188 -89.5 345.5t-245 249t-339.5 91.5q-183 0 -337.5 -91.5t-243.5 -249t-89 -345.5zM106 725q0 122 37 236.5t105 207t158.5 162.5t203.5 108t234 38q152 0 290 -59.5
t237.5 -160.5t158.5 -240t59 -292q0 -203 -99.5 -375.5t-271.5 -273.5t-374 -101q-151 0 -288 59.5t-235.5 160.5t-156.5 239.5t-58 290.5zM1139 1100v-70q-66 -57 -118.5 -118t-102.5 -142.5t-84 -185.5t-48 -224h-77q48 408 342 674h-480v66h568z" />
    <glyph glyph-name="uni2787" unicode="&#x2787;" horiz-adv-x="1695" 
d="M174 725q0 -187 89 -344t243.5 -248.5t337.5 -91.5q184 0 339.5 91.5t245 248.5t89.5 344q0 188 -89.5 345.5t-245 249t-339.5 91.5q-183 0 -337.5 -91.5t-243.5 -249t-89 -345.5zM106 725q0 122 37 236.5t105 207t158.5 162.5t203.5 108t234 38q152 0 290 -59.5
t237.5 -160.5t158.5 -240t59 -292q0 -203 -99.5 -375.5t-271.5 -273.5t-374 -101q-151 0 -288 59.5t-235.5 160.5t-156.5 239.5t-58 290.5zM844 772q80 0 130 39t50 100q0 63 -49 102.5t-131 39.5q-83 0 -130.5 -39.5t-47.5 -102.5q0 -62 49.5 -100.5t128.5 -38.5zM844 412
q91 0 143.5 41.5t52.5 105.5q0 67 -52 109.5t-144 42.5q-91 0 -144 -43t-53 -109q0 -63 53.5 -105t143.5 -42zM844 346q-125 0 -199 60t-74 149q0 66 44 116.5t116 69.5q-61 18 -100 65t-39 107q0 87 69.5 144t182.5 57t183.5 -57t70.5 -144q0 -60 -40 -107t-102 -65
q72 -19 116 -69.5t44 -116.5q0 -90 -73 -149.5t-199 -59.5z" />
    <glyph glyph-name="uni2788" unicode="&#x2788;" horiz-adv-x="1695" 
d="M174 725q0 -187 89 -344t243.5 -248.5t337.5 -91.5q184 0 339.5 91.5t245 248.5t89.5 344q0 188 -89.5 345.5t-245 249t-339.5 91.5q-183 0 -337.5 -91.5t-243.5 -249t-89 -345.5zM106 725q0 122 37 236.5t105 207t158.5 162.5t203.5 108t234 38q152 0 290 -59.5
t237.5 -160.5t158.5 -240t59 -292q0 -203 -99.5 -375.5t-271.5 -273.5t-374 -101q-151 0 -288 59.5t-235.5 160.5t-156.5 239.5t-58 290.5zM1077 764q-22 -64 -86.5 -105t-142.5 -41q-110 0 -186 69t-76 179q0 106 80 177t194 71q131 0 211 -92t80 -248q0 -192 -91.5 -310
t-273.5 -118q-106 0 -184 47l21 62q68 -43 161 -43q136 0 214.5 91.5t78.5 260.5zM1055 866q0 81 -58 132t-139 51q-82 0 -139 -51t-57 -132t57 -132.5t139 -51.5t139.5 51.5t57.5 132.5z" />
    <glyph glyph-name="uniE000" unicode="&#xe000;" horiz-adv-x="1523" 
d="M313 1452h1139v-74h-1065v-1073h240l-277 -330l-276 330h239v1147z" />
    <glyph glyph-name="uniE002" unicode="&#xe002;" horiz-adv-x="1937" 
d="M1247 1378l-33 -65q-155 90 -337 90q-137 0 -262.5 -53.5t-216 -144t-144 -216t-53.5 -262.5t53.5 -262.5t144 -216t216 -144t262.5 -53.5q183 0 338.5 90.5t246 246.5t90.5 339h-243l280 369l281 -369h-244q0 -153 -59.5 -291.5t-159.5 -239t-239 -160t-291 -59.5
q-153 0 -291.5 59.5t-239 160t-160 239t-59.5 291.5t59.5 291.5t160 239t239 160t291.5 59.5q193 0 370 -99z" />
    <glyph glyph-name="commaaccent" unicode="&#xf6c3;" horiz-adv-x="374" 
d="M115 1319q0 33 22.5 53.5t55.5 20.5q34 0 60 -27.5t26 -77.5q0 -93 -52.5 -150t-130.5 -65v51q52 8 88 44t37 87q-12 -12 -35 -12q-32 0 -51.5 21.5t-19.5 54.5z" />
    <glyph glyph-name="uniFB00" unicode="&#xfb00;" horiz-adv-x="1234" 
d="M1204 897h-291v-897h-82v897h-512v-897h-81v897h-211v74h211v227q0 146 74 222.5t200 76.5q62 0 109 -20v-74q-42 20 -99 20q-93 0 -148 -56.5t-55 -174.5v-221h512v227q0 146 74.5 222.5t200.5 76.5q61 0 108 -20v-74q-42 20 -98 20q-93 0 -148 -56.5t-55 -174.5v-221
h291v-74z" />
    <glyph glyph-name="fi" unicode="&#xfb01;" horiz-adv-x="1083" 
d="M913 0h-82v897h-512v-897h-81v897h-211v74h211v227q0 146 74 222.5t200 76.5q62 0 109 -20v-74q-42 20 -99 20q-93 0 -148 -56.5t-55 -174.5v-221h594v-971zM793 1395q0 34 23 58t56 24q32 0 56 -24t24 -58q0 -32 -24 -55t-56 -23q-34 0 -56.5 22.5t-22.5 55.5z" />
    <glyph glyph-name="fl" unicode="&#xfb02;" horiz-adv-x="1083" 
d="M319 897v-897h-81v897h-211v74h211v227q0 146 74 222.5t200 76.5q62 0 109 -20v-74q-42 20 -99 20q-93 0 -148 -56.5t-55 -174.5v-221h512v506h82v-1477h-82v897h-512z" />
    <glyph glyph-name="uniFB03" unicode="&#xfb03;" horiz-adv-x="1677" 
d="M1425 897h-512v-897h-82v897h-512v-897h-81v897h-211v74h211v227q0 146 74 222.5t200 76.5q62 0 109 -20v-74q-42 20 -99 20q-93 0 -148 -56.5t-55 -174.5v-221h512v227q0 146 74.5 222.5t200.5 76.5q61 0 108 -20v-74q-42 20 -98 20q-93 0 -148 -56.5t-55 -174.5v-221
h594v-971h-82v897zM1386 1395q0 34 23 58t57 24q32 0 56 -24t24 -58q0 -32 -24 -55t-56 -23q-34 0 -57 23t-23 55z" />
    <glyph glyph-name="uniFB04" unicode="&#xfb04;" horiz-adv-x="1677" 
d="M1507 0h-82v897h-512v-897h-82v897h-512v-897h-81v897h-211v74h211v227q0 146 74 222.5t200 76.5q62 0 109 -20v-74q-42 20 -99 20q-93 0 -148 -56.5t-55 -174.5v-221h512v227q0 146 74.5 222.5t200.5 76.5q61 0 108 -20v-74q-42 20 -98 20q-93 0 -148 -56.5t-55 -174.5
v-221h512v506h82v-1477z" />
    <glyph glyph-name="uniFEFF" unicode="&#xfeff;" horiz-adv-x="0" 
 />
    <glyph glyph-name="i.latn_TRK" horiz-adv-x="421" 
d="M252 0h-82v971h82v-971zM131 1395q0 34 23 58t57 24q32 0 56 -24t24 -58q0 -32 -24 -55t-56 -23q-34 0 -57 23t-23 55z" />
    <glyph glyph-name="Ldot.latn_CAT" horiz-adv-x="1120" 
d="M627 764q0 32 23 55t55 23t54.5 -23t22.5 -55t-22.5 -55t-54.5 -23t-55 23t-23 55zM1063 0h-848v1452h88v-1372h760v-80z" />
    <glyph glyph-name="ldot.latn_CAT" horiz-adv-x="485" 
d="M367 637q0 32 22.5 55t54.5 23t55 -23t23 -55t-23 -55t-55 -23t-54.5 23t-22.5 55zM252 0h-82v1477h82v-1477z" />
    <glyph glyph-name="zero.numr" horiz-adv-x="770" 
d="M385 571q-142 0 -221 107q-76 104 -76 276q0 173 76 277q78 106 221 106q141 0 223 -106q74 -101 74 -277q0 -175 -74 -276q-82 -107 -223 -107zM385 1272q-61 0 -106 -27.5t-69 -74.5t-35 -100.5t-11 -115.5q0 -49 6.5 -92.5t22.5 -85.5t40.5 -72t63.5 -48.5t88 -18.5
t88 18.5t63.5 48.5t40.5 72t22.5 85.5t6.5 92.5q0 62 -11 115.5t-35 100.5t-69 74.5t-106 27.5z" />
    <glyph glyph-name="one.numr" horiz-adv-x="415" 
d="M53 1100v65q73 17 119 61t59 101h74v-741h-74v606q-17 -27 -71 -57.5t-107 -34.5z" />
    <glyph glyph-name="two.numr" horiz-adv-x="686" 
d="M164 1059l-74 10q-4 20 -4 39q0 98 71 163.5t187 65.5q112 0 180 -62.5t68 -154.5q0 -127 -150 -221l-151 -94q-102 -64 -113 -154h426v-65h-518q0 165 154 264l151 94q127 79 127 176q0 64 -48.5 110t-125.5 46q-81 0 -132.5 -48t-51.5 -128q0 -13 4 -41z" />
    <glyph glyph-name="three.numr" horiz-adv-x="716" 
d="M299 958l-37 60l258 244h-428v65h524v-63l-254 -240q16 2 27 2q102 0 173 -56.5t71 -160.5q0 -100 -76.5 -168t-198.5 -68q-118 0 -196.5 62.5t-87.5 159.5l69 22q4 -82 67 -131t146 -49q85 0 143 49t58 123q0 75 -53.5 117.5t-134.5 42.5q-33 0 -70 -11z" />
    <glyph glyph-name="four.numr" horiz-adv-x="737" 
d="M57 766v78l371 483h98v-496h152v-65h-152v-178h-73v178h-396zM453 831v416l-322 -416h322z" />
    <glyph glyph-name="five.numr" horiz-adv-x="694" 
d="M68 786l67 27q8 -74 65.5 -124t139.5 -50q87 0 143 51.5t56 130.5q0 81 -55 132t-142 51q-103 0 -178 -78l-68 24l101 377h391v-65h-340l-70 -265q70 70 180 70q113 0 184.5 -69t71.5 -175t-75.5 -178t-198.5 -72q-109 0 -186 63t-86 150z" />
    <glyph glyph-name="six.numr" horiz-adv-x="737" 
d="M160 932q19 60 85.5 102.5t149.5 42.5q112 0 187 -70t75 -182q0 -111 -80 -181.5t-198 -70.5q-131 0 -212 93.5t-81 253.5q0 102 30.5 183t83 132t120.5 77.5t145 26.5q108 0 172 -39l-21 -61q-61 35 -149 35q-98 0 -168 -48t-103 -123.5t-36 -170.5zM182 827
q0 -81 59.5 -134.5t139.5 -53.5q83 0 142 53t59 135q0 83 -58.5 135t-142.5 52q-81 0 -140 -52.5t-59 -134.5z" />
    <glyph glyph-name="seven.numr" horiz-adv-x="657" 
d="M618 1327v-70q-66 -57 -118 -118t-102 -142t-84 -185t-48 -224h-78q48 408 342 674h-479v65h567z" />
    <glyph glyph-name="eight.numr" horiz-adv-x="718" 
d="M358 999q80 0 130.5 39.5t50.5 100.5q0 62 -49.5 101.5t-131.5 39.5q-83 0 -130.5 -39t-47.5 -102q0 -62 49.5 -101t128.5 -39zM358 639q91 0 144 41.5t53 105.5q0 67 -52 109.5t-145 42.5q-91 0 -143.5 -42.5t-52.5 -109.5q0 -63 53 -105t143 -42zM358 573
q-125 0 -198.5 60t-73.5 149q0 67 44 117.5t116 69.5q-61 18 -100.5 65t-39.5 107q0 87 69.5 143.5t182.5 56.5t183.5 -56.5t70.5 -143.5q0 -60 -40 -107t-101 -65q72 -19 116 -69.5t44 -117.5q0 -90 -73.5 -149.5t-199.5 -59.5z" />
    <glyph glyph-name="nine.numr" horiz-adv-x="735" 
d="M573 991q-22 -64 -86 -104.5t-143 -40.5q-110 0 -186 69t-76 179q0 106 80 176.5t194 70.5q131 0 211 -92t80 -248q0 -192 -91 -310t-273 -118q-105 0 -185 48l21 61q68 -43 162 -43q136 0 214 91.5t78 260.5zM551 1094q0 81 -58 131.5t-139 50.5q-82 0 -139 -50.5
t-57 -131.5t57 -133t139 -52t139.5 52t57.5 133z" />
    <glyph glyph-name="zero.dnom" horiz-adv-x="776" 
d="M387 -14q-143 0 -221 106q-76 104 -76 277q0 172 76 276q79 107 221 107q141 0 223 -107q74 -101 74 -276q0 -176 -74 -277q-82 -106 -223 -106zM387 686q-49 0 -88 -18.5t-63.5 -48.5t-40.5 -72t-22.5 -85.5t-6.5 -92.5q0 -62 11 -115.5t35 -100.5t69 -74.5t106 -27.5
t106 27.5t69 74.5t35 100.5t11 115.5q0 49 -6.5 92.5t-22.5 85.5t-40.5 72t-63.5 48.5t-88 18.5z" />
    <glyph glyph-name="one.dnom" horiz-adv-x="423" 
d="M57 514v66q74 17 120 60.5t59 100.5h73v-741h-73v606q-17 -27 -71.5 -57.5t-107.5 -34.5z" />
    <glyph glyph-name="two.dnom" horiz-adv-x="692" 
d="M166 473l-74 10q-4 20 -4 39q0 98 71 164t187 66q112 0 180 -62.5t68 -154.5q0 -128 -150 -222l-151 -94q-103 -64 -113 -153h426v-66h-518q0 165 154 264l151 94q127 79 127 177q0 64 -48.5 109.5t-125.5 45.5q-81 0 -132.5 -48t-51.5 -128q0 -13 4 -41z" />
    <glyph glyph-name="three.dnom" horiz-adv-x="724" 
d="M303 373l-37 59l258 244h-428v65h525v-63l-254 -240q16 2 26 2q102 0 173 -56.5t71 -160.5q0 -100 -76.5 -167.5t-198.5 -67.5q-118 0 -196.5 62t-87.5 159l69 22q4 -82 67 -131t146 -49q85 0 143 49t58 123q0 75 -53.5 117.5t-134.5 42.5q-37 0 -70 -10z" />
    <glyph glyph-name="four.dnom" horiz-adv-x="745" 
d="M61 180v78l371 483h98v-495h152v-66h-152v-178h-73v178h-396zM457 246v416l-322 -416h322z" />
    <glyph glyph-name="five.dnom" horiz-adv-x="700" 
d="M70 201l67 26q8 -74 65.5 -124t139.5 -50q87 0 143 52t56 131q0 81 -55 131.5t-142 50.5q-103 0 -178 -78l-68 25l101 376h391v-65h-340l-70 -264q69 69 180 69q113 0 184.5 -68.5t71.5 -174.5t-75.5 -178t-198.5 -72q-109 0 -186 63t-86 150z" />
    <glyph glyph-name="six.dnom" horiz-adv-x="743" 
d="M164 346q19 60 85.5 103t149.5 43q112 0 187.5 -70t75.5 -182q0 -111 -80.5 -181.5t-198.5 -70.5q-131 0 -212 93t-81 253q0 200 109 310t270 110q108 0 172 -39l-20 -62q-61 35 -150 35q-98 0 -168 -48t-103 -123.5t-36 -170.5zM186 242q0 -81 59.5 -135t139.5 -54
q83 0 142 53.5t59 135.5q0 83 -58.5 134.5t-142.5 51.5q-81 0 -140 -52t-59 -134z" />
    <glyph glyph-name="seven.dnom" horiz-adv-x="661" 
d="M621 741v-69q-66 -57 -118.5 -118t-102.5 -142.5t-84 -185.5t-48 -224h-78q48 408 342 674h-479v65h568z" />
    <glyph glyph-name="eight.dnom" horiz-adv-x="724" 
d="M362 414q80 0 130.5 39t50.5 100q0 62 -49.5 101.5t-131.5 39.5q-83 0 -130.5 -39t-47.5 -102q0 -62 49.5 -100.5t128.5 -38.5zM362 53q91 0 144 42t53 106q0 67 -52 109t-145 42q-91 0 -143.5 -42.5t-52.5 -108.5q0 -63 53 -105.5t143 -42.5zM362 -12q-125 0 -198.5 60
t-73.5 149q0 66 44 116.5t116 69.5q-61 18 -100 65t-39 107q0 87 69 144t182 57t183.5 -57t70.5 -144q0 -60 -40 -107t-101 -65q72 -19 116 -69.5t44 -116.5q0 -90 -73.5 -149.5t-199.5 -59.5z" />
    <glyph glyph-name="nine.dnom" horiz-adv-x="739" 
d="M575 406q-22 -64 -86.5 -105t-142.5 -41q-110 0 -186 69t-76 179q0 106 80 177t194 71q131 0 211 -92t80 -248q0 -192 -91 -310t-273 -118q-107 0 -185 47l21 61q68 -43 162 -43q136 0 214 92t78 261zM553 508q0 81 -58 131.5t-139 50.5q-82 0 -139 -50.5t-57 -131.5
t57 -132.5t139 -51.5t139.5 51.5t57.5 132.5z" />
    <glyph glyph-name="space.frac" horiz-adv-x="108" 
 />
    <glyph glyph-name="a.ordn" horiz-adv-x="749" 
d="M549 967v57q-15 -21 -72 -29l-184 -30q-135 -23 -135 -140q0 -55 42 -94t119 -39q116 0 173 76t57 199zM82 823q0 83 52.5 133t146.5 64l196 31q72 10 72 69q0 73 -48.5 118.5t-133.5 45.5q-86 0 -140 -46t-65 -126l-68 18q11 97 86 158.5t185 61.5q127 0 192.5 -67.5
t65.5 -170.5v-346q0 -55 8 -121h-72q-8 46 -8 121q-28 -58 -91.5 -97.5t-148.5 -39.5q-107 0 -168 57t-61 137z" />
    <glyph glyph-name="b.ordn" horiz-adv-x="858" 
d="M205 793v-148h-72v1045h74v-498q26 63 91 110.5t163 47.5q143 0 227 -100t84 -257q0 -158 -86.5 -261t-226.5 -103q-96 0 -160 48.5t-94 115.5zM205 993q0 -129 68.5 -214t177.5 -85t177 85t68 214q0 127 -68 209t-177 82t-177.5 -82.5t-68.5 -208.5z" />
    <glyph glyph-name="c.ordn" horiz-adv-x="788" 
d="M420 1284q-111 0 -185.5 -82t-74.5 -213q0 -132 74.5 -213.5t185.5 -81.5q92 0 151 51.5t82 124.5l64 -28q-27 -89 -105 -151t-192 -62q-146 0 -241 100.5t-95 259.5q0 157 96 259t240 102q116 0 192 -60t101 -155l-66 -29q-20 75 -76.5 126.5t-150.5 51.5z" />
    <glyph glyph-name="d.ordn" horiz-adv-x="856" 
d="M651 993q0 126 -67 208.5t-176 82.5q-110 0 -178 -81.5t-68 -209.5q0 -129 68 -214t178 -85q109 0 176 85t67 214zM731 645h-72q-8 46 -8 121v25q-27 -64 -90 -113t-160 -49q-141 0 -228 103.5t-87 260.5q0 154 87 255.5t226 101.5q56 0 101.5 -15t74.5 -40.5t46 -49
t28 -49.5v494h74v-912q0 -71 8 -133z" />
    <glyph glyph-name="e.ordn" horiz-adv-x="800" 
d="M164 1038h477q0 106 -63.5 176t-174.5 70q-99 0 -166 -70.5t-73 -175.5zM653 866l64 -22q-31 -94 -109.5 -154.5t-189.5 -60.5q-142 0 -238 98t-96 264q0 158 92.5 258.5t224.5 100.5q149 0 233.5 -94t84.5 -248q0 -17 -2 -29h-557v-6q0 -124 76 -201.5t182 -77.5
q88 0 148 48.5t87 123.5z" />
    <glyph glyph-name="f.ordn" horiz-adv-x="491" 
d="M459 1268h-199v-623h-74v623h-145v65h145v142q0 105 54.5 161t146.5 56q41 0 78 -15v-63q-24 12 -68 12q-61 0 -99 -38.5t-38 -117.5v-137h199v-65z" />
    <glyph glyph-name="g.ordn" horiz-adv-x="833" 
d="M633 1016q0 115 -65.5 191.5t-170.5 76.5t-171 -76t-66 -192t66 -191t171 -75t170.5 75.5t65.5 190.5zM627 696v131q-24 -61 -84.5 -102t-153.5 -41q-134 0 -218.5 94.5t-84.5 237.5t85 238.5t218 95.5q94 0 154.5 -42.5t85.5 -105.5v131h71v-635q0 -52 -7.5 -97
t-28 -92.5t-54 -80.5t-90.5 -54.5t-131 -21.5q-123 0 -206 73t-97 183q9 2 34 9.5t38 9.5q9 -89 72 -149t157 -60q240 0 240 278z" />
    <glyph glyph-name="h.ordn" horiz-adv-x="800" 
d="M207 1065v-420h-74v1045h74v-473q27 57 84.5 95t138.5 38q118 0 182 -72t64 -182v-451h-76v438q0 88 -49 144.5t-143 56.5q-87 0 -141.5 -64t-59.5 -155z" />
    <glyph glyph-name="i.ordn" horiz-adv-x="339" 
d="M207 645h-74v688h74v-688zM170 1563q-28 0 -46 17.5t-18 45.5t18 46t46 18t45.5 -18t17.5 -46t-17.5 -45.5t-45.5 -17.5z" />
    <glyph glyph-name="j.ordn" horiz-adv-x="339" 
d="M170 1563q-28 0 -46 17.5t-18 45.5t18 46t46 18t45.5 -18t17.5 -46t-17.5 -45.5t-45.5 -17.5zM133 553v780h74v-784q0 -92 -50 -143.5t-130 -51.5q-41 0 -80 13v65q35 -12 67 -12q119 0 119 133z" />
    <glyph glyph-name="k.ordn" horiz-adv-x="722" 
d="M686 1333l-289 -282l305 -406h-94l-260 356l-141 -141v-215h-74v1045h74v-729l377 372h102z" />
    <glyph glyph-name="l.ordn" horiz-adv-x="339" 
d="M207 645h-74v1045h74v-1045z" />
    <glyph glyph-name="m.ordn" horiz-adv-x="1249" 
d="M649 1184q26 74 88.5 120t147.5 46q106 0 172.5 -67.5t66.5 -180.5v-457h-73v447q0 83 -49.5 137.5t-137.5 54.5q-87 0 -142.5 -64.5t-55.5 -152.5v-422h-74v447q0 83 -49 137.5t-135 54.5q-87 0 -144 -64t-57 -153v-422h-74v561q0 21 -1 50.5t-2 52t-1 24.5h70
q0 -3 3 -47.5t3 -73.5q24 57 83 97.5t140 40.5q82 0 141 -45.5t80 -120.5z" />
    <glyph glyph-name="n.ordn" horiz-adv-x="800" 
d="M207 1065v-420h-74v574q0 39 -6 114h72q8 -56 8 -121q25 58 84 98t139 40q118 0 182 -71.5t64 -182.5v-451h-74v440q0 88 -49.5 143.5t-142.5 55.5q-89 0 -144.5 -63.5t-58.5 -155.5z" />
    <glyph glyph-name="o.ordn" horiz-adv-x="843" 
d="M422 694q110 0 187 81t77 214t-77 214t-187 81t-187 -81t-77 -214t77 -214t187 -81zM422 1350q143 0 240.5 -100t97.5 -261q0 -160 -97 -260t-241 -100q-143 0 -240.5 100.5t-97.5 259.5q0 161 97 261t241 100z" />
    <glyph glyph-name="p.ordn" horiz-adv-x="856" 
d="M207 786v-417h-74v964h74v-145q28 65 92.5 113.5t161.5 48.5q142 0 225.5 -101.5t83.5 -257.5q0 -158 -85.5 -260t-225.5 -102q-95 0 -159 46.5t-93 110.5zM205 991q0 -129 68.5 -213t177.5 -84t177 84.5t68 212.5q0 126 -68 209.5t-177 83.5t-177.5 -84t-68.5 -209z" />
    <glyph glyph-name="q.ordn" horiz-adv-x="856" 
d="M649 369v417q-29 -64 -93 -110.5t-159 -46.5q-140 0 -225.5 102t-85.5 260q0 156 83.5 257.5t225.5 101.5q97 0 161.5 -48.5t92.5 -113.5v145h74v-964h-74zM651 991q0 125 -68 209t-177 84t-177.5 -83.5t-68.5 -209.5q0 -128 68.5 -212.5t177.5 -84.5t177 84t68 213z" />
    <glyph glyph-name="r.ordn" horiz-adv-x="509" 
d="M477 1335v-80q-36 9 -63 9q-92 0 -149.5 -62t-57.5 -178v-379h-74v557q0 90 -2 131h70q4 -66 4 -131q58 137 215 137q29 0 57 -4z" />
    <glyph glyph-name="s.ordn" horiz-adv-x="657" 
d="M74 831l65 23q11 -73 62 -117.5t135 -44.5q72 0 119 35.5t47 93.5q0 101 -125 127l-113 23q-77 15 -122.5 62t-45.5 120q0 83 67.5 140t162.5 57q105 0 164.5 -53t76.5 -132l-65 -22q-11 64 -55 103.5t-121 39.5q-63 0 -110.5 -36t-47.5 -95q0 -95 117 -117l112 -22
q84 -17 130 -66t46 -123q0 -83 -64 -140.5t-173 -57.5q-116 0 -183.5 58.5t-78.5 143.5z" />
    <glyph glyph-name="t.ordn" horiz-adv-x="497" 
d="M260 1563v-230h189v-65h-189v-430q0 -133 123 -133q41 0 66 10v-64q-23 -14 -84 -14q-83 0 -131 50t-48 144v437h-149v65h57q50 0 74.5 24t24.5 77v129h67z" />
    <glyph glyph-name="u.ordn" horiz-adv-x="804" 
d="M604 760q-26 -55 -82.5 -93t-138.5 -38q-127 0 -192.5 78.5t-65.5 193.5v432h74v-420q0 -93 48.5 -156t147.5 -63q91 0 147 63t56 154v422h74v-557q0 -73 8 -131h-70q-6 47 -6 115z" />
    <glyph glyph-name="v.ordn" horiz-adv-x="686" 
d="M655 1333l-272 -688h-78l-276 688h84l231 -604l231 604h80z" />
    <glyph glyph-name="w.ordn" horiz-adv-x="1128" 
d="M526 1333h80l213 -598l191 598h77l-227 -688h-82l-213 600l-211 -600h-84l-229 688h82l190 -598z" />
    <glyph glyph-name="x.ordn" horiz-adv-x="688" 
d="M35 645l266 350l-254 338h88l209 -282l209 282h88l-254 -338l266 -350h-88l-221 297l-221 -297h-88z" />
    <glyph glyph-name="y.ordn" horiz-adv-x="688" 
d="M223 369h-80l172 370l-295 594h84l252 -516l232 516h78z" />
    <glyph glyph-name="z.ordn" horiz-adv-x="692" 
d="M621 645h-547v66l448 557h-442v65h532v-65l-448 -557h457v-66z" />
    <glyph glyph-name="space.tf" 
 />
    <glyph glyph-name="numbersign.tf" 
d="M954 1325l-84 -383h232v-72h-246l-88 -409h233v-72h-249l-82 -389h-78l84 389h-342l-84 -389h-78l84 389h-215v72h231l86 409h-217v72h232l84 383h78l-82 -383h340l81 383h80zM436 870l-88 -409h342l88 409h-342z" />
    <glyph glyph-name="dollar.tf" 
d="M995 1022l-73 -25q-24 118 -103 192t-209 81v-565l84 -21q145 -34 228.5 -121t83.5 -223q0 -148 -111 -248.5t-285 -107.5v-205h-69v205q-177 12 -291.5 123.5t-128.5 265.5l74 24q12 -135 106 -232t240 -110v588l-88 23q-125 30 -204 112.5t-79 212.5q0 143 108.5 241
t262.5 109v207h69v-207q161 -9 256.5 -95t128.5 -224zM680 608l-70 17v-572q145 7 230.5 85t85.5 196q0 104 -65 173t-181 101zM252 997q0 -194 217 -254l72 -20v547q-119 -9 -204 -84.5t-85 -188.5z" />
    <glyph glyph-name="percent.tf" 
d="M1073 1051v-80l-987 -674v80zM109 1065q0 -88 58 -146.5t146 -58.5t146.5 58.5t58.5 146.5t-58.5 146.5t-146.5 58.5t-146 -58.5t-58 -146.5zM41 1065q0 115 78.5 193.5t193.5 78.5q116 0 194.5 -78.5t78.5 -193.5t-78.5 -193.5t-194.5 -78.5q-115 0 -193.5 78.5
t-78.5 193.5zM614 258q0 -88 58.5 -146.5t146.5 -58.5t146.5 58.5t58.5 146.5t-58.5 146.5t-146.5 58.5t-146.5 -58.5t-58.5 -146.5zM547 258q0 116 78.5 194t193.5 78q116 0 194.5 -78.5t78.5 -193.5t-78.5 -193.5t-194.5 -78.5q-115 0 -193.5 78t-78.5 194z" />
    <glyph glyph-name="plus.tf" 
d="M131 625h404v438h73v-438h408v-70h-408v-444h-73v444h-404v70z" />
    <glyph glyph-name="comma.tf" 
d="M471 90q0 39 28 67.5t70 28.5q47 0 79 -36t32 -101q0 -138 -69.5 -242t-172.5 -137v66q72 28 118 105.5t48 160.5q-16 -12 -41 -12q-39 0 -65.5 29t-26.5 71z" />
    <glyph glyph-name="period.tf" 
d="M471 90q0 41 29.5 70.5t70.5 29.5t71 -29.5t30 -70.5t-30 -70.5t-71 -29.5t-70.5 29.5t-29.5 70.5z" />
    <glyph glyph-name="zero.tf" 
d="M573 53q76 0 137.5 26t103 72.5t71.5 104.5t46.5 129t24 139t7.5 140q0 84 -9 161t-35.5 161.5t-68 146t-113 101.5t-164.5 40q-67 0 -123.5 -21t-95.5 -55.5t-70 -84.5t-49.5 -103t-30 -115t-16 -117.5t-4.5 -113.5q0 -88 10 -168.5t37 -163.5t69.5 -143t112.5 -98
t160 -38zM573 -25q-90 0 -164.5 29t-125 80.5t-87.5 117t-58 144.5t-30.5 156.5t-9.5 159.5q0 85 10 164t31.5 158.5t59.5 144.5t88.5 116t124 79t161.5 28q106 0 189.5 -41t135.5 -107.5t86.5 -158t48.5 -185t14 -196.5q0 -100 -13 -192t-47 -184.5t-85.5 -160t-136 -110
t-192.5 -42.5z" />
    <glyph glyph-name="one.tf" 
d="M213 76h362v1083q-30 -65 -121.5 -127t-213.5 -69v73q130 13 218.5 95t116.5 196h84v-1251h345v-76h-791v76z" />
    <glyph glyph-name="two.tf" 
d="M1010 0h-863q7 279 252 442l273 183q229 155 229 342q0 128 -89.5 218.5t-236.5 90.5q-150 0 -246 -94.5t-96 -251.5q0 -26 7 -70l-84 10q-6 27 -6 72q0 175 118 292.5t310 117.5q183 0 296 -111t113 -272q0 -228 -258 -400l-291 -194q-74 -49 -125.5 -123t-62.5 -172
h760v-80z" />
    <glyph glyph-name="three.tf" 
d="M473 692l-41 72l471 485h-764v78h871v-78l-461 -475q38 6 80 6q112 -1 203.5 -44t148.5 -131.5t57 -209.5q0 -180 -127 -300t-331 -120q-194 0 -328 114t-143 292l81 20q3 -106 59.5 -187t143.5 -121t187 -40q156 0 264 96t108 244q0 146 -97.5 232t-250.5 86
q-60 0 -131 -19z" />
    <glyph glyph-name="four.tf" 
d="M68 338v98l630 891h123v-911h250v-78h-250v-338h-84v338h-669zM737 416v825l-585 -825h585z" />
    <glyph glyph-name="five.tf" 
d="M98 373l82 24q9 -145 115.5 -244.5t259.5 -99.5q162 0 268.5 103.5t106.5 255.5q0 157 -106 259.5t-265 102.5q-191 0 -326 -156l-81 33l167 676h648v-78h-588l-131 -534q64 68 151 102.5t172 34.5q193 0 319 -124.5t126 -313.5q0 -185 -130 -312t-331 -127
q-187 0 -316 116.5t-141 281.5z" />
    <glyph glyph-name="six.tf" 
d="M180 575v-12q26 124 144 215.5t278 91.5q189 0 318 -126.5t129 -321.5q0 -128 -63.5 -231.5t-168 -159.5t-227.5 -56q-225 0 -357.5 170t-132.5 455q0 149 34 274t93.5 212.5t140 148t172.5 89t193 28.5q173 0 287 -74l-27 -74q-108 70 -264 70q-112 0 -204.5 -38.5
t-155.5 -104.5t-106.5 -155.5t-63 -190t-19.5 -210.5zM219 424q0 -160 109.5 -265.5t261.5 -105.5q155 0 264 105.5t109 265.5q0 161 -109 266t-264 105q-154 0 -262.5 -105t-108.5 -266z" />
    <glyph glyph-name="seven.tf" 
d="M1079 1327v-86q-101 -95 -183 -191t-156 -212t-128.5 -241.5t-94.5 -276.5t-60 -320h-88q20 176 65.5 337.5t103 288.5t134 245t151 205.5t162.5 172.5h-881v78h975z" />
    <glyph glyph-name="eight.tf" 
d="M573 1276q-155 0 -247.5 -78.5t-92.5 -200.5t94.5 -200t245.5 -78t245.5 78t94.5 200t-92.5 200.5t-247.5 78.5zM573 645q-171 0 -268.5 -84.5t-97.5 -212.5q0 -127 100 -212t266 -85t266.5 85t100.5 212q0 128 -98 212.5t-269 84.5zM573 -25q-206 0 -328 105.5
t-122 261.5q0 124 81 216t206 124q-110 30 -185 118t-75 201q0 150 117.5 250.5t305.5 100.5t306 -100.5t118 -250.5q0 -113 -75 -201t-185 -118q125 -32 206 -124t81 -216q0 -156 -122.5 -261.5t-328.5 -105.5z" />
    <glyph glyph-name="nine.tf" 
d="M950 768q-34 -131 -147 -212t-262 -81q-116 0 -215.5 53.5t-161.5 154.5t-62 228q0 125 61.5 227t164.5 158t223 56q225 0 356 -168t131 -447q0 -129 -19.5 -239.5t-65 -208t-113.5 -166.5t-171 -108.5t-233 -39.5q-84 0 -171.5 24t-145.5 64l31 76q54 -38 132.5 -62
t153.5 -24q245 0 380.5 168t135.5 484q0 38 -2 63zM918 913q0 156 -108 258.5t-259 102.5q-150 0 -257.5 -102.5t-107.5 -258.5q0 -158 107 -260t258 -102q153 0 260 102t107 260z" />
    <glyph glyph-name="colon.tf" 
d="M487 78q0 37 25.5 62.5t60.5 25.5q37 0 63 -25.5t26 -62.5q0 -35 -26 -60.5t-63 -25.5q-35 0 -60.5 25.5t-25.5 60.5zM487 891q0 37 25.5 62.5t60.5 25.5q37 0 63 -25.5t26 -62.5q0 -35 -26 -60.5t-63 -25.5q-35 0 -60.5 25.5t-25.5 60.5z" />
    <glyph glyph-name="semicolon.tf" 
d="M494 78q0 34 25 59t61 25q40 0 68 -31.5t28 -87.5q0 -121 -60 -211t-151 -119v58q63 24 103 91.5t42 139.5q-13 -10 -37 -10q-33 0 -56 25t-23 61zM481 891q0 37 25.5 62.5t60.5 25.5q37 0 62.5 -25.5t25.5 -62.5q0 -35 -25.5 -60.5t-62.5 -25.5q-35 0 -60.5 25.5
t-25.5 60.5z" />
    <glyph glyph-name="less.tf" 
d="M141 551v76l811 426v-82l-741 -381l741 -383v-82z" />
    <glyph glyph-name="equal.tf" 
d="M1020 752h-895v71h895v-71zM1020 356h-895v72h895v-72z" />
    <glyph glyph-name="greater.tf" 
d="M1006 627v-76l-811 -426v82l741 383l-741 381v82z" />
    <glyph glyph-name="cent.tf" 
d="M631 0h-70v186q-181 15 -296 152t-115 334q0 198 114.5 332t296.5 151v172h70v-172q141 -6 236.5 -82.5t133.5 -200.5l-71 -30q-26 97 -102 166.5t-197 76.5v-827q116 7 195.5 77t111.5 167l70 -29q-42 -119 -139.5 -200t-237.5 -87v-186zM229 672q0 -170 92.5 -284
t239.5 -128v821q-146 -14 -239 -127t-93 -282z" />
    <glyph glyph-name="sterling.tf" 
d="M127 686h160q-8 21 -29.5 70t-32 76.5t-20.5 70t-10 80.5q0 159 110 264t275 105q183 0 286.5 -103.5t116.5 -259.5l-86 -16q-11 137 -94.5 220t-220.5 83q-128 0 -214.5 -83t-86.5 -210q0 -36 10 -76.5t21 -68.5t32 -77t31 -75h426v-76h-402q21 -72 21 -127
q0 -108 -62.5 -221.5t-150.5 -185.5h491q127 0 197.5 79.5t81.5 215.5l82 -13q-11 -165 -100 -261.5t-244 -96.5h-611v82q93 65 162.5 177t69.5 216q0 64 -23 135h-186v76z" />
    <glyph glyph-name="currency.tf" 
d="M143 449q0 164 107 284l-150 156l54 51l149 -156q126 101 277 101t266 -94l145 149l51 -51l-141 -148q115 -125 115 -292q0 -170 -111 -287l142 -144l-52 -51l-143 144q-120 -99 -272 -99q-163 0 -283 107l-147 -152l-52 51l148 152q-103 115 -103 279zM217 449
q0 -152 106 -258.5t257 -106.5t255.5 106.5t104.5 258.5q0 153 -104.5 258.5t-255.5 105.5t-257 -105.5t-106 -258.5z" />
    <glyph glyph-name="yen.tf" 
d="M1012 289h-394v-289h-83v289h-396v67h396v244h-396v66h348l-397 661h98l387 -655l381 655h97l-391 -661h350v-66h-394v-244h394v-67z" />
    <glyph glyph-name="section.tf" 
d="M197 -49l75 18q5 -139 86 -222t215 -83q122 0 202.5 67.5t80.5 176.5q0 88 -44 146.5t-134 107.5l-221 117q-124 66 -182 130t-58 166q0 94 58.5 165t148.5 98q-106 62 -157.5 137t-51.5 178q0 143 105.5 233.5t250.5 90.5q163 0 263 -100t106 -259l-78 -18
q-3 138 -81.5 222.5t-209.5 84.5q-110 0 -192 -68.5t-82 -179.5q0 -88 43 -147t127 -105l221 -119q120 -63 180 -128t60 -166q0 -96 -57 -165.5t-152 -101.5q112 -62 165.5 -136t53.5 -177q0 -142 -106.5 -231t-260.5 -89q-166 0 -267 98t-107 259zM672 709l-185 96
q-80 -18 -135 -77.5t-55 -141.5q0 -73 44 -126t132 -100l182 -98q79 18 135 78.5t56 140.5q0 75 -44 129t-130 99z" />
    <glyph glyph-name="logicalnot.tf" 
d="M1008 332h-76v420h-797v73h873v-493z" />
    <glyph glyph-name="plusminus.tf" 
d="M137 750h398v309h73v-309h400v-70h-400v-311h-73v311h-398v70zM137 219h871v-69h-871v69z" />
    <glyph glyph-name="multiply.tf" 
d="M950 145l-379 392l-374 -390l-50 50l375 391l-375 391l50 51l376 -391l377 391l49 -49l-378 -393l378 -391z" />
    <glyph glyph-name="divide.tf" 
d="M131 553v74h885v-74h-885zM496 223q0 32 22.5 55t54.5 23t55 -23t23 -55t-23 -55t-55 -23t-54.5 23t-22.5 55zM496 952q0 32 22.5 55t54.5 23t55 -23t23 -55t-23 -55t-55 -23t-54.5 23t-22.5 55z" />
    <glyph glyph-name="florin.tf" 
d="M336 10l176 887h-248v74h262l47 227q28 138 110 208.5t194 70.5q57 0 116 -19v-76q-2 0 -13 3.5t-22.5 6t-30.5 5t-38 2.5q-87 0 -148.5 -54t-85.5 -169l-43 -205h277v-74h-291l-180 -909q-28 -138 -108.5 -208.5t-192.5 -70.5q-52 0 -121 19v75q1 0 12.5 -3t23 -5.5
t32 -5t40.5 -2.5q85 0 147.5 55t84.5 168z" />
    <glyph glyph-name="uni2007.tf" 
 />
    <glyph glyph-name="uni2008.tf" 
 />
    <glyph glyph-name="perthousand.tf" 
d="M1069 1241v-82l-987 -756v80zM37 1108q0 98 67 164.5t164 66.5t164.5 -66.5t67.5 -164.5t-67.5 -164.5t-164.5 -66.5t-164 66.5t-67 164.5zM104 1108q0 -70 47.5 -117t116.5 -47t116.5 47t47.5 117t-47.5 117t-116.5 47t-116.5 -47t-47.5 -117zM295 211q0 -70 47.5 -117
t116.5 -47t116.5 47t47.5 117t-47.5 117t-116.5 47t-116.5 -47t-47.5 -117zM692 211q0 -70 47.5 -117t116.5 -47t116.5 47t47.5 117t-47.5 117t-116.5 47t-116.5 -47t-47.5 -117zM227 211q0 98 67.5 164.5t164.5 66.5q63 0 115 -30t83 -84q29 54 81.5 84t117.5 30
q97 0 164 -66.5t67 -164.5t-67 -164.5t-164 -66.5q-65 0 -117.5 30t-81.5 84q-31 -54 -83 -84t-115 -30q-97 0 -164.5 66.5t-67.5 164.5z" />
    <glyph glyph-name="Euro.tf" 
d="M164 666q0 42 4 88h-121v69h133q21 107 74.5 197.5t122 150.5t150 102t159 60.5t148.5 18.5q122 0 231 -37l-21 -72q-95 31 -210 31q-62 0 -128.5 -15.5t-137 -51t-129.5 -86t-105.5 -128t-65.5 -170.5h650l-23 -69h-641q-6 -40 -6 -88q0 -54 6 -95h602l-20 -71h-566
q25 -113 89.5 -202.5t146.5 -140.5t165 -77.5t158 -26.5q113 0 215 37l21 -70q-111 -43 -236 -43q-69 0 -145 18.5t-156.5 60.5t-148.5 101t-121.5 148t-75.5 195h-135v71h121q-4 50 -4 95z" />
    <glyph glyph-name="minus.tf" 
d="M1016 555h-885v70h885v-70z" />
    <glyph glyph-name="approxequal.tf" 
d="M997 449l47 -41q-51 -70 -110.5 -104t-140.5 -34q-76 0 -193 60l-96 51q-85 45 -152 45q-64 0 -111 -25.5t-89 -81.5l-50 43q54 71 112 105.5t138 34.5q70 0 187 -60l94 -49q90 -49 168 -49q63 0 108.5 25t87.5 80zM997 844l47 -41q-51 -70 -110.5 -103.5t-140.5 -33.5
q-78 0 -193 59l-96 51q-85 45 -152 45q-65 0 -111.5 -25.5t-88.5 -80.5l-50 43q54 71 112 105t138 34q72 0 187 -59l94 -50q90 -49 168 -49q63 0 108.5 25t87.5 80z" />
    <glyph glyph-name="notequal.tf" 
d="M1022 356h-576l-186 -235h-86l186 235h-233v72h287l258 324h-545v71h596l182 230h86l-182 -230h213v-71h-264l-258 -324h522v-72z" />
    <glyph glyph-name="lessequal.tf" 
d="M162 219h819v-69h-819v69zM162 676v72l819 303v-78l-723 -262l723 -258v-80z" />
    <glyph glyph-name="greaterequal.tf" 
d="M166 219h819v-69h-819v69zM985 748v-72l-819 -303v80l723 258l-723 262v78z" />
    <glyph glyph-name="parenleft.case" horiz-adv-x="583" 
d="M115 721q0 512 356 895l49 -43q-334 -369 -334 -852q0 -256 85.5 -464t248.5 -388l-49 -43q-356 383 -356 895z" />
    <glyph glyph-name="parenright.case" horiz-adv-x="585" 
d="M471 721q0 -512 -356 -895l-52 43q163 180 248.5 388t85.5 464q0 483 -334 852l52 43q356 -383 356 -895z" />
    <glyph glyph-name="hyphen.case" horiz-adv-x="831" 
d="M680 653h-528v74h528v-74z" />
    <glyph glyph-name="bracketleft.case" horiz-adv-x="530" 
d="M436 -94h-268v1712h268v-72h-192v-1571h192v-69z" />
    <glyph glyph-name="bracketright.case" horiz-adv-x="530" 
d="M362 -94h-268v69h193v1571h-193v72h268v-1712z" />
    <glyph glyph-name="braceleft.case" horiz-adv-x="649" 
d="M72 721v80q95 14 156 72.5t61 154.5v307q0 143 63 212t199 69h14v-68h-14q-105 0 -148 -49t-43 -158v-327q0 -97 -55 -163.5t-147 -88.5q91 -22 146.5 -89t55.5 -163v-328q0 -109 43 -158t148 -49h14v-67h-14q-136 0 -199 68t-63 210v308q0 97 -61 155.5t-156 71.5z" />
    <glyph glyph-name="braceright.case" horiz-adv-x="649" 
d="M578 801v-80q-95 -13 -156.5 -71.5t-61.5 -155.5v-308q0 -142 -63 -210t-199 -68h-14v67h14q105 0 148 49t43 158v328q0 96 55.5 163t147.5 89q-92 22 -147.5 88.5t-55.5 163.5v327q0 109 -43 158t-148 49h-14v68h14q136 0 199 -69t63 -212v-307q0 -96 61 -154.5
t157 -72.5z" />
    <glyph glyph-name="exclamdown.case" horiz-adv-x="456" 
d="M311 1378q0 -35 -24.5 -59.5t-57.5 -24.5q-35 0 -59.5 24.5t-24.5 59.5q0 34 24.5 58t59.5 24q33 0 57.5 -24.5t24.5 -57.5zM283 0h-107l27 1081h53z" />
    <glyph glyph-name="guillemotleft.case" horiz-adv-x="923" 
d="M475 299h-82l-272 391l272 391h82l-270 -391zM780 299h-82l-272 391l272 391h82l-270 -391z" />
    <glyph glyph-name="uni00AD.case" horiz-adv-x="831" 
d="M680 653h-528v74h528v-74z" />
    <glyph glyph-name="guillemotright.case" horiz-adv-x="923" 
d="M530 299h-81l270 391l-270 391h81l273 -391zM225 299h-82l273 391l-273 391h82l273 -391z" />
    <glyph glyph-name="questiondown.case" horiz-adv-x="970" 
d="M467 1083h74l1 -3q1 -3 2 -9t2 -15t2 -23.5t1 -31.5q0 -94 -31.5 -164.5t-103.5 -127.5l-90 -72q-160 -130 -160 -283q0 -127 83.5 -215t229.5 -88q82 0 146.5 27t104.5 73t60.5 104t20.5 122q0 47 -18 115l83 -13q17 -58 17 -110q0 -74 -26 -143t-75 -126t-130.5 -91
t-182.5 -34q-120 0 -212.5 54t-138.5 139t-46 184q0 191 201 348l90 72q100 80 100 229q0 18 -0.5 32.5t-1 23t-1 14.5t-0.5 9zM584 1378q0 -35 -24 -59.5t-58 -24.5q-35 0 -59.5 24.5t-24.5 59.5q0 34 24.5 58t59.5 24q34 0 58 -24t24 -58z" />
    <glyph glyph-name="endash.case" horiz-adv-x="1312" 
d="M1161 653h-1009v74h1009v-74z" />
    <glyph glyph-name="emdash.case" horiz-adv-x="2142" 
d="M1991 653h-1839v74h1839v-74z" />
    <glyph glyph-name="guilsinglleft.case" horiz-adv-x="618" 
d="M475 299h-82l-272 391l272 391h82l-270 -391z" />
    <glyph glyph-name="guilsinglright.case" horiz-adv-x="618" 
d="M225 299h-82l273 391l-273 391h82l273 -391z" />
    <glyph glyph-name="G.ss01" horiz-adv-x="1554" 
d="M815 55q227 0 376 139.5t179 360.5h-622v78h714q0 -12 -1 -27l-1 -14q-11 -132 -64.5 -246.5t-138 -196t-199 -128t-243.5 -46.5q-106 0 -208.5 32t-192.5 96t-158 152.5t-107.5 210.5t-39.5 261q0 173 60.5 317.5t160 237.5t225 144t258.5 51q227 0 392.5 -121
t226.5 -322l-80 -28q-56 182 -198 286.5t-341 104.5q-119 0 -228.5 -45t-196.5 -128t-139 -212t-52 -285t52.5 -285.5t139.5 -212t197 -128t229 -46.5z" />
    <glyph glyph-name="Gcircumflex.ss01" horiz-adv-x="1554" 
d="M815 55q227 0 376 139.5t179 360.5h-622v78h714q0 -12 -1 -27l-1 -14q-11 -132 -64.5 -246.5t-138 -196t-199 -128t-243.5 -46.5q-106 0 -208.5 32t-192.5 96t-158 152.5t-107.5 210.5t-39.5 261q0 173 60.5 317.5t160 237.5t225 144t258.5 51q227 0 392.5 -121
t226.5 -322l-80 -28q-56 182 -198 286.5t-341 104.5q-119 0 -228.5 -45t-196.5 -128t-139 -212t-52 -285t52.5 -285.5t139.5 -212t197 -128t229 -46.5zM1038 1554l-217 195l-217 -195h-82l238 244h123l237 -244h-82z" />
    <glyph glyph-name="Gbreve.ss01" horiz-adv-x="1554" 
d="M815 55q227 0 376 139.5t179 360.5h-622v78h714q0 -12 -1 -27l-1 -14q-11 -132 -64.5 -246.5t-138 -196t-199 -128t-243.5 -46.5q-106 0 -208.5 32t-192.5 96t-158 152.5t-107.5 210.5t-39.5 261q0 173 60.5 317.5t160 237.5t225 144t258.5 51q227 0 392.5 -121
t226.5 -322l-80 -28q-56 182 -198 286.5t-341 104.5q-119 0 -228.5 -45t-196.5 -128t-139 -212t-52 -285t52.5 -285.5t139.5 -212t197 -128t229 -46.5zM1032 1798h68q-8 -104 -82.5 -179t-196.5 -75t-196 75t-82 179h67q8 -77 62.5 -131.5t148.5 -54.5t148.5 54.5
t62.5 131.5z" />
    <glyph glyph-name="Gdotaccent.ss01" horiz-adv-x="1554" 
d="M815 55q227 0 376 139.5t179 360.5h-622v78h714q0 -12 -1 -27l-1 -14q-11 -132 -64.5 -246.5t-138 -196t-199 -128t-243.5 -46.5q-106 0 -208.5 32t-192.5 96t-158 152.5t-107.5 210.5t-39.5 261q0 173 60.5 317.5t160 237.5t225 144t258.5 51q227 0 392.5 -121
t226.5 -322l-80 -28q-56 182 -198 286.5t-341 104.5q-119 0 -228.5 -45t-196.5 -128t-139 -212t-52 -285t52.5 -285.5t139.5 -212t197 -128t229 -46.5zM743 1677q0 32 23 55t55 23t55 -23t23 -55t-23 -55t-55 -23t-55 23t-23 55z" />
    <glyph glyph-name="Gcommaaccent.ss01" horiz-adv-x="1554" 
d="M815 55q227 0 376 139.5t179 360.5h-622v78h714q0 -12 -1 -27l-1 -14q-11 -132 -64.5 -246.5t-138 -196t-199 -128t-243.5 -46.5q-106 0 -208.5 32t-192.5 96t-158 152.5t-107.5 210.5t-39.5 261q0 173 60.5 317.5t160 237.5t225 144t258.5 51q227 0 392.5 -121
t226.5 -322l-80 -28q-56 182 -198 286.5t-341 104.5q-119 0 -228.5 -45t-196.5 -128t-139 -212t-52 -285t52.5 -285.5t139.5 -212t197 -128t229 -46.5zM752 -168q0 33 22 53.5t55 20.5q34 0 60 -27.5t26 -77.5q0 -93 -52 -150t-130 -65v52q52 8 88 44t37 87q-13 -13 -35 -13
q-32 0 -51.5 21.5t-19.5 54.5z" />
    <glyph glyph-name="a.ss02" horiz-adv-x="1157" 
d="M905 971h82v-783q0 -30 1 -60t2.5 -51.5t3 -38.5t2.5 -27t1 -11h-79q-11 69 -11 166v53q-17 -43 -45 -82.5t-71.5 -77.5t-107.5 -61t-140 -23q-197 0 -320 145.5t-123 366.5t122.5 364.5t318.5 143.5q66 0 123 -16.5t94.5 -40.5t68.5 -57.5t48 -61.5t30 -59v211zM907 487
q0 188 -99 311.5t-259 123.5q-164 0 -265.5 -122t-101.5 -313q0 -188 102 -313t265 -125q160 0 259 124.5t99 313.5z" />
    <glyph glyph-name="agrave.ss02" horiz-adv-x="1157" 
d="M905 971h82v-783q0 -30 1 -60t2.5 -51.5t3 -38.5t2.5 -27t1 -11h-79q-11 69 -11 166v53q-17 -43 -45 -82.5t-71.5 -77.5t-107.5 -61t-140 -23q-197 0 -320 145.5t-123 366.5t122.5 364.5t318.5 143.5q66 0 123 -16.5t94.5 -40.5t68.5 -57.5t48 -61.5t30 -59v211zM907 487
q0 188 -99 311.5t-259 123.5q-164 0 -265.5 -122t-101.5 -313q0 -188 102 -313t265 -125q160 0 259 124.5t99 313.5zM621 1094h-62l-231 276h108z" />
    <glyph glyph-name="aacute.ss02" horiz-adv-x="1157" 
d="M573 1094h-63l184 276h111zM905 971h82v-783q0 -30 1 -60t2.5 -51.5t3 -38.5t2.5 -27t1 -11h-79q-11 69 -11 166v53q-17 -43 -45 -82.5t-71.5 -77.5t-107.5 -61t-140 -23q-197 0 -320 145.5t-123 366.5t122.5 364.5t318.5 143.5q66 0 123 -16.5t94.5 -40.5t68.5 -57.5
t48 -61.5t30 -59v211zM907 487q0 188 -99 311.5t-259 123.5q-164 0 -265.5 -122t-101.5 -313q0 -188 102 -313t265 -125q160 0 259 124.5t99 313.5z" />
    <glyph glyph-name="acircumflex.ss02" horiz-adv-x="1157" 
d="M778 1094l-215 225l-215 -225h-69l231 276h106l232 -276h-70zM905 971h82v-783q0 -30 1 -60t2.5 -51.5t3 -38.5t2.5 -27t1 -11h-79q-11 69 -11 166v53q-17 -43 -45 -82.5t-71.5 -77.5t-107.5 -61t-140 -23q-197 0 -320 145.5t-123 366.5t122.5 364.5t318.5 143.5
q66 0 123 -16.5t94.5 -40.5t68.5 -57.5t48 -61.5t30 -59v211zM907 487q0 188 -99 311.5t-259 123.5q-164 0 -265.5 -122t-101.5 -313q0 -188 102 -313t265 -125q160 0 259 124.5t99 313.5z" />
    <glyph glyph-name="atilde.ss02" horiz-adv-x="1157" 
d="M905 971h82v-783q0 -30 1 -60t2.5 -51.5t3 -38.5t2.5 -27t1 -11h-79q-11 69 -11 166v53q-17 -43 -45 -82.5t-71.5 -77.5t-107.5 -61t-140 -23q-197 0 -320 145.5t-123 366.5t122.5 364.5t318.5 143.5q66 0 123 -16.5t94.5 -40.5t68.5 -57.5t48 -61.5t30 -59v211zM907 487
q0 188 -99 311.5t-259 123.5q-164 0 -265.5 -122t-101.5 -313q0 -188 102 -313t265 -125q160 0 259 124.5t99 313.5zM573 1176l-45 36q-31 26 -54 38t-54 12q-46 0 -70 -33.5t-24 -95.5h-68v20q0 81 45.5 129.5t114.5 48.5t141 -59l39 -33q56 -43 100 -43q46 0 70.5 34
t24.5 97h67v-16q0 -85 -46 -135t-114 -50q-67 0 -127 50z" />
    <glyph glyph-name="adieresis.ss02" horiz-adv-x="1157" 
d="M324 1237q0 28 19.5 48t47.5 20t48 -20t20 -48q0 -29 -20 -48.5t-48 -19.5t-47.5 19.5t-19.5 48.5zM692 1237q0 28 20 48t48 20t47.5 -20t19.5 -48q0 -29 -19.5 -48.5t-47.5 -19.5t-48 19.5t-20 48.5zM905 971h82v-783q0 -30 1 -60t2.5 -51.5t3 -38.5t2.5 -27t1 -11h-79
q-11 69 -11 166v53q-17 -43 -45 -82.5t-71.5 -77.5t-107.5 -61t-140 -23q-197 0 -320 145.5t-123 366.5t122.5 364.5t318.5 143.5q66 0 123 -16.5t94.5 -40.5t68.5 -57.5t48 -61.5t30 -59v211zM907 487q0 188 -99 311.5t-259 123.5q-164 0 -265.5 -122t-101.5 -313
q0 -188 102 -313t265 -125q160 0 259 124.5t99 313.5z" />
    <glyph glyph-name="aring.ss02" horiz-adv-x="1157" 
d="M354 1292q0 86 60.5 147.5t146.5 61.5t146.5 -61.5t60.5 -147.5t-60.5 -147.5t-146.5 -61.5t-146.5 61.5t-60.5 147.5zM422 1292q0 -61 40 -103t99 -42t99 42t40 103t-40 103.5t-99 42.5t-99 -42.5t-40 -103.5zM905 971h82v-783q0 -30 1 -60t2.5 -51.5t3 -38.5t2.5 -27
t1 -11h-79q-11 69 -11 166v53q-17 -43 -45 -82.5t-71.5 -77.5t-107.5 -61t-140 -23q-197 0 -320 145.5t-123 366.5t122.5 364.5t318.5 143.5q66 0 123 -16.5t94.5 -40.5t68.5 -57.5t48 -61.5t30 -59v211zM907 487q0 188 -99 311.5t-259 123.5q-164 0 -265.5 -122
t-101.5 -313q0 -188 102 -313t265 -125q160 0 259 124.5t99 313.5z" />
    <glyph glyph-name="amacron.ss02" horiz-adv-x="1157" 
d="M905 971h82v-783q0 -30 1 -60t2.5 -51.5t3 -38.5t2.5 -27t1 -11h-79q-11 69 -11 166v53q-17 -43 -45 -82.5t-71.5 -77.5t-107.5 -61t-140 -23q-197 0 -320 145.5t-123 366.5t122.5 364.5t318.5 143.5q66 0 123 -16.5t94.5 -40.5t68.5 -57.5t48 -61.5t30 -59v211zM907 487
q0 188 -99 311.5t-259 123.5q-164 0 -265.5 -122t-101.5 -313q0 -188 102 -313t265 -125q160 0 259 124.5t99 313.5zM799 1196h-496v72h496v-72z" />
    <glyph glyph-name="abreve.ss02" horiz-adv-x="1157" 
d="M905 971h82v-783q0 -30 1 -60t2.5 -51.5t3 -38.5t2.5 -27t1 -11h-79q-11 69 -11 166v53q-17 -43 -45 -82.5t-71.5 -77.5t-107.5 -61t-140 -23q-197 0 -320 145.5t-123 366.5t122.5 364.5t318.5 143.5q66 0 123 -16.5t94.5 -40.5t68.5 -57.5t48 -61.5t30 -59v211zM907 487
q0 188 -99 311.5t-259 123.5q-164 0 -265.5 -122t-101.5 -313q0 -188 102 -313t265 -125q160 0 259 124.5t99 313.5zM555 1094q-129 0 -204 83t-75 193h66q2 -84 57.5 -146.5t155.5 -62.5t155.5 62.5t57.5 146.5h66q0 -110 -75 -193t-204 -83z" />
    <glyph glyph-name="aogonek.ss02" horiz-adv-x="1157" 
d="M905 971h82v-783q0 -30 1 -60t2.5 -51.5t3 -38.5t2.5 -27t1 -11q-66 -36 -116 -96.5t-50 -130.5q0 -61 40 -95t100 -34q40 0 73 10v-62q-44 -14 -86 -14q-86 0 -142 48t-56 132q0 145 155 244q-8 54 -8 164v53q-17 -43 -45 -82.5t-71.5 -77.5t-107.5 -61t-140 -23
q-197 0 -320 145.5t-123 366.5t122.5 364.5t318.5 143.5q66 0 123 -16.5t94.5 -40.5t68.5 -57.5t48 -61.5t30 -59v211zM907 487q0 188 -99 311.5t-259 123.5q-164 0 -265.5 -122t-101.5 -313q0 -188 102 -313t265 -125q160 0 259 124.5t99 313.5z" />
    <glyph glyph-name="aringacute.ss02" horiz-adv-x="1157" 
d="M596 1577h-64l185 276h110zM354 1292q0 86 60.5 147.5t146.5 61.5t146.5 -61.5t60.5 -147.5t-60.5 -147.5t-146.5 -61.5t-146.5 61.5t-60.5 147.5zM422 1292q0 -61 40 -103t99 -42t99 42t40 103t-40 103.5t-99 42.5t-99 -42.5t-40 -103.5zM905 971h82v-783q0 -30 1 -60
t2.5 -51.5t3 -38.5t2.5 -27t1 -11h-79q-11 69 -11 166v53q-17 -43 -45 -82.5t-71.5 -77.5t-107.5 -61t-140 -23q-197 0 -320 145.5t-123 366.5t122.5 364.5t318.5 143.5q66 0 123 -16.5t94.5 -40.5t68.5 -57.5t48 -61.5t30 -59v211zM907 487q0 188 -99 311.5t-259 123.5
q-164 0 -265.5 -122t-101.5 -313q0 -188 102 -313t265 -125q160 0 259 124.5t99 313.5z" />
    <glyph glyph-name="r.ss03" horiz-adv-x="462" 
d="M252 0h-82v971h82v-53q3 24 21 40.5t44 16.5t46 -20t20 -48q0 -26 -19.5 -44.5t-46.5 -18.5t-44.5 14t-20.5 39v-897z" />
    <glyph glyph-name="racute.ss03" horiz-adv-x="462" 
d="M252 0h-82v971h82v-51q3 23 21.5 39t43.5 16q26 0 46 -20t20 -48q0 -26 -19.5 -44.5t-46.5 -18.5t-44.5 13.5t-20.5 37.5v-895zM313 1094h-63l184 276h111z" />
    <glyph glyph-name="rcommaaccent.ss03" horiz-adv-x="462" 
d="M252 0h-82v971h82v-51q3 23 21.5 39t43.5 16q26 0 46 -20t20 -48q0 -26 -19.5 -44.5t-46.5 -18.5t-44.5 13.5t-20.5 37.5v-895zM129 -168q0 33 22.5 53.5t55.5 20.5q34 0 60 -27.5t26 -77.5q0 -93 -52 -150t-130 -65v52q52 8 88 44t37 87q-13 -13 -35 -13q-32 0 -52 21.5
t-20 54.5z" />
    <glyph glyph-name="rcaron.ss03" horiz-adv-x="462" 
d="M252 0h-82v971h82v-51q3 23 21.5 39t43.5 16q26 0 46 -20t20 -48q0 -26 -19.5 -44.5t-46.5 -18.5t-44.5 13.5t-20.5 37.5v-895zM72 1370l211 -225l211 225h73l-231 -276h-107l-231 276h74z" />
    <glyph glyph-name="ampersand.ss04" horiz-adv-x="1337" 
d="M1016 1100l-82 -19q-19 154 -107 238t-247 84q-127 0 -221.5 -85t-94.5 -204q0 -122 85 -201t249 -88v-73q-178 -6 -289.5 -105.5t-111.5 -249.5q0 -148 114 -248t287 -100q181 0 301.5 122t120.5 304v76h-240v76h492v-76h-170v-76q0 -216 -143 -358t-361 -142
q-206 0 -344.5 121.5t-138.5 300.5q0 135 83.5 241.5t231.5 149.5q-121 33 -184.5 121t-63.5 205q0 146 115 254.5t272 108.5q198 0 310.5 -99t136.5 -278z" />
    <glyph glyph-name="one.ss05" horiz-adv-x="927" 
d="M893 0h-791v76h363v1083q-30 -65 -121.5 -127t-214.5 -69v73q130 13 219 95t117 196h84v-1251h344v-76z" />
    <glyph glyph-name="registered.ss06" horiz-adv-x="1007" 
d="M119 1081q0 162 112 275.5t273 113.5t274 -114t113 -275t-113 -275t-274 -114t-273 113.5t-112 275.5zM438 1085h72q41 0 65.5 21t24.5 59q0 35 -24 57.5t-66 22.5h-72v-160zM592 879l-88 155h-66v-155h-55v415h137q60 0 99.5 -37.5t39.5 -91.5q0 -45 -28 -80.5
t-70 -42.5l96 -163h-65zM506 743q138 0 235 99t97 239t-97 239t-235 99q-139 0 -236.5 -99t-97.5 -239t97.5 -239t236.5 -99z" />
    <glyph glyph-name="quotedbl.ss08" horiz-adv-x="608" 
d="M207 1040h-31l-41 269q-10 63 -10 84q0 33 19 52t46 19q30 0 50 -19t20 -52q0 -21 -10 -84zM432 1040h-31l-41 269q-10 63 -10 84q0 33 19 52t47 19q30 0 49.5 -19t19.5 -52q0 -21 -10 -84z" />
    <glyph glyph-name="numbersign.ss08" horiz-adv-x="1478" 
d="M782 0l88 451h-387l-88 -451h-76l89 451h-322v69h334l82 414h-316v70h328l90 448h76l-88 -448h385l90 448h76l-88 -448h338v-70h-353l-79 -414h331v-69h-346l-88 -451h-76zM578 934l-80 -414h385l82 414h-387z" />
    <glyph glyph-name="dollar.ss08" horiz-adv-x="1122" 
d="M1010 1110l-74 -27q-29 124 -112.5 202.5t-219.5 90.5v-608l84 -20q160 -38 249 -129t89 -238q0 -158 -117.5 -265t-304.5 -116v-229h-69v229q-98 5 -181 41t-139.5 93t-91 130t-43.5 154l76 24q14 -147 116 -252.5t263 -117.5v628l-101 25q-138 32 -219.5 120t-81.5 228
q0 155 117.5 261.5t284.5 115.5v233h69v-233q168 -10 269.5 -102.5t136.5 -237.5zM674 666l-70 16v-610q155 9 246.5 94.5t91.5 208.5q0 113 -69 186.5t-199 104.5zM215 1079q0 -107 60.5 -176.5t175.5 -97.5l84 -21v592q-83 -6 -155.5 -43t-118.5 -104t-46 -150z" />
    <glyph glyph-name="percent.ss08" horiz-adv-x="1609" 
d="M356 0h-84l979 1452h82zM918 295q0 129 89 219t218 90t218 -90t89 -219t-89 -219t-218 -90t-218 90t-89 219zM991 295q0 -101 68 -171.5t166 -70.5t165.5 70.5t67.5 171.5t-67.5 171.5t-165.5 70.5t-166 -70.5t-68 -171.5zM76 1157q0 129 89 219t218 90t218 -90t89 -219
t-89 -219t-218 -90t-218 90t-89 219zM150 1157q0 -101 67.5 -171.5t165.5 -70.5t165.5 70.5t67.5 171.5t-67.5 171.5t-165.5 70.5t-165.5 -70.5t-67.5 -171.5z" />
    <glyph glyph-name="quotesingle.ss08" horiz-adv-x="382" 
d="M207 1040h-31l-41 269q-10 63 -10 84q0 33 19 52t46 19q30 0 50 -19t20 -52q0 -21 -10 -84z" />
    <glyph glyph-name="plus.ss08" horiz-adv-x="1093" 
d="M104 750h404v438h74v-438h407v-70h-407v-444h-74v444h-404v70z" />
    <glyph glyph-name="zero.ss08" horiz-adv-x="1282" 
d="M125 725q0 110 13.5 210t50 201.5t92.5 175t148.5 119.5t211.5 46t211.5 -46t148.5 -119.5t92.5 -175t50 -201.5t13.5 -210t-13.5 -209.5t-50 -200.5t-92.5 -174.5t-148.5 -119.5t-211.5 -46t-211.5 46.5t-148.5 119.5t-92.5 174.5t-50 201t-13.5 208.5zM1071 725
q0 107 -13 201.5t-44.5 183t-80 151.5t-123 100.5t-169.5 37.5t-170 -37.5t-123 -100.5t-79.5 -151.5t-44.5 -183t-13 -201.5q0 -106 13.5 -200.5t45 -182.5t80 -151t123 -100.5t168.5 -37.5t168.5 37.5t123 100.5t80 151t45 182.5t13.5 200.5z" />
    <glyph glyph-name="one.ss08" horiz-adv-x="679" 
d="M514 0h-84v1286q-40 -83 -136.5 -151t-234.5 -76v74q141 14 239.5 104.5t129.5 214.5h86v-1452z" />
    <glyph glyph-name="two.ss08" horiz-adv-x="1150" 
d="M1036 0h-915q3 140 71 271.5t205 224.5l285 192q124 83 186 173.5t62 203.5q0 143 -93.5 239.5t-254.5 96.5q-171 0 -273 -103.5t-102 -279.5q0 -34 6 -74l-84 10q-6 30 -6 76q0 191 123 319t332 128q203 0 320.5 -116.5t117.5 -293.5q0 -243 -275 -430l-303 -205
q-88 -59 -148.5 -151.5t-70.5 -200.5h817v-80z" />
    <glyph glyph-name="three.ss08" horiz-adv-x="1196" 
d="M643 860q121 -1 219.5 -51t159.5 -151t61 -236q0 -188 -139 -317.5t-344 -129.5q-213 0 -346.5 126.5t-144.5 324.5l81 18q5 -117 62 -207t148 -137t200 -47q170 0 283.5 104.5t113.5 264.5q0 165 -102.5 265.5t-278.5 100.5q-71 0 -141 -24l-39 70l510 540h-805v78h906
v-84l-494 -520q43 12 90 12z" />
    <glyph glyph-name="four.ss08" horiz-adv-x="1189" 
d="M61 375v98l672 979h127v-1003h264v-74h-264v-375h-84v375h-715zM776 449v927l-635 -927h635z" />
    <glyph glyph-name="five.ss08" horiz-adv-x="1159" 
d="M94 393l78 23q15 -156 124 -259.5t273 -103.5q179 0 288.5 115t109.5 285q0 180 -108.5 289.5t-285.5 109.5q-108 0 -198 -45t-152 -129l-86 33l150 741h712v-78h-651l-119 -598q61 75 159.5 114.5t199.5 39.5q211 0 338 -131t127 -346q0 -133 -59 -241.5t-170.5 -172.5
t-254.5 -64q-197 0 -327 118.5t-148 299.5z" />
    <glyph glyph-name="six.ss08" horiz-adv-x="1247" 
d="M201 623q0 -21 2 -41q9 66 43.5 130t91.5 117.5t143 86t187 32.5q198 0 331.5 -136.5t133.5 -354.5q0 -138 -68 -249.5t-179 -172t-241 -60.5q-235 0 -379.5 178.5t-144.5 489.5q0 169 36.5 308.5t100 236t150 162.5t186 96.5t209.5 30.5q179 0 311 -86l-29 -72
q-123 80 -286 80q-124 0 -225 -41t-169.5 -112.5t-115 -170.5t-67.5 -212t-21 -240zM244 459q0 -176 118.5 -292t282.5 -116q167 0 284.5 115.5t117.5 292.5q0 184 -112.5 297.5t-281.5 113.5q-170 0 -289.5 -119.5t-119.5 -291.5z" />
    <glyph glyph-name="seven.ss08" horiz-adv-x="1081" 
d="M1061 1452v-90q-137 -130 -243.5 -268t-194 -304t-144.5 -364t-82 -426h-88q25 240 88.5 452t156 379.5t193.5 296.5t224 246h-918v78h1008z" />
    <glyph glyph-name="eight.ss08" horiz-adv-x="1191" 
d="M596 707q-183 0 -285 -93t-102 -235q0 -141 104.5 -234.5t282.5 -93.5t282.5 93.5t104.5 234.5q0 142 -102 235t-285 93zM596 -25q-218 0 -344.5 113t-126.5 285q0 137 86.5 238t230.5 132q-128 29 -208 126t-80 227q0 164 122 272.5t320 108.5t320 -108.5t122 -272.5
q0 -130 -80 -227t-208 -126q144 -31 230.5 -132t86.5 -238q0 -172 -126.5 -285t-344.5 -113zM596 780q160 0 259 88t99 224q0 137 -96.5 224t-261.5 87t-261.5 -87t-96.5 -224q0 -136 99 -224t259 -88z" />
    <glyph glyph-name="nine.ss08" horiz-adv-x="1222" 
d="M1008 854q-33 -148 -146.5 -237t-277.5 -89q-94 0 -179 32t-150 90.5t-103.5 148t-38.5 196.5q0 211 133 345t336 137q245 0 380.5 -184t135.5 -521q0 -400 -147.5 -598.5t-415.5 -198.5q-124 0 -233 45.5t-165 120.5l56 62q53 -68 145 -109t194 -41q235 0 357.5 176
t122.5 519q0 61 -4 106zM971 1010q-3 175 -113.5 282t-275.5 107t-275 -110.5t-110 -287.5q0 -183 109.5 -290t279.5 -107q169 0 277 111t108 295z" />
    <glyph glyph-name="less.ss08" horiz-adv-x="1075" 
d="M88 676v76l811 426v-82l-741 -381l741 -383v-82z" />
    <glyph glyph-name="equal.ss08" horiz-adv-x="1198" 
d="M1047 877h-895v71h895v-71zM1047 481h-895v72h895v-72z" />
    <glyph glyph-name="greater.ss08" horiz-adv-x="1075" 
d="M987 752v-76l-811 -426v82l742 383l-742 381v82z" />
    <glyph glyph-name="cent.ss08" horiz-adv-x="1085" 
d="M535 1452h69v-233q147 -7 245.5 -89t133.5 -210l-72 -31q-13 47 -37 89t-60 79t-90.5 60.5t-119.5 27.5v-871q121 8 202 83.5t114 177.5l69 -31q-36 -123 -137 -208.5t-248 -94.5v-201h-69v203q-189 15 -307.5 155t-118.5 353q0 210 119.5 351.5t306.5 156.5v233z
M188 711q0 -182 98 -301t249 -134v869q-151 -15 -249 -134t-98 -300z" />
    <glyph glyph-name="sterling.ss08" horiz-adv-x="1202" 
d="M801 641h-385q18 -77 18 -135q0 -141 -62 -248.5t-155 -181.5h524q129 0 203.5 80t85.5 215l82 -13q-11 -164 -104.5 -261t-249.5 -97h-647v82q100 72 168.5 181t68.5 243q0 63 -20 135h-195v76h170q-4 11 -31.5 76t-36 90.5t-19.5 78.5t-11 101q0 180 115 297t301 117
q176 0 286.5 -104t122.5 -259l-86 -16q-8 131 -97 216t-226 85q-142 0 -236 -94t-94 -244q0 -59 14 -112.5t46.5 -130t41.5 -101.5h408v-76z" />
    <glyph glyph-name="currency.ss08" horiz-adv-x="1183" 
d="M160 713q0 165 106 284l-149 156l53 51l149 -155q125 100 277 100q151 0 266 -94l146 149l51 -51l-141 -147q114 -124 114 -293q0 -171 -110 -287l141 -143l-51 -52l-144 144q-120 -99 -272 -99q-163 0 -283 107l-147 -152l-51 52l147 151q-102 114 -102 279zM233 713
q0 -152 106 -258.5t257 -106.5t255.5 106.5t104.5 258.5q0 153 -104.5 258.5t-255.5 105.5t-257 -105.5t-106 -258.5z" />
    <glyph glyph-name="yen.ss08" horiz-adv-x="1236" 
d="M184 717h344l-454 735h102l445 -729l442 729h98l-452 -735h348v-76h-395v-182h395v-76h-395v-383h-87v383h-391v76h391v182h-391v76z" />
    <glyph glyph-name="ordfeminine.ss08" horiz-adv-x="821" 
d="M588 1092v57q-15 -21 -72 -29l-184 -30q-64 -11 -99.5 -46t-35.5 -94q0 -55 42 -94t119 -39q116 0 173 76t57 199zM121 948q0 83 52 133t146 64l197 31q72 10 72 69q0 73 -48.5 118.5t-133.5 45.5q-86 0 -140 -46t-65 -126l-68 18q11 97 85.5 158.5t184.5 61.5
q127 0 193 -67.5t66 -170.5v-346q0 -55 8 -121h-72q-8 46 -8 121q-28 -58 -91.5 -97.5t-148.5 -39.5q-107 0 -168 57t-61 137z" />
    <glyph glyph-name="logicalnot.ss08" horiz-adv-x="1175" 
d="M1012 457h-76v420h-797v73h873v-493z" />
    <glyph glyph-name="degree.ss08" horiz-adv-x="823" 
d="M104 1163q0 129 89.5 219.5t218.5 90.5t218 -90.5t89 -219.5t-89 -219t-218 -90t-218.5 90t-89.5 219zM178 1163q0 -101 68 -171t166 -70t165.5 70t67.5 171t-67.5 171.5t-165.5 70.5t-166 -70.5t-68 -171.5z" />
    <glyph glyph-name="plusminus.ss08" horiz-adv-x="1269" 
d="M199 874h397v310h74v-310h399v-69h-399v-311h-74v311h-397v69zM199 344h870v-70h-870v70z" />
    <glyph glyph-name="ordmasculine.ss08" horiz-adv-x="884" 
d="M442 819q110 0 187.5 81t77.5 214t-77.5 214t-187.5 81t-187 -81t-77 -214t77 -214t187 -81zM442 1475q143 0 240.5 -100t97.5 -261q0 -160 -97 -260t-241 -100q-143 0 -240.5 100.5t-97.5 259.5q0 161 97 261t241 100z" />
    <glyph glyph-name="onequarter.ss08" horiz-adv-x="1507" 
d="M248 0h-84l977 1327h84zM807 180v78l371 483h98v-495h151v-66h-151v-178h-74v178h-395zM1202 246v416l-321 -416h321zM80 1227v65q73 17 119 61t59 101h74v-741h-74v606q-17 -27 -71 -57.5t-107 -34.5z" />
    <glyph glyph-name="onehalf.ss08" horiz-adv-x="1538" 
d="M227 0h-84l979 1452h82zM1008 473l-74 10q-4 20 -4 39q0 98 71 164t187 66q112 0 180 -62.5t68 -154.5q0 -128 -150 -222l-151 -94q-103 -64 -113 -153h426v-66h-518q0 166 153 264l152 94q127 79 127 177q0 64 -48.5 109.5t-125.5 45.5q-81 0 -132.5 -48t-51.5 -128
q0 -13 4 -41zM80 1227v65q73 17 119 61t59 101h74v-741h-74v606q-17 -27 -71 -57.5t-107 -34.5z" />
    <glyph glyph-name="threequarters.ss08" horiz-adv-x="1681" 
d="M422 0h-84l977 1327h84zM981 180v78l371 483h98v-495h152v-66h-152v-178h-74v178h-395zM1376 246v416l-321 -416h321zM315 1085l-36 60l258 244h-428v65h524v-63l-254 -240q16 2 27 2q102 0 172.5 -56t70.5 -161q0 -100 -76 -168t-198 -68q-118 0 -197 62.5t-88 159.5
l70 22q4 -82 67 -131t146 -49q85 0 142.5 48.5t57.5 123.5t-53.5 117.5t-134.5 42.5q-33 0 -70 -11z" />
    <glyph glyph-name="multiply.ss08" horiz-adv-x="1163" 
d="M958 270l-378 392l-375 -390l-49 50l374 391l-374 391l49 51l377 -391l376 391l50 -49l-379 -393l379 -391z" />
    <glyph glyph-name="divide.ss08" horiz-adv-x="1220" 
d="M530 348q0 32 23.5 55t54.5 23q32 0 55 -23t23 -55q0 -31 -23 -53.5t-55 -22.5q-31 0 -54.5 22.5t-23.5 53.5zM530 1077q0 32 23.5 55t54.5 23q32 0 55 -23t23 -55q0 -31 -23 -54.5t-55 -23.5q-31 0 -54.5 23.5t-23.5 54.5zM168 678v74h885v-74h-885z" />
    <glyph glyph-name="perthousand.ss08" horiz-adv-x="2146" 
d="M918 295q0 129 89 219t218 90q86 0 158.5 -44.5t111.5 -117.5q39 74 111 118t159 44q129 0 218.5 -90t89.5 -219t-89.5 -219t-218.5 -90q-88 0 -159.5 43t-110.5 116q-39 -73 -111 -116t-159 -43q-129 0 -218 90t-89 219zM76 1157q0 129 89 219t218 90t218 -90t89 -219
t-89 -219t-218 -90t-218 90t-89 219zM150 1157q0 -101 67.5 -171.5t165.5 -70.5t165.5 70.5t67.5 171.5t-67.5 171.5t-165.5 70.5t-165.5 -70.5t-67.5 -171.5zM356 0h-84l979 1452h82zM1532 295q0 -101 67.5 -171.5t165.5 -70.5t166 70.5t68 171.5t-68 171.5t-166 70.5
t-165.5 -70.5t-67.5 -171.5zM991 295q0 -101 68 -171.5t166 -70.5t165.5 70.5t67.5 171.5t-67.5 171.5t-165.5 70.5t-166 -70.5t-68 -171.5z" />
    <glyph glyph-name="fraction.ss08" horiz-adv-x="245" 
d="M-322 0h-84l979 1452h82z" />
    <glyph glyph-name="Euro.ss08" horiz-adv-x="1536" 
d="M1085 819h-718q-5 -78 -5 -94q0 -46 7 -104h622l-35 -72h-575q37 -156 134.5 -270.5t222 -169t259.5 -54.5q118 0 225.5 41t170.5 103l51 -64q-77 -70 -193 -116t-250 -46q-120 0 -234.5 38.5t-209.5 110.5t-164.5 182t-97.5 245h-205v72h193q-7 61 -7 108q0 17 5 90
h-191v70h201q27 138 99 251t171.5 185.5t217 112t239.5 39.5q217 0 366 -103l-36 -69q-130 92 -326 92q-146 0 -277.5 -57t-231 -174.5t-134.5 -276.5h739z" />
    <glyph glyph-name="uni2113.ss08" horiz-adv-x="739" 
d="M639 109v-78q-77 -41 -162 -41q-110 0 -172.5 67.5t-62.5 192.5v373q-57 -30 -144 -60v78q66 22 144 64v473q0 143 60.5 221t154.5 78q108 0 159.5 -70.5t51.5 -187.5q0 -122 -48.5 -229.5t-122 -183.5t-173.5 -138v-418q0 -89 40.5 -138t112.5 -49q81 0 162 46z
M324 1178v-422q262 188 262 463q0 83 -30 133.5t-93 50.5q-139 0 -139 -225z" />
    <glyph glyph-name="uni2160.ss08" horiz-adv-x="915" 
d="M850 1452v-76h-350v-1298h350v-78h-784v78h350v1298h-350v76h784z" />
    <glyph glyph-name="uni2161.ss08" horiz-adv-x="1456" 
d="M1391 78v-78h-1325v78h342v1298h-342v76h1325v-76h-344v-1298h344zM963 78v1298h-471v-1298h471z" />
    <glyph glyph-name="uni2162.ss08" horiz-adv-x="2002" 
d="M1937 78v-78h-1871v78h342v1298h-342v76h1871v-76h-342v-1298h342zM1511 78v1298h-467v-1298h467zM492 1376v-1298h466v1298h-466z" />
    <glyph glyph-name="uni2163.ss08" horiz-adv-x="1937" 
d="M485 1376v-1298h602l-393 1298h-209zM1243 78h629v-78h-1806v78h335v1298h-335v76h1806v-76h-236zM1546 1376h-762l381 -1265z" />
    <glyph glyph-name="uni2164.ss08" horiz-adv-x="1505" 
d="M1440 0h-1374v78h608l-393 1298h-215v76h1374v-76h-217l-394 -1298h611v-78zM1133 1376h-762l381 -1265z" />
    <glyph glyph-name="uni2165.ss08" horiz-adv-x="1937" 
d="M1481 78v1298h-238l-393 -1298h631zM66 78h628l-393 1298h-235v76h1806v-76h-307v-1298h307v-78h-1806v78zM1153 1376h-762l381 -1265z" />
    <glyph glyph-name="uni2166.ss08" horiz-adv-x="2529" 
d="M1481 78v1298h-238l-393 -1298h631zM1153 1376h-762l381 -1265zM2462 0h-2396v78h628l-393 1298h-235v76h2402v-76h-350v-1298h344v-78zM2034 78v1298h-469v-1298h469z" />
    <glyph glyph-name="uni2167.ss08" horiz-adv-x="3043" 
d="M1477 78v1298h-232l-393 -1298h625zM1155 1376h-762l381 -1265zM2984 1452v-76h-350v-1298h340v-78h-2908v78h628l-393 1298h-235v76h2918zM2013 78v1298h-452v-1298h452zM2550 1376h-453v-1298h453v1298z" />
    <glyph glyph-name="uni2168.ss08" horiz-adv-x="1875" 
d="M1604 1376l-414 -651l412 -647h210v-78h-1746v78h335v1298h-335v76h1744v-76h-206zM680 78l412 647l-412 651h-195v-1298h195zM1507 1376h-731l365 -575zM1503 78l-362 569l-363 -569h725z" />
    <glyph glyph-name="uni2169.ss08" horiz-adv-x="1447" 
d="M254 1376h-188v76h1316v-76h-192l-422 -659l408 -639h206v-78h-1316v78h200l406 637zM350 1376l371 -585l373 585h-744zM1077 78l-356 561l-359 -561h715z" />
    <glyph glyph-name="uni216C.ss08" horiz-adv-x="1234" 
d="M1153 561v-561h-1087v78h309v1298h-309v76h722v-76h-329v-1298h608v483h86z" />
    <glyph glyph-name="uni216D.ss08" horiz-adv-x="1497" 
d="M788 -25q-139 0 -261.5 49.5t-217 142t-149 236.5t-54.5 322q0 142 36.5 264.5t100 211t149 151.5t185.5 94t207 31q329 0 480 -269v244h84v-473h-84q-37 194 -158 308t-322 114q-120 0 -226.5 -45t-189 -128t-130.5 -213t-48 -290q0 -161 47 -290.5t128 -212.5
t188.5 -127t230.5 -44q86 0 159.5 22.5t127.5 62t95.5 94t67 116t38.5 131.5h84v-477h-84v252q-65 -121 -184 -199t-300 -78z" />
    <glyph glyph-name="uni216E.ss08" horiz-adv-x="1458" 
d="M66 1452h636q132 0 247 -44t205.5 -130.5t143 -228.5t52.5 -324q0 -147 -34.5 -268.5t-95.5 -205t-144 -141t-179 -84t-203 -26.5h-628v78h319v1298h-319v76zM467 78h229q116 0 215.5 37.5t180 113t126.5 203t46 293.5q0 165 -45 292t-124 204t-179.5 116t-217.5 39h-231
v-1298z" />
    <glyph glyph-name="uni216F.ss08" horiz-adv-x="2064" 
d="M467 1452l559 -1339l559 1339h408v-76h-287v-1298h297v-78h-639v78h258v1259l-559 -1337h-74l-559 1337v-1259h275v-78h-639v78h282v1298h-282v76h401z" />
    <glyph glyph-name="minus.ss08" horiz-adv-x="1163" 
d="M1012 680h-860v70h860v-70z" />
    </font>
</defs>
</svg>
