<svg width="225" height="19" viewBox="0 0 225 19" fill="none" xmlns="http://www.w3.org/2000/svg">
<g clip-path="url(#clip0)">
<path d="M94.784 0.850983H91.2224V18.5099H94.784V0.850983Z" fill="black"/>
<path d="M119.056 12.8135V16.2191L121.406 18.4952H123.756V15.0873H122.586V12.8135H119.056Z" fill="black"/>
<path d="M124.285 0.865685V6.51115H127.631V3.37691L125.273 0.865685H124.285Z" fill="black"/>
<path d="M121.34 0.865685L119.056 3.37691V8.70579L121.34 11.2181L123.757 11.4149V7.87248L122.634 7.72775V4.21135H123.757V0.865685H121.34Z" fill="black"/>
<path d="M124.285 13.6672V18.494H125.398L127.631 16.0948V10.5318L125.273 8.02173L124.285 7.95728V13.6672Z" fill="black"/>
<path d="M83.4038 0.850983H80.0469V18.5099H83.4038V0.850983Z" fill="black"/>
<path d="M84.1754 0.881508V4.20795H85.1625V9.17614H84.1754V12.5015H86.1496L88.5082 9.99249V3.39274L86.1496 0.881508H84.1754Z" fill="black"/>
<path d="M105.08 15.1031H102.036V18.5099H105.08V15.1031Z" fill="black"/>
<path d="M105.081 0.849854H102.036V4.25658H105.081V0.849854Z" fill="black"/>
<path d="M101.489 0.850983H98.132V18.5099H101.489V0.850983Z" fill="black"/>
<path d="M104.401 7.51405H102.036V10.8608H104.401V7.51405Z" fill="black"/>
<path d="M111 0.850983H107.644V18.5099H111V0.850983Z" fill="black"/>
<path d="M111.538 0.881508V4.20795H112.827V8.18793H111.538V11.459H112.826V18.5099H116.281V11.3945L114.588 9.76296L116.281 8.09182V3.39274L113.923 0.881508H111.538Z" fill="black"/>
<path d="M39.9734 15.1043H36.9308V18.5099H39.9734V15.1043Z" fill="black"/>
<path d="M36.3756 0.850983H33.0198V18.5099H36.3756V0.850983Z" fill="black"/>
<path d="M5.5188 0.881508V7.63955H8.56258V3.39274L6.20399 0.881508H5.5188Z" fill="black"/>
<path d="M5.5188 10.8609V18.4782H6.20399L8.56258 15.9681V10.8609H5.5188Z" fill="black"/>
<path d="M2.27153 0.881577L0 3.37698V15.9829L2.27153 18.4783H4.99193V15.1326H3.56615V4.22611H4.99193V0.881577H2.27153Z" fill="black"/>
<path d="M11.5035 0.850983V18.5099H15.0821V11.3538H15.5231V8.00703H15.0821V0.850983H11.5035Z" fill="black"/>
<path d="M16.6119 0.850983V8.00703H16.1709V11.3538H16.6119V18.5099H20.1893V0.850983H16.6119Z" fill="black"/>
<path d="M30.0778 15.1043H27.0352V18.5099H30.0778V15.1043Z" fill="black"/>
<path d="M30.0767 0.849854H27.0352V4.25658H30.0767V0.849854Z" fill="black"/>
<path d="M26.4879 0.850983H23.1321V18.5099H26.4879V0.850983Z" fill="black"/>
<path d="M29.3983 7.51405H27.0352V10.8608H29.3983V7.51405Z" fill="black"/>
<path d="M42.1538 12.8135V16.2191L44.5045 18.4952H46.854V15.0873H45.6826V12.8135H42.1538Z" fill="black"/>
<path d="M47.3832 0.865685V6.51115H50.7278V3.37691L48.3692 0.865685H47.3832Z" fill="black"/>
<path d="M44.4378 0.865685L42.1538 3.37691V8.70579L44.4378 11.2181L46.854 11.4149V7.87248L45.7313 7.72775V4.21135H46.854V0.865685H44.4378Z" fill="black"/>
<path d="M47.3821 13.6672V18.494H48.4958L50.7278 16.0948V10.533L48.3703 8.02173L47.3821 7.95728V13.6672Z" fill="black"/>
<path d="M60.346 15.1031H57.3022V18.5099H60.346V15.1031Z" fill="black"/>
<path d="M60.3448 0.849854H57.3022V4.25658H60.3448V0.849854Z" fill="black"/>
<path d="M56.7549 0.850983H53.3979V18.5099H56.7549V0.850983Z" fill="black"/>
<path d="M59.6664 7.51405H57.3022V10.8608H59.6664V7.51405Z" fill="black"/>
<path d="M69.9662 0.865685H67.836H67.1113H64.8895L62.6383 18.4952H66.1977L66.4984 15.2569H67.1486V11.935H66.8071L67.4776 4.71337L68.1639 11.935H67.7987V15.2569H68.4794L68.7869 18.4952H72.3112L70.0589 0.865685H69.9662Z" fill="black"/>
<path d="M177.662 6.58034C176.947 6.51039 176.226 6.61643 175.562 6.8892C174.898 7.16197 174.31 7.59319 173.851 8.1452" fill="#0061E9"/>
<path d="M142.765 18.4444H140.704V8.69007H138.512V6.92508H140.704V4.76549C140.665 4.25803 140.733 3.74803 140.904 3.26873C141.076 2.78942 141.346 2.35156 141.698 1.98366C142.049 1.61575 142.474 1.32607 142.946 1.13346C143.417 0.940852 143.923 0.849641 144.432 0.865783C144.844 0.852646 145.256 0.914333 145.646 1.04783V2.79246C145.369 2.72879 145.086 2.69917 144.802 2.70427C144.517 2.68891 144.233 2.73614 143.969 2.84264C143.705 2.94913 143.467 3.1123 143.273 3.32062C143.079 3.52894 142.933 3.77734 142.845 4.04829C142.757 4.31924 142.73 4.60614 142.765 4.88874V6.92508H145.622V8.69007H142.765V18.4444Z" fill="#0061E9"/>
<path d="M152.918 0.876428C152.644 0.878666 152.377 0.961763 152.151 1.11531C151.924 1.26886 151.747 1.486 151.644 1.73944C151.54 1.99289 151.513 2.27135 151.567 2.53985C151.621 2.80835 151.753 3.05492 151.947 3.24858C152.141 3.44223 152.387 3.57433 152.656 3.62831C152.924 3.68229 153.203 3.65574 153.456 3.55196C153.71 3.44819 153.927 3.27184 154.08 3.04506C154.234 2.81828 154.317 2.55119 154.319 2.27733C154.32 2.09301 154.285 1.91028 154.215 1.73975C154.145 1.56923 154.042 1.41429 153.912 1.28395C153.781 1.15362 153.626 1.05047 153.456 0.980514C153.285 0.910553 153.103 0.875181 152.918 0.876428Z" fill="#0061E9"/>
<path d="M161.538 8.69053H159.272V6.92554H161.538V3.18187H163.526V6.92554H166.087V8.69053H163.526V15.0121C163.526 16.2333 164.102 16.802 165.34 16.802C165.59 16.7987 165.84 16.7779 166.087 16.7398V18.3906C165.626 18.5119 165.151 18.5713 164.675 18.567C164.247 18.6017 163.818 18.5418 163.417 18.3917C163.015 18.2416 162.652 18.0049 162.353 17.6984C162.053 17.392 161.825 17.0233 161.684 16.6186C161.543 16.2139 161.493 15.7831 161.538 15.357V8.69053Z" fill="#0061E9"/>
<path d="M177.661 6.58034C176.947 6.51039 176.226 6.61643 175.562 6.8892C174.898 7.16197 174.31 7.59319 173.851 8.1452V6.92519H171.914V18.4445H173.901V11.7609C173.901 9.68495 175.048 8.34511 176.824 8.34511C178.737 8.34511 179.746 9.4328 179.746 11.4895V18.4443H181.734V11.096C181.734 8.31005 180.174 6.58012 177.661 6.58012" fill="#0061E9"/>
<path d="M177.662 6.58034C176.947 6.51039 176.226 6.61643 175.562 6.8892C174.898 7.16197 174.31 7.59319 173.851 8.1452" fill="#0061E9"/>
<path d="M208.232 11.9458L206.311 11.5275C205.91 11.4947 205.536 11.3136 205.262 11.0196C204.987 10.7256 204.833 10.3399 204.828 9.93776C204.852 9.6829 204.927 9.43546 205.048 9.20975C205.169 8.98405 205.334 8.78454 205.532 8.62274C205.731 8.46095 205.959 8.34009 206.205 8.26713C206.45 8.19417 206.708 8.17055 206.962 8.19765C207.551 8.15333 208.136 8.32232 208.611 8.67378C209.085 9.02523 209.418 9.53568 209.547 10.1119L211.273 9.46626C211.012 8.55129 210.437 7.75774 209.648 7.2252C208.86 6.69267 207.909 6.45527 206.962 6.55478C205.955 6.51 204.969 6.85844 204.214 7.52656C203.458 8.19467 202.992 9.13018 202.913 10.1356C202.918 10.9171 203.207 11.67 203.728 12.2528C204.248 12.8357 204.964 13.2082 205.74 13.3004L207.76 13.7436C208.813 13.9811 209.417 14.595 209.417 15.4306C209.417 16.2695 208.734 17.1718 207.232 17.1718C206.568 17.2374 205.903 17.052 205.368 16.6522C204.833 16.2524 204.468 15.667 204.342 15.0111L202.566 15.6375C202.8 16.8089 204.021 18.8136 207.208 18.8136C209.917 18.8136 211.379 17.0079 211.379 15.3085C211.379 13.5831 210.261 12.3891 208.232 11.9458Z" fill="#0061E9"/>
<path d="M207.208 18.8136C204.022 18.8136 202.801 16.8077 202.566 15.6375L204.343 15.0111C204.468 15.6669 204.833 16.2523 205.368 16.6522C205.903 17.052 206.567 17.2374 207.232 17.1718C208.733 17.1718 209.416 16.2695 209.416 15.4306C209.416 14.5961 208.814 13.9799 207.76 13.7436L205.739 13.3004C204.964 13.208 204.248 12.8354 203.728 12.2525C203.208 11.6697 202.918 10.9169 202.914 10.1356C202.992 9.13028 203.458 8.19479 204.214 7.52664C204.969 6.8585 205.954 6.51001 206.962 6.55478C207.908 6.45527 208.859 6.69267 209.648 7.2252C210.436 7.75774 211.012 8.55129 211.273 9.46626L209.546 10.1119C209.417 9.53559 209.085 9.02502 208.61 8.67354C208.136 8.32205 207.551 8.15314 206.962 8.19765C206.707 8.17055 206.449 8.19417 206.204 8.26713C205.959 8.34009 205.73 8.46095 205.532 8.62274C205.333 8.78454 205.169 8.98405 205.048 9.20975C204.927 9.43546 204.852 9.6829 204.827 9.93776C204.832 10.3399 204.987 10.7256 205.262 11.0196C205.536 11.3135 205.911 11.4946 206.311 11.5275L208.232 11.9458C210.261 12.3891 211.379 13.5831 211.379 15.3085C211.379 17.0067 209.917 18.8136 207.208 18.8136Z" fill="#0061E9"/>
<path d="M221.853 11.9458L219.932 11.5275C219.532 11.4945 219.158 11.3133 218.883 11.0194C218.609 10.7254 218.454 10.3398 218.449 9.93776C218.474 9.6829 218.549 9.43546 218.67 9.20975C218.791 8.98405 218.955 8.78454 219.153 8.62274C219.352 8.46095 219.581 8.34009 219.826 8.26713C220.071 8.19417 220.329 8.17055 220.584 8.19765C221.172 8.15333 221.758 8.32232 222.232 8.67378C222.707 9.02523 223.039 9.53568 223.168 10.1119L224.895 9.46626C224.634 8.55129 224.058 7.75774 223.27 7.2252C222.481 6.69267 221.53 6.45527 220.584 6.55478C219.576 6.51 218.591 6.85844 217.835 7.52656C217.08 8.19467 216.613 9.13018 216.535 10.1356C216.539 10.9171 216.829 11.67 217.349 12.2528C217.87 12.8357 218.585 13.2082 219.361 13.3004L221.382 13.7436C222.434 13.9811 223.038 14.595 223.038 15.4306C223.038 16.2695 222.355 17.1718 220.854 17.1718C220.189 17.2374 219.524 17.052 218.99 16.6522C218.455 16.2524 218.089 15.667 217.964 15.0111L216.188 15.6375C216.422 16.8089 217.643 18.8136 220.829 18.8136C223.538 18.8136 225 17.0079 225 15.3085C225 13.5831 223.883 12.3891 221.853 11.9458Z" fill="#0061E9"/>
<path d="M150.452 8.68996V6.92497H153.911V18.4443H151.948V8.68996H150.452Z" fill="#0061E9"/>
<path d="M192.25 6.55559C191.563 6.55851 190.883 6.69961 190.251 6.97053C189.167 7.45863 188.254 8.26036 187.631 9.27229C187.007 10.2842 186.7 11.4599 186.751 12.6477C186.69 13.4417 186.795 14.2397 187.059 14.9908C187.324 15.7419 187.742 16.4296 188.288 17.0098C188.833 17.5901 189.494 18.0501 190.227 18.3607C190.96 18.6712 191.75 18.8253 192.547 18.8132C193.789 18.8363 195.001 18.4355 195.985 17.6769C196.488 17.2798 196.912 16.7915 197.234 16.2376L196.625 15.9504L195.62 15.4811C195.489 15.6951 195.336 15.8945 195.163 16.0759C194.824 16.4211 194.415 16.6907 193.964 16.8669C193.513 17.043 193.03 17.1218 192.547 17.098C191.96 17.0974 191.381 16.9608 190.856 16.6989C190.237 16.3846 189.717 15.9037 189.355 15.3103C188.994 14.7169 188.805 14.0345 188.81 13.3396V13.2695L188.812 13.1734H197.748C197.767 12.9822 197.776 12.7901 197.774 12.5979C197.774 8.8746 195.659 6.55559 192.25 6.55559ZM188.875 11.6323L188.888 11.4548C188.936 10.5903 189.314 9.77736 189.945 9.18439C190.576 8.59142 191.411 8.26389 192.276 8.26968C192.715 8.23451 193.156 8.29122 193.571 8.43619C193.987 8.58115 194.367 8.81119 194.689 9.11158C195.01 9.41198 195.266 9.77613 195.438 10.1808C195.611 10.5854 195.698 11.0216 195.692 11.4616L195.698 11.6323H188.875Z" fill="#0061E9"/>
<path d="M175.639 6.85578C176.69 6.49319 177.826 6.45263 178.901 6.73931L175.639 6.85578Z" fill="#0061E9"/>
</g>
<defs>
<clipPath id="clip0">
<rect width="225" height="17.9637" fill="white" transform="translate(0 0.849854)"/>
</clipPath>
</defs>
</svg>
