<svg width="97" height="20" viewBox="0 0 97 20" fill="none" xmlns="http://www.w3.org/2000/svg">
<g clip-path="url(#clip0)">
<path fill-rule="evenodd" clip-rule="evenodd" d="M58.1526 8.5958C55.6568 8.5958 54.5558 9.82527 54.5558 11.5684V19.72H50.8316V11.6674C50.8526 8.30948 52.8842 5.00738 58.1526 5.00738V8.5958ZM6.81824e-06 12.5495C6.81824e-06 11.5032 0.183165 10.5284 0.549481 9.62211C0.916849 8.71685 1.42948 7.92738 2.08948 7.2558C2.76392 6.57353 3.5696 6.03498 4.4579 5.67264C5.3758 5.28948 6.38316 5.09895 7.4779 5.09895C8.30843 5.09895 9.06316 5.21474 9.74317 5.44843C10.4221 5.68211 11.08 6.06527 11.7147 6.59685V5.37895H15.439V19.72H11.7158V18.5011C11.0811 19.0337 10.4232 19.4168 9.74422 19.6495C9.06422 19.8832 8.30948 20 7.47895 20C6.38422 20 5.37685 19.8084 4.4579 19.4253C3.56968 19.0633 2.764 18.5251 2.08948 17.8432C1.42522 17.1638 0.90216 16.3595 0.550533 15.4768C0.178911 14.546 -0.00807063 13.5517 6.81824e-06 12.5495ZM7.96106 16.6526C8.25474 16.6526 8.56211 16.6221 8.88527 16.5621C9.22097 16.4972 9.54805 16.3937 9.86001 16.2537C10.1874 16.1084 10.5074 15.9147 10.8211 15.6726C11.1337 15.4305 11.4316 15.1305 11.7158 14.7758V10.3232C11.4553 9.99069 11.1548 9.6916 10.8211 9.43264C10.5233 9.2038 10.201 9.00891 9.86001 8.85159C9.54907 8.70728 9.22176 8.60124 8.88527 8.5358C8.58067 8.47703 8.27127 8.44673 7.96106 8.44527C7.38527 8.44527 6.84527 8.54843 6.34106 8.75369C5.85092 8.95056 5.40501 9.2433 5.02948 9.61474C4.65508 9.9872 4.35814 10.4301 4.1558 10.9179C3.94632 11.4168 3.84106 11.9611 3.84106 12.5495C3.84106 13.1379 3.94632 13.6811 4.15685 14.1811C4.36738 14.68 4.6579 15.1147 5.02948 15.4832C5.40001 15.8516 5.8379 16.139 6.34106 16.3442C6.84422 16.5505 7.38527 16.6526 7.96211 16.6526H7.96106ZM24.7484 8.63895C22.9842 8.65158 21.4516 9.82527 21.4516 11.5684V19.72H17.7263V11.6674C17.7474 8.30948 20.7916 5.14422 24.6947 5.09895H24.7979C28.7011 5.14422 31.7453 8.30948 31.7663 11.6674V19.72H28.0421V11.5684C28.0421 9.82527 26.5095 8.65158 24.7453 8.63895H24.7474H24.7484ZM33.5305 12.5495C33.5305 11.5032 33.7137 10.5284 34.0811 9.62211C34.4474 8.71685 34.96 7.92738 35.62 7.2558C36.2945 6.57353 37.1001 6.03498 37.9884 5.67264C38.9063 5.28948 39.9137 5.09895 41.0084 5.09895C41.84 5.09895 42.5968 5.21474 43.2811 5.44843C43.9653 5.68211 44.62 6.06001 45.2453 6.58316V1.07895H48.9695V19.72H45.2453V18.5158C44.62 19.0474 43.9653 19.4284 43.2811 19.6568C42.5968 19.8853 41.839 20 41.0074 20C39.9126 20 38.9063 19.8084 37.9884 19.4253C37.1002 19.0633 36.2945 18.5251 35.62 17.8432C34.9557 17.1638 34.4327 16.3595 34.0811 15.4768C33.7094 14.546 33.5225 13.5517 33.5305 12.5495ZM41.4926 16.6526C41.7853 16.6526 42.0926 16.6221 42.4158 16.5621C42.7515 16.4972 43.0786 16.3937 43.3905 16.2537C43.7179 16.1084 44.039 15.9147 44.3516 15.6726C44.6642 15.4305 44.9621 15.1305 45.2463 14.7758V10.3232C44.9858 9.99069 44.6853 9.6916 44.3516 9.43264C44.0539 9.2038 43.7315 9.00891 43.3905 8.85159C43.0796 8.70728 42.7523 8.60124 42.4158 8.5358C42.1115 8.4771 41.8025 8.44679 41.4926 8.44527C40.9158 8.44527 40.3758 8.54843 39.8716 8.75369C39.3814 8.95056 38.9355 9.2433 38.56 9.61474C38.186 9.98729 37.8894 10.4302 37.6874 10.9179C37.4768 11.4168 37.3716 11.9611 37.3716 12.5495C37.3716 13.1379 37.4768 13.6811 37.6874 14.1811C37.8979 14.68 38.1884 15.1147 38.56 15.4832C38.9316 15.8516 39.3684 16.139 39.8716 16.3442C40.3758 16.5505 40.9158 16.6526 41.4926 16.6526ZM66.4095 16.6526C66.9674 16.6526 67.4926 16.5526 67.9863 16.3516C68.471 16.1574 68.9116 15.8675 69.2818 15.4993C69.652 15.1311 69.9442 14.6921 70.1411 14.2084C70.3516 13.7095 70.4568 13.1558 70.4568 12.5495C70.4568 11.9516 70.3495 11.4032 70.1337 10.9032C69.7216 9.92905 68.9421 9.15671 67.9642 8.75369C67.472 8.54744 66.9432 8.44254 66.4095 8.44527C65.338 8.43968 64.3077 8.85776 63.5432 9.60843C63.1575 9.99385 62.853 10.4527 62.6478 10.9579C62.4426 11.4631 62.3408 12.0043 62.3484 12.5495C62.3484 13.1558 62.4537 13.7095 62.6642 14.2084C62.8612 14.6922 63.1535 15.1312 63.5239 15.4995C63.8943 15.8677 64.3351 16.1575 64.82 16.3516C65.3126 16.5516 65.8432 16.6526 66.4095 16.6526ZM66.4095 20C65.3624 20.0068 64.3233 19.8168 63.3463 19.44C62.416 19.084 61.5622 18.5539 60.8305 17.8779C60.1122 17.21 59.5342 16.4056 59.1305 15.5116C58.7108 14.581 58.4982 13.5703 58.5074 12.5495C58.5074 11.5126 58.7147 10.5421 59.1305 9.6358C59.5453 8.73053 60.1095 7.94106 60.8242 7.26948C61.5548 6.5864 62.4076 6.04716 63.3379 5.68001C64.3147 5.28993 65.3577 5.09261 66.4095 5.09895C67.4592 5.09204 68.5003 5.28939 69.4747 5.68001C70.4022 6.04843 71.2524 6.58758 71.9811 7.26948C72.6944 7.94061 73.27 8.74437 73.6758 9.6358C74.0905 10.5411 74.2979 11.5126 74.2979 12.5495C74.2979 13.6137 74.0905 14.6011 73.6747 15.5116C73.2707 16.4056 72.6924 17.2101 71.9737 17.8779C71.2446 18.5524 70.3941 19.0825 69.4674 19.44C68.4924 19.8175 67.4549 20.0075 66.4095 20ZM77.8284 4.2558C77.5274 4.2558 77.2421 4.19895 76.9726 4.08738C76.7109 3.97888 76.4714 3.82293 76.2663 3.62738C76.0643 3.43486 75.9011 3.20547 75.7853 2.95159C75.6679 2.69379 75.6071 2.41381 75.6071 2.13053C75.6071 1.84726 75.6679 1.56728 75.7853 1.30948C75.9032 1.04948 76.0632 0.822112 76.2663 0.628428C76.4684 0.434743 76.7042 0.281059 76.9726 0.168427C77.2421 0.0557959 77.5274 6.4399e-06 77.8284 6.4399e-06C78.4154 -0.00138799 78.9802 0.223717 79.4053 0.628428C79.6084 0.822112 79.7684 1.04948 79.8863 1.31053C80.0037 1.56833 80.0645 1.84831 80.0645 2.13159C80.0645 2.41486 80.0037 2.69484 79.8863 2.95264C79.7707 3.20605 79.6078 3.43506 79.4063 3.62738C79.2032 3.82106 78.9642 3.97474 78.6916 4.08632C78.4179 4.19895 78.1305 4.25474 77.8284 4.25474V4.2558ZM75.9663 5.37895H79.6905V19.72H75.9663V5.37895ZM81.4032 12.5495C81.4032 11.5032 81.5863 10.5284 81.9526 9.62211C82.319 8.71685 82.8326 7.92738 83.4926 7.2558C84.1671 6.57353 84.9728 6.03498 85.8611 5.67264C86.779 5.28948 87.7863 5.09895 88.8811 5.09895C89.7116 5.09895 90.4695 5.21474 91.1537 5.44843C91.8379 5.68211 92.4926 6.06001 93.1179 6.58316V1.07895H96.8421V19.72H93.1179V18.5158C92.4926 19.0474 91.8379 19.4284 91.1537 19.6568C90.4695 19.8853 89.7116 20 88.88 20C87.7853 20 86.779 19.8084 85.86 19.4253C84.9718 19.0633 84.1661 18.5251 83.4916 17.8432C82.8273 17.1638 82.3043 16.3595 81.9526 15.4768C81.5814 14.5459 81.3948 13.5517 81.4032 12.5495ZM89.3642 16.6526C89.6579 16.6526 89.9653 16.6221 90.2884 16.5621C90.6241 16.4972 90.9512 16.3937 91.2632 16.2537C91.5905 16.1084 91.9105 15.9147 92.2232 15.6726C92.5368 15.4305 92.8337 15.1305 93.1179 14.7758V10.3232C92.8574 9.99069 92.5569 9.6916 92.2232 9.43264C91.9258 9.20387 91.6038 9.00898 91.2632 8.85159C90.9522 8.70728 90.6249 8.60124 90.2884 8.5358C89.9838 8.47703 89.6744 8.44673 89.3642 8.44527C88.7874 8.44527 88.2484 8.54843 87.7442 8.75369C87.2537 8.95044 86.8074 9.24318 86.4316 9.61474C86.0579 9.98738 85.7617 10.4303 85.56 10.9179C85.3495 11.4168 85.2442 11.9611 85.2442 12.5495C85.2442 13.1379 85.3495 13.6811 85.56 14.1811C85.7705 14.68 86.0611 15.1147 86.4316 15.4832C86.8032 15.8516 87.2411 16.139 87.7442 16.3442C88.2474 16.5505 88.7874 16.6526 89.3653 16.6526H89.3642Z" fill="black"/>
</g>
<defs>
<clipPath id="clip0">
<rect width="96.8421" height="20" fill="white"/>
</clipPath>
</defs>
</svg>
