<svg width="128" height="20" viewBox="0 0 128 20" fill="none" xmlns="http://www.w3.org/2000/svg">
<g clip-path="url(#clip0)">
<path d="M57.7684 8.59579C55.2884 8.59579 54.1958 9.82526 54.1958 11.5684V19.72H50.4948V11.6674C50.5158 8.30947 52.5327 5.00737 57.7663 5.00737L57.7684 8.59579ZM2.06541e-05 12.5495C2.06541e-05 11.5032 0.182126 10.5284 0.546336 9.62211C0.910547 8.71684 1.42002 7.92737 2.07581 7.25579C2.74444 6.57435 3.54446 6.03575 4.42739 5.67263C5.34107 5.28947 6.34107 5.09895 7.42739 5.09895C8.25371 5.09895 9.00318 5.21474 9.67897 5.44842C10.3527 5.68211 11.0063 6.06526 11.6369 6.59684V5.37895H15.3369V19.72H11.6379V18.5011C11.0063 19.0337 10.3537 19.4168 9.67897 19.6495C9.00318 19.8832 8.25371 20 7.42844 20C6.34107 20 5.34107 19.8084 4.42844 19.4253C3.54521 19.0626 2.74482 18.5244 2.07581 17.8432C1.41505 17.1629 0.89527 16.3587 0.546336 15.4768C0.17726 14.5454 -0.00824917 13.5514 2.06541e-05 12.5495ZM7.90844 16.6526C8.20002 16.6526 8.50634 16.6221 8.82634 16.5621C9.14739 16.5011 9.46949 16.3979 9.79476 16.2537C10.1211 16.1084 10.4379 15.9147 10.7495 15.6726C11.06 15.4305 11.3558 15.1305 11.6379 14.7758V10.3232C11.3795 9.99096 11.0811 9.69186 10.7495 9.43263C10.4539 9.20392 10.1337 9.00902 9.79476 8.85158C9.486 8.70732 9.16079 8.60127 8.82634 8.53579C8.52387 8.47704 8.21656 8.44673 7.90844 8.44526C7.33581 8.44526 6.79897 8.54842 6.29897 8.75368C5.81113 8.95123 5.36782 9.24452 4.99521 9.61623C4.62259 9.98794 4.32823 10.4305 4.12949 10.9179C3.91706 11.4354 3.8104 11.9901 3.81581 12.5495C3.81581 13.1379 3.92107 13.6811 4.12949 14.1811C4.32835 14.6685 4.62287 15.1112 4.99568 15.4829C5.36848 15.8546 5.81199 16.1478 6.30002 16.3453C6.79897 16.5505 7.33581 16.6526 7.90844 16.6526ZM24.5853 8.63895C22.8316 8.65158 21.3095 9.82526 21.3095 11.5684V19.72H17.6095V11.6674C17.6305 8.30947 20.6548 5.14421 24.5316 5.09895H24.6358C28.5127 5.14421 31.5369 8.30947 31.5579 11.6674V19.72H27.8579V11.5684C27.8579 9.82526 26.3358 8.65158 24.5821 8.63895H24.5853ZM33.3095 12.5495C33.3095 11.5032 33.4916 10.5284 33.8558 9.62211C34.219 8.71684 34.7295 7.92737 35.3842 7.25579C36.0532 6.57423 36.8536 6.03563 37.7369 5.67263C38.6495 5.28947 39.6495 5.09895 40.7369 5.09895C41.5632 5.09895 42.3158 5.21474 42.9948 5.44842C43.6748 5.68211 44.3253 6.06 44.9463 6.58316V1.07895H48.6463V19.72H44.9463V18.5158C44.3253 19.0474 43.6748 19.4284 42.9948 19.6568C42.3148 19.8853 41.5632 20 40.7369 20C39.6495 20 38.6495 19.8084 37.7369 19.4253C36.8536 19.0626 36.0532 18.5244 35.3842 17.8432C34.7239 17.1628 34.2044 16.3586 33.8558 15.4768C33.4864 14.5455 33.3005 13.5514 33.3084 12.5495H33.3095ZM41.2179 16.6526C41.5095 16.6526 41.8148 16.6221 42.1358 16.5621C42.4558 16.5011 42.7779 16.3979 43.1042 16.2537C43.4295 16.1084 43.7474 15.9147 44.0579 15.6726C44.3684 15.4305 44.6653 15.1305 44.9463 14.7758V10.3232C44.6879 9.99095 44.3895 9.69185 44.0579 9.43263C43.7627 9.20399 43.4428 9.00909 43.1042 8.85158C42.7955 8.70732 42.4703 8.60127 42.1358 8.53579C41.8333 8.47704 41.526 8.44673 41.2179 8.44526C40.6453 8.44526 40.1084 8.54842 39.6084 8.75368C39.1204 8.95112 38.6769 9.24435 38.3041 9.61607C37.9313 9.98778 37.6368 10.4304 37.4379 10.9179C37.2258 11.4354 37.1195 11.9902 37.1253 12.5495C37.1253 13.1379 37.2305 13.6811 37.4379 14.1811C37.6368 14.6685 37.9313 15.1112 38.3041 15.4829C38.6769 15.8546 39.1204 16.1478 39.6084 16.3453C40.1084 16.5505 40.6453 16.6526 41.219 16.6526H41.2179ZM65.9706 16.6526C66.5242 16.6526 67.0463 16.5526 67.5369 16.3516C68.0274 16.1516 68.4548 15.8684 68.819 15.5042C69.1821 15.14 69.4695 14.7084 69.6779 14.2095C69.8863 13.7095 69.9905 13.1568 69.9905 12.5495C69.9905 11.9516 69.8842 11.4032 69.6705 10.9032C69.2616 9.9317 68.4874 9.15976 67.5148 8.75368C67.0262 8.54754 66.5008 8.44262 65.9706 8.44526C65.4427 8.44224 64.9195 8.54343 64.4309 8.74303C63.9423 8.94263 63.4979 9.23671 63.1232 9.60842C62.759 9.97263 62.4706 10.4042 62.2569 10.9032C62.0391 11.4244 61.9302 11.9846 61.9369 12.5495C61.9369 13.1558 62.0411 13.7095 62.2495 14.2084C62.4579 14.7084 62.7442 15.14 63.1084 15.5042C63.4727 15.8684 63.9 16.1505 64.3905 16.3516C64.8811 16.5516 65.4074 16.6526 65.9706 16.6526ZM65.9706 20C64.9299 20.0068 63.8974 19.8168 62.9274 19.44C62.0028 19.0833 61.1549 18.5531 60.4295 17.8779C59.7145 17.2092 59.1398 16.4047 58.739 15.5116C58.3219 14.5803 58.1108 13.5699 58.12 12.5495C58.12 11.5126 58.3263 10.5421 58.739 9.63579C59.1516 8.73053 59.7127 7.94105 60.4221 7.26947C61.1471 6.58695 61.9946 6.04765 62.92 5.68C63.8895 5.29015 64.9256 5.0928 65.9706 5.09895C67.0484 5.09895 68.0632 5.29263 69.0148 5.68C69.9373 6.04892 70.7822 6.58812 71.5053 7.26947C72.2145 7.94163 72.7862 8.74533 73.1884 9.63579C73.6011 10.5411 73.8074 11.5126 73.8074 12.5495C73.8074 13.6137 73.6011 14.6011 73.1884 15.5116C72.7879 16.4046 72.2136 17.2091 71.499 17.8779C70.7751 18.552 69.9295 19.0821 69.0074 19.44C68.0397 19.8173 67.0092 20.0073 65.9706 20ZM77.3158 4.25579C77.0158 4.25579 76.7327 4.19895 76.4653 4.08737C76.2048 3.97876 75.9668 3.82279 75.7632 3.62737C75.5623 3.43457 75.4001 3.2052 75.2853 2.95158C75.1686 2.69358 75.1083 2.41368 75.1083 2.13053C75.1083 1.84737 75.1686 1.56747 75.2853 1.30947C75.4021 1.04947 75.5611 0.822106 75.7632 0.628421C75.9662 0.433252 76.2035 0.277297 76.4632 0.168421C76.7306 0.0557898 77.0137 3.30059e-07 77.3137 3.30059e-07C77.8973 -0.000314654 78.4585 0.22483 78.88 0.628421C79.0811 0.822106 79.24 1.04947 79.3579 1.31053C79.4746 1.56853 79.5349 1.84843 79.5349 2.13158C79.5349 2.41473 79.4746 2.69463 79.3579 2.95263C79.243 3.20588 79.0808 3.43488 78.88 3.62737C78.4586 4.03115 77.8973 4.25632 77.3137 4.25579H77.3158ZM75.4632 5.37895H79.1632V19.72H75.4632V5.37895ZM80.8632 12.5495C80.8632 11.5032 81.0463 10.5284 81.4105 9.62211C81.7748 8.71684 82.2842 7.92737 82.939 7.25579C83.6079 6.57423 84.4083 6.03563 85.2916 5.67263C86.2042 5.28947 87.2042 5.09895 88.2916 5.09895C89.1179 5.09895 89.8706 5.21474 90.5495 5.44842C91.2295 5.68211 91.88 6.06 92.5011 6.58316V1.07895H96.2011V19.72H92.5011V18.5158C91.88 19.0474 91.2295 19.4284 90.5495 19.6568C89.8695 19.8853 89.1179 20 88.2927 20C87.2042 20 86.2042 19.8084 85.2927 19.4253C84.409 19.0627 83.6083 18.5245 82.939 17.8432C82.2786 17.1628 81.7592 16.3586 81.4105 15.4768C81.0411 14.5455 80.8552 13.5514 80.8632 12.5495ZM88.7727 16.6526C89.0642 16.6526 89.3695 16.6221 89.6906 16.5621C90.0106 16.5011 90.3337 16.3979 90.659 16.2537C90.9842 16.1084 91.3021 15.9147 91.6127 15.6726C91.9232 15.4305 92.22 15.1305 92.5011 14.7758V10.3232C92.2426 9.99095 91.9443 9.69185 91.6127 9.43263C91.3174 9.20399 90.9975 9.00909 90.659 8.85158C90.3502 8.70732 90.025 8.60127 89.6906 8.53579C89.3881 8.47704 89.0808 8.44673 88.7727 8.44526C88.2 8.44526 87.6632 8.54842 87.1632 8.75368C86.6752 8.95112 86.2316 9.24435 85.8588 9.61607C85.486 9.98778 85.1915 10.4304 84.9927 10.9179C84.7806 11.4354 84.6743 11.9902 84.68 12.5495C84.68 13.1379 84.7853 13.6811 84.9927 14.1811C85.1915 14.6685 85.486 15.1112 85.8588 15.4829C86.2316 15.8546 86.6752 16.1478 87.1632 16.3453C87.6632 16.5505 88.2 16.6526 88.7737 16.6526H88.7727Z" fill="black"/>
<path d="M104.741 5.24947H110.024V3.98H104.741V0H103.421V13.8705C103.414 13.9884 103.421 14.5305 103.421 14.5305L103.463 14.9832C103.848 17.7705 106.316 19.9242 109.316 19.9432L110.024 19.9453V18.6758H109.459L109.138 18.6547C108.417 18.6241 107.713 18.4289 107.08 18.0842C105.684 17.3221 104.741 15.8789 104.741 14.2232V5.24947ZM119.783 19.9453H119.091L111.505 3.98H112.826L119.437 17.8947L126.047 3.97895H127.368L119.783 19.9453Z" fill="black"/>
</g>
<defs>
<clipPath id="clip0">
<rect width="127.368" height="20" fill="white"/>
</clipPath>
</defs>
</svg>
