<svg width="44" height="21" viewBox="0 0 44 21" fill="none" xmlns="http://www.w3.org/2000/svg">
<path d="M14.1809 11.5171C14.1809 9.86542 14.9398 8.66015 16.4129 7.72272C15.5647 6.51745 14.3148 5.89249 12.6631 5.75858C11.0561 5.62466 9.31518 6.65137 8.69022 6.65137C8.02063 6.65137 6.50288 5.80322 5.29762 5.80322C2.7978 5.84786 0.164062 7.76736 0.164062 11.7403C0.164062 12.9009 0.342621 14.1062 0.789017 15.3561C1.36933 17.0078 3.42275 21.0253 5.56545 20.936C6.68144 20.936 7.48496 20.1325 8.95806 20.1325C10.3865 20.1325 11.1008 20.936 12.3507 20.936C14.538 20.936 16.4129 17.2756 16.9485 15.6239C14.047 14.2401 14.1809 11.6064 14.1809 11.5171ZM11.6811 4.19619C12.8863 2.76772 12.7524 1.42854 12.7524 0.9375C11.6811 1.02678 10.4312 1.69637 9.71694 2.49989C8.91342 3.39268 8.46703 4.50867 8.55631 5.71394C9.71694 5.80322 10.7883 5.2229 11.6811 4.19619Z" fill="black"/>
<path d="M22.9228 3.31137V6.61948H20.8901V8.89132H22.9228V16.9158C22.9228 19.6128 24.0255 20.6889 26.8554 20.6889C27.4931 20.6889 28.1308 20.6358 28.4496 20.5561V18.2842C28.2636 18.3241 27.7986 18.3507 27.5063 18.3507C26.3372 18.3507 25.8058 17.806 25.8058 16.597V8.89132H28.4629V6.61948H25.8058V3.31137H22.9228Z" fill="black"/>
<path d="M43.0303 6.61948H40.0278L36.5204 17.7927H36.4672L32.9598 6.61948H29.9041L34.9394 20.5959H38.0216L43.0303 6.61948Z" fill="black"/>
</svg>
