<svg width="176" height="25" viewBox="0 0 176 25" fill="none" xmlns="http://www.w3.org/2000/svg">
<path d="M130.706 0.000839233H125.797V24.3504H130.706V0.000839233Z" fill="black"/>
<path d="M169.042 16.4971H164.174V21.1935L167.416 24.3304H170.657V19.6324H169.042V16.4971Z" fill="black"/>
<path d="M171.386 0.0217361V7.80633H176V3.4844L172.748 0.0217361H171.386Z" fill="black"/>
<path d="M167.324 0.0217361L164.174 3.4844V10.8342L167.324 14.2973L170.657 14.5682V9.68225L169.11 9.48352V4.635H170.657V0.0217361H167.324Z" fill="black"/>
<path d="M171.386 24.3309H172.918L175.999 21.0221V13.3515L172.748 9.88967L171.386 9.8014V24.3309Z" fill="black"/>
<path d="M115.015 0.000839233H110.386V24.3504H115.015V0.000839233Z" fill="black"/>
<path d="M116.079 0.0430526V4.6298H117.44V11.4808H116.079V16.0658H118.801L122.053 12.6057V3.50572L118.801 0.0430526H116.079Z" fill="black"/>
<path d="M144.905 19.6531H140.707V24.3495H144.905V19.6531Z" fill="black"/>
<path d="M144.905 0H140.707V4.69815H144.905V0Z" fill="black"/>
<path d="M139.952 0.000839233H135.324V24.3504H139.952V0.000839233Z" fill="black"/>
<path d="M143.967 9.18935H140.707V13.8052H143.967V9.18935Z" fill="black"/>
<path d="M153.069 0.000839233H148.441V24.3504H153.069V0.000839233Z" fill="black"/>
<path d="M153.809 0.0430526V4.6298H155.587V10.1188H153.809V14.6295H155.584V24.3504H160.349V14.5399L158.017 12.2892L160.349 9.98621V3.50572L157.099 0.0430526H153.809Z" fill="black"/>
<path d="M55.1281 19.6549H50.9314V24.3513H55.1281V19.6549Z" fill="black"/>
<path d="M50.1672 0.000839233H45.538V24.3504H50.1672V0.000839233Z" fill="black"/>
<path d="M7.61805 0.0430526V9.36178H11.8139V3.50572L8.56079 0.0430526H7.61805Z" fill="black"/>
<path d="M7.61759 24.3078H8.56077L11.8134 20.8465V13.8033H7.61759V24.3078Z" fill="black"/>
<path d="M3.13958 0.0430526L0 3.49268V20.8586L3.13958 24.3087H6.89055V19.6954H4.92462V4.65545H6.89055V0.0430526H3.13958Z" fill="black"/>
<path d="M15.8692 0V24.3504H20.8047V14.4829H21.4122V9.8688H20.8047V0H15.8692Z" fill="black"/>
<path d="M22.9124 0V9.8688H22.3058V14.4829H22.9124V24.3504H27.8475V0H22.9124Z" fill="black"/>
<path d="M41.482 19.6549H37.2871V24.3513H41.482V19.6549Z" fill="black"/>
<path d="M41.4802 0H37.2853V4.69815H41.4802V0Z" fill="black"/>
<path d="M36.5326 0.000839233H31.9044V24.3504H36.5326V0.000839233Z" fill="black"/>
<path d="M40.5454 9.18935H37.2862V13.8052H40.5454V9.18935Z" fill="black"/>
<path d="M58.1331 16.4971V21.1935L61.3757 24.3304H64.6153V19.6324H63.0003V16.4971H58.1331Z" fill="black"/>
<path d="M65.3446 0.0217361V7.80633H69.957V3.4844L66.7048 0.0217361H65.3446Z" fill="black"/>
<path d="M61.2836 0.0217361L58.134 3.4844V10.8342L61.2836 14.2973L64.6149 14.5682V9.68225L63.0673 9.48352V4.635H64.6149V0.0217361H61.2836Z" fill="black"/>
<path d="M65.3437 9.80056V24.33H66.8774L69.957 21.0213V13.3515L66.7052 9.8897L65.3437 9.80056Z" fill="black"/>
<path d="M83.2179 19.6531H79.0212V24.3495H83.2179V19.6531Z" fill="black"/>
<path d="M83.2178 0H79.0203V4.69815H83.2178V0Z" fill="black"/>
<path d="M78.2676 0.000839233H73.6393V24.3504H78.2676V0.000839233Z" fill="black"/>
<path d="M82.2822 9.18935H79.0221V13.8052H82.2822V9.18935Z" fill="black"/>
<path d="M89.4837 0.0217361L86.3793 24.3304H91.2887L91.7036 19.8659H92.5985V15.2861H92.128L93.0542 5.32728L93.9987 15.2861H93.4955V19.8659H94.4348L94.8584 24.3304H99.7173L96.6112 0.0217361H89.4837Z" fill="black"/>
</svg>
