<svg width="216" height="18" viewBox="0 0 216 18" fill="none" xmlns="http://www.w3.org/2000/svg">
<g clip-path="url(#clip0_1002_17125)">
<path d="M90.9934 0.37854H87.5742V17.3311H90.9934V0.37854Z" fill="white"/>
<path d="M114.293 11.8625V15.1319L116.55 17.3169H118.805V14.0454H117.682V11.8625H114.293Z" fill="white"/>
<path d="M119.313 0.3927V5.81234H122.525V2.80348L120.262 0.3927H119.313Z" fill="white"/>
<path d="M116.486 0.3927L114.293 2.80348V7.9192L116.486 10.3311L118.806 10.5199V7.11922L117.728 6.98029V3.60454H118.806V0.3927H116.486Z" fill="white"/>
<path d="M119.313 12.6821V17.3159H120.382L122.525 15.0125V9.67213L120.262 7.26243L119.313 7.20056V12.6821Z" fill="white"/>
<path d="M80.0674 0.37854H76.8447V17.3311H80.0674V0.37854Z" fill="white"/>
<path d="M80.8086 0.407837V3.60123H81.7562V8.37068H80.8086V11.563H82.7038L84.968 9.15438V2.81862L82.7038 0.407837H80.8086Z" fill="white"/>
<path d="M100.877 14.0605H97.9551V17.331H100.877V14.0605Z" fill="white"/>
<path d="M100.878 0.377441H97.9551V3.6479H100.878V0.377441Z" fill="white"/>
<path d="M97.4297 0.37854H94.207V17.3311H97.4297V0.37854Z" fill="white"/>
<path d="M100.225 6.77502H97.9551V9.98795H100.225V6.77502Z" fill="white"/>
<path d="M106.56 0.37854H103.339V17.3311H106.56V0.37854Z" fill="white"/>
<path d="M107.076 0.407837V3.60123H108.314V7.422H107.076V10.5622H108.312V17.3311H111.63V10.5003L110.005 8.93403L111.63 7.32974V2.81862L109.366 0.407837H107.076Z" fill="white"/>
<path d="M38.3741 14.0616H35.4531V17.331H38.3741V14.0616Z" fill="white"/>
<path d="M34.9208 0.37854H31.6992V17.3311H34.9208V0.37854Z" fill="white"/>
<path d="M5.29785 0.407837V6.89556H8.21988V2.81862L5.95563 0.407837H5.29785Z" fill="white"/>
<path d="M5.29785 9.98804V17.3007H5.95563L8.21988 14.891V9.98804H5.29785Z" fill="white"/>
<path d="M2.18067 0.407959L0 2.80354V14.9052L2.18067 17.3008H4.79226V14.0889H3.42351V3.61871H4.79226V0.407959H2.18067Z" fill="white"/>
<path d="M11.0439 0.37854V17.3311H14.4794V10.4613H14.9027V7.24834H14.4794V0.37854H11.0439Z" fill="white"/>
<path d="M15.9477 0.37854V7.24834H15.5244V10.4613H15.9477V17.3311H19.3821V0.37854H15.9477Z" fill="white"/>
<path d="M28.875 14.0616H25.9541V17.331H28.875V14.0616Z" fill="white"/>
<path d="M28.874 0.377441H25.9541V3.6479H28.874V0.377441Z" fill="white"/>
<path d="M25.4286 0.37854H22.207V17.3311H25.4286V0.37854Z" fill="white"/>
<path d="M28.2227 6.77502H25.9541V9.98795H28.2227V6.77502Z" fill="white"/>
<path d="M40.4678 11.8625V15.1319L42.7244 17.3169H44.98V14.0454H43.8555V11.8625H40.4678Z" fill="white"/>
<path d="M45.4873 0.3927V5.81234H48.6981V2.80348L46.4338 0.3927H45.4873Z" fill="white"/>
<path d="M42.6604 0.3927L40.4678 2.80348V7.9192L42.6604 10.3311L44.98 10.5199V7.11922L43.9021 6.98029V3.60454H44.98V0.3927H42.6604Z" fill="white"/>
<path d="M45.4863 12.6821V17.3159H46.5555L48.6982 15.0125V9.67321L46.435 7.26243L45.4863 7.20056V12.6821Z" fill="white"/>
<path d="M57.9318 14.0605H55.0098V17.331H57.9318V14.0605Z" fill="white"/>
<path d="M57.9307 0.377441H55.0098V3.6479H57.9307V0.377441Z" fill="white"/>
<path d="M54.4854 0.37854H51.2627V17.3311H54.4854V0.37854Z" fill="white"/>
<path d="M57.2794 6.77502H55.0098V9.98795H57.2794V6.77502Z" fill="white"/>
<path d="M67.1676 0.3927H65.1226H64.4268H62.2939L60.1328 17.317H63.5498L63.8385 14.2083H64.4627V11.0192H64.1349L64.7785 4.08648L65.4374 11.0192H65.0868V14.2083H65.7402L66.0355 17.317H69.4188L67.2566 0.3927H67.1676Z" fill="white"/>
<path d="M170.555 5.87873C169.868 5.81158 169.176 5.91337 168.539 6.17524C167.901 6.4371 167.337 6.85107 166.896 7.381" fill="white"/>
<path d="M137.055 17.2682H135.076V7.90406H132.972V6.20967H135.076V4.13646C135.039 3.6493 135.104 3.1597 135.269 2.69957C135.433 2.23943 135.693 1.81909 136.03 1.4659C136.368 1.11271 136.776 0.834613 137.228 0.64971C137.681 0.464808 138.167 0.377245 138.655 0.392741C139.051 0.380129 139.446 0.439349 139.821 0.56751V2.24236C139.555 2.18123 139.283 2.15279 139.01 2.15769C138.737 2.14294 138.464 2.18828 138.211 2.29052C137.957 2.39276 137.729 2.5494 137.542 2.74939C137.356 2.94937 137.216 3.18784 137.132 3.44795C137.047 3.70806 137.021 3.98348 137.055 4.25478V6.20967H139.798V7.90406H137.055V17.2682Z" fill="white"/>
<path d="M146.802 0.402863C146.539 0.405011 146.282 0.484784 146.065 0.632189C145.847 0.779593 145.678 0.988047 145.578 1.23136C145.478 1.47467 145.453 1.74199 145.505 1.99975C145.557 2.25751 145.683 2.49422 145.869 2.68012C146.055 2.86603 146.292 2.99285 146.55 3.04467C146.807 3.09649 147.075 3.071 147.318 2.97138C147.561 2.87176 147.77 2.70246 147.917 2.48475C148.065 2.26704 148.144 2.01064 148.147 1.74773C148.148 1.57079 148.114 1.39536 148.047 1.23166C147.979 1.06795 147.88 0.91921 147.755 0.794088C147.63 0.668966 147.481 0.569947 147.318 0.502785C147.154 0.435623 146.979 0.401665 146.802 0.402863Z" fill="white"/>
<path d="M155.077 7.90452H152.901V6.21014H155.077V2.61621H156.985V6.21014H159.443V7.90452H156.985V13.9733C156.985 15.1456 157.538 15.6915 158.727 15.6915C158.967 15.6884 159.206 15.6684 159.443 15.6318V17.2166C159.001 17.3331 158.545 17.39 158.088 17.3859C157.678 17.4192 157.265 17.3618 156.88 17.2177C156.495 17.0736 156.146 16.8463 155.859 16.5521C155.571 16.2579 155.352 15.904 155.217 15.5154C155.082 15.1269 155.034 14.7134 155.077 14.3043V7.90452Z" fill="white"/>
<path d="M170.554 5.87873C169.868 5.81158 169.176 5.91337 168.539 6.17524C167.901 6.4371 167.337 6.85107 166.896 7.381V6.20979H165.037V17.2683H166.944V10.852C166.944 8.85916 168.046 7.57291 169.75 7.57291C171.587 7.57291 172.556 8.6171 172.556 10.5915V17.2681H174.464V10.2138C174.464 7.53926 172.966 5.87852 170.554 5.87852" fill="white"/>
<path d="M170.555 5.87873C169.868 5.81158 169.176 5.91337 168.539 6.17524C167.901 6.4371 167.337 6.85107 166.896 7.381" fill="white"/>
<path d="M199.903 11.0296L198.059 10.628C197.674 10.5965 197.315 10.4226 197.052 10.1404C196.788 9.85816 196.64 9.48785 196.635 9.10184C196.659 8.85717 196.731 8.61963 196.847 8.40295C196.963 8.18627 197.121 7.99474 197.311 7.83942C197.502 7.6841 197.721 7.56808 197.957 7.49803C198.192 7.42799 198.44 7.40532 198.684 7.43134C199.249 7.38878 199.811 7.55102 200.267 7.88842C200.722 8.22581 201.041 8.71584 201.165 9.26899L202.823 8.6492C202.572 7.77082 202.02 7.00902 201.263 6.49778C200.506 5.98655 199.593 5.75865 198.684 5.85418C197.717 5.81119 196.771 6.14569 196.046 6.78708C195.32 7.42848 194.873 8.32657 194.797 9.29178C194.801 10.042 195.079 10.7648 195.579 11.3243C196.079 11.8838 196.766 12.2415 197.511 12.33L199.45 12.7555C200.461 12.9834 201.041 13.5728 201.041 14.3749C201.041 15.1803 200.385 16.0465 198.943 16.0465C198.306 16.1095 197.667 15.9315 197.154 15.5477C196.64 15.1639 196.289 14.6019 196.169 13.9722L194.464 14.5736C194.689 15.6981 195.861 17.6226 198.92 17.6226C201.52 17.6226 202.924 15.8892 202.924 14.2577C202.924 12.6013 201.851 11.4551 199.903 11.0296Z" fill="white"/>
<path d="M198.92 17.6226C195.861 17.6226 194.689 15.697 194.463 14.5736L196.169 13.9722C196.289 14.6018 196.64 15.1638 197.153 15.5477C197.666 15.9315 198.305 16.1095 198.943 16.0465C200.384 16.0465 201.04 15.1803 201.04 14.3749C201.04 13.5739 200.461 12.9823 199.449 12.7555L197.51 12.33C196.765 12.2413 196.078 11.8835 195.579 11.324C195.079 10.7645 194.801 10.0418 194.797 9.29178C194.873 8.32666 195.32 7.42858 196.045 6.78717C196.77 6.14575 197.716 5.8112 198.683 5.85418C199.592 5.75865 200.505 5.98655 201.262 6.49778C202.019 7.00902 202.571 7.77082 202.822 8.6492L201.164 9.26899C201.04 8.71575 200.722 8.22561 200.266 7.88818C199.81 7.55076 199.248 7.3886 198.683 7.43134C198.439 7.40532 198.191 7.42799 197.956 7.49803C197.72 7.56808 197.501 7.6841 197.31 7.83942C197.12 7.99474 196.962 8.18627 196.846 8.40295C196.73 8.61963 196.658 8.85717 196.634 9.10184C196.639 9.48792 196.788 9.85819 197.051 10.1404C197.315 10.4226 197.674 10.5964 198.059 10.628L199.903 11.0296C201.85 11.4551 202.924 12.6013 202.924 14.2577C202.924 15.8881 201.52 17.6226 198.92 17.6226Z" fill="white"/>
<path d="M212.979 11.0296L211.135 10.628C210.75 10.5963 210.391 10.4224 210.128 10.1402C209.865 9.85801 209.716 9.48779 209.711 9.10184C209.735 8.85717 209.807 8.61963 209.923 8.40295C210.039 8.18627 210.197 7.99474 210.387 7.83942C210.578 7.6841 210.797 7.56808 211.033 7.49803C211.269 7.42799 211.516 7.40532 211.76 7.43134C212.326 7.38878 212.887 7.55102 213.343 7.88842C213.798 8.22581 214.117 8.71584 214.242 9.26899L215.899 8.6492C215.648 7.77082 215.096 7.00902 214.339 6.49778C213.582 5.98655 212.669 5.75865 211.76 5.85418C210.793 5.81119 209.847 6.14569 209.122 6.78708C208.396 7.42848 207.949 8.32657 207.873 9.29178C207.877 10.042 208.155 10.7648 208.655 11.3243C209.155 11.8838 209.842 12.2415 210.587 12.33L212.527 12.7555C213.537 12.9834 214.117 13.5728 214.117 14.3749C214.117 15.1803 213.461 16.0465 212.02 16.0465C211.382 16.1095 210.743 15.9315 210.23 15.5477C209.717 15.1639 209.365 14.6019 209.245 13.9722L207.54 14.5736C207.765 15.6981 208.937 17.6226 211.996 17.6226C214.597 17.6226 216 15.8892 216 14.2577C216 12.6013 214.928 11.4551 212.979 11.0296Z" fill="white"/>
<path d="M144.434 7.90386V6.20947H147.754V17.268H145.87V7.90386H144.434Z" fill="white"/>
<path d="M184.56 5.85486C183.9 5.85766 183.247 5.99312 182.641 6.25321C181.6 6.72178 180.723 7.49144 180.124 8.46289C179.525 9.43434 179.231 10.563 179.28 11.7033C179.221 12.4655 179.322 13.2316 179.576 13.9527C179.83 14.6737 180.232 15.3339 180.755 15.8909C181.279 16.4479 181.913 16.8896 182.617 17.1877C183.321 17.4858 184.08 17.6338 184.844 17.6222C186.036 17.6443 187.2 17.2595 188.145 16.5313C188.628 16.1501 189.035 15.6813 189.344 15.1496L188.759 14.8738L187.794 14.4234C187.669 14.6288 187.522 14.8202 187.356 14.9943C187.03 15.3258 186.638 15.5846 186.205 15.7537C185.772 15.9228 185.308 15.9984 184.844 15.9756C184.281 15.975 183.725 15.8438 183.221 15.5924C182.626 15.2907 182.127 14.8291 181.78 14.2594C181.433 13.6897 181.252 13.0346 181.257 12.3675V12.3003L181.259 12.208H189.837C189.856 12.0244 189.864 11.84 189.862 11.6555C189.862 8.08111 187.832 5.85486 184.56 5.85486ZM181.32 10.7285L181.331 10.5581C181.377 9.7282 181.741 8.94776 182.346 8.37851C182.952 7.80925 183.753 7.49483 184.585 7.50039C185.006 7.46663 185.429 7.52107 185.828 7.66023C186.227 7.7994 186.592 8.02023 186.901 8.30861C187.209 8.59699 187.454 8.94658 187.62 9.33503C187.786 9.72349 187.869 10.1423 187.864 10.5646L187.869 10.7285H181.32Z" fill="white"/>
<path d="M168.613 6.14316C169.623 5.79507 170.713 5.75613 171.745 6.03134L168.613 6.14316Z" fill="white"/>
</g>
<defs>
<clipPath id="clip0_1002_17125">
<rect width="216" height="17.2452" fill="white" transform="translate(0 0.377441)"/>
</clipPath>
</defs>
</svg>
