<svg width="224" height="72" viewBox="0 0 224 72" fill="none" xmlns="http://www.w3.org/2000/svg">
<g clip-path="url(#clip0_1002_15309)">
<path d="M166.354 0.00109863H160.105V30.7258H166.354V0.00109863Z" fill="white"/>
<path d="M215.144 20.8157H208.949V26.7428L213.075 30.7012H217.199V24.773H215.144V20.8157Z" fill="white"/>
<path d="M218.127 0.0267334V9.8498H223.999V4.39701L219.86 0.0267334H218.127Z" fill="white"/>
<path d="M212.959 0.0267334L208.949 4.39701V13.6699L212.959 18.0402L217.2 18.3817V12.2168L215.232 11.9669V5.84781H217.2V0.0267334H212.959Z" fill="white"/>
<path d="M218.127 22.3011V30.7013H220.078L223.998 26.5263V16.8472L219.86 12.4792L218.127 12.3676V22.3011Z" fill="white"/>
<path d="M146.383 0.00109863H140.492V30.7258H146.383V0.00109863Z" fill="white"/>
<path d="M147.738 0.0546875V5.84228H149.47V14.4868H147.738V20.2722H151.202L155.34 15.9064V4.42384L151.202 0.0546875H147.738Z" fill="white"/>
<path d="M184.425 24.7987H179.081V30.7247H184.425V24.7987Z" fill="white"/>
<path d="M184.425 0H179.081V5.92821H184.425V0Z" fill="white"/>
<path d="M178.121 0.00109863H172.23V30.7258H178.121V0.00109863Z" fill="white"/>
<path d="M183.23 11.5953H179.081V17.4198H183.23V11.5953Z" fill="white"/>
<path d="M194.816 0.00109863H188.925V30.7258H194.816V0.00109863Z" fill="white"/>
<path d="M195.757 0.0546875V5.84228H198.02V12.7682H195.757V18.4598H198.016V30.7258H204.081V18.3471L201.113 15.5069L204.081 12.6008V4.42384L199.944 0.0546875H195.757Z" fill="white"/>
<path d="M70.163 24.8009H64.8218V30.7269H70.163V24.8009Z" fill="white"/>
<path d="M63.8491 0.00109863H57.9575V30.7258H63.8491V0.00109863Z" fill="white"/>
<path d="M9.69531 0.0546875V11.8129H15.0354V4.42384L10.8953 0.0546875H9.69531Z" fill="white"/>
<path d="M9.69531 30.6723H10.8953L15.0354 26.3042V17.4175H9.69531V30.6723Z" fill="white"/>
<path d="M3.99607 0.0546875L0 4.4071V26.3198L3.99607 30.6734H8.76997V24.8523H6.26764V5.87465H8.76997V0.0546875H3.99607Z" fill="white"/>
<path d="M20.1976 0V30.7258H26.4788V18.2746H27.2521V12.4524H26.4788V0H20.1976Z" fill="white"/>
<path d="M29.1612 0V12.4524H28.389V18.2746H29.1612V30.7258H35.4424V0H29.1612Z" fill="white"/>
<path d="M52.7953 24.8009H47.4564V30.7269H52.7953V24.8009Z" fill="white"/>
<path d="M52.793 0H47.454V5.92821H52.793V0Z" fill="white"/>
<path d="M46.4961 0.00109863H40.6055V30.7258H46.4961V0.00109863Z" fill="white"/>
<path d="M51.6032 11.5953H47.4551V17.4198H51.6032V11.5953Z" fill="white"/>
<path d="M73.9881 20.8157V26.7428L78.1147 30.7012H82.238V24.773H80.1826V20.8157H73.9881Z" fill="white"/>
<path d="M83.1655 0.0267334V9.8498H89.0358V4.39701L84.8968 0.0267334H83.1655Z" fill="white"/>
<path d="M77.9966 0.0267334L73.9881 4.39701V13.6699L77.9966 18.0402L82.2369 18.3817V12.2168L80.267 11.9669V5.84781H82.2369V0.0267334H77.9966Z" fill="white"/>
<path d="M83.1655 12.3665V22.3022V30.7002H85.1163L89.0358 26.5252V16.8472L84.8968 12.4792L83.1655 12.3665Z" fill="white"/>
<path d="M105.914 24.7987H100.573V30.7247H105.914V24.7987Z" fill="white"/>
<path d="M105.914 0H100.571V5.92821H105.914V0Z" fill="white"/>
<path d="M99.6134 0.00109863H93.7229V30.7258H99.6134V0.00109863Z" fill="white"/>
<path d="M104.723 11.5953H100.574V17.4198H104.723V11.5953Z" fill="white"/>
<path d="M122.798 0.0267334H119.062H117.788H113.888L109.937 30.7001H116.185L116.713 25.0665H117.853V19.2878H117.254L118.432 6.72164L119.634 19.2878H118.994V25.0665H120.189L120.729 30.7001H126.913L122.96 0.0267334H122.798Z" fill="white"/>
<path d="M105.162 51.7684C103.97 51.6525 102.768 51.8276 101.66 52.2786C100.552 52.7295 99.5722 53.4425 98.8063 54.3553" fill="white"/>
<path d="M46.9523 71.3888H43.5135V55.2581H39.857V52.3387H43.5131V48.7674C43.5131 45.5567 45.4357 42.318 49.7312 42.318C50.4197 42.2964 51.1065 42.3981 51.7585 42.6183V45.5042C51.2961 45.3993 50.8224 45.3506 50.3481 45.3592C49.8737 45.3336 49.3995 45.4116 48.9588 45.5876C48.5182 45.7637 48.1219 46.0335 47.798 46.3781C47.4741 46.7226 47.2304 47.1335 47.0843 47.5817C46.9381 48.0298 46.8929 48.5043 46.952 48.9717V52.3387H51.718V55.2581H46.952L46.9523 71.3888Z" fill="white"/>
<path d="M63.8882 42.3353C63.4314 42.339 62.9859 42.4765 62.6076 42.7304C62.2294 42.9843 61.9353 43.3434 61.7622 43.7625C61.5891 44.1816 61.5449 44.6421 61.6349 45.0861C61.7249 45.5301 61.9453 45.9378 62.2683 46.258C62.5913 46.5783 63.0026 46.7968 63.4504 46.886C63.8982 46.9753 64.3627 46.9314 64.7854 46.7598C65.2082 46.5882 65.5703 46.2966 65.8265 45.9216C66.0826 45.5466 66.2213 45.105 66.225 44.6521C66.2271 44.3473 66.1681 44.0451 66.0514 43.763C65.9347 43.481 65.7627 43.2248 65.5452 43.0092C65.3278 42.7937 65.0694 42.6231 64.7849 42.5074C64.5004 42.3917 64.1956 42.3332 63.8882 42.3353Z" fill="white"/>
<path d="M78.2673 55.258H74.4873V52.3397H78.2673V46.147H81.5823V52.3397H85.8553V55.258H81.5823V65.7128C81.5823 67.7327 82.5447 68.6735 84.6092 68.6735C85.0266 68.6682 85.443 68.6331 85.8553 68.5686V71.2995C85.0867 71.5009 84.2943 71.5992 83.4993 71.5919C80.2236 71.5919 78.2673 69.6076 78.2673 66.2819V55.258Z" fill="white"/>
<path d="M105.162 51.7684C103.97 51.6525 102.768 51.8276 101.66 52.2786C100.552 52.7295 99.5722 53.4425 98.8063 54.3553V52.3387H95.5757V71.3888H98.8896V60.3359C98.8896 56.9042 100.803 54.6867 103.765 54.6867C106.955 54.6867 108.641 56.4857 108.641 59.8884V71.3888H111.955V59.2367C111.955 54.6287 109.353 51.7684 105.162 51.7684Z" fill="white"/>
<path d="M105.162 51.7684C103.97 51.6525 102.768 51.8276 101.66 52.2786C100.552 52.7295 99.5722 53.4425 98.8063 54.3553" fill="white"/>
<path d="M156.156 60.6413L152.952 59.9494C152.284 59.8954 151.659 59.5962 151.201 59.1102C150.743 58.6241 150.485 57.9863 150.476 57.3212C150.476 55.9061 151.809 54.4419 154.037 54.4419C155.02 54.3688 155.996 54.6484 156.787 55.2297C157.579 55.811 158.133 56.6552 158.349 57.608L161.229 56.5411C160.842 55.1562 159.344 51.7267 154.037 51.7267C150.377 51.7267 147.285 54.4375 147.285 57.6482C147.285 60.3009 149.047 62.2584 151.999 62.8811L155.369 63.6143C157.125 64.0061 158.132 65.0239 158.132 66.4055C158.132 67.7916 156.993 69.2836 154.488 69.2836C153.379 69.392 152.27 69.0855 151.379 68.4242C150.487 67.7629 149.877 66.7948 149.669 65.7102L146.705 66.747C147.095 68.6832 149.133 72 154.448 72C158.967 72 161.405 69.0125 161.405 66.2024C161.405 63.3487 159.541 61.3745 156.156 60.6413Z" fill="white"/>
<path d="M154.449 71.9995C149.133 71.9995 147.096 68.6827 146.704 66.7476L149.669 65.7108C149.877 66.7956 150.488 67.7638 151.38 68.425C152.272 69.0863 153.381 69.3928 154.489 69.2843C156.993 69.2843 158.132 67.7922 158.132 66.405C158.132 65.0245 157.125 64.0067 155.368 63.6138L151.999 62.8817C149.048 62.2568 147.285 60.3004 147.285 57.6477C147.285 54.4381 150.377 51.7273 154.038 51.7273C159.344 51.7273 160.842 55.1557 161.23 56.5417L158.349 57.6086C158.134 56.6556 157.58 55.8112 156.788 55.2298C155.996 54.6485 155.02 54.369 154.038 54.4425C151.808 54.4425 150.476 55.9067 150.476 57.3207C150.485 57.9859 150.744 58.6239 151.202 59.1101C151.66 59.5963 152.284 59.8958 152.953 59.95L156.156 60.6419C159.541 61.374 161.405 63.3493 161.405 66.2019C161.405 69.0119 158.967 71.9995 154.449 71.9995Z" fill="white"/>
<path d="M178.878 60.6413L175.674 59.9494C175.005 59.8954 174.381 59.5962 173.923 59.1102C173.465 58.6241 173.207 57.9863 173.198 57.3212C173.198 55.9061 174.53 54.4419 176.759 54.4419C177.741 54.3688 178.718 54.6484 179.509 55.2297C180.301 55.811 180.855 56.6552 181.071 57.608L183.951 56.5411C183.564 55.1562 182.066 51.7267 176.759 51.7267C173.1 51.7267 170.006 54.4375 170.006 57.6482C170.006 60.3009 171.769 62.2584 174.721 62.8811L178.091 63.6143C179.847 64.0061 180.854 65.0239 180.854 66.4055C180.854 67.7916 179.714 69.2836 177.209 69.2836C176.101 69.392 174.992 69.0854 174.1 68.4242C173.208 67.763 172.598 66.7949 172.389 65.7102L169.427 66.747C169.817 68.6832 171.855 72 177.17 72C181.688 72 184.127 69.0125 184.127 66.2024C184.127 63.3487 182.263 61.3745 178.878 60.6413Z" fill="white"/>
<path d="M59.7756 55.2578V52.3395H65.5445V71.3886H62.2711V55.2578H59.7756Z" fill="white"/>
<path d="M129.498 51.7284C128.351 51.7333 127.216 51.9663 126.162 52.4136C124.354 53.2211 122.831 54.5471 121.791 56.2206C120.75 57.8941 120.239 59.8384 120.324 61.8026C120.324 68.8088 125.335 71.9995 129.992 71.9995C132.063 72.0373 134.086 71.3744 135.726 70.1201C136.566 69.4638 137.274 68.6557 137.811 67.7386L136.795 67.2643L135.117 66.4876C134.59 67.3543 133.834 68.0615 132.931 68.5328C132.027 69.0042 131.011 69.2215 129.992 69.1615C129.013 69.1607 128.048 68.9349 127.172 68.5019C126.138 67.9827 125.271 67.1876 124.668 66.2062C124.064 65.2247 123.749 64.0957 123.758 62.9465V62.8304L123.763 62.6719H138.668C138.701 62.3557 138.715 62.0379 138.712 61.72C138.712 55.5619 135.184 51.7284 129.498 51.7284ZM123.867 60.123L123.889 59.8295C123.969 58.3997 124.6 57.0552 125.653 56.0745C126.705 55.0938 128.098 54.5522 129.542 54.5619C130.273 54.5038 131.009 54.5975 131.702 54.8373C132.395 55.0771 133.029 55.4575 133.566 55.9543C134.102 56.4511 134.527 57.0534 134.815 57.7226C135.103 58.3918 135.247 59.1132 135.238 59.8406L135.249 60.123H123.867Z" fill="white"/>
<path d="M101.788 52.2238C103.543 51.6244 105.437 51.5572 107.231 52.0307L101.788 52.2238Z" fill="white"/>
</g>
<defs>
<clipPath id="clip0_1002_15309">
<rect width="224" height="72" fill="white"/>
</clipPath>
</defs>
</svg>
