<svg width="128" height="42" viewBox="0 0 128 42" fill="none" xmlns="http://www.w3.org/2000/svg">
<g clip-path="url(#clip0)">
<path d="M95.0591 0.351898H91.4885V18.0607H95.0591V0.351898Z" fill="black"/>
<path d="M122.939 12.3488H119.4V15.765L121.757 18.0465H124.114V14.6297H122.939V12.3488Z" fill="black"/>
<path d="M124.644 0.366699V6.02842H128V2.88559L125.634 0.366699H124.644Z" fill="black"/>
<path d="M121.691 0.366699L119.4 2.88559V8.23019L121.691 10.7491L124.115 10.9459V7.39271L122.99 7.24862V3.72179H124.115V0.366699H121.691Z" fill="black"/>
<path d="M124.644 13.2049V18.0465H125.759L127.999 15.6402V10.0615L125.634 7.54386L124.644 7.47954V13.2049Z" fill="black"/>
<path d="M83.6476 0.351898H80.2809V18.0607H83.6476V0.351898Z" fill="black"/>
<path d="M84.4214 0.382782V3.71858H85.4114V8.70104H84.4214V12.0355H86.4013L88.7658 9.51923V2.90103L86.4013 0.382782H84.4214Z" fill="black"/>
<path d="M105.386 14.6445H102.332V18.06H105.386V14.6445Z" fill="black"/>
<path d="M105.386 0.351257H102.332V3.7681H105.386V0.351257Z" fill="black"/>
<path d="M101.783 0.351898H98.4174V18.0607H101.783V0.351898Z" fill="black"/>
<path d="M104.703 7.03442H102.332V10.3914H104.703V7.03442Z" fill="black"/>
<path d="M111.323 0.351898H107.957V18.0607H111.323V0.351898Z" fill="black"/>
<path d="M111.861 0.382782V3.71858H113.155V7.71046H111.861V10.9909H113.152V18.0607H116.618V10.926L114.922 9.28895L116.618 7.61398V2.90103L114.254 0.382782H111.861Z" fill="black"/>
<path d="M40.0931 14.6458H37.041V18.0613H40.0931V14.6458Z" fill="black"/>
<path d="M36.4852 0.351898H33.1185V18.0607H36.4852V0.351898Z" fill="black"/>
<path d="M5.54016 0.382782V7.15986H8.59165V2.90103L6.22585 0.382782H5.54016Z" fill="black"/>
<path d="M5.54016 18.0298H6.22585L8.59165 15.5122V10.3902H5.54016V18.0298Z" fill="black"/>
<path d="M2.28347 0.382782L0 2.89138V15.5212L2.28347 18.0305H5.01141V14.6754H3.58151V3.73723H5.01141V0.382782H2.28347Z" fill="black"/>
<path d="M11.5415 0.351257V18.0607H15.1307V10.8842H15.5726V7.52842H15.1307V0.351257H11.5415Z" fill="black"/>
<path d="M16.6635 0.351257V7.52842H16.2223V10.8842H16.6635V18.0607H20.2528V0.351257H16.6635Z" fill="black"/>
<path d="M30.1688 14.6458H27.1179V18.0613H30.1688V14.6458Z" fill="black"/>
<path d="M30.1674 0.351257H27.1166V3.7681H30.1674V0.351257Z" fill="black"/>
<path d="M26.5692 0.351898H23.2031V18.0607H26.5692V0.351898Z" fill="black"/>
<path d="M29.4875 7.03442H27.1172V10.3914H29.4875V7.03442Z" fill="black"/>
<path d="M42.2789 12.3488V15.765L44.637 18.0465H46.9932V14.6297H45.8186V12.3488H42.2789Z" fill="black"/>
<path d="M47.5232 0.366699V6.02842H50.8776V2.88559L48.5125 0.366699H47.5232Z" fill="black"/>
<path d="M44.5695 0.366699L42.2789 2.88559V8.23019L44.5695 10.7491L46.9925 10.9459V7.39271L45.8669 7.24862V3.72179H46.9925V0.366699H44.5695Z" fill="black"/>
<path d="M47.5232 7.4789V13.2056V18.0459H48.6379L50.8776 15.6396V10.0615L48.5125 7.54386L47.5232 7.4789Z" fill="black"/>
<path d="M60.5222 14.6445H57.47V18.06H60.5222V14.6445Z" fill="black"/>
<path d="M60.5221 0.351257H57.4694V3.7681H60.5221V0.351257Z" fill="black"/>
<path d="M56.922 0.351898H53.556V18.0607H56.922V0.351898Z" fill="black"/>
<path d="M59.8416 7.03442H57.4706V10.3914H59.8416V7.03442Z" fill="black"/>
<path d="M70.17 0.366699H68.0351H67.3076H65.0788L62.8211 18.0459H66.3917L66.6934 14.7989H67.3443V11.4682H67.0021L67.6756 4.22544L68.3625 11.4682H67.9965V14.7989H68.6797L68.9878 18.0459H72.5217L70.2626 0.366699H70.17Z" fill="black"/>
<path d="M60.0924 30.189C59.4114 30.1222 58.7243 30.2231 58.0913 30.483C57.4582 30.743 56.8984 31.1539 56.4608 31.68" fill="#0061E9"/>
<path d="M26.8299 41.4976H24.8648V32.2004H22.7754V30.5177H24.8646V28.4593C24.8646 26.6088 25.9632 24.7421 28.4178 24.7421C28.8112 24.7296 29.2037 24.7882 29.5763 24.9151V26.5785C29.312 26.518 29.0414 26.49 28.7703 26.4949C28.4992 26.4802 28.2282 26.5251 27.9764 26.6266C27.7246 26.7281 27.4982 26.8836 27.3131 27.0822C27.128 27.2808 26.9888 27.5176 26.9053 27.7759C26.8217 28.0342 26.7959 28.3077 26.8297 28.5771V30.5177H29.5531V32.2004H26.8297L26.8299 41.4976Z" fill="#0061E9"/>
<path d="M36.5075 24.752C36.2465 24.7542 35.9919 24.8334 35.7758 24.9798C35.5597 25.1261 35.3916 25.3331 35.2927 25.5746C35.1938 25.8162 35.1685 26.0816 35.22 26.3375C35.2714 26.5934 35.3973 26.8284 35.5819 27.013C35.7665 27.1976 36.0015 27.3235 36.2574 27.3749C36.5133 27.4264 36.7787 27.4011 37.0203 27.3022C37.2618 27.2033 37.4688 27.0352 37.6151 26.8191C37.7615 26.6029 37.8407 26.3484 37.8429 26.0874C37.8441 25.9117 37.8104 25.7375 37.7437 25.5749C37.677 25.4124 37.5787 25.2647 37.4544 25.1405C37.3302 25.0162 37.1825 24.9179 37.02 24.8512C36.8574 24.7845 36.6832 24.7508 36.5075 24.752Z" fill="#0061E9"/>
<path d="M44.7242 32.2003H42.5642V30.5183H44.7242V26.949H46.6185V30.5183H49.0602V32.2003H46.6185V38.2261C46.6185 39.3903 47.1685 39.9326 48.3481 39.9326C48.5866 39.9295 48.8246 39.9093 49.0602 39.8721V41.4461C48.621 41.5622 48.1682 41.6189 47.7139 41.6146C45.8421 41.6146 44.7242 40.471 44.7242 38.5541V32.2003Z" fill="#0061E9"/>
<path d="M60.0924 30.189C59.4114 30.1222 58.7243 30.2231 58.0913 30.483C57.4582 30.743 56.8984 31.1539 56.4608 31.68V30.5177H54.6147V41.4976H56.5084V35.1271C56.5084 33.1491 57.6018 31.871 59.2942 31.871C61.1171 31.871 62.0807 32.9079 62.0807 34.8691V41.4976H63.9743V34.4935C63.9743 31.8376 62.4872 30.189 60.0924 30.189Z" fill="#0061E9"/>
<path d="M60.0924 30.189C59.4114 30.1222 58.7243 30.2231 58.0913 30.483C57.4582 30.743 56.8984 31.1539 56.4608 31.68" fill="#0061E9"/>
<path d="M89.2319 35.3031L87.4013 34.9043C87.0192 34.8731 86.6624 34.7007 86.4008 34.4205C86.1391 34.1404 85.9912 33.7728 85.9862 33.3894C85.9862 32.5738 86.7478 31.7299 88.0214 31.7299C88.5827 31.6878 89.1404 31.8489 89.5927 32.184C90.045 32.519 90.3617 33.0056 90.4849 33.5548L92.131 32.9398C91.9097 32.1416 91.0535 30.1649 88.0214 30.1649C85.9296 30.1649 84.1626 31.7273 84.1626 33.5779C84.1626 35.1069 85.1699 36.2351 86.8565 36.594L88.7823 37.0166C89.7857 37.2424 90.3614 37.829 90.3614 38.6253C90.3614 39.4242 89.7105 40.2842 88.2787 40.2842C87.6454 40.3467 87.0117 40.17 86.5021 39.7889C85.9925 39.4077 85.644 38.8497 85.525 38.2246L83.8314 38.8222C84.0546 39.9382 85.2188 41.8499 88.2561 41.8499C90.8381 41.8499 92.2313 40.1279 92.2313 38.5083C92.2313 36.8635 91.1661 35.7257 89.2319 35.3031Z" fill="#0061E9"/>
<path d="M88.2564 41.8495C85.219 41.8495 84.0548 39.9379 83.8309 38.8225L85.5252 38.2249C85.6443 38.8501 85.9929 39.4082 86.5026 39.7893C87.0123 40.1705 87.6462 40.3471 88.2795 40.2846C89.7101 40.2846 90.361 39.4246 90.361 38.625C90.361 37.8293 89.786 37.2427 88.7819 37.0163L86.8567 36.5943C85.1701 36.2341 84.1628 35.1065 84.1628 33.5776C84.1628 31.7277 85.9298 30.1653 88.0216 30.1653C91.0538 30.1653 91.9099 32.1413 92.1312 32.9401L90.4852 33.5551C90.3621 33.0058 90.0454 32.5191 89.5931 32.184C89.1407 31.8489 88.5829 31.6879 88.0216 31.7302C86.7473 31.7302 85.9864 32.5741 85.9864 33.3891C85.9914 33.7725 86.1392 34.1402 86.4009 34.4205C86.6626 34.7007 87.0194 34.8733 87.4015 34.9046L89.2321 35.3034C91.1663 35.7253 92.2315 36.8638 92.2315 38.5079C92.2315 40.1276 90.8383 41.8495 88.2564 41.8495Z" fill="#0061E9"/>
<path d="M102.216 35.3031L100.385 34.9043C100.003 34.8731 99.6464 34.7007 99.3847 34.4205C99.123 34.1404 98.9752 33.7728 98.9701 33.3894C98.9701 32.5738 99.7317 31.7299 101.005 31.7299C101.567 31.6878 102.124 31.8489 102.577 32.184C103.029 32.519 103.346 33.0056 103.469 33.5548L105.115 32.9398C104.894 32.1416 104.037 30.1649 101.005 30.1649C98.9142 30.1649 97.1466 31.7273 97.1466 33.5779C97.1466 35.1069 98.1539 36.2351 99.8404 36.594L101.766 37.0166C102.77 37.2424 103.345 37.829 103.345 38.6253C103.345 39.4242 102.694 40.2842 101.263 40.2842C100.629 40.3467 99.9955 40.17 99.4858 39.7889C98.9761 39.4077 98.6274 38.8498 98.5083 38.2246L96.8153 38.8222C97.0385 39.9382 98.2028 41.8499 101.24 41.8499C103.822 41.8499 105.215 40.1279 105.215 38.5083C105.215 36.8635 104.15 35.7257 102.216 35.3031Z" fill="#0061E9"/>
<path d="M34.1575 32.2002V30.5181H37.454V41.4974H35.5835V32.2002H34.1575Z" fill="#0061E9"/>
<path d="M73.9989 30.1659C73.3433 30.1687 72.695 30.303 72.0923 30.5608C71.0592 31.0262 70.1892 31.7905 69.5946 32.7551C69 33.7196 68.7081 34.8403 68.7565 35.9723C68.7565 40.0105 71.6202 41.8495 74.2812 41.8495C75.4648 41.8713 76.6205 41.4893 77.5579 40.7663C78.038 40.388 78.4422 39.9223 78.7491 39.3937L78.1683 39.1203L77.2099 38.6726C76.9087 39.1722 76.4766 39.5798 75.9604 39.8515C75.4442 40.1231 74.8635 40.2484 74.2812 40.2138C73.722 40.2133 73.1704 40.0832 72.6699 39.8336C72.079 39.5344 71.5832 39.0761 71.2386 38.5104C70.8939 37.9447 70.714 37.2941 70.719 36.6316V36.5648L70.7216 36.4734H79.2386C79.2574 36.2911 79.2658 36.108 79.2637 35.9247C79.2637 32.3754 77.2478 30.1659 73.9989 30.1659ZM70.7814 35.0043L70.7936 34.8351C70.8392 34.011 71.2 33.2361 71.8014 32.6708C72.4028 32.1056 73.1986 31.7935 74.0239 31.7991C74.4419 31.7655 74.8623 31.8196 75.2582 31.9578C75.6541 32.096 76.0168 32.3152 76.3231 32.6016C76.6295 32.8879 76.8727 33.2351 77.0372 33.6208C77.2018 34.0065 77.284 34.4222 77.2787 34.8415L77.2851 35.0043H70.7814Z" fill="#0061E9"/>
<path d="M58.1646 30.4514C59.1672 30.106 60.25 30.0672 61.2746 30.3402L58.1646 30.4514Z" fill="#0061E9"/>
</g>
<defs>
<clipPath id="clip0">
<rect width="128" height="41.4986" fill="white" transform="translate(0 0.351257)"/>
</clipPath>
</defs>
</svg>
