<svg width="59" height="32" viewBox="0 0 59 32" fill="none" xmlns="http://www.w3.org/2000/svg">
<path d="M39.7003 24.9751V7.02026C39.7004 6.87438 39.7381 6.73101 39.8098 6.60395C39.8814 6.47689 39.9846 6.37043 40.1094 6.29489C40.2342 6.21935 40.3764 6.17726 40.5222 6.17269C40.668 6.16812 40.8125 6.20124 40.9418 6.26882L58.0196 15.2472C58.1569 15.3189 58.272 15.4269 58.3523 15.5594C58.4326 15.6919 58.4751 15.8438 58.4751 15.9988C58.4751 16.1537 58.4326 16.3056 58.3523 16.4381C58.272 16.5706 58.1569 16.6785 58.0196 16.7502L40.9418 25.7266C40.8126 25.7944 40.668 25.8277 40.5221 25.8232C40.3762 25.8188 40.2339 25.7768 40.109 25.7012C39.9842 25.6256 39.8809 25.519 39.8093 25.3918C39.7377 25.2646 39.7002 25.1211 39.7003 24.9751Z" fill="black"/>
<path d="M25.8947 0H19.8109V32H25.8947V0Z" fill="black"/>
<path d="M27.2935 0.0535278V6.08171H29.0826V15.0869H27.2935V21.113H30.8717L35.1457 16.5631V4.60349L30.8717 0.0535278H27.2935Z" fill="black"/>
<path d="M10.0264 0.0535278V12.2993H15.5398V4.60349L11.2658 0.0535278H10.0264Z" fill="black"/>
<path d="M10.0264 31.9423H11.2658L15.5398 27.3944V18.1381H10.0264V31.9423Z" fill="black"/>
<path d="M0 4.60349V27.3945L4.1382 31.9424H9.06904V25.8812H6.48524V6.11671H9.06904V0.0535278H4.1382L0 4.60349Z" fill="black"/>
</svg>
