<svg width="128" height="49" viewBox="0 0 128 49" fill="none" xmlns="http://www.w3.org/2000/svg">
<path d="M35.7051 32.5307H37.5516V34.0979C37.8467 33.7165 38.1933 33.3779 38.5815 33.0918C39.4404 32.5167 40.4466 32.2006 41.4802 32.1814C43.8647 32.1814 46.4362 34.0748 46.4362 38.0487C46.4362 41.1814 44.7529 43.8699 41.27 43.8699C40.5662 43.9011 39.8646 43.7697 39.2197 43.486C38.5748 43.2022 38.004 42.7736 37.5516 42.2336V48.7568H35.7051V32.5307ZM37.5516 38.2119C37.5516 40.5972 38.7438 42.2336 40.9883 42.2336C41.6686 42.2574 42.3416 42.0871 42.9287 41.7425C43.5367 41.3453 44.5189 40.2462 44.5189 38.0256C44.5189 35.4071 43.0696 33.84 40.9421 33.9347C38.8138 34.0048 37.5516 35.7104 37.5516 38.2119Z" fill="#0061E9"/>
<path d="M51.8611 27.037H50.0608V43.5424H51.8611V27.037Z" fill="#0061E9"/>
<path d="M63.8087 36.9496V36.6694C63.8087 35.5233 63.8087 33.6068 61.3303 33.6068C58.9697 33.6068 58.9697 35.3371 58.9697 35.9213L57.0054 35.8043C57.0399 35.2266 57.191 34.6618 57.4495 34.144C57.8349 33.4908 58.3972 32.9598 59.0715 32.6126C59.7458 32.2653 60.5046 32.1158 61.2602 32.1814C62.4064 32.1507 63.5337 32.4772 64.486 33.1157C65.7022 34.0979 65.7022 35.3602 65.6791 36.8326V40.4102C65.7022 41.4624 65.7022 41.9996 66.4734 41.9996C66.6818 42.0014 66.8886 41.9616 67.0815 41.8826V43.4959C66.7024 43.6113 66.3093 43.6742 65.9131 43.6829C65.6776 43.7128 65.4385 43.6932 65.211 43.6254C64.9836 43.5575 64.7728 43.4429 64.5922 43.2888C64.4116 43.1348 64.2652 42.9447 64.1624 42.7308C64.0595 42.5168 64.0025 42.2838 63.9949 42.0466C63.5336 42.6051 62.9554 43.0557 62.3012 43.3667C61.6469 43.6778 60.9325 43.8417 60.2081 43.8469C58.0576 43.8469 56.4673 42.5607 56.4673 40.6903C56.4645 40.1011 56.635 39.524 56.9576 39.0309C57.5895 38.0957 58.7579 37.3476 62.0545 37.0905L63.8087 36.9496ZM60.9323 38.6568C58.8757 39.1009 58.5239 39.8721 58.5239 40.6442C58.5239 41.5324 59.2259 42.2797 60.606 42.2797C61.2028 42.3248 61.7995 42.1911 62.3199 41.8955C62.8403 41.5999 63.2608 41.156 63.5278 40.6203C63.8087 40.013 63.8326 39.7551 63.8326 38.1418C63.1067 38.2597 62.1246 38.3997 60.9323 38.6568Z" fill="#0061E9"/>
<path d="M79.6828 32.5311L75.0547 45.5536C74.2596 47.7742 73.7224 48.9903 71.6641 48.9903C71.0854 48.99 70.5099 48.9031 69.9569 48.7324V47.073C70.3436 47.1922 70.7454 47.2552 71.15 47.26C72.5054 47.26 72.8094 46.4649 73.3483 44.9447L73.8155 43.6124L70.0747 32.5311H72.0613L74.8207 41.2748L77.7433 32.5311H79.6828Z" fill="#0061E9"/>
<path d="M95.0617 0.00166321H91.4907V17.7092H95.0617V0.00166321Z" fill="black"/>
<path d="M122.94 11.9976H119.4V15.4137L121.758 17.6944H124.115V14.2775H122.94V11.9976Z" fill="black"/>
<path d="M124.646 0.0164948V5.67786H128V2.53449L125.635 0.0164948H124.646Z" fill="black"/>
<path d="M121.692 0.0164948L119.401 2.53449V7.87864L121.692 10.3983L124.116 10.5952V7.04233L122.99 6.89813V3.37162H124.116V0.0164948H121.692Z" fill="black"/>
<path d="M124.646 12.8536V17.6944H125.76L127.999 15.2884V9.71027L125.635 7.1931L124.646 7.12801V12.8536Z" fill="black"/>
<path d="M83.6508 0.00166321H80.285V17.7092H83.6508V0.00166321Z" fill="black"/>
<path d="M84.4236 0.032135V3.36749H85.414V8.34992H84.4236V11.6845H86.4036L88.7683 9.16811V2.55013L86.4036 0.032135H84.4236Z" fill="black"/>
<path d="M105.387 14.2931H102.335V17.7092H105.387V14.2931Z" fill="black"/>
<path d="M105.387 0H102.334V3.41693H105.387V0Z" fill="black"/>
<path d="M101.785 0.00166321H98.4193V17.7092H101.785V0.00166321Z" fill="black"/>
<path d="M104.705 6.68304H102.335V10.0398H104.705V6.68304Z" fill="black"/>
<path d="M111.325 0.00166321H107.959V17.7092H111.325V0.00166321Z" fill="black"/>
<path d="M111.863 0.032135V3.36749H113.156V7.35953H111.863V10.6405H113.153V17.7092H116.619V10.5746L114.923 8.93822L116.619 7.26313V2.55013L114.255 0.032135H111.863Z" fill="black"/>
<path d="M40.0993 14.2939H37.0474V17.71H40.0993V14.2939Z" fill="black"/>
<path d="M36.4904 0.00166321H33.1245V17.7092H36.4904V0.00166321Z" fill="black"/>
<path d="M5.54846 0.032135V6.80913H8.59955V2.55013L6.23399 0.032135H5.54846Z" fill="black"/>
<path d="M5.54846 17.6787H6.23399L8.60038 15.1615V10.0398H5.54846V17.6787Z" fill="black"/>
<path d="M2.29141 0.032135L0 2.54931V15.1607L2.29141 17.6787H5.01951V14.3236H3.58913V3.38644H5.01951V0.032135H2.29141Z" fill="black"/>
<path d="M11.5485 0.000801086V17.7092H15.1376V10.5325H15.5792V7.17742H15.1376V0.000801086H11.5485Z" fill="black"/>
<path d="M16.671 0.000801086V7.17742H16.2294V10.5325H16.671V17.7092H20.2593V0.000801086H16.671Z" fill="black"/>
<path d="M30.1756 14.2939H27.1245V17.71H30.1756V14.2939Z" fill="black"/>
<path d="M30.1739 0H27.1237V3.41693H30.1739V0Z" fill="black"/>
<path d="M26.5757 0.00166321H23.2098V17.7092H26.5757V0.00166321Z" fill="black"/>
<path d="M29.4933 6.68304H27.1237V10.0398H29.4933V6.68304Z" fill="black"/>
<path d="M42.2843 11.9976V15.4137L44.6416 17.6944H46.9981V14.2775H45.824V11.9976H42.2843Z" fill="black"/>
<path d="M47.5288 0.0164948V5.67786H50.8831V2.53449L48.5184 0.0164948H47.5288Z" fill="black"/>
<path d="M44.5749 0.0164948L42.2843 2.53449V7.87864L44.5749 10.3983L46.9981 10.5952V7.04233L45.8726 6.89813V3.37162H46.9981V0.0164948H44.5749Z" fill="black"/>
<path d="M47.528 7.12801V12.8545V17.6944H48.6436L50.8831 15.2884V9.71109L48.5183 7.1931L47.528 7.12801Z" fill="black"/>
<path d="M60.5266 14.2931H57.4747V17.7092H60.5266V14.2931Z" fill="black"/>
<path d="M60.5266 0H57.4747V3.41693H60.5266V0Z" fill="black"/>
<path d="M56.9268 0.00166321H53.561V17.7092H56.9268V0.00166321Z" fill="black"/>
<path d="M59.846 6.68304H57.4755V10.0398H59.846V6.68304Z" fill="black"/>
<path d="M70.1743 0.0164948H68.0386H67.3119H65.0831L62.8263 17.6952H66.3957L66.6972 14.448H67.3481V11.1176H67.0062L67.6802 3.87506L68.3674 11.1176H68.0007V14.448H68.6838L68.9919 17.6952H72.5259L70.2666 0.0164948H70.1743Z" fill="black"/>
<path d="M85.6509 43.7269V32.5565C85.6509 32.4657 85.6744 32.3765 85.719 32.2974C85.7637 32.2183 85.8279 32.1521 85.9056 32.1052C85.9834 32.0582 86.0719 32.032 86.1626 32.0293C86.2534 32.0265 86.3433 32.0472 86.4237 32.0894L97.0494 37.6741C97.1346 37.7189 97.206 37.7862 97.2557 37.8686C97.3055 37.951 97.3318 38.0454 97.3318 38.1417C97.3318 38.238 97.3055 38.3324 97.2557 38.4148C97.206 38.4972 97.1346 38.5645 97.0494 38.6093L86.4237 44.194C86.3433 44.2363 86.2534 44.2571 86.1626 44.2545C86.0717 44.2518 85.9832 44.2257 85.9054 44.1787C85.8277 44.1317 85.7634 44.0654 85.7188 43.9862C85.6742 43.9071 85.6508 43.8177 85.6509 43.7269Z" fill="#0061E9"/>
</svg>
