<svg width="53" height="32" viewBox="0 0 53 32" fill="none" xmlns="http://www.w3.org/2000/svg">
<path d="M26.6846 0H20.6129V31.9414H26.6846V0Z" fill="black"/>
<path d="M28.0808 0.0559425V6.07164H29.8671V15.061H28.0808V21.0746H31.6513L35.918 16.5364V4.59828L31.6513 0.0559425H28.0808Z" fill="black"/>
<path d="M10.0088 0.0559425V12.28H15.5126V4.59828L11.2459 0.0559425H10.0088Z" fill="black"/>
<path d="M10.0088 31.8854H11.2459L15.5126 27.3473V18.1072H10.0088V31.8854Z" fill="black"/>
<path d="M4.1341 0.0545406L0 4.5948V27.3458L4.1341 31.8861H9.05359V25.8352H6.47366V6.10546H9.05359V0.0545406H4.1341Z" fill="black"/>
<path d="M47.5603 32H44.0168V15.2294H40.2474V12.1957H44.0168V8.48223C43.9496 7.60985 44.0669 6.73312 44.3611 5.90908C44.6552 5.08504 45.1196 4.33216 45.7241 3.69955C46.3286 3.06694 47.0595 2.56879 47.8693 2.23745C48.6791 1.90611 49.5496 1.74903 50.4242 1.7765C51.1343 1.75327 51.8428 1.8593 52.5151 2.08941V5.09C52.0381 4.98052 51.5496 4.92972 51.0604 4.93873C50.5715 4.91223 50.0828 4.99335 49.6288 5.17638C49.1747 5.35941 48.7664 5.63988 48.4326 5.99799C48.0988 6.3561 47.8477 6.78309 47.697 7.24887C47.5462 7.71464 47.4996 8.20787 47.5603 8.69364V12.1957H52.4736V15.2294H47.5603V32Z" fill="black"/>
</svg>
