<svg width="103" height="21" viewBox="0 0 103 21" fill="none" xmlns="http://www.w3.org/2000/svg">
<path d="M14.1809 11.5171C14.1809 9.86542 14.9398 8.66015 16.4129 7.72272C15.5647 6.51745 14.3148 5.89249 12.6631 5.75858C11.0561 5.62466 9.31518 6.65137 8.69022 6.65137C8.02063 6.65137 6.50288 5.80322 5.29762 5.80322C2.7978 5.84786 0.164062 7.76736 0.164062 11.7403C0.164062 12.9009 0.342621 14.1062 0.789017 15.3561C1.36933 17.0078 3.42275 21.0253 5.56545 20.936C6.68144 20.936 7.48496 20.1325 8.95806 20.1325C10.3865 20.1325 11.1008 20.936 12.3507 20.936C14.538 20.936 16.4129 17.2756 16.9485 15.6239C14.047 14.2401 14.1809 11.6064 14.1809 11.5171ZM11.6811 4.19619C12.8863 2.76772 12.7524 1.42854 12.7524 0.9375C11.6811 1.02678 10.4312 1.69637 9.71694 2.49989C8.91342 3.39268 8.46703 4.50867 8.55631 5.71394C9.71694 5.80322 10.7883 5.2229 11.6811 4.19619Z" fill="black"/>
<path d="M23.6137 4.36093C24.5304 4.36093 25.2611 3.61694 25.2611 2.71352C25.2611 1.79681 24.5304 1.0661 23.6137 1.0661C22.697 1.0661 21.953 1.79681 21.953 2.71352C21.953 3.61694 22.697 4.36093 23.6137 4.36093ZM22.1788 20.5959H25.0485V6.61948H22.1788V20.5959Z" fill="black"/>
<path d="M28.6021 1.42482V20.5959H31.5781V14.0461H35.6966C39.4565 14.0461 42.1003 11.4687 42.1003 7.72219C42.1003 3.98893 39.5096 1.42482 35.7896 1.42482H28.6021ZM31.5781 3.93579H35.0058C37.5832 3.93579 39.0579 5.31749 39.0579 7.73547C39.0579 10.1535 37.5832 11.5484 34.9925 11.5484H31.5781V3.93579Z" fill="black"/>
<path d="M44.7372 20.5959H47.6069V12.5183C47.6069 10.3129 48.9089 8.85146 51.0346 8.85146C53.054 8.85146 54.0903 10.087 54.0903 12.1463V20.5959H56.9733V11.5883C56.9733 8.42632 55.1398 6.38034 52.0709 6.38034C49.9452 6.38034 48.4173 7.32362 47.6468 8.95775H47.5803V1.42482H44.7372V20.5959Z" fill="black"/>
<path d="M66.0271 20.8616C70.0261 20.8616 72.6566 18.1115 72.6566 13.6077C72.6566 9.11717 70.0128 6.36706 66.0271 6.36706C62.0414 6.36706 59.3976 9.11717 59.3976 13.6077C59.3976 18.1115 62.0282 20.8616 66.0271 20.8616ZM66.0271 18.4968C63.7819 18.4968 62.3204 16.7165 62.3204 13.6077C62.3204 10.5122 63.7819 8.73189 66.0271 8.73189C68.2724 8.73189 69.7338 10.5122 69.7338 13.6077C69.7338 16.7165 68.2857 18.4968 66.0271 18.4968Z" fill="black"/>
<path d="M75.1474 20.5959H78.0171V12.4519C78.0171 10.2863 79.3191 8.85146 81.3385 8.85146C83.3313 8.85146 84.3145 10.0073 84.3145 12.1064V20.5959H87.1974V11.5484C87.1974 8.34661 85.4305 6.38034 82.3482 6.38034C80.1959 6.38034 78.708 7.36348 77.9507 8.95775H77.8842V6.61948H75.1474V20.5959Z" fill="black"/>
<path d="M99.5063 16.4907C99.121 17.713 97.912 18.5367 96.2779 18.5367C93.9795 18.5367 92.5181 16.9291 92.5181 14.4978V14.3251H102.389V13.342C102.389 9.10389 99.9713 6.36706 96.0919 6.36706C92.1461 6.36706 89.6218 9.28989 89.6218 13.6741C89.6218 18.0849 92.1062 20.8616 96.2115 20.8616C99.4133 20.8616 101.831 19.0415 102.23 16.4907H99.5063ZM96.0919 8.67875C98.098 8.67875 99.4531 10.18 99.5196 12.319H92.5313C92.6775 10.2066 94.0858 8.67875 96.0919 8.67875Z" fill="black"/>
</svg>
