<svg width="68" height="20" viewBox="0 0 68 20" fill="none" xmlns="http://www.w3.org/2000/svg">
<g clip-path="url(#clip0)">
<path fill-rule="evenodd" clip-rule="evenodd" d="M45.859 4.27684L39.5347 10.3242V4.25684H34.0442V19.6758H39.5347V13.4211L46.1379 19.6758H53.0474L44.6558 11.6516L51.6063 5.00737V14.1579C51.6063 17.1958 53.5168 20 58.3284 20C60.6126 20 62.7095 18.7611 63.7284 17.64L66.1968 19.6758H67.3684V4.27684H61.8789V14.2463C61.26 15.2779 60.399 15.9274 59.0684 15.9274C57.7168 15.9274 57.0979 15.1621 57.0979 12.7126V4.27684H45.859ZM18.3305 19.6905H12.1L7.15474 13.1263H5.49158V19.6758H0V0H7.86526C12.4 0 16.1011 2.94842 16.1011 6.57684C16.1011 8.78842 14.6821 10.7653 12.5221 11.9737L18.3305 19.6895V19.6905ZM10.6105 6.57789C10.6105 4.74632 9.07053 3.27263 7.18842 3.27263H5.49053V9.85158H7.18947C9.07158 9.85158 10.6105 8.37789 10.6105 6.57789ZM32.9758 11.9758C32.9758 16.4326 29.1853 20.0011 24.5232 20.0011C19.8642 20.0011 16.1021 16.4326 16.1021 11.9758C16.1021 7.52316 19.8642 3.95158 24.5232 3.95158C29.1853 3.95158 32.9758 7.5221 32.9758 11.9758ZM24.5232 7.75789C23.0737 7.75789 21.8411 9.6421 21.8411 11.9758C21.8411 14.3084 23.0737 16.1958 24.5242 16.1958C26.0084 16.1958 27.24 14.3084 27.24 11.9747C27.24 9.64316 26.0084 7.75789 24.5242 7.75789" fill="black"/>
</g>
<defs>
<clipPath id="clip0">
<rect width="67.3684" height="20" fill="white"/>
</clipPath>
</defs>
</svg>
